<svg xmlns="http://www.w3.org/2000/svg" xml:space="preserve" id="Layer_1" x="0" y="0" style="enable-background:new 0 0 2000 2000" version="1.1" viewBox="0 0 2000 2000">
  <style>
    .st0{fill:#0c918e}.st1{fill:#58c4bf}.st2{fill:#7dcecc}.st3{fill:#acdee0}.st4{fill:#8fd3cf}.st5{fill:#0d876f}.st7{fill:#229181}.st8{fill:#8ed0bd}.st19{opacity:.6;fill:#e22437;enable-background:new}
  </style>
  <path d="m781.5 809-.7-305 273.7-192.6 239.6 209.7-102.5 322.4-196.5 213.3L781.5 809zm821.7 672.2 35.1-438.6-461.2 117.8L1436.5 907l137-506.3L1049.6 9.9 507.9 406 532 880.7l292.4 299.8-462.6-75.3 69.5 366.8 420-48.7L594.6 1996l390.3 2.8 82.9-592.2 535.4 74.6z" class="st0"/>
  <path d="m1339.4 489.5-91.8-80.2-32.5-28.6L1090.9 272l-32.7-28.6-.4-.3-19.1 13.5-311.6 219.5.1 41.2.4 192 .1 50.4.1 69.3 39.7 46 44.5 51.7 181.7 210.9 245.4-266.5 94.2-295.9 22.7-71.4-16.6-14.3zm-48.2 114-80 251.4-216.8 235.4-156.1-181.5-44.5-51.5-34.5-40-.1-78.7-.1-50.4-.4-192v-3.8L1055.9 283l8.2 7.2 124.2 108.7 32.5 28.6 91.8 80.2 7.3 6.3-28.7 89.5zm-281.1 739.6-4.2 61.4 76.2-51.4-72-10zm-72.5-123.5L715.4 991.9l-26.5 17.7 190.6 195.5-393-59-37.6 25.3 466.9 62.8 41.4 5.6-19.6-20.2zm401.8-730.1-91.8-80.2-32.5-28.6L1090.9 272l-32.7-28.6-.4-.3-19.1 13.5-311.6 219.5.1 41.2.4 192 .1 50.4.1 69.3 39.7 46 44.5 51.7 181.7 210.9 245.4-266.5 94.2-295.9 22.7-71.4-16.6-14.3zm-48.2 114-80 251.4-216.8 235.4-156.1-181.5-44.5-51.5-34.5-40-.1-78.7-.1-50.4-.4-192v-3.8L1055.9 283l8.2 7.2 124.2 108.7 32.5 28.6 91.8 80.2 7.3 6.3-28.7 89.5zm48.2-114-91.8-80.2-32.5-28.6L1090.9 272l-32.7-28.6-.4-.3-19.1 13.5-311.6 219.5.1 41.2.4 192 .1 50.4.1 69.3 39.7 46 44.5 51.7 181.7 210.9 245.4-266.5 94.2-295.9 22.7-71.4-16.6-14.3zm-48.2 114-80 251.4-216.8 235.4-156.1-181.5-44.5-51.5-34.5-40-.1-78.7-.1-50.4-.4-192v-3.8L1055.9 283l8.2 7.2 124.2 108.7 32.5 28.6 91.8 80.2 7.3 6.3-28.7 89.5zm-281.1 739.6-4.2 61.4 76.2-51.4-72-10zm329.3-853.6-91.8-80.2-32.5-28.6L1090.9 272l-32.7-28.6-.4-.3-19.1 13.5-311.6 219.5.1 41.2.4 192 .1 50.4.1 69.3 39.7 46 44.5 51.7 181.7 210.9 245.4-266.5 94.2-295.9 22.7-71.4-16.6-14.3zm-48.2 114-80 251.4-216.8 235.4-156.1-181.5-44.5-51.5-34.5-40-.1-78.7-.1-50.4-.4-192v-3.8L1055.9 283l8.2 7.2 124.2 108.7 32.5 28.6 91.8 80.2 7.3 6.3-28.7 89.5zm48.2-114-91.8-80.2-32.5-28.6L1090.9 272l-32.7-28.6-.4-.3-19.1 13.5-311.6 219.5.1 41.2.4 192 .1 50.4.1 69.3 39.7 46 44.5 51.7 181.7 210.9 245.4-266.5 94.2-295.9 22.7-71.4-16.6-14.3zm-48.2 114-80 251.4-216.8 235.4-156.1-181.5-44.5-51.5-34.5-40-.1-78.7-.1-50.4-.4-192v-3.8L1055.9 283l8.2 7.2 124.2 108.7 32.5 28.6 91.8 80.2 7.3 6.3-28.7 89.5zm-281.1 739.6-4.2 61.4 76.2-51.4-72-10zm329.3-853.6-91.8-80.2-32.5-28.6L1090.9 272l-32.7-28.6-.4-.3-19.1 13.5-311.6 219.5.1 41.2.4 192 .1 50.4.1 69.3 39.7 46 44.5 51.7 181.7 210.9 245.4-266.5 94.2-295.9 22.7-71.4-16.6-14.3zm-48.2 114-80 251.4-216.8 235.4-156.1-181.5-44.5-51.5-34.5-40-.1-78.7-.1-50.4-.4-192v-3.8L1055.9 283l8.2 7.2 124.2 108.7 32.5 28.6 91.8 80.2 7.3 6.3-28.7 89.5zm48.2-114-91.8-80.2-32.5-28.6L1090.9 272l-32.7-28.6-.4-.3-19.1 13.5-311.6 219.5.1 41.2.4 192 .1 50.4.1 69.3 39.7 46 44.5 51.7 181.7 210.9 245.4-266.5 94.2-295.9 22.7-71.4-16.6-14.3zm-48.2 114-80 251.4-216.8 235.4-156.1-181.5-44.5-51.5-34.5-40-.1-78.7-.1-50.4-.4-192v-3.8L1055.9 283l8.2 7.2 124.2 108.7 32.5 28.6 91.8 80.2 7.3 6.3-28.7 89.5zm-281.1 739.6-4.2 61.4 76.2-51.4-72-10zm329.3-853.6-91.8-80.2-32.5-28.6L1090.9 272l-32.7-28.6-.4-.3-19.1 13.5-311.6 219.5.1 41.2.4 192 .1 50.4.1 69.3 39.7 46 44.5 51.7 181.7 210.9 245.4-266.5 94.2-295.9 22.7-71.4-16.6-14.3zm-48.2 114-80 251.4-216.8 235.4-156.1-181.5-44.5-51.5-34.5-40-.1-78.7-.1-50.4-.4-192v-3.8L1055.9 283l8.2 7.2 124.2 108.7 32.5 28.6 91.8 80.2 7.3 6.3-28.7 89.5zm48.2-114-91.8-80.2-32.5-28.6L1090.9 272l-32.7-28.6-.4-.3-19.1 13.5-311.6 219.5.1 41.2.4 192 .1 50.4.1 69.3 39.7 46 44.5 51.7 181.7 210.9 245.4-266.5 94.2-295.9 22.7-71.4-16.6-14.3zm-48.2 114-80 251.4-216.8 235.4-156.1-181.5-44.5-51.5-34.5-40-.1-78.7-.1-50.4-.4-192v-3.8L1055.9 283l8.2 7.2 124.2 108.7 32.5 28.6 91.8 80.2 7.3 6.3-28.7 89.5zm-281.1 739.6-4.2 61.4 76.2-51.4-72-10zm329.3-853.6-91.8-80.2-32.5-28.6L1090.9 272l-32.7-28.6-.4-.3-19.1 13.5-311.6 219.5.1 41.2.4 192 .1 50.4.1 69.3 39.7 46 44.5 51.7 181.7 210.9 245.4-266.5 94.2-295.9 22.7-71.4-16.6-14.3zm-48.2 114-80 251.4-216.8 235.4-156.1-181.5-44.5-51.5-34.5-40-.1-78.7-.1-50.4-.4-192v-3.8L1055.9 283l8.2 7.2 124.2 108.7 32.5 28.6 91.8 80.2 7.3 6.3-28.7 89.5zm48.2-114-91.8-80.2-32.5-28.6L1090.9 272l-32.7-28.6-.4-.3-19.1 13.5-311.6 219.5.1 41.2.4 192 .1 50.4.1 69.3 39.7 46 44.5 51.7 181.7 210.9 245.4-266.5 94.2-295.9 22.7-71.4-16.6-14.3zm-48.2 114-80 251.4-216.8 235.4-156.1-181.5-44.5-51.5-34.5-40-.1-78.7-.1-50.4-.4-192v-3.8L1055.9 283l8.2 7.2 124.2 108.7 32.5 28.6 91.8 80.2 7.3 6.3-28.7 89.5zm48.2-114-91.8-80.2-32.5-28.6L1090.9 272l-32.7-28.6-.4-.3-19.1 13.5-311.6 219.5.1 41.2.4 192 .1 50.4.1 69.3 39.7 46 44.5 51.7 181.7 210.9 245.4-266.5 94.2-295.9 22.7-71.4-16.6-14.3zm-48.2 114-80 251.4-216.8 235.4-156.1-181.5-44.5-51.5-34.5-40-.1-78.7-.1-50.4-.4-192v-3.8L1055.9 283l8.2 7.2 124.2 108.7 32.5 28.6 91.8 80.2 7.3 6.3-28.7 89.5zm48.2-114-91.8-80.2-32.5-28.6L1090.9 272l-32.7-28.6-.4-.3-19.1 13.5-311.6 219.5.1 41.2.4 192 .1 50.4.1 69.3 39.7 46 44.5 51.7 181.7 210.9 245.4-266.5 94.2-295.9 22.7-71.4-16.6-14.3zm-48.2 114-80 251.4-216.8 235.4-156.1-181.5-44.5-51.5-34.5-40-.1-78.7-.1-50.4-.4-192v-3.8L1055.9 283l8.2 7.2 124.2 108.7 32.5 28.6 91.8 80.2 7.3 6.3-28.7 89.5zm138.6 515.4-327.8 83.8 142.6-139.4 166.8-163 5.1-4.9 124.4-460 7-25.8-42.7-31.8-100.1-74.6-35.6-26.5-135.4-101.1-35.6-26.5-149.2-111.3L530.8 417l8.9 176.2 2.5 48.8 9.4 186.1 2.3 43.2 3.4 3.5 83.6 85.7 48 49.3 190.6 195.5-393-59-97-14.5 13.5 70.9 46.5 245.1 183.8-22.7 91.6-11.3 156.3-19.3-57.4 133-49.7 115.1-144.8 335.7 355.6 7.3 50.7-519.4 8.4-86 98.7 13.8 440.2 61.4 30.1-378.7.4-4.9-183.6 47.1zm124.4 300.4-371.9-51.9-100.2-14.1-71.9-10-4.2 61.4-5.9 85.6-31.8 465.5-290.7-2 138.8-339.7 46-112.8 60.4-147.8-135.7 18-93.3 12.4-218.8 29.3-43.6-229.7-2.8-14.6 20.4 2.7 466.9 62.8 41.4 5.6-19.7-20.3-222.2-227.8-48-49.3-82.8-84.9v-1.4l-2.5-48.8-9.4-186-2.5-48.8-7.2-140.3 486.4-355.7 121.8 90.8 35.6 26.5 135.4 101.1 35.6 26.5 100.1 74.6 34.3 25.6-10.8 40.3-112.8 416.7-122.2 119.4-167 163L996.2 1262l356.3-90.9 195-49.8 31.4-8-24.7 306zm-221-844.1 22.7-71.4-16.5-14.5-91.8-80.2-32.5-28.6-124.2-108.7-32.7-28.6-.4-.3-19.1 13.5-311.6 219.7.1 41.2.4 192 .1 50.4.1 69.3 39.7 46 44.5 51.7 181.7 210.9 245.4-266.5 94.1-295.9zm-338.7 515.2L838.3 909l-44.5-51.7-34.5-40-.1-78.7-.1-50.4-.4-192v-3.8L1055.9 283l8.2 7.2 124.2 108.7 32.5 28.6 91.8 80.2 7.3 6.3-28.4 89.5-80 251.4-217 235.5zm344.9-600.9-91.8-80.2-32.5-28.6L1090.9 272l-32.7-28.6-.4-.3-19.1 13.5-311.6 219.5.1 41.2.4 192 .1 50.4.1 69.3 39.7 46 44.5 51.7 181.7 210.9 245.4-266.5 94.2-295.9 22.7-71.4-16.6-14.3zm-48.2 114-80 251.4-216.8 235.4-156.1-181.5-44.5-51.5-34.5-40-.1-78.7-.1-50.4-.4-192v-3.8L1055.9 283l8.2 7.2 124.2 108.7 32.5 28.6 91.8 80.2 7.3 6.3-28.7 89.5zm48.2-114-91.8-80.2-32.5-28.6L1090.9 272l-32.7-28.6-.4-.3-19.1 13.5-311.6 219.5.1 41.2.4 192 .1 50.4.1 69.3 39.7 46 44.5 51.7 181.7 210.9 245.4-266.5 94.2-295.9 22.7-71.4-16.6-14.3zm-48.2 114-80 251.4-216.8 235.4-156.1-181.5-44.5-51.5-34.5-40-.1-78.7-.1-50.4-.4-192v-3.8L1055.9 283l8.2 7.2 124.2 108.7 32.5 28.6 91.8 80.2 7.3 6.3-28.7 89.5zm-281.1 739.6-4.2 61.4 76.2-51.4-72-10zm329.3-853.6-91.8-80.2-32.5-28.6L1090.9 272l-32.7-28.6-.4-.3-19.1 13.5-311.6 219.5.1 41.2.4 192 .1 50.4.1 69.3 39.7 46 44.5 51.7 181.7 210.9 245.4-266.5 94.2-295.9 22.7-71.4-16.6-14.3zm-48.2 114-80 251.4-216.8 235.4-156.1-181.5-44.5-51.5-34.5-40-.1-78.7-.1-50.4-.4-192v-3.8L1055.9 283l8.2 7.2 124.2 108.7 32.5 28.6 91.8 80.2 7.3 6.3-28.7 89.5zm48.2-114-91.8-80.2-32.5-28.6L1090.9 272l-32.7-28.6-.4-.3-19.1 13.5-311.6 219.5.1 41.2.4 192 .1 50.4.1 69.3 39.7 46 44.5 51.7 181.7 210.9 245.4-266.5 94.2-295.9 22.7-71.4-16.6-14.3zm-48.2 114-80 251.4-216.8 235.4-156.1-181.5-44.5-51.5-34.5-40-.1-78.7-.1-50.4-.4-192v-3.8L1055.9 283l8.2 7.2 124.2 108.7 32.5 28.6 91.8 80.2 7.3 6.3-28.7 89.5zm-281.1 739.6-4.2 61.4 76.2-51.4-72-10zm329.3-853.6-91.8-80.2-32.5-28.6L1090.9 272l-32.7-28.6-.4-.3-19.1 13.5-311.6 219.5.1 41.2.4 192 .1 50.4.1 69.3 39.7 46 44.5 51.7 181.7 210.9 245.4-266.5 94.2-295.9 22.7-71.4-16.6-14.3zm-48.2 114-80 251.4-216.8 235.4-156.1-181.5-44.5-51.5-34.5-40-.1-78.7-.1-50.4-.4-192v-3.8L1055.9 283l8.2 7.2 124.2 108.7 32.5 28.6 91.8 80.2 7.3 6.3-28.7 89.5zm48.2-114-91.8-80.2-32.5-28.6L1090.9 272l-32.7-28.6-.4-.3-19.1 13.5-311.6 219.5.1 41.2.4 192 .1 50.4.1 69.3 39.7 46 44.5 51.7 181.7 210.9 245.4-266.5 94.2-295.9 22.7-71.4-16.6-14.3zm-48.2 114-80 251.4-216.8 235.4-156.1-181.5-44.5-51.5-34.5-40-.1-78.7-.1-50.4-.4-192v-3.8L1055.9 283l8.2 7.2 124.2 108.7 32.5 28.6 91.8 80.2 7.3 6.3-28.7 89.5zm-281.1 739.6-4.2 61.4 76.2-51.4-72-10zm329.3-853.6-91.8-80.2-32.5-28.6L1090.9 272l-32.7-28.6-.4-.3-19.1 13.5-311.6 219.5.1 41.2.4 192 .1 50.4.1 69.3 39.7 46 44.5 51.7 181.7 210.9 245.4-266.5 94.2-295.9 22.7-71.4-16.6-14.3zm-48.2 114-80 251.4-216.8 235.4-156.1-181.5-44.5-51.5-34.5-40-.1-78.7-.1-50.4-.4-192v-3.8L1055.9 283l8.2 7.2 124.2 108.7 32.5 28.6 91.8 80.2 7.3 6.3-28.7 89.5zm48.2-114-91.8-80.2-32.5-28.6L1090.9 272l-32.7-28.6-.4-.3-19.1 13.5-311.6 219.5.1 41.2.4 192 .1 50.4.1 69.3 39.7 46 44.5 51.7 181.7 210.9 245.4-266.5 94.2-295.9 22.7-71.4-16.6-14.3zm-48.2 114-80 251.4-216.8 235.4-156.1-181.5-44.5-51.5-34.5-40-.1-78.7-.1-50.4-.4-192v-3.8L1055.9 283l8.2 7.2 124.2 108.7 32.5 28.6 91.8 80.2 7.3 6.3-28.7 89.5zm-281.1 739.6-4.2 61.4 76.2-51.4-72-10zm329.3-853.6-91.8-80.2-32.5-28.6L1090.9 272l-32.7-28.6-.4-.3-19.1 13.5-311.6 219.5.1 41.2.4 192 .1 50.4.1 69.3 39.7 46 44.5 51.7 181.7 210.9 245.4-266.5 94.2-295.9 22.7-71.4-16.6-14.3zm-48.2 114-80 251.4-216.8 235.4-156.1-181.5-44.5-51.5-34.5-40-.1-78.7-.1-50.4-.4-192v-3.8L1055.9 283l8.2 7.2 124.2 108.7 32.5 28.6 91.8 80.2 7.3 6.3-28.7 89.5zm48.2-114-91.8-80.2-32.5-28.6L1090.9 272l-32.7-28.6-.4-.3-19.1 13.5-311.6 219.5.1 41.2.4 192 .1 50.4.1 69.3 39.7 46 44.5 51.7 181.7 210.9 245.4-266.5 94.2-295.9 22.7-71.4-16.6-14.3zm-48.2 114-80 251.4-216.8 235.4-156.1-181.5-44.5-51.5-34.5-40-.1-78.7-.1-50.4-.4-192v-3.8L1055.9 283l8.2 7.2 124.2 108.7 32.5 28.6 91.8 80.2 7.3 6.3-28.7 89.5zm-281.1 739.6-4.2 61.4 76.2-51.4-72-10zm329.3-853.6-91.8-80.2-32.5-28.6L1090.9 272l-32.7-28.6-.4-.3-19.1 13.5-311.6 219.5.1 41.2.4 192 .1 50.4.1 69.3 39.7 46 44.5 51.7 181.7 210.9 245.4-266.5 94.2-295.9 22.7-71.4-16.6-14.3zm-48.2 114-80 251.4-216.8 235.4-156.1-181.5-44.5-51.5-34.5-40-.1-78.7-.1-50.4-.4-192v-3.8L1055.9 283l8.2 7.2 124.2 108.7 32.5 28.6 91.8 80.2 7.3 6.3-28.7 89.5zm48.2-114-91.8-80.2-32.5-28.6L1090.9 272l-32.7-28.6-.4-.3-19.1 13.5-311.6 219.5.1 41.2.4 192 .1 50.4.1 69.3 39.7 46 44.5 51.7 181.7 210.9 245.4-266.5 94.2-295.9 22.7-71.4-16.6-14.3zm-48.2 114-80 251.4-216.8 235.4-156.1-181.5-44.5-51.5-34.5-40-.1-78.7-.1-50.4-.4-192v-3.8L1055.9 283l8.2 7.2 124.2 108.7 32.5 28.6 91.8 80.2 7.3 6.3-28.7 89.5zm48.2-114-91.8-80.2-32.5-28.6L1090.9 272l-32.7-28.6-.4-.3-19.1 13.5-311.6 219.5.1 41.2.4 192 .1 50.4.1 69.3 39.7 46 44.5 51.7 181.7 210.9 245.4-266.5 94.2-295.9 22.7-71.4-16.6-14.3zm-48.2 114-80 251.4-216.8 235.4-156.1-181.5-44.5-51.5-34.5-40-.1-78.7-.1-50.4-.4-192v-3.8L1055.9 283l8.2 7.2 124.2 108.7 32.5 28.6 91.8 80.2 7.3 6.3-28.7 89.5z" class="st1"/>
  <path d="m1543.5 1138.4-57.6 14.8-124 31.7-128.4 32.8-290.4 74.2 36-35.2-230.4-30-66-8.6-53.2-6.9-119.4-15.5-61.9-8 30.7 161.6 8.9 47 51-7 216.2-29.8 79.7-11 35.5-4.9 44.1-6.1 29.6-4.1-7.6 18.7-11.4 28-9.1 22.5-20.6 50.5-55.7 137.1-20.6 50.5-25.3 62.4-20.6 50.5-18 44.3-35.5 87.4-22.5 55.3h263l.3-5.2 3-54.5 3.4-62.1 4.1-76.6 3.4-62.1 9-168.5 3.4-62.1 1.5-27.7 1.8-34.3 3.4-63.2 503.1 70.4 43.6 6.1 7.3-91.2 8.7-109.5 4.1-50.8 1.3-15.8-17.9 4.9zm-356.8-187.2-65.5 71.1 57.7 39 69.8-68.3-62-41.8zm0 0-65.5 71.1 57.7 39 69.8-68.3-62-41.8zm-137.6-855L782 291.7l-19.4 14.2-16.2 11.8-33.4 24.4-133.7 97.8 2.5 49.3 2.8 55.5 6.1 119.4 6.2 123.6 3.2 63.2 387.5 397.2 119.1-116.4 72.4-70.7 69.8-68.3 32.5-31.7 93-90.9 18.7-69.4 10.7-39.7 5.2-19.3 6.3-23.1 78.7-290.7-444.9-331.7zm274.5 561.1-7.2 22.5-5.9 18.7-12.2 38.7-45.2 142-35.9 39-30.4 33.1-65.5 71.1-67.8 73.6-60 65.2-217.7-252.5-63.5-73.8-.3-88.7-.3-115.6-.1-53.8-.3-109 92.1-64.8 34.1-23.9 16.5-11.5 19.8-13.9 185.4-130.5L1374 498.9l-50.4 158.4zm-136.9 293.9-65.5 71.1 57.7 39 69.8-68.3-62-41.8zm0 0-65.5 71.1 57.7 39 69.8-68.3-62-41.8z" class="st1"/>
  <path d="m837.4 379.3-34.1 23.9-90.3-61.1 33.3-24.4zM1403.9 761.4l-10.9 39.7-94.7-64 12.2-38.6zM711.7 630.7l-127.2-85.9-2.9-55.5 130 87.6zM1217.2 918.1l64.1 43.4-32.6 31.6-62-41.9zM1560 1149.5l-4.1 50.9-70.1-47.3 57.7-14.7zM775.8 908.7l-179-120.8-6.3-123.7L712 746.1l.1 88.8zM1121.2 1022.4l57.7 38.9-72.2 70.6-53.3-35.9zM1547.2 1309.9l-7.2 91.2-43.7-6.1-262.9-177.5 128.4-32.8zM873.7 353.6l-19.8 14-91.4-61.7 19.5-14.2zM1415.3 719.1l-6.2 23.2-92.7-62.5 7.2-22.5z" class="st2"/>
  <path d="M428.6 1168.8c4.9 20.1 9.7 40.4 14.4 60.5l6.9 30.4 6.6 30.4 3.4 15.2 3.2 15.2 6.3 30.4c2.1 10.1 4.2 20.3 6.3 30.4l6.2 30.5-7.7-5.5c37.3-5.3 74.6-10.4 111.9-15.5 37.3-4.9 74.7-9.6 112.1-14.2l28-3.4 28-3.2 28-3.2 28.2-3 28.2-3 28.2-2.7c18.7-1.8 37.6-3.5 56.3-4.9-18.6 3.5-37 6.8-55.6 10l-27.9 4.6-27.9 4.5-27.9 4.5-27.9 4.2-27.9 4.2-27.9 4.1c-37.3 5.5-74.6 10.7-111.9 15.6-37.3 4.9-74.6 9.9-112.1 14.4l-6.6.8-1.1-6.3-5.5-30.7c-1.8-10.3-3.5-20.4-5.3-30.7l-5.2-30.7-2.5-15.3-2.5-15.3-4.9-30.7-4.8-30.7c-3.4-19.8-6.4-40.3-9.1-60.9z" class="st3"/>
  <path d="M389.5 1131.5c41.2 3.1 82.3 7.6 123.3 12.7s81.9 10.7 122.7 16.8c40.8 6.1 81.6 12.8 122.3 20 40.7 7.3 81.2 14.9 121.6 24.2-41.2-3.1-82.3-7.6-123.3-12.7s-81.9-10.7-122.7-16.9c-40.8-6.2-81.6-12.8-122.3-20-40.5-7.2-81.2-14.8-121.6-24.1z" class="st4"/>
  <path d="M881.1 1394.3c-35.8 6.3-71.5 11.8-107.4 17.3l-26.9 3.9c-9 1.4-17.9 2.7-26.9 3.9l-53.8 7.6c-35.9 4.9-71.8 9.7-107.8 14.4l-53.9 6.8-53.9 6.5-6.8.8-1.3-6.8c-4.9-26.3-9.7-52.8-14.4-79.1-4.8-26.3-9.1-52.8-13.7-79.3-2.3-13.2-4.4-26.5-6.6-39.7-2.1-13.2-4.4-26.5-6.3-39.7-2.1-13.2-4.2-26.5-6.1-39.7-2-13.2-3.9-26.5-5.8-39.8 3.2 13.1 6.2 26 9.3 39.1 3.1 13.1 5.9 26.2 8.9 39.3s5.8 26.2 8.6 39.3c2.8 13.1 5.8 26.2 8.4 39.3 5.5 26.2 11 52.5 16.3 78.7 5.3 26.3 10.6 52.5 15.6 78.8l-8-5.9 53.9-6.8 53.9-6.5c36-4.2 71.9-8.3 108-12.2l54.1-5.6c9-1 18-1.8 27-2.7l27-2.7c36.3-3.3 72.4-6.6 108.6-9.2z" class="st5"/>
  <path d="M1101.8 1202.5c42.2-12.7 84.5-24.6 127-36.6l31.8-8.9c10.6-3 21.3-5.9 31.8-8.7l63.8-17.3c42.5-11.3 85-22.7 127.7-33.6l63.9-16.5 64-16.2 9.9-2.5-.8 10.1c-2.7 32-5.5 63.9-8.4 95.9-2.8 32-5.9 63.9-8.9 95.7-1.5 15.9-3.2 32-4.8 47.9-1.5 15.9-3.2 32-4.9 47.9-1.7 15.9-3.4 32-5.2 47.9-1.8 15.9-3.7 31.8-5.6 47.9.6-16 1.3-32.1 2.1-48.1.7-16 1.5-32.1 2.4-48 .8-16 1.7-32.1 2.7-48 1-16 1.8-32 2.8-48 2.1-32 4.1-64 6.3-96 2.3-32 4.5-64 6.9-96l9 7.6-63.9 16.5-64 16.2c-42.7 10.8-85.4 21.1-128.1 31.7l-64.2 15.3c-10.7 2.5-21.4 5.1-32.1 7.6l-32.1 7.5c-43.1 9.8-85.9 19.7-129.1 28.7z" class="st3"/>
  <path d="M1145.7 1372.8c21 48.8 41.4 98 61.5 147.1l15.1 36.9 14.9 37c10 24.6 19.8 49.3 29.7 74l29.4 74.2 29 74.3c9.7 24.8 19.3 49.6 28.7 74.3 9.4 24.8 19.1 49.6 28.6 74.5l3.5 9.3-9.9.3-94.5 2.3c-31.5.6-62.9 1.3-94.5 1.7-31.5.4-62.9 1-94.5 1.1-15.8.1-31.5.3-47.3.3-15.8.1-31.5 0-47.3 0 15.8-1.1 31.4-2.1 47.2-3.1 15.8-1 31.4-2 47.2-2.8 31.4-1.8 62.9-3.5 94.3-5.1 31.4-1.5 62.9-3 94.3-4.5l94.3-3.9-6.3 9.6c-9.9-24.8-19.4-49.6-29-74.2-9.7-24.8-19.4-49.6-28.9-74.3l-28.6-74.5-28.2-74.6c-9.4-24.8-18.7-49.8-27.9-74.7l-13.9-37.4-13.7-37.4c-17.9-50-35.9-100-53.2-150.4z" style="fill:#fff4c6"/>
  <path d="m993.2 1324.7-8.1 674.1 415.5-9.4-204.7-567.6" class="st0"/>
  <path d="m1145.7 1372.8 230.3 594.9-377.5 12.4 2.6-655.4" class="st1"/>
  <path d="m987.8 1332.4 29.5 621.3 308.4-16.4-210-593.6" class="st0"/>
  <path d="M1582.9 1455.4c-45.3-3.2-90.5-7.9-135.6-13.1-45-5.2-90.1-11-135-17.2-44.9-6.2-89.8-13.1-134.6-20.4-44.8-7.5-89.4-15.2-133.9-24.6 45.3 3.2 90.5 7.9 135.6 13 45 5.2 90.1 11 135 17.2 44.9 6.3 89.8 13.1 134.6 20.4 44.7 7.6 89.4 15.4 133.9 24.7z" class="st7"/>
  <path d="m1308.4 1922.1-63 4.1-107.9 7.1-87.5 5.8-23.3 1.6-.7-17.6-2.8-66.2-3.4-81.6-2.8-66.2-7.6-179.5-2.8-66.3-1.1-29.4-1.6-36.6-2.8-64.9 99.3 8.6 56.8 158.9 16.8 46.7 13.5 37.8 30.3 84.6 82 229.3z" class="st1"/>
  <path d="m629.4 1210.9 205.1 137.3-79.7 10.9-244.7-163.7zM915.5 1402.4l71 47.4-3.4 62.1-88.1-59zM1217.8 1669l-208.4-139.4-2.8-66.3 180.9 121.1zM478.7 1348.9l59.9 40.1-51 6.9zM839.2 1590.1l134.8 90.1-3.4 62.1-151.9-101.6zM1308.4 1922.1l-63 4.1-225.6-150.9-2.8-66.2 282.8 189.2zM793.2 1703l173.3 115.9-3.4 62.1-190.4-127.4zM1137.5 1933.3l-87.5 5.8-24-16-2.8-66.2zM960.2 1935.4l-.3 5.4-158.1-.1-82.6-55.4 35.4-87.4zM1174 1546.6l-168.5-112.7-17.6-11.7-63.2-42.4-54.8-36.6L682.6 1218l66.1 8.5 165.4 110.7 22 14.6 53.8 36.1 14 9.4 153.3 102.6z" class="st2"/>
  <path d="M1376 1967.7c-15.8 1.1-31.4 2.1-47.2 3.1s-31.4 2-47.2 2.8l-47.2 2.7-47.2 2.4c-15.8.8-31.4 1.5-47.2 2.3l-47.2 2.3-94.3 3.9-7.2.3v-7.3l-.1-20.6V1898c.1-27.3 0-54.6.3-81.9l.6-81.9c.1-27.3.6-54.6 1-81.9l.6-41 .7-41 .7-41 1-41c1.3-54.6 2.8-109.2 4.9-163.9 1.8 54.6 2.8 109.2 3.7 163.9l.6 41 .4 41 .4 41 .1 41c.1 27.3.3 54.6.3 81.9l-.1 81.9c0 27.3-.3 54.6-.4 81.9l-.3 41-.1 20.6-.3 20.6-7.2-7 94.5-2.3 47.2-1c15.8-.3 31.5-.7 47.2-.8l47.2-.7 47.2-.4c15.8-.1 31.5-.3 47.3-.3 15.8-.2 31.5-.2 47.3 0z" class="st7"/>
  <path d="M1308.4 1922.1c-23.4 2.5-46.9 4.9-70.2 7.2-23.4 2.3-46.9 4.5-70.2 6.5l-35.2 3.1-35.2 3c-23.5 2-46.9 3.8-70.4 5.6l-6.6.4-.4-6.8c-2.7-50.7-5.2-101.4-7.3-152s-4.2-101.4-5.8-152c-.8-25.3-1.7-50.7-2.4-76s-1.4-50.7-1.8-76l-.7-38-.6-38c-.3-25.3-.6-50.8-.6-76.2 2.1 25.3 4.1 50.5 5.9 75.9l2.7 38 2.4 38c1.7 25.3 3.1 50.7 4.5 76 1.5 25.3 2.7 50.7 4.1 76 2.7 50.7 4.9 101.4 7 152 2.1 50.7 3.9 101.4 5.5 152l-6.9-6.2c23.5-1.4 47-2.5 70.5-3.8l35.2-1.8 35.2-1.5c23.5-1.1 47-2 70.5-2.8 23.7-1.4 47.2-2.2 70.8-2.6zM1253.1 879.3c8.6-32.2 17.7-64.2 26.9-96.1 9.3-32 18.6-63.9 28.2-95.7 9.4-32 19.3-63.6 29-95.4s19.7-63.5 29.8-95.3l2.3 7.9c-26.3-22.9-52.4-46-78.5-69.1l-39-34.9-19.6-17.5-19.4-17.6-38.7-35.2-38.6-35.3c-25.6-23.8-51.1-47.4-76.3-71.7 27.3 21.7 54.2 43.9 81.2 66.2l40.1 33.5 40 33.8 20 16.9 19.8 17 39.7 34.1c26.3 22.8 52.6 45.7 79 68.7l3.7 3.2-1.4 4.6c-10.1 31.7-20.3 63.3-30.7 95-10.4 31.5-20.7 63.2-31.4 94.7-10.6 31.5-21.4 63.1-32.2 94.5-11.4 31-22.4 62.4-33.9 93.7z" class="st3"/>
  <path d="m570.2 572.7 2.4 48.8-30.4 20.4-2.5-48.7zM1234.2 175.4l-27.6 18.6-35.6-26.5 27.6-18.5zM582.1 807.5l2.5 48.8-27.3 18.5-3.5-3.6-2.1-43.2zM759 738.6l-31.4 21.2v-50.4l31.3-21.2zM1215.1 380.7l32.7 28.4-27.1 18.2-32.5-28.5zM1405.1 303l-27.6 18.5-35.4-26.4 27.6-18.6z" class="st8"/>
  <path d="m937.6 1219.6 19.7 20.3-41.5-5.6z" style="fill:#f5ce30"/>
  <path d="m1411.3 900.2-166.8 163-145.3 97.9 167-163zM667.4 942.6l48 49.3-26.5 17.7-48-49.1zM838.3 909l-26.4 17.7-44.4-51.7 26.3-17.7zM1339.4 489.5l16.6 14.3-22.8 71.4-42 28.3 28.6-89.5-7.3-6.4zM1547.9 409.4l-6.9 25.9-39.9 26.7 10.9-40.2-34.4-25.6 27.6-18.6zM823.8 1527.4l38.7-26.1-46.2 112.8-42.2 28.4z" class="st8"/>
  <path d="M984.9 1985.6c-29.7.6-59.3.8-89 1l-44.5.1H807c-14.8 0-29.7-.1-44.5-.1l-44.5-.3c-14.8 0-29.7-.3-44.5-.4l-44.5-.6-10.1-.1 3.9-9.4c10.3-24.5 20.7-48.8 31.1-73.2l15.6-36.6c5.2-12.2 10.4-24.4 15.8-36.5l31.7-72.9c5.2-12.1 10.6-24.4 15.9-36.5l16-36.3 16-36.3 16.2-36.3 16.2-36.3 16.8-36.2c22-48.3 44.1-96.4 67-144.3-19.1 49.4-38.9 98.7-59 147.7l-15.1 36.7-15.2 36.7-15.2 36.7-15.3 36.6-15.5 36.6c-5.1 12.2-10.3 24.5-15.5 36.6l-31.3 73.1c-5.2 12.2-10.4 24.4-15.8 36.5l-15.9 36.5c-10.6 24.4-21.1 48.6-31.8 72.8l-6.2-9.6 44.5 1.3c14.8.4 29.7.8 44.5 1.4l44.5 1.5c14.8.6 29.6 1 44.5 1.7l44.5 1.8 44.5 2c29.4 1.3 59.1 2.9 88.6 4.6z" class="st5"/>
  <path d="m1182.4 1367.2-39.7 26.7-98.8-13.6-8.3 86-35.5 23.9 5.8-85.7 76.2-51.3z" style="fill:#dbbf48"/>
  <path d="M1554.2 1419.3c1-25.6 2.1-51.1 3.5-76.7l2-38.3 2.3-38.3c1.4-25.6 3.1-51.1 4.8-76.6 1.5-25.5 3.4-51.1 5.2-76.6l8.3 7c-48.4 13-97 25.5-145.6 37.9-48.6 12.4-97.1 24.6-145.8 36.5l-36.5 9-36.6 8.7c-24.4 5.8-48.7 11.7-73.2 17.3l-36.6 8.4-36.6 8.3c-24.5 5.5-49 10.8-73.5 16 24.1-7.2 48.1-14.2 72.2-21.1l36.2-10.3 36.2-10.1c24.1-6.8 48.3-13.4 72.5-19.8l36.3-9.9 36.3-9.6c48.4-13 97-25.5 145.4-38 48.6-12.4 97.1-24.6 145.8-36.5l9.1-2.3-.8 9.3c-2.3 25.5-4.5 51-7 76.4-2.4 25.5-4.8 51-7.5 76.4l-3.9 38.1-4.1 38.1c-2.3 25.7-5.3 51.2-8.4 76.7zM879.6 1205.1l-41.7-40.8-41.5-41c-27.6-27.4-55.2-54.8-82.6-82.3-27.4-27.4-55-54.9-82.3-82.6l-82.2-82.8-1.7-1.7-.1-2.4-6.3-113.6-3.1-56.7-3-56.7c-2-37.9-4.1-75.7-5.9-113.6l-5.5-113.6-.1-3.9 3.1-2.3 32.5-23.6 32.5-23.5 65-47 32.5-23.5 32.7-23.4 65.2-46.9 65.3-46.6 32.7-23.4 32.8-23.2c21.8-15.5 43.6-31 65.6-46.3 21.8-15.5 43.9-30.7 65.9-46-21.3 16.3-42.5 32.7-63.8 48.8s-42.7 32.4-64 48.6l-32.1 24.2-32.1 24.1-64.2 48.1-64.3 48-32.2 23.9-32.2 23.9-64.8 47.7-32.3 24-32.4 23.8 3-6.2 5.9 113.6c2 37.9 3.8 75.7 5.6 113.6l2.8 56.7 2.7 56.7 5.1 113.6-1.8-4.1 80.8 84.2c26.9 28 53.6 56.3 80.5 84.5 26.9 28.2 53.5 56.4 80.2 84.7l40 42.5 39.8 42.5z" class="st5"/>
  <path d="m994.5 1090.4 26.5-30 26.6-30c17.7-20 35.5-39.8 53.2-59.7l53.5-59.5 26.7-29.7 26.9-29.7-1 1.7 26.5-85.4 26.7-85.4 13.4-42.7 13.5-42.7 27-85.3 1.8 6.6c-22.1-19.1-43.9-38.6-65.9-57.9l-65.9-57.9-65.6-58-65.6-58.1 6.3.3-74.9 51.7-75 51.5-75.5 51.2-37.5 25.6-37.7 25.3 36.6-27 36.7-26.9 73.6-53.5 73.8-53.2 73.9-52.9 3.2-2.3 3.1 2.7 66.3 57.3 66.3 57.4 66 57.6c22 19.3 44.1 38.4 66 57.7l3.1 2.7-1.3 3.9-27.3 85.2-13.7 42.7-13.8 42.5-27.6 85.3-27.7 85-.3 1-.7.7-27.3 29.1-27.4 29.1-54.9 58.1c-18.4 19.3-36.7 38.7-55.2 58l-27.6 28.9-27.8 29z" class="st5"/>
  <path d="M987.5 1248.4c-33.6-31.8-66.7-64.2-99.8-96.6-16.5-16.3-33.1-32.4-49.4-48.7l-49.1-49c-32.5-32.8-65.3-65.6-97.6-98.7L643 905.9 594.7 856l-2-2-.1-2.7c-.8-17.2-1.7-34.2-2.4-51.4l-2.1-51.4c-1.5-34.2-2.7-68.6-3.9-102.9-.7-17.2-1.1-34.3-1.7-51.4-.6-17.2-1.1-34.3-1.4-51.4-.4-17.2-.8-34.3-1.1-51.5-.4-17.2-.7-34.3-.8-51.5 1.5 17 3 34.2 4.4 51.2 1.4 17 2.7 34.2 3.9 51.4 1.4 17.2 2.5 34.2 3.8 51.4 1.1 17.2 2.5 34.2 3.5 51.4 2.3 34.2 4.5 68.4 6.5 102.8l3.1 51.4c1 17.2 1.8 34.2 2.8 51.4l-2.1-4.6 48.6 49.6 48.3 49.8c32.2 33.1 64.2 66.6 96.1 99.9l47.7 50.4c15.9 16.8 31.7 33.8 47.6 50.5 31.7 33.5 63.1 67.5 94.1 102zM959.9 1940.8c-11 .4-22 .8-32.9 1.3l-32.9 1c-22 .6-43.9 1.3-65.7 1.7-22 .4-43.9 1-65.7 1.3l-65.7 1-9.3.1 3.5-8.7 30.1-76.2 30.5-76 15.3-38 15.6-37.9c10.4-25.3 20.7-50.5 31.3-75.7l15.8-37.9c5.2-12.7 10.6-25.2 15.9-37.9l16-37.7c5.3-12.5 10.7-25.2 16.2-37.7l16.2-37.6 16.5-37.6c11-25.1 22.1-50 33.5-74.9-9.3 25.8-18.7 51.4-28.3 77l-14.5 38.4-14.6 38.3c-4.8 12.8-9.9 25.5-14.8 38.3l-14.9 38.1c-4.9 12.8-10 25.5-15.1 38.1l-15.1 38.1c-10 25.5-20.3 50.7-30.5 76.2l-15.3 38-15.5 38-31.1 75.9-31.5 75.6-5.8-8.6 65.7 1c22 .3 43.9.8 65.7 1.3 22 .4 43.9 1.1 65.7 1.7l32.9 1.1c10.8-.1 21.8.3 32.8.9z" class="st3"/>
  <path d="M758.4 492.4c1.5 27 2.7 54.2 3.7 81.2.6 13.5.8 27 1.3 40.7.4 13.5.7 27 1 40.7.7 27 1.1 54.2 1.5 81.2.1 13.5.3 27 .4 40.7.1 13.5.1 27 .3 40.7l-1.8-4.8c19.7 22.7 39.1 45.5 58.7 68.4 19.4 22.9 38.9 45.9 58 69l28.7 34.8 28.4 34.9c18.9 23.4 37.7 46.9 55.9 70.8-21-21.7-41.2-43.8-61.7-65.7l-30.4-33.4-30.1-33.5c-20.1-22.4-40-44.9-59.7-67.4-19.7-22.7-39.4-45.3-59-68.1l-1.8-2.1V777.1c0-13.5.1-27 .3-40.7.1-27 .6-54.2 1.1-81.2.3-13.5.4-27 .8-40.7.4-13.5.7-27 1.1-40.7 1-27.3 1.9-54.3 3.3-81.4z" class="st3"/>
  <path d="m1282.8 1249.9-77.3 186.7-186.6 77.2-186.7-77.2-77.3-186.7 77.3-186.7 186.7-77.2 186.6 77.2z" class="st0"/>
  <path d="m839.8 1429-74-179.1 74-179 179.1-74.1 179 74.1 74.2 179-74.2 179.1-179 74.1z" class="st1"/>
  <path d="m860.1 1408.7-65.8-158.8 65.8-158.8 158.8-65.7 158.7 65.7 65.8 158.8-65.8 158.8-158.7 65.7z" class="st0"/>
  <path d="m1228.6 1249.9-61.4 148.4-148.3 61.4-148.3-61.4-61.5-148.4 61.5-148.2 148.3-61.5 148.3 61.5z" style="fill:#e74d56;stroke:#8d181b;stroke-width:8.0008;stroke-miterlimit:10"/>
  <linearGradient id="SVGID_1_" x1="900.055" x2="1137.67" y1="750.092" y2="750.092" gradientTransform="matrix(1 0 0 -1 0 2000)" gradientUnits="userSpaceOnUse">
    <stop offset="0" style="stop-color:#eb3c57"/>
    <stop offset=".359" style="stop-color:#e63d55"/>
    <stop offset=".802" style="stop-color:#dd3d50"/>
    <stop offset="1" style="stop-color:#d83d4c"/>
  </linearGradient>
  <path d="m934.8 1333.9-34.7-84 34.7-83.9 84.1-34.9 84 34.9 34.8 83.9-34.8 84-84 34.8z" style="fill:url(#SVGID_1_)"/>
  <path d="M812.4 1249.9h87.7l34.7 84-60.4 60.4z" style="fill:#ba2026"/>
  <path d="m1102.9 1166 59.5-59.7 59.7 143.6h-84.4z" style="fill:#f0566f"/>
  <path d="M1018.9 1131.1v-84.6l143.5 59.8-59.5 59.7z" style="fill:#f3839c"/>
  <path d="M812.4 1249.9h87.7l34.7-83.9-62.8-59.7z" style="fill:#e22437"/>
  <path d="M1018.9 1131.1c7.2 2.5 14.2 5.2 21.4 7.7 7 2.7 14.2 5.3 21.3 8.2 7 2.7 14.1 5.6 21.1 8.4l21 8.6.7.3.3.7 8.6 21c2.8 7 5.6 14.1 8.4 21.1 2.8 7 5.5 14.1 8.2 21.3 2.7 7 5.3 14.2 7.7 21.4-3.4-6.9-6.5-13.8-9.6-20.7-3.1-6.9-6.2-13.8-9.3-20.8-3.1-6.9-6.1-13.9-9-20.8l-8.7-21 1.1 1.1-21-8.9c-6.9-3-13.9-5.9-20.8-9-6.9-3-13.9-6.1-20.8-9.3-6.8-2.8-13.7-5.9-20.6-9.3z" style="fill:#f9c6d2"/>
  <path d="M1018.9 1368.7c-7.2-2.5-14.2-5.2-21.4-7.7-7-2.7-14.2-5.3-21.3-8.2-7-2.7-14.1-5.6-21.1-8.4l-21-8.6-.7-.3-.3-.7-8.6-21c-2.8-7-5.6-14.1-8.4-21.1-2.8-7-5.5-14.1-8.2-21.3-2.7-7-5.3-14.2-7.7-21.4 3.4 6.9 6.5 13.8 9.6 20.7 3.1 6.9 6.2 13.8 9.3 20.8 3.1 6.9 6.1 13.9 9 20.8l8.7 21-1.1-1.1 21 8.9c6.9 3 13.9 5.9 20.8 9 6.9 3 13.9 6.1 20.8 9.3 6.9 2.8 13.8 6.1 20.6 9.3z" style="fill:#f05682"/>
  <path d="M1018.9 996.8c15.3 5.2 30.5 10.6 45.7 16.2l22.8 8.3 22.7 8.4c15.2 5.6 30.3 11.4 45.3 17.3 15.1 5.8 30.1 11.8 45 17.7l2.5 1 1.1 2.7c6.3 14.8 12.8 29.7 19 44.6 6.3 14.9 12.5 29.8 18.7 44.6 6.2 14.9 12.4 29.8 18.4 44.8 6.1 14.9 12.1 30 18 44.9l1.1 2.7-1.1 2.5c-12.8 29.7-25.8 59.3-39.1 88.7l-10 22.1-10.3 22c-6.9 14.6-13.8 29.3-21 43.8 5.2-15.3 10.6-30.5 16-45.7l8.3-22.8 8.4-22.7c11.3-30.3 23.1-60.4 34.9-90.4v5.2c-6.3-14.8-12.7-29.7-19-44.6-6.3-14.9-12.5-29.8-18.7-44.6-6.2-14.9-12.4-29.8-18.3-44.8-6.1-14.9-12.1-30-18-44.9l3.7 3.7c-14.8-6.5-29.7-12.8-44.3-19.4-14.8-6.5-29.6-13.1-44.2-19.8l-22.1-10-22-10.3c-14.4-7.1-29-14-43.5-21.2z" class="st4"/>
  <path d="M1049.4 37.6c42.7 29.6 84.7 59.7 127 89.8l63.1 45.5 62.9 45.7 62.6 46c20.8 15.3 41.8 30.7 62.5 46.2 41.7 30.8 83.3 61.7 124.7 92.9l3.9 3-1.3 4.8-16.6 60.7-16.9 60.7-16.9 60.7-17.2 60.5-8.6 30.3-8.7 30.3c-5.9 20.1-11.5 40.3-17.6 60.4-11.8 40.3-23.8 80.5-36 120.6 9.6-40.8 19.6-81.6 29.7-122.3 4.9-20.4 10.1-40.7 15.3-61.1l7.7-30.5 7.9-30.4 15.6-61 15.9-60.8 16-60.8 16.3-60.8 2.7 7.7c-41.7-30.8-83.1-61.9-124.6-93-20.7-15.5-41.4-31.1-62.1-46.9l-61.9-47-61.8-47.3-61.5-47.6c-40.7-32-81.7-63.9-122.1-96.3z" class="st3"/>
  <path d="m1519.7 1343.1-33.9 25.6 17 21.4-23.5-21.4 29.2-22.1-57.2-37.3-7.3-20.1-53.7-12-92.2 62.9-45.7-26.8-49.8 8.8 12.9-29.3h49.6l33.5 31.9 91.7-58.5 103.7 23.4v-104.9l42.3-23.6-32.4 32.2 1.2 109.4-50.8-11.3 5.7 14.3zM500.4 1249.9l-19.6-29.3 7.1-26.4-.4 26.3 19 23.6 79.5 9.3 10 19 54.6 4.7 83.2-74.6 48.9 20.5 48.1-15.3-8.9 30.7-49.1 6.4-37.6-26.8-83 70.1-113.6-10.2-17.1 38.3-35.6 26.9 32.3-33.8 15.3-42.2 51.9 4.5-7.6-13.4zM900.1 1089.4l-19 7.9-113.6-74.9 57.9-77.1-67-42-104.1-36.7-15.8-78.1-37.9-32.5-45.7 11.8-19.9-48.7 21.2 40.7 45-12.9 33.4 21.7-5.4-26.4 57.6-46.4 11.1-74.4-3.9 77.7-53.1 44.5 21 115.3 100.6 33.2 75.8 50.5-54.9 73.6zM1169.6 1099l-22.6-8.6 19.7-100.6 96.3 4.9-2.7-79-27.9-107 56-56.5 5.8-49.9-35.5-31.2 29.5-43.7-22 40.4 35.7 30.2.7 39.7 18.9-19.2 70.7 21.8 68-32.3-66.8 40.1-66.4-19.2-83.9 82 28.7 101.9.6 91-91.8-4.3zM1048 1450.9l15.5-7.6 42.6 58.9-48.9 47.7 42.2 36.7 69.1 37.3 2.3 56.5 23 27 33.4-3.2 38.6 126.4-40.4-120.9-33 3.9-20.9-18.7.7 19-45.5 26.2-15.9 50.9 11.2-54 42.3-25.4-2.1-83.2-66.9-34.3-47.6-43.8 46.8-45.5zM929.6 1424.3l-22.1-4.1 7.2 93.9-90.2 38.9 45 50.1-71.2 51.5 6.7 64.5-26 37.1-45.5 6.1-29.4 153.9 32.9-148.3 45-5.2 24.9-27.3 2.2 21.8 71.2 22.3 49.3-58.7-49.3 47.8-60.9-16.2-11.8-94.5 83.6-58.2-47.3-42.6 87.1-43.5z" class="st19"/>
</svg>
