<svg xmlns="http://www.w3.org/2000/svg" xml:space="preserve" id="Layer_1" x="0" y="0" style="enable-background:new 0 0 2000 2000" version="1.1" viewBox="0 0 2000 2000">
  <style>
    .st0{fill:#2a7f44}.st1{fill:#47a86b}.st2{opacity:.53;enable-background:new}.st2,.st3{fill:#77c484}.st4{fill:#94cb69}.st5{fill:#15592d}.st8{fill:#5abd76}
  </style>
  <path d="m781.7 806.9-.7-304.8 273.4-192.4 239.4 209.6-102.4 322.1L995 1054.5 781.7 806.9zm821 671.6 35-438.3L1177 1158l259.2-253.2 136.9-506L1049.4 8.3 508.2 404.2l24.1 474.3 292.2 299.6-462.2-75.3 69.5 366.6 419.7-48.7-256.6 572.2 390.1 2.8 82.8-591.8 534.9 74.6z" class="st0"/>
  <path d="m1339.1 487.6-91.7-80.2-32.5-28.6-124.1-108.6-32.6-28.6-.4-.3-19.1 13.5-311.6 219.4.1 41.2.4 191.9.1 50.4.1 69.2 39.7 46 44.4 51.6 181.6 210.7 245.2-266.3 94.1-295.7 22.6-71.3-16.3-14.3zM1291 601.5l-79.9 251.2-216.6 235.2-156.1-181.3-44.6-51.5-34.5-39.9-.1-78.6-.1-50.4-.4-191.9v-3.8l297.2-209.3 8.2 7.2 124 108.6 32.5 28.6 91.7 80.2 7.3 6.3-28.6 89.4zm-280.9 739-4.2 61.3 76.1-51.3-71.9-10zm-72.6-123.3-222-227.6-26.4 17.9 190.5 195.4-392.7-59.1-37.6 25.3 466.6 62.7 41.4 5.6-19.8-20.2zm401.6-729.6-91.7-80.2-32.5-28.6-124.1-108.6-32.6-28.6-.4-.3-19.1 13.5-311.6 219.4.1 41.2.4 191.9.1 50.4.1 69.2 39.7 46 44.4 51.6 181.6 210.7 245.2-266.3 94.1-295.7 22.6-71.3-16.3-14.3zM1291 601.5l-79.9 251.2-216.6 235.2-156.1-181.3-44.6-51.5-34.5-39.9-.1-78.6-.1-50.4-.4-191.9v-3.8l297.2-209.3 8.2 7.2 124 108.6 32.5 28.6 91.7 80.2 7.3 6.3-28.6 89.4zm48.1-113.9-91.7-80.2-32.5-28.6-124.1-108.6-32.6-28.6-.4-.3-19.1 13.5-311.6 219.4.1 41.2.4 191.9.1 50.4.1 69.2 39.7 46 44.4 51.6 181.6 210.7 245.2-266.3 94.1-295.7 22.6-71.3-16.3-14.3zM1291 601.5l-79.9 251.2-216.6 235.2-156.1-181.3-44.6-51.5-34.5-39.9-.1-78.6-.1-50.4-.4-191.9v-3.8l297.2-209.3 8.2 7.2 124 108.6 32.5 28.6 91.7 80.2 7.3 6.3-28.6 89.4zm-280.9 739-4.2 61.3 76.1-51.3-71.9-10zm329-852.9-91.7-80.2-32.5-28.6-124.1-108.6-32.6-28.6-.4-.3-19.1 13.5-311.6 219.4.1 41.2.4 191.9.1 50.4.1 69.2 39.7 46 44.4 51.6 181.6 210.7 245.2-266.3 94.1-295.7 22.6-71.3-16.3-14.3zM1291 601.5l-79.9 251.2-216.6 235.2-156.1-181.3-44.6-51.5-34.5-39.9-.1-78.6-.1-50.4-.4-191.9v-3.8l297.2-209.3 8.2 7.2 124 108.6 32.5 28.6 91.7 80.2 7.3 6.3-28.6 89.4zm48.1-113.9-91.7-80.2-32.5-28.6-124.1-108.6-32.6-28.6-.4-.3-19.1 13.5-311.6 219.4.1 41.2.4 191.9.1 50.4.1 69.2 39.7 46 44.4 51.6 181.6 210.7 245.2-266.3 94.1-295.7 22.6-71.3-16.3-14.3zM1291 601.5l-79.9 251.2-216.6 235.2-156.1-181.3-44.6-51.5-34.5-39.9-.1-78.6-.1-50.4-.4-191.9v-3.8l297.2-209.3 8.2 7.2 124 108.6 32.5 28.6 91.7 80.2 7.3 6.3-28.6 89.4zm-280.9 739-4.2 61.3 76.1-51.3-71.9-10zm329-852.9-91.7-80.2-32.5-28.6-124.1-108.6-32.6-28.6-.4-.3-19.1 13.5-311.6 219.4.1 41.2.4 191.9.1 50.4.1 69.2 39.7 46 44.4 51.6 181.6 210.7 245.2-266.3 94.1-295.7 22.6-71.3-16.3-14.3zM1291 601.5l-79.9 251.2-216.6 235.2-156.1-181.3-44.6-51.5-34.5-39.9-.1-78.6-.1-50.4-.4-191.9v-3.8l297.2-209.3 8.2 7.2 124 108.6 32.5 28.6 91.7 80.2 7.3 6.3-28.6 89.4zm48.1-113.9-91.7-80.2-32.5-28.6-124.1-108.6-32.6-28.6-.4-.3-19.1 13.5-311.6 219.4.1 41.2.4 191.9.1 50.4.1 69.2 39.7 46 44.4 51.6 181.6 210.7 245.2-266.3 94.1-295.7 22.6-71.3-16.3-14.3zM1291 601.5l-79.9 251.2-216.6 235.2-156.1-181.3-44.6-51.5-34.5-39.9-.1-78.6-.1-50.4-.4-191.9v-3.8l297.2-209.3 8.2 7.2 124 108.6 32.5 28.6 91.7 80.2 7.3 6.3-28.6 89.4zm-280.9 739-4.2 61.3 76.1-51.3-71.9-10zm329-852.9-91.7-80.2-32.5-28.6-124.1-108.6-32.6-28.6-.4-.3-19.1 13.5-311.6 219.4.1 41.2.4 191.9.1 50.4.1 69.2 39.7 46 44.4 51.6 181.6 210.7 245.2-266.3 94.1-295.7 22.6-71.3-16.3-14.3zM1291 601.5l-79.9 251.2-216.6 235.2-156.1-181.3-44.6-51.5-34.5-39.9-.1-78.6-.1-50.4-.4-191.9v-3.8l297.2-209.3 8.2 7.2 124 108.6 32.5 28.6 91.7 80.2 7.3 6.3-28.6 89.4zm48.1-113.9-91.7-80.2-32.5-28.6-124.1-108.6-32.6-28.6-.4-.3-19.1 13.5-311.6 219.4.1 41.2.4 191.9.1 50.4.1 69.2 39.7 46 44.4 51.6 181.6 210.7 245.2-266.3 94.1-295.7 22.6-71.3-16.3-14.3zM1291 601.5l-79.9 251.2-216.6 235.2-156.1-181.3-44.6-51.5-34.5-39.9-.1-78.6-.1-50.4-.4-191.9v-3.8l297.2-209.3 8.2 7.2 124 108.6 32.5 28.6 91.7 80.2 7.3 6.3-28.6 89.4zm-280.9 739-4.2 61.3 76.1-51.3-71.9-10zm329-852.9-91.7-80.2-32.5-28.6-124.1-108.6-32.6-28.6-.4-.3-19.1 13.5-311.6 219.4.1 41.2.4 191.9.1 50.4.1 69.2 39.7 46 44.4 51.6 181.6 210.7 245.2-266.3 94.1-295.7 22.6-71.3-16.3-14.3zM1291 601.5l-79.9 251.2-216.6 235.2-156.1-181.3-44.6-51.5-34.5-39.9-.1-78.6-.1-50.4-.4-191.9v-3.8l297.2-209.3 8.2 7.2 124 108.6 32.5 28.6 91.7 80.2 7.3 6.3-28.6 89.4zm48.1-113.9-91.7-80.2-32.5-28.6-124.1-108.6-32.6-28.6-.4-.3-19.1 13.5-311.6 219.4.1 41.2.4 191.9.1 50.4.1 69.2 39.7 46 44.4 51.6 181.6 210.7 245.2-266.3 94.1-295.7 22.6-71.3-16.3-14.3zM1291 601.5l-79.9 251.2-216.6 235.2-156.1-181.3-44.6-51.5-34.5-39.9-.1-78.6-.1-50.4-.4-191.9v-3.8l297.2-209.3 8.2 7.2 124 108.6 32.5 28.6 91.7 80.2 7.3 6.3-28.6 89.4zm48.1-113.9-91.7-80.2-32.5-28.6-124.1-108.6-32.6-28.6-.4-.3-19.1 13.5-311.6 219.4.1 41.2.4 191.9.1 50.4.1 69.2 39.7 46 44.4 51.6 181.6 210.7 245.2-266.3 94.1-295.7 22.6-71.3-16.3-14.3zM1291 601.5l-79.9 251.2-216.6 235.2-156.1-181.3-44.6-51.5-34.5-39.9-.1-78.6-.1-50.4-.4-191.9v-3.8l297.2-209.3 8.2 7.2 124 108.6 32.5 28.6 91.7 80.2 7.3 6.3-28.6 89.4zm48.1-113.9-91.7-80.2-32.5-28.6-124.1-108.6-32.6-28.6-.4-.3-19.1 13.5-311.6 219.4.1 41.2.4 191.9.1 50.4.1 69.2 39.7 46 44.4 51.6 181.6 210.7 245.2-266.3 94.1-295.7 22.6-71.3-16.3-14.3zM1291 601.5l-79.9 251.2-216.6 235.2-156.1-181.3-44.6-51.5-34.5-39.9-.1-78.6-.1-50.4-.4-191.9v-3.8l297.2-209.3 8.2 7.2 124 108.6 32.5 28.6 91.7 80.2 7.3 6.3-28.6 89.4zm138.3 515-327.6 83.7 142.5-139.3L1411 898l5.1-4.9 124.3-459.7 7-25.7-42.6-31.8-100-74.6-35.6-26.4-135.3-101-35.6-26.4-149.1-111.3-518 378.9 8.9 176.1 2.5 48.8 9.4 186 2.3 43.2 3.4 3.5 83.6 85.7 48 49.2L879.6 1203l-392.7-59.2-96.9-14.5 13.5 70.9 46.4 244.9 183.7-22.6 91.6-11.3 156.1-19.3-57.4 132.9-49.7 115.1-144.7 335.5 355.3 7.3 50.6-519 8.4-85.9 98.6 13.8 439.8 61.3 30.1-378.4.4-4.9-183.4 46.9zm124.5 300.1-371.6-51.9-100.2-14.1-71.9-10-4.2 61.3-5.9 85.5-31.8 465.2-290.5-2 138.7-339.4 46-112.7 60.3-147.7-135.6 18-93.3 12.4-218.7 29.1-43.6-229.6-2.8-14.6 20.4 2.7 466.6 62.7 41.4 5.6-19.7-20.3-221.8-227.2-48-49.2-82.7-84.8v-1.4l-2.5-48.8-9.4-185.9-2.5-48.8-7.2-140.2 485.8-355.3 121.7 90.7 35.6 26.4 135.3 101 35.6 26.4 100 74.6 34.3 25.6-10.8 40.2-112.7 416.4L1266 995.8l-166.8 162.9-103.1 100.7 356-90.9 194.8-49.8 31.4-8-24.5 305.9zm-220.9-843.4 22.6-71.3-16.5-14.5-91.7-80.2-32.5-28.6L1090.7 270l-32.6-28.6-.4-.3-19.1 13.5-311.5 219.6.1 41.2.4 191.9.1 50.4.1 69.2 39.7 46 44.4 51.6 181.6 210.7 245.2-266.3 94.2-295.7zm-338.4 514.9L838.4 906.7l-44.6-51.6-34.5-39.9-.1-78.6-.1-50.4-.4-191.9v-3.8l297.2-209.3 8.2 7.2 124 108.6 32.5 28.6 91.7 80.2 7.3 6.3-28.4 89.5-79.9 251.2-216.8 235.3zm344.6-600.5-91.7-80.2-32.5-28.6-124.1-108.6-32.6-28.6-.4-.3-19.1 13.5-311.6 219.4.1 41.2.4 191.9.1 50.4.1 69.2 39.7 46 44.4 51.6 181.6 210.7 245.2-266.3 94.1-295.7 22.6-71.3-16.3-14.3zM1291 601.5l-79.9 251.2-216.6 235.2-156.1-181.3-44.6-51.5-34.5-39.9-.1-78.6-.1-50.4-.4-191.9v-3.8l297.2-209.3 8.2 7.2 124 108.6 32.5 28.6 91.7 80.2 7.3 6.3-28.6 89.4zm48.1-113.9-91.7-80.2-32.5-28.6-124.1-108.6-32.6-28.6-.4-.3-19.1 13.5-311.6 219.4.1 41.2.4 191.9.1 50.4.1 69.2 39.7 46 44.4 51.6 181.6 210.7 245.2-266.3 94.1-295.7 22.6-71.3-16.3-14.3zM1291 601.5l-79.9 251.2-216.6 235.2-156.1-181.3-44.6-51.5-34.5-39.9-.1-78.6-.1-50.4-.4-191.9v-3.8l297.2-209.3 8.2 7.2 124 108.6 32.5 28.6 91.7 80.2 7.3 6.3-28.6 89.4zm-280.9 739-4.2 61.3 76.1-51.3-71.9-10zm329-852.9-91.7-80.2-32.5-28.6-124.1-108.6-32.6-28.6-.4-.3-19.1 13.5-311.6 219.4.1 41.2.4 191.9.1 50.4.1 69.2 39.7 46 44.4 51.6 181.6 210.7 245.2-266.3 94.1-295.7 22.6-71.3-16.3-14.3zM1291 601.5l-79.9 251.2-216.6 235.2-156.1-181.3-44.6-51.5-34.5-39.9-.1-78.6-.1-50.4-.4-191.9v-3.8l297.2-209.3 8.2 7.2 124 108.6 32.5 28.6 91.7 80.2 7.3 6.3-28.6 89.4zm48.1-113.9-91.7-80.2-32.5-28.6-124.1-108.6-32.6-28.6-.4-.3-19.1 13.5-311.6 219.4.1 41.2.4 191.9.1 50.4.1 69.2 39.7 46 44.4 51.6 181.6 210.7 245.2-266.3 94.1-295.7 22.6-71.3-16.3-14.3zM1291 601.5l-79.9 251.2-216.6 235.2-156.1-181.3-44.6-51.5-34.5-39.9-.1-78.6-.1-50.4-.4-191.9v-3.8l297.2-209.3 8.2 7.2 124 108.6 32.5 28.6 91.7 80.2 7.3 6.3-28.6 89.4zm-280.9 739-4.2 61.3 76.1-51.3-71.9-10zm329-852.9-91.7-80.2-32.5-28.6-124.1-108.6-32.6-28.6-.4-.3-19.1 13.5-311.6 219.4.1 41.2.4 191.9.1 50.4.1 69.2 39.7 46 44.4 51.6 181.6 210.7 245.2-266.3 94.1-295.7 22.6-71.3-16.3-14.3zM1291 601.5l-79.9 251.2-216.6 235.2-156.1-181.3-44.6-51.5-34.5-39.9-.1-78.6-.1-50.4-.4-191.9v-3.8l297.2-209.3 8.2 7.2 124 108.6 32.5 28.6 91.7 80.2 7.3 6.3-28.6 89.4zm48.1-113.9-91.7-80.2-32.5-28.6-124.1-108.6-32.6-28.6-.4-.3-19.1 13.5-311.6 219.4.1 41.2.4 191.9.1 50.4.1 69.2 39.7 46 44.4 51.6 181.6 210.7 245.2-266.3 94.1-295.7 22.6-71.3-16.3-14.3zM1291 601.5l-79.9 251.2-216.6 235.2-156.1-181.3-44.6-51.5-34.5-39.9-.1-78.6-.1-50.4-.4-191.9v-3.8l297.2-209.3 8.2 7.2 124 108.6 32.5 28.6 91.7 80.2 7.3 6.3-28.6 89.4zm-280.9 739-4.2 61.3 76.1-51.3-71.9-10zm329-852.9-91.7-80.2-32.5-28.6-124.1-108.6-32.6-28.6-.4-.3-19.1 13.5-311.6 219.4.1 41.2.4 191.9.1 50.4.1 69.2 39.7 46 44.4 51.6 181.6 210.7 245.2-266.3 94.1-295.7 22.6-71.3-16.3-14.3zM1291 601.5l-79.9 251.2-216.6 235.2-156.1-181.3-44.6-51.5-34.5-39.9-.1-78.6-.1-50.4-.4-191.9v-3.8l297.2-209.3 8.2 7.2 124 108.6 32.5 28.6 91.7 80.2 7.3 6.3-28.6 89.4zm48.1-113.9-91.7-80.2-32.5-28.6-124.1-108.6-32.6-28.6-.4-.3-19.1 13.5-311.6 219.4.1 41.2.4 191.9.1 50.4.1 69.2 39.7 46 44.4 51.6 181.6 210.7 245.2-266.3 94.1-295.7 22.6-71.3-16.3-14.3zM1291 601.5l-79.9 251.2-216.6 235.2-156.1-181.3-44.6-51.5-34.5-39.9-.1-78.6-.1-50.4-.4-191.9v-3.8l297.2-209.3 8.2 7.2 124 108.6 32.5 28.6 91.7 80.2 7.3 6.3-28.6 89.4zm-280.9 739-4.2 61.3 76.1-51.3-71.9-10zm329-852.9-91.7-80.2-32.5-28.6-124.1-108.6-32.6-28.6-.4-.3-19.1 13.5-311.6 219.4.1 41.2.4 191.9.1 50.4.1 69.2 39.7 46 44.4 51.6 181.6 210.7 245.2-266.3 94.1-295.7 22.6-71.3-16.3-14.3zM1291 601.5l-79.9 251.2-216.6 235.2-156.1-181.3-44.6-51.5-34.5-39.9-.1-78.6-.1-50.4-.4-191.9v-3.8l297.2-209.3 8.2 7.2 124 108.6 32.5 28.6 91.7 80.2 7.3 6.3-28.6 89.4zm48.1-113.9-91.7-80.2-32.5-28.6-124.1-108.6-32.6-28.6-.4-.3-19.1 13.5-311.6 219.4.1 41.2.4 191.9.1 50.4.1 69.2 39.7 46 44.4 51.6 181.6 210.7 245.2-266.3 94.1-295.7 22.6-71.3-16.3-14.3zM1291 601.5l-79.9 251.2-216.6 235.2-156.1-181.3-44.6-51.5-34.5-39.9-.1-78.6-.1-50.4-.4-191.9v-3.8l297.2-209.3 8.2 7.2 124 108.6 32.5 28.6 91.7 80.2 7.3 6.3-28.6 89.4zm-280.9 739-4.2 61.3 76.1-51.3-71.9-10zm329-852.9-91.7-80.2-32.5-28.6-124.1-108.6-32.6-28.6-.4-.3-19.1 13.5-311.6 219.4.1 41.2.4 191.9.1 50.4.1 69.2 39.7 46 44.4 51.6 181.6 210.7 245.2-266.3 94.1-295.7 22.6-71.3-16.3-14.3zM1291 601.5l-79.9 251.2-216.6 235.2-156.1-181.3-44.6-51.5-34.5-39.9-.1-78.6-.1-50.4-.4-191.9v-3.8l297.2-209.3 8.2 7.2 124 108.6 32.5 28.6 91.7 80.2 7.3 6.3-28.6 89.4zm48.1-113.9-91.7-80.2-32.5-28.6-124.1-108.6-32.6-28.6-.4-.3-19.1 13.5-311.6 219.4.1 41.2.4 191.9.1 50.4.1 69.2 39.7 46 44.4 51.6 181.6 210.7 245.2-266.3 94.1-295.7 22.6-71.3-16.3-14.3zM1291 601.5l-79.9 251.2-216.6 235.2-156.1-181.3-44.6-51.5-34.5-39.9-.1-78.6-.1-50.4-.4-191.9v-3.8l297.2-209.3 8.2 7.2 124 108.6 32.5 28.6 91.7 80.2 7.3 6.3-28.6 89.4zm48.1-113.9-91.7-80.2-32.5-28.6-124.1-108.6-32.6-28.6-.4-.3-19.1 13.5-311.6 219.4.1 41.2.4 191.9.1 50.4.1 69.2 39.7 46 44.4 51.6 181.6 210.7 245.2-266.3 94.1-295.7 22.6-71.3-16.3-14.3zM1291 601.5l-79.9 251.2-216.6 235.2-156.1-181.3-44.6-51.5-34.5-39.9-.1-78.6-.1-50.4-.4-191.9v-3.8l297.2-209.3 8.2 7.2 124 108.6 32.5 28.6 91.7 80.2 7.3 6.3-28.6 89.4z" class="st1"/>
  <path d="m1543 1136-57.5 14.8-123.9 31.6-128.3 32.8-290.3 74.1 36-35.2-230.3-30-66-8.6-53.2-6.9-119.3-15.5-61.9-8 30.7 161.5 8.9 47 50.9-7 216.1-29.8 79.6-11 35.4-4.9 44-6 29.5-4.1-7.6 18.7-11.4 28-9.1 22.5-20.5 50.5-55.7 137-20.5 50.5-25.3 62.3-20.5 50.5-18 44.3-35.4 87.4-22.5 55.3h263l.3-5.2 3-54.4 3.4-62 4.1-76.5 3.4-62 9.1-168.2 3.4-62 1.5-27.7 1.8-34.3 3.4-63.2 502.7 70.3 43.6 6 7.3-91.1 8.7-109.4 4.1-50.8 1.3-15.8-18 4.5zm-356.5-187.1-65.4 71 57.7 39 69.8-68.2-62.1-41.8zm0 0-65.4 71 57.7 39 69.8-68.2-62.1-41.8zM1049.1 94.6 782.1 290l-19.6 14.2-16.1 11.8-33.3 24.3-133.6 97.8 2.5 49.2 2.8 55.4 6 119.3 6.2 123.5 3.2 63.2 387.2 396.9 119-116.3 72.3-70.6 69.8-68.2 32.5-31.6 93-90.9 18.7-69.3 10.7-39.7 5.2-19.3 6.3-23.1 78.6-290.9-444.4-331.1zm274.3 560.6-7.2 22.5-5.9 18.7-12.2 38.7-45.2 141.9-35.9 39-30.4 33.1-65.4 71-67.8 73.6-59.9 65.1-217.7-252.3-63.4-73.7-.3-88.6-.3-115.5-.1-53.7-.3-108.9 92-64.7 34-23.9 16.5-11.5 19.8-13.9L1059 221.7 1373.6 497l-50.2 158.2zm-136.9 293.7-65.4 71 57.7 39 69.8-68.2-62.1-41.8zm0 0-65.4 71 57.7 39 69.8-68.2-62.1-41.8z" class="st1"/>
  <path d="m837.5 377.4-34 24-90.4-61.1 33.3-24.3zM1403.4 759.3l-10.7 39.7-94.8-64 12.4-38.5zM711.8 628.7l-127-85.8-2.8-55.5 129.8 87.5zM1217 915.9l64 43.3-32.5 31.7-62-42zM1559.6 1147.1l-4.1 50.8-70.1-47.2 57.6-14.7zM775.8 906.5 597 785.8l-6.2-123.7L712.1 744l.2 88.8z" class="st2"/>
  <path d="m1121.1 1020.1 57.7 38.8-72.3 70.7-53.2-35.9z" class="st3"/>
  <path d="m1546.8 1307.3-7.4 91.2-43.4-6.1-262.8-177.3 128.3-32.8zM873.8 351.8l-19.8 14-91.4-61.6 19.5-14.3zM1415 717l-6.4 23.2-92.4-62.4 7.2-22.6z" class="st2"/>
  <path d="M428.9 1166.4c4.9 20.1 9.7 40.4 14.3 60.5l6.9 30.4 6.6 30.4 3.4 15.2 3.2 15.2 6.3 30.4c2.1 10.1 4.2 20.3 6.3 30.4l6.2 30.5-7.7-5.5c37.3-5.3 74.6-10.4 111.8-15.5 37.3-4.9 74.7-9.6 112-14.2l28-3.4 28-3.2 28-3.2 28.1-3 28.1-3 28.1-2.7c18.7-1.8 37.6-3.5 56.3-4.9-18.6 3.5-37 6.8-55.6 10l-27.9 4.6-27.9 4.5-27.9 4.5-27.9 4.2-27.9 4.2-27.9 4.1c-37.3 5.5-74.6 10.7-111.8 15.6-37.3 4.9-74.6 9.8-112 14.3l-6.6.8-1.1-6.3-5.5-30.7c-1.8-10.3-3.5-20.4-5.3-30.7l-5.2-30.7-2.5-15.3-2.5-15.3-4.9-30.7-4.8-30.7c-2.9-19.7-5.9-40.3-8.7-60.8zM390 1129.1c41.2 3.1 82.3 7.6 123.2 12.7s81.9 10.7 122.7 16.7 81.6 12.8 122.2 20c40.7 7.3 81.2 14.9 121.5 24.2-41.2-3.1-82.3-7.6-123.2-12.7s-81.9-10.7-122.7-16.9c-40.8-6.2-81.6-12.8-122.2-20s-81.2-14.7-121.5-24z" class="st4"/>
  <path d="M881.1 1391.7c-35.7 6.3-71.5 11.8-107.3 17.3l-26.8 4c-9 1.4-17.9 2.7-26.9 3.9l-53.7 7.6c-35.9 4.9-71.7 9.7-107.7 14.3l-53.9 6.8-53.9 6.5-6.8.8-1.3-6.8c-4.9-26.3-9.7-52.7-14.3-79.1-4.8-26.3-9.1-52.7-13.6-79.2-2.3-13.2-4.4-26.4-6.6-39.7-2.1-13.2-4.4-26.4-6.3-39.7-2.1-13.2-4.2-26.4-6-39.7-2-13.2-3.9-26.4-5.8-39.8 3.2 13.1 6.2 26 9.3 39.1 3.1 13.1 5.9 26.2 8.9 39.2s5.8 26.2 8.6 39.2c2.8 13.1 5.8 26.2 8.4 39.2 5.5 26.2 11 52.5 16.3 78.6 5.3 26.3 10.5 52.5 15.6 78.8l-8-5.9 53.9-6.8 53.9-6.5c36-4.2 71.9-8.3 107.9-12.2l54-5.6c9-1 18-1.8 27-2.7l27-2.7c36-2.9 72-6.3 108.1-8.9z" class="st5"/>
  <path d="M1101.7 1200c42.2-12.7 84.4-24.6 126.9-36.6l31.8-8.9c10.5-3 21.2-5.9 31.8-8.7l63.7-17.3c42.5-11.3 85-22.6 127.6-33.6l63.9-16.5 64-16.2 9.8-2.5-.8 10.1c-2.7 31.9-5.5 63.9-8.4 95.8-2.8 31.9-5.9 63.9-8.9 95.6-1.5 15.9-3.2 31.9-4.8 47.8s-3.2 31.9-4.9 47.8c-1.7 15.9-3.4 31.9-5.2 47.8-1.8 15.9-3.7 31.8-5.6 47.8.6-16 1.3-32.1 2.1-48.1.7-16 1.5-32.1 2.4-48 .8-16 1.7-32.1 2.7-48 1-16 1.8-31.9 2.8-48 2.1-31.9 4.1-64 6.3-95.9 2.3-31.9 4.5-64 6.9-95.9l9 7.6-63.9 16.5-64 16.2c-42.6 10.8-85.4 21.1-128 31.6l-64.1 15.3c-10.7 2.5-21.4 5.1-32.1 7.6l-32.1 7.5c-43 10.4-85.9 20.2-128.9 29.2z" class="st4"/>
  <path d="M1145.6 1370.2c21 48.8 41.4 97.9 61.5 147l15.1 36.9 14.9 37c10 24.6 19.8 49.2 29.7 74l29.4 74.1 29 74.3c9.7 24.8 19.3 49.5 28.7 74.3 9.4 24.8 19.1 49.5 28.6 74.4l3.5 9.3-9.8.3-94.4 2.3c-31.5.6-62.9 1.3-94.4 1.7-31.5.4-62.9 1-94.4 1.1-15.8.1-31.5.3-47.3.3-15.8.1-31.5 0-47.3 0 15.8-1.1 31.4-2.1 47.1-3.1 15.8-1 31.4-2 47.1-2.8 31.4-1.8 62.9-3.5 94.2-5.1 31.4-1.5 62.9-3 94.2-4.5l94.2-3.9-6.3 9.6c-9.8-24.8-19.4-49.5-29-74.1-9.7-24.8-19.4-49.5-28.8-74.3l-28.6-74.4-28.1-74.6c-9.4-24.8-18.7-49.8-27.9-74.7l-13.9-37.4-13.6-37.4c-18.1-50-36.1-99.9-53.4-150.3z" style="fill:#fff4c6"/>
  <path d="m993.2 1322.1-8.1 673.6 415.2-9.4-204.6-567.1" class="st0"/>
  <path d="m1145.6 1370.2 230.1 594.5-377.2 12.3 2.6-654.9" class="st1"/>
  <path d="m987.8 1329.9 29.5 620.8 308.2-16.4-209.9-593.2" class="st0"/>
  <path d="M1582.3 1452.8c-45.3-3.2-90.4-7.9-135.5-13.1s-90-11-134.9-17.2c-44.9-6.2-89.7-13.1-134.5-20.4-44.7-7.5-89.3-15.2-133.8-24.6 45.3 3.2 90.4 7.9 135.5 12.9 45 5.2 90 11 134.9 17.2 44.9 6.3 89.7 13.1 134.5 20.4 44.8 7.6 89.4 15.5 133.8 24.8z" style="fill:#228240"/>
  <path d="m1308 1919.1-62.8 4.1-107.9 7.1-87.4 5.8-23.2 1.6-.8-17.6-2.7-66.1-3.5-81.6-2.8-66.1-7.5-179.4-2.8-66.2-1.3-29.4-1.5-36.6-2.7-64.8 99.2 8.5 56.8 158.8 16.8 46.7 13.5 37.7 30.2 84.6 82 229.1z" class="st1"/>
  <path d="m629.6 1208.5 205 137.1-79.6 11L510.4 1193z" class="st2"/>
  <path d="m915.6 1399.8 70.8 47.4-3.4 62-88.1-58.9z" class="st3"/>
  <path d="m1217.6 1666.2-208.2-139.3-2.8-66.2 180.8 120.9zM479.1 1346.3l59.8 40.1-50.9 6.9zM839.2 1587.4l134.8 90-3.4 62.1-151.9-101.6zM1308 1919.1l-62.8 4.1-225.5-150.8-2.8-66.1 282.7 189zM793.4 1700.2l173 115.8-3.4 62-190.2-127.3zM1137.3 1930.3l-87.4 5.8-24-16-2.7-66.1zM960.1 1932.4l-.3 5.4-157.9-.1-82.7-55.3 35.6-87.4zM1173.9 1543.9l-168.6-112.6-17.4-11.7-63.2-42.3-54.7-36.6-187.2-125.2 66 8.6 165.4 110.5 21.9 14.7 53.6 36 14.1 9.4 153.3 102.5z" class="st2"/>
  <path d="M1375.7 1964.7c-15.8 1.1-31.4 2.1-47.1 3.1-15.8 1-31.4 2-47.1 2.8l-47.1 2.7-47.1 2.4c-15.8.8-31.4 1.5-47.1 2.3l-47.1 2.3-94.2 3.9-7.2.3v-7.3l-.1-20.5V1895c.1-27.3 0-54.6.3-81.9l.6-81.9c.1-27.3.6-54.6 1-81.9l.6-40.9.7-40.9.7-40.9 1-40.9c1.3-54.6 2.8-109.2 4.9-163.7 1.8 54.6 2.8 109.2 3.7 163.7l.6 40.9.4 40.9.4 40.9.1 40.9c.1 27.3.3 54.6.3 81.9l-.1 81.9c0 27.3-.3 54.6-.4 81.9l-.3 40.9-.1 20.5-.3 20.5-7.2-7 94.4-2.3 47.1-1c15.8-.3 31.5-.7 47.1-.8l47.1-.7 47.1-.4c15.8-.1 31.5-.3 47.3-.3 15.6.1 31.4.1 47.1.3z" class="st5"/>
  <path d="M1308 1919.1c-23.3 2.5-46.8 4.9-70.2 7.2-23.3 2.3-46.8 4.5-70.2 6.5l-35.2 3.1-35.2 3c-23.5 2-46.8 3.8-70.3 5.6l-6.6.4-.4-6.8c-2.7-50.6-5.2-101.3-7.3-151.9-2.1-50.6-4.2-101.3-5.8-151.9-.8-25.3-1.7-50.6-2.4-76-.7-25.3-1.4-50.6-1.8-76l-.7-38-.6-38c-.3-25.3-.6-50.8-.6-76.1 2.1 25.3 4.1 50.5 5.9 75.8l2.7 38 2.4 38c1.7 25.3 3.1 50.6 4.5 76 1.5 25.3 2.7 50.6 4.1 76 2.7 50.6 4.9 101.3 7 151.9 2.1 50.6 3.9 101.3 5.5 151.9l-6.9-6.2c23.5-1.4 47-2.5 70.5-3.8l35.2-1.8 35.2-1.5c23.5-1.1 47-2 70.5-2.8 23.8-1.3 47.3-2.2 70.7-2.6zM1252.8 877.1c8.6-32.2 17.7-64.1 26.9-96.1 9.3-31.9 18.6-63.9 28.1-95.6 9.4-31.9 19.3-63.6 29-95.4 9.7-31.8 19.7-63.4 29.8-95.2l2.3 7.9c-26.3-22.9-52.3-46-78.5-69.1l-39-34.9-19.6-17.4-19.4-17.6-38.7-35.2-38.5-35.3c-25.5-23.8-51.1-47.4-76.2-71.6 27.3 21.7 54.2 43.9 81.2 66.1l40.1 33.5 39.9 33.8 20 16.9 19.8 17 39.7 34c26.3 22.8 52.6 45.7 78.9 68.6l3.7 3.2-1.4 4.6c-10.1 31.6-20.3 63.3-30.7 94.9-10.4 31.5-20.7 63.2-31.4 94.7-10.5 31.5-21.4 63-32.2 94.4-11.2 31.2-22.2 62.5-33.8 93.8z" class="st4"/>
  <path d="m570.4 570.7 2.6 48.8-30.4 20.4-2.6-48.7zM1233.9 173.8l-27.6 18.5-35.4-26.4 27.6-18.6zM582.4 805.3l2.4 48.8-27.3 18.5-3.4-3.6-2.2-43.1zM759.2 736.5l-31.4 21.1-.1-50.3 31.3-21.1zM1214.9 378.8l32.5 28.5-26.8 18.1-32.5-28.4zM1404.8 301.2l-27.5 18.6-35.6-26.5 27.5-18.5z" class="st8"/>
  <path d="m937.5 1217.2 19.7 20.2-41.3-5.6z" style="fill:#f5ce30"/>
  <path d="m1411 898-166.8 162.9-145 97.8 166.6-162.9zM667.6 940.4l48 49.2-26.5 17.7-47.9-49.1zM838.4 906.7l-26.3 17.8-44.5-51.7 26.2-17.7zM1339.1 487.6l16.5 14.3-22.7 71.3-41.9 28.3 28.4-89.4-7.1-6.4zM1547.5 407.5l-7.1 25.9-39.8 26.7 11-40.2-34.3-25.6 27.5-18.5zM823.8 1524.7l38.6-26.1-46 112.7-42.2 28.4z" class="st8"/>
  <path d="M984.9 1982.5c-29.7.6-59.2.8-88.9 1l-44.4.1h-44.4c-14.8 0-29.7-.1-44.4-.1l-44.4-.3c-14.8 0-29.7-.3-44.4-.4l-44.4-.6-10.1-.1 3.9-9.4c10.3-24.5 20.7-48.8 31.1-73.1l15.6-36.6c5.2-12.2 10.4-24.3 15.8-36.4l31.6-72.9c5.2-12.1 10.5-24.3 15.9-36.4l16-36.3 16-36.3 16.2-36.3 16.2-36.3 16.5-36.1c21.9-48.2 44-96.4 67-144.2-19.1 49.4-38.8 98.6-58.9 147.6L807 1576l-15.2 36.7-15.2 36.7-15.3 36.6-15.5 36.6c-5.1 12.2-10.3 24.5-15.5 36.6l-31.2 73c-5.2 12.2-10.4 24.3-15.8 36.4l-15.9 36.4c-10.5 24.3-21.1 48.5-31.8 72.7l-6.2-9.6 44.4 1.3c14.8.4 29.7.8 44.4 1.4l44.4 1.5c14.8.6 29.5 1 44.4 1.7l44.4 1.8 44.4 2c29.9 1.5 59.5 3 89.1 4.7z" class="st5"/>
  <path d="m1182.2 1364.6-39.7 26.7-98.6-13.6-8.5 85.9-35.4 23.9 5.9-85.6 76.1-51.2z" style="fill:#dbbf48"/>
  <path d="M1553.8 1416.6c1-25.6 2.1-51.1 3.5-76.7l2-38.3 2.3-38.3c1.4-25.6 3.1-51.1 4.8-76.5 1.5-25.5 3.4-51.1 5.2-76.5l8.3 7c-48.4 12.9-96.9 25.5-145.4 37.8-48.5 12.4-97.1 24.6-145.7 36.4l-36.4 9-36.6 8.7c-24.3 5.8-48.7 11.7-73.1 17.3l-36.6 8.4-36.6 8.3c-24.5 5.5-49 10.8-73.4 16 24.1-7.2 48.1-14.2 72.2-21.1l36.1-10.3 36.1-10.1c24.1-6.8 48.2-13.4 72.4-19.8l36.3-9.8 36.3-9.6c48.4-12.9 96.9-25.5 145.3-38 48.5-12.4 97.1-24.6 145.7-36.4l9.1-2.3-.8 9.3c-2.3 25.5-4.5 50.9-7 76.4-2.4 25.5-4.8 50.9-7.5 76.4l-3.8 38.1-4.1 38.1c-2.7 25.6-5.5 51.1-8.6 76.5z" class="st5"/>
  <path d="m879.6 1202.7-41.6-40.8-41.5-40.9c-27.6-27.4-55.1-54.7-82.6-82.3-27.4-27.4-55-54.9-82.3-82.6l-82-82.7-1.7-1.7-.1-2.4-6.3-113.5-3.1-56.7-3-56.7c-2-37.8-4.1-75.7-5.9-113.5L524 415.4l-.1-3.9 3.1-2.3 32.5-23.6 32.5-23.5 65-47 32.5-23.5 32.6-23.3 65.1-46.8 65.3-46.6 32.6-23.3 32.8-23.2c21.8-15.5 43.6-30.9 65.5-46.3 21.8-15.5 43.9-30.7 65.8-46-21.2 16.3-42.5 32.6-63.7 48.8s-42.6 32.4-64 48.5l-32.1 24.2-32.1 24.1-64.1 48.1-64.3 48-32.2 23.9-32.2 23.9-64.5 47.6-32.2 23.9-32.4 23.8 3-6.2 5.9 113.5c2 37.8 3.8 75.7 5.6 113.5l2.8 56.7 2.7 56.7 5.1 113.5-1.8-4.1 80.7 84.1c26.9 28 53.6 56.3 80.5 84.4 26.9 28.1 53.5 56.4 80.2 84.7l39.9 42.5 39.6 42.5z" style="fill:#16592d"/>
  <path d="m994.5 1088.1 26.4-30 26.6-30c17.7-20 35.4-39.8 53.2-59.6l53.5-59.5 26.7-29.7 26.9-29.7-1 1.7 26.4-85.4 26.7-85.4 13.4-42.6 13.5-42.6 27-85.2 1.8 6.6c-22.1-19.1-43.9-38.5-65.8-57.8l-65.8-57.8-65.5-58L1053 285l6.3.3-74.8 51.6-75 51.5-75.1 51.2-38 25.6-37.7 25.3 36.6-27 36.7-26.9 73.6-53.5 73.7-53.2 73.8-52.9 3.2-2.3 3.1 2.7 66.1 57.1 66.3 57.4 66 57.5c21.9 19.3 44 38.4 66 57.7l3.1 2.7-1.3 3.9-27.3 85.1-13.6 42.6-13.8 42.5-27.6 85.1-27.7 85-.3 1-.7.7-27.3 29.1-27.4 29.1L1105 972c-18.4 19.3-36.7 38.7-55.1 58l-27.6 28.8-27.8 29.3z" class="st5"/>
  <path d="M987.5 1245.9c-33.6-31.8-66.7-64.1-99.7-96.5-16.5-16.3-33.1-32.4-49.4-48.7l-49.1-49c-32.5-32.8-65.3-65.5-97.5-98.6l-48.5-49.5-48.3-49.7-2-2-.1-2.7c-.8-17.2-1.7-34.2-2.4-51.3l-2.1-51.3c-1.5-34.2-2.7-68.5-3.9-102.8-.7-17.2-1.1-34.3-1.7-51.3-.6-17.2-1.1-34.3-1.4-51.3-.4-17.2-.8-34.3-1.1-51.5-.4-17.2-.7-34.3-.8-51.5 1.5 17 3 34.2 4.4 51.2 1.4 17 2.7 34.2 3.9 51.3 1.4 17.2 2.5 34.2 3.8 51.3 1.1 17.2 2.5 34.2 3.5 51.3 2.3 34.2 4.5 68.4 6.5 102.7l3.1 51.3c1 17.2 1.8 34.2 2.8 51.3l-2.1-4.6 48.5 49.5 48.2 49.8c32.2 33.1 64.1 66.5 96.1 99.9l47.7 50.4c15.9 16.7 31.6 33.8 47.5 50.5 31.6 33.4 63.1 67.3 94.1 101.8zM959.8 1937.8c-11 .4-21.9.8-32.9 1.3l-32.9 1c-21.9.6-43.9 1.3-65.7 1.7-21.9.4-43.9 1-65.7 1.3l-65.7 1-9.3.1 3.5-8.7 30.1-76.1 30.5-76 15.3-38 15.6-37.8c10.4-25.3 20.7-50.5 31.2-75.7l15.8-37.8c5.2-12.7 10.5-25.2 15.9-37.8l16-37.7c5.3-12.5 10.7-25.2 16.2-37.7l16.2-37.6 16.5-37.6c11-25 22.1-49.9 33.5-74.8-9.3 25.7-18.7 51.3-28.3 76.9l-14.5 38.4-14.6 38.3c-4.8 12.8-9.8 25.5-14.8 38.3l-14.9 38.1c-4.9 12.8-10 25.5-15.1 38.1l-15.1 38.1c-10 25.5-20.3 50.6-30.5 76.1l-15.3 38-15.5 38-31.1 75.8-31.5 75.5-5.8-8.6 65.7 1c21.9.3 43.9.8 65.7 1.3 21.9.4 43.9 1.1 65.7 1.7l32.9 1.1c11.1-.2 21.9.2 32.9.8z" class="st4"/>
  <path d="M758.6 490.5c1.5 27 2.7 54.2 3.7 81.2.6 13.5.8 27 1.3 40.7.4 13.5.7 27 1 40.7.7 27 1.1 54.2 1.5 81.2.1 13.5.3 27 .4 40.7.1 13.5.1 27 .3 40.7l-1.8-4.8c19.7 22.6 39.1 45.4 58.7 68.4 19.4 22.9 38.8 45.9 58 68.9l28.7 34.7 28.4 34.9c18.8 23.3 37.7 46.8 55.8 70.8-21-21.7-41.2-43.7-61.6-65.7l-30.4-33.3-30.1-33.5c-20.1-22.4-39.9-44.9-59.6-67.4-19.7-22.6-39.4-45.3-58.9-68.1l-1.8-2.1V775.1c0-13.5.1-27 .3-40.7.1-27 .6-54.2 1.1-81.2.3-13.5.4-27 .8-40.7.4-13.5.7-27 1.1-40.7.7-27.3 1.6-54.3 3.1-81.3z" class="st4"/>
  <path d="m1282.6 1247.4-77.2 186.5-186.6 77.3-186.5-77.3-77.2-186.5 77.2-186.5 186.5-77.2 186.6 77.2z" style="fill:#2a7f44;enable-background:new"/>
  <path d="m839.9 1426.3-74.1-178.9 74.1-178.9 178.9-74 179 74 74 178.9-74 178.9-179 74.2z" class="st1"/>
  <path d="m860.2 1406.1-65.7-158.7 65.7-158.6 158.6-65.7 158.7 65.7 65.7 158.6-65.7 158.7-158.7 65.7z" class="st0"/>
  <path d="m1228.4 1247.4-61.4 148.3-148.2 61.3-148.2-61.3-61.3-148.3 61.3-148.1 148.2-61.5 148.2 61.5z" style="fill:#e74d56;stroke:#8d181b;stroke-width:7.9948;stroke-miterlimit:10"/>
  <linearGradient id="SVGID_1_" x1="900.13" x2="1137.566" y1="752.572" y2="752.572" gradientTransform="matrix(1 0 0 -1 0 2000)" gradientUnits="userSpaceOnUse">
    <stop offset="0" style="stop-color:#eb3c57"/>
    <stop offset=".359" style="stop-color:#e63d55"/>
    <stop offset=".802" style="stop-color:#dd3d50"/>
    <stop offset="1" style="stop-color:#d83d4c"/>
  </linearGradient>
  <path d="m934.9 1331.4-34.8-84 34.8-83.8 83.9-34.9 84 34.9 34.8 83.8-34.8 84-84 34.7z" style="fill:url(#SVGID_1_)"/>
  <path d="M812.5 1247.4h87.6l34.8 84-60.4 60.3z" style="fill:#ba2026"/>
  <path d="m1102.8 1163.6 59.5-59.6 59.7 143.4h-84.4z" style="fill:#f0566f"/>
  <path d="M1018.8 1128.7v-84.5l143.5 59.8-59.5 59.6z" style="fill:#f3839c"/>
  <path d="M812.5 1247.4h87.6l34.8-83.8-62.8-59.6z" style="fill:#e22437"/>
  <path d="M1018.8 1128.7c7.2 2.5 14.2 5.2 21.4 7.7 7 2.7 14.2 5.3 21.2 8.2 7 2.7 14.1 5.6 21.1 8.4l21 8.6.7.3.3.7 8.6 21c2.8 7 5.6 14.1 8.4 21.1s5.5 14.1 8.2 21.2c2.7 7 5.3 14.2 7.7 21.4-3.4-6.9-6.5-13.8-9.6-20.7-3.1-6.9-6.2-13.8-9.3-20.8-3.1-6.9-6-13.9-9-20.8l-8.7-21 1.1 1.1-21-8.9c-6.9-3-13.9-5.9-20.8-9-6.9-3-13.9-6-20.8-9.3-6.8-2.7-13.7-5.8-20.5-9.2z" style="fill:#f9c6d2"/>
  <path d="M1018.8 1366.1c-7.2-2.5-14.2-5.2-21.4-7.7-7-2.7-14.2-5.3-21.2-8.2-7-2.7-14.1-5.6-21.1-8.4l-21-8.6-.7-.3-.3-.7-8.6-21c-2.8-7-5.6-14.1-8.4-21.1-2.8-7-5.5-14.1-8.2-21.2-2.7-7-5.3-14.2-7.7-21.4 3.4 6.9 6.5 13.8 9.6 20.7 3.1 6.9 6.2 13.8 9.3 20.8 3.1 6.9 6 13.9 9 20.8l8.7 21-1.1-1.1 21 8.9c6.9 3 13.9 5.9 20.8 9 6.9 3 13.9 6 20.8 9.3 6.8 2.8 13.7 6 20.5 9.2z" style="fill:#f05682"/>
  <path d="M1018.8 994.5c15.3 5.2 30.5 10.5 45.7 16.2l22.8 8.3 22.6 8.4c15.2 5.6 30.2 11.4 45.3 17.3 15.1 5.8 30.1 11.8 45 17.7l2.5 1 1.1 2.7c6.3 14.8 12.8 29.7 19 44.6 6.3 14.9 12.5 29.8 18.7 44.6 6.2 14.9 12.4 29.8 18.4 44.7 6 14.9 12.1 30 18 44.9l1.1 2.7-1.1 2.5c-12.8 29.7-25.7 59.2-39.1 88.6l-10 22.1-10.3 21.9c-6.9 14.6-13.8 29.3-21 43.7 5.2-15.3 10.5-30.5 16-45.7l8.3-22.8 8.4-22.6c11.3-30.2 23.1-60.3 34.9-90.3v5.2c-6.3-14.8-12.7-29.7-19-44.6-6.3-14.9-12.5-29.8-18.7-44.6-6.2-14.9-12.4-29.8-18.3-44.7-6-14.9-12.1-30-18-44.9l3.7 3.7c-14.8-6.5-29.7-12.8-44.3-19.4-14.8-6.5-29.5-13.1-44.2-19.8l-22.1-10-21.9-10.3c-14.3-7-29-13.9-43.5-21.1zM1049.4 36.1c42.6 29.5 84.7 59.6 126.9 89.7l63 45.4 62.9 45.7 62.6 46c20.8 15.3 41.8 30.7 62.5 46.1 41.6 30.8 83.3 61.6 124.6 92.8l3.9 3-1.3 4.8-16.6 60.6-16.9 60.6-16.9 60.6L1487 652l-8.6 30.2-8.7 30.2c-5.9 20.1-11.5 40.2-17.6 60.3-11.8 40.2-23.8 80.5-36 120.5 9.6-40.8 19.6-81.6 29.7-122.2 4.9-20.4 10.1-40.7 15.3-61l7.7-30.5 7.9-30.4 15.6-60.9 15.9-60.8 16-60.8 16.3-60.8 2.7 7.7c-41.6-30.8-83-61.9-124.5-93-20.7-15.5-41.4-31.1-62-46.8l-61.9-47-61.8-47.3-61.5-47.4c-40.8-31.7-81.8-63.6-122.1-95.9z" class="st4"/>
</svg>
