<svg xmlns="http://www.w3.org/2000/svg" xml:space="preserve" id="Layer_1" x="0" y="0" style="enable-background:new 0 0 2000 2000" version="1.1" viewBox="0 0 2000 2000">
  <style>
    .st0{fill:#bdb069}.st1{fill:#e0cb6f}.st2{fill:#f9e27f}.st3{fill:#fff0b3}.st4{fill:#d3c157}.st5{fill:#e6d16b}.st6{fill:#fff4c6}.st7{fill:#968748}.st8{fill:#fee576}.st10{fill:#f5ce30}.st11{fill:#dbbf48}
  </style>
  <path d="m782.3 806.1-.7-304 272.7-191.9 238.8 209L1191 840.5 995.1 1053 782.3 806.1zm818.8 669.9 34.9-437.1-459.6 117.4L1435 903.7l136.5-504.6L1049.4 9.7 509.6 404.4l24 473.1L825 1176.3l-461-75.1 69.3 365.6 418.6-48.5L596.1 1989l389 2.8 82.6-590.2 533.4 74.4z" class="st0"/>
  <path d="m1338.2 487.6-91.5-80-32.4-28.5-123.7-108.3-32.5-28.5-.4-.3-19.1 13.5L728 474.3l.1 41.1.4 191.4.1 50.2.1 69 39.6 45.9 44.3 51.5 181.1 210.2L1238.3 868l93.9-294.9 22.6-71.1-16.6-14.4zm-47.9 113.7L1210.6 852l-216 234.6-155.8-180.9-44.3-51.5-34.4-39.8-.1-78.4-.1-50.2-.4-191.4v-3.8l296.3-208.7 8.1 7.2 123.7 108.3 32.4 28.5 91.5 80 7.3 6.3-28.5 89.1zm-280.2 737-4.2 61.2 75.9-51.2-71.7-10zm-72.2-123-221.5-227-26.4 17.8L880 1201l-391.7-58.8-37.5 25.3 465.3 62.6 41.2 5.6-19.4-20.4zm400.3-727.7-91.5-80-32.4-28.5-123.7-108.3-32.5-28.5-.4-.3-19.1 13.5L728 474.3l.1 41.1.4 191.4.1 50.2.1 69 39.6 45.9 44.3 51.5 181.1 210.2L1238.3 868l93.9-294.9 22.6-71.1-16.6-14.4zm-47.9 113.7L1210.6 852l-216 234.6-155.8-180.9-44.3-51.5-34.4-39.8-.1-78.4-.1-50.2-.4-191.4v-3.8l296.3-208.7 8.1 7.2 123.7 108.3 32.4 28.5 91.5 80 7.3 6.3-28.5 89.1zm47.9-113.7-91.5-80-32.4-28.5-123.7-108.3-32.5-28.5-.4-.3-19.1 13.5L728 474.3l.1 41.1.4 191.4.1 50.2.1 69 39.6 45.9 44.3 51.5 181.1 210.2L1238.3 868l93.9-294.9 22.6-71.1-16.6-14.4zm-47.9 113.7L1210.6 852l-216 234.6-155.8-180.9-44.3-51.5-34.4-39.8-.1-78.4-.1-50.2-.4-191.4v-3.8l296.3-208.7 8.1 7.2 123.7 108.3 32.4 28.5 91.5 80 7.3 6.3-28.5 89.1zm-280.2 737-4.2 61.2 75.9-51.2-71.7-10zm328.1-850.7-91.5-80-32.4-28.5-123.7-108.3-32.5-28.5-.4-.3-19.1 13.5L728 474.3l.1 41.1.4 191.4.1 50.2.1 69 39.6 45.9 44.3 51.5 181.1 210.2L1238.3 868l93.9-294.9 22.6-71.1-16.6-14.4zm-47.9 113.7L1210.6 852l-216 234.6-155.8-180.9-44.3-51.5-34.4-39.8-.1-78.4-.1-50.2-.4-191.4v-3.8l296.3-208.7 8.1 7.2 123.7 108.3 32.4 28.5 91.5 80 7.3 6.3-28.5 89.1zm47.9-113.7-91.5-80-32.4-28.5-123.7-108.3-32.5-28.5-.4-.3-19.1 13.5L728 474.3l.1 41.1.4 191.4.1 50.2.1 69 39.6 45.9 44.3 51.5 181.1 210.2L1238.3 868l93.9-294.9 22.6-71.1-16.6-14.4zm-47.9 113.7L1210.6 852l-216 234.6-155.8-180.9-44.3-51.5-34.4-39.8-.1-78.4-.1-50.2-.4-191.4v-3.8l296.3-208.7 8.1 7.2 123.7 108.3 32.4 28.5 91.5 80 7.3 6.3-28.5 89.1zm-280.2 737-4.2 61.2 75.9-51.2-71.7-10zm328.1-850.7-91.5-80-32.4-28.5-123.7-108.3-32.5-28.5-.4-.3-19.1 13.5L728 474.3l.1 41.1.4 191.4.1 50.2.1 69 39.6 45.9 44.3 51.5 181.1 210.2L1238.3 868l93.9-294.9 22.6-71.1-16.6-14.4zm-47.9 113.7L1210.6 852l-216 234.6-155.8-180.9-44.3-51.5-34.4-39.8-.1-78.4-.1-50.2-.4-191.4v-3.8l296.3-208.7 8.1 7.2 123.7 108.3 32.4 28.5 91.5 80 7.3 6.3-28.5 89.1zm47.9-113.7-91.5-80-32.4-28.5-123.7-108.3-32.5-28.5-.4-.3-19.1 13.5L728 474.3l.1 41.1.4 191.4.1 50.2.1 69 39.6 45.9 44.3 51.5 181.1 210.2L1238.3 868l93.9-294.9 22.6-71.1-16.6-14.4zm-47.9 113.7L1210.6 852l-216 234.6-155.8-180.9-44.3-51.5-34.4-39.8-.1-78.4-.1-50.2-.4-191.4v-3.8l296.3-208.7 8.1 7.2 123.7 108.3 32.4 28.5 91.5 80 7.3 6.3-28.5 89.1zm-280.2 737-4.2 61.2 75.9-51.2-71.7-10zm328.1-850.7-91.5-80-32.4-28.5-123.7-108.3-32.5-28.5-.4-.3-19.1 13.5L728 474.3l.1 41.1.4 191.4.1 50.2.1 69 39.6 45.9 44.3 51.5 181.1 210.2L1238.3 868l93.9-294.9 22.6-71.1-16.6-14.4zm-47.9 113.7L1210.6 852l-216 234.6-155.8-180.9-44.3-51.5-34.4-39.8-.1-78.4-.1-50.2-.4-191.4v-3.8l296.3-208.7 8.1 7.2 123.7 108.3 32.4 28.5 91.5 80 7.3 6.3-28.5 89.1zm47.9-113.7-91.5-80-32.4-28.5-123.7-108.3-32.5-28.5-.4-.3-19.1 13.5L728 474.3l.1 41.1.4 191.4.1 50.2.1 69 39.6 45.9 44.3 51.5 181.1 210.2L1238.3 868l93.9-294.9 22.6-71.1-16.6-14.4zm-47.9 113.7L1210.6 852l-216 234.6-155.8-180.9-44.3-51.5-34.4-39.8-.1-78.4-.1-50.2-.4-191.4v-3.8l296.3-208.7 8.1 7.2 123.7 108.3 32.4 28.5 91.5 80 7.3 6.3-28.5 89.1zm-280.2 737-4.2 61.2 75.9-51.2-71.7-10zm328.1-850.7-91.5-80-32.4-28.5-123.7-108.3-32.5-28.5-.4-.3-19.1 13.5L728 474.3l.1 41.1.4 191.4.1 50.2.1 69 39.6 45.9 44.3 51.5 181.1 210.2L1238.3 868l93.9-294.9 22.6-71.1-16.6-14.4zm-47.9 113.7L1210.6 852l-216 234.6-155.8-180.9-44.3-51.5-34.4-39.8-.1-78.4-.1-50.2-.4-191.4v-3.8l296.3-208.7 8.1 7.2 123.7 108.3 32.4 28.5 91.5 80 7.3 6.3-28.5 89.1zm47.9-113.7-91.5-80-32.4-28.5-123.7-108.3-32.5-28.5-.4-.3-19.1 13.5L728 474.3l.1 41.1.4 191.4.1 50.2.1 69 39.6 45.9 44.3 51.5 181.1 210.2L1238.3 868l93.9-294.9 22.6-71.1-16.6-14.4zm-47.9 113.7L1210.6 852l-216 234.6-155.8-180.9-44.3-51.5-34.4-39.8-.1-78.4-.1-50.2-.4-191.4v-3.8l296.3-208.7 8.1 7.2 123.7 108.3 32.4 28.5 91.5 80 7.3 6.3-28.5 89.1zm47.9-113.7-91.5-80-32.4-28.5-123.7-108.3-32.5-28.5-.4-.3-19.1 13.5L728 474.3l.1 41.1.4 191.4.1 50.2.1 69 39.6 45.9 44.3 51.5 181.1 210.2L1238.3 868l93.9-294.9 22.6-71.1-16.6-14.4zm-47.9 113.7L1210.6 852l-216 234.6-155.8-180.9-44.3-51.5-34.4-39.8-.1-78.4-.1-50.2-.4-191.4v-3.8l296.3-208.7 8.1 7.2 123.7 108.3 32.4 28.5 91.5 80 7.3 6.3-28.5 89.1zm47.9-113.7-91.5-80-32.4-28.5-123.7-108.3-32.5-28.5-.4-.3-19.1 13.5L728 474.3l.1 41.1.4 191.4.1 50.2.1 69 39.6 45.9 44.3 51.5 181.1 210.2L1238.3 868l93.9-294.9 22.6-71.1-16.6-14.4zm-47.9 113.7L1210.6 852l-216 234.6-155.8-180.9-44.3-51.5-34.4-39.8-.1-78.4-.1-50.2-.4-191.4v-3.8l296.3-208.7 8.1 7.2 123.7 108.3 32.4 28.5 91.5 80 7.3 6.3-28.5 89.1zm138 513.6-326.7 83.5 142.1-138.9L1409.9 897l5.1-4.9 124-458.5 7-25.7-42.5-31.7-99.7-74.4-35.5-26.4-135-100.7-35.5-26.4-148.7-111-516.7 378.1 8.8 175.6 2.5 48.7 9.4 185.5 2.2 43.1 3.4 3.5 83.3 85.4 47.8 49.1 190 194.9-391.7-58.8-96.7-14.4 13.5 70.7 46.3 244.2 183.2-22.6 91.3-11.2 155.7-19.2-57.2 132.6-49.5 114.8-144.4 334.6 354.4 7.3 50.5-517.7 8.4-85.7 98.3 13.7 438.7 61.2 30-377.4.4-4.9-182.7 46.5zm124 299.3-370.6-51.8-99.9-14-71.7-10-4.2 61.2-5.9 85.3-31.7 463.9-289.7-2 138.3-338.5 45.9-112.4 60.2-147.3-135.2 18-93 12.3-218.1 29-43.5-229-2.8-14.6 20.3 2.7 465.3 62.6 41.2 5.6-19.6-20.2-221.3-226.7-47.8-49.1-82.5-84.6v-1.4l-2.5-48.7-9.4-185.3-2.5-48.7-7.2-139.9L1049 76.3l121.3 90.5 35.5 26.4 135 100.7 35.5 26.4 99.7 74.4 34.2 25.5-10.8 40.1L1387 875.6l-121.8 119-166.3 162.4-102.8 100.4 355.1-90.6 194.3-49.7 31.3-8-24.5 305.1zm-220.2-841.1 22.6-71.1-16.4-14.4-91.5-80-32.4-28.5-123.7-108.3-32.5-28.5-.4-.3-19.1 13.5L728 474.3l.1 41.1.4 191.4.1 50.2.1 69 39.6 45.9 44.3 51.5 181.1 210.2L1238.3 868l93.8-294.9zm-337.6 513.4L838.8 905.7l-44.3-51.5-34.4-39.8-.1-78.4-.1-50.2-.4-191.4v-3.8l296.3-208.7 8.1 7.2 123.7 108.3 32.4 28.5 91.5 80 7.3 6.3-28.3 89.2-79.9 250.6-216.1 234.5zm343.7-598.9-91.5-80-32.4-28.5-123.7-108.3-32.5-28.5-.4-.3-19.1 13.5L728 474.3l.1 41.1.4 191.4.1 50.2.1 69 39.6 45.9 44.3 51.5 181.1 210.2L1238.3 868l93.9-294.9 22.6-71.1-16.6-14.4zm-47.9 113.7L1210.6 852l-216 234.6-155.8-180.9-44.3-51.5-34.4-39.8-.1-78.4-.1-50.2-.4-191.4v-3.8l296.3-208.7 8.1 7.2 123.7 108.3 32.4 28.5 91.5 80 7.3 6.3-28.5 89.1zm47.9-113.7-91.5-80-32.4-28.5-123.7-108.3-32.5-28.5-.4-.3-19.1 13.5L728 474.3l.1 41.1.4 191.4.1 50.2.1 69 39.6 45.9 44.3 51.5 181.1 210.2L1238.3 868l93.9-294.9 22.6-71.1-16.6-14.4zm-47.9 113.7L1210.6 852l-216 234.6-155.8-180.9-44.3-51.5-34.4-39.8-.1-78.4-.1-50.2-.4-191.4v-3.8l296.3-208.7 8.1 7.2 123.7 108.3 32.4 28.5 91.5 80 7.3 6.3-28.5 89.1zm-280.2 737-4.2 61.2 75.9-51.2-71.7-10zm328.1-850.7-91.5-80-32.4-28.5-123.7-108.3-32.5-28.5-.4-.3-19.1 13.5L728 474.3l.1 41.1.4 191.4.1 50.2.1 69 39.6 45.9 44.3 51.5 181.1 210.2L1238.3 868l93.9-294.9 22.6-71.1-16.6-14.4zm-47.9 113.7L1210.6 852l-216 234.6-155.8-180.9-44.3-51.5-34.4-39.8-.1-78.4-.1-50.2-.4-191.4v-3.8l296.3-208.7 8.1 7.2 123.7 108.3 32.4 28.5 91.5 80 7.3 6.3-28.5 89.1zm47.9-113.7-91.5-80-32.4-28.5-123.7-108.3-32.5-28.5-.4-.3-19.1 13.5L728 474.3l.1 41.1.4 191.4.1 50.2.1 69 39.6 45.9 44.3 51.5 181.1 210.2L1238.3 868l93.9-294.9 22.6-71.1-16.6-14.4zm-47.9 113.7L1210.6 852l-216 234.6-155.8-180.9-44.3-51.5-34.4-39.8-.1-78.4-.1-50.2-.4-191.4v-3.8l296.3-208.7 8.1 7.2 123.7 108.3 32.4 28.5 91.5 80 7.3 6.3-28.5 89.1zm-280.2 737-4.2 61.2 75.9-51.2-71.7-10zm328.1-850.7-91.5-80-32.4-28.5-123.7-108.3-32.5-28.5-.4-.3-19.1 13.5L728 474.3l.1 41.1.4 191.4.1 50.2.1 69 39.6 45.9 44.3 51.5 181.1 210.2L1238.3 868l93.9-294.9 22.6-71.1-16.6-14.4zm-47.9 113.7L1210.6 852l-216 234.6-155.8-180.9-44.3-51.5-34.4-39.8-.1-78.4-.1-50.2-.4-191.4v-3.8l296.3-208.7 8.1 7.2 123.7 108.3 32.4 28.5 91.5 80 7.3 6.3-28.5 89.1zm47.9-113.7-91.5-80-32.4-28.5-123.7-108.3-32.5-28.5-.4-.3-19.1 13.5L728 474.3l.1 41.1.4 191.4.1 50.2.1 69 39.6 45.9 44.3 51.5 181.1 210.2L1238.3 868l93.9-294.9 22.6-71.1-16.6-14.4zm-47.9 113.7L1210.6 852l-216 234.6-155.8-180.9-44.3-51.5-34.4-39.8-.1-78.4-.1-50.2-.4-191.4v-3.8l296.3-208.7 8.1 7.2 123.7 108.3 32.4 28.5 91.5 80 7.3 6.3-28.5 89.1zm-280.2 737-4.2 61.2 75.9-51.2-71.7-10zm328.1-850.7-91.5-80-32.4-28.5-123.7-108.3-32.5-28.5-.4-.3-19.1 13.5L728 474.3l.1 41.1.4 191.4.1 50.2.1 69 39.6 45.9 44.3 51.5 181.1 210.2L1238.3 868l93.9-294.9 22.6-71.1-16.6-14.4zm-47.9 113.7L1210.6 852l-216 234.6-155.8-180.9-44.3-51.5-34.4-39.8-.1-78.4-.1-50.2-.4-191.4v-3.8l296.3-208.7 8.1 7.2 123.7 108.3 32.4 28.5 91.5 80 7.3 6.3-28.5 89.1zm47.9-113.7-91.5-80-32.4-28.5-123.7-108.3-32.5-28.5-.4-.3-19.1 13.5L728 474.3l.1 41.1.4 191.4.1 50.2.1 69 39.6 45.9 44.3 51.5 181.1 210.2L1238.3 868l93.9-294.9 22.6-71.1-16.6-14.4zm-47.9 113.7L1210.6 852l-216 234.6-155.8-180.9-44.3-51.5-34.4-39.8-.1-78.4-.1-50.2-.4-191.4v-3.8l296.3-208.7 8.1 7.2 123.7 108.3 32.4 28.5 91.5 80 7.3 6.3-28.5 89.1zm-280.2 737-4.2 61.2 75.9-51.2-71.7-10zm328.1-850.7-91.5-80-32.4-28.5-123.7-108.3-32.5-28.5-.4-.3-19.1 13.5L728 474.3l.1 41.1.4 191.4.1 50.2.1 69 39.6 45.9 44.3 51.5 181.1 210.2L1238.3 868l93.9-294.9 22.6-71.1-16.6-14.4zm-47.9 113.7L1210.6 852l-216 234.6-155.8-180.9-44.3-51.5-34.4-39.8-.1-78.4-.1-50.2-.4-191.4v-3.8l296.3-208.7 8.1 7.2 123.7 108.3 32.4 28.5 91.5 80 7.3 6.3-28.5 89.1zm47.9-113.7-91.5-80-32.4-28.5-123.7-108.3-32.5-28.5-.4-.3-19.1 13.5L728 474.3l.1 41.1.4 191.4.1 50.2.1 69 39.6 45.9 44.3 51.5 181.1 210.2L1238.3 868l93.9-294.9 22.6-71.1-16.6-14.4zm-47.9 113.7L1210.6 852l-216 234.6-155.8-180.9-44.3-51.5-34.4-39.8-.1-78.4-.1-50.2-.4-191.4v-3.8l296.3-208.7 8.1 7.2 123.7 108.3 32.4 28.5 91.5 80 7.3 6.3-28.5 89.1zm-280.2 737-4.2 61.2 75.9-51.2-71.7-10zm328.1-850.7-91.5-80-32.4-28.5-123.7-108.3-32.5-28.5-.4-.3-19.1 13.5L728 474.3l.1 41.1.4 191.4.1 50.2.1 69 39.6 45.9 44.3 51.5 181.1 210.2L1238.3 868l93.9-294.9 22.6-71.1-16.6-14.4zm-47.9 113.7L1210.6 852l-216 234.6-155.8-180.9-44.3-51.5-34.4-39.8-.1-78.4-.1-50.2-.4-191.4v-3.8l296.3-208.7 8.1 7.2 123.7 108.3 32.4 28.5 91.5 80 7.3 6.3-28.5 89.1zm47.9-113.7-91.5-80-32.4-28.5-123.7-108.3-32.5-28.5-.4-.3-19.1 13.5L728 474.3l.1 41.1.4 191.4.1 50.2.1 69 39.6 45.9 44.3 51.5 181.1 210.2L1238.3 868l93.9-294.9 22.6-71.1-16.6-14.4zm-47.9 113.7L1210.6 852l-216 234.6-155.8-180.9-44.3-51.5-34.4-39.8-.1-78.4-.1-50.2-.4-191.4v-3.8l296.3-208.7 8.1 7.2 123.7 108.3 32.4 28.5 91.5 80 7.3 6.3-28.5 89.1zm47.9-113.7-91.5-80-32.4-28.5-123.7-108.3-32.5-28.5-.4-.3-19.1 13.5L728 474.3l.1 41.1.4 191.4.1 50.2.1 69 39.6 45.9 44.3 51.5 181.1 210.2L1238.3 868l93.9-294.9 22.6-71.1-16.6-14.4zm-47.9 113.7L1210.6 852l-216 234.6-155.8-180.9-44.3-51.5-34.4-39.8-.1-78.4-.1-50.2-.4-191.4v-3.8l296.3-208.7 8.1 7.2 123.7 108.3 32.4 28.5 91.5 80 7.3 6.3-28.5 89.1z" class="st1"/>
  <path d="m1541.7 1134.4-57.4 14.7-123.6 31.6-127.9 32.7-289.4 73.9 35.9-35.1-229.7-29.9-65.8-8.6-53-6.9-119-15.4-61.7-8 30.6 161.1 8.8 46.9 50.8-7 215.5-29.7 79.4-10.9 35.4-4.9 43.9-6 29.5-4.1-7.6 18.7-11.4 27.9-9.1 22.4-20.5 50.4-55.6 136.6-20.5 50.4-25.3 62.1-20.5 50.4-18 44.2-35.4 87.1-22.4 55.1H960l.3-5.2 2.9-54.3 3.4-61.9 4.1-76.3 3.4-61.9 9.1-167.8 3.4-61.9 1.5-27.6 1.8-34.2 3.4-63 501.4 70.1 43.5 6 7.3-90.9 8.7-109.1 4.1-50.6 1.3-15.7-17.9 4.6zM1186 947.8l-65.2 70.8 57.5 38.9 69.6-68-61.9-41.7zm0 0-65.2 70.8 57.5 38.9 69.6-68-61.9-41.7zM1049 95.7 782.7 290.5l-19.4 14.2-16.1 11.8-33.2 24.3-133.3 97.5 2.5 49.1 2.8 55.3 6 119 6.2 123.2 3.2 63 386.1 396.2 118.7-116 72.1-70.4 69.6-68 32.4-31.6 92.7-90.6 18.7-69.2 10.7-39.6 5.2-19.2 6.3-23 78.4-290.1L1049 95.7zm273.5 559.2-7.2 22.4-5.9 18.7-12.2 38.6-45 141.6-35.8 38.9-30.3 33-65.2 70.8-67.6 73.4-59.8 65-217.1-251.9-63.3-73.5-.3-88.4-.3-115.2-.1-53.6-.3-108.6 91.7-64.5 33.9-23.8 16.4-11.5 19.8-13.9 184.8-130L1372.6 497l-50.1 157.9zM1186 947.8l-65.2 70.8 57.5 38.9 69.6-68-61.9-41.7zm0 0-65.2 70.8 57.5 38.9 69.6-68-61.9-41.7z" class="st2"/>
  <path d="m838 377.8-34 23.8-90-60.8 33.2-24.3zM1402.5 758.7l-10.8 39.5-94.4-63.8 12.2-38.4z" class="st3"/>
  <path d="m712.7 628.3-126.8-85.5-2.8-55.3 129.4 87.3zM1216.5 914.8l63.8 43.2-32.4 31.6-61.9-41.8zM1558.1 1145.5l-4.1 50.6-69.9-47.1 57.6-14.6z" class="st4"/>
  <path d="M776.4 905.4 598.2 785.1l-6.3-123.4L713 743.4l.1 88.5zM1120.8 1018.8l57.5 38.7-72.1 70.4-53-35.8zM1545.3 1305.2l-7.2 90.9-43.4-6-262.1-176.9 127.9-32.7z" class="st5"/>
  <path d="m874.2 352.3-19.8 13.8-91.1-61.4 19.4-14.2zM1413.9 716.5l-6.2 23.1-92.3-62.3 7.1-22.4z" class="st3"/>
  <path d="M430.6 1164.7c4.9 20.1 9.7 40.3 14.3 60.3l6.9 30.3 6.6 30.3 3.4 15.2 3.2 15.2 6.3 30.3 6.3 30.3 6.2 30.4-7.7-5.5c37.2-5.3 74.4-10.4 111.5-15.4 37.2-4.9 74.5-9.5 111.7-14.2l27.9-3.4 27.9-3.2 27.9-3.2 28.1-2.9 28.1-2.9 28.1-2.7c18.7-1.8 37.5-3.5 56.1-4.9-18.5 3.5-36.9 6.7-55.4 10l-27.8 4.6-27.8 4.5-27.8 4.5-27.8 4.2-27.8 4.2-27.8 4.1c-37.2 5.5-74.4 10.7-111.5 15.6-37.2 4.9-74.4 9.8-111.7 14.3l-6.6.8-1.1-6.3-5.5-30.6c-1.8-10.2-3.5-20.3-5.3-30.6l-5.2-30.6-2.5-15.3-2.5-15.3-4.9-30.6-4.8-30.6c-3.4-20-6.4-40.4-9-60.9zM391.6 1127.5c41.1 3.1 82.1 7.6 122.9 12.6 40.8 5.1 81.6 10.7 122.3 16.7s81.4 12.8 121.9 19.9c40.5 7.3 80.9 14.9 121.2 24.1-41.1-3.1-82.1-7.6-122.9-12.6-40.8-5.1-81.6-10.7-122.3-16.8s-81.4-12.8-121.9-19.9c-40.4-7.2-81-14.7-121.2-24zM759.3 490.6c1.5 26.9 2.7 54 3.6 80.9.6 13.5.8 26.9 1.3 40.5.4 13.5.7 26.9 1 40.5.7 26.9 1.1 54 1.5 80.9.1 13.5.3 26.9.4 40.5.1 13.5.1 26.9.3 40.5l-1.8-4.8c19.6 22.6 39 45.3 58.5 68.2 19.4 22.9 38.7 45.7 57.8 68.7l28.6 34.7 28.3 34.8c18.8 23.3 37.6 46.7 55.7 70.6-20.9-21.6-41.1-43.6-61.4-65.5L902.8 988l-30-33.4c-20.1-22.3-39.8-44.8-59.5-67.2-19.6-22.6-39.3-45.2-58.8-67.9l-1.8-2.1v-43.2c0-13.5.1-26.9.3-40.5.1-26.9.6-54 1.1-80.9.3-13.5.4-26.9.8-40.5.4-13.5.7-26.9 1.1-40.5.9-27.3 1.9-54.3 3.3-81.2z" class="st6"/>
  <path d="M881.5 1389.4c-35.6 6.3-71.3 11.8-107 17.3l-26.8 3.9c-9 1.4-17.8 2.7-26.8 3.9l-53.6 7.6c-35.8 4.9-71.5 9.7-107.5 14.3l-53.7 6.7-53.7 6.5-6.7.8-1.3-6.7c-4.9-26.2-9.7-52.6-14.3-78.8-4.8-26.2-9.1-52.6-13.6-79-2.2-13.2-4.3-26.4-6.6-39.6-2.1-13.2-4.3-26.4-6.3-39.6-2.1-13.2-4.2-26.4-6-39.6-2-13.2-3.9-26.4-5.8-39.7 3.2 13 6.2 26 9.3 39 3.1 13 5.9 26.1 8.8 39.1 2.9 13 5.8 26.1 8.6 39.1s5.8 26.1 8.4 39.1c5.5 26.1 10.9 52.3 16.3 78.4 5.3 26.2 10.5 52.3 15.6 78.6l-8-5.9 53.7-6.7 53.7-6.5c35.9-4.2 71.7-8.3 107.6-12.2l53.9-5.6c9-1 18-1.8 26.9-2.7l26.9-2.7c36-3.1 71.9-6.5 108-9z" class="st7"/>
  <path d="M1101.4 1198.2c42.1-12.6 84.2-24.6 126.5-36.5l31.7-8.8c10.5-2.9 21.2-5.9 31.7-8.7l63.6-17.3c42.4-11.2 84.7-22.6 127.2-33.5l63.7-16.4 63.8-16.1 9.8-2.5-.8 10.1c-2.7 31.8-5.5 63.7-8.4 95.5-2.8 31.8-5.9 63.7-8.8 95.4-1.5 15.9-3.2 31.8-4.8 47.7-1.5 15.9-3.2 31.8-4.9 47.7s-3.4 31.8-5.2 47.7c-1.8 15.9-3.6 31.7-5.6 47.7.6-16 1.3-32 2.1-48 .7-16 1.5-32 2.4-47.8.8-16 1.7-32 2.7-47.8 1-16 1.8-31.8 2.8-47.8 2.1-31.8 4.1-63.8 6.3-95.7 2.2-31.8 4.5-63.8 6.9-95.7l9 7.6-63.7 16.4-63.8 16.1c-42.5 10.8-85.2 21-127.7 31.6l-64 15.3c-10.7 2.5-21.3 5.1-32 7.6l-32 7.4c-42.8 10-85.4 19.8-128.5 28.8zM1049.2 37.3c42.5 29.5 84.5 59.5 126.5 89.5l62.8 45.3 62.7 45.6 62.4 45.9c20.8 15.3 41.7 30.6 62.3 46 41.5 30.7 83.1 61.4 124.3 92.6l3.9 2.9-1.3 4.8-16.6 60.5-16.8 60.5-16.8 60.5-17.1 60.3-8.6 30.2-8.7 30.2c-5.9 20.1-11.5 40.1-17.5 60.2-11.8 40.1-23.7 80.2-35.9 120.2 9.5-40.7 19.5-81.4 29.6-121.9 4.9-20.3 10.1-40.5 15.3-60.9l7.7-30.4 7.9-30.3 15.6-60.7 15.9-60.6 16-60.6 16.3-60.6 2.7 7.7c-41.5-30.7-82.8-61.7-124.2-92.7-20.6-15.4-41.2-31-61.9-46.7l-61.7-46.9-61.6-47.1-61.3-47.3c-40.8-32.1-81.6-63.9-121.9-96.2zM1145.2 1367.9c20.9 48.7 41.2 97.6 61.3 146.6l15 36.8 14.9 36.9c10 24.6 19.8 49.1 29.6 73.8l29.3 73.9 28.9 74.1c9.7 24.7 19.2 49.4 28.6 74.1 9.4 24.7 19.1 49.4 28.5 74.2l3.5 9.3-9.8.3-94.1 2.2c-31.4.6-62.7 1.3-94.1 1.7-31.4.4-62.7 1-94.1 1.1-15.7.1-31.4.3-47.1.3-15.7.1-31.4 0-47.1 0 15.7-1.1 31.3-2.1 47-3.1s31.3-2 47-2.8c31.3-1.8 62.7-3.5 94-5.1 31.3-1.5 62.7-2.9 94-4.5l94-3.9-6.3 9.5c-9.8-24.7-19.4-49.4-28.9-73.9-9.7-24.7-19.4-49.4-28.8-74.1l-28.5-74.2-28.1-74.4c-9.4-24.7-18.7-49.7-27.8-74.5l-13.9-37.3-13.6-37.3c-18.2-49.6-36.1-99.4-53.4-149.7z" class="st6"/>
  <path d="m993.3 1320-8.2 671.8 414.2-9.4-204-565.6" class="st0"/>
  <path d="M987.5 1243.9c-33.5-31.7-66.5-64-99.5-96.2-16.4-16.3-33-32.3-49.2-48.5l-49-48.8c-32.4-32.7-65.1-65.4-97.2-98.3l-48.4-49.4-48.1-49.7-2-2-.1-2.7c-.8-17.1-1.7-34.1-2.4-51.2l-2.1-51.2c-1.5-34.1-2.7-68.3-3.9-102.6-.7-17.1-1.1-34.2-1.7-51.2-.6-17.1-1.1-34.2-1.4-51.2-.4-17.1-.8-34.2-1.1-51.3-.4-17.1-.7-34.2-.8-51.3 1.5 17 2.9 34.1 4.3 51.1s2.7 34.1 3.9 51.2c1.4 17.1 2.5 34.1 3.8 51.2 1.1 17.1 2.5 34.1 3.5 51.2 2.2 34.1 4.5 68.2 6.5 102.4l3.1 51.2c1 17.1 1.8 34.1 2.8 51.2l-2.1-4.6 48.4 49.4 48.1 49.7c32.1 33 64 66.4 95.8 99.6l47.6 50.2c15.9 16.7 31.6 33.7 47.4 50.4 31.7 33.3 63 67.1 93.8 101.4z" class="st6"/>
  <path d="m1145.2 1367.9 229.5 592.9-376.2 12.4 2.6-653.2" class="st1"/>
  <path d="m987.8 1327.7 29.5 619.2 307.3-16.4-209.3-591.6" class="st0"/>
  <path d="M1580.9 1450.3c-45.2-3.2-90.2-7.9-135.1-13-44.9-5.2-89.8-10.9-134.5-17.1-44.8-6.2-89.5-13-134.1-20.3-44.6-7.4-89.1-15.2-133.4-24.6 45.2 3.2 90.2 7.9 135.1 12.9 44.9 5.2 89.8 10.9 134.5 17.1 44.8 6.3 89.5 13 134.1 20.3 44.5 7.6 89.1 15.4 133.4 24.7z" class="st7"/>
  <path d="m1307.4 1915.4-62.9 4-107.4 7.2-87.3 5.7-23.1 1.6-.7-17.6-2.9-65.9-3.5-81.4-2.6-65.9-7.6-178.9-2.8-66-1.1-29.4-1.6-36.4-2.8-64.7 98.9 8.5 56.7 158.4 16.7 46.6 13.5 37.6 30.1 84.3 81.8 228.5z" class="st2"/>
  <path d="M630.6 1206.6 835 1343.4l-79.4 10.9-243.9-163.1zM915.8 1397.4l70.7 47.3-3.3 61.9-87.9-58.8zM1217 1663.1l-207.6-138.9-2.8-66 180.3 120.6z" class="st3"/>
  <path d="m480.5 1344.1 59.6 40-50.7 6.9zM839.8 1584.6l134.2 89.7-3.3 61.9-151.4-101.3zM1307.4 1915.4l-62.9 4-224.9-150.4-2.6-65.9 281.8 188.5z" class="st4"/>
  <path d="m793.9 1697.1 172.7 115.4-3.4 61.9-189.8-127zM1137.1 1926.6l-87.3 5.7-23.8-16-2.9-65.9z" class="st8"/>
  <path d="m960.3 1928.7-.3 5.3-157.5-.1-82.4-55.2 35.4-87.1z" class="st5"/>
  <path d="m1173.4 1541.2-167.9-112.4-17.6-11.6-63-42.2-54.5-36.5-186.8-124.9 65.8 8.6 165 110.3 21.9 14.5 53.6 36 14 9.4 152.8 102.2z" class="st3"/>
  <path d="M1374.7 1960.8c-15.7 1.1-31.3 2.1-47 3.1s-31.3 2-47 2.8l-47 2.7-47 2.4c-15.7.8-31.3 1.5-47 2.2l-47 2.2-94 3.9-7.2.3v-7.3l-.1-20.5v-61.3c.1-27.2 0-54.4.3-81.6l.6-81.6c.1-27.2.6-54.4 1-81.6l.6-40.8.7-40.8.7-40.8 1-40.8c1.3-54.4 2.8-108.9 4.9-163.3 1.8 54.4 2.8 108.9 3.6 163.3l.6 40.8.4 40.8.4 40.8.1 40.8c.1 27.2.3 54.4.3 81.6l-.1 81.6c0 27.2-.3 54.4-.4 81.6l-.3 40.8-.1 20.5-.3 20.5-7.2-7 94.1-2.2 47-1c15.7-.3 31.4-.7 47-.8l47-.7 47-.4c15.7-.1 31.4-.3 47.1-.3 15.9 0 31.6 0 47.3.1z" class="st7"/>
  <path d="M1307.4 1915.4c-23.3 2.5-46.7 4.9-70 7.2-23.3 2.2-46.7 4.5-70 6.5l-35.1 3.1-35.1 2.9c-23.4 2-46.7 3.8-70.1 5.6l-6.6.4-.4-6.7c-2.7-50.5-5.2-101-7.3-151.5-2.1-50.5-4.2-101-5.8-151.5-.8-25.3-1.7-50.5-2.4-75.8-.7-25.3-1.4-50.5-1.8-75.8l-.7-37.9-.6-37.9c-.3-25.3-.6-50.6-.6-75.9 2.1 25.3 4.1 50.4 5.9 75.6l2.7 37.9 2.4 37.9c1.7 25.3 3.1 50.5 4.5 75.8 1.5 25.3 2.7 50.5 4.1 75.8 2.7 50.5 4.9 101 7 151.5 2.1 50.5 3.9 101 5.5 151.5l-6.9-6.2c23.4-1.4 46.9-2.5 70.3-3.8l35.1-1.8 35.1-1.5c23.4-1.1 46.9-2 70.3-2.8 23.5-1.4 46.9-2.2 70.5-2.6zM1252.2 876.1c8.6-32.1 17.7-64 26.8-95.8 9.3-31.8 18.5-63.7 28.1-95.4 9.4-31.8 19.2-63.4 28.9-95.1 9.7-31.7 19.6-63.3 29.7-95l2.2 7.9c-26.2-22.9-52.2-45.9-78.3-68.9l-38.9-34.8-19.5-17.4L1212 364l-38.6-35.1-38.4-35.2c-25.5-23.7-50.9-47.3-76-71.4 27.2 21.6 54 43.8 80.9 65.9l40 33.4 39.8 33.7 19.9 16.8 19.8 17L1299 423c26.2 22.7 52.5 45.6 78.7 68.5l3.6 3.2-1.4 4.6c-10.1 31.6-20.2 63.1-30.6 94.7-10.4 31.4-20.6 63-31.3 94.4-10.5 31.4-21.3 62.8-32.1 94.1-11.2 31.2-22.2 62.5-33.7 93.6z" class="st6"/>
  <path d="m571.7 570.6 2.4 48.6-30.3 20.4-2.5-48.6z" style="fill:#d6b838"/>
  <path d="m1233.4 174.7-27.6 18.5-35.3-26.4 27.4-18.5z" class="st3"/>
  <path d="m583.5 804.6 2.4 48.6-27.1 18.4-3.5-3.5-2.1-43.1z" class="st10"/>
  <path d="m759.8 736-31.3 21v-50.2l31.2-21.1z" class="st3"/>
  <path d="m1214.4 379.2 32.5 28.3-26.9 18.1-32.4-28.3z" class="st10"/>
  <path d="m1403.8 301.8-27.5 18.5-35.4-26.4 27.5-18.5z" class="st3"/>
  <path d="m937.9 1215.3 19.6 20.2-41.4-5.6zM1409.9 897l-166.2 162.5-144.8 97.5 166.4-162.5z" class="st10"/>
  <path d="m668.5 939.2 47.8 49.1L690 1006l-47.9-49z" class="st11"/>
  <path d="m838.8 905.7-26.2 17.7-44.4-51.5 26.3-17.7z" class="st3"/>
  <path d="m1338.2 487.6 16.4 14.3-22.5 71.2-41.8 28.2 28.3-89.3-7.2-6.3z" class="st11"/>
  <path d="m1546 407.8-6.9 25.8-39.7 26.7 10.8-40.1-34.2-25.6 27.5-18.5z" style="fill:#fbe794"/>
  <path d="m824.4 1522 38.5-26-46 112.4-42.1 28.3z" class="st11"/>
  <path d="M985 1978.6c-29.6.6-59.1.8-88.7 1l-44.3.1h-44.3c-14.7 0-29.6-.1-44.3-.1l-44.3-.3c-14.7 0-29.6-.3-44.3-.4l-44.3-.6-10.1-.1 3.9-9.4c10.2-24.4 20.6-48.7 31-73l15.6-36.5c5.2-12.2 10.4-24.3 15.7-36.3l31.6-72.7c5.2-12.1 10.5-24.3 15.9-36.3l16-36.2 16-36.2 16.1-36.2 16.1-36.2 16.4-36.1c21.9-48.1 43.9-96.1 66.8-143.8-19.1 49.2-38.7 98.3-58.8 147.2l-15 36.6-15.2 36.6-15.2 36.6-15.3 36.5-15.4 36.5c-5.1 12.2-10.2 24.4-15.4 36.5l-31.1 72.8c-5.2 12.2-10.4 24.3-15.7 36.3l-15.9 36.3c-10.5 24.3-21 48.4-31.7 72.5l-6.2-9.5 44.3 1.3c14.7.4 29.6.8 44.3 1.4l44.3 1.5c14.7.6 29.5 1 44.3 1.7l44.3 1.8 44.3 2c29.5 1.5 59 3 88.6 4.7z" class="st7"/>
  <path d="m1181.8 1362.3-39.5 26.7-98.5-13.6-8.3 85.7-35.5 23.9 5.9-85.5 75.9-51.1z" class="st11"/>
  <path d="M1552.3 1414.2c1-25.5 2.1-50.9 3.5-76.5l2-38.2 2.2-38.2c1.4-25.5 3.1-50.9 4.8-76.3 1.5-25.4 3.4-50.9 5.2-76.3l8.3 7c-48.3 12.9-96.7 25.4-145.1 37.7s-96.8 24.6-145.3 36.3l-36.3 9-36.5 8.7c-24.3 5.8-48.5 11.6-73 17.3l-36.5 8.4-36.5 8.3c-24.4 5.5-48.8 10.8-73.2 16 24-7.2 48-14.2 72-21l36.1-10.2 36.1-10.1c24-6.7 48.1-13.3 72.2-19.8l36.2-9.8 36.2-9.5c48.3-12.9 96.7-25.4 144.9-37.9 48.4-12.3 96.8-24.6 145.3-36.3l9.1-2.2-.8 9.3c-2.2 25.4-4.5 50.8-7 76.2-2.4 25.4-4.8 50.8-7.4 76.2l-3.8 38-4.1 38c-2.6 25.2-5.5 50.6-8.6 75.9zM880.1 1200.9l-41.5-40.7-41.4-40.8c-27.5-27.4-55-54.6-82.3-82.1-27.4-27.4-54.9-54.7-82.1-82.3l-81.9-82.5-1.7-1.7-.1-2.4-6.3-113.2-3.1-56.5-2.9-56.5c-2-37.7-4.1-75.5-5.9-113.2l-5.5-113.2-.1-3.9 3.1-2.2 32.4-23.6 32.4-23.4 64.8-46.9 32.4-23.4 32.5-23.3 65-46.7L853 176l32.5-23.3 32.7-23.1c21.7-15.4 43.5-30.9 65.4-46.2 21.7-15.4 43.8-30.6 65.7-45.9-21.2 16.3-42.4 32.5-63.6 48.7s-42.5 32.3-63.8 48.4l-32 24.1-32 24-63.8 48-64.1 47.8-32.1 23.8-32.3 23.7-64.4 47.6-32.2 23.8-32.3 23.7 2.9-6.2 5.9 113.2c2 37.7 3.8 75.5 5.6 113.2l2.8 56.5 2.7 56.5 5.1 113.2-1.8-4.1 80.5 83.9c26.8 27.9 53.4 56.1 80.2 84.2 26.8 28.1 53.3 56.3 80 84.5l39.8 42.4 39.7 42.5z" class="st7"/>
  <path d="m994.5 1086.5 26.2-30 26.4-29.9c17.5-19.9 35.2-39.7 52.9-59.6 17.7-19.9 35.5-39.6 53.2-59.5l26.7-29.7 26.7-29.6-1.1 2.1 26.2-85.2 26.5-85.2 13.3-42.5 13.5-42.5 26.8-85 2.1 7.7c-22-19.1-43.8-38.4-65.7-57.7l-65.7-57.7-65.4-57.9c-21.7-19.4-43.6-38.6-65.2-58.1l7.3.4-74.6 51.3-74.8 51.1-75.2 50.9-37.6 25.4-37.7 25.1 36.3-27.1 36.5-26.9 73.2-53.4 73.4-53.2 73.7-52.9 3.8-2.7 3.6 3.1c22.2 18.9 44.2 38 66.2 57.1l66.1 57.1 65.8 57.4c21.9 19.2 43.9 38.2 65.8 57.5l3.6 3.2-1.4 4.6-27.2 84.9-13.6 42.5-13.7 42.4-27.5 84.9-27.8 84.7-.4 1.3-.8.8-27.4 29-27.4 28.9c-18.2 19.2-36.5 38.7-54.9 57.8-18.4 19.2-36.6 38.6-55.1 57.7l-27.6 28.8-28 28.6z" class="st7"/>
  <path d="M960 1934c-10.9.4-21.9.8-32.8 1.3l-32.8 1c-21.9.6-43.8 1.3-65.5 1.7-21.9.4-43.8 1-65.5 1.3l-65.5 1-9.3.1 3.5-8.7 30-75.9 30.4-75.8 15.3-37.9 15.6-37.7c10.4-25.3 20.6-50.4 31.1-75.5l15.7-37.7c5.2-12.6 10.5-25.1 15.9-37.7l16-37.6c5.3-12.5 10.7-25.1 16.1-37.6l16.1-37.5 16.4-37.5c10.9-25 22-49.8 33.4-74.6-9.3 25.7-18.7 51.2-28.2 76.7l-14.4 38.3-14.6 38.2c-4.8 12.8-9.8 25.4-14.7 38.2l-14.9 38c-4.9 12.8-10 25.4-15 38l-15 38c-10 25.4-20.2 50.5-30.4 75.9l-15.3 37.9-15.4 37.9-31 75.6-31.4 75.3-5.8-8.6 65.5 1c21.9.3 43.8.8 65.5 1.3 21.9.4 43.8 1.1 65.5 1.7l32.8 1.1c10.8-.2 21.8.3 32.7.8z" class="st6"/>
  <path d="m1281.8 1245.5-77 186-186 77-186-77-77-186 77-186 186-77.1 186 77.1z" class="st0"/>
  <path d="m840.4 1423.9-73.8-178.4 73.8-178.5 178.4-73.8 178.4 73.8 74 178.5-74 178.4-178.4 74z" class="st1"/>
  <path d="M860.6 1403.7 795 1245.5l65.6-158.3 158.2-65.5 158.2 65.5 65.6 158.3-65.6 158.2-158.2 65.5z" class="st0"/>
  <path d="m1227.8 1245.5-61.1 147.8-147.9 61.2-147.7-61.2-61.3-147.8 61.3-147.7 147.7-61.4 147.9 61.4z" style="fill:#e74d56;stroke:#8d181b;stroke-width:7.9736;stroke-miterlimit:10"/>
  <linearGradient id="SVGID_1_" x1="900.395" x2="1137.202" y1="754.522" y2="754.522" gradientTransform="matrix(1 0 0 -1 0 2000)" gradientUnits="userSpaceOnUse">
    <stop offset="0" style="stop-color:#eb3c57"/>
    <stop offset=".359" style="stop-color:#e63d55"/>
    <stop offset=".802" style="stop-color:#dd3d50"/>
    <stop offset="1" style="stop-color:#d83d4c"/>
  </linearGradient>
  <path d="m935 1329.2-34.6-83.7 34.6-83.6 83.8-34.8 83.8 34.8 34.6 83.6-34.6 83.7-83.8 34.7z" style="fill:url(#SVGID_1_)"/>
  <path d="M813 1245.5h87.4l34.6 83.7-60.1 60.2z" style="fill:#ba2026"/>
  <path d="m1102.6 1161.9 59.3-59.5 59.5 143.1h-84.2z" style="fill:#f0566f"/>
  <path d="M1018.8 1127.1v-84.3l143.1 59.6-59.3 59.5z" style="fill:#f3839c"/>
  <path d="M813 1245.5h87.4l34.6-83.6-62.5-59.5z" style="fill:#e22437"/>
  <path d="M1018.8 1127.1c7.2 2.5 14.2 5.2 21.3 7.7 7 2.7 14.2 5.3 21.2 8.1 7 2.7 14 5.6 21 8.4l20.9 8.6.7.3.3.7 8.6 20.9 8.4 21c2.8 7 5.5 14 8.1 21.2 2.7 7 5.3 14.2 7.7 21.3-3.4-6.9-6.5-13.7-9.5-20.6-3.1-6.9-6.2-13.7-9.3-20.8-3.1-6.9-6-13.9-9-20.8l-8.7-20.9 1.1 1.1-20.9-8.8c-6.9-2.9-13.9-5.9-20.8-9-6.9-2.9-13.9-6-20.8-9.3-6.6-2.7-13.4-5.8-20.3-9.1z" style="fill:#f9c6d2"/>
  <path d="M1018.8 1363.9c-7.2-2.5-14.2-5.2-21.3-7.7-7-2.7-14.2-5.3-21.2-8.1-7-2.7-14-5.6-21-8.4l-20.9-8.6-.7-.3-.3-.7-8.6-20.9-8.4-21c-2.8-7-5.5-14-8.1-21.2-2.7-7-5.3-14.2-7.7-21.3 3.4 6.9 6.5 13.7 9.5 20.6 3.1 6.9 6.2 13.7 9.3 20.8 3.1 6.9 6 13.9 9 20.8l8.7 20.9-1.1-1.1 20.9 8.8c6.9 2.9 13.9 5.9 20.8 9 6.9 2.9 13.9 6 20.8 9.3 6.7 2.6 13.6 5.9 20.3 9.1z" style="fill:#f05682"/>
  <path d="M1018.8 993.2c15.2 5.3 30.3 10.9 45.3 16.6l22.6 8.6 22.6 8.7c15 5.8 30 11.6 45 17.5l22.4 8.8 22.4 9 2 .8.8 2c6.3 14.9 12.6 29.6 18.8 44.5l18.7 44.5 18.4 44.6c6.2 14.9 12.1 29.9 18.1 44.8l.8 2.1-.8 2c-6.3 14.9-12.6 29.6-19.1 44.3-6.5 14.7-12.9 29.5-19.4 44.2l-9.8 22-10 22c-6.7 14.6-13.5 29.3-20.3 43.8 5.3-15.2 10.9-30.3 16.6-45.5l8.6-22.6 8.7-22.6c5.8-15 11.6-30 17.5-45s11.8-29.9 17.8-44.9v3.9c-6.3-14.7-12.6-29.6-18.8-44.5l-18.7-44.5-18.4-44.6c-6.2-14.9-12.1-29.9-18.1-44.8l2.8 2.8-22.2-9.5-22.2-9.7c-14.7-6.5-29.5-12.9-44.2-19.4l-22-9.8-22-10c-14.7-6.5-29.3-13.2-43.9-20.1z" class="st6"/>
</svg>
