<svg xmlns="http://www.w3.org/2000/svg" xml:space="preserve" id="Layer_1" x="0" y="0" style="enable-background:new 0 0 2000 2000" version="1.1" viewBox="0 0 2000 2000">
  <style>
    .st0{fill:#85a0bf}.st1{fill:#bfbbba}.st3{fill:#d4d7d8}.st4{fill:#e5e5e5}.st5{fill:#6586a0}.st7{fill:#929293}.st8{fill:#e2e2e2}.st11{fill:#f9f9fa}
  </style>
  <path d="m782.4 807.1-.7-303.7 272.5-191.7 238.5 208.8-102 321-195.5 212.3-212.8-246.7zm818.1 669.2 34.9-436.7-459.2 117.3 258.3-252.3 136.4-504.1-521.6-389.1-539.2 394.4 24 472.6 291.1 298.5-460.6-75 69.2 365.3 418.2-48.5-255.6 570.2 388.7 2.8 82.6-589.6 532.8 74.2z" class="st0"/>
  <path d="m1338 488.9-91.4-79.9-32.4-28.5-123.6-108.2-32.5-28.5-.4-.3-19.1 13.5-310.4 218.6.1 41.1.4 191.2.1 50.2.1 69 39.5 45.8 44.3 51.4 180.9 210L1237.9 869l93.8-294.6 22.6-71.1-16.3-14.4zm-48.1 113.5-79.6 250.3L994.5 1087 838.9 906.4l-44.3-51.3-34.3-39.8-.1-78.3-.1-50.2-.4-191.2v-3.8l296.2-208.6 8.1 7.1 123.6 108.2L1220 427l91.4 79.9 7.3 6.3-28.8 89.2zM1010 1338.8l-4.2 61.1 75.8-51.2-71.6-9.9zm-72.2-122.9L716.5 989.1l-26.3 17.8L880 1201.6l-391.2-58.9-37.4 25.2 464.9 62.5 41.2 5.6-19.7-20.1zm400.2-727-91.4-79.9-32.4-28.5-123.6-108.2-32.5-28.5-.4-.3-19.1 13.5-310.4 218.6.1 41.1.4 191.2.1 50.2.1 69 39.5 45.8 44.3 51.4 180.9 210L1237.9 869l93.8-294.6 22.6-71.1-16.3-14.4zm-48.1 113.5-79.6 250.3L994.5 1087 838.9 906.4l-44.3-51.3-34.3-39.8-.1-78.3-.1-50.2-.4-191.2v-3.8l296.2-208.6 8.1 7.1 123.6 108.2L1220 427l91.4 79.9 7.3 6.3-28.8 89.2zm48.1-113.5-91.4-79.9-32.4-28.5-123.6-108.2-32.5-28.5-.4-.3-19.1 13.5-310.4 218.6.1 41.1.4 191.2.1 50.2.1 69 39.5 45.8 44.3 51.4 180.9 210L1237.9 869l93.8-294.6 22.6-71.1-16.3-14.4zm-48.1 113.5-79.6 250.3L994.5 1087 838.9 906.4l-44.3-51.3-34.3-39.8-.1-78.3-.1-50.2-.4-191.2v-3.8l296.2-208.6 8.1 7.1 123.6 108.2L1220 427l91.4 79.9 7.3 6.3-28.8 89.2zM1010 1338.8l-4.2 61.1 75.8-51.2-71.6-9.9zm328-849.9-91.4-79.9-32.4-28.5-123.6-108.2-32.5-28.5-.4-.3-19.1 13.5-310.4 218.6.1 41.1.4 191.2.1 50.2.1 69 39.5 45.8 44.3 51.4 180.9 210L1237.9 869l93.8-294.6 22.6-71.1-16.3-14.4zm-48.1 113.5-79.6 250.3L994.5 1087 838.9 906.4l-44.3-51.3-34.3-39.8-.1-78.3-.1-50.2-.4-191.2v-3.8l296.2-208.6 8.1 7.1 123.6 108.2L1220 427l91.4 79.9 7.3 6.3-28.8 89.2zm48.1-113.5-91.4-79.9-32.4-28.5-123.6-108.2-32.5-28.5-.4-.3-19.1 13.5-310.4 218.6.1 41.1.4 191.2.1 50.2.1 69 39.5 45.8 44.3 51.4 180.9 210L1237.9 869l93.8-294.6 22.6-71.1-16.3-14.4zm-48.1 113.5-79.6 250.3L994.5 1087 838.9 906.4l-44.3-51.3-34.3-39.8-.1-78.3-.1-50.2-.4-191.2v-3.8l296.2-208.6 8.1 7.1 123.6 108.2L1220 427l91.4 79.9 7.3 6.3-28.8 89.2zM1010 1338.8l-4.2 61.1 75.8-51.2-71.6-9.9zm328-849.9-91.4-79.9-32.4-28.5-123.6-108.2-32.5-28.5-.4-.3-19.1 13.5-310.4 218.6.1 41.1.4 191.2.1 50.2.1 69 39.5 45.8 44.3 51.4 180.9 210L1237.9 869l93.8-294.6 22.6-71.1-16.3-14.4zm-48.1 113.5-79.6 250.3L994.5 1087 838.9 906.4l-44.3-51.3-34.3-39.8-.1-78.3-.1-50.2-.4-191.2v-3.8l296.2-208.6 8.1 7.1 123.6 108.2L1220 427l91.4 79.9 7.3 6.3-28.8 89.2zm48.1-113.5-91.4-79.9-32.4-28.5-123.6-108.2-32.5-28.5-.4-.3-19.1 13.5-310.4 218.6.1 41.1.4 191.2.1 50.2.1 69 39.5 45.8 44.3 51.4 180.9 210L1237.9 869l93.8-294.6 22.6-71.1-16.3-14.4zm-48.1 113.5-79.6 250.3L994.5 1087 838.9 906.4l-44.3-51.3-34.3-39.8-.1-78.3-.1-50.2-.4-191.2v-3.8l296.2-208.6 8.1 7.1 123.6 108.2L1220 427l91.4 79.9 7.3 6.3-28.8 89.2zM1010 1338.8l-4.2 61.1 75.8-51.2-71.6-9.9zm328-849.9-91.4-79.9-32.4-28.5-123.6-108.2-32.5-28.5-.4-.3-19.1 13.5-310.4 218.6.1 41.1.4 191.2.1 50.2.1 69 39.5 45.8 44.3 51.4 180.9 210L1237.9 869l93.8-294.6 22.6-71.1-16.3-14.4zm-48.1 113.5-79.6 250.3L994.5 1087 838.9 906.4l-44.3-51.3-34.3-39.8-.1-78.3-.1-50.2-.4-191.2v-3.8l296.2-208.6 8.1 7.1 123.6 108.2L1220 427l91.4 79.9 7.3 6.3-28.8 89.2zm48.1-113.5-91.4-79.9-32.4-28.5-123.6-108.2-32.5-28.5-.4-.3-19.1 13.5-310.4 218.6.1 41.1.4 191.2.1 50.2.1 69 39.5 45.8 44.3 51.4 180.9 210L1237.9 869l93.8-294.6 22.6-71.1-16.3-14.4zm-48.1 113.5-79.6 250.3L994.5 1087 838.9 906.4l-44.3-51.3-34.3-39.8-.1-78.3-.1-50.2-.4-191.2v-3.8l296.2-208.6 8.1 7.1 123.6 108.2L1220 427l91.4 79.9 7.3 6.3-28.8 89.2zM1010 1338.8l-4.2 61.1 75.8-51.2-71.6-9.9zm328-849.9-91.4-79.9-32.4-28.5-123.6-108.2-32.5-28.5-.4-.3-19.1 13.5-310.4 218.6.1 41.1.4 191.2.1 50.2.1 69 39.5 45.8 44.3 51.4 180.9 210L1237.9 869l93.8-294.6 22.6-71.1-16.3-14.4zm-48.1 113.5-79.6 250.3L994.5 1087 838.9 906.4l-44.3-51.3-34.3-39.8-.1-78.3-.1-50.2-.4-191.2v-3.8l296.2-208.6 8.1 7.1 123.6 108.2L1220 427l91.4 79.9 7.3 6.3-28.8 89.2zm48.1-113.5-91.4-79.9-32.4-28.5-123.6-108.2-32.5-28.5-.4-.3-19.1 13.5-310.4 218.6.1 41.1.4 191.2.1 50.2.1 69 39.5 45.8 44.3 51.4 180.9 210L1237.9 869l93.8-294.6 22.6-71.1-16.3-14.4zm-48.1 113.5-79.6 250.3L994.5 1087 838.9 906.4l-44.3-51.3-34.3-39.8-.1-78.3-.1-50.2-.4-191.2v-3.8l296.2-208.6 8.1 7.1 123.6 108.2L1220 427l91.4 79.9 7.3 6.3-28.8 89.2zm48.1-113.5-91.4-79.9-32.4-28.5-123.6-108.2-32.5-28.5-.4-.3-19.1 13.5-310.4 218.6.1 41.1.4 191.2.1 50.2.1 69 39.5 45.8 44.3 51.4 180.9 210L1237.9 869l93.8-294.6 22.6-71.1-16.3-14.4zm-48.1 113.5-79.6 250.3L994.5 1087 838.9 906.4l-44.3-51.3-34.3-39.8-.1-78.3-.1-50.2-.4-191.2v-3.8l296.2-208.6 8.1 7.1 123.6 108.2L1220 427l91.4 79.9 7.3 6.3-28.8 89.2zm48.1-113.5-91.4-79.9-32.4-28.5-123.6-108.2-32.5-28.5-.4-.3-19.1 13.5-310.4 218.6.1 41.1.4 191.2.1 50.2.1 69 39.5 45.8 44.3 51.4 180.9 210L1237.9 869l93.8-294.6 22.6-71.1-16.3-14.4zm-48.1 113.5-79.6 250.3L994.5 1087 838.9 906.4l-44.3-51.3-34.3-39.8-.1-78.3-.1-50.2-.4-191.2v-3.8l296.2-208.6 8.1 7.1 123.6 108.2L1220 427l91.4 79.9 7.3 6.3-28.8 89.2zm137.9 513.2-326.4 83.4 142-138.8 166.2-162.3 5-4.9 123.9-458 7-25.6-42.5-31.7-99.7-74.3L1368 277l-134.8-100.6-35.5-26.3-148.6-111-516.3 377.6 8.8 175.5 2.5 48.6 9.4 185.3 2.2 43 3.4 3.5 83.3 85.4 47.8 49.1L880 1201.8l-391.2-59-96.6-14.4 13.5 70.6 46.3 244 183-22.6 91.2-11.2 155.6-19.2-57.2 132.4-49.5 114.6-144.2 334.3 354 7.3 50.5-517.2 8.4-85.6 98.3 13.7 438.3 61.1 30-377 .4-4.9-183 46.9zm124.1 299.1-370.3-51.7-99.8-14-71.6-10-4.2 61.1-5.9 85.2-31.7 463.5-289.4-2 138.2-338.2 45.8-112.3 60.1-147.2-135.1 18-92.9 12.3-217.9 29-43.4-228.7-2.8-14.6 20.3 2.7 464.9 62.5 41.2 5.6-19.6-20.2-221.3-226.6-47.8-49.1-82.4-84.5v-1.4l-2.5-48.6-9.4-185.1-2.5-48.6-7.2-139.8 484.1-354 121.2 90.4 35.5 26.3 134.8 100.6 35.5 26.3 99.7 74.3 34.2 25.5-10.8 40.1-112.3 414.9L1265 995.3l-166.2 162.3L996 1258l354.7-90.5 194.1-49.6 31.3-8-24.2 304.8zm-220.1-840.4 22.6-71.1-16.4-14.4-91.4-79.9-32.4-28.5-123.6-108.2-32.5-28.5-.4-.3-19.1 13.5-310.4 218.7.1 41.1.4 191.2.1 50.2.1 69 39.5 45.8 44.3 51.4 180.9 210L1237.9 869l93.9-294.7zm-337.3 512.9L838.9 906.6l-44.3-51.4-34.3-39.8-.1-78.3-.1-50.2-.4-191.2v-3.8l296.2-208.6 8.1 7.1 123.6 108.2 32.4 28.5 91.4 79.9 7.3 6.3-28.3 89.1-79.6 250.3-216.3 234.5zM1338 488.9l-91.4-79.9-32.4-28.5-123.6-108.2-32.5-28.5-.4-.3-19.1 13.5-310.4 218.6.1 41.1.4 191.2.1 50.2.1 69 39.5 45.8 44.3 51.4 180.9 210L1237.9 869l93.8-294.6 22.6-71.1-16.3-14.4zm-48.1 113.5-79.6 250.3L994.5 1087 838.9 906.4l-44.3-51.3-34.3-39.8-.1-78.3-.1-50.2-.4-191.2v-3.8l296.2-208.6 8.1 7.1 123.6 108.2L1220 427l91.4 79.9 7.3 6.3-28.8 89.2zm48.1-113.5-91.4-79.9-32.4-28.5-123.6-108.2-32.5-28.5-.4-.3-19.1 13.5-310.4 218.6.1 41.1.4 191.2.1 50.2.1 69 39.5 45.8 44.3 51.4 180.9 210L1237.9 869l93.8-294.6 22.6-71.1-16.3-14.4zm-48.1 113.5-79.6 250.3L994.5 1087 838.9 906.4l-44.3-51.3-34.3-39.8-.1-78.3-.1-50.2-.4-191.2v-3.8l296.2-208.6 8.1 7.1 123.6 108.2L1220 427l91.4 79.9 7.3 6.3-28.8 89.2zM1010 1338.8l-4.2 61.1 75.8-51.2-71.6-9.9zm328-849.9-91.4-79.9-32.4-28.5-123.6-108.2-32.5-28.5-.4-.3-19.1 13.5-310.4 218.6.1 41.1.4 191.2.1 50.2.1 69 39.5 45.8 44.3 51.4 180.9 210L1237.9 869l93.8-294.6 22.6-71.1-16.3-14.4zm-48.1 113.5-79.6 250.3L994.5 1087 838.9 906.4l-44.3-51.3-34.3-39.8-.1-78.3-.1-50.2-.4-191.2v-3.8l296.2-208.6 8.1 7.1 123.6 108.2L1220 427l91.4 79.9 7.3 6.3-28.8 89.2zm48.1-113.5-91.4-79.9-32.4-28.5-123.6-108.2-32.5-28.5-.4-.3-19.1 13.5-310.4 218.6.1 41.1.4 191.2.1 50.2.1 69 39.5 45.8 44.3 51.4 180.9 210L1237.9 869l93.8-294.6 22.6-71.1-16.3-14.4zm-48.1 113.5-79.6 250.3L994.5 1087 838.9 906.4l-44.3-51.3-34.3-39.8-.1-78.3-.1-50.2-.4-191.2v-3.8l296.2-208.6 8.1 7.1 123.6 108.2L1220 427l91.4 79.9 7.3 6.3-28.8 89.2zM1010 1338.8l-4.2 61.1 75.8-51.2-71.6-9.9zm328-849.9-91.4-79.9-32.4-28.5-123.6-108.2-32.5-28.5-.4-.3-19.1 13.5-310.4 218.6.1 41.1.4 191.2.1 50.2.1 69 39.5 45.8 44.3 51.4 180.9 210L1237.9 869l93.8-294.6 22.6-71.1-16.3-14.4zm-48.1 113.5-79.6 250.3L994.5 1087 838.9 906.4l-44.3-51.3-34.3-39.8-.1-78.3-.1-50.2-.4-191.2v-3.8l296.2-208.6 8.1 7.1 123.6 108.2L1220 427l91.4 79.9 7.3 6.3-28.8 89.2zm48.1-113.5-91.4-79.9-32.4-28.5-123.6-108.2-32.5-28.5-.4-.3-19.1 13.5-310.4 218.6.1 41.1.4 191.2.1 50.2.1 69 39.5 45.8 44.3 51.4 180.9 210L1237.9 869l93.8-294.6 22.6-71.1-16.3-14.4zm-48.1 113.5-79.6 250.3L994.5 1087 838.9 906.4l-44.3-51.3-34.3-39.8-.1-78.3-.1-50.2-.4-191.2v-3.8l296.2-208.6 8.1 7.1 123.6 108.2L1220 427l91.4 79.9 7.3 6.3-28.8 89.2zM1010 1338.8l-4.2 61.1 75.8-51.2-71.6-9.9zm328-849.9-91.4-79.9-32.4-28.5-123.6-108.2-32.5-28.5-.4-.3-19.1 13.5-310.4 218.6.1 41.1.4 191.2.1 50.2.1 69 39.5 45.8 44.3 51.4 180.9 210L1237.9 869l93.8-294.6 22.6-71.1-16.3-14.4zm-48.1 113.5-79.6 250.3L994.5 1087 838.9 906.4l-44.3-51.3-34.3-39.8-.1-78.3-.1-50.2-.4-191.2v-3.8l296.2-208.6 8.1 7.1 123.6 108.2L1220 427l91.4 79.9 7.3 6.3-28.8 89.2zm48.1-113.5-91.4-79.9-32.4-28.5-123.6-108.2-32.5-28.5-.4-.3-19.1 13.5-310.4 218.6.1 41.1.4 191.2.1 50.2.1 69 39.5 45.8 44.3 51.4 180.9 210L1237.9 869l93.8-294.6 22.6-71.1-16.3-14.4zm-48.1 113.5-79.6 250.3L994.5 1087 838.9 906.4l-44.3-51.3-34.3-39.8-.1-78.3-.1-50.2-.4-191.2v-3.8l296.2-208.6 8.1 7.1 123.6 108.2L1220 427l91.4 79.9 7.3 6.3-28.8 89.2zM1010 1338.8l-4.2 61.1 75.8-51.2-71.6-9.9zm328-849.9-91.4-79.9-32.4-28.5-123.6-108.2-32.5-28.5-.4-.3-19.1 13.5-310.4 218.6.1 41.1.4 191.2.1 50.2.1 69 39.5 45.8 44.3 51.4 180.9 210L1237.9 869l93.8-294.6 22.6-71.1-16.3-14.4zm-48.1 113.5-79.6 250.3L994.5 1087 838.9 906.4l-44.3-51.3-34.3-39.8-.1-78.3-.1-50.2-.4-191.2v-3.8l296.2-208.6 8.1 7.1 123.6 108.2L1220 427l91.4 79.9 7.3 6.3-28.8 89.2zm48.1-113.5-91.4-79.9-32.4-28.5-123.6-108.2-32.5-28.5-.4-.3-19.1 13.5-310.4 218.6.1 41.1.4 191.2.1 50.2.1 69 39.5 45.8 44.3 51.4 180.9 210L1237.9 869l93.8-294.6 22.6-71.1-16.3-14.4zm-48.1 113.5-79.6 250.3L994.5 1087 838.9 906.4l-44.3-51.3-34.3-39.8-.1-78.3-.1-50.2-.4-191.2v-3.8l296.2-208.6 8.1 7.1 123.6 108.2L1220 427l91.4 79.9 7.3 6.3-28.8 89.2zM1010 1338.8l-4.2 61.1 75.8-51.2-71.6-9.9zm328-849.9-91.4-79.9-32.4-28.5-123.6-108.2-32.5-28.5-.4-.3-19.1 13.5-310.4 218.6.1 41.1.4 191.2.1 50.2.1 69 39.5 45.8 44.3 51.4 180.9 210L1237.9 869l93.8-294.6 22.6-71.1-16.3-14.4zm-48.1 113.5-79.6 250.3L994.5 1087 838.9 906.4l-44.3-51.3-34.3-39.8-.1-78.3-.1-50.2-.4-191.2v-3.8l296.2-208.6 8.1 7.1 123.6 108.2L1220 427l91.4 79.9 7.3 6.3-28.8 89.2zm48.1-113.5-91.4-79.9-32.4-28.5-123.6-108.2-32.5-28.5-.4-.3-19.1 13.5-310.4 218.6.1 41.1.4 191.2.1 50.2.1 69 39.5 45.8 44.3 51.4 180.9 210L1237.9 869l93.8-294.6 22.6-71.1-16.3-14.4zm-48.1 113.5-79.6 250.3L994.5 1087 838.9 906.4l-44.3-51.3-34.3-39.8-.1-78.3-.1-50.2-.4-191.2v-3.8l296.2-208.6 8.1 7.1 123.6 108.2L1220 427l91.4 79.9 7.3 6.3-28.8 89.2zm48.1-113.5-91.4-79.9-32.4-28.5-123.6-108.2-32.5-28.5-.4-.3-19.1 13.5-310.4 218.6.1 41.1.4 191.2.1 50.2.1 69 39.5 45.8 44.3 51.4 180.9 210L1237.9 869l93.8-294.6 22.6-71.1-16.3-14.4zm-48.1 113.5-79.6 250.3L994.5 1087 838.9 906.4l-44.3-51.3-34.3-39.8-.1-78.3-.1-50.2-.4-191.2v-3.8l296.2-208.6 8.1 7.1 123.6 108.2L1220 427l91.4 79.9 7.3 6.3-28.8 89.2z" class="st1"/>
  <path d="m1541.1 1135-57.3 14.7-123.5 31.5-127.8 32.7-289.1 73.9 35.9-35-229.4-29.9-65.7-8.5-53-6.9-118.9-15.4-61.7-8 30.6 160.9 8.8 46.8 50.7-7 215.3-29.7 79.3-10.9 35.3-4.9 43.9-6 29.4-4.1-7.6 18.6-11.4 27.9-9.1 22.4-20.5 50.3-55.5 136.5-20.5 50.3-25.2 62.1-20.5 50.3-17.9 44.1-35.3 87-22.4 55.1h262.1l.3-5.2 2.9-54.2 3.4-61.8 4.1-76.2 3.4-61.8 9.1-167.6 3.4-61.8 1.5-27.6 1.8-34.2 3.4-62.9 500.9 70.1 43.4 6 7.3-90.8 8.7-109 4.1-50.6 1.3-15.7-18 4.5zm-355.2-186.4-65.2 70.8 57.5 38.8 69.5-68-61.8-41.6zm0 0-65.2 70.8 57.5 38.8 69.5-68-61.8-41.6zM1048.8 97.3 782.8 292l-19.3 14.2-16.1 11.8-33.2 24.2L581 439.6l2.5 49.1 2.8 55.2 6 118.9 6.2 123.1 3.2 62.9 385.9 395.5 118.6-115.9 72-70.4 69.5-68 32.4-31.5 92.6-90.5 18.6-69.1 10.7-39.5 5.2-19.2 6.3-23 78.3-289.8-443-330.1zM1322.2 656l-7.1 22.4-5.9 18.6-12.2 38.5-45 141.4-35.7 38.8-30.3 32.9-65.2 70.8-67.6 73.3-59.7 64.9-216.8-251.3-63.2-73.4-.3-88.3-.3-115.1-.1-53.5-.3-108.5 91.7-64.5 33.9-23.8 16.4-11.5 19.8-13.9 184.6-129.9 313.5 274.4-50.2 157.7zm-136.3 292.6-65.2 70.8 57.5 38.8 69.5-68-61.8-41.6zm0 0-65.2 70.8 57.5 38.8 69.5-68-61.8-41.6z" style="fill:#c2c4c5"/>
  <path d="M838 379.2 804.1 403l-90-60.8 33.3-24.3zM1402 759.7l-10.6 39.5-94.5-63.8 12.2-38.4zM712.9 629.5 586.3 544l-2.8-55.2 129.2 87.1zM1216.2 915.7l63.8 43.2-32.3 31.5-61.8-41.8zM1557.5 1146.1l-3.9 50.6-70-47.1 57.5-14.6zM776.7 906.3 598.5 786l-6.3-123.2 121 81.6.1 88.5zM1544.9 1305.8l-7.3 90.8-43.5-6.1-261.6-176.7 127.8-32.7zM874.3 353.7l-19.7 13.8-91.1-61.4 19.3-14.1zM1413.4 717.5l-6.2 23.1-92.2-62.2 7.2-22.4z" class="st3"/>
  <path d="M431 1165.3c4.9 20 9.7 40.2 14.3 60.3l6.9 30.3 6.6 30.3 3.4 15.1 3.2 15.1 6.3 30.3 6.3 30.3 6.2 30.4-7.7-5.5c37.1-5.3 74.3-10.4 111.4-15.4 37.1-4.9 74.4-9.5 111.6-14.2l27.9-3.4 27.9-3.2 27.9-3.2 28-2.9 28-2.9 28-2.7c18.6-1.8 37.4-3.5 56.1-4.9-18.5 3.5-36.9 6.7-55.4 10l-27.8 4.6-27.8 4.5-27.8 4.5-27.8 4.2-27.8 4.2-27.8 4.1c-37.1 5.5-74.3 10.7-111.4 15.6-37.1 4.9-74.3 9.8-111.6 14.3l-6.6.8-1.1-6.3-5.5-30.6c-1.8-10.2-3.5-20.3-5.3-30.6l-5.2-30.6-2.5-15.3-2.5-15.3-4.9-30.6-4.8-30.6c-2.9-19.8-5.9-40.2-8.7-60.7zM392.2 1128.2c41.1 3.1 82 7.6 122.8 12.6s81.6 10.7 122.2 16.7c40.6 6 81.3 12.8 121.8 19.9 40.5 7.3 80.9 14.9 121.1 24.1-41.1-3.1-82-7.6-122.8-12.6s-81.6-10.7-122.2-16.8c-40.6-6.2-81.3-12.8-121.8-19.9-40.5-7.2-81-14.8-121.1-24z" class="st4"/>
  <path d="M881.6 1389.8c-35.6 6.3-71.2 11.8-106.9 17.2l-26.8 3.9c-9 1.4-17.8 2.7-26.8 3.9l-53.5 7.6c-35.7 4.9-71.5 9.7-107.4 14.3l-53.7 6.7-53.7 6.4-6.7.8-1.3-6.7c-4.9-26.2-9.7-52.6-14.3-78.8-4.8-26.2-9.1-52.6-13.6-78.9-2.2-13.2-4.3-26.3-6.6-39.5-2.1-13.2-4.3-26.3-6.3-39.5-2.1-13.2-4.2-26.3-6-39.5-2-13.2-3.9-26.3-5.7-39.7 3.2 13 6.2 25.9 9.3 39 3.1 13 5.9 26.1 8.8 39.1s5.7 26.1 8.5 39.1 5.7 26.1 8.4 39.1c5.5 26.1 10.9 52.3 16.3 78.3 5.3 26.2 10.5 52.3 15.6 78.5l-8-5.9 53.7-6.7 53.7-6.4c35.9-4.2 71.6-8.3 107.5-12.2l53.8-5.6c9-1 17.9-1.8 26.9-2.7l26.9-2.7c35.9-3.2 71.9-6.5 107.9-9.1z" class="st5"/>
  <path d="M1101.4 1198.8c42-12.6 84.1-24.5 126.4-36.4l31.7-8.8c10.5-2.9 21.2-5.9 31.7-8.7l63.5-17.2c42.3-11.2 84.7-22.6 127.1-33.5l63.6-16.4 63.8-16.1 9.8-2.5-.8 10.1c-2.7 31.8-5.5 63.6-8.4 95.4-2.8 31.8-5.9 63.6-8.8 95.3-1.5 15.8-3.2 31.8-4.8 47.7-1.5 15.8-3.2 31.8-4.9 47.7-1.7 15.8-3.4 31.8-5.2 47.7-1.8 15.8-3.6 31.7-5.6 47.7.6-16 1.3-32 2.1-47.9.7-16 1.5-32 2.4-47.8.8-16 1.7-32 2.7-47.8 1-16 1.8-31.8 2.8-47.8 2.1-31.8 4.1-63.8 6.3-95.6 2.2-31.8 4.5-63.8 6.9-95.6l9 7.6-63.6 16.4-63.8 16.1c-42.5 10.8-85.1 21-127.5 31.5l-63.9 15.3c-10.7 2.5-21.3 5-32 7.6l-32 7.4c-42.9 9.8-85.6 19.6-128.5 28.6z" class="st4"/>
  <path d="M1145 1368.4c20.9 48.6 41.2 97.5 61.2 146.5l15 36.7 14.9 36.9c10 24.5 19.8 49.1 29.6 73.7l29.3 73.9 28.9 74c9.7 24.7 19.2 49.3 28.6 74 9.4 24.7 19.1 49.3 28.5 74.1l3.5 9.3-9.8.3-94 2.2c-31.4.6-62.7 1.3-94 1.7-31.4.4-62.7 1-94 1.1-15.7.1-31.4.3-47.1.3-15.7.1-31.4 0-47.1 0 15.7-1.1 31.3-2.1 47-3.1s31.3-2 47-2.8c31.3-1.8 62.7-3.5 93.9-5 31.3-1.5 62.7-2.9 93.9-4.5l93.9-3.9-6.3 9.5c-9.8-24.7-19.3-49.3-28.9-73.9-9.7-24.7-19.3-49.3-28.7-74l-28.5-74.1-28-74.3c-9.4-24.7-18.6-49.6-27.8-74.4l-13.9-37.3-13.6-37.3c-18.3-49.7-36.3-99.4-53.5-149.6z" style="fill:#fff4c6"/>
  <path d="m993.2 1320.5-8.1 671.2 413.9-9.4-204-565.1" class="st7"/>
  <path d="m1145 1368.4 229.3 592.3-375.9 12.3 2.8-652.5" class="st1"/>
  <path d="m987.7 1328.2 29.5 618.6 307.1-16.4-209.2-591" class="st7"/>
  <path d="M1580.3 1450.7c-45.1-3.2-90.1-7.8-135-13-44.9-5.2-89.7-10.9-134.4-17.1-44.7-6.2-89.4-13-134-20.3-44.6-7.4-89-15.1-133.3-24.5 45.1 3.2 90.1 7.8 135 12.9 44.9 5.2 89.7 10.9 134.4 17.1 44.7 6.3 89.4 13 134 20.3 44.5 7.5 89 15.3 133.3 24.6z" class="st5"/>
  <path d="m1307 1915.3-62.8 4.1-107.3 7.1-87.1 5.8-23.2 1.5-.7-17.5-2.8-65.9-3.4-81.3-2.8-65.9-7.6-178.7-2.6-66-1.3-29.3-1.5-36.4-2.7-64.6 98.7 8.5 56.6 158.3 16.7 46.5 13.4 37.6 30.2 84.2 81.8 228.3z" class="st1"/>
  <path d="m631 1207.2 204.1 136.7-79.3 10.9-243.6-163zM915.8 1397.8l70.7 47.3-3.4 61.8-87.7-58.7zM1216.8 1663.3l-207.5-138.8-2.6-66 179.9 120.6zM480.9 1344.6l59.6 39.9-50.6 6.9zM839.9 1584.8l134.1 89.7-3.4 61.8-151.2-101.2zM1307 1915.3l-62.8 4.1-224.5-150.3-2.8-65.9 281.7 188.4zM794.2 1697.2l172.4 115.4-3.4 61.8-189.5-126.9zM1136.9 1926.5l-87.1 5.8-23.9-16-2.8-65.9zM960.3 1928.6l-.3 5.3-157.3-.1-82.4-55.1 35.3-87zM1173.2 1541.5l-167.8-112.3-17.4-11.6-63.1-42.2-54.3-36.4-186.7-124.8 65.8 8.6 164.7 110.1 21.9 14.6 53.5 35.9 14.1 9.4 152.6 102.2z" class="st3"/>
  <path d="M1374.3 1960.7c-15.7 1.1-31.3 2.1-47 3.1s-31.3 2-47 2.8l-47 2.7-47 2.4c-15.7.8-31.3 1.5-47 2.2l-47 2.2-93.9 3.9-7.1.3v-7.3l-.1-20.5v-61.3c.1-27.2 0-54.4.3-81.6l.6-81.6c.1-27.2.6-54.4 1-81.6l.6-40.8.7-40.8.7-40.8 1-40.8c1.3-54.4 2.8-108.8 4.9-163.1 1.8 54.4 2.8 108.8 3.6 163.1l.6 40.8.4 40.8.4 40.8.1 40.8c.1 27.2.3 54.4.3 81.6l-.1 81.6c0 27.2-.3 54.4-.4 81.6l-.3 40.8-.1 20.5-.3 20.5-7.1-7 94-2.2 47-1c15.7-.3 31.4-.7 47-.8l47-.7 47-.4c15.7-.1 31.4-.3 47.1-.3 15.7 0 31.4 0 47.1.1z" class="st5"/>
  <path d="M1307 1915.3c-23.3 2.5-46.7 4.9-69.9 7.1-23.3 2.2-46.7 4.5-69.9 6.4l-35 3.1-35 2.9c-23.4 2-46.7 3.8-70.1 5.6l-6.6.4-.4-6.7c-2.7-50.5-5.2-100.9-7.3-151.4-2.1-50.5-4.2-100.9-5.7-151.4-.8-25.2-1.7-50.5-2.4-75.7-.7-25.2-1.4-50.5-1.8-75.7l-.7-37.8-.6-37.8c-.3-25.2-.6-50.6-.6-75.8 2.1 25.2 4.1 50.3 5.9 75.5l2.7 37.8 2.4 37.8c1.7 25.2 3.1 50.5 4.5 75.7 1.5 25.2 2.7 50.5 4.1 75.7 2.7 50.5 4.9 100.9 7 151.4 2.1 50.5 3.9 100.9 5.5 151.4l-6.9-6.2c23.4-1.4 46.8-2.5 70.2-3.8l35-1.8 35-1.5c23.4-1.1 46.8-2 70.2-2.8 23.6-1.1 47-2 70.4-2.4zM1251.9 877c8.5-32.1 17.7-63.9 26.8-95.7 9.3-31.8 18.5-63.6 28-95.3 9.4-31.8 19.2-63.4 28.9-95 9.7-31.7 19.6-63.2 29.7-94.9l2.2 7.8c-26.2-22.8-52.1-45.8-78.2-68.8l-38.8-34.8L1231 383l-19.3-17.5-38.5-35-38.4-35.2c-25.5-23.7-50.9-47.2-76-71.3 27.2 21.6 54 43.7 80.9 65.9l39.9 33.4 39.8 33.6 19.9 16.8 19.8 17 39.5 33.9c26.2 22.7 52.4 45.6 78.6 68.4l3.6 3.2-1.4 4.6c-10.1 31.5-20.2 63.1-30.6 94.6-10.4 31.4-20.6 62.9-31.3 94.3-10.5 31.4-21.3 62.8-32.1 94-10.9 30.9-22 62.2-33.5 93.3z" class="st4"/>
  <path d="m572 571.7 2.4 48.7-30.3 20.3-2.3-48.5z" class="st3"/>
  <path d="m1233.2 176.2-27.5 18.5-35.5-26.3 27.5-18.5z" class="st8"/>
  <path d="m583.8 805.5 2.5 48.7-27.2 18.3-3.3-3.5-2.3-43z" class="st3"/>
  <path d="m760.1 737-31.2 21-.2-50.2 31.3-21z" class="st8"/>
  <path d="m1214.2 380.6 32.4 28.3-26.8 18.1-32.5-28.4z" class="st3"/>
  <path d="m1403.4 303.2-27.4 18.5-35.5-26.3 27.5-18.5z" class="st8"/>
  <path d="m937.8 1215.9 19.7 20.2-41.2-5.6z" style="fill:#f5ce30"/>
  <path d="m1409.6 897.9-166.2 162.3-144.7 97.4L1265 995.3zM668.7 940.1l47.8 49-26.3 17.7-47.8-48.9z" class="st3"/>
  <path d="m838.9 906.6-26.1 17.6-44.3-51.4 26.1-17.7z" class="st8"/>
  <path d="m1338 488.9 16.4 14.3-22.6 71.1-41.9 28.1 28.5-89.1-7.3-6.3z" class="st3"/>
  <path d="m1545.4 409.2-6.8 25.7-39.7 26.7 10.8-40.1-34.1-25.5 27.5-18.5z" class="st8"/>
  <path d="m824.5 1522.3 38.5-25.9-46 112.2-42 28.3z" class="st3"/>
  <path d="M984.9 1978.5c-29.6.6-59 .8-88.6 1l-44.3.1h-44.3c-14.7 0-29.6-.1-44.3-.1l-44.3-.3c-14.7 0-29.6-.3-44.3-.4l-44.3-.6-10.1-.1 3.9-9.4c10.2-24.4 20.6-48.6 31-72.9l15.6-36.4c5.2-12.2 10.4-24.2 15.7-36.3l31.5-72.6c5.2-12.1 10.5-24.2 15.8-36.3l16-36.2 16-36.2 16.1-36.2 16.1-36.2 16.4-36c21.9-48.1 43.9-96 66.7-143.7-19.1 49.2-38.7 98.3-58.7 147l-15 36.6-15.1 36.6-15.1 36.6-15.3 36.4-15.4 36.4c-5 12.2-10.2 24.4-15.4 36.4l-31.1 72.7c-5.2 12.2-10.4 24.2-15.7 36.3l-15.8 36.3c-10.5 24.2-21 48.4-31.7 72.5l-6.2-9.5 44.3 1.3c14.7.4 29.6.8 44.3 1.4l44.3 1.5c14.7.6 29.4 1 44.3 1.7l44.3 1.8 44.3 2c29.4 1.6 59 3.1 88.4 4.8z" class="st5"/>
  <path d="m1181.6 1362.8-39.6 26.6-98.2-13.6-8.4 85.7-35.3 23.8 5.9-85.4 75.6-51z" style="fill:#dbbf48"/>
  <path d="M1551.9 1414.7c1-25.5 2.1-50.9 3.5-76.4l2-38.1 2.2-38.1c1.4-25.5 3.1-50.9 4.8-76.2 1.5-25.4 3.4-50.9 5.2-76.2l8.3 7c-48.2 12.9-96.6 25.4-144.9 37.7-48.4 12.3-96.7 24.5-145.2 36.3l-36.3 9-36.4 8.7c-24.2 5.7-48.5 11.6-72.9 17.2l-36.4 8.4-36.4 8.3c-24.4 5.5-48.8 10.8-73.2 16 24-7.1 47.9-14.2 71.9-21l36-10.2 36-10.1c24-6.7 48.1-13.3 72.2-19.8l36.2-9.8 36.2-9.5c48.2-12.9 96.6-25.4 144.8-37.8 48.4-12.3 96.7-24.5 145.2-36.3l9.1-2.2-.8 9.3c-2.2 25.4-4.5 50.7-7 76.1-2.4 25.4-4.8 50.7-7.4 76.1l-3.8 38-4.1 38c-2.9 24.8-5.7 50.2-8.8 75.6zM880.1 1201.5l-41.5-40.6-41.3-40.8c-27.5-27.3-54.9-54.5-82.3-82-27.3-27.3-54.8-54.7-82-82.3l-81.9-82.4-1.7-1.7-.1-2.4-6.3-113.1-3.1-56.5-2.9-56.5c-2-37.7-4.1-75.4-5.9-113.1L525.6 417l-.1-3.9 3.1-2.2 32.4-23.5 32.4-23.4 64.8-46.8 32.4-23.4 32.5-23.3 64.9-46.7 65-46.4 32.5-23.3 32.7-23.1c21.7-15.4 43.4-30.8 65.3-46.1 21.7-15.4 43.7-30.6 65.6-45.8-21.2 16.3-42.3 32.5-63.5 48.6-21.2 16.1-42.5 32.2-63.8 48.4l-32 24.1-32 24-63.9 47.8-64.1 47.8-32.1 23.8-32.1 23.8-64.3 47.6-32.1 23.8-32.2 23.7 2.9-6.2 5.9 113.1c2 37.7 3.8 75.4 5.6 113.1l2.8 56.5 2.7 56.5 5 113.1-1.8-4.1 80.5 83.8c26.8 27.9 53.4 56.1 80.2 84.1 26.8 28 53.3 56.2 79.9 84.4l39.8 42.3 39.6 42.4z" class="st5"/>
  <path d="m994.6 1087.2 26.2-30 26.3-29.9c17.5-19.9 35.2-39.7 52.8-59.6 17.7-19.9 35.5-39.5 53.1-59.4l26.6-29.7 26.6-29.6-1.1 2.1 26.2-85.1 26.5-85.1 13.3-42.5 13.5-42.5 26.8-84.9 2.1 7.7c-22-19.1-43.7-38.4-65.6-57.6l-65.6-57.6-65.3-57.9c-21.7-19.3-43.6-38.5-65.2-58l7.3.4-74.6 51.3-74.7 51-75 50.7-37.6 25.2-37.7 25.1 36.3-27.1 36.4-26.9 73.2-53.4 73.3-53.1 73.6-52.8 3.8-2.7 3.6 3.1c22.1 18.9 44.1 38 66.2 57l66 57 65.7 57.3c21.9 19.2 43.9 38.1 65.7 57.5l3.6 3.2-1.4 4.6-27.2 84.8-13.6 42.5-13.7 42.3-27.5 84.8-27.8 84.7-.4 1.3-.8.8-27.3 29-27.3 28.9c-18.2 19.2-36.4 38.7-54.8 57.7-18.4 19.2-36.6 38.5-55.1 57.6l-27.6 28.7-27.8 29.1z" class="st5"/>
  <path d="M987.6 1244.5c-33.5-31.7-66.4-63.9-99.4-96.1-16.4-16.3-32.9-32.2-49.2-48.5l-48.9-48.8c-32.4-32.7-65-65.3-97.1-98.3l-48.4-49.3-48.1-49.6-2-2-.1-2.7c-.8-17.1-1.7-34.1-2.4-51.2l-2.1-51.2c-1.5-34.1-2.7-68.3-3.9-102.5-.7-17.1-1.1-34.2-1.7-51.2-.6-17.1-1.1-34.2-1.4-51.2-.4-17.1-.8-34.2-1.1-51.3-.4-17.1-.7-34.2-.8-51.3 1.5 17 2.9 34.1 4.3 51 1.4 17 2.7 34.1 3.9 51.2 1.4 17.1 2.5 34.1 3.8 51.2 1.1 17.1 2.5 34.1 3.5 51.2 2.2 34.1 4.5 68.1 6.4 102.3l3.1 51.2c1 17.1 1.8 34.1 2.8 51.2l-2.1-4.6 48.4 49.3 48.1 49.6c32.1 32.9 63.9 66.3 95.7 99.5l47.5 50.2c15.8 16.7 31.5 33.6 47.4 50.3 31.6 33.5 63 67.3 93.8 101.6z" class="st11"/>
  <path d="M960 1933.9c-10.9.4-21.9.8-32.8 1.3l-32.8 1c-21.9.6-43.7 1.3-65.5 1.7-21.9.4-43.7 1-65.5 1.3l-65.5 1-9.3.1 3.5-8.7 30-75.8 30.4-75.7 15.3-37.8 15.6-37.7c10.4-25.2 20.6-50.3 31.1-75.4l15.7-37.7c5.2-12.6 10.5-25.1 15.8-37.7l16-37.6c5.3-12.5 10.7-25.1 16.1-37.6l16.1-37.4 16.4-37.4c10.9-24.9 22-49.8 33.4-74.6-9.3 25.6-18.6 51.2-28.2 76.7l-14.4 38.3-14.6 38.1c-4.8 12.8-9.8 25.4-14.7 38.1l-14.9 38c-4.9 12.8-10 25.4-15 38l-15 38c-10 25.4-20.2 50.5-30.4 75.8l-15.3 37.8-15.4 37.8-31 75.5-31.4 75.3-5.7-8.5 65.5 1c21.9.3 43.7.8 65.5 1.3 21.9.4 43.7 1.1 65.5 1.7l32.8 1.1c10.8-.2 21.8.2 32.7.7zM759.4 491.9c1.5 26.9 2.7 54 3.6 80.9.6 13.5.8 26.9 1.3 40.5.4 13.5.7 26.9 1 40.5.7 26.9 1.1 54 1.5 80.9.1 13.5.3 26.9.4 40.5.1 13.5.1 26.9.3 40.5l-1.8-4.8c19.6 22.6 39 45.3 58.4 68.1 19.3 22.8 38.7 45.7 57.7 68.7l28.6 34.6 28.3 34.8c18.8 23.3 37.6 46.7 55.6 70.5-20.9-21.6-41.1-43.6-61.4-65.5l-30.3-33.2-30-33.4c-20-22.3-39.8-44.7-59.4-67.1-19.6-22.6-39.2-45.1-58.7-67.8l-1.8-2.1v-43.2c0-13.5.1-26.9.3-40.5.1-26.9.6-54 1.1-80.9.3-13.5.4-26.9.8-40.5.4-13.5.7-26.9 1.1-40.5 1-27.2 2-54.1 3.4-81z" class="st4"/>
  <path d="m1281.5 1246-76.9 185.9-185.9 76.9-185.7-76.9-76.9-185.9 76.9-185.8 185.7-77 185.9 77z" style="fill:#889cbf"/>
  <path d="M840.6 1424.3 766.7 1246l73.9-178.2 178.1-73.8 178.3 73.8 73.9 178.2-73.9 178.3-178.3 73.9z" class="st1"/>
  <path d="M860.8 1404.1 795.2 1246l65.6-158.1 157.9-65.4 158.1 65.4 65.6 158.1-65.6 158.1-158.1 65.5z" class="st0"/>
  <path d="m1227.5 1246-61.1 147.8-147.7 61.1-147.6-61.1L810 1246l61.1-147.5 147.6-61.3 147.7 61.3z" style="fill:#e74d56;stroke:#8d181b;stroke-width:7.9662;stroke-miterlimit:10"/>
  <linearGradient id="SVGID_1_" x1="900.558" x2="1137.004" y1="753.957" y2="753.957" gradientTransform="matrix(1 0 0 -1 0 2000)" gradientUnits="userSpaceOnUse">
    <stop offset="0" style="stop-color:#eb3c57"/>
    <stop offset=".359" style="stop-color:#e63d55"/>
    <stop offset=".802" style="stop-color:#dd3d50"/>
    <stop offset="1" style="stop-color:#d83d4c"/>
  </linearGradient>
  <path d="m935.2 1329.7-34.6-83.7 34.6-83.5 83.5-34.8 83.7 34.8 34.6 83.5-34.6 83.7-83.7 34.6z" style="fill:url(#SVGID_1_)"/>
  <path d="M813.1 1246h87.5l34.6 83.7-60.3 60.1z" style="fill:#ba2026"/>
  <path d="m1102.4 1162.5 59.4-59.4 59.3 142.9H1137z" style="fill:#f0566f"/>
  <path d="M1018.7 1127.7v-84.2l143.1 59.6-59.4 59.4z" style="fill:#f3839c"/>
  <path d="M813.1 1246h87.5l34.6-83.5-62.7-59.4z" style="fill:#e22437"/>
  <path d="M1018.7 1127.7c7.1 2.5 14.2 5.2 21.3 7.7 7 2.7 14.2 5.3 21.2 8.1 7 2.7 14 5.6 21 8.4l20.9 8.5.7.3.3.7 8.5 20.9 8.4 21c2.8 7 5.5 14 8.1 21.2 2.7 7 5.3 14.2 7.7 21.3-3.4-6.9-6.4-13.7-9.5-20.6-3.1-6.9-6.2-13.7-9.3-20.7-3.1-6.9-6-13.9-9-20.7l-8.7-20.9 1.1 1.1-20.9-8.8c-6.9-2.9-13.9-5.9-20.7-9-6.9-2.9-13.9-6-20.7-9.3-6.7-2.7-13.5-5.8-20.4-9.2z" style="fill:#f9c6d2"/>
  <path d="M1018.7 1364.3c-7.1-2.5-14.2-5.2-21.3-7.7-7-2.7-14.2-5.3-21.2-8.1-7-2.7-14-5.6-21-8.4l-20.9-8.5-.7-.3-.3-.7-8.5-20.9-8.4-21c-2.8-7-5.5-14-8.1-21.2-2.7-7-5.3-14.2-7.7-21.3 3.4 6.9 6.4 13.7 9.5 20.6 3.1 6.9 6.2 13.7 9.3 20.7 3.1 6.9 6 13.9 9 20.7l8.7 20.9-1.1-1.1 20.9 8.8c6.9 2.9 13.9 5.9 20.7 9 6.9 2.9 13.9 6 20.7 9.3 6.8 2.8 13.7 6 20.4 9.2z" style="fill:#f05682"/>
  <path d="M1018.7 994c15.3 5.2 30.4 10.5 45.6 16.1l22.7 8.3 22.6 8.4c15.1 5.6 30.1 11.4 45.1 17.2 15 5.7 30 11.8 44.9 17.7l2.5 1 1.1 2.7c6.3 14.7 12.8 29.6 18.9 44.4 6.3 14.9 12.5 29.7 18.6 44.4 6.2 14.9 12.3 29.7 18.4 44.6 6 14.9 12.1 29.9 17.9 44.7l1.1 2.7-1.1 2.5c-12.8 29.6-25.6 59-39 88.3l-10 22-10.2 21.9c-6.9 14.6-13.7 29.2-20.9 43.6 5.2-15.3 10.5-30.4 16-45.6l8.3-22.7 8.4-22.6c11.2-30.1 23-60.1 34.8-90v5.2c-6.3-14.7-12.6-29.6-18.9-44.4s-12.5-29.7-18.6-44.4c-6.2-14.9-12.3-29.7-18.2-44.6-6-14.9-12.1-29.9-17.9-44.7l3.6 3.6c-14.7-6.4-29.6-12.8-44.1-19.3-14.7-6.4-29.4-13-44-19.8l-22-10-21.9-10.2c-14.7-6.9-29.1-13.8-43.7-21zM1049.1 39c42.5 29.4 84.4 59.4 126.4 89.4l62.8 45.3 62.7 45.6 62.4 45.8c20.7 15.3 41.6 30.6 62.2 46 41.5 30.7 83 61.4 124.2 92.5l3.9 2.9-1.3 4.8-16.5 60.4-16.8 60.4-16.8 60.4-17.1 60.3-8.5 30.1-8.7 30.1c-5.9 20-11.5 40.1-17.5 60.1-11.8 40.1-23.7 80.2-35.9 120.1 9.5-40.6 19.5-81.3 29.6-121.8 4.9-20.3 10.1-40.5 15.3-60.8l7.7-30.4 7.8-30.3 15.6-60.7 15.8-60.5 16-60.5 16.3-60.5 2.7 7.7c-41.5-30.7-82.7-61.7-124-92.6-20.6-15.4-41.2-31-61.8-46.7l-61.7-46.8-61.5-47.1-61.2-47.2c-41.1-31.9-81.7-63.8-122.1-96z" class="st11"/>
</svg>
