<svg xmlns="http://www.w3.org/2000/svg" xml:space="preserve" id="Layer_1" x="0" y="0" style="enable-background:new 0 0 2000 2000" version="1.1" viewBox="0 0 2000 2000">
  <style>
    .st21{fill:#c05e4b}.st22{fill:#e58c83}.st23{fill:#d37959}.st24{fill:#f7a7a9}.st25{fill:#f48889}.st26{fill:#f9b4ae}.st27{fill:#933e32}
  </style>
  <path d="m844.8 804.7-.5-216.7 194.4-136.8 170.2 149-72.8 229-139.6 151.5-151.7-176zm583.7 477.5 24.9-311.6-327.6 83.7 184.3-180 97.3-359.7L1035.2 237 650.4 518.4l17.1 337.2 207.7 213-328.6-53.5 49.4 260.6 298.4-34.6L712 1647.9l277.3 2 58.9-420.7 380.3 53z" class="st21"/>
  <path d="m1241.1 577.7-65.2-57-23.1-20.3-88.2-77.2-23.2-20.3-.3-.2-13.6 9.6-221.4 155.9.1 29.3.3 136.4.1 35.8.1 49.2 28.2 32.7 31.6 36.7 129.1 149.8 174.3-189.3 66.9-210.2 16.1-50.7-11.8-10.2zm-34.2 81-56.8 178.6-154 167.2-111-128.9-31.6-36.6-24.5-28.4-.1-55.9-.1-35.8-.3-136.4v-2.7L1039.7 431l5.8 5.1 88.2 77.2 23.1 20.3 65.2 57 5.2 4.5-20.3 63.6zm-199.7 525.4-3 43.6 54.1-36.5-51.1-7.1zm-51.5-87.7L797.8 934.6 779 947.2l135.4 138.9-279.2-41.9-26.7 18 331.7 44.6 29.4 4-13.9-14.4zm285.4-518.7-65.2-57-23.1-20.3-88.2-77.2-23.2-20.3-.3-.2-13.6 9.6-221.4 155.9.1 29.3.3 136.4.1 35.8.1 49.2 28.2 32.7 31.6 36.7 129.1 149.8 174.3-189.3 66.9-210.2 16.1-50.7-11.8-10.2zm-34.2 81-56.8 178.6-154 167.2-111-128.9-31.6-36.6-24.5-28.4-.1-55.9-.1-35.8-.3-136.4v-2.7L1039.7 431l5.8 5.1 88.2 77.2 23.1 20.3 65.2 57 5.2 4.5-20.3 63.6zm34.2-81-65.2-57-23.1-20.3-88.2-77.2-23.2-20.3-.3-.2-13.6 9.6-221.4 155.9.1 29.3.3 136.4.1 35.8.1 49.2 28.2 32.7 31.6 36.7 129.1 149.8 174.3-189.3 66.9-210.2 16.1-50.7-11.8-10.2zm-34.2 81-56.8 178.6-154 167.2-111-128.9-31.6-36.6-24.5-28.4-.1-55.9-.1-35.8-.3-136.4v-2.7L1039.7 431l5.8 5.1 88.2 77.2 23.1 20.3 65.2 57 5.2 4.5-20.3 63.6zm-199.7 525.4-3 43.6 54.1-36.5-51.1-7.1zm233.9-606.4-65.2-57-23.1-20.3-88.2-77.2-23.2-20.3-.3-.2-13.6 9.6-221.4 155.9.1 29.3.3 136.4.1 35.8.1 49.2 28.2 32.7 31.6 36.7 129.1 149.8 174.3-189.3 66.9-210.2 16.1-50.7-11.8-10.2zm-34.2 81-56.8 178.6-154 167.2-111-128.9-31.6-36.6-24.5-28.4-.1-55.9-.1-35.8-.3-136.4v-2.7L1039.7 431l5.8 5.1 88.2 77.2 23.1 20.3 65.2 57 5.2 4.5-20.3 63.6zm34.2-81-65.2-57-23.1-20.3-88.2-77.2-23.2-20.3-.3-.2-13.6 9.6-221.4 155.9.1 29.3.3 136.4.1 35.8.1 49.2 28.2 32.7 31.6 36.7 129.1 149.8 174.3-189.3 66.9-210.2 16.1-50.7-11.8-10.2zm-34.2 81-56.8 178.6-154 167.2-111-128.9-31.6-36.6-24.5-28.4-.1-55.9-.1-35.8-.3-136.4v-2.7L1039.7 431l5.8 5.1 88.2 77.2 23.1 20.3 65.2 57 5.2 4.5-20.3 63.6zm-199.7 525.4-3 43.6 54.1-36.5-51.1-7.1zm233.9-606.4-65.2-57-23.1-20.3-88.2-77.2-23.2-20.3-.3-.2-13.6 9.6-221.4 155.9.1 29.3.3 136.4.1 35.8.1 49.2 28.2 32.7 31.6 36.7 129.1 149.8 174.3-189.3 66.9-210.2 16.1-50.7-11.8-10.2zm-34.2 81-56.8 178.6-154 167.2-111-128.9-31.6-36.6-24.5-28.4-.1-55.9-.1-35.8-.3-136.4v-2.7L1039.7 431l5.8 5.1 88.2 77.2 23.1 20.3 65.2 57 5.2 4.5-20.3 63.6zm34.2-81-65.2-57-23.1-20.3-88.2-77.2-23.2-20.3-.3-.2-13.6 9.6-221.4 155.9.1 29.3.3 136.4.1 35.8.1 49.2 28.2 32.7 31.6 36.7 129.1 149.8 174.3-189.3 66.9-210.2 16.1-50.7-11.8-10.2zm-34.2 81-56.8 178.6-154 167.2-111-128.9-31.6-36.6-24.5-28.4-.1-55.9-.1-35.8-.3-136.4v-2.7L1039.7 431l5.8 5.1 88.2 77.2 23.1 20.3 65.2 57 5.2 4.5-20.3 63.6zm-199.7 525.4-3 43.6 54.1-36.5-51.1-7.1zm233.9-606.4-65.2-57-23.1-20.3-88.2-77.2-23.2-20.3-.3-.2-13.6 9.6-221.4 155.9.1 29.3.3 136.4.1 35.8.1 49.2 28.2 32.7 31.6 36.7 129.1 149.8 174.3-189.3 66.9-210.2 16.1-50.7-11.8-10.2zm-34.2 81-56.8 178.6-154 167.2-111-128.9-31.6-36.6-24.5-28.4-.1-55.9-.1-35.8-.3-136.4v-2.7L1039.7 431l5.8 5.1 88.2 77.2 23.1 20.3 65.2 57 5.2 4.5-20.3 63.6zm34.2-81-65.2-57-23.1-20.3-88.2-77.2-23.2-20.3-.3-.2-13.6 9.6-221.4 155.9.1 29.3.3 136.4.1 35.8.1 49.2 28.2 32.7 31.6 36.7 129.1 149.8 174.3-189.3 66.9-210.2 16.1-50.7-11.8-10.2zm-34.2 81-56.8 178.6-154 167.2-111-128.9-31.6-36.6-24.5-28.4-.1-55.9-.1-35.8-.3-136.4v-2.7L1039.7 431l5.8 5.1 88.2 77.2 23.1 20.3 65.2 57 5.2 4.5-20.3 63.6zm-199.7 525.4-3 43.6 54.1-36.5-51.1-7.1zm233.9-606.4-65.2-57-23.1-20.3-88.2-77.2-23.2-20.3-.3-.2-13.6 9.6-221.4 155.9.1 29.3.3 136.4.1 35.8.1 49.2 28.2 32.7 31.6 36.7 129.1 149.8 174.3-189.3 66.9-210.2 16.1-50.7-11.8-10.2zm-34.2 81-56.8 178.6-154 167.2-111-128.9-31.6-36.6-24.5-28.4-.1-55.9-.1-35.8-.3-136.4v-2.7L1039.7 431l5.8 5.1 88.2 77.2 23.1 20.3 65.2 57 5.2 4.5-20.3 63.6zm34.2-81-65.2-57-23.1-20.3-88.2-77.2-23.2-20.3-.3-.2-13.6 9.6-221.4 155.9.1 29.3.3 136.4.1 35.8.1 49.2 28.2 32.7 31.6 36.7 129.1 149.8 174.3-189.3 66.9-210.2 16.1-50.7-11.8-10.2zm-34.2 81-56.8 178.6-154 167.2-111-128.9-31.6-36.6-24.5-28.4-.1-55.9-.1-35.8-.3-136.4v-2.7L1039.7 431l5.8 5.1 88.2 77.2 23.1 20.3 65.2 57 5.2 4.5-20.3 63.6zm34.2-81-65.2-57-23.1-20.3-88.2-77.2-23.2-20.3-.3-.2-13.6 9.6-221.4 155.9.1 29.3.3 136.4.1 35.8.1 49.2 28.2 32.7 31.6 36.7 129.1 149.8 174.3-189.3 66.9-210.2 16.1-50.7-11.8-10.2zm-34.2 81-56.8 178.6-154 167.2-111-128.9-31.6-36.6-24.5-28.4-.1-55.9-.1-35.8-.3-136.4v-2.7L1039.7 431l5.8 5.1 88.2 77.2 23.1 20.3 65.2 57 5.2 4.5-20.3 63.6zm34.2-81-65.2-57-23.1-20.3-88.2-77.2-23.2-20.3-.3-.2-13.6 9.6-221.4 155.9.1 29.3.3 136.4.1 35.8.1 49.2 28.2 32.7 31.6 36.7 129.1 149.8 174.3-189.3 66.9-210.2 16.1-50.7-11.8-10.2zm-34.2 81-56.8 178.6-154 167.2-111-128.9-31.6-36.6-24.5-28.4-.1-55.9-.1-35.8-.3-136.4v-2.7L1039.7 431l5.8 5.1 88.2 77.2 23.1 20.3 65.2 57 5.2 4.5-20.3 63.6zm98.4 366.1-232.9 59.5 101.3-99 118.5-115.8 3.6-3.5 88.4-326.8 5-18.3-30.3-22.6-71.1-53-25.3-18.8-96.2-71.8-25.3-18.8-106-79.1-368.3 269.4 6.3 125.2 1.8 34.7 6.7 132.2 1.6 30.7 2.4 2.5 59.4 60.9 34.1 35 135.4 138.9-279.2-41.9-68.9-10.3 9.6 50.4 33 174.1 130.6-16.1 65.1-8 111-13.7-40.8 94.5-35.3 81.8-102.9 238.5 252.6 5.2 36-369 6-61.1 70.1 9.8 312.7 43.6 21.4-269 .3-3.5-130.4 33.2zm88.4 213.4-264.2-36.9-71.2-10-51.1-7.1-3 43.6-4.2 60.8-22.6 330.7-206.5-1.4 98.6-241.3 32.7-80.1 42.9-105-96.4 12.8-66.3 8.8-155.4 20.8-31-163.2-2-10.4 14.5 1.9 331.7 44.6 29.4 4-14-14.4-157.8-161.8-34.1-35-58.8-60.3v-1l-1.8-34.7-6.7-132.1-1.8-34.7-5.1-99.7L1035 284.4l86.5 64.5 25.3 18.8 96.2 71.8 25.3 18.8 71.1 53 24.4 18.2-7.7 28.6-80.1 296-86.8 84.8-118.6 115.8-73.3 71.6 253.1-64.6 138.5-35.4 22.3-5.7-17.5 217.6zm-157-599.6 16.1-50.7-11.7-10.3-65.2-57-23.1-20.3-88.2-77.2-23.2-20.3-.3-.2-13.6 9.6-221.4 156 .1 29.3.3 136.4.1 35.8.1 49.2 28.2 32.7 31.6 36.7 129.1 149.8 174.3-189.3 66.8-210.2zm-240.6 366-111-128.9-31.6-36.7-24.5-28.4-.1-55.9-.1-35.8-.3-136.4v-2.7L1039.7 431l5.8 5.1 88.2 77.2 23.1 20.3 65.2 57 5.2 4.5-20.2 63.6-56.8 178.6-154.1 167.3zm245-426.9-65.2-57-23.1-20.3-88.2-77.2-23.2-20.3-.3-.2-13.6 9.6-221.4 155.9.1 29.3.3 136.4.1 35.8.1 49.2 28.2 32.7 31.6 36.7 129.1 149.8 174.3-189.3 66.9-210.2 16.1-50.7-11.8-10.2zm-34.2 81-56.8 178.6-154 167.2-111-128.9-31.6-36.6-24.5-28.4-.1-55.9-.1-35.8-.3-136.4v-2.7L1039.7 431l5.8 5.1 88.2 77.2 23.1 20.3 65.2 57 5.2 4.5-20.3 63.6zm34.2-81-65.2-57-23.1-20.3-88.2-77.2-23.2-20.3-.3-.2-13.6 9.6-221.4 155.9.1 29.3.3 136.4.1 35.8.1 49.2 28.2 32.7 31.6 36.7 129.1 149.8 174.3-189.3 66.9-210.2 16.1-50.7-11.8-10.2zm-34.2 81-56.8 178.6-154 167.2-111-128.9-31.6-36.6-24.5-28.4-.1-55.9-.1-35.8-.3-136.4v-2.7L1039.7 431l5.8 5.1 88.2 77.2 23.1 20.3 65.2 57 5.2 4.5-20.3 63.6zm-199.7 525.4-3 43.6 54.1-36.5-51.1-7.1zm233.9-606.4-65.2-57-23.1-20.3-88.2-77.2-23.2-20.3-.3-.2-13.6 9.6-221.4 155.9.1 29.3.3 136.4.1 35.8.1 49.2 28.2 32.7 31.6 36.7 129.1 149.8 174.3-189.3 66.9-210.2 16.1-50.7-11.8-10.2zm-34.2 81-56.8 178.6-154 167.2-111-128.9-31.6-36.6-24.5-28.4-.1-55.9-.1-35.8-.3-136.4v-2.7L1039.7 431l5.8 5.1 88.2 77.2 23.1 20.3 65.2 57 5.2 4.5-20.3 63.6zm34.2-81-65.2-57-23.1-20.3-88.2-77.2-23.2-20.3-.3-.2-13.6 9.6-221.4 155.9.1 29.3.3 136.4.1 35.8.1 49.2 28.2 32.7 31.6 36.7 129.1 149.8 174.3-189.3 66.9-210.2 16.1-50.7-11.8-10.2zm-34.2 81-56.8 178.6-154 167.2-111-128.9-31.6-36.6-24.5-28.4-.1-55.9-.1-35.8-.3-136.4v-2.7L1039.7 431l5.8 5.1 88.2 77.2 23.1 20.3 65.2 57 5.2 4.5-20.3 63.6zm-199.7 525.4-3 43.6 54.1-36.5-51.1-7.1zm233.9-606.4-65.2-57-23.1-20.3-88.2-77.2-23.2-20.3-.3-.2-13.6 9.6-221.4 155.9.1 29.3.3 136.4.1 35.8.1 49.2 28.2 32.7 31.6 36.7 129.1 149.8 174.3-189.3 66.9-210.2 16.1-50.7-11.8-10.2zm-34.2 81-56.8 178.6-154 167.2-111-128.9-31.6-36.6-24.5-28.4-.1-55.9-.1-35.8-.3-136.4v-2.7L1039.7 431l5.8 5.1 88.2 77.2 23.1 20.3 65.2 57 5.2 4.5-20.3 63.6zm34.2-81-65.2-57-23.1-20.3-88.2-77.2-23.2-20.3-.3-.2-13.6 9.6-221.4 155.9.1 29.3.3 136.4.1 35.8.1 49.2 28.2 32.7 31.6 36.7 129.1 149.8 174.3-189.3 66.9-210.2 16.1-50.7-11.8-10.2zm-34.2 81-56.8 178.6-154 167.2-111-128.9-31.6-36.6-24.5-28.4-.1-55.9-.1-35.8-.3-136.4v-2.7L1039.7 431l5.8 5.1 88.2 77.2 23.1 20.3 65.2 57 5.2 4.5-20.3 63.6zm-199.7 525.4-3 43.6 54.1-36.5-51.1-7.1zm233.9-606.4-65.2-57-23.1-20.3-88.2-77.2-23.2-20.3-.3-.2-13.6 9.6-221.4 155.9.1 29.3.3 136.4.1 35.8.1 49.2 28.2 32.7 31.6 36.7 129.1 149.8 174.3-189.3 66.9-210.2 16.1-50.7-11.8-10.2zm-34.2 81-56.8 178.6-154 167.2-111-128.9-31.6-36.6-24.5-28.4-.1-55.9-.1-35.8-.3-136.4v-2.7L1039.7 431l5.8 5.1 88.2 77.2 23.1 20.3 65.2 57 5.2 4.5-20.3 63.6zm34.2-81-65.2-57-23.1-20.3-88.2-77.2-23.2-20.3-.3-.2-13.6 9.6-221.4 155.9.1 29.3.3 136.4.1 35.8.1 49.2 28.2 32.7 31.6 36.7 129.1 149.8 174.3-189.3 66.9-210.2 16.1-50.7-11.8-10.2zm-34.2 81-56.8 178.6-154 167.2-111-128.9-31.6-36.6-24.5-28.4-.1-55.9-.1-35.8-.3-136.4v-2.7L1039.7 431l5.8 5.1 88.2 77.2 23.1 20.3 65.2 57 5.2 4.5-20.3 63.6zm-199.7 525.4-3 43.6 54.1-36.5-51.1-7.1zm233.9-606.4-65.2-57-23.1-20.3-88.2-77.2-23.2-20.3-.3-.2-13.6 9.6-221.4 155.9.1 29.3.3 136.4.1 35.8.1 49.2 28.2 32.7 31.6 36.7 129.1 149.8 174.3-189.3 66.9-210.2 16.1-50.7-11.8-10.2zm-34.2 81-56.8 178.6-154 167.2-111-128.9-31.6-36.6-24.5-28.4-.1-55.9-.1-35.8-.3-136.4v-2.7L1039.7 431l5.8 5.1 88.2 77.2 23.1 20.3 65.2 57 5.2 4.5-20.3 63.6zm34.2-81-65.2-57-23.1-20.3-88.2-77.2-23.2-20.3-.3-.2-13.6 9.6-221.4 155.9.1 29.3.3 136.4.1 35.8.1 49.2 28.2 32.7 31.6 36.7 129.1 149.8 174.3-189.3 66.9-210.2 16.1-50.7-11.8-10.2zm-34.2 81-56.8 178.6-154 167.2-111-128.9-31.6-36.6-24.5-28.4-.1-55.9-.1-35.8-.3-136.4v-2.7L1039.7 431l5.8 5.1 88.2 77.2 23.1 20.3 65.2 57 5.2 4.5-20.3 63.6zm-199.7 525.4-3 43.6 54.1-36.5-51.1-7.1zm233.9-606.4-65.2-57-23.1-20.3-88.2-77.2-23.2-20.3-.3-.2-13.6 9.6-221.4 155.9.1 29.3.3 136.4.1 35.8.1 49.2 28.2 32.7 31.6 36.7 129.1 149.8 174.3-189.3 66.9-210.2 16.1-50.7-11.8-10.2zm-34.2 81-56.8 178.6-154 167.2-111-128.9-31.6-36.6-24.5-28.4-.1-55.9-.1-35.8-.3-136.4v-2.7L1039.7 431l5.8 5.1 88.2 77.2 23.1 20.3 65.2 57 5.2 4.5-20.3 63.6zm34.2-81-65.2-57-23.1-20.3-88.2-77.2-23.2-20.3-.3-.2-13.6 9.6-221.4 155.9.1 29.3.3 136.4.1 35.8.1 49.2 28.2 32.7 31.6 36.7 129.1 149.8 174.3-189.3 66.9-210.2 16.1-50.7-11.8-10.2zm-34.2 81-56.8 178.6-154 167.2-111-128.9-31.6-36.6-24.5-28.4-.1-55.9-.1-35.8-.3-136.4v-2.7L1039.7 431l5.8 5.1 88.2 77.2 23.1 20.3 65.2 57 5.2 4.5-20.3 63.6zm34.2-81-65.2-57-23.1-20.3-88.2-77.2-23.2-20.3-.3-.2-13.6 9.6-221.4 155.9.1 29.3.3 136.4.1 35.8.1 49.2 28.2 32.7 31.6 36.7 129.1 149.8 174.3-189.3 66.9-210.2 16.1-50.7-11.8-10.2zm-34.2 81-56.8 178.6-154 167.2-111-128.9-31.6-36.6-24.5-28.4-.1-55.9-.1-35.8-.3-136.4v-2.7L1039.7 431l5.8 5.1 88.2 77.2 23.1 20.3 65.2 57 5.2 4.5-20.3 63.6z" class="st22"/>
  <path d="m1386.1 1038.7-40.9 10.5-88.1 22.5-91.2 23.3-206.3 52.7 25.6-25-163.7-21.3-46.9-6.1-37.8-4.9-84.8-11-44-5.7 21.8 114.8 6.3 33.4 36.2-5 153.6-21.2 56.6-7.8 25.2-3.5 31.3-4.3 21-2.9-5.4 13.3-8.1 19.9-6.5 16-14.6 35.9-39.6 97.4-14.6 35.9-18 44.3-14.6 35.9-12.8 31.5-25.2 62.1-16 39.3h187l.2-3.7 2.1-38.7 2.4-44.1 2.9-54.4 2.4-44.1L988 1304l2.4-44.1 1.1-19.7 1.3-24.4 2.4-44.9 357.4 50 31 4.3 5.2-64.8 6.2-77.8 2.9-36.1.9-11.2-12.7 3.4zm-253.5-133-46.5 50.5 41 27.7 49.6-48.5-44.1-29.7zm0 0-46.5 50.5 41 27.7 49.6-48.5-44.1-29.7zm-97.7-607.4L845.1 437.2l-13.8 10.1-11.5 8.4-23.7 17.3-95 69.5 1.8 35 2 39.4 4.3 84.8 4.4 87.8 2.3 44.9 275.3 282.2 84.6-82.7 51.4-50.2 49.6-48.5 23.1-22.5 66.1-64.6 13.3-49.3 7.6-28.2 3.7-13.7 4.5-16.4 55.9-206.8-316.1-235.4zm195 398.6-5.1 16-4.2 13.3-8.7 27.5-32.1 100.9-25.5 27.7-21.6 23.5-46.5 50.5-48.2 52.3-42.6 46.3-154.7-179.4-45.1-52.4-.2-63-.2-82.1-.1-38.2-.2-77.4 65.4-46 24.2-17 11.7-8.2 14.1-9.9 131.7-92.7 223.7 195.8-35.8 112.5zm-97.3 208.8-46.5 50.5 41 27.7 49.6-48.5-44.1-29.7zm0 0-46.5 50.5 41 27.7 49.6-48.5-44.1-29.7z" class="st23"/>
  <path d="m884.5 499.4-24.2 17-64.2-43.4 23.7-17.3zm402.4 271.5-7.7 28.2-67.3-45.5 8.7-27.4z" class="st24"/>
  <path d="m795.2 678-90.4-61-2-39.4 92.3 62.2zm359.1 204.2 45.5 30.8-23.1 22.5-44.1-29.8zm243.5 164.4-2.9 36.1-49.8-33.6 41-10.4zM840.7 875.5l-127.1-85.8-4.5-87.9 86.3 58.2.1 63.1zm245.4 80.8 41 27.6-51.4 50.2-37.8-25.5zm302.6 204.2-5.1 64.8-31-4.3-186.8-126.1 91.2-23.3z" class="st25"/>
  <path d="m910.3 481.2-14.1 9.9-64.9-43.8 13.8-10.1zM1295 740.8l-4.4 16.5-65.8-44.4 5.1-16z" class="st24"/>
  <path d="M594.1 1060.3c3.5 14.3 6.9 28.7 10.2 43l4.9 21.6 4.7 21.6 2.4 10.8 2.3 10.8 4.5 21.6 4.5 21.6 4.4 21.7-5.5-3.9c26.5-3.8 53-7.4 79.5-11 26.5-3.5 53.1-6.8 79.6-10.1l19.9-2.4 19.9-2.3 19.9-2.3 20-2.1 20-2.1 20-1.9c13.3-1.3 26.7-2.5 40-3.5-13.2 2.5-26.3 4.8-39.5 7.1l-19.8 3.3-19.8 3.2-19.8 3.2-19.8 3-19.8 3-19.8 2.9c-26.5 3.9-53 7.6-79.5 11.1s-53 7-79.6 10.2l-4.7.6-.8-4.5-3.9-21.8c-1.3-7.3-2.5-14.5-3.8-21.8l-3.7-21.8-1.8-10.9-1.8-10.9-3.5-21.8-3.4-21.8c-2.4-14.2-4.5-28.8-6.4-43.4zm-27.8-26.5c29.3 2.2 58.5 5.4 87.6 9 29.1 3.6 58.2 7.6 87.2 11.9 29 4.3 58 9.1 86.9 14.2 28.9 5.2 57.7 10.6 86.4 17.2-29.3-2.2-58.5-5.4-87.6-9-29.1-3.6-58.2-7.6-87.2-12s-58-9.1-86.9-14.2c-28.8-5.1-57.7-10.5-86.4-17.1z" class="st26"/>
  <path d="M915.5 1220.5c-25.4 4.5-50.8 8.4-76.3 12.3l-19.1 2.8c-6.4 1-12.7 1.9-19.1 2.8l-38.2 5.4c-25.5 3.5-51 6.9-76.6 10.2l-38.3 4.8-38.3 4.6-4.8.6-.9-4.8c-3.5-18.7-6.9-37.5-10.2-56.2-3.4-18.7-6.5-37.5-9.7-56.3-1.6-9.4-3.1-18.8-4.7-28.2-1.5-9.4-3.1-18.8-4.5-28.2-1.5-9.4-3-18.8-4.3-28.2-1.4-9.4-2.8-18.8-4.1-28.3 2.3 9.3 4.4 18.5 6.6 27.8 2.2 9.3 4.2 18.6 6.3 27.9 2.1 9.3 4.1 18.6 6.1 27.9 2 9.3 4.1 18.6 6 27.9 3.9 18.6 7.8 37.3 11.6 55.9 3.8 18.7 7.5 37.3 11.1 56l-5.7-4.2 38.3-4.8 38.3-4.6c25.6-3 51.1-5.9 76.7-8.7l38.4-4c6.4-.7 12.8-1.3 19.2-1.9l19.2-1.9c25.7-2.4 51.3-4.8 77-6.6z" class="st27"/>
  <path d="M1072.3 1084.2c30-9 60-17.5 90.2-26l22.6-6.3c7.5-2.1 15.1-4.2 22.6-6.2l45.3-12.3c30.2-8 60.4-16.1 90.7-23.9l45.4-11.7 45.5-11.5 7-1.8-.6 7.2c-1.9 22.7-3.9 45.4-6 68.1-2 22.7-4.2 45.4-6.3 68-1.1 11.3-2.3 22.7-3.4 34s-2.3 22.7-3.5 34c-1.2 11.3-2.4 22.7-3.7 34-1.3 11.3-2.6 22.6-4 34 .4-11.4.9-22.8 1.5-34.2.5-11.4 1.1-22.8 1.7-34.1.6-11.4 1.2-22.8 1.9-34.1.7-11.4 1.3-22.7 2-34.1 1.5-22.7 2.9-45.5 4.5-68.2 1.6-22.7 3.2-45.5 4.9-68.2l6.4 5.4-45.4 11.7-45.5 11.5c-30.3 7.7-60.7 15-91 22.5l-45.6 10.9-22.8 5.4-22.8 5.3c-30.5 7.2-60.9 14.2-91.6 20.6zm-37.2-827.5c30.3 21 60.2 42.4 90.2 63.8l44.8 32.3 44.7 32.5 44.5 32.7c14.8 10.9 29.7 21.8 44.4 32.8 29.6 21.9 59.2 43.8 88.6 66l2.8 2.1-.9 3.4-11.8 43.1-12 43.1-12 43.1-12.2 43-6.1 21.5-6.2 21.5c-4.2 14.3-8.2 28.6-12.5 42.9-8.4 28.6-16.9 57.2-25.6 85.7 6.8-29 13.9-58 21.1-86.9 3.5-14.5 7.2-28.9 10.9-43.4l5.5-21.7 5.6-21.6 11.1-43.3 11.3-43.2 11.4-43.2 11.6-43.2 1.9 5.5c-29.6-21.9-59-44-88.5-66.1-14.7-11-29.4-22.1-44.1-33.3l-44-33.4-43.9-33.6L1122 325c-29.1-22.6-58.2-45.3-86.9-68.3z" class="st26"/>
  <path d="M1103.5 1205.2c14.9 34.7 29.4 69.6 43.7 104.5l10.7 26.2 10.6 26.3c7.1 17.5 14.1 35 21.1 52.6l20.9 52.7 20.6 52.8c6.9 17.6 13.7 35.2 20.4 52.8 6.7 17.6 13.6 35.2 20.3 52.9l2.5 6.6-7 .2-67.1 1.6c-22.4.4-44.7.9-67.1 1.2-22.4.3-44.7.7-67.1.8-11.2.1-22.4.2-33.6.2-11.2.1-22.4 0-33.6 0 11.2-.8 22.3-1.5 33.5-2.2 11.2-.7 22.3-1.4 33.5-2 22.3-1.3 44.7-2.5 67-3.6 22.3-1.1 44.7-2.1 67-3.2l67-2.8-4.5 6.8c-7-17.6-13.8-35.2-20.6-52.7-6.9-17.6-13.8-35.2-20.5-52.8l-20.3-52.9-20-53c-6.7-17.6-13.3-35.4-19.8-53.1l-9.9-26.6-9.7-26.6c-12.9-35.4-25.7-70.9-38-106.7z" style="fill:#fff4c6"/>
  <path d="m995.2 1171-5.8 478.9 295.2-6.7-145.4-403.2" class="st21"/>
  <path d="M991.1 1116.8c-23.9-22.6-47.4-45.6-70.9-68.6-11.7-11.6-23.5-23-35.1-34.6l-34.9-34.8c-23.1-23.3-46.4-46.6-69.3-70.1l-34.5-35.2-34.3-35.4-1.4-1.4-.1-1.9c-.6-12.2-1.2-24.3-1.7-36.5l-1.5-36.5c-1.1-24.3-1.9-48.7-2.8-73.1-.5-12.2-.8-24.4-1.2-36.5-.4-12.2-.8-24.4-1-36.5-.3-12.2-.6-24.4-.8-36.6-.3-12.2-.5-24.4-.6-36.6 1.1 12.1 2.1 24.3 3.1 36.4 1 12.1 1.9 24.3 2.8 36.5 1 12.2 1.8 24.3 2.7 36.5.8 12.2 1.8 24.3 2.5 36.5 1.6 24.3 3.2 48.6 4.6 73l2.2 36.5c.7 12.2 1.3 24.3 2 36.5l-1.5-3.3 34.5 35.2 34.3 35.4c22.9 23.5 45.6 47.3 68.3 71l33.9 35.8c11.3 11.9 22.5 24 33.8 35.9 22.6 23.8 44.9 47.9 66.9 72.4z" class="st26"/>
  <path d="m1103.5 1205.2 163.6 422.6-268.2 8.8 1.9-465.6" class="st22"/>
  <path d="m991.3 1176.5 21 441.4 219.1-11.7-149.2-421.7" class="st21"/>
  <path d="M1414.1 1263.9c-32.2-2.3-64.3-5.6-96.3-9.3-32-3.7-64-7.8-95.9-12.2-31.9-4.4-63.8-9.3-95.6-14.5-31.8-5.3-63.5-10.8-95.1-17.5 32.2 2.3 64.3 5.6 96.3 9.2 32 3.7 64 7.8 95.9 12.2 31.9 4.5 63.8 9.3 95.6 14.5 31.7 5.4 63.5 11 95.1 17.6z" class="st27"/>
  <path d="m1219.1 1595.4-44.8 2.9-76.6 5.1-62.2 4.1-16.5 1.1-.5-12.5-2-47-2.5-58-1.9-47-5.4-127.5-2-47.1-.8-20.9-1.1-26-2-46.1 70.5 6.1 40.4 112.9 11.9 33.2 9.6 26.8 21.5 60.1 58.3 162.9z" class="st23"/>
  <path d="m736.7 1090.2 145.7 97.5-56.6 7.8-173.9-116.3zm203.3 136 50.4 33.7-2.4 44.1-62.6-41.9zm214.7 189.4-148-99-2-47.1 128.5 86z" class="st24"/>
  <path d="m629.7 1188.2 42.5 28.5-36.2 4.9zm256.1 171.4 95.7 64-2.4 44.1-107.9-72.2zm333.3 235.8-44.8 2.9-160.3-107.2-1.9-47 200.9 134.4zm-366-155.6 123.1 82.3-2.4 44.1-135.3-90.5zm244.6 163.6-62.2 4.1-17-11.4-2-47zm-126 1.5-.2 3.8-112.3-.1-58.7-39.3 25.2-62.1z" class="st25"/>
  <path d="m1123.6 1328.7-119.7-80.1-12.5-8.3-44.9-30.1-38.9-26-133.1-89 46.9 6.1 117.6 78.6 15.6 10.4 38.2 25.6 10 6.7 108.9 72.9z" class="st24"/>
  <path d="M1267.1 1627.8c-11.2.8-22.3 1.5-33.5 2.2-11.2.7-22.3 1.4-33.5 2l-33.5 1.9-33.5 1.7c-11.2.6-22.3 1.1-33.5 1.6l-33.5 1.6-67 2.8-5.1.2v-5.2l-.1-14.6v-43.7c.1-19.4 0-38.8.2-58.2l.4-58.2c.1-19.4.4-38.8.7-58.2l.4-29.1.5-29.1.5-29.1.7-29.1c.9-38.8 2-77.6 3.5-116.4 1.3 38.8 2 77.6 2.6 116.4l.4 29.1.3 29.1.3 29.1.1 29.1c.1 19.4.2 38.8.2 58.2l-.1 58.2c0 19.4-.2 38.8-.3 58.2l-.2 29.1-.1 14.6-.2 14.6-5.1-5 67.1-1.6 33.5-.7c11.2-.2 22.4-.5 33.5-.6l33.5-.5 33.5-.3c11.2-.1 22.4-.2 33.6-.2 11.3 0 22.5 0 33.7.1z" class="st27"/>
  <path d="M1219.1 1595.4c-16.6 1.8-33.3 3.5-49.9 5.1-16.6 1.6-33.3 3.2-49.9 4.6l-25 2.2-25 2.1c-16.7 1.4-33.3 2.7-50 4l-4.7.3-.3-4.8c-1.9-36-3.7-72-5.2-108s-3-72-4.1-108c-.6-18-1.2-36-1.7-54s-1-36-1.3-54l-.5-27-.4-27c-.2-18-.4-36.1-.4-54.1 1.5 18 2.9 35.9 4.2 53.9l1.9 27 1.7 27c1.2 18 2.2 36 3.2 54 1.1 18 1.9 36 2.9 54 1.9 36 3.5 72 5 108s2.8 72 3.9 108l-4.9-4.4c16.7-1 33.4-1.8 50.1-2.7l25-1.3 25-1.1c16.7-.8 33.4-1.4 50.1-2 16.8-.9 33.5-1.5 50.3-1.8zm-39.3-740.8c6.1-22.9 12.6-45.6 19.1-68.3 6.6-22.7 13.2-45.4 20-68 6.7-22.7 13.7-45.2 20.6-67.8 6.9-22.6 14-45.1 21.2-67.7l1.6 5.6c-18.7-16.3-37.2-32.7-55.8-49.1l-27.7-24.8-13.9-12.4-13.8-12.5-27.5-25-27.4-25.1c-18.2-16.9-36.3-33.7-54.2-50.9 19.4 15.4 38.5 31.2 57.7 47l28.5 23.8 28.4 24 14.2 12 14.1 12.1 28.2 24.2c18.7 16.2 37.4 32.5 56.1 48.8l2.6 2.3-1 3.3c-7.2 22.5-14.4 45-21.8 67.5-7.4 22.4-14.7 44.9-22.3 67.3-7.5 22.4-15.2 44.8-22.9 67.1-8 22.1-15.8 44.4-24 66.6z" class="st26"/>
  <path d="m694.7 636.8 1.7 34.7-21.6 14.5-1.8-34.6z" class="st25"/>
  <path d="m1166.4 354.6-19.6 13.2-25.3-18.8 19.6-13.2z" class="st24"/>
  <path d="m703.1 803.6 1.7 34.7-19.3 13.1-2.5-2.5-1.5-30.7z" class="st25"/>
  <path d="m828.8 754.7-22.3 15v-35.8l22.2-15z" class="st24"/>
  <path d="m1152.8 500.4 23.2 20.2-19.2 12.9-23.1-20.2z" class="st25"/>
  <path d="m1287.8 445.2-19.6 13.2-25.2-18.8 19.6-13.2z" class="st24"/>
  <path d="m955.7 1096.4 14 14.4-29.5-4z" style="fill:#f5ce30"/>
  <path d="m1292.2 869.5-118.5 115.8-103.2 69.5L1189.1 939zm-528.5 30.1 34.1 35-18.8 12.6-34.1-34.9z" class="st25"/>
  <path d="m885.1 875.7-18.7 12.6-31.6-36.7 18.7-12.6z" class="st24"/>
  <path d="m1241.1 577.7 11.7 10.2-16.1 50.7-29.8 20.1 20.2-63.6-5.1-4.5z" class="st25"/>
  <path d="m1389.2 520.8-4.9 18.4-28.3 19 7.7-28.6-24.4-18.2 19.6-13.2z" class="st24"/>
  <path d="m874.8 1315 27.5-18.5-32.8 80.1-30 20.2z" class="st25"/>
  <path d="M989.3 1640.5c-21.1.4-42.1.6-63.2.7l-31.6.1h-31.6c-10.5 0-21.1-.1-31.6-.1l-31.6-.2c-10.5 0-21.1-.2-31.6-.3l-31.6-.4-7.2-.1 2.8-6.7c7.3-17.4 14.7-34.7 22.1-52l11.1-26c3.7-8.7 7.4-17.3 11.2-25.9l22.5-51.8c3.7-8.6 7.5-17.3 11.3-25.9l11.4-25.8 11.4-25.8 11.5-25.8 11.5-25.8L868 1323c15.6-34.3 31.3-68.5 47.6-102.5-13.6 35.1-27.6 70.1-41.9 104.9l-10.7 26.1-10.8 26.1-10.8 26.1-10.9 26-11 26c-3.6 8.7-7.3 17.4-11 26l-22.2 51.9c-3.7 8.7-7.4 17.3-11.2 25.9l-11.3 25.9c-7.5 17.3-15 34.5-22.6 51.7l-4.4-6.8 31.6.9c10.5.3 21.1.6 31.6 1l31.6 1.1c10.5.4 21 .7 31.6 1.2l31.6 1.3 31.6 1.4c20.8 1 41.8 2.1 62.9 3.3z" class="st27"/>
  <path d="m1129.6 1201.2-28.2 19-70.2-9.7-5.9 61.1-25.3 17 4.2-60.9 54.1-36.4z" style="fill:#dbbf48"/>
  <path d="M1393.7 1238.2c.7-18.2 1.5-36.3 2.5-54.5l1.4-27.2 1.6-27.2c1-18.2 2.2-36.3 3.4-54.4 1.1-18.1 2.4-36.3 3.7-54.4l5.9 5c-34.4 9.2-68.9 18.1-103.4 26.9-34.5 8.8-69 17.5-103.6 25.9l-25.9 6.4-26 6.2c-17.3 4.1-34.6 8.3-52 12.3l-26 6-26 5.9c-17.4 3.9-34.8 7.7-52.2 11.4 17.1-5.1 34.2-10.1 51.3-15l25.7-7.3 25.7-7.2c17.1-4.8 34.3-9.5 51.5-14.1l25.8-7 25.8-6.8c34.4-9.2 68.9-18.1 103.3-27 34.5-8.8 69-17.5 103.6-25.9l6.5-1.6-.6 6.6c-1.6 18.1-3.2 36.2-5 54.3-1.7 18.1-3.4 36.2-5.3 54.3l-2.7 27.1-2.9 27.1c-1.8 18-3.9 36.1-6.1 54.2zm-479.2-152.1-29.6-29-29.5-29.1c-19.6-19.5-39.2-38.9-58.7-58.5-19.5-19.5-39.1-39-58.5-58.7L679.8 852l-1.2-1.2-.1-1.7-4.5-80.7-2.2-40.3-2.1-40.3c-1.4-26.9-2.9-53.8-4.2-80.7l-3.9-80.7-.1-2.8 2.2-1.6 23.1-16.8 23.1-16.7 46.2-33.4 23.1-16.7 23.2-16.6 46.3-33.3 46.4-33.1 23.2-16.6 23.3-16.5c15.5-11 31-22 46.6-32.9 15.5-11 31.2-21.8 46.8-32.7-15.1 11.6-30.2 23.2-45.3 34.7-15.1 11.5-30.3 23-45.5 34.5l-22.8 17.2-22.8 17.1-45.6 34.2-45.7 34.1-22.9 17-22.9 17-45.9 33.9-22.9 17-23 16.9 2.1-4.4 4.2 80.7c1.4 26.9 2.7 53.8 4 80.7l2 40.3 1.9 40.3 3.6 80.7-1.3-2.9 57.4 59.8c19.1 19.9 38.1 40 57.2 60s38 40.1 57 60.2l28.4 30.2 28.3 30.2z" class="st27"/>
  <path d="m996.1 1004.6 18.7-21.4 18.8-21.3c12.5-14.2 25.1-28.3 37.7-42.5 12.6-14.2 25.3-28.2 37.9-42.4l19-21.2 19-21.1-.8 1.5 18.7-60.7 18.9-60.7 9.5-30.3 9.6-30.3 19.1-60.6 1.5 5.5c-15.7-13.6-31.2-27.4-46.8-41.1l-46.8-41.1-46.6-41.3c-15.5-13.8-31.1-27.5-46.5-41.4l5.2.3-53.2 36.6-53.3 36.4-53.5 36.2-26.8 18-26.9 17.9 25.9-19.3 26-19.2 52.2-38.1 52.3-37.9 52.5-37.7 2.7-1.9 2.6 2.2c15.8 13.5 31.5 27.1 47.2 40.7l47.1 40.7 46.9 40.9c15.6 13.7 31.3 27.2 46.9 41l2.6 2.3-1 3.3-19.4 60.5-9.7 30.3-9.8 30.2-19.6 60.5-19.8 60.4-.3.9-.6.6-19.5 20.7-19.5 20.6c-13 13.7-26 27.6-39.1 41.2-13.1 13.7-26.1 27.5-39.3 41.1l-19.7 20.5-20 20.5z" class="st27"/>
  <path d="m971.5 1608.7-23.4.9-23.4.7c-15.6.4-31.2.9-46.7 1.2-15.6.3-31.2.7-46.7.9l-46.7.7-6.6.1 2.5-6.2 21.4-54.1 21.7-54 10.9-27 11.1-26.9c7.4-18 14.7-35.9 22.2-53.8l11.2-26.9c3.7-9 7.5-17.9 11.3-26.9l11.4-26.8c3.8-8.9 7.6-17.9 11.5-26.8l11.5-26.7 11.7-26.7c7.8-17.8 15.7-35.5 23.8-53.2-6.6 18.3-13.3 36.5-20.1 54.7l-10.3 27.3-10.4 27.2c-3.4 9.1-7 18.1-10.5 27.2l-10.6 27.1c-3.5 9.1-7.1 18.1-10.7 27.1l-10.7 27.1c-7.1 18.1-14.4 36-21.7 54.1l-10.9 27-11 27-22.1 53.9-22.4 53.7-4.1-6.1 46.7.7c15.6.2 31.2.6 46.7.9 15.6.3 31.2.8 46.7 1.2l23.4.8c7.7-.1 15.5.2 23.3.6zM828.4 579.8c1.1 19.2 1.9 38.5 2.6 57.7.4 9.6.6 19.2.9 28.9.3 9.6.5 19.2.7 28.9.5 19.2.8 38.5 1.1 57.7l.3 28.9c.1 9.6.1 19.2.2 28.9l-1.3-3.4c14 16.1 27.8 32.3 41.7 48.6 13.8 16.3 27.6 32.6 41.2 49l20.4 24.7 20.2 24.8c13.4 16.6 26.8 33.3 39.7 50.3-14.9-15.4-29.3-31.1-43.8-46.7l-21.6-23.7-21.4-23.8c-14.3-15.9-28.4-31.9-42.4-47.9-14-16.1-28-32.2-41.9-48.4l-1.3-1.5V782c0-9.6.1-19.2.2-28.9.1-19.2.4-38.5.8-57.7.2-9.6.3-19.2.6-28.9.3-9.6.5-19.2.8-28.9.6-19.4 1.3-38.6 2.3-57.8z" class="st26"/>
  <path d="m1200.9 1117.9-54.9 132.6-132.6 54.9-132.6-54.9-54.9-132.6 54.9-132.6 132.6-54.9 132.6 54.9z" class="st21"/>
  <path d="m886.2 1245.1-52.6-127.2 52.6-127.2 127.2-52.6 127.2 52.6 52.7 127.2-52.7 127.2-127.2 52.7z" class="st22"/>
  <path d="m900.6 1230.7-46.7-112.8 46.7-112.8 112.8-46.7 112.8 46.7 46.7 112.8-46.7 112.8-112.8 46.7z" class="st21"/>
  <path d="m1162.4 1117.9-43.6 105.4-105.4 43.6-105.3-43.6-43.7-105.4 43.7-105.3 105.3-43.7 105.4 43.7z" style="fill:#e74d56;stroke:#8d181b;stroke-width:5.6837;stroke-miterlimit:10"/>
  <linearGradient id="SVGID_1_" x1="929.029" x2="1097.8" y1="1117.923" y2="1117.923" gradientUnits="userSpaceOnUse">
    <stop offset="0" style="stop-color:#eb3c57"/>
    <stop offset=".359" style="stop-color:#e63d55"/>
    <stop offset=".802" style="stop-color:#dd3d50"/>
    <stop offset="1" style="stop-color:#d83d4c"/>
  </linearGradient>
  <path d="m953.7 1177.6-24.7-59.7 24.7-59.6 59.7-24.8 59.7 24.8 24.7 59.6-24.7 59.7-59.7 24.7z" style="fill:url(#SVGID_1_)"/>
  <path d="M866.7 1117.9H929l24.7 59.7-42.9 42.9z" style="fill:#ba2026"/>
  <path d="m1073.1 1058.3 42.3-42.4 42.4 102h-60z" style="fill:#f0566f"/>
  <path d="M1013.4 1033.5v-60.1l102 42.5-42.3 42.4z" style="fill:#f3839c"/>
  <path d="M866.7 1117.9H929l24.7-59.6-44.6-42.4z" style="fill:#e22437"/>
  <path d="M1013.4 1033.5c5.1 1.8 10.1 3.7 15.2 5.5 5 1.9 10.1 3.8 15.1 5.8 5 1.9 10 4 15 6l14.9 6.1.5.2.2.5 6.1 14.9 6 15c2 5 3.9 10 5.8 15.1 1.9 5 3.8 10.1 5.5 15.2-2.4-4.9-4.6-9.8-6.8-14.7-2.2-4.9-4.4-9.8-6.6-14.8-2.2-4.9-4.3-9.9-6.4-14.8l-6.2-14.9.8.8-14.9-6.3c-4.9-2.1-9.9-4.2-14.8-6.4-4.9-2.1-9.9-4.3-14.8-6.6-4.8-2-9.7-4.2-14.6-6.6z" style="fill:#f9c6d2"/>
  <path d="M1013.4 1202.3c-5.1-1.8-10.1-3.7-15.2-5.5-5-1.9-10.1-3.8-15.1-5.8-5-1.9-10-4-15-6l-14.9-6.1-.5-.2-.2-.5-6.1-14.9-6-15c-2-5-3.9-10-5.8-15.1-1.9-5-3.8-10.1-5.5-15.2 2.4 4.9 4.6 9.8 6.8 14.7 2.2 4.9 4.4 9.8 6.6 14.8 2.2 4.9 4.3 9.9 6.4 14.8l6.2 14.9-.8-.8 14.9 6.3c4.9 2.1 9.9 4.2 14.8 6.4 4.9 2.1 9.9 4.3 14.8 6.6 4.9 2 9.8 4.3 14.6 6.6z" style="fill:#f05682"/>
  <path d="M1013.4 938.1c10.9 3.7 21.7 7.5 32.5 11.5l16.2 5.9 16.1 6c10.8 4 21.5 8.1 32.2 12.3 10.7 4.1 21.4 8.4 32 12.6l1.8.7.8 1.9c4.5 10.5 9.1 21.1 13.5 31.7 4.5 10.6 8.9 21.2 13.3 31.7 4.4 10.6 8.8 21.2 13.1 31.8 4.3 10.6 8.6 21.3 12.8 31.9l.8 1.9-.8 1.8c-9.1 21.1-18.3 42.1-27.8 63l-7.1 15.7-7.3 15.6c-4.9 10.4-9.8 20.8-14.9 31.1 3.7-10.9 7.5-21.7 11.4-32.5l5.9-16.2 6-16.1c8-21.5 16.4-42.9 24.8-64.2v3.7c-4.5-10.5-9-21.1-13.5-31.7-4.5-10.6-8.9-21.2-13.3-31.7-4.4-10.6-8.8-21.2-13-31.8-4.3-10.6-8.6-21.3-12.8-31.9l2.6 2.6c-10.5-4.6-21.1-9.1-31.5-13.8-10.5-4.6-21-9.3-31.4-14.1l-15.7-7.1-15.6-7.3c-10.4-5-20.8-9.9-31.1-15z" class="st26"/>
</svg>
