<svg xmlns="http://www.w3.org/2000/svg" xml:space="preserve" id="Layer_1" x="0" y="0" style="enable-background:new 0 0 2000 2000" version="1.1" viewBox="0 0 2000 2000">
  <style>
    .st0{fill:#c05e4b}.st1{fill:#e58c83}.st2{fill:#d37959}.st3{fill:#f7a7a9}.st4{fill:#f48889}.st5{fill:#f9b4ae}.st6{fill:#933e32}
  </style>
  <path d="m781.7 807.4-.7-304.7 273.4-192.4 239.4 209.6L1191.4 842l-196.3 213.1-213.4-247.7zm820.9 671.6 35-438.2-460.7 117.7 259.2-253.2L1573 399.4 1049.5 9 508.3 404.8l24 474.2 292.1 299.6-462.1-75.2 69.5 366.5 419.7-48.7L595 1993.3l390 2.8 82.8-591.7 534.8 74.6z" class="st0"/>
  <path d="m1339.1 488.2-91.7-80.2-32.5-28.5-124-108.6-32.6-28.5-.4-.3-19.1 13.5-311.5 219.2.1 41.2.4 191.8.1 50.3.1 69.2 39.7 46 44.4 51.6 181.6 210.7 245.1-266.2 94.1-295.6 22.6-71.3-16.4-14.3zM1291 602.1l-79.9 251.2-216.6 235.2-156.1-181.4-44.4-51.4-34.5-39.9-.1-78.6-.1-50.3-.4-191.8v-3.8l297-209.3 8.2 7.2 124 108.6 32.5 28.5 91.7 80.2 7.3 6.3-28.6 89.3zM1010.1 1341l-4.2 61.3 76.1-51.3-71.9-10zm-72.4-123.3L715.6 990.1l-26.4 17.7 190.4 195.3-392.7-58.9-37.6 25.3 466.5 62.7 41.3 5.6-19.4-20.1zm401.4-729.5-91.7-80.2-32.5-28.5-124-108.6-32.6-28.5-.4-.3-19.1 13.5-311.5 219.2.1 41.2.4 191.8.1 50.3.1 69.2 39.7 46 44.4 51.6 181.6 210.7 245.1-266.2 94.1-295.6 22.6-71.3-16.4-14.3zM1291 602.1l-79.9 251.2-216.6 235.2-156.1-181.4-44.4-51.4-34.5-39.9-.1-78.6-.1-50.3-.4-191.8v-3.8l297-209.3 8.2 7.2 124 108.6 32.5 28.5 91.7 80.2 7.3 6.3-28.6 89.3zm48.1-113.9-91.7-80.2-32.5-28.5-124-108.6-32.6-28.5-.4-.3-19.1 13.5-311.5 219.2.1 41.2.4 191.8.1 50.3.1 69.2 39.7 46 44.4 51.6 181.6 210.7 245.1-266.2 94.1-295.6 22.6-71.3-16.4-14.3zM1291 602.1l-79.9 251.2-216.6 235.2-156.1-181.4-44.4-51.4-34.5-39.9-.1-78.6-.1-50.3-.4-191.8v-3.8l297-209.3 8.2 7.2 124 108.6 32.5 28.5 91.7 80.2 7.3 6.3-28.6 89.3zM1010.1 1341l-4.2 61.3 76.1-51.3-71.9-10zm329-852.8-91.7-80.2-32.5-28.5-124-108.6-32.6-28.5-.4-.3-19.1 13.5-311.5 219.2.1 41.2.4 191.8.1 50.3.1 69.2 39.7 46 44.4 51.6 181.6 210.7 245.1-266.2 94.1-295.6 22.6-71.3-16.4-14.3zM1291 602.1l-79.9 251.2-216.6 235.2-156.1-181.4-44.4-51.4-34.5-39.9-.1-78.6-.1-50.3-.4-191.8v-3.8l297-209.3 8.2 7.2 124 108.6 32.5 28.5 91.7 80.2 7.3 6.3-28.6 89.3zm48.1-113.9-91.7-80.2-32.5-28.5-124-108.6-32.6-28.5-.4-.3-19.1 13.5-311.5 219.2.1 41.2.4 191.8.1 50.3.1 69.2 39.7 46 44.4 51.6 181.6 210.7 245.1-266.2 94.1-295.6 22.6-71.3-16.4-14.3zM1291 602.1l-79.9 251.2-216.6 235.2-156.1-181.4-44.4-51.4-34.5-39.9-.1-78.6-.1-50.3-.4-191.8v-3.8l297-209.3 8.2 7.2 124 108.6 32.5 28.5 91.7 80.2 7.3 6.3-28.6 89.3zM1010.1 1341l-4.2 61.3 76.1-51.3-71.9-10zm329-852.8-91.7-80.2-32.5-28.5-124-108.6-32.6-28.5-.4-.3-19.1 13.5-311.5 219.2.1 41.2.4 191.8.1 50.3.1 69.2 39.7 46 44.4 51.6 181.6 210.7 245.1-266.2 94.1-295.6 22.6-71.3-16.4-14.3zM1291 602.1l-79.9 251.2-216.6 235.2-156.1-181.4-44.4-51.4-34.5-39.9-.1-78.6-.1-50.3-.4-191.8v-3.8l297-209.3 8.2 7.2 124 108.6 32.5 28.5 91.7 80.2 7.3 6.3-28.6 89.3zm48.1-113.9-91.7-80.2-32.5-28.5-124-108.6-32.6-28.5-.4-.3-19.1 13.5-311.5 219.2.1 41.2.4 191.8.1 50.3.1 69.2 39.7 46 44.4 51.6 181.6 210.7 245.1-266.2 94.1-295.6 22.6-71.3-16.4-14.3zM1291 602.1l-79.9 251.2-216.6 235.2-156.1-181.4-44.4-51.4-34.5-39.9-.1-78.6-.1-50.3-.4-191.8v-3.8l297-209.3 8.2 7.2 124 108.6 32.5 28.5 91.7 80.2 7.3 6.3-28.6 89.3zM1010.1 1341l-4.2 61.3 76.1-51.3-71.9-10zm329-852.8-91.7-80.2-32.5-28.5-124-108.6-32.6-28.5-.4-.3-19.1 13.5-311.5 219.2.1 41.2.4 191.8.1 50.3.1 69.2 39.7 46 44.4 51.6 181.6 210.7 245.1-266.2 94.1-295.6 22.6-71.3-16.4-14.3zM1291 602.1l-79.9 251.2-216.6 235.2-156.1-181.4-44.4-51.4-34.5-39.9-.1-78.6-.1-50.3-.4-191.8v-3.8l297-209.3 8.2 7.2 124 108.6 32.5 28.5 91.7 80.2 7.3 6.3-28.6 89.3zm48.1-113.9-91.7-80.2-32.5-28.5-124-108.6-32.6-28.5-.4-.3-19.1 13.5-311.5 219.2.1 41.2.4 191.8.1 50.3.1 69.2 39.7 46 44.4 51.6 181.6 210.7 245.1-266.2 94.1-295.6 22.6-71.3-16.4-14.3zM1291 602.1l-79.9 251.2-216.6 235.2-156.1-181.4-44.4-51.4-34.5-39.9-.1-78.6-.1-50.3-.4-191.8v-3.8l297-209.3 8.2 7.2 124 108.6 32.5 28.5 91.7 80.2 7.3 6.3-28.6 89.3zM1010.1 1341l-4.2 61.3 76.1-51.3-71.9-10zm329-852.8-91.7-80.2-32.5-28.5-124-108.6-32.6-28.5-.4-.3-19.1 13.5-311.5 219.2.1 41.2.4 191.8.1 50.3.1 69.2 39.7 46 44.4 51.6 181.6 210.7 245.1-266.2 94.1-295.6 22.6-71.3-16.4-14.3zM1291 602.1l-79.9 251.2-216.6 235.2-156.1-181.4-44.4-51.4-34.5-39.9-.1-78.6-.1-50.3-.4-191.8v-3.8l297-209.3 8.2 7.2 124 108.6 32.5 28.5 91.7 80.2 7.3 6.3-28.6 89.3zm48.1-113.9-91.7-80.2-32.5-28.5-124-108.6-32.6-28.5-.4-.3-19.1 13.5-311.5 219.2.1 41.2.4 191.8.1 50.3.1 69.2 39.7 46 44.4 51.6 181.6 210.7 245.1-266.2 94.1-295.6 22.6-71.3-16.4-14.3zM1291 602.1l-79.9 251.2-216.6 235.2-156.1-181.4-44.4-51.4-34.5-39.9-.1-78.6-.1-50.3-.4-191.8v-3.8l297-209.3 8.2 7.2 124 108.6 32.5 28.5 91.7 80.2 7.3 6.3-28.6 89.3zm48.1-113.9-91.7-80.2-32.5-28.5-124-108.6-32.6-28.5-.4-.3-19.1 13.5-311.5 219.2.1 41.2.4 191.8.1 50.3.1 69.2 39.7 46 44.4 51.6 181.6 210.7 245.1-266.2 94.1-295.6 22.6-71.3-16.4-14.3zM1291 602.1l-79.9 251.2-216.6 235.2-156.1-181.4-44.4-51.4-34.5-39.9-.1-78.6-.1-50.3-.4-191.8v-3.8l297-209.3 8.2 7.2 124 108.6 32.5 28.5 91.7 80.2 7.3 6.3-28.6 89.3zm48.1-113.9-91.7-80.2-32.5-28.5-124-108.6-32.6-28.5-.4-.3-19.1 13.5-311.5 219.2.1 41.2.4 191.8.1 50.3.1 69.2 39.7 46 44.4 51.6 181.6 210.7 245.1-266.2 94.1-295.6 22.6-71.3-16.4-14.3zM1291 602.1l-79.9 251.2-216.6 235.2-156.1-181.4-44.4-51.4-34.5-39.9-.1-78.6-.1-50.3-.4-191.8v-3.8l297-209.3 8.2 7.2 124 108.6 32.5 28.5 91.7 80.2 7.3 6.3-28.6 89.3zm138.4 514.9-327.6 83.7 142.5-139.2L1411 898.6l5.1-4.9L1540.3 434l7-25.7-42.6-31.8-100-74.5-35.6-26.4-135.3-101-35.6-26.4-149-111.3-518 378.9 8.9 176.1 2.5 48.8 9.4 185.9 2.3 43.2 3.4 3.5 83.5 85.6 48 49.2 190.4 195.3-392.7-58.9L390 1130l13.5 70.9 46.4 244.9 183.7-22.6 91.6-11.3 156.1-19.3-57.4 132.9-49.6 115L629.6 1976l355.3 7.3 50.6-519 8.4-85.9 98.6 13.8 439.8 61.3 30.1-378.3.4-4.9-183.4 46.7zm124.3 300.1-371.6-51.9-100.1-14.1-71.9-10-4.2 61.3-5.9 85.5-31.8 465.1-290.4-2 138.7-339.4 46-112.7 60.3-147.7-135.6 18-93.2 12.4-218.6 29.3-43.6-229.5-2.8-14.6 20.4 2.7 466.5 62.7 41.3 5.6-19.7-20.3-221.9-227.4-48-49.2-82.6-84.8v-1.4l-2.5-48.8-9.5-185.8-2.5-48.8-7.2-140.2 485.9-355.4 121.7 90.7 35.6 26.4 135.3 101 35.6 26.4 100 74.5 34.3 25.6-10.8 40.2-112.7 416.3-122.1 119.3-166.8 162.9-103.1 100.7 356-90.9L1547 1119l31.4-8-24.7 306.1zm-220.8-843.3 22.6-71.3L1339 488l-91.7-80.2-32.5-28.5-124-108.6-32.6-28.5-.4-.3-19.1 13.5-311.4 219.4.1 41.2.4 191.8.1 50.3.1 69.2 39.7 46 44.4 51.6 181.6 210.7 245.1-266.2 94.1-295.6zm-338.4 514.8L838.4 907.3 794 855.7l-34.5-39.9-.1-78.6-.1-50.3-.4-191.8v-3.8l297-209.3 8.2 7.2 124 108.6 32.5 28.5 91.7 80.2 7.3 6.3-28.4 89.4-79.9 251.2-216.8 235.2zm344.6-600.4-91.7-80.2-32.5-28.5-124-108.6-32.6-28.5-.4-.3-19.1 13.5-311.5 219.2.1 41.2.4 191.8.1 50.3.1 69.2 39.7 46 44.4 51.6 181.6 210.7 245.1-266.2 94.1-295.6 22.6-71.3-16.4-14.3zM1291 602.1l-79.9 251.2-216.6 235.2-156.1-181.4-44.4-51.4-34.5-39.9-.1-78.6-.1-50.3-.4-191.8v-3.8l297-209.3 8.2 7.2 124 108.6 32.5 28.5 91.7 80.2 7.3 6.3-28.6 89.3zm48.1-113.9-91.7-80.2-32.5-28.5-124-108.6-32.6-28.5-.4-.3-19.1 13.5-311.5 219.2.1 41.2.4 191.8.1 50.3.1 69.2 39.7 46 44.4 51.6 181.6 210.7 245.1-266.2 94.1-295.6 22.6-71.3-16.4-14.3zM1291 602.1l-79.9 251.2-216.6 235.2-156.1-181.4-44.4-51.4-34.5-39.9-.1-78.6-.1-50.3-.4-191.8v-3.8l297-209.3 8.2 7.2 124 108.6 32.5 28.5 91.7 80.2 7.3 6.3-28.6 89.3zM1010.1 1341l-4.2 61.3 76.1-51.3-71.9-10zm329-852.8-91.7-80.2-32.5-28.5-124-108.6-32.6-28.5-.4-.3-19.1 13.5-311.5 219.2.1 41.2.4 191.8.1 50.3.1 69.2 39.7 46 44.4 51.6 181.6 210.7 245.1-266.2 94.1-295.6 22.6-71.3-16.4-14.3zM1291 602.1l-79.9 251.2-216.6 235.2-156.1-181.4-44.4-51.4-34.5-39.9-.1-78.6-.1-50.3-.4-191.8v-3.8l297-209.3 8.2 7.2 124 108.6 32.5 28.5 91.7 80.2 7.3 6.3-28.6 89.3zm48.1-113.9-91.7-80.2-32.5-28.5-124-108.6-32.6-28.5-.4-.3-19.1 13.5-311.5 219.2.1 41.2.4 191.8.1 50.3.1 69.2 39.7 46 44.4 51.6 181.6 210.7 245.1-266.2 94.1-295.6 22.6-71.3-16.4-14.3zM1291 602.1l-79.9 251.2-216.6 235.2-156.1-181.4-44.4-51.4-34.5-39.9-.1-78.6-.1-50.3-.4-191.8v-3.8l297-209.3 8.2 7.2 124 108.6 32.5 28.5 91.7 80.2 7.3 6.3-28.6 89.3zM1010.1 1341l-4.2 61.3 76.1-51.3-71.9-10zm329-852.8-91.7-80.2-32.5-28.5-124-108.6-32.6-28.5-.4-.3-19.1 13.5-311.5 219.2.1 41.2.4 191.8.1 50.3.1 69.2 39.7 46 44.4 51.6 181.6 210.7 245.1-266.2 94.1-295.6 22.6-71.3-16.4-14.3zM1291 602.1l-79.9 251.2-216.6 235.2-156.1-181.4-44.4-51.4-34.5-39.9-.1-78.6-.1-50.3-.4-191.8v-3.8l297-209.3 8.2 7.2 124 108.6 32.5 28.5 91.7 80.2 7.3 6.3-28.6 89.3zm48.1-113.9-91.7-80.2-32.5-28.5-124-108.6-32.6-28.5-.4-.3-19.1 13.5-311.5 219.2.1 41.2.4 191.8.1 50.3.1 69.2 39.7 46 44.4 51.6 181.6 210.7 245.1-266.2 94.1-295.6 22.6-71.3-16.4-14.3zM1291 602.1l-79.9 251.2-216.6 235.2-156.1-181.4-44.4-51.4-34.5-39.9-.1-78.6-.1-50.3-.4-191.8v-3.8l297-209.3 8.2 7.2 124 108.6 32.5 28.5 91.7 80.2 7.3 6.3-28.6 89.3zM1010.1 1341l-4.2 61.3 76.1-51.3-71.9-10zm329-852.8-91.7-80.2-32.5-28.5-124-108.6-32.6-28.5-.4-.3-19.1 13.5-311.5 219.2.1 41.2.4 191.8.1 50.3.1 69.2 39.7 46 44.4 51.6 181.6 210.7 245.1-266.2 94.1-295.6 22.6-71.3-16.4-14.3zM1291 602.1l-79.9 251.2-216.6 235.2-156.1-181.4-44.4-51.4-34.5-39.9-.1-78.6-.1-50.3-.4-191.8v-3.8l297-209.3 8.2 7.2 124 108.6 32.5 28.5 91.7 80.2 7.3 6.3-28.6 89.3zm48.1-113.9-91.7-80.2-32.5-28.5-124-108.6-32.6-28.5-.4-.3-19.1 13.5-311.5 219.2.1 41.2.4 191.8.1 50.3.1 69.2 39.7 46 44.4 51.6 181.6 210.7 245.1-266.2 94.1-295.6 22.6-71.3-16.4-14.3zM1291 602.1l-79.9 251.2-216.6 235.2-156.1-181.4-44.4-51.4-34.5-39.9-.1-78.6-.1-50.3-.4-191.8v-3.8l297-209.3 8.2 7.2 124 108.6 32.5 28.5 91.7 80.2 7.3 6.3-28.6 89.3zM1010.1 1341l-4.2 61.3 76.1-51.3-71.9-10zm329-852.8-91.7-80.2-32.5-28.5-124-108.6-32.6-28.5-.4-.3-19.1 13.5-311.5 219.2.1 41.2.4 191.8.1 50.3.1 69.2 39.7 46 44.4 51.6 181.6 210.7 245.1-266.2 94.1-295.6 22.6-71.3-16.4-14.3zM1291 602.1l-79.9 251.2-216.6 235.2-156.1-181.4-44.4-51.4-34.5-39.9-.1-78.6-.1-50.3-.4-191.8v-3.8l297-209.3 8.2 7.2 124 108.6 32.5 28.5 91.7 80.2 7.3 6.3-28.6 89.3zm48.1-113.9-91.7-80.2-32.5-28.5-124-108.6-32.6-28.5-.4-.3-19.1 13.5-311.5 219.2.1 41.2.4 191.8.1 50.3.1 69.2 39.7 46 44.4 51.6 181.6 210.7 245.1-266.2 94.1-295.6 22.6-71.3-16.4-14.3zM1291 602.1l-79.9 251.2-216.6 235.2-156.1-181.4-44.4-51.4-34.5-39.9-.1-78.6-.1-50.3-.4-191.8v-3.8l297-209.3 8.2 7.2 124 108.6 32.5 28.5 91.7 80.2 7.3 6.3-28.6 89.3zM1010.1 1341l-4.2 61.3 76.1-51.3-71.9-10zm329-852.8-91.7-80.2-32.5-28.5-124-108.6-32.6-28.5-.4-.3-19.1 13.5-311.5 219.2.1 41.2.4 191.8.1 50.3.1 69.2 39.7 46 44.4 51.6 181.6 210.7 245.1-266.2 94.1-295.6 22.6-71.3-16.4-14.3zM1291 602.1l-79.9 251.2-216.6 235.2-156.1-181.4-44.4-51.4-34.5-39.9-.1-78.6-.1-50.3-.4-191.8v-3.8l297-209.3 8.2 7.2 124 108.6 32.5 28.5 91.7 80.2 7.3 6.3-28.6 89.3zm48.1-113.9-91.7-80.2-32.5-28.5-124-108.6-32.6-28.5-.4-.3-19.1 13.5-311.5 219.2.1 41.2.4 191.8.1 50.3.1 69.2 39.7 46 44.4 51.6 181.6 210.7 245.1-266.2 94.1-295.6 22.6-71.3-16.4-14.3zM1291 602.1l-79.9 251.2-216.6 235.2-156.1-181.4-44.4-51.4-34.5-39.9-.1-78.6-.1-50.3-.4-191.8v-3.8l297-209.3 8.2 7.2 124 108.6 32.5 28.5 91.7 80.2 7.3 6.3-28.6 89.3zm48.1-113.9-91.7-80.2-32.5-28.5-124-108.6-32.6-28.5-.4-.3-19.1 13.5-311.5 219.2.1 41.2.4 191.8.1 50.3.1 69.2 39.7 46 44.4 51.6 181.6 210.7 245.1-266.2 94.1-295.6 22.6-71.3-16.4-14.3zM1291 602.1l-79.9 251.2-216.6 235.2-156.1-181.4-44.4-51.4-34.5-39.9-.1-78.6-.1-50.3-.4-191.8v-3.8l297-209.3 8.2 7.2 124 108.6 32.5 28.5 91.7 80.2 7.3 6.3-28.6 89.3z" class="st1"/>
  <path d="m1543 1136.5-57.5 14.8-123.9 31.6-128.3 32.8-290.1 74.1 36-35.2-230.2-30-66-8.6-53.2-6.9-119.3-15.5-61.9-8 30.7 161.5 8.9 47 50.9-7 216-29.8 79.6-11 35.4-4.9 44-6 29.5-4.1-7.6 18.7-11.4 28-9.1 22.5L895 1451l-55.7 137-20.5 50.5-25.3 62.3-20.5 50.5-18 44.3-35.4 87.3-22.5 55.3h263l.3-5.2 3-54.4 3.4-62 4.1-76.5 3.4-62 9-168.3 3.4-62 1.5-27.7 1.8-34.3 3.4-63.1L1496 1393l43.6 6 7.3-91.1 8.7-109.4 4.1-50.8 1.3-15.8-18 4.6zm-356.5-187-65.4 71 57.7 39 69.8-68.2-62.1-41.8zm0 0-65.4 71 57.7 39 69.8-68.2-62.1-41.8zM1049.1 95.2l-267 195.4-19.4 14.2-16.2 11.8-33.3 24.3-133.6 97.7 2.5 49.2 2.8 55.4 6 119.3 6.2 123.5 3.2 63.1L987.5 1246l119-116.3 72.3-70.6 69.8-68.2 32.5-31.6 93-90.9 18.7-69.3 10.7-39.7 5.2-19.3 6.3-23.1 78.6-290.8-444.5-331zm274.2 560.6-7.2 22.5-5.9 18.7-12.2 38.7-45.1 141.9-35.9 39-30.4 33.1-65.4 71-67.8 73.6-59.9 65.1L776 907l-63.4-73.7-.3-88.6-.3-115.5-.1-53.7-.3-108.9 92-64.7 34-23.9 16.5-11.5 19.8-13.9 185.2-130.4 314.6 275.4-50.4 158.2zm-136.8 293.7-65.4 71 57.7 39 69.8-68.2-62.1-41.8zm0 0-65.4 71 57.7 39 69.8-68.2-62.1-41.8z" class="st2"/>
  <path d="m837.6 378-34.1 24-90.3-61.1 33.4-24.3zM1403.5 759.9l-10.8 39.6-94.7-63.9 12.3-38.6z" class="st3"/>
  <path d="m712 629.2-127.2-85.8L582 488l129.8 87.5zM1217 916.4l64 43.3-32.5 31.7-62-41.9zM1559.5 1147.6l-4.1 50.8-70.1-47.3 57.7-14.6zM776 907 597.2 786.3l-6.3-123.6 121.4 81.9.1 88.7zM1121.1 1020.6l57.7 38.9-72.3 70.6-53.2-35.9zM1546.7 1307.8l-7.2 91.2-43.6-6.1-262.7-177.3 128.2-32.8z" class="st4"/>
  <path d="M873.8 352.5 854 366.4l-91.3-61.6 19.4-14.2zM1414.9 717.6l-6.2 23.2-92.5-62.5 7.1-22.5z" class="st3"/>
  <path d="M429.1 1166.9c4.9 20.1 9.7 40.4 14.3 60.5l6.9 30.4 6.6 30.4 3.4 15.2 3.2 15.2 6.3 30.4c2.1 10.1 4.2 20.3 6.3 30.4l6.2 30.5-7.7-5.5c37.3-5.3 74.5-10.4 111.8-15.5 37.3-4.9 74.7-9.6 111.9-14.2l28-3.4 28-3.2 28-3.2 28.1-3 28.1-3 28.1-2.7c18.7-1.8 37.6-3.5 56.3-4.9-18.6 3.5-37 6.8-55.6 10l-27.8 4.6-27.8 4.5-27.8 4.5-27.8 4.2-27.8 4.2-27.8 4.1c-37.3 5.5-74.5 10.7-111.8 15.6s-74.5 9.8-111.9 14.3l-6.6.8-1.1-6.3-5.5-30.7c-1.8-10.3-3.5-20.4-5.3-30.7l-5.2-30.7-2.5-15.3-2.5-15.3-4.9-30.7-4.8-30.7c-3.6-19.7-6.6-40.3-9.3-60.8zM390 1129.6c41.2 3.1 82.3 7.6 123.2 12.7 40.9 5.1 81.9 10.7 122.6 16.7 40.8 6 81.6 12.8 122.2 20 40.6 7.3 81.1 14.9 121.5 24.2-41.2-3.1-82.3-7.6-123.2-12.7-40.9-5.1-81.9-10.7-122.6-16.9s-81.6-12.8-122.2-20c-40.4-7.1-81.1-14.7-121.5-24z" class="st5"/>
  <path d="M881.2 1392.2c-35.7 6.3-71.4 11.8-107.3 17.3l-26.9 3.9c-9 1.4-17.9 2.7-26.9 3.9l-53.7 7.6c-35.9 4.9-71.7 9.7-107.7 14.3l-53.9 6.8-53.9 6.5-6.8.8-1.3-6.8c-4.9-26.3-9.7-52.7-14.3-79-4.8-26.3-9.1-52.7-13.6-79.2-2.3-13.2-4.4-26.4-6.6-39.7-2.1-13.2-4.4-26.4-6.3-39.7-2.1-13.2-4.2-26.4-6-39.7-2-13.2-3.9-26.4-5.8-39.8 3.2 13.1 6.2 26 9.3 39.1 3.1 13.1 5.9 26.2 8.9 39.2s5.8 26.2 8.6 39.2 5.8 26.2 8.4 39.2c5.5 26.2 11 52.5 16.3 78.6 5.3 26.3 10.5 52.5 15.6 78.8l-8-5.9 53.9-6.8 53.9-6.5c36-4.2 71.9-8.3 107.9-12.2l54-5.6c9-1 18-1.8 27-2.7l27-2.7c36-3 72-6.4 108.2-8.9z" class="st6"/>
  <path d="M1101.7 1200.5c42.2-12.7 84.4-24.6 126.9-36.6l31.8-8.9c10.5-3 21.2-5.9 31.8-8.7l63.7-17.3c42.5-11.3 84.9-22.6 127.6-33.6l63.9-16.5 64-16.2 9.8-2.5-.8 10.1c-2.7 31.9-5.5 63.9-8.4 95.8-2.8 31.9-5.9 63.9-8.9 95.6-1.5 15.9-3.2 31.9-4.8 47.8s-3.2 31.9-4.9 47.8c-1.7 15.9-3.4 31.9-5.2 47.8-1.8 15.9-3.7 31.8-5.6 47.8.6-16 1.3-32.1 2.1-48.1.7-16 1.5-32.1 2.4-48 .8-16 1.7-32.1 2.7-48 1-16 1.8-31.9 2.8-48 2.1-31.9 4.1-64 6.3-95.9 2.3-31.9 4.5-64 6.9-95.9l9 7.6-63.9 16.5-64 16.2c-42.6 10.8-85.4 21.1-128 31.6l-64.1 15.3c-10.7 2.5-21.4 5.1-32.1 7.6l-32.1 7.5c-43 10.4-85.7 20.2-128.9 29.2zM1049.4 36.7c42.6 29.5 84.7 59.6 126.9 89.7l63 45.4 62.9 45.7 62.6 46c20.8 15.3 41.8 30.7 62.4 46.1 41.6 30.8 83.3 61.6 124.6 92.8l3.9 3-1.3 4.8-16.6 60.6-16.9 60.6L1504 592l-17.2 60.5-8.6 30.2-8.7 30.2c-5.9 20.1-11.5 40.2-17.6 60.3-11.8 40.2-23.8 80.4-36 120.5 9.6-40.8 19.5-81.6 29.7-122.2 4.9-20.4 10.1-40.6 15.3-61l7.7-30.5 7.9-30.4 15.6-60.9 15.9-60.8 16-60.8 16.3-60.8 2.7 7.7c-41.6-30.8-83-61.9-124.5-93-20.7-15.5-41.3-31.1-62-46.8l-61.9-47-61.7-47.3-61.5-47.5c-40.7-31.4-81.7-63.3-122-95.7z" class="st5"/>
  <path d="M1145.6 1370.7c21 48.8 41.3 97.9 61.5 147l15 36.8 14.9 37c10 24.6 19.8 49.2 29.7 74l29.4 74.1 29 74.3c9.7 24.8 19.3 49.5 28.7 74.3 9.4 24.8 19.1 49.5 28.6 74.4l3.5 9.3-9.8.3-94.4 2.3c-31.5.6-62.9 1.3-94.4 1.7-31.5.4-62.9 1-94.4 1.1-15.8.1-31.5.3-47.3.3-15.8.1-31.5 0-47.3 0 15.8-1.1 31.4-2.1 47.1-3.1 15.8-1 31.4-2 47.1-2.8 31.4-1.8 62.9-3.5 94.2-5.1s62.9-3 94.2-4.5l94.2-3.9-6.3 9.6c-9.8-24.8-19.4-49.5-29-74.1-9.7-24.8-19.4-49.5-28.8-74.3l-28.6-74.4-28.1-74.5c-9.4-24.8-18.7-49.8-27.8-74.7l-13.9-37.4-13.6-37.4c-18.1-50-36.1-100-53.4-150.3z" style="fill:#fff4c6"/>
  <path d="m993.2 1322.6-8.1 673.5 415.2-9.4-204.5-567.1" class="st0"/>
  <path d="M987.5 1246.4c-33.6-31.8-66.7-64.1-99.7-96.5-16.5-16.3-33.1-32.3-49.4-48.7l-49.1-48.9c-32.5-32.8-65.3-65.5-97.5-98.6l-48.5-49.5-48.2-49.8-2-2-.1-2.7c-.8-17.2-1.7-34.2-2.4-51.3l-2.1-51.3c-1.5-34.2-2.7-68.5-3.9-102.8-.7-17.2-1.1-34.3-1.7-51.3-.6-17.2-1.1-34.3-1.4-51.3-.4-17.2-.8-34.3-1.1-51.5-.4-17.2-.7-34.3-.8-51.5 1.5 17 3 34.2 4.4 51.2 1.4 17 2.7 34.2 3.9 51.3 1.4 17.2 2.5 34.2 3.8 51.3 1.1 17.2 2.5 34.2 3.5 51.3 2.3 34.2 4.5 68.4 6.5 102.7l3.1 51.3c1 17.2 1.8 34.2 2.8 51.3l-2.1-4.6L654 894l48.2 49.8c32.2 33.1 64.1 66.5 96.1 99.9L846 1094c15.9 16.7 31.6 33.8 47.5 50.5 31.7 33.5 63 67.4 94 101.9z" class="st5"/>
  <path d="m1145.6 1370.7 230 594.3-377.1 12.4 2.6-654.8" class="st1"/>
  <path d="m987.8 1330.3 29.5 620.8 308.1-16.4-209.8-593.1" class="st0"/>
  <path d="M1582.4 1453.2c-45.3-3.2-90.4-7.9-135.4-13.1-45-5.2-90-11-134.9-17.2-44.9-6.2-89.7-13.1-134.5-20.4-44.7-7.5-89.3-15.2-133.7-24.6 45.3 3.2 90.4 7.9 135.4 12.9 45 5.2 90 11 134.9 17.2 44.9 6.3 89.7 13.1 134.5 20.4 44.5 7.7 89.2 15.6 133.7 24.8z" class="st6"/>
  <path d="m1308.1 1919.5-63 4-107.7 7.2-87.5 5.8-23.2 1.5-.7-17.6-2.8-66.1-3.5-81.5-2.7-66.1-7.6-179.3-2.8-66.3-1.1-29.4-1.6-36.5-2.8-64.9 99.2 8.6 56.8 158.8 16.7 46.7 13.5 37.7 30.3 84.5 82 229.1z" class="st2"/>
  <path d="m629.7 1209 204.9 137.1L755 1357l-244.6-163.5zM915.6 1400.2l70.9 47.4-3.4 62-88-58.9zM1217.6 1666.6l-208.2-139.2-2.8-66.3 180.7 121z" class="st3"/>
  <path d="m479.2 1346.8 59.8 40.1-50.9 6.9zM839.4 1587.8l134.6 90-3.4 62.1-151.7-101.6zM1308.1 1919.5l-63 4-225.4-150.7-2.7-66.1 282.6 189zM793.4 1700.6l173.1 115.8-3.3 62-190.3-127.3zM1137.4 1930.7l-87.5 5.8-23.9-16.1-2.8-66.1zM960.2 1932.8l-.3 5.4-157.9-.2-82.6-55.2 35.5-87.4z" class="st4"/>
  <path d="m1173.8 1544.4-168.3-112.7-17.6-11.6-63.1-42.4-54.8-36.5L682.9 1216l65.9 8.6 165.4 110.5 21.9 14.6 53.8 36 14 9.5 153.2 102.5z" class="st3"/>
  <path d="M1375.6 1965c-15.8 1.1-31.4 2.1-47.1 3.1-15.8 1-31.4 2-47.1 2.8l-47.1 2.7-47.1 2.4c-15.8.8-31.4 1.5-47.1 2.3l-47.1 2.3-94.2 3.9-7.2.3v-7.3l-.1-20.5v-61.4c.1-27.3 0-54.6.3-81.9l.6-81.9c.1-27.3.6-54.6 1-81.9l.6-40.9.7-40.9.7-40.9 1-40.9c1.3-54.6 2.8-109.1 4.9-163.7 1.8 54.6 2.8 109.1 3.7 163.7l.6 40.9.4 40.9.4 40.9.1 40.9c.1 27.3.3 54.6.3 81.9l-.1 81.9c0 27.3-.3 54.6-.4 81.9l-.3 40.9-.1 20.5-.3 20.5-7.2-7 94.4-2.3 47.1-1c15.8-.3 31.5-.7 47.1-.8l47.1-.7 47.1-.4c15.8-.1 31.5-.3 47.3-.3 15.6-.1 31.4-.1 47.1 0z" class="st6"/>
  <path d="M1308.1 1919.5c-23.3 2.5-46.8 4.9-70.2 7.2s-46.8 4.5-70.2 6.5l-35.2 3.1-35.2 3c-23.5 2-46.8 3.8-70.3 5.6l-6.6.4-.4-6.8c-2.7-50.6-5.2-101.3-7.3-151.9-2.1-50.6-4.2-101.3-5.8-151.9-.8-25.3-1.7-50.6-2.4-75.9-.7-25.3-1.4-50.6-1.8-75.9l-.7-38-.6-38c-.3-25.3-.6-50.8-.6-76.1 2.1 25.3 4.1 50.5 5.9 75.8l2.7 38 2.4 38c1.7 25.3 3.1 50.6 4.5 75.9 1.5 25.3 2.7 50.6 4.1 75.9 2.7 50.6 4.9 101.3 7 151.9 2.1 50.6 3.9 101.3 5.5 151.9l-6.9-6.2c23.5-1.4 47-2.5 70.5-3.8l35.2-1.8 35.2-1.5c23.5-1.1 47-2 70.5-2.8 23.6-1.4 47.1-2.2 70.7-2.6zM1252.9 877.6c8.6-32.2 17.7-64.1 26.9-96.1 9.3-31.9 18.6-63.9 28.1-95.6 9.4-31.9 19.3-63.6 29-95.4 9.7-31.8 19.7-63.4 29.8-95.2l2.3 7.9c-26.3-22.9-52.3-46-78.5-69.1l-39-34.9-19.5-17.4-19.4-17.6-38.7-35.2-38.5-35.3c-25.6-23.8-51.1-47.4-76.2-71.6 27.3 21.7 54.1 43.9 81.1 66.1l40.1 33.5 39.9 33.8 20 16.9 19.8 17 39.7 34c26.3 22.8 52.6 45.7 78.9 68.6l3.7 3.2-1.4 4.6c-10.1 31.6-20.3 63.3-30.7 94.9-10.4 31.5-20.7 63.1-31.4 94.7-10.5 31.5-21.4 63-32.2 94.4-11.3 31.2-22.3 62.6-33.8 93.8z" class="st5"/>
  <path d="m570.6 571.3 2.4 48.8-30.4 20.4-2.5-48.7z" class="st4"/>
  <path d="m1234 174.4-27.5 18.6-35.6-26.5 27.5-18.5z" class="st3"/>
  <path d="m582.4 805.9 2.4 48.8-27.1 18.4-3.5-3.5-2.1-43.2z" class="st4"/>
  <path d="m759.2 737.1-31.3 21.1v-50.4l31.2-21z" class="st3"/>
  <path d="m1214.9 379.5 32.6 28.4-27 18.1-32.5-28.4z" class="st4"/>
  <path d="m1404.8 301.8-27.6 18.6-35.4-26.5 27.5-18.5z" class="st3"/>
  <path d="m937.7 1217.7 19.7 20.2-41.5-5.6z" style="fill:#f5ce30"/>
  <path d="m1411 898.6-166.7 162.8-145.1 97.8L1266 996.3zM667.7 940.9l47.9 49.2-26.4 17.7-48-49z" class="st4"/>
  <path d="M838.4 907.3 812.1 925l-44.4-51.6 26.3-17.7z" class="st3"/>
  <path d="m1339.1 488.2 16.4 14.3-22.6 71.3-41.9 28.3 28.4-89.5-7.2-6.3z" class="st4"/>
  <path d="m1547.4 408.1-6.9 25.9-39.8 26.7 10.8-40.2-34.3-25.6 27.6-18.5z" class="st3"/>
  <path d="m823.9 1525.1 38.7-26-46.1 112.6-42.2 28.5z" class="st4"/>
  <path d="M985 1982.9c-29.7.6-59.2.8-88.9 1l-44.4.1h-44.4c-14.8 0-29.7-.1-44.4-.1l-44.4-.3c-14.8 0-29.7-.3-44.4-.4l-44.4-.6-10.1-.1 3.9-9.4c10.3-24.5 20.7-48.8 31.1-73.1l15.6-36.6c5.2-12.2 10.4-24.3 15.8-36.4l31.6-72.9c5.2-12.1 10.5-24.3 15.9-36.4l16-36.3 16-36.3 16.2-36.3 16.2-36.3 16.7-36.1c21.9-48.2 44-96.3 66.9-144.2-19.1 49.4-38.8 98.6-58.9 147.5l-15 36.7-15.2 36.7-15.2 36.7-15.3 36.6-15.5 36.6c-5.1 12.2-10.3 24.5-15.5 36.6l-31.2 73c-5.2 12.2-10.4 24.3-15.8 36.4l-15.9 36.4c-10.5 24.3-21.1 48.5-31.8 72.7l-6.2-9.6 44.4 1.3c14.8.4 29.7.8 44.4 1.4l44.4 1.5c14.8.6 29.5 1 44.4 1.7l44.4 1.8 44.4 2c29.3 1.5 58.9 3 88.6 4.7z" class="st6"/>
  <path d="m1182.3 1365.1-39.7 26.7-98.7-13.7-8.3 86-35.6 23.9 5.9-85.7 76.1-51.2z" style="fill:#dbbf48"/>
  <path d="M1553.7 1417.1c1-25.6 2.1-51.1 3.5-76.6l2-38.3 2.3-38.3c1.4-25.6 3.1-51.1 4.8-76.5 1.5-25.5 3.4-51.1 5.2-76.5l8.3 7c-48.4 12.9-96.9 25.5-145.4 37.8-48.5 12.4-97 24.6-145.7 36.4l-36.4 9-36.6 8.7c-24.3 5.8-48.7 11.7-73.1 17.3l-36.6 8.4-36.6 8.3c-24.5 5.5-48.9 10.8-73.4 16 24-7.2 48.1-14.2 72.1-21.1l36.1-10.3 36.1-10.1c24-6.8 48.2-13.4 72.4-19.8l36.3-9.8 36.3-9.6c48.4-12.9 96.9-25.5 145.3-38 48.5-12.4 97-24.6 145.7-36.4l9.1-2.3-.8 9.3c-2.3 25.5-4.5 50.9-7 76.4-2.4 25.5-4.8 50.9-7.5 76.4l-3.8 38.1-4.1 38.1c-2.5 25.5-5.4 50.9-8.5 76.4zM879.8 1203.2l-41.6-40.8-41.5-40.9c-27.6-27.4-55.1-54.7-82.6-82.3-27.4-27.4-55-54.8-82.3-82.6l-82.1-82.7-1.7-1.7-.1-2.4-6.3-113.5-3.1-56.7-3-56.7c-2-37.8-4.1-75.7-5.9-113.5L524.1 416l-.1-3.9 3.1-2.3 32.5-23.6 32.5-23.5 65-47 32.5-23.5 32.6-23.3 65.1-46.8 65.3-46.6 32.6-23.3L918 129c21.8-15.5 43.6-30.9 65.5-46.3 21.8-15.5 43.9-30.7 65.8-46-21.2 16.3-42.5 32.6-63.7 48.8s-42.6 32.3-64 48.5l-32.1 24.2-32.1 24-64.1 48.1-64.3 48-32.2 23.9-32.2 23.9-64.6 47.7-32.2 23.9-32.3 23.8 3-6.2 5.9 113.5c2 37.8 3.8 75.7 5.6 113.5l2.8 56.7 2.7 56.7 5.1 113.5-1.8-4.1 80.7 84.1c26.9 28 53.6 56.3 80.4 84.4 26.9 28.1 53.4 56.4 80.2 84.7l39.9 42.5 39.8 42.4z" class="st6"/>
  <path d="m994.5 1088.6 26.3-30.1 26.4-30c17.6-20 35.3-39.8 53-59.8 17.7-20 35.6-39.7 53.3-59.6l26.7-29.8 26.7-29.7-1.1 2.1 26.3-85.4 26.6-85.4 13.4-42.6 13.5-42.6 26.9-85.2 2.1 7.7c-22.1-19.1-43.9-38.5-65.8-57.8l-65.8-57.8-65.5-58.1c-21.8-19.4-43.7-38.7-65.4-58.2l7.3.4-74.8 51.5-75 51.2-75.2 50.9-37.7 25.3-37.8 25.2 36.4-27.1 36.6-27 73.4-53.6 73.6-53.3 73.8-53 3.8-2.7 3.7 3.1c22.2 19 44.3 38.1 66.4 57.2l66.2 57.2 66 57.5c21.9 19.3 44 38.3 66 57.7l3.7 3.2-1.4 4.6-27.3 85.1-13.6 42.6-13.8 42.5-27.6 85.1-27.8 84.9-.4 1.3-.8.8-27.4 29.1-27.4 29c-18.3 19.3-36.6 38.8-55 57.9-18.4 19.3-36.7 38.7-55.3 57.8l-27.7 28.8-28.5 29.1z" class="st6"/>
  <path d="M959.9 1938.2c-11 .4-21.9.8-32.9 1.3l-32.9 1c-21.9.6-43.9 1.3-65.7 1.7-21.9.4-43.9 1-65.7 1.3l-65.7 1-9.3.1 3.5-8.7 30.1-76.1 30.5-75.9 15.3-38 15.6-37.8c10.4-25.3 20.7-50.5 31.2-75.7l15.8-37.8c5.2-12.7 10.5-25.2 15.9-37.8l16-37.7c5.3-12.5 10.7-25.2 16.2-37.7l16.2-37.6 16.5-37.6c11-25 22.1-49.9 33.5-74.8-9.3 25.7-18.7 51.3-28.3 76.9l-14.5 38.4-14.6 38.3c-4.8 12.8-9.8 25.5-14.8 38.3l-14.9 38.1c-4.9 12.8-10 25.5-15 38.1l-15 38.1c-10 25.5-20.3 50.6-30.5 76.1l-15.3 38-15.5 38-31.1 75.8L703 1941l-5.8-8.6 65.7 1c21.9.3 43.9.8 65.7 1.3 21.9.4 43.9 1.1 65.7 1.7l32.9 1.1c10.8-.3 21.7.1 32.7.7zM758.7 491.1c1.5 27 2.7 54.1 3.7 81.1.6 13.5.8 27 1.3 40.6.4 13.5.7 27 1 40.6.7 27 1.1 54.1 1.5 81.1.1 13.5.3 27 .4 40.6.1 13.5.1 27 .3 40.6l-1.8-4.8c19.7 22.6 39.1 45.4 58.6 68.4 19.4 22.9 38.8 45.8 57.9 68.9l28.7 34.7 28.4 34.9c18.8 23.3 37.7 46.8 55.8 70.7-21-21.7-41.2-43.7-61.6-65.7l-30.4-33.3-30.1-33.5c-20.1-22.4-39.9-44.9-59.6-67.4-19.7-22.6-39.4-45.3-58.9-68.1l-1.8-2.1V775.1c0-13.5.1-27 .3-40.6.1-27 .6-54.1 1.1-81.1.3-13.5.4-27 .8-40.6.4-13.5.7-27 1.1-40.6.9-27.1 1.9-54.1 3.3-81.1z" class="st5"/>
  <path d="m1282.5 1247.9-77.2 186.5-186.5 77.2-186.4-77.2-77.3-186.5 77.3-186.5 186.4-77.2 186.5 77.2z" class="st0"/>
  <path d="m840 1426.8-74-178.9 74-178.9 178.8-74 178.9 74 74.2 178.9-74.2 178.9-178.9 74.1z" class="st1"/>
  <path d="m860.2 1406.5-65.7-158.6 65.7-158.6 158.6-65.7 158.7 65.7 65.7 158.6-65.7 158.6-158.7 65.7z" class="st0"/>
  <path d="m1228.4 1247.9-61.3 148.2-148.3 61.4-148-61.4-61.5-148.2 61.5-148.1 148-61.4 148.3 61.4z" style="fill:#e74d56;stroke:#8d181b;stroke-width:7.9936;stroke-miterlimit:10"/>
  <linearGradient id="SVGID_1_" x1="900.145" x2="1137.546" y1="752.092" y2="752.092" gradientTransform="matrix(1 0 0 -1 0 2000)" gradientUnits="userSpaceOnUse">
    <stop offset="0" style="stop-color:#eb3c57"/>
    <stop offset=".359" style="stop-color:#e63d55"/>
    <stop offset=".802" style="stop-color:#dd3d50"/>
    <stop offset="1" style="stop-color:#d83d4c"/>
  </linearGradient>
  <path d="m934.9 1331.9-34.8-84 34.8-83.8 83.9-34.9 84 34.9 34.7 83.8-34.7 84-84 34.7z" style="fill:url(#SVGID_1_)"/>
  <path d="M812.5 1247.9h87.6l34.8 84-60.4 60.3z" style="fill:#ba2026"/>
  <path d="m1102.8 1164.1 59.5-59.6 59.6 143.4h-84.4z" style="fill:#f0566f"/>
  <path d="M1018.8 1129.2v-84.5l143.5 59.8-59.5 59.6z" style="fill:#f3839c"/>
  <path d="M812.5 1247.9h87.6l34.8-83.8-62.7-59.6z" style="fill:#e22437"/>
  <path d="M1018.8 1129.2c7.2 2.5 14.2 5.2 21.4 7.7 7 2.7 14.2 5.3 21.2 8.2 7 2.7 14.1 5.6 21.1 8.4l21 8.6.7.3.3.7 8.6 21c2.8 7 5.6 14.1 8.4 21.1 2.8 7 5.5 14.1 8.2 21.2 2.7 7 5.3 14.2 7.7 21.4-3.4-6.9-6.5-13.8-9.6-20.7-3.1-6.9-6.2-13.8-9.3-20.8-3.1-6.9-6-13.9-9-20.8l-8.7-21 1.1 1.1-21-8.9c-6.9-3-13.9-5.9-20.8-9-6.9-3-13.9-6-20.8-9.3-6.7-2.7-13.6-5.8-20.5-9.2z" style="fill:#f9c6d2"/>
  <path d="M1018.8 1366.6c-7.2-2.5-14.2-5.2-21.4-7.7-7-2.7-14.2-5.3-21.2-8.2-7-2.7-14.1-5.6-21.1-8.4l-21-8.6-.7-.3-.3-.7-8.6-21c-2.8-7-5.6-14.1-8.4-21.1-2.8-7-5.5-14.1-8.2-21.2-2.7-7-5.3-14.2-7.7-21.4 3.4 6.9 6.5 13.8 9.6 20.7 3.1 6.9 6.2 13.8 9.3 20.8 3.1 6.9 6 13.9 9 20.8l8.7 21-1.1-1.1 21 8.9c6.9 3 13.9 5.9 20.8 9 6.9 3 13.9 6 20.8 9.3 6.9 2.7 13.8 6 20.5 9.2z" style="fill:#f05682"/>
  <path d="M1018.8 995c15.3 5.2 30.5 10.5 45.7 16.2l22.8 8.3 22.6 8.4c15.2 5.6 30.2 11.4 45.3 17.3 15 5.8 30.1 11.8 45 17.7l2.5 1 1.1 2.7c6.3 14.8 12.8 29.7 19 44.6 6.3 14.9 12.5 29.8 18.7 44.6 6.2 14.9 12.4 29.8 18.4 44.7 6 14.9 12.1 30 18 44.9l1.1 2.7-1.1 2.5c-12.8 29.7-25.7 59.2-39.1 88.6l-10 22.1-10.3 21.9c-6.9 14.6-13.8 29.3-21 43.7 5.2-15.3 10.5-30.5 16-45.7l8.3-22.8 8.4-22.6c11.3-30.2 23.1-60.3 34.9-90.3v5.2c-6.3-14.8-12.7-29.7-19-44.6-6.3-14.9-12.5-29.8-18.7-44.6-6.2-14.9-12.4-29.8-18.3-44.7-6-14.9-12.1-30-18-44.9l3.7 3.7c-14.8-6.5-29.7-12.8-44.3-19.4-14.8-6.5-29.5-13.1-44.2-19.8l-22.1-10-21.9-10.3c-14.3-7-29-13.9-43.5-21.1z" class="st5"/>
</svg>
