<svg xmlns="http://www.w3.org/2000/svg" xml:space="preserve" id="Layer_1" x="0" y="0" style="enable-background:new 0 0 2000 2000" version="1.1" viewBox="0 0 2000 2000">
  <style>
    .st4{fill:#87624f}.st9{fill:#666767}
  </style>
  <linearGradient id="SVGID_1_" x1="1427.583" x2="472.633" y1="1431.222" y2="1431.222" gradientUnits="userSpaceOnUse">
    <stop offset=".316" style="stop-color:#b8b1ae"/>
    <stop offset="1" style="stop-color:#9b867a"/>
  </linearGradient>
  <path d="m1427.6 1419.6-34.4 59.9-111.7 194.1-808.9-233.7 3.6-10.9 49.8-151.3 162.2-88.9z" style="fill:url(#SVGID_1_)"/>
  <path d="m618.6 639.6-146 800.3 53.4-162.2 162.2-88.9 125.9-782.5-144.4 115.5z" style="fill:#3f2a1c"/>
  <linearGradient id="SVGID_2_" x1="1355.944" x2="893.241" y1="505.77" y2="1307.195" gradientUnits="userSpaceOnUse">
    <stop offset=".316" style="stop-color:#dcd3cd"/>
    <stop offset="1" style="stop-color:#bfafa6"/>
  </linearGradient>
  <path d="m1427.6 1419.6 90.4-820.3-703.9-193-125.9 782.5z" style="fill:url(#SVGID_2_)"/>
  <linearGradient id="SVGID_3_" x1="951.903" x2="951.903" y1="1188.807" y2="1479.477" gradientUnits="userSpaceOnUse">
    <stop offset="0" style="stop-color:#605d5c"/>
    <stop offset="1" style="stop-color:#9b867a;stop-opacity:0"/>
  </linearGradient>
  <path d="m1427.6 1419.6-34.4 59.9-740.3-228.7-96 50.7-40 138.4-40.7-10.9 49.8-151.3 162.2-88.9z" style="fill:url(#SVGID_3_)"/>
  <path d="m476.2 1429 11.7-38.1 11.8-38 23.9-76 .3-.9.9-.5 40.3-22.6 40.4-22.6 40.4-22.5 40.4-22.5 1.4-.8 1.6.5 92.5 28.5 92.5 28.7 23.1 7.2 23.1 7.2 46.2 14.5 46.2 14.5 46.2 14.6c61.5 19.5 123 39.1 184.5 59l46.1 14.9 46 15c30.7 10 61.3 20.2 91.9 30.4-31-9-62-18.1-92.9-27.3l-46.4-13.8-46.4-13.9c-61.8-18.6-123.6-37.4-185.2-56.4l-46.3-14.2-46.2-14.4-46.2-14.4-23.1-7.2-23.1-7.2-92.4-29-92.3-29.2 3-.3-40.7 22-40.7 21.9L568 1258l-40.8 21.8 1.1-1.4-25.8 75.3-13 37.6-13.3 37.7zM813 412.4c-8.6 63.9-18 127.6-27.8 191.2-4.8 31.8-9.9 63.6-14.9 95.5L755 794.5l-15.8 95.3-8.1 47.6-4.1 23.8-4.2 23.8c-11.1 63.5-22.4 126.9-34.7 190.1 8.6-63.9 18-127.6 27.7-191.3l3.6-23.9 3.7-23.9 7.5-47.7 15.4-95.4 15.8-95.3c5.4-31.7 10.7-63.5 16.3-95.2 11.3-63.3 22.7-126.7 34.9-190z" class="st4"/>
  <linearGradient id="SVGID_4_" x1="1769.893" x2="2001.346" y1="645.895" y2="645.895" gradientTransform="rotate(97.12 1645.898 460.913)" gradientUnits="userSpaceOnUse">
    <stop offset="0" style="stop-color:#3f2a1c"/>
    <stop offset=".117" style="stop-color:#442e20"/>
    <stop offset=".406" style="stop-color:#4d3627"/>
    <stop offset=".699" style="stop-color:#533a2b"/>
    <stop offset="1" style="stop-color:#543b2c"/>
  </linearGradient>
  <path d="M1527.4 597.2 1501.1 801l-137.7-250.4z" style="fill:url(#SVGID_4_)"/>
  <path d="M1375.4 559.6c11.5 18 22.6 36.3 33.4 54.7 5.5 9.2 10.8 18.5 16.1 27.7l15.9 27.9 15.6 28.1c5.1 9.4 10.3 18.8 15.3 28.2 10.1 18.9 20 37.8 29.4 57.1-11.6-18-22.6-36.4-33.5-54.8-5.5-9.2-10.8-18.5-16.1-27.7l-15.8-27.9-15.6-28c-5.1-9.4-10.3-18.8-15.3-28.2-10.1-18.9-20-37.8-29.4-57.1z" class="st4"/>
  <linearGradient id="SVGID_5_" x1="1202.682" x2="1456.501" y1="1057.84" y2="1057.84" gradientTransform="rotate(-90 1466.76 1164.919)" gradientUnits="userSpaceOnUse">
    <stop offset="0" style="stop-color:#3f2a1c"/>
    <stop offset=".117" style="stop-color:#442e20"/>
    <stop offset=".406" style="stop-color:#4d3627"/>
    <stop offset=".699" style="stop-color:#533a2b"/>
    <stop offset="1" style="stop-color:#543b2c"/>
  </linearGradient>
  <path d="m1251.3 1364.6 216.8-189.4-33 253.8z" style="fill:url(#SVGID_5_)"/>
  <path d="M1269.8 1361.9c-.3 0-.7-.1-.9-.4-.1-.3 0-.7 0-1 .2-.7.5-1.2.8-1.8.7-1.2 1.4-2.3 2.2-3.4 1.6-2.2 3.2-4.2 4.9-6.3 3.4-4.1 7-8 10.5-11.9 7.2-7.7 14.6-15.3 22.1-22.7 7.5-7.5 15.1-14.7 22.8-22 7.7-7.2 15.5-14.4 23.2-21.5 7.8-7.1 15.7-14.1 23.6-21.1 7.9-6.9 15.8-13.9 23.9-20.7 16-13.7 32.2-27.2 48.9-40.2-15 14.9-30.4 29.3-45.8 43.7-7.7 7.2-15.5 14.3-23.2 21.5l-23.3 21.3-46.8 42.5c-7.8 7.1-15.6 14.2-23.2 21.4-3.9 3.6-7.7 7.2-11.4 10.9-1.9 1.9-3.7 3.7-5.4 5.7-.9 1-1.7 2-2.5 3-.4.5-.7 1.1-1 1.7-.1.3-.2.6-.1.9 0 .2.4.3.7.4z" class="st4"/>
  <linearGradient id="SVGID_6_" x1="750.25" x2="792.154" y1="797.043" y2="803.679" gradientUnits="userSpaceOnUse">
    <stop offset="0" style="stop-color:#3f2a1c"/>
    <stop offset=".059" style="stop-color:#493325"/>
    <stop offset=".192" style="stop-color:#5d4435"/>
    <stop offset=".323" style="stop-color:#6e5242"/>
    <stop offset=".451" style="stop-color:#7a5c4b"/>
    <stop offset=".573" style="stop-color:#826250"/>
    <stop offset=".684" style="stop-color:#846452"/>
    <stop offset="1" style="stop-color:#4c3627"/>
  </linearGradient>
  <path d="m814.1 406.3 20.3-2.5 15.6 11-120.7 785.5-40.6-14.4z" style="fill:url(#SVGID_6_)"/>
  <path d="m476.2 1419.6 11.2-36.5 11.3-36.4 22.9-72.8.3-.9.8-.5 40.6-23.3 40.6-23.2 40.6-23.2 40.7-23.1 1.4-.8 1.6.5 92.7 28 92.6 28.2 23.2 7.1 23.1 7.1 46.3 14.3 46.3 14.3 46.2 14.4c61.6 19.2 123.2 38.5 184.7 58l46.1 14.7 46.1 14.8c30.7 9.9 61.4 19.9 92.1 30-31-8.8-62.1-17.8-93-26.8l-46.5-13.6-46.4-13.7c-61.9-18.3-123.7-36.8-185.5-55.5l-46.3-14-46.3-14.1-46.3-14.1-23.2-7.1-23.1-7.1-92.5-28.5-92.4-28.8 3.1-.3-40.9 22.6-41 22.6-41 22.5-41 22.5 1.1-1.3-24.8 72.1-12.5 36-12.9 35.9z" style="fill:#ddc1b6"/>
  <path d="M1318.9 757c-7.3-10.8-13.1-22.5-21.6-32-8.7-9.5-16.9-20.1-26.7-28.1-9.9-8-23.6-10.4-34.6-16.8-10.9-6.4-20.5-15.7-32.2-20.3-11.6-4.6-24.2-6.4-36.5-9.2-12.3-2.8-24.5-7.2-36.8-8.1-12.5-.9-24.9 1.9-37.1 3-12.3 1-23.6 5.8-35.5 8.7-11.9 2.9-24.7 3.1-36 7.8-11.2 4.6-21 11.8-31.5 18.2-8.6 5.2-18.3 9-26 15.1-7.8 6.2-13.8 14.2-20.7 21.4-6.9 7.1-11.1 16-16.9 24-5.8 7.9-12.8 15-17.5 23.7-.4.5-1.2-1.1-1.5-.5-.3.6 3.1 1.1 2.9 1.7-4.7 8.8-12.4 16.4-15.9 25.8-3.4 9.3-7.1 18.7-9.2 28.6-2.5 11.8-1.9 24.1-2.4 36-.6 12.1-2.7 24.2-1.3 36.2 1.5 12.1 3.7 24.4 7.2 36.3 3.4 11.8 8.9 23.5 14.3 34.9 5.3 11.3 15.9 20.2 23.1 30.9 10.2 15.2 16.8 32.6 29.8 45.3.6.7-1.7 1.5-1 2.2.7.7 3.4-3.7 4.3-3.1 8.4 8.1 18.6 13.9 28 20.9 9.4 7 17.4 15.8 27.7 21.6 10.2 5.8 20.5 11.9 31.4 16.3 10.7 4.4 22.8 4.4 34.1 7.5 12.8 3.4 25.1 8 37.8 9.5 12.9 1.5 26.3 6.2 38.9 5.8 12.7-.5 25-4.9 37.2-7.4 12.2-2.5 23.9-6.7 35.4-11.2 11.4-4.4 21.6-10.8 32.2-17.1 10.5-6.3 21.9-11.4 30.9-19.3 9.2-8 15.6-18.5 23.1-27.9 7.6-9.4 17.4-17.4 23.2-28.1 5.8-10.6 5.9-24.3 9.9-35.9 3.9-11.5 7-23.1 9.1-35.5 2.1-12.4 4.8-24.3 4.9-36.8.1-12.7 3.7-25.5 1.9-38.1-1.9-12.6-11-24.2-14.8-36.5-3.7-12.2-7.4-24.2-13-35.8-5.4-11.7-11.3-22.9-18.6-33.7zm-18.2 166.2c-1.9 11.2-7.6 20.9-11.6 31-4 10.3-10.8 18.6-16.7 27.5-6 9.1-8 21.5-15.7 29.1-7.8 7.6-19.3 10.9-28.5 16.7-9.2 5.8-18.5 12.2-28.8 16-7.3-15.8 1-17-.7-33.8-1.7-16.8-4.5-16.8-6.2-33.6-1.7-16.8-8.9-18.1-6.2-34.4 9.5-4.1 22.6-7.1 31.8-11.2 9.6-4.2 18-10.2 27.1-14.2 9.7-4.3 20.2-6.2 29.1-10.2 9.9-4.5 19.4-10.3 28-14.2-.1 10.1.1 21.3-1.6 31.3zm-136.9 130.2c-13.1-9.3-8.7-14-19.2-26.1-10.5-12-8.9-13.3-19.3-25.3s-19.9-6.7-25.9-21.1c9.2-3.9 21.9-7.2 31.4-11.3 9.3-4 17.7-9.8 27.1-13.8 9.3-4 16.7-7 26-11 6.7 15.8 4.3 16 6 32.7 1.7 16.7 4.6 16.7 6.3 33.5 1.7 16.8 2.4 17.3-.5 33.5-10.2 3.6-21.1 7.4-31.9 8.9zm34-4.8c7.2 21.8 24.2 38.8 2.6 44-23 5.5-17.1-16.8-29.7-38.2 9.8-1.6 17.9-2.8 27.1-5.8zm-207.4-63.3c2.6-14.6 9.7-11.9 16.7-24.8s8.9-11.9 15.9-24.8c7-13-4.9-29.1 10.5-30.3 15.1-1.2 9.4 15.3 19.7 27 10.3 11.7 11.8 10.5 22 22.3 10.3 11.8 14.4 9.5 18 24.2-13.4 5.6-23.8 11.2-36.1 16.3-14 5.8-27.5 14-39.2 18.8-9.5-7.6-19.6-19.7-27.5-28.7zm25.1 27.9c-22.3 9.1-39.3 15.3-47.4 18.6 8.7-22.5 8.5-22.5 24.6-40.4 7.4 8.3 14.1 14.8 22.8 21.8zM955.3 816c14.9 12.5 10.8 16.4 23.6 30.9 12.8 14.6 11.2 15.9 24 30.5 12.8 14.7 27 8.5 30.9 27 3.2 15-11.1 12.5-18.1 25.5-7 12.9-5.2 13.9-12.2 26.8-7 12.9-3.5 15.4-15.8 23.7-8.8-10.5-15.5-19.7-21.8-31.5-6.2-11.8-14.1-23.7-17.6-36.4-3.4-12.5-1.6-26-2-39-.4-12.6-1.3-25.7 1.4-38.4 1.3-6.3 5.6-13.1 7.6-19.1zm16.4-37.1c12.3 2.5 25.3 7.7 38 10.3 12.4 2.6 24.6 7.2 37.2 9.8 12.5 2.6 28.3 2.5 40.7 5.1-2.5 18.5-12.8 15.1-21.4 31.4-8.6 16.3-6.8 17.3-15.5 33.5s1.2 28.8-18 30.1c-19.2 1.2-13.1-12.2-26-27-12.9-14.7-15.1-13-28-27.6-12.8-14.6-13.9-14.5-22.7-31.5 4.3-11.8 9-24 15.7-34.1zM952.2 811c-12.5-5.5-7.4-12.3-16.3-22.4-8.9-10.1-14.3-6.7-15.3-19.6 16.3 3.3 32.1 5.2 49.7 8.8-6.2 9.3-14 22.4-18.1 33.2zm204.2-102.4c2.7.6 3.8 2.9 6.4 3.7 2.8 17.6-.5 17.7 1.1 35.4s7.7 17.5 9.3 35.2c1.7 17.7 3.7 18.3-.9 35.1-12.5-2.7-24.1-4.6-37.8-7.4-14.7-3.1-27-6.3-41.4-9.3 1-17.9 5.4-16.1 13.5-31.7 8.1-15.6 5.5-17.1 13.6-32.7 8.1-15.7 9.4-15.1 19.6-29.5 5.5.6 11-.1 16.6 1.2zm-16.4-5.7c7-19.1-.8-38.6 19.8-34.4 20.3 4.2-.2 19.1.6 39.6-2.3-.6-1.7 1.5-4 .9-5.2-1.2-11.3-5.4-16.4-6.1zm26.5 10c12.2 3.7 24.8 10.2 35.7 16.2 11.2 6.2 20.2 14.8 29.8 23 9.8 8.3 22.8 13.5 30.7 23.5 7.9 10.1 11.3 23.2 17.1 34.6 5.8 11.4 12.2 22.7 15.6 35-2.4-.5-4.8-3.3-7.4-3.9-11-2.5-23.6-2.5-37.1-5.5-11.4-2.5-24-2.3-37.1-5.2-11.6-2.5-23-8.7-35.8-11.4-7.1-16.7-3.6-17.5-5.2-35.2-1.6-17.7 3.3-18.1-.8-35.5-4.2-18.1-10.3-18.9-5.5-35.6zm20.5 227.5c-9.5 4.1-21.3 6.8-30.8 11-9.6 4.1-20.2 6.3-29.8 10.4-9.7 4.1-19.3 13.5-28.7 17.5-13.5-9-8-15.3-18.5-27.4-10.6-12.1-12.1-10.9-22.6-23-10.5-12-17.6-9.1-18.4-24.3-1.1-19.3 6.1-16.9 15-33.6 8.9-16.7 6.2-18.1 15.1-34.8 8.8-16.7 7.3-18.4 21-31.5 14.3 3 28.6 4.2 42.6 7.2 14.5 3.1 27.7 7.9 41.6 10.9 7.7 18.5 3.6 19.2 5.5 38.8 1.9 19.6 2.4 19.3 6.2 38.8 3.8 19.8 4.4 20.7 1.8 40zm-99.1-139.2c-12.7-2.7-26.2-7.6-38.3-10.1-13-2.7-25.2-7.3-37-9.7-13.4-2.8-29.1-1.4-40.5-3.7 6.9-9.9 18.7-18.6 27.6-26.7 9-8.2 17.5-16.8 28.1-22.9 10.6-6.1 22.8-8.6 34.6-12.4 11.7-3.7 23-8.9 35.5-10.1 12.2-1.2 28.3 0 41 1.4-1.8 17.7-11.8 15-19.9 30.6-8.1 15.6-8.3 15.4-14.4 32-6.3 17-4.2 19.3-16.7 31.6zm11 179.2c13.8 7.4 8.7 13.9 19 25.7 10.3 11.8 8.7 13.1 19.1 25 10.3 11.9 20.3 6.6 25.8 21-11.1 1.3-25.1.6-36.8-.3-11.3-.9-22.8-.9-34.3-3.9-12.8-3.4-24.1-10.3-35.6-16-11.9-5.8-24.5-10.8-34.9-18.6 11.6-4.7 23.4-13.2 37.2-18.9 12.2-5 27.3-8.5 40.5-14zm88.9-41.6c-7.1-18.4.8-19.7-1-38.9-1.9-19.2.3-19.2-1.6-38.4-1.8-19.2-14.7-21-9.6-39.1 13.6 2.9 29.1 8.2 41.8 11 13.8 3 27.3 4 39.6 6.7 14.3 3.2 25.9 8.1 37.7 10.9 3.2 12.7 7.1 24.5 7.4 37.7-8.6 3.9-16.9 11.1-26.8 15.6-8.9 4-20.1 4.7-29.9 9-9.1 4-17.6 10-27.2 14.2-9.2 4.1-20.9 7.2-30.4 11.3zm111.4-89.3c9.9 2.3 19.9 6.7 27.4 8.6 12.5 3.1 20.7 7.5 25.4 9.2 0 .2 2.5-.3 2.5-.1-4.5 2.1-14.8 1.9-25.9 7.1-6.9 3.2-14.4 8.6-23.4 12.7-.5-12.3-3.2-25.7-6-37.5zm54.7 10.9c-4.8-1.6-14.2-5.6-27.7-9-7.2-1.8-13.8-4.9-24.4-7.3-3.4-12.8-12.9-22-18.9-33.9-5.9-11.9-9.4-25.2-17.6-35.7-8.2-10.4-18.9-18.9-29-27.5-10-8.5-19.7-18.3-31.4-24.6-11.4-6.2-25-9.1-37.8-12.9-7.8-24.7-5.7-25.6-7.6-51.2.9.2 5.3.6 6.2.8 11.8 2.7 23.7 4.4 34.7 8.8 11.2 4.4 21.1 11.9 31.4 17.9 10.5 6.1 21.4 11.5 30.8 19 9.5 7.6 20.2 14.4 28.5 23.3 8.3 9 14.5 20.1 21.5 30.2 6.9 10.1 13 20.9 18.5 31.9 5.4 11 11.9 22 15.7 33.6 3.7 11.5 5.1 24.6 7.1 36.6zm-192-202.4c-5.8 25-10.1 24.1-25.7 44.1-11-1.4-21.2-4.2-31.9-3.6-10.9.6-20.4 8.1-30.8 10.6-10.5 2.5-22.1 1.9-31.8 6.2-9.7 4.3-18.1 11.2-26.8 17.1-8.7 5.9-18.8 10.7-26.2 18.1-7.4 7.3-12.2 17.4-18.1 26.1-9.8-2-19.5-1-27.2-2.6-12-2.4-20.2-7.6-25.5-8.6 5.7-10.2 10.5-20.8 17.7-29.8 7.3-9.1 17.2-16 25.8-23.8 8.7-7.9 16.8-16.4 26.7-22.8 9.8-6.4 19.3-14.3 30.1-19.2 10.8-4.8 23.1-7 34.7-10.2 11.4-3.1 23.4-5.2 35.4-6.5 11.8-1.3 24-3.6 36.2-3.1 11.9.6 25.4 5.5 37.4 8zM894.7 822c1.9-8.9 7.1-16.8 10.1-25.2 3.1-8.6 3.8-14.6 7.9-22.5 12.2 7.1 12.9 6.1 22.1 16.6 9.2 10.5 8.1 11.4 15 23.4-2.4 6.7-2.6 13.1-4.1 20.3-2.2 10.4-6 20.6-6.1 31-.2 10.7 3.6 21.4 5.5 31.9 1.9 10.6 7.6 20.2 11.4 30.3 3.9 10.3 5 21.3 10.7 30.8 5.7 9.6 14.1 19.1 21.5 27.7-7.6 24-8.9 24.7-26.4 42.8-9.4-9.4-18.1-18.3-25.9-28.8-7.7-10.5-16.9-20.8-22.8-32.2-5.9-11.4-8.9-24.1-12.8-36.2-3.8-11.9-6.5-24.3-8.3-36.7-1.7-12.1-4.4-24.8-4-37.1.5-11.9 3.6-24 6.2-36.1zm72.1 213.4c5-2 15.7-4.6 26.9-9.1 7.2-2.9 14.4-4.2 23.7-8 10.7 8.3 24 10 36.5 16.2 12.1 6 23.5 14.7 37 18.3 12.2 3.2 24.6 3.3 36.5 4.2 12.3.9 23.2 2.8 34.9 1.3 12.2 8.1 11.2 8.8 20.8 19.9 9.6 11.1 18.7 8.2 22.3 21.9-12.6 3.2-29.2 5.5-42.6 6.4-13.2.9-26.6 2.6-40.3 1.2-13.3-1.4-26.6-6.3-40.2-9.9-10.7-2.9-21.5-4.7-31.6-8.8-10.3-4.2-21.4-7-30.9-12.3-9.7-5.4-18.1-13.3-26.9-19.7-9-6.5-18.2-14.2-26.1-21.6zm237.1 64.6c-8.4-25.4-5-26.6-2.5-52.2 10.7-3.9 21.7-6.2 31.2-12.1 9.5-5.9 14.3-17.8 22.4-25.5 8-7.7 18.5-13.3 24.8-22.7 6.1-9.2 9.6-20.4 13.8-31 4.1-10.4 9.8-20.6 11.8-32.1 1.9-10.9 0-22.8-.2-33.7 9-4.1 15.9-10.7 22.9-13.9 10.8-5 20.5-5.4 25.4-7.7 1.4 11.2 3.9 22.5 3.7 33.9-.2 11.1-3.7 21.9-5.6 33-1.9 11.3-2.8 22.8-6.3 33.3-3.6 10.7-5.7 22.4-10.8 32.1-5.2 9.9-13.1 18.2-19.7 26.9-6.7 8.8-14.3 16.9-22.2 24.4-8 7.5-15.5 16.1-24.6 22.2-9.2 6.1-21.2 8.1-31.3 12.7-10.2 4.5-21.9 9.4-32.8 12.4z" class="st9"/>
  <path d="M1024.3 710.7c5.9 1.4 11.3-4.9 12.5-10.6 1.1-5.7-1.8-11.7-7.7-13.1-5.9-1.4-11.2 2.6-12.4 8.4-1.1 5.7 1.7 13.9 7.6 15.3zm255.6 63.6c5.9 1.4 11.5-4.5 12.5-10.4s-2.9-9.1-8.8-10.5c-5.9-1.4-8.1.3-9.2 6.2-1 5.9-.5 13.3 5.5 14.7zm27.1 203.5c-6-1.5-8.4.9-9.5 6.8-1 5.9.5 8.8 6.5 10.4 6 1.6 11.4.4 12.4-5.5s-3.4-10.1-9.4-11.7zm-393.7-97.6c-6-1.5-15.9 2.7-17.1 8.4-1.2 5.6 6.3 12.6 12.3 14.2 6 1.5 9.5-2.7 10.7-8.3 1.3-5.7.2-12.7-5.9-14.3zm175.2 184.2c-6.1-1.6-10.4-.8-11.5 4.9-1.1 5.8 2.1 10.9 8.2 12.5 6.1 1.6 15.7 0 16.8-5.8 1.1-5.8-7.4-10-13.5-11.6z" class="st9"/>
</svg>
