<svg xmlns="http://www.w3.org/2000/svg" xml:space="preserve" id="Layer_1" x="0" y="0" style="enable-background:new 0 0 2000 2000" version="1.1" viewBox="0 0 2000 2000">
  <style>
    .st4{fill:#87624f}.st9{fill:#666767}
  </style>
  <linearGradient id="SVGID_1_" x1="1691.067" x2="213.401" y1="209.652" y2="209.652" gradientTransform="translate(0 1400)" gradientUnits="userSpaceOnUse">
    <stop offset=".316" style="stop-color:#b8b1ae"/>
    <stop offset="1" style="stop-color:#9b867a"/>
  </linearGradient>
  <path d="m1691.1 1591.6-53.3 92.7-172.8 300.4-1251.6-361.6 5.6-16.8 77-234.1 250.9-137.6z" style="fill:url(#SVGID_1_)"/>
  <path d="M439.2 384.7 213.4 1623.1l82.6-250.9 250.9-137.6L741.8 23.8 518.4 202.5z" style="fill:#3f2a1c"/>
  <linearGradient id="SVGID_2_" x1="1580.189" x2="864.172" y1="-1222.401" y2="17.777" gradientTransform="translate(0 1400)" gradientUnits="userSpaceOnUse">
    <stop offset=".316" style="stop-color:#dcd3cd"/>
    <stop offset="1" style="stop-color:#bfafa6"/>
  </linearGradient>
  <path d="m1691.1 1591.6 139.8-1269.2L741.8 23.8 546.9 1234.6z" style="fill:url(#SVGID_2_)"/>
  <linearGradient id="SVGID_3_" x1="955.018" x2="955.018" y1="-165.399" y2="284.337" gradientTransform="translate(0 1400)" gradientUnits="userSpaceOnUse">
    <stop offset="0" style="stop-color:#605d5c"/>
    <stop offset="1" style="stop-color:#9b867a;stop-opacity:0"/>
  </linearGradient>
  <path d="m1691.1 1591.6-53.3 92.7-1145.5-353.8-148.5 78.5-62 214.1-62.8-16.8 77-234.1 250.9-137.6z" style="fill:url(#SVGID_3_)"/>
  <path d="m219 1606.3 18.1-58.9 18.2-58.8 36.9-117.6.4-1.4 1.4-.8 62.3-35 62.5-35 62.5-34.8 62.5-34.8 2.2-1.2 2.4.8 143.1 44.1 143.1 44.4 35.7 11.1 35.7 11.1 71.4 22.4 71.4 22.4 71.4 22.5c95.2 30.1 190.4 60.6 285.4 91.3l71.3 23.1 71.2 23.2c47.5 15.5 94.9 31.2 142.2 47-47.9-14-95.9-28-143.8-42.2l-71.8-21.3-71.8-21.5c-95.6-28.8-191.2-57.8-286.5-87.3l-71.7-22-71.4-22.3-71.4-22.3-35.7-11.1-35.7-11.1-143-44.8-142-45.2 4.6-.4-63 33.9-63 33.9-63 33.9-63.1 33.7 1.8-2.2-39.9 116.5-20.1 58.1-20.8 58.6zM740 33.1C726.7 132 712.2 230.5 697 329c-7.5 49.2-15.3 98.4-23.1 147.7l-23.6 147.6-24.4 147.5-12.5 73.6-6.4 36.8-6.5 36.8c-17.1 98.3-34.6 196.4-53.6 294.1 13.3-98.9 27.8-197.4 42.9-296l5.6-36.9 5.7-36.8 11.5-73.9 23.8-147.6 24.4-147.5c8.4-49 16.6-98.3 25.3-147.3 17.4-97.9 35-195.9 53.9-294z" class="st4"/>
  <linearGradient id="SVGID_4_" x1="1118.852" x2="1477.012" y1="1526.976" y2="1526.976" gradientTransform="rotate(97.117 1977.865 1160.91)" gradientUnits="userSpaceOnUse">
    <stop offset="0" style="stop-color:#3f2a1c"/>
    <stop offset=".117" style="stop-color:#442e20"/>
    <stop offset=".406" style="stop-color:#4d3627"/>
    <stop offset=".699" style="stop-color:#533a2b"/>
    <stop offset="1" style="stop-color:#543b2c"/>
  </linearGradient>
  <path d="m1845.5 319.1-40.8 315.4-213-387.5z" style="fill:url(#SVGID_4_)"/>
  <path d="M1610.3 261c17.8 27.8 35 56.2 51.7 84.6 8.6 14.3 16.7 28.7 24.8 42.9l24.6 43.2 24.2 43.5c7.9 14.5 15.9 29.1 23.6 43.6 15.6 29.2 31 58.5 45.5 88.4-17.9-27.8-35-56.4-51.9-84.7-8.6-14.3-16.7-28.7-24.8-42.9l-24.4-43.2-24.2-43.3c-7.9-14.5-15.9-29.1-23.6-43.6-15.7-29.4-31-58.6-45.5-88.5z" class="st4"/>
  <linearGradient id="SVGID_5_" x1="3375.422" x2="3768.126" y1="334.123" y2="334.123" gradientTransform="rotate(-90 3116.76 1864.919)" gradientUnits="userSpaceOnUse">
    <stop offset="0" style="stop-color:#3f2a1c"/>
    <stop offset=".117" style="stop-color:#442e20"/>
    <stop offset=".406" style="stop-color:#4d3627"/>
    <stop offset=".699" style="stop-color:#533a2b"/>
    <stop offset="1" style="stop-color:#543b2c"/>
  </linearGradient>
  <path d="m1418.3 1506.6 335.4-293-51.1 392.7z" style="fill:url(#SVGID_5_)"/>
  <path d="M1446.9 1502.4c-.4 0-1.1-.1-1.4-.7-.1-.4 0-1.1 0-1.5.3-1.1.8-1.9 1.2-2.9 1.1-1.9 2.2-3.5 3.4-5.3 2.4-3.4 4.9-6.5 7.6-9.8 5.3-6.4 10.9-12.4 16.3-18.5 11.1-11.9 22.5-23.6 34.2-35.2 11.5-11.5 23.4-22.8 35.3-34.1 11.9-11.1 24-22.3 35.8-33.3 12.1-11 24.3-21.9 36.5-32.6 12.2-10.7 24.4-21.5 36.9-32 24.7-21.2 49.8-42.1 75.6-62.2-23.2 23.1-47 45.4-70.9 67.6-11.9 11.1-24 22.1-35.8 33.3l-36.1 33-72.4 65.7c-12.1 11-24.2 22-35.8 33.1-6 5.6-11.9 11.1-17.7 16.8-3 3-5.7 5.7-8.4 8.8-1.4 1.5-2.6 3.1-3.8 4.6-.7.8-1.1 1.8-1.5 2.6-.1.4-.3 1-.1 1.4 0 .9.6 1 1.1 1.2z" class="st4"/>
  <linearGradient id="SVGID_6_" x1="643.003" x2="707.797" y1="-771.631" y2="-761.369" gradientTransform="translate(0 1400)" gradientUnits="userSpaceOnUse">
    <stop offset="0" style="stop-color:#3f2a1c"/>
    <stop offset=".059" style="stop-color:#493325"/>
    <stop offset=".192" style="stop-color:#5d4435"/>
    <stop offset=".323" style="stop-color:#6e5242"/>
    <stop offset=".451" style="stop-color:#7a5c4b"/>
    <stop offset=".573" style="stop-color:#826250"/>
    <stop offset=".684" style="stop-color:#846452"/>
    <stop offset="1" style="stop-color:#4c3627"/>
  </linearGradient>
  <path d="m741.8 23.8 31.3-4 24.2 17.1-186.7 1215.5-62.9-22.4z" style="fill:url(#SVGID_6_)"/>
  <path d="m219 1591.6 17.4-56.5 17.5-56.4 35.4-112.7.4-1.4 1.2-.8 62.9-36.1 62.9-35.8 62.9-35.8 63-35.7 2.2-1.2 2.4.8 143.4 43.3 143.3 43.6 35.8 11 35.7 11 71.7 22.1 71.7 22.1 71.4 22.3c95.3 29.7 190.6 59.6 285.8 89.8l71.3 22.8 71.3 22.9c47.5 15.3 95.1 30.8 142.4 46.4-47.9-13.6-96.1-27.6-143.9-41.4l-72-21-71.8-21.2c-95.7-28.4-191.5-56.9-287.1-85.8l-71.7-21.7-71.7-21.9-71.7-21.9-35.8-11-35.7-11-143.1-44.1-142.9-44.5 4.8-.4-63.3 35-63.4 35-63.4 34.8-63.4 34.8 1.8-2-38.4 111.6-19.3 55.7-20 55.3z" style="fill:#ddc1b6"/>
  <path d="M1522.8 566.4c-11.3-16.7-20.2-34.8-33.4-49.6-13.4-14.7-26.2-31.1-41.3-43.5-15.3-12.4-36.5-16.2-53.5-25.9-16.8-9.9-31.8-24.3-49.8-31.4-17.9-7.1-37.5-9.9-56.5-14.3-19-4.3-37.9-11.1-56.9-12.5-19.3-1.4-38.6 3-57.4 4.6-19 1.5-36.5 9-55 13.4-18.5 4.5-38.2 4.8-55.7 12.1-17.4 7.1-32.5 18.2-48.7 28.1-13.3 8-28.4 14-40.2 23.4-12.1 9.6-21.3 22-32 33.1-10.7 11-17.1 24.7-26.2 37.1-9 12.2-19.8 23.2-27 36.7-.7.8-1.9-1.8-2.3-.8-.4 1 4.8 1.8 4.5 2.6-7.3 13.6-19.1 25.4-24.6 39.9-5.3 14.4-11 28.9-14.3 44.3-3.8 18.2-3 37.3-3.7 55.7-1 18.7-4.2 37.5-2 55.9 2.3 18.7 5.7 37.7 11.1 56.2 5.3 18.2 13.7 36.4 22.1 54 8.1 17.5 24.6 31.2 35.7 47.8 15.8 23.5 25.9 50.4 46.2 70.1 1 1.1-2.6 2.3-1.5 3.4s5.3-5.7 6.7-4.8c13 12.5 28.8 21.5 43.3 32.3 14.5 10.9 26.9 24.4 42.9 33.4 15.8 9 31.8 18.5 48.6 25.3 16.6 6.8 35.3 6.8 52.8 11.5 19.8 5.3 38.8 12.4 58.5 14.7 20 2.3 40.7 9.6 60.2 9 19.7-.8 38.7-7.6 57.6-11.4 18.9-3.8 36.9-10.3 54.7-17.4 17.7-6.8 33.4-16.7 49.8-26.5 16.3-9.8 33.9-17.7 47.8-29.9 14.3-12.4 24.2-28.7 35.7-43.2 11.8-14.5 26.9-26.9 35.8-43.5 9-16.4 9.1-37.6 15.3-55.5 6-17.8 10.9-35.7 14.1-55 3.3-19.1 7.5-37.6 7.6-56.9.1-19.7 5.7-39.5 3-58.9-3-19.6-17-37.5-22.9-56.5-5.7-18.9-11.4-37.5-20.1-55.4-8.5-17.6-17.7-35-29-51.7zm-28.1 257.2c-3 17.4-11.8 32.3-17.9 47.9-6.2 15.9-16.7 28.8-25.8 42.5-9.2 14.1-12.4 33.3-24.3 45.1-12.1 11.8-29.9 16.8-44.1 25.8s-28.7 18.9-44.5 24.7c-11.3-24.4 1.5-26.3-1.1-52.3s-6.9-25.9-9.6-52c-2.6-25.9-13.7-28-9.6-53.2 14.7-6.4 35-11 49.2-17.4 14.8-6.5 27.8-15.8 42-22 15.1-6.7 31.2-9.6 45.1-15.8 15.3-6.9 30-15.9 43.3-22-.4 15.8-.1 33.2-2.7 48.7zm-211.8 201.5c-20.2-14.4-13.4-21.7-29.7-40.3-16.3-18.6-13.7-20.6-29.9-39.1s-30.8-10.3-40.1-32.6c14.3-6 33.9-11.1 48.6-17.5 14.4-6.2 27.4-15.2 42-21.3 14.4-6.2 25.8-10.9 40.2-17 10.3 24.4 6.7 24.7 9.2 50.6 2.6 25.8 7.1 25.8 9.8 51.9 2.6 25.9 3.7 26.8-.8 51.9-15.8 5.1-32.6 11.1-49.3 13.4zm52.5-7.5c11.1 33.7 37.5 60 4.1 68-35.6 8.6-26.5-25.9-45.9-59.1 15.1-2.4 27.6-4.3 41.8-8.9zm-320.8-97.9c4.1-22.5 15.1-18.5 25.8-38.4 10.9-20 13.7-18.5 24.6-38.4 10.9-20.1-7.6-45.1 16.3-46.8 23.4-1.9 14.5 23.6 30.4 41.8 15.9 18.1 18.2 16.3 34.1 34.5 15.9 18.2 22.3 14.7 27.8 37.5-20.8 8.7-36.8 17.4-55.8 25.3-21.7 9-42.5 21.7-60.7 29.1-14.7-12-30.3-30.7-42.5-44.6zm38.8 43.2c-34.5 14.1-60.8 23.6-73.3 28.8 13.4-34.8 13.2-34.8 38-62.5 11.4 12.8 21.9 22.8 35.3 33.7zm-93.2-305.3c23.1 19.3 16.7 25.4 36.5 47.8 19.8 22.5 17.4 24.6 37.1 47.3 19.8 22.8 41.8 13.2 47.8 41.8 4.9 23.2-17.1 19.3-28 39.5-10.9 20-8 21.5-18.9 41.4s-5.4 23.8-24.4 36.7c-13.6-16.3-24-30.4-33.7-48.7-9.6-18.2-21.9-36.7-27.3-56.4-5.3-19.3-2.4-40.2-3.1-60.3-.7-19.6-2-39.8 2.2-59.5 2.1-9.7 8.7-20.2 11.8-29.6zm25.4-57.3c19 3.8 39.1 11.9 58.8 15.9 19.1 4.1 38 11.1 57.6 15.2 19.3 4.1 43.7 3.8 63 7.9-3.8 28.7-19.8 23.4-33.1 48.6-13.3 25.3-10.5 26.8-24 51.9-13.4 25.1 1.9 44.5-27.8 46.6-29.7 1.9-20.2-18.9-40.2-41.8-20-22.8-23.4-20.1-43.3-42.8-19.8-22.5-21.5-22.4-35.2-48.7 6.6-18.3 13.8-37.2 24.2-52.8zm-30.1 49.6c-19.3-8.6-11.4-19-25.3-34.6-13.7-15.6-22.1-10.3-23.6-30.3 25.3 5.2 49.7 8 76.9 13.6-9.7 14.4-21.8 34.6-28 51.3zm315.8-158.3c4.2 1 5.8 4.5 9.9 5.7 4.3 27.3-.8 27.4 1.8 54.7 2.4 27.4 11.9 27 14.4 54.5 2.6 27.4 5.7 28.4-1.4 54.3-19.3-4.2-37.3-7.1-58.5-11.4-22.8-4.8-41.8-9.8-64.1-14.4 1.5-27.7 8.4-24.8 20.9-49s8.6-26.5 21-50.6c12.5-24.3 14.5-23.4 30.3-45.6 8.6.8 17.2-.3 25.7 1.8zm-25.2-8.9c10.9-29.6-1.2-59.7 30.7-53.2 31.4 6.5-.3 29.6 1 61.2-3.5-1-2.6 2.3-6.2 1.4-8.3-1.8-17.6-8.3-25.5-9.4zm41 15.5c18.9 5.7 38.4 15.8 55.3 25.1 17.4 9.6 31.2 22.9 46.2 35.6 15.2 12.9 35.3 20.9 47.5 36.4 12.2 15.6 17.5 35.8 26.5 53.5 9 17.7 18.9 35.2 24.2 54.2-3.7-.8-7.5-5.2-11.4-6-17-3.8-36.5-3.8-57.4-8.6-17.7-3.8-37.1-3.5-57.4-8-17.9-3.8-35.6-13.4-55.4-17.7-11-25.8-5.6-27-8-54.5-2.4-27.4 5.2-28-1.2-55-7-28-16.4-29.2-8.9-55zm31.6 352c-14.7 6.4-33 10.5-47.7 17-14.8 6.4-31.2 9.8-46.2 16.2-15.1 6.4-29.9 20.9-44.4 27-20.9-14-12.4-23.6-28.7-42.4-16.4-18.7-18.7-16.8-35-35.6-16.3-18.6-27.3-14.1-28.5-37.6-1.8-29.9 9.5-26.2 23.2-52s9.6-28 23.4-53.9c13.6-25.8 11.3-28.5 32.5-48.7 22.1 4.6 44.3 6.5 65.9 11.1 22.4 4.8 42.9 12.2 64.4 16.8 11.9 28.7 5.6 29.7 8.6 60s3.7 29.9 9.6 60c6.1 30.8 7 32.2 2.9 62.1zm-153.3-215.4c-19.7-4.2-40.6-11.8-59.2-15.6-20.1-4.2-39-11.3-57.3-15.1-20.8-4.3-45.1-2.2-62.6-5.7 10.7-15.3 28.9-28.8 42.8-41.3 14-12.6 27-25.9 43.5-35.4s35.3-13.3 53.5-19.1c18.1-5.7 35.6-13.7 55-15.6 18.9-1.9 43.7 0 63.4 2.2-2.9 27.4-18.2 23.2-30.8 47.4-12.5 24.2-12.9 23.8-22.3 49.6-10 25.9-6.7 29.6-26 48.6zm17 277.3c21.3 11.4 13.4 21.5 29.5 39.8 15.9 18.2 13.4 20.2 29.6 38.7 15.9 18.5 31.4 10.2 39.9 32.5-17.1 2-38.8 1-56.9-.4-17.5-1.4-35.3-1.4-53.1-6-19.8-5.3-37.3-15.9-55.1-24.7-18.5-9-37.9-16.7-54-28.8 17.9-7.3 36.3-20.4 57.6-29.2 18.8-8 42.1-13.5 62.5-21.9zm137.6-64.4c-11-28.5 1.2-30.4-1.5-60.2-3-29.7.4-29.7-2.4-59.5-2.9-29.7-22.8-32.5-14.8-60.6 21 4.5 45.1 12.6 64.6 17 21.3 4.6 42.2 6.2 61.2 10.3 22.1 4.9 40.1 12.5 58.4 16.8 4.9 19.7 11 37.9 11.4 58.4-13.3 6-26.2 17.1-41.4 24.2-13.7 6.2-31.1 7.3-46.3 14-14.1 6.2-27.3 15.5-42.1 22-14.3 6.5-32.3 11.3-47.1 17.6zm172.4-138.2c15.3 3.5 30.8 10.3 42.4 13.3 19.3 4.8 32 11.5 39.2 14.3 0 .3 3.8-.4 3.8-.1-6.9 3.3-22.9 3-40.1 11-10.7 4.9-22.3 13.3-36.3 19.7-.6-19.2-4.6-39.9-9-58.2zm84.6 16.8c-7.5-2.4-22-8.7-42.9-14-11.1-2.9-21.3-7.6-37.7-11.3-5.3-19.8-20-34.1-29.2-52.4-9.1-18.5-14.5-39-27.3-55.3-12.6-16.2-29.2-29.2-44.8-42.5-15.5-13.2-30.4-28.4-48.6-38-17.7-9.6-38.7-14.1-58.5-20-12.1-38.2-8.8-39.7-11.8-79.2 1.4.3 8.1 1 9.6 1.2 18.2 4.2 36.7 6.8 53.6 13.6 17.4 6.8 32.6 18.5 48.6 27.7 16.3 9.5 33.1 17.8 47.7 29.5 14.7 11.8 31.2 22.3 44.1 36.1 12.9 14 22.4 31.1 33.3 46.7 10.7 15.6 20.1 32.3 28.7 49.4 8.4 17 18.5 34.1 24.3 52 5.6 17.7 7.8 38.1 10.9 56.5zm-297.1-313.1c-9 38.7-15.6 37.3-39.8 68.3-17-2.2-32.9-6.5-49.4-5.6-16.8 1-31.5 12.5-47.7 16.4-16.3 3.8-34.2 3-49.2 9.6-15.1 6.7-28 17.4-41.4 26.5-13.4 9.1-29.1 16.6-40.6 28-11.4 11.3-18.9 26.9-28 40.3-15.2-3.1-30.1-1.5-42.1-4.1-18.6-3.7-31.2-11.8-39.5-13.3 8.8-15.8 16.3-32.2 27.4-46.2 11.3-14.1 26.6-24.7 39.9-36.8 13.4-12.2 25.9-25.4 41.3-35.3 15.2-9.9 29.9-22.1 46.6-29.7 16.7-7.5 35.7-10.9 53.6-15.8 17.7-4.8 36.3-8 54.7-10 18.2-2 37.1-5.6 55.9-4.8 18.9 1.1 39.7 8.7 58.3 12.5zM866.4 667c3-13.7 11-25.9 15.6-39 4.8-13.3 5.8-22.5 12.2-34.8 18.9 11 20 9.5 34.2 25.7 14.3 16.3 12.5 17.7 23.2 36.3-3.7 10.3-4.1 20.2-6.4 31.4-3.4 16.2-9.2 31.9-9.5 47.9-.3 16.6 5.6 33.1 8.6 49.4 3 16.4 11.8 31.2 17.7 46.8 6 15.9 7.7 33 16.6 47.7 8.8 14.8 21.9 29.6 33.3 42.9-11.8 37.1-13.7 38.2-40.9 66.3-14.5-14.5-28-28.4-40.1-44.5-11.9-16.3-26.2-32.2-35.3-49.8-9.1-17.7-13.7-37.3-19.8-55.9-5.8-18.5-10-37.6-12.9-56.8-2.6-18.7-6.8-38.4-6.2-57.4.9-18.7 5.8-37.5 9.7-56.2zM978 997.2c7.7-3.1 24.3-7.1 41.7-14.1 11.1-4.5 22.3-6.5 36.7-12.4 16.6 12.9 37.1 15.5 56.5 25.1 18.7 9.2 36.4 22.8 57.3 28.4 18.9 4.9 38 5.2 56.5 6.5 19 1.4 35.8 4.3 54 2 18.9 12.5 17.4 13.6 32.2 30.8 14.8 17.1 28.9 12.6 34.5 33.9-19.6 4.9-45.2 8.6-65.9 9.9-20.4 1.4-41.1 4.1-62.3 1.9-20.6-2.2-41.1-9.8-62.2-15.3-16.6-4.5-33.3-7.3-48.9-13.6-15.9-6.5-33.1-10.9-47.8-19-15.1-8.4-28-20.6-41.7-30.4-14.1-10.3-28.3-22.3-40.6-33.7zm366.9 100c-13-39.2-7.7-41.1-3.8-80.8 16.6-6 33.5-9.6 48.3-18.7 14.7-9.1 22.1-27.6 34.6-39.5 12.4-11.9 28.7-20.6 38.4-35.2 9.5-14.3 14.8-31.5 21.3-47.9 6.4-16.2 15.2-31.9 18.2-49.7 3-16.8 0-35.3-.3-52.1 14-6.4 24.6-16.6 35.4-21.5 16.7-7.7 31.8-8.4 39.2-11.9 2.2 17.4 6 34.8 5.7 52.4-.3 17.1-5.7 33.9-8.7 51.1-3 17.5-4.3 35.3-9.8 51.5-5.6 16.6-8.8 34.6-16.7 49.7-8 15.3-20.2 28.1-30.4 41.7-10.3 13.6-22.1 26.2-34.4 37.7-12.4 11.5-24 24.8-38 34.4-14.3 9.5-32.9 12.5-48.5 19.7-15.6 6.9-33.6 14.3-50.5 19.1z" class="st9"/>
  <path d="M1067 494.8c9.1 2.2 17.5-7.6 19.3-16.4 1.8-8.8-2.9-18.1-11.9-20.2-9.1-2.2-17.4 4.1-19.1 13-1.8 8.7 2.6 21.4 11.7 23.6zM1462.5 593.1c9.1 2.2 17.8-6.9 19.3-16.2 1.5-9.1-4.5-14.1-13.6-16.3-9.1-2.2-12.5.4-14.3 9.6-1.4 9.4-.7 20.8 8.6 22.9zM1504.5 908c-9.2-2.3-13 1.4-14.7 10.5-1.5 9.1.8 13.6 10 16.2 9.2 2.4 17.7.7 19.1-8.6 1.6-9.1-5.2-15.6-14.4-18.1zM895.2 757c-9.2-2.3-24.6 4.2-26.5 13-1.9 8.7 9.8 19.6 19 22 9.2 2.3 14.7-4.2 16.6-12.9 2-8.8.4-19.6-9.1-22.1zM1166.4 1042.1c-9.5-2.4-16.2-1.2-17.8 7.6-1.8 9 3.3 16.8 12.6 19.3 9.5 2.4 24.3 0 25.9-9 1.8-9-11.4-15.5-20.7-17.9z" class="st9"/>
</svg>
