<svg xmlns="http://www.w3.org/2000/svg" xml:space="preserve" id="Layer_1" x="0" y="0" style="enable-background:new 0 0 2000 2000" version="1.1" viewBox="0 0 2000 2000">
  <style>
    .st4{fill:#4c3924}.st14{fill:#a47a63}
  </style>
  <linearGradient id="SVGID_1_" x1="1078.681" x2="1078.681" y1="1306.654" y2="441.694" gradientUnits="userSpaceOnUse">
    <stop offset=".422" style="stop-color:#614947"/>
    <stop offset=".891" style="stop-color:#3f322d"/>
  </linearGradient>
  <path d="m1423.2 1109.8-286.4 196.9H946l-211.8-155.1V877.2l61.8-49 152.9-121-1.6-29.5L767 549.1l137.2-32.8 89.5-74.6 134.2 47.7 149.1 3-190.4 160.3 11.5 30.6 62.7 25.2 196.8 79.2z" style="fill:url(#SVGID_1_);stroke:#281e1b;stroke-width:6.7109;stroke-miterlimit:10"/>
  <linearGradient id="SVGID_2_" x1="806.276" x2="854.336" y1="666.908" y2="666.908" gradientTransform="scale(-1) rotate(49.469 1456.793 -1958.198)" gradientUnits="userSpaceOnUse">
    <stop offset="0" style="stop-color:#342723"/>
    <stop offset="1" style="stop-color:#342723"/>
  </linearGradient>
  <path d="M916.3 785.2 960.7 684l37.1 14.5z" style="fill:url(#SVGID_2_)"/>
  <linearGradient id="SVGID_3_" x1="920.816" x2="920.816" y1="833.735" y2="694.943" gradientTransform="rotate(-7.161 801.097 655.294)" gradientUnits="userSpaceOnUse">
    <stop offset="0" style="stop-color:#987458"/>
    <stop offset=".539" style="stop-color:#755845"/>
  </linearGradient>
  <path d="m994.4 671-20.3 142.4-92 9.6-15.9-47.6 114.4-102.7 4.8 28.9-108.1 85.7 1.6 4.7 76-13.8L985.7 672z" style="fill:url(#SVGID_3_)"/>
  <linearGradient id="SVGID_4_" x1="876.861" x2="876.861" y1="665.565" y2="538.029" gradientTransform="rotate(45.344 772.654 641.84)" gradientUnits="userSpaceOnUse">
    <stop offset="0" style="stop-color:#987458"/>
    <stop offset=".539" style="stop-color:#755845"/>
  </linearGradient>
  <path d="m969 692.9-119.2 60.8-64.5-65.2 22.8-33.8L959.2 683 938 700.8l-132.6-30-2.7 4.2 57.1 51.8 103-40.1z" style="fill:url(#SVGID_4_)"/>
  <path d="m805.4 670.8 6.8-10.4L937 684.6v12.1l-6.7 2.7zM877.5 787.8l-3.9-11.8 96.5-82.7 6.6 7.2-2.7 10z" class="st4"/>
  <linearGradient id="SVGID_5_" x1="818.067" x2="1247.409" y1="507.93" y2="507.93" gradientUnits="userSpaceOnUse">
    <stop offset=".103" style="stop-color:#614947"/>
    <stop offset=".478" style="stop-color:#7b5d5b"/>
    <stop offset="1" style="stop-color:#614947"/>
  </linearGradient>
  <path d="M818.1 555c2.3-.3 4.5-.9 6.7-1.5l6.6-1.8 13.2-3.7 26.5-7.4 26.5-7.3 26.5-7.3-2 1.1L939 511c5.7-5.3 11.3-10.7 17-16l17.1-15.9c5.7-5.3 11.4-10.6 17.2-15.8l2.7-2.5 3.5 1.3c9.4 3.6 18.7 7.2 28.1 10.9 9.4 3.6 18.7 7.3 28 11l14 5.5 14 5.6 27.9 11.3-2.3-.3c11.7-.8 23.4-1.7 35.1-2.4 11.7-.8 23.4-1.4 35.1-2.1l8.8-.5 8.8-.4 17.6-.9 17.6-.7c5.9-.2 11.7-.4 17.6-.6-5.8.9-11.6 1.8-17.4 2.6l-17.4 2.5-17.5 2.3-8.7 1.2-8.7 1.1c-11.6 1.4-23.3 3-34.9 4.3-11.7 1.4-23.3 2.7-35 4l-1.1.1-1.2-.5-28.2-10.5-14.1-5.3-14.1-5.3c-9.4-3.6-18.8-7.2-28.1-10.8-9.4-3.6-18.7-7.3-28.1-10.9l6.2-1.1-17.4 15.6c-5.8 5.2-11.7 10.3-17.5 15.5-5.8 5.2-11.7 10.3-17.6 15.4L928.2 534l-1 .8-1 .2c-9 1.9-17.9 3.9-26.9 5.7-9 1.8-17.9 3.7-27 5.4l-13.5 2.6c-4.5.9-9 1.7-13.5 2.4-4.5.8-9 1.6-13.6 2.2-2.3.3-4.5.7-6.8 1-2.2.4-4.5.7-6.8.7z" style="fill:url(#SVGID_5_)"/>
  <linearGradient id="SVGID_6_" x1="764.508" x2="1423.174" y1="1047.217" y2="1047.217" gradientUnits="userSpaceOnUse">
    <stop offset="0" style="stop-color:#453631"/>
    <stop offset=".891" style="stop-color:#3f322d"/>
  </linearGradient>
  <path d="m1423.2 1109.8-286.4 196.9H946l-181.5-175.5 1.2-243 100.5-100.4-72.1 142.3 24 179.7 122.9 99.8 56.8-99.8 188.7 124.2z" style="fill:url(#SVGID_6_)"/>
  <linearGradient id="SVGID_7_" x1="1117.058" x2="1423.174" y1="909.172" y2="909.172" gradientUnits="userSpaceOnUse">
    <stop offset=".394" style="stop-color:#7b5d5b"/>
    <stop offset="1" style="stop-color:#614947"/>
  </linearGradient>
  <path d="M1423.2 1109.8s-288.8-187.8-304.6-247 97.6-59.2 128.3-75.1c22.2-11.5-46.2-55.6-86-79.2l196.7 79.1 65.6 322.2z" style="fill:url(#SVGID_7_)"/>
  <linearGradient id="SVGID_8_" x1="887.726" x2="994.364" y1="629.794" y2="629.794" gradientUnits="userSpaceOnUse">
    <stop offset="0" style="stop-color:#342723"/>
    <stop offset="1" style="stop-color:#342723"/>
  </linearGradient>
  <path d="m887.7 576.6 106.7 87.6-35.2 18.8z" style="fill:url(#SVGID_8_)"/>
  <linearGradient id="SVGID_9_" x1="1047.561" x2="1082.702" y1="431.343" y2="431.343" gradientTransform="rotate(47.654 879.2 563.787)" gradientUnits="userSpaceOnUse">
    <stop offset="0" style="stop-color:#342723"/>
    <stop offset="1" style="stop-color:#342723"/>
  </linearGradient>
  <path d="M1174.3 542 1054 679.9l-37.6-13.3z" style="fill:url(#SVGID_9_)"/>
  <linearGradient id="SVGID_10_" x1="975.983" x2="1035.942" y1="582.437" y2="582.437" gradientTransform="rotate(5.438 867.818 650.622)" gradientUnits="userSpaceOnUse">
    <stop offset="0" style="stop-color:#342723"/>
    <stop offset="1" style="stop-color:#342723"/>
  </linearGradient>
  <path d="m990.6 502.2 44.2 168.5-36.8 15.4z" style="fill:url(#SVGID_10_)"/>
  <linearGradient id="SVGID_11_" x1="638.343" x2="790.569" y1="581.426" y2="581.426" gradientTransform="scale(-1) rotate(-6.298 -11972.673 16410.344)" gradientUnits="userSpaceOnUse">
    <stop offset="0" style="stop-color:#342723"/>
    <stop offset="1" style="stop-color:#342723"/>
  </linearGradient>
  <path d="m1180.7 765-162.2-81.7 32.9-22.6z" style="fill:url(#SVGID_11_)"/>
  <linearGradient id="SVGID_12_" x1="713.653" x2="820.144" y1="695.937" y2="695.937" gradientTransform="scale(-1) rotate(37.573 1952.04 -2647.933)" gradientUnits="userSpaceOnUse">
    <stop offset="0" style="stop-color:#342723"/>
    <stop offset="1" style="stop-color:#342723"/>
  </linearGradient>
  <path d="m1041.7 787.8-42.2-119.9 39.4 6.6z" style="fill:url(#SVGID_12_)"/>
  <linearGradient id="SVGID_13_" x1="1024.417" x2="1024.417" y1="709.072" y2="650.673" gradientUnits="userSpaceOnUse">
    <stop offset=".422" style="stop-color:#987458"/>
    <stop offset=".88" style="stop-color:#755845"/>
  </linearGradient>
  <path d="m930.3 672.2 172.6-21.5 15.7 30.8-182.4 27.6z" style="fill:url(#SVGID_13_)"/>
  <path d="M871.2 775c1.9 4.5 3.8 9.1 5.7 13.6 1.8 4.6 3.7 9.1 5.5 13.7l-1.2-.7 9.9-2 9.9-1.9c6.6-1.3 13.2-2.5 19.8-3.7 6.6-1.3 13.2-2.4 19.8-3.6 6.6-1.2 13.2-2.3 19.8-3.5l-1.6 1.5 2.6-10.5 2.7-10.4c1.8-7 3.6-13.9 5.4-20.8 1.8-6.9 3.7-13.9 5.6-20.8 1.9-6.9 3.9-13.8 5.9-20.7-1.3 7.1-2.8 14.1-4.2 21.1-1.5 7-3 14-4.5 21.1-1.6 7-3.1 14-4.7 21l-2.4 10.5-2.5 10.5-.3 1.2-1.3.2c-6.6 1.2-13.2 2.4-19.8 3.5-6.6 1.1-13.2 2.3-19.9 3.3-6.6 1.1-13.2 2.2-19.9 3.2l-9.9 1.5-10 1.5-1 .1-.3-.9c-1.6-4.7-3.1-9.4-4.6-14-1.6-4.6-3.1-9.3-4.5-14zM810.1 657.2c-2.5 4.3-5 8.5-7.5 12.8-2.5 4.2-5 8.5-7.6 12.7l-.2-1.4 7.5 6.7 7.5 6.7c5 4.5 9.9 9 14.9 13.5s9.9 9.1 14.8 13.7c4.9 4.5 9.8 9.1 14.7 13.8l-2.1-.4 9.9-4.2 9.9-4.2c6.6-2.8 13.3-5.5 19.9-8.2 6.6-2.7 13.3-5.4 20-8 6.7-2.6 13.4-5.2 20.1-7.7-6.4 3.2-12.9 6.3-19.4 9.4-6.5 3.1-13 6.1-19.5 9.1s-13.1 6-19.6 8.9l-9.8 4.4-9.9 4.3-1.2.5-1-.9c-4.9-4.6-9.8-9.1-14.7-13.7-4.9-4.6-9.8-9.2-14.6-13.8l-14.5-13.9-7.2-7-7.2-7.1-.7-.7.5-.8c2.8-4.1 5.6-8.1 8.4-12.1 2.9-4.4 5.7-8.4 8.6-12.4z" class="st14"/>
</svg>
