<svg xmlns="http://www.w3.org/2000/svg" xml:space="preserve" id="Layer_1" x="0" y="0" style="enable-background:new 0 0 2000 2000" version="1.1" viewBox="0 0 2000 2000">
  <style>
    .st4{fill:#4c3924}.st14{fill:#a47a63}
  </style>
  <linearGradient id="SVGID_1_" x1="1077.645" x2="1077.645" y1="573.371" y2="-1386.911" gradientTransform="translate(0 1400)" gradientUnits="userSpaceOnUse">
    <stop offset=".422" style="stop-color:#614947"/>
    <stop offset=".891" style="stop-color:#3f322d"/>
  </linearGradient>
  <path d="m1858.4 1527.1-649.1 446.3H776.9l-480-351.6V1000l140.2-111 346.4-274.3-3.6-66.8-408.6-291.5 310.9-74.2L885.1 13.1l304.1 108L1527 128l-431.4 363.2 26 69.4 142.1 57.1 446 179.5z" style="fill:url(#SVGID_1_);stroke:#281e1b;stroke-width:15.2077;stroke-miterlimit:10"/>
  <linearGradient id="SVGID_2_" x1="3567.159" x2="3676.166" y1="768.301" y2="768.301" gradientTransform="scale(-1) rotate(49.469 2976.23 -4720.272)" gradientUnits="userSpaceOnUse">
    <stop offset="0" style="stop-color:#342723"/>
    <stop offset="1" style="stop-color:#342723"/>
  </linearGradient>
  <path d="m709.7 791.6 100.6-229.5 84 33z" style="fill:url(#SVGID_2_)"/>
  <linearGradient id="SVGID_3_" x1="924.578" x2="924.578" y1="-648.855" y2="-963.385" gradientTransform="rotate(-7.161 12925.396 1353.687)" gradientUnits="userSpaceOnUse">
    <stop offset="0" style="stop-color:#987458"/>
    <stop offset=".539" style="stop-color:#755845"/>
  </linearGradient>
  <path d="m886.7 532.8-46 322.6-208.6 21.7-35.9-107.7 259.1-232.8 10.9 65.5-244.9 194.2 3.5 10.6 172.3-31.2L866.9 535z" style="fill:url(#SVGID_3_)"/>
  <linearGradient id="SVGID_4_" x1="-102.574" x2="-102.574" y1="540.887" y2="251.662" gradientTransform="rotate(45.344 46.892 1341.955)" gradientUnits="userSpaceOnUse">
    <stop offset="0" style="stop-color:#987458"/>
    <stop offset=".539" style="stop-color:#755845"/>
  </linearGradient>
  <path d="M829.1 582.3 558.9 720.2 412.7 572.5l51.8-76.7L806.8 560l-48 40.3-300.5-68-6 9.5 129.3 117.4L815 568.3z" style="fill:url(#SVGID_4_)"/>
  <path d="m458.3 532.3 15.5-23.6 282.7 54.9v27.3l-15.1 6.2zM621.7 797.5l-8.8-26.8 218.6-187.5 15 16.3-6.1 22.7z" class="st4"/>
  <linearGradient id="SVGID_5_" x1="487.11" x2="1460.049" y1="-1236.859" y2="-1236.859" gradientTransform="translate(0 1400)" gradientUnits="userSpaceOnUse">
    <stop offset=".103" style="stop-color:#614947"/>
    <stop offset=".478" style="stop-color:#7b5d5b"/>
    <stop offset="1" style="stop-color:#614947"/>
  </linearGradient>
  <path d="M487.1 269.9c5.2-.7 10.2-2 15.2-3.4 5-1.3 10-2.7 14.9-4l30-8.5 60-16.8 60-16.5 60-16.5-4.6 2.4 38.3-36.5c12.9-12 25.7-24.2 38.6-36.3 12.9-12 25.8-24.1 38.7-36 12.9-12 25.8-24.1 39-35.8l6.2-5.7 7.9 3c21.4 8.2 42.4 16.3 63.6 24.7 21.4 8.2 42.4 16.5 63.5 24.9l31.7 12.5 31.7 12.8 63.2 25.7-5.2-.7c26.5-1.9 53-3.9 79.5-5.4 26.5-1.9 53-3.2 79.5-4.7l19.9-1.1 19.9-.9 39.8-2 39.8-1.6c13.3-.4 26.5-.9 39.8-1.3-13.2 2-26.2 4-39.4 5.9l-39.4 5.7-39.7 5.2-19.8 2.7-19.8 2.4c-26.2 3.2-52.7 6.7-79.1 9.7-26.5 3.2-52.7 6.2-79.3 9l-2.4.3-2.7-1.1-63.9-23.8-32-12L1009 134c-21.4-8.2-42.6-16.3-63.6-24.5C924 101.3 903 93 881.8 84.8l14-2.4c-13.2 11.8-26.2 23.5-39.4 35.4-13.2 11.8-26.5 23.4-39.7 35.1-13.2 11.8-26.5 23.4-39.8 35l-40.3 34.7-2.3 1.9-2.3.4c-20.4 4.3-40.6 8.9-60.9 12.9-20.4 4-40.6 8.5-61.2 12.2l-30.5 5.9c-10.2 2-20.4 3.9-30.5 5.4-10.2 1.9-20.4 3.6-30.8 5-5.2.7-10.2 1.6-15.5 2.3-5 .6-10.3 1.3-15.5 1.3z" style="fill:url(#SVGID_5_)"/>
  <linearGradient id="SVGID_6_" x1="365.577" x2="1858.361" y1="-14.584" y2="-14.584" gradientTransform="translate(0 1400)" gradientUnits="userSpaceOnUse">
    <stop offset="0" style="stop-color:#453631"/>
    <stop offset=".891" style="stop-color:#3f322d"/>
  </linearGradient>
  <path d="m1858.4 1527.1-649.1 446.3H776.9l-411.3-397.7 2.7-550.8 227.9-227.4-163.4 322.4 54.3 407.2 278.5 226.1 128.7-226.1 427.6 281.5z" style="fill:url(#SVGID_6_)"/>
  <linearGradient id="SVGID_7_" x1="1164.742" x2="1858.361" y1="-327.587" y2="-327.587" gradientTransform="translate(0 1400)" gradientUnits="userSpaceOnUse">
    <stop offset=".394" style="stop-color:#7b5d5b"/>
    <stop offset="1" style="stop-color:#614947"/>
  </linearGradient>
  <path d="M1858.4 1527.1s-654.5-425.5-690.2-559.8c-35.8-134.1 221.1-134.1 290.8-170.1 50.3-26.1-104.8-126-194.9-179.4L1709.7 797l148.7 730.1z" style="fill:url(#SVGID_7_)"/>
  <linearGradient id="SVGID_8_" x1="644.901" x2="886.676" y1="-960.616" y2="-960.616" gradientTransform="translate(0 1400)" gradientUnits="userSpaceOnUse">
    <stop offset="0" style="stop-color:#342723"/>
    <stop offset="1" style="stop-color:#342723"/>
  </linearGradient>
  <path d="m644.9 318.8 241.8 198.5-79.9 42.7z" style="fill:url(#SVGID_8_)"/>
  <linearGradient id="SVGID_9_" x1="162.712" x2="242.405" y1="25.562" y2="25.562" gradientTransform="rotate(47.654 244.134 1263.78)" gradientUnits="userSpaceOnUse">
    <stop offset="0" style="stop-color:#342723"/>
    <stop offset="1" style="stop-color:#342723"/>
  </linearGradient>
  <path d="M1294.3 240.4 1021.7 553l-85.2-30.3z" style="fill:url(#SVGID_9_)"/>
  <linearGradient id="SVGID_10_" x1="702.235" x2="837.996" y1="-945.513" y2="-945.513" gradientTransform="rotate(5.438 -12923.944 1350.725)" gradientUnits="userSpaceOnUse">
    <stop offset="0" style="stop-color:#342723"/>
    <stop offset="1" style="stop-color:#342723"/>
  </linearGradient>
  <path d="m878.1 150.2 100 381.8-83.3 35z" style="fill:url(#SVGID_10_)"/>
  <linearGradient id="SVGID_11_" x1="2249.564" x2="2594.486" y1="2156.858" y2="2156.858" gradientTransform="scale(-1) rotate(-6.298 -24696.226 32978.373)" gradientUnits="userSpaceOnUse">
    <stop offset="0" style="stop-color:#342723"/>
    <stop offset="1" style="stop-color:#342723"/>
  </linearGradient>
  <path d="M1308.7 745.7 941.3 560.6l74.5-51.2z" style="fill:url(#SVGID_11_)"/>
  <linearGradient id="SVGID_12_" x1="3302.189" x2="3543.751" y1="1245.155" y2="1245.155" gradientTransform="scale(-1) rotate(37.573 4009.781 -6140.584)" gradientUnits="userSpaceOnUse">
    <stop offset="0" style="stop-color:#342723"/>
    <stop offset="1" style="stop-color:#342723"/>
  </linearGradient>
  <path d="m993.9 797.5-95.8-271.8 89.3 14.9z" style="fill:url(#SVGID_12_)"/>
  <linearGradient id="SVGID_13_" x1="954.751" x2="954.751" y1="-780.969" y2="-913.25" gradientTransform="translate(0 1400)" gradientUnits="userSpaceOnUse">
    <stop offset=".422" style="stop-color:#987458"/>
    <stop offset=".88" style="stop-color:#755845"/>
  </linearGradient>
  <path d="m741.4 535.5 391.1-48.8 35.6 69.8L754.7 619z" style="fill:url(#SVGID_13_)"/>
  <path d="M607.5 768.4c4.3 10.2 8.6 20.6 12.9 30.8 4 10.5 8.5 20.6 12.5 31.1l-2.7-1.6 22.5-4.6 22.5-4.3c14.9-3 30-5.7 44.9-8.5 14.9-3 30-5.4 44.9-8.2 14.9-2.7 30-5.2 44.9-7.9l-3.6 3.4L812 775l6.2-23.5c4-15.9 8.2-31.5 12.2-47.2 4-15.6 8.5-31.5 12.8-47.2s8.9-31.2 13.3-46.9c-3 16.1-6.3 32-9.5 47.9-3.4 15.9-6.7 31.7-10.2 47.9-3.6 15.9-7 31.7-10.6 47.6l-5.4 23.8-5.7 23.8-.7 2.7-3 .4c-14.9 2.7-30 5.4-44.9 7.9-14.9 2.4-30 5.2-45.1 7.5-14.9 2.4-30 5-45.1 7.3l-22.5 3.4-22.6 3.4-2.3.3-.7-2c-3.6-10.6-7-21.4-10.5-31.7-3.8-10.7-7.1-21.3-10.2-32zM469.1 501.5c-5.7 9.7-11.3 19.2-17.1 28.9-5.7 9.5-11.3 19.2-17.2 28.8l-.4-3.2 17.1 15.2 17.1 15.2c11.3 10.2 22.5 20.4 33.8 30.5 11.3 10.2 22.5 20.6 33.5 31.1 11 10.2 22.2 20.6 33.2 31.2l-4.7-.9 22.5-9.5 22.5-9.5c14.9-6.3 30.1-12.5 45.1-18.6 14.9-6.2 30.1-12.2 45.3-18.1 15.2-5.9 30.4-11.8 45.6-17.5-14.5 7.3-29.2 14.3-44 21.4-14.8 7-29.5 13.8-44.1 20.6-14.8 6.7-29.7 13.6-44.4 20.2l-22.2 10-22.8 9.5-2.7 1.1-2.3-2c-11-10.5-22.2-20.6-33.2-31.1s-22.2-20.8-33.1-31.2c-10.9-10.5-21.9-21.1-32.8-31.5l-16.3-15.9-16.3-16.1-1.6-1.6 1.1-1.9c6.3-9.3 12.8-18.3 19.1-27.4 6.2-9.6 12.7-18.7 19.3-27.7z" class="st14"/>
</svg>
