<svg xmlns="http://www.w3.org/2000/svg" xml:space="preserve" id="Layer_1" x="0" y="0" style="enable-background:new 0 0 1000 1000" version="1.1" viewBox="0 0 1000 1000"><style>.st134{fill:#365866}.st135{fill:#f3fcff}.st145{fill:#60472c}</style><linearGradient id="SVGID_00000077295752577760067910000015208994627006145976_" x1="937.965" x2="937.965" y1="-95.644" y2="-387.728" gradientTransform="rotate(19.265 -571.4 -1670.187)" gradientUnits="userSpaceOnUse"><stop offset="0" style="stop-color:#b8bec9"/><stop offset=".078" style="stop-color:#709cb1"/><stop offset=".369" style="stop-color:#b6cbd9"/><stop offset=".42" style="stop-color:#e1f0fb"/><stop offset=".611" style="stop-color:#e1f0fb"/><stop offset=".651" style="stop-color:#b6c8d6"/><stop offset="1" style="stop-color:#b8bec9"/></linearGradient><path d="m451.36 252.43-85.4 56.68-15.98 10.6-43.26-57.32-15.09-101.07 60.12-150.4 2.19 37.93 5.33 92 42.32 66.47z" style="fill:url(#SVGID_00000077295752577760067910000015208994627006145976_)"/><linearGradient id="SVGID_00000009591745536610058750000012330978923662450878_" x1="890.415" x2="983.773" y1="-360.769" y2="-117.564" gradientTransform="rotate(19.265 -571.4 -1670.187)" gradientUnits="userSpaceOnUse"><stop offset="0" style="stop-color:#b8bec9"/><stop offset=".289" style="stop-color:#d4d5d6"/><stop offset=".611" style="stop-color:#e1f0fb"/><stop offset="1" style="stop-color:#b8bec9"/></linearGradient><path d="m451.36 252.43-85.4 56.68-39.59-52.46-15.1-101.07 42.67-106.73 5.33 92 42.32 66.47z" style="fill:url(#SVGID_00000009591745536610058750000012330978923662450878_)"/><path d="M451.51 252.45c-29.26 19.73-71.68 49.16-100.83 68.32l-.98.66-.72-.95c-14.34-18.86-29.12-38.41-43.19-57.38-4.43-29.4-10.19-72.59-14.61-101.7 18.63-47.24 40.59-103.73 59.26-150.99l2.32-5.9.39 6.34 1.99 32.48c1.09 19.97 4.95 78.87 5.39 96.73 12.03 19.37 30.49 48.21 41.7 66.56 12.27 11.37 37.05 34.4 49.28 45.83zm-.3-.03c-14.52-12.91-35.56-31.3-50.27-44.39-12.54-19.14-30.33-46.88-42.93-66.38-2.83-37.54-5.52-93.37-7.67-130.65l2.71.44c-13.5 33.48-32.2 79.09-45.85 112.49.13-.11-15.46 38.35-15.12 37.32l3.85 25.25c2.24 15.99 9.88 60.88 11.72 75.17 10.92 14.25 21.78 28.55 32.57 42.9l10.76 14.37-1.7-.29c28.81-18.94 72.52-47.37 101.93-66.23z" class="st134"/><path d="M326.37 256.65c-6.55-33.62-11.98-67.44-17.13-101.29 8.82-22.27 18.11-44.88 27.43-66.99 5.46-12.77 11.51-26.94 17.27-39.52-4.5 13.05-9.87 27.52-14.73 40.53-8.42 22.28-17.22 44.88-26.1 66.93l.12-1.03c1.22 8.43 2.49 16.85 3.64 25.29 3.53 25.32 6.86 50.66 9.5 76.08z" class="st135"/><linearGradient id="SVGID_00000160151826641790744100000001684938009252815035_" x1="1299.536" x2="1299.536" y1="-2913.081" y2="-3205.166" gradientTransform="rotate(93.164 -519.567 -1623.699)" gradientUnits="userSpaceOnUse"><stop offset="0" style="stop-color:#b8bec9"/><stop offset=".078" style="stop-color:#709cb1"/><stop offset=".369" style="stop-color:#b6cbd9"/><stop offset=".42" style="stop-color:#e1f0fb"/><stop offset=".611" style="stop-color:#e1f0fb"/><stop offset=".651" style="stop-color:#b6c8d6"/><stop offset="1" style="stop-color:#b8bec9"/></linearGradient><path d="m759.16 359.55-78.13-66.34-14.62-12.41 43.09-57.46 92.92-42.52 161.17 16.06-35.84 12.62-86.91 30.63-52.13 59.09z" style="fill:url(#SVGID_00000160151826641790744100000001684938009252815035_)"/><linearGradient id="SVGID_00000033359068172829446820000017192520295550532224_" x1="1251.986" x2="1345.344" y1="-3178.206" y2="-2935.001" gradientTransform="rotate(93.164 -519.567 -1623.699)" gradientUnits="userSpaceOnUse"><stop offset="0" style="stop-color:#b8bec9"/><stop offset=".289" style="stop-color:#d4d5d6"/><stop offset=".611" style="stop-color:#e1f0fb"/><stop offset="1" style="stop-color:#b8bec9"/></linearGradient><path d="m759.16 359.55-78.13-66.34 39.43-52.58 92.92-42.53 114.37 11.4-86.91 30.63-52.13 59.09z" style="fill:url(#SVGID_00000033359068172829446820000017192520295550532224_)"/><path d="M759.19 359.7c-27.47-22.96-67.62-55.67-94.5-78.7 6.67-8.98 15.55-20.94 22.2-29.72 7.29-9.63 14.5-19.3 21.85-28.89.13-.11 46.74-20.82 46.92-20.94 13.48-6.08 32.92-14.81 46.56-21.05l.11-.05.12.01 40.31 3.89c38.45 3.53 88.87 8.12 127.27 11.83-3.09 1.09-32.69 11.65-36.63 13.04-20.25 7.28-70.99 25.02-92.07 32.42-11.94 14.12-38.31 43.08-51.76 58.1-7.53 14.95-22.79 45.14-30.38 60.06zm-.06-.3c8.38-17.53 20.21-42.85 28.71-60.6 14.91-17.35 36.63-42.14 51.88-59.65 35.29-13.13 88.18-31.19 123.4-43.59l.33 2.73c-35.91-3.69-84.92-9-120.8-12.86.14.09-41.14-4.22-40.05-4.18l-23.19 10.7c-14.74 6.58-55.76 26.38-68.98 32.1a6120.819 6120.819 0 0 1-32.19 43.19l-10.82 14.33-.19-1.71c26.2 22.4 65.63 56.52 91.9 79.54z" class="st134"/><path d="M720.46 240.63c30.49-15.61 61.47-30.2 92.57-44.55 23.84 2.3 48.15 4.96 71.97 7.78 13.78 1.71 29.08 3.59 42.76 5.64-13.79-.7-29.18-1.86-43.03-2.91-23.74-1.91-47.89-4.1-71.55-6.52l1.02-.17c-7.76 3.5-15.5 7.07-23.29 10.51-23.34 10.41-46.76 20.64-70.45 30.22z" class="st135"/><linearGradient id="SVGID_00000125599112162714377250000006716316303947364773_" x1="-610.152" x2="-610.152" y1="-4052.365" y2="-4344.449" gradientTransform="rotate(150.595 -521.977 -1578.877)" gradientUnits="userSpaceOnUse"><stop offset="0" style="stop-color:#b8bec9"/><stop offset=".078" style="stop-color:#709cb1"/><stop offset=".369" style="stop-color:#b6cbd9"/><stop offset=".42" style="stop-color:#e1f0fb"/><stop offset=".611" style="stop-color:#e1f0fb"/><stop offset=".651" style="stop-color:#b6c8d6"/><stop offset="1" style="stop-color:#b8bec9"/></linearGradient><path d="m738.13 661.33 13.84-101.56 2.59-18.99 71.62 5.37 85.86 55.41 73.23 144.46-29.93-23.39-72.6-56.76-77.86-12.12z" style="fill:url(#SVGID_00000125599112162714377250000006716316303947364773_)"/><linearGradient id="SVGID_00000083078261383241537790000015466950883532515471_" x1="-657.701" x2="-564.343" y1="-4317.49" y2="-4074.285" gradientTransform="rotate(150.595 -521.977 -1578.877)" gradientUnits="userSpaceOnUse"><stop offset="0" style="stop-color:#b8bec9"/><stop offset=".289" style="stop-color:#d4d5d6"/><stop offset=".611" style="stop-color:#e1f0fb"/><stop offset="1" style="stop-color:#b8bec9"/></linearGradient><path d="m738.13 661.33 13.84-101.56 65.54 4.92 85.86 55.41 51.97 102.53-72.6-56.76-77.86-12.12z" style="fill:url(#SVGID_00000083078261383241537790000015466950883532515471_)"/><path d="M738.03 661.44c4.56-35.51 10.51-86.95 15.44-122 11.16.79 26.02 1.83 37 2.71 12.04.96 24.08 1.83 36.11 2.86.16.05 42.71 28.18 42.91 28.26 12.38 8.09 30.2 19.77 42.8 27.9l.1.07.06.11 18.42 36.06c17.73 34.3 41 79.26 58.55 113.62l-5.02-3.89c-29.2-22.55-73.18-57-102.59-80.08-18.33-2.46-56.93-9.09-76.83-12.34-16.64 1.68-50.3 5.08-66.95 6.72zm.21-.21c19.29-2.38 46.99-6.03 66.53-8.43 22.65 3.23 55.23 8.18 78.2 11.6 30.06 22.67 73.76 57.52 103.17 80.52l-2.12 1.75c-16.22-32.24-38.13-76.41-54.19-108.72-.01.17-18.59-36.94-18.03-36l-21.51-13.78c-13.48-8.88-52.25-32.79-64.19-40.85-17.91-1.21-35.82-2.5-53.73-3.87l-17.9-1.41 1.34-1.09c-4.79 34.15-12.31 85.74-17.57 120.28z" class="st134"/><path d="M817.51 564.69c29.57 17.28 58.55 35.54 87.38 54.03 10.9 21.33 21.74 43.24 32.19 64.84 5.98 12.53 12.63 26.44 18.27 39.07-6.83-12-14.14-25.59-20.71-37.83-11.17-21.04-22.33-42.56-33.02-63.8l.69.77c-7.13-4.65-14.3-9.25-21.39-13.97-21.35-14.07-42.58-28.3-63.41-43.11z" class="st135"/><linearGradient id="SVGID_00000105385182532754781990000018119628039346310308_" x1="-3021.41" x2="-3021.41" y1="-1636.57" y2="-1928.655" gradientTransform="rotate(-115.081 -430.314 -1580.667)" gradientUnits="userSpaceOnUse"><stop offset="0" style="stop-color:#b8bec9"/><stop offset=".078" style="stop-color:#709cb1"/><stop offset=".369" style="stop-color:#b6cbd9"/><stop offset=".42" style="stop-color:#e1f0fb"/><stop offset=".611" style="stop-color:#e1f0fb"/><stop offset=".651" style="stop-color:#b6c8d6"/><stop offset="1" style="stop-color:#b8bec9"/></linearGradient><path d="m491.38 749.03 100.23 21.45 18.75 4.02-10.76 71.01-61.72 81.43-149.58 62.14L413.89 961l62.06-68.12 17.96-76.73z" style="fill:url(#SVGID_00000105385182532754781990000018119628039346310308_)"/><linearGradient id="SVGID_00000044139354973763592100000017334233064544704446_" x1="-3068.959" x2="-2975.602" y1="-1901.695" y2="-1658.49" gradientTransform="rotate(-115.081 -430.314 -1580.667)" gradientUnits="userSpaceOnUse"><stop offset="0" style="stop-color:#b8bec9"/><stop offset=".289" style="stop-color:#d4d5d6"/><stop offset=".611" style="stop-color:#e1f0fb"/><stop offset="1" style="stop-color:#b8bec9"/></linearGradient><path d="m491.38 749.03 100.23 21.45-9.85 64.98-61.72 81.45L413.89 961l62.06-68.12 17.96-76.73z" style="fill:url(#SVGID_00000044139354973763592100000017334233064544704446_)"/><path d="M491.29 748.91c35.07 7.23 85.91 17.03 120.49 24.6-1.63 11.07-3.79 25.8-5.49 36.69-1.86 11.93-3.64 23.87-5.58 35.79-.06.16-31.32 40.46-31.42 40.65-9 11.74-21.99 28.62-31.05 40.58l-.08.1-.11.05-37.34 15.65c-35.54 15.09-82.13 34.91-117.71 49.82 2.21-2.42 23.28-25.73 26.1-28.83 14.39-15.99 50.7-55.64 65.75-72.14 3.84-18.09 13.36-56.08 18.09-75.68-.43-16.73-1.28-50.55-1.65-67.28zm.19.23c.92 19.41 2.47 47.31 3.39 66.97-4.92 22.34-12.32 54.46-17.46 77.1-24.87 28.26-62.91 69.21-88.07 96.81l-1.58-2.25c33.38-13.75 79.07-32.26 112.5-45.84-.17-.02 38.23-15.76 37.26-15.27l15.37-20.41c9.87-12.78 36.63-49.63 45.57-60.93 2.56-17.77 5.2-35.53 7.91-53.28l2.75-17.74.98 1.42c-33.7-7.34-84.58-18.73-118.62-26.58z" class="st134"/><path d="M581.76 835.46c-19.46 28.18-39.86 55.7-60.46 83.06-22.09 9.26-44.76 18.42-67.08 27.21-12.95 5.02-27.32 10.6-40.33 15.27 12.48-5.9 26.58-12.17 39.28-17.8 21.82-9.55 44.13-19.06 66.11-28.12l-.82.63c5.18-6.76 10.3-13.56 15.54-20.28 15.64-20.21 31.43-40.31 47.76-59.97z" class="st135"/><linearGradient id="SVGID_00000061432557632666953960000004926131011111535768_" x1="-1656.236" x2="-1656.236" y1="392.2" y2="100.115" gradientTransform="rotate(-50.934 -390.851 -1516.92)" gradientUnits="userSpaceOnUse"><stop offset="0" style="stop-color:#b8bec9"/><stop offset=".078" style="stop-color:#709cb1"/><stop offset=".369" style="stop-color:#b6cbd9"/><stop offset=".42" style="stop-color:#e1f0fb"/><stop offset=".611" style="stop-color:#e1f0fb"/><stop offset=".651" style="stop-color:#b6c8d6"/><stop offset="1" style="stop-color:#b8bec9"/></linearGradient><path d="M275.7 537.45 300.1 637l4.56 18.63-68.59 21.28-100.2-20.03L14.73 549.36l36.43 10.79 88.36 26.15L216.4 569z" style="fill:url(#SVGID_00000061432557632666953960000004926131011111535768_)"/><linearGradient id="SVGID_00000009588512602165846240000012630423568717271715_" x1="-1703.786" x2="-1610.428" y1="127.075" y2="370.279" gradientTransform="rotate(-50.934 -390.851 -1516.92)" gradientUnits="userSpaceOnUse"><stop offset="0" style="stop-color:#b8bec9"/><stop offset=".289" style="stop-color:#d4d5d6"/><stop offset=".611" style="stop-color:#e1f0fb"/><stop offset="1" style="stop-color:#b8bec9"/></linearGradient><path d="M275.7 537.45 300.1 637l-62.77 19.48-100.21-20.03-85.96-76.3 88.36 26.15L216.4 569z" style="fill:url(#SVGID_00000009588512602165846240000012630423568717271715_)"/><path d="M275.76 537.32c8.79 34.71 22.14 84.74 30.41 119.16l-1.13.36-17.13 5.38a5836.38 5836.38 0 0 1-51.79 15.9c-.17.02-50.07-10.54-50.29-10.55-14.48-2.98-35.35-7.3-50.05-10.25-15.27-13.29-45.74-40.27-61.08-53.52-17.47-15.29-48.27-42.21-65.66-57.57 3.14.93 33.31 9.73 37.32 10.91 20.67 5.98 72.18 21.36 93.59 27.72 17.96-4.44 56.3-12.43 76-16.72 14.86-7.68 44.92-23.19 59.81-30.82zm-.12.27c-17.07 9.29-41.5 22.86-58.79 32.26-22.25 5.31-54.38 12.66-77 17.91-36.28-10.06-89.72-26.44-125.52-37.04l1.33-2.4c26.92 24.04 63.51 57.08 90.31 81.25-.06-.16 30.85 27.54 29.99 26.87l25.07 4.93c15.8 3.31 60.63 11.33 74.7 14.44 17.11-5.45 34.24-10.82 51.4-16.12l17.17-5.26-.85 1.5c-8.09-33.53-20.03-84.28-27.81-118.34z" class="st134"/><path d="M237.33 656.48c-33.85-5.23-67.51-11.58-101.11-18.19-17.97-15.84-36.1-32.24-53.74-48.5-10.16-9.47-21.45-19.96-31.33-29.64 10.76 8.65 22.55 18.61 33.15 27.59 18.11 15.47 36.39 31.4 54.13 47.23l-.92-.46c8.34 1.71 16.7 3.36 25.02 5.14 25.02 5.26 49.99 10.7 74.8 16.83z" class="st135"/><linearGradient id="SVGID_00000160172148729623692690000002838078042680885691_" x1="237.974" x2="804.07" y1="380.683" y2="640.302" gradientUnits="userSpaceOnUse"><stop offset="0" style="stop-color:#ac8e71"/><stop offset=".721" style="stop-color:#e4c962"/><stop offset=".8" style="stop-color:#e0c25b"/><stop offset=".915" style="stop-color:#d4af49"/><stop offset="1" style="stop-color:#c89c38"/></linearGradient><path d="m744.59 301.98-292.51-90.9-224.96 207.87 67.53 298.76 292.5 90.9 224.97-207.87-67.53-298.76zM404.04 485.09l-29.66 8.83-13.61 4.05-32.78-31.03 10.49-43.9 3.68-1.1 39.58-11.78 32.78 31.02-10.48 43.91zm70.26-63.06-23.88 5.53-20.09 4.65-30.81-33 12.61-41.27.58-1.91 1.1-.25 5.64-1.31 37.24-8.61 30.79 33-13.18 43.17zm89.72-15-23.7-.57-21.43-.52-21.61-39.62 23.51-38.54 7.26.17 37.87.92 21.61 39.64-23.51 38.52zm43.04-42.18 11.69-2.48 32.47-6.89 30.2 33.56-13.97 42.92-36.3 7.7-7.85 1.67-30.2-33.56 13.96-42.92zm61.48 248.5-3.94.83-40.22 8.55-30.2-33.57 13.73-42.21.24-.71 44.15-9.37 30.2 33.56-13.96 42.92z" style="fill:url(#SVGID_00000160172148729623692690000002838078042680885691_)"/><path d="M744.15 302.39c-65.74-18.54-137.23-39.44-202.67-58.88-30.15-9.04-60.92-18.28-90.94-27.49l5.04-1.14c-73.31 68.84-151.34 138.97-226.62 206.08l.81-2.6c5.24 24.98 10.68 49.92 16.11 74.86 13.44 61.34 28.44 125.32 43.01 186.54l8.95 37.23-2.23-2.41 73.45 21.69c48.65 14.32 169.74 51.28 219.89 66.52l-5.94 1.34c27.83-26.18 84.24-78.23 112.27-104.17 28-25.9 84.91-77.58 113.1-103.27l-1.63 5.26c-20.87-96.39-43.01-202.48-62.6-299.56zm.88-.81c24.44 97.52 49.49 200.08 72.46 297.95l.71 3.06-2.35 2.2c-27.92 26.09-83.83 78.67-111.87 104.6-29.41 27.06-85.74 79.24-115.32 106.1l-3.33-1.05c-83.98-27.06-209.01-65.94-291.67-93.58l-1.85-.6-.38-1.81c-21.03-99.95-43.32-201.19-67.35-300.37 74.1-70.8 150.96-144.13 226.68-212.81 97.69 30.75 197.26 63.37 294.27 96.31z" class="st145"/><path d="M404.48 485.51c-14.2 7.54-29.58 13.3-44.89 18.33-6.45-5.65-12.86-11.41-18.64-17.74-5.52-5.99-10.62-12.42-16-18.56 5.4-15.12 8.48-30.91 10.57-46.8 15.19-6.54 31.91-12.21 47.61-17.49a452.638 452.638 0 0 1 35.2 33.92l2.39 2.56-.81 2.74c-4.39 14.58-9.46 29.12-15.43 43.04zm-.88-.83c1.34-15.08 2.98-29.97 5.54-44.78l1.58 5.3c-11.51-9.62-22.72-19.85-33.18-30.6l5.94 1.42c-13.96 3.66-29.85 7.63-44.06 10.17l2.25-2.38c-4.98 14.23-9.05 28.8-11.05 43.77l-.77-2.6c5.97 4.64 12.15 9.05 17.97 13.85 5.84 4.77 11.23 10.02 16.52 15.38l-5.05-1.21c14.55-3.97 29.26-6.54 44.31-8.32zm71.11-62.21c-13.73 6.29-28.58 10.87-43.21 14.8l-2.72.72-2.25-2.23c-5.32-5.33-10.54-10.76-15.27-16.63-5.14-6.32-9.84-13.05-14.83-19.51 3.1-7.35 5.75-14.86 7.92-22.53 2.24-7.75 3.95-15.65 5.53-23.55l2.1-.7c14.71-5.22 31.45-9.74 46.51-13.78a450.466 450.466 0 0 1 33.02 36.05l2.23 2.7-.98 2.68c-5.26 14.27-11.23 28.47-18.05 41.98zm-.82-.87c2.27-14.97 4.84-29.72 8.31-44.34l1.24 5.38c-10.89-10.32-21.45-21.22-31.22-32.6l5.84 1.78c-14.17 2.79-30.28 5.77-44.63 7.42l2.42-2.25c-4.36 10.44-8.3 21.05-11.18 32-.96 3.64-1.81 7.32-2.56 11.02l-.61-2.64c5.68 5 11.57 9.78 17.08 14.93 5.53 5.12 10.59 10.7 15.54 16.37l-4.97-1.52c14.81-3.05 29.58-4.84 44.74-5.55zm90.42-14.04c-14.89 2.68-30.37 3.41-45.54 3.58l-2.81.02-1.62-2.72c-3.82-6.49-7.52-13.04-10.64-19.9-3.4-7.4-6.27-15.09-9.5-22.58 9.8-12.73 17.6-26.8 24.48-41.28 16.67-1.54 33.94-1.78 50.69-1.95 8.43 13.9 16.15 28.41 23.02 43.15l1.48 3.17-1.62 2.35c-8.66 12.51-17.97 24.77-27.94 36.16zm-.58-1.05c5.92-13.93 12.08-27.57 19.08-40.87l-.13 5.52c-7.98-12.71-15.49-25.9-22.12-39.36l5.21 3.18c-14.65-.82-30.51-1.93-45.06-3.91l2.88-1.57c-9.12 12.01-17.48 24.61-24 38.24l.07-2.71c4.25 6.25 8.77 12.35 12.82 18.71 4.08 6.34 7.59 13 10.97 19.72l-4.43-2.71c15.11.74 29.81 2.65 44.71 5.76zm42.93-42.1c13.6-5.98 28.95-10.37 43.48-14.01l2.73-.67 2.21 2.27c5.22 5.43 10.34 10.95 14.96 16.91 5.02 6.41 9.6 13.23 14.47 19.78a190.3 190.3 0 0 0-8.32 22.38c-2.38 7.7-4.22 15.57-5.96 23.44l-2.09.66c-15.02 5.01-31.42 9.12-46.76 12.94A450.393 450.393 0 0 1 589 411.46l-2.18-2.74 1.03-2.67c5.52-14.17 11.75-28.25 18.81-41.64zm.8.89c-2.54 14.92-5.37 29.63-9.11 44.18l-1.15-5.4c10.7 10.51 21.07 21.61 30.63 33.17l-5.81-1.89c14.44-2.59 30.12-5.19 44.74-6.61l-2.44 2.2c6.1-13.79 11.32-27.98 14.52-42.74l.56 2.65c-5.58-5.1-11.39-9.99-16.81-15.24-5.44-5.22-10.39-10.89-15.24-16.65l4.94 1.61c-10.67 1.91-21.45 3.42-32.26 4.29-4.05.28-7.84.28-12.57.43zm61.48 248.5c-13.96 6.1-28.74 10.3-43.48 14.02l-2.73.67c-1.95-2.06-4.21-4.28-6.09-6.38-9.68-9.92-17.4-21.43-25.55-32.6 4.79-10.73 8.48-21.88 11.35-33.27 1.07-4.14 1.96-8.36 2.95-12.56l2.08-.65c14.81-4.95 31.62-9.17 46.76-12.94a450.393 450.393 0 0 1 32.38 36.65l2.18 2.74-1.03 2.67c-5.53 14.18-11.76 28.26-18.82 41.65zm-.8-.89c2.54-14.92 5.37-29.63 9.11-44.18l1.15 5.4c-10.7-10.51-21.07-21.61-30.63-33.17l5.81 1.89c-14.21 2.53-30.37 5.22-44.74 6.61l2.43-2.16c-6.11 13.75-11.31 27.97-14.51 42.7l-.56-2.65c5.58 5.1 11.39 10 16.81 15.25 5.44 5.22 10.39 10.9 15.24 16.66l-4.94-1.61c13.02-2.31 26.15-4.13 39.38-4.75 1.57-.11 3.86-.03 5.45.01z" class="st145"/><linearGradient id="SVGID_00000103950910582121940880000011739163367481849237_" x1="702.54" x2="1280.322" y1="254.525" y2="142.216" gradientTransform="rotate(13.928 -520.165 -1577.994)" gradientUnits="userSpaceOnUse"><stop offset="0" style="stop-color:#ac8e71"/><stop offset=".721" style="stop-color:#e4c962"/><stop offset=".8" style="stop-color:#e0c25b"/><stop offset=".915" style="stop-color:#d4af49"/><stop offset="1" style="stop-color:#c89c38"/></linearGradient><path d="m318.14 696.01-60.48-267.57 201.48-186.16 261.96 81.41 60.48 267.57L580.1 777.42z" style="fill:none;stroke:url(#SVGID_00000103950910582121940880000011739163367481849237_);stroke-width:51;stroke-miterlimit:10"/><path d="M341.61 674.11c59.01 13.59 117.34 30.26 175.32 47.63 16.75 5.09 40.88 12.51 57.81 17.87l-7.77 1.69 22.57-20.25c49-43.52 99.19-86.68 150.76-127.09 4.02-3.08 8-6.22 12.06-9.26-3.44 3.73-6.96 7.37-10.44 11.06-45.44 47.18-93.51 92.71-141.79 137.03-2.14 1.96-24.44 22.18-25.84 23.48-18.68-6.06-43.49-13.88-61.92-20.1-57.42-19.2-114.7-39.17-170.76-62.06z" style="fill:#ffe2b0"/><path d="M290.06 437.01c48.37-50.24 99.25-98.7 150.24-146.31 1.43-1.36 23.75-21.95 24.5-22.68.77.31 30.34 9.32 32.04 9.9 66.67 20.94 134.19 42.89 199.63 67.38-67.92-16.38-136.15-36.03-203.1-56.05l-28.79-8.75 5.82-1.32c-58.73 53.81-118.64 107.5-180.34 157.83z" style="fill:#917344"/><linearGradient id="SVGID_00000095333760285521246820000008708011241411776909_" x1="-2251.265" x2="-2173.343" y1="-3472.517" y2="-3394.595" gradientTransform="rotate(-166.072 -700.484 -1705.35)" gradientUnits="userSpaceOnUse"><stop offset="0" style="stop-color:#805933"/><stop offset="1" style="stop-color:#835e36;stop-opacity:.1"/></linearGradient><path d="m452.24 210.6 12.43 56.96-174.61 169.45-64.28-15.94z" style="fill:url(#SVGID_00000095333760285521246820000008708011241411776909_)"/></svg>