<svg xmlns="http://www.w3.org/2000/svg" xml:space="preserve" id="Layer_1" x="0" y="0" style="enable-background:new 0 0 2000 2000" version="1.1" viewBox="0 0 2000 2000"><style>.st0{fill:#60191d}.st1{fill:#752223}.st2{fill:#893637}.st5{fill:#301214}</style><path d="m1079.7 315.5 175.9 59.8v162.5l126.7 121.9 55-275L1333.2 195z" class="st0"/><path d="m1333.2 1501.6-227.8 313-356.2-94-154.8-248.2-243-388.8 110.4-232.2 28.7-60.7 127.2-268.5 155.5 35.7 54.5 12.4 322.6 74-89.5 325z" class="st1"/><path d="M617.7 522.2 504.4 809.1l-26 65.8-16.6-23.5-200.3-282.7 103.9-402 17.9 12.5 110.8 76.6-14.5 176.8z" class="st1"/><path d="m1738.5 598.9-265.5 276-155.3-205.6-28.6-38.2 66.9-37.5 198.2-111.2-3.3-227.9-119.5-142.3 19.7-7.8 87-34.2 148.7 181.1z" class="st2"/><path d="M1046.3 206.3 935.9 319.1l-90.4 50.5-36.6 20.5 33.5 239-261-10.6 15.7-265.3 178.6-146.9z" class="st1"/><path d="M981.8 206.3 850.2 329.7l-4.7 39.9-36.6 20.5 14.9-59.2 111-104.1-59.6-20.5z" class="st0"/><path d="m842.4 709.4-248 763.1-242.7-388.7 110.1-232.4-200.3-282.7 103.9-402 17.9 12.4-76.4 366.4 183.8 245 13.9 18.4 33.3 44.2-64.2 206.1 87.6 108.8 104.4-411s82-53.6 82-67.8c0-6.2 12.2-66.8 25.8-131.7 16.9-80.4 35.7-167.8 35.7-167.8L827.8 570l14.6 139.4z" class="st0"/><path d="M797.5 773.2 850 329.9l210.7-197.6 272.5 62.7-33.2 132.5-177 5.6-98.5 102 19.7 236.8z" class="st1"/><path d="m1587 1149-283 578.7-241.7 223.6-293.7-90.5L537.7 1481 674 927.8 713.6 767l144.8-107.3 185.8-137.5 259.8-53.7 52 125.1 30.4 73 86.6 208.3z" class="st2"/><path d="M568.6 693.4 588.3 503l-99.1-64.2 38.6 127.4z" class="st0"/><path d="m1304 1727.7-241.7 223.6-293.7-90.5L537.7 1481 674 927.8 617.7 1488l224.7 276 219.9 80z" class="st1"/><path d="m1531 100 109.7 154 .8.9.1 1.4 36.6 308.6.8 5.7-4.4 4.8L1554.9 709l-59.9 66.8-30 33.5-15 16.6-7.5 8.4c-2.6 2.7-4.9 5.7-7.7 8-2.7 2.6-5.8 4.8-8.4 7.5-1.3 1.3-2.3 3-3.5 4.4-1.2 1.7-2.1 3.4-3 4.9l-11.7 20-23.5 39.8-23.2 40.1c-7.7 13.4-15.3 26.7-23.1 40.1l-22.8 40.2-22.7 40.5c-15 27.1-30 54.3-44.6 81.7l27.8-50.3-263.6 605.1 49-658.1 2.7-35.8 25.3-14.4c27.1-15.3 53.6-31.3 80-47.2l39.7-24 39.4-24.1c13.1-8 26.2-16.2 39.3-24.4 13-8.2 26.2-16.2 39.2-24.5l38.9-24.7 19.6-12.4c3.4-2.1 6.6-4 9.2-6.7 2.6-2.7 4.8-5.8 7-8.8 2.3-3 4.9-5.5 7.7-8.2l7.9-7.9 15.9-15.9 31.6-31.8 63.3-63.4 126.7-127-3.6 10.4-20.1-310 .9 2.3L1531 100z" style="fill:#c24e4e"/><path d="M934.8 495.4c-2.2-15.3-3.5-30.5-4.5-45.8-.5-7.7-.9-15.2-1.3-22.8-.4-7.5-.5-15.2-.8-22.7-.8-30.4-.5-60.6.8-90.5l.4-8.2 7.9-6.7c24.5-21.4 49.5-41.9 75-61.9 25.6-20 51.6-39.3 78.2-57.7l9.2-6.4 8.2 2.3c12.8 3.9 25.6 7.7 38.3 11.9 12.6 4 25.4 8.4 37.9 13 6.2 2.2 12.6 4.5 18.8 7 6.2 2.3 12.4 4.9 18.8 7.3 12.4 5.2 24.9 10.4 37.1 16.5-13.7.1-27.1-.5-40.6-1.3-6.7-.5-13.4-.9-20.1-1.4-6.7-.5-13.4-1.3-20-1.8-13.4-1.4-26.6-3-39.8-4.8-13.1-1.7-26.3-3.6-39.4-5.8l17.4-3.9c-24.1 21.5-49 42.7-74.2 62.8-25.3 20.2-51.2 39.8-77.6 58.5l8.2-15.2c-4 29.8-9 59.7-15 89.4-1.4 7.5-3.1 14.8-4.8 22.3-1.7 7.3-3.4 14.8-5.2 22.2-4.3 14.2-8.1 28.9-12.9 43.7zM652 589.2c-2.2-15.3-3.5-30.5-4.5-45.8-.5-7.7-.9-15.2-1.3-22.8-.4-7.5-.5-15.2-.8-22.7-.8-30.4-.5-60.6.8-90.5l.1-6.4 5.5-6.6c20.5-24.1 41.6-47.7 63.4-70.8 21.8-23.1 44.2-45.5 67.3-67.3l5.8-5.5 4.9-.5c9.3-1.2 18.7-2.2 28.1-3 9.3-.8 18.8-1.4 28.4-1.8 4.8-.1 9.5-.4 14.3-.4 4.8-.1 9.5 0 14.3 0 9.7.1 19.2.5 29.1 1.7-8.4 5.2-17.1 9.3-25.8 13.4-4.4 2.1-8.8 4-13.1 5.8-4.4 2.1-8.8 3.6-13.1 5.5-8.8 3.5-17.8 7-26.6 9.9-9 3.1-17.9 6.1-26.9 8.8l10.8-6.1c-20.2 24.5-41.1 48.3-62.8 71.5-21.5 23.2-43.7 45.9-66.5 68.1l5.8-13c-4 29.8-9 59.7-15 89.4-1.4 7.5-3.1 14.8-4.8 22.3-1.7 7.3-3.4 14.8-5.2 22.2-3.7 15-7.6 29.8-12.2 44.6zM500.6 720.3c-11.9-10.8-22.8-22.2-33.8-33.6-5.5-5.7-10.8-11.5-16.1-17.4-5.3-5.8-10.6-11.7-15.7-17.8-20.6-23.7-40.6-48.1-59.7-73l-3-3.6-.9-7.1c-3.4-23.1-5.5-46.1-7-69.3-1.4-23.2-2.1-46.3-1.7-69.7v-3.6c2.3-15 5.2-29.8 7.9-44.9 2.7-15 5.8-29.8 9.2-44.6 1.7-7.5 3.4-14.8 5.2-22.3 1.7-7.5 3.6-14.8 5.5-22.3 3.9-14.8 7.9-29.6 12.6-44.2 1.4 15.3 2.2 30.7 2.7 45.9.1 7.7.5 15.2.5 22.8.1 7.7.1 15.2.1 22.8 0 15.2-.1 30.4-.8 45.5-.4 15.2-1.2 30.4-1.8 45.4v-3.6c3.6 23.1 6.2 46.1 8 69.1 1.8 22.9 2.7 46.3 2.7 69.5l-3.9-10.8c16.6 26.6 32.7 53.6 47.9 81.2 3.9 7 7.5 13.9 11.2 20.9 3.6 7 7.3 14 10.8 21.3 7.2 14.2 14 28.5 20.1 43.4z" class="st2"/><path d="m1595.8 522.2-248.4 171.2-95.7-104.2-205.4 24.1-266.7 154.2 275-208.8 230.4-54.9 65.8 120.6 216.2-117-4-256-95.7-125.6L1587 246.9z" style="fill:#ad3f45"/><path d="m365.4 166.7 55.6 60.4 73.1 28.7-13.6-89.1z" class="st0"/><path d="m428.3 216.1-33.7-36.6h74.9l8.5 56.2z" class="st5"/><path d="m1430.2 111.7 67.8 5.6 40.1-47.1-76.3-21.5z" class="st0"/><path d="m1450.2 100.4 18.3-36.6 46.9 13.4-22.8 26.6z" class="st5"/><path d="M394.6 179.5c6.2-1.2 12.4-1.8 18.7-2.3 6.2-.5 12.4-1.2 18.7-1.4 12.4-.5 24.9-.9 37.2-.8h3.9l.5 3.9c1.3 9.3 2.3 18.8 3.1 28.1.4 4.8.8 9.5.9 14.3s.4 9.5.1 14.3c-1.7-4.5-3-9.2-4.3-13.7-1.3-4.5-2.3-9.2-3.5-13.9-2.2-9.3-3.9-18.4-5.5-27.8l4.4 3.9c-12.4.1-24.9 0-37.2-.8-6.2-.4-12.4-.8-18.7-1.4-5.8-.5-12-1.2-18.3-2.4zm1055.6-79.1c.8-3.5 1.7-6.7 2.7-10.1 1.2-3.4 2.2-6.6 3.5-9.7 2.3-6.4 5.2-12.6 8.2-18.8l1.7-3.4 3.6.9c3.9 1.2 7.9 2.2 11.7 3.5 3.9 1.3 7.7 2.6 11.5 4 3.9 1.4 7.7 3 11.3 4.5 3.6 1.7 7.5 3.5 11 5.7-4.3 0-8.2-.5-12.4-1.2-4-.5-8-1.3-12.1-2.1-4-.8-8-1.7-11.9-2.7-4-.9-7.9-2.1-11.7-3.4l5.3-2.3c-3.1 6.1-6.6 12.1-10.2 17.8-1.8 3-3.6 5.8-5.8 8.6-2 3.3-4.1 6.1-6.4 8.7z" style="fill:#8f2524"/></svg>