<svg xmlns="http://www.w3.org/2000/svg" xml:space="preserve" id="Layer_1" x="0" y="0" style="enable-background:new 0 0 2000 2000" version="1.1" viewBox="0 0 2000 2000">
  <style>
    .st0{fill:#3e853f}.st6{fill:#2e6431}.st45{fill:#1f441f}
  </style>
  <path d="m997.1 1539.9-91.1-22.6 18.5 14.5 14 28.9-74.2-20.8-27.5-4.9-267.7-47.8 47.2-64.5 10.1-89.1 2.1-18 127.4-36.9-14.4 51.4-15.5 55.2 20.9 19.7 60.7 57.3 175.5-24 35.8 63.8-42.3-3.3 10 6.3z" class="st0"/>
  <linearGradient id="SVGID_1_" x1="569.079" x2="836.816" y1="1405.176" y2="1405.176" gradientUnits="userSpaceOnUse">
    <stop offset=".246" style="stop-color:#2e6431"/>
    <stop offset=".325" style="stop-color:#316a34"/>
    <stop offset=".564" style="stop-color:#39793a"/>
    <stop offset=".793" style="stop-color:#3d823e"/>
    <stop offset="1" style="stop-color:#3e853f"/>
  </linearGradient>
  <path d="m836.8 1535-267.7-47.8 47.2-64.5 10.1-89.1 120-54.9 10.4-3.3-30.8 109.9 20.9 19.7H734l8.5 83.3z" style="fill:url(#SVGID_1_)"/>
  <linearGradient id="SVGID_2_" x1="873.115" x2="997.077" y1="1521.93" y2="1521.93" gradientUnits="userSpaceOnUse">
    <stop offset="0" style="stop-color:#3e853f"/>
    <stop offset="1" style="stop-color:#2e6431"/>
  </linearGradient>
  <path d="m906 1517.3-32.9-13.3h51.8l72.2 35.9z" style="fill:url(#SVGID_2_)"/>
  <linearGradient id="SVGID_3_" x1="924.066" x2="1018.942" y1="1488.323" y2="1488.323" gradientUnits="userSpaceOnUse">
    <stop offset="0" style="stop-color:#3e853f"/>
    <stop offset="1" style="stop-color:#2e6431"/>
  </linearGradient>
  <path d="m976.6 1498.8-15.4-10.5-37.1-13.7 47.4 2 47.4 25.5z" style="fill:url(#SVGID_3_)"/>
  <path d="m1047.2 1371.5-29.2 117.6-39.9 48.4-27.3-.4-32.8 26.4 79.1 20.9h69.1l70 8.8 57.2 29.6-4-32.5-21.7-26.6 21.7 26.6 14.5 20.7 8.3-29.3-17.7-24.3-33.6-23.2-53.5 12.3-26.7-43.5 44.5-80.3z" class="st6"/>
  <path d="m1736.8 1168-50.3 70.5-3.7-38.5 8.2-28.3-56.4-48.4-67.2 2.7-45.2 63.3 42.5 38.8 40.3-48.3 10.8-33.4 18 41.8-46 64.5-15 21.1-96.8-18.8-57.6 35.1-84.8 177.3-166.7 2.7-291.7-214.4-122.5 23.6-75.2 137.6-30.6 73.3 164.9 47.6 112.3 37.4 15.7 31.8-42.3-3.3 10 6.3 10.5 34.8-91.1-22.6 18.5 14.5 14 28.9-74.2-20.8-295.2-52.7 47.2-64.5-11-101-70.6-94.1-55-53.5-46.6 15.1-49.6-30.7-41.2-58.8 54.3 20.9-37.6-26.9-13.5-143.1 59.2 75.9-32.3-59.2 83.3-96.7v118.2l22 83.4 51.9 62 75.7 24.8 45-14.1 31.2-166.8 212.4-102.2 196.9 132.7.3.2 48.4 32.7 68.9 33.4 40.3-45.7-40.3-188.2-91.4 24.2-143.7-23.2 166.2-58.1-122.9 25.8L729.8 840l254.3-39.2H793.3L602.4 677.1h392.5l14.4-11.1-35.2-16.4-46.9-68.7 103.3 25.8 46.9-14.7 17.8-7.8 33-50.8 213.8-40.6 107.1-41.5 48.3-60.1 41-18.7 32.7 23 48.4-12.5 20.9 10.9-8.5 73.5-40.3 37.7 18 58.6-31.4 48.9-3.5-32.9-12.7-15.5-74.1 55.2-10.9 8.1-60.1 111.4 62.3-31.9 74.6-6.6-5.2 49.3-43 32.3 32.2 13.4-12 65.6-76.7 93-8 126.3-53.8-96.8 10.8-94.7-67.1 21 11 70-18.5-8.8 15.7 87.4 25.4 93.6 32.3 41.4 32.4-19.9L1511 1001h142.4l2.7 76.6-44.2-5.9-4.2-26.3-55.2 18.4 59.4 7.9v.1l.2 1.6 44 4.2z" class="st0"/>
  <path d="m1656.1 1077.6-44-4.2-.2-1.7z" class="st0"/>
  <path d="m1479.2 563.9 8.7 55.5-10.9 8.1-60.1 111.4-139.6 61.9-12.5-14 23.4-89.9 162.3-140.3z" class="st6"/>
  <path d="m1591.6 505.1-31.7 26.1 24.8 34.8-6.5 46.6-3.5-32.9-12.7-15.5-74.1 55.2 36.9-76-14.5-31.7 5.2-34.9 25.3-21.6 21.9 21.6 30.1-20.5 20.3 18.3 18.8-7.2zM602.4 677.1l195.2 99.5 186.5 24.2H793.3zM729.8 840l209.5 48.8h121.1l-122.9 25.8zM894.2 946.9l142.2 5.4 92.9-6.4-91.4 24.2zM1424 811.1l62.3-47.9 62.3-13.5-43 32.3-17.7-5.8z" class="st6"/>
  <linearGradient id="SVGID_5_" x1="1011.711" x2="1363.594" y1="709.262" y2="709.262" gradientUnits="userSpaceOnUse">
    <stop offset="0" style="stop-color:#3e853f"/>
    <stop offset="1" style="stop-color:#2e6431"/>
  </linearGradient>
  <path d="m1363.6 598.6-109 87.9-111.3 133.4-131.6-19.1 111.6-8.6 115.2-136.9z" style="fill:url(#SVGID_5_)"/>
  <path d="m927.2 580.9 59.1 58.7 79.3-3.6-56.3 30-35.2-16.4zM1268.1 549.8l-85.4 32.2-53.4 16.6 28.1 48.8 73.1-3.5 97.8-94.1-99.5 89.4h-66.1l-19.2-35.4 43.6-12.2z" class="st6"/>
  <linearGradient id="SVGID_6_" x1="1153.092" x2="1313.442" y1="594.587" y2="594.587" gradientUnits="userSpaceOnUse">
    <stop offset="0" style="stop-color:#429a4d"/>
    <stop offset=".204" style="stop-color:#3e853f"/>
    <stop offset="1" style="stop-color:#44b05d"/>
  </linearGradient>
  <path d="M1313.4 556.6h-46.1l-74.1 37.7-40.1 12.2 13.1 26.1h62.6z" style="fill:url(#SVGID_6_)"/>
  <path d="m1234.9 577.9 31.2-18.7.5-.3h.9l26.3.8 9.7.3-6.9 7.8-46.7 39.1L1290 561l2.8 8.1-25.8-4.9 1.4-.3z" style="fill:#71c16e"/>
  <path d="m1380.6 534.5-77.1-16.6-174.2 67.3-63.7 50.8 65.6-41.4 46.1-16.2 86.8-30.2z" class="st6"/>
  <linearGradient id="SVGID_7_" x1="1131.05" x2="1129.266" y1="948.173" y2="948.173" gradientUnits="userSpaceOnUse">
    <stop offset="0" style="stop-color:#3a7c3b"/>
    <stop offset="1" style="stop-color:#2e6431"/>
  </linearGradient>
  <path d="m1131.1 949.7-.9.7-.9-4.5z" style="fill:url(#SVGID_7_)"/>
  <path d="m1167.8 1456-287.2-218.9-141.8 36.4-81.9 153.1 47.7-166 162-75.2z" class="st6"/>
  <linearGradient id="SVGID_8_" x1="1341.984" x2="1341.984" y1="1074.668" y2="1223.644" gradientUnits="userSpaceOnUse">
    <stop offset="0" style="stop-color:#3e853f"/>
    <stop offset="1" style="stop-color:#2e6431"/>
  </linearGradient>
  <path d="m1396.9 1193.4-60.1 30.2-49.6-61.1-.1-87.8 42.4 81.7 40.1 2z" style="fill:url(#SVGID_8_)"/>
  <linearGradient id="SVGID_9_" x1="263.172" x2="526.221" y1="1315.586" y2="1315.586" gradientUnits="userSpaceOnUse">
    <stop offset="0" style="stop-color:#3e853f"/>
    <stop offset="1" style="stop-color:#2e6431"/>
  </linearGradient>
  <path d="m526.2 1426.6-70.6-94.1-55-53.5-46.6 15.1-49.6-30.7-41.2-58.8 51 51.6 42.5 20.9 43.1-5.9 83.6 53.6z" style="fill:url(#SVGID_9_)"/>
  <linearGradient id="SVGID_10_" x1="794.015" x2="917.976" y1="1626.832" y2="1626.832" gradientUnits="userSpaceOnUse">
    <stop offset="0" style="stop-color:#3e853f"/>
    <stop offset="1" style="stop-color:#2e6431"/>
  </linearGradient>
  <path d="m826.9 1622.2-32.9-13.3h51.8l72.2 35.9z" style="fill:url(#SVGID_10_)"/>
  <linearGradient id="SVGID_11_" x1="844.966" x2="939.842" y1="1593.225" y2="1593.225" gradientUnits="userSpaceOnUse">
    <stop offset="0" style="stop-color:#3e853f"/>
    <stop offset="1" style="stop-color:#2e6431"/>
  </linearGradient>
  <path d="m897.5 1603.7-15.4-10.5-37.1-13.7 47.4 2 47.4 25.5z" style="fill:url(#SVGID_11_)"/>
  <linearGradient id="SVGID_12_" x1="1333.552" x2="1587.832" y1="1349.076" y2="1349.076" gradientUnits="userSpaceOnUse">
    <stop offset="0" style="stop-color:#3e853f"/>
    <stop offset="1" style="stop-color:#2e6431"/>
  </linearGradient>
  <path d="m1587.8 1252.7-15 21.1-96.8-18.8-57.6 35.1-84.8 177.3 34.6-160.7 87.9-75.9 18.3 11 89.4 19.8z" style="fill:url(#SVGID_12_)"/>
  <linearGradient id="SVGID_13_" x1="1528.443" x2="1656.105" y1="1055.279" y2="1055.279" gradientUnits="userSpaceOnUse">
    <stop offset="0" style="stop-color:#3e853f"/>
    <stop offset="1" style="stop-color:#2e6431"/>
  </linearGradient>
  <path d="m1641.6 1038-104.5-5.1-8.6 27.8 83.4 11 44.2 5.8-14.5-39.5zm-89.1 25.8 55.2-18.4 4.1 26.3-59.3-7.9z" style="fill:url(#SVGID_13_)"/>
  <linearGradient id="SVGID_14_" x1="1522.179" x2="1695.034" y1="1172.654" y2="1172.654" gradientUnits="userSpaceOnUse">
    <stop offset="0" style="stop-color:#3e853f"/>
    <stop offset="1" style="stop-color:#2e6431"/>
  </linearGradient>
  <path d="m1695 1161-3 36.4-5.5 41.1-3.7-38.5 8.2-28.3-56.4-48.4-67.2 2.7-45.2 63.3 30.3-82.5 86.5 4.3z" style="fill:url(#SVGID_14_)"/>
  <linearGradient id="SVGID_15_" x1="1237.948" x2="1410.821" y1="1130.76" y2="1130.76" gradientUnits="userSpaceOnUse">
    <stop offset="0" style="stop-color:#71c16e"/>
    <stop offset="1" style="stop-color:#3e853f"/>
  </linearGradient>
  <path d="m1269.9 1004.3-32 163.3 54.1 89.7 118.8-71.9-88.1 45.4-62.6-85.3z" style="fill:url(#SVGID_15_)"/>
  <linearGradient id="SVGID_16_" x1="1548.6" x2="1363.594" y1="745.304" y2="745.304" gradientUnits="userSpaceOnUse">
    <stop offset="0" style="stop-color:#71c16e"/>
    <stop offset="1" style="stop-color:#3e853f"/>
  </linearGradient>
  <path d="m1363.6 780.4 115.1-63.5 69.9-6.7-4.6 23.3-67.5 5.4z" style="fill:url(#SVGID_16_)"/>
  <linearGradient id="SVGID_17_" x1="1531.723" x2="1410.821" y1="864.022" y2="864.022" gradientUnits="userSpaceOnUse">
    <stop offset="0" style="stop-color:#71c16e"/>
    <stop offset="1" style="stop-color:#3e853f"/>
  </linearGradient>
  <path d="m1496.9 786.8 3.6 64.8-89.7 89.7 111.4-84.9 9.5-55.6z" style="fill:url(#SVGID_17_)"/>
  <linearGradient id="SVGID_18_" x1="1443.887" x2="1421.879" y1="1006.174" y2="1006.174" gradientUnits="userSpaceOnUse">
    <stop offset="0" style="stop-color:#71c16e"/>
    <stop offset="1" style="stop-color:#3e853f"/>
  </linearGradient>
  <path d="m1443.9 959.1-22 11 16.3 83.1 3.6-64.1z" style="fill:url(#SVGID_18_)"/>
  <linearGradient id="SVGID_19_" x1="1311.345" x2="1223.081" y1="769.295" y2="769.295" gradientUnits="userSpaceOnUse">
    <stop offset="0" style="stop-color:#71c16e"/>
    <stop offset="1" style="stop-color:#3e853f"/>
  </linearGradient>
  <path d="m1268.2 687-45.1 131.9 6.9 32.7 81.3-45.3h-46.4l-13.5-15.9z" style="fill:url(#SVGID_19_)"/>
  <linearGradient id="SVGID_20_" x1="702.692" x2="1030.487" y1="686.538" y2="686.538" gradientUnits="userSpaceOnUse">
    <stop offset="0" style="stop-color:#71c16e"/>
    <stop offset="1" style="stop-color:#3e853f"/>
  </linearGradient>
  <path d="M1030.5 671.2c-2.5-1.9-27.7 30.8-27.7 30.8l-300.1-15 289.4-5.3 38.4-10.5z" style="fill:url(#SVGID_20_)"/>
  <linearGradient id="SVGID_21_" x1="758.036" x2="1005.077" y1="820.397" y2="820.397" gradientUnits="userSpaceOnUse">
    <stop offset="0" style="stop-color:#71c16e"/>
    <stop offset="1" style="stop-color:#3e853f"/>
  </linearGradient>
  <path d="m758 840 247.1-39.2-39.2 26.7z" style="fill:url(#SVGID_21_)"/>
  <linearGradient id="SVGID_22_" x1="926.241" x2="1105.182" y1="910.856" y2="910.856" gradientUnits="userSpaceOnUse">
    <stop offset="0" style="stop-color:#71c16e"/>
    <stop offset="1" style="stop-color:#3e853f"/>
  </linearGradient>
  <path d="m926.2 941.3 179-60.8-32 35z" style="fill:url(#SVGID_22_)"/>
  <linearGradient id="SVGID_23_" x1="1518.882" x2="1466.547" y1="550.995" y2="550.995" gradientUnits="userSpaceOnUse">
    <stop offset="0" style="stop-color:#71c16e"/>
    <stop offset="1" style="stop-color:#3e853f"/>
  </linearGradient>
  <path d="m1503 512.3-24.9 5.6-11.6 14.6 32.5 17.3-3.6 39.8 23.5-46.2z" style="fill:url(#SVGID_23_)"/>
  <linearGradient id="SVGID_24_" x1="1605.041" x2="1568.764" y1="553.465" y2="553.465" gradientUnits="userSpaceOnUse">
    <stop offset="0" style="stop-color:#71c16e"/>
    <stop offset="1" style="stop-color:#3e853f"/>
  </linearGradient>
  <path d="m1568.8 528.2 27.5 33.3-10.1 33.1 18.8-32.4-15.1-49.9z" style="fill:url(#SVGID_24_)"/>
  <linearGradient id="SVGID_25_" x1="1636.231" x2="1515.518" y1="409.014" y2="409.014" gradientUnits="userSpaceOnUse">
    <stop offset="0" style="stop-color:#71c16e"/>
    <stop offset="1" style="stop-color:#3e853f"/>
  </linearGradient>
  <path d="m1538.7 378.3-23.2 31.2 33.1 28.6-16.5-27.5 12.3-14 42.5 22.7 35.6-11.5 5.9 31.9 7.8-43.5-16.1-6.7-42.5 13.7z" style="fill:url(#SVGID_25_)"/>
  <linearGradient id="SVGID_26_" x1="332.546" x2="271.395" y1="1115.035" y2="1115.035" gradientUnits="userSpaceOnUse">
    <stop offset="0" style="stop-color:#71c16e"/>
    <stop offset="1" style="stop-color:#3e853f"/>
  </linearGradient>
  <path d="m271.4 1067.3 16.1 67.9 45 27.5z" style="fill:url(#SVGID_26_)"/>
  <linearGradient id="SVGID_27_" x1="1790.944" x2="1749.299" y1="-353.691" y2="-353.691" gradientTransform="rotate(-35.679 3499.333 2711.23)" gradientUnits="userSpaceOnUse">
    <stop offset="0" style="stop-color:#71c16e"/>
    <stop offset="1" style="stop-color:#3e853f"/>
  </linearGradient>
  <path d="m271.4 1215.8 35.9 31.1 35.8-2.6z" style="fill:url(#SVGID_27_)"/>
  <linearGradient id="SVGID_28_" x1="107.076" x2="45.213" y1="3119.181" y2="3119.181" gradientTransform="rotate(34.401 3568.994 2552.422)" gradientUnits="userSpaceOnUse">
    <stop offset="0" style="stop-color:#71c16e"/>
    <stop offset="1" style="stop-color:#3e853f"/>
  </linearGradient>
  <path d="m368.7 989.4-25.3 65.8 21.8 48.8z" style="fill:url(#SVGID_28_)"/>
  <linearGradient id="SVGID_29_" x1="1071.857" x2="701.764" y1="1265.479" y2="1012.08" gradientUnits="userSpaceOnUse">
    <stop offset="0" style="stop-color:#71c16e"/>
    <stop offset="1" style="stop-color:#3e853f"/>
  </linearGradient>
  <path d="m1104.4 1218-275.5-172.6-172 32.2 155.5-73.3 203.3 126.5z" style="fill:url(#SVGID_29_)"/>
  <linearGradient id="SVGID_30_" x1="1527.168" x2="1731.149" y1="1141.499" y2="1141.499" gradientUnits="userSpaceOnUse">
    <stop offset="0" style="stop-color:#3e853f"/>
    <stop offset="1" style="stop-color:#71c16e"/>
  </linearGradient>
  <path d="M1528.4 1071.7c10.4.2 20.7.8 31 1.6s20.6 1.8 30.8 3 20.5 2.5 30.6 3.9c5.1.7 10.2 1.5 15.3 2.3 5.1.8 10.2 1.6 15.2 2.4l2.4.4 1.8 1.8 9 9.3c3 3.1 6 6.2 8.9 9.4l8.8 9.4 8.7 9.5c11.6 12.8 23 25.7 34.1 38.9l2.3 2.8-1.6 2.5-6.7 10.7c-2.3 3.5-4.5 7.1-6.9 10.6-2.3 3.5-4.6 7-7 10.5-1.2 1.7-2.4 3.5-3.6 5.2-1.2 1.7-2.4 3.5-3.7 5.2.7-2 1.5-3.9 2.3-5.9.8-2 1.6-3.9 2.4-5.9 1.6-3.9 3.2-7.8 4.9-11.6 1.7-3.9 3.4-7.7 5.1-11.6l5.2-11.5.7 5.3c-12.8-11.6-25.3-23.5-37.6-35.6l-9.2-9.1-9.1-9.2-9-9.3-9-9.3 4.2 2.2c-5.1-.9-10.1-1.8-15.2-2.7-5.1-.9-10.1-1.9-15.2-2.9-10.1-2-20.2-4.2-30.2-6.4-10-2.3-20.1-4.7-30.1-7.4-9.7-2.4-19.7-5.2-29.6-8.5z" style="fill:url(#SVGID_30_)"/>
  <linearGradient id="SVGID_31_" x1="1502.885" x2="1658.93" y1="1025.909" y2="1025.909" gradientUnits="userSpaceOnUse">
    <stop offset="0" style="stop-color:#3e853f"/>
    <stop offset="1" style="stop-color:#71c16e"/>
  </linearGradient>
  <path d="M1510.5 1045.4c-.1-.8.1-1.6.2-2.3.2-.8.4-1.5.6-2.3.4-1.5.9-3 1.5-4.4 1.1-2.9 2.2-5.7 3.4-8.6 1.2-2.8 2.5-5.6 3.8-8.3 1.3-2.8 2.7-5.5 4.1-8.2l1-2 3.3-.3c9.6-.9 19.1-1.5 28.7-1.9 9.6-.4 19.1-.5 28.7-.5 9.6 0 19.1.3 28.7.7 9.6.5 19.1 1.1 28.7 2.1l4.1.4.5 3.1c.5 2.7.9 5.4 1.3 8.1.4 2.7.8 5.4 1.1 8.1.3 2.7.6 5.4.9 8.2.1 1.4.3 2.7.4 4.1.1 1.4.2 2.7.3 4.1-.7-1.2-1.3-2.5-1.9-3.7-.6-1.2-1.2-2.5-1.8-3.7-1.2-2.5-2.3-5-3.4-7.5s-2.1-5-3.2-7.5c-1-2.5-2-5.1-3-7.6l4.6 3.5c-9.6 1-19.1 1.6-28.7 2.1-9.6.4-19.1.7-28.7.7-9.6 0-19.1-.1-28.7-.5-9.6-.4-19.1-1-28.7-1.9l4.3-2.4c-1.9 2.3-3.7 4.7-5.6 7.1l-5.7 7.1-5.7 7.1-2.8 3.6c-.5.6-.9 1.2-1.3 1.8-.3.3-.8.9-1 1.7z" style="fill:url(#SVGID_31_)"/>
  <linearGradient id="SVGID_32_" x1="1475.36" x2="1633.439" y1="1202.052" y2="1202.052" gradientUnits="userSpaceOnUse">
    <stop offset="0" style="stop-color:#3e853f"/>
    <stop offset="1" style="stop-color:#71c16e"/>
  </linearGradient>
  <path d="M1616.6 1152.3c1.1 2.8 2.2 5.5 3.3 8.3 1 2.8 2.1 5.6 3.1 8.3 2 5.6 3.9 11.2 5.9 16.8l.5 1.5-1.3 1.9c-3.6 5.2-7.1 10.4-10.8 15.5-1.8 2.6-3.7 5.1-5.6 7.6-1.9 2.5-3.7 5.1-5.7 7.5-3.8 5-7.7 9.9-11.6 14.9-3.9 4.9-7.9 9.8-11.9 14.6l-2.2 2.7h-20.5l-5.6-.1-11.3-.3-5.6-.2-5.6-.3-2.5-.1-1.4-1.2c-4.2-3.3-8.3-6.8-12.4-10.2-4.1-3.5-8.2-7-12.2-10.5-4-3.6-8-7.2-11.9-10.9-3.9-3.7-7.8-7.5-11.5-11.5 4.9 2.3 9.7 4.8 14.5 7.4 4.7 2.6 9.4 5.3 14 8s9.2 5.5 13.8 8.4c4.5 2.9 9.1 5.7 13.5 8.7l-3.9-1.3 5.6-.3 5.6-.2 11.3-.3 5.6-.1h5.6c3.8 0 7.5-.1 11.3 0l-5.8 2.7c4-4.8 8.2-9.5 12.3-14.2 4.2-4.7 8.4-9.4 12.6-14 2.1-2.3 4.3-4.6 6.4-6.9 2.1-2.3 4.3-4.6 6.5-6.8 4.4-4.5 8.8-9 13.4-13.4l-.8 3.4c-.9-5.8-1.9-11.7-2.7-17.6-.4-2.9-.8-5.9-1.2-8.8-.1-3.1-.5-6.1-.8-9z" style="fill:url(#SVGID_32_)"/>
  <linearGradient id="SVGID_33_" x1="1012.005" x2="1410.821" y1="1031.44" y2="1031.44" gradientUnits="userSpaceOnUse">
    <stop offset="0" style="stop-color:#3a7c3b"/>
    <stop offset="1" style="stop-color:#2e6431"/>
  </linearGradient>
  <path d="M1410.8 851.6v37.2l-23.5 94.7 10.8-94.7-67.1 21 11 70-16.7-9.7 13.9 88.3-48.6-88.3-47.7 12-55.2 76.4 9 87.9-12.5 50.6-63.3 14.3-108.9-97.6 48.4 32.7 68.9 33.4 40.3-45.7-39.4-190.4 35.2-3.5 17.2 50.9 50.7-127.1z" style="fill:url(#SVGID_33_)"/>
  <path d="m1065.1 1442.2 28.9 24.8-20.2 37.7 27.9 44.9-58.4-48.4zM1132.1 1549.6l22.9 2.4 34.4 38.3v24.5l-8.3-23.2-33.4-34.5z" class="st0"/>
  <path d="M1143.3 1541.2h22.9l27.7 18.5 14.9 22.5-4.5 17.8-8-22.2-6.9-12-29.8-18.8z" class="st0"/>
  <linearGradient id="SVGID_34_" x1="603.512" x2="844.966" y1="1480.445" y2="1480.445" gradientUnits="userSpaceOnUse">
    <stop offset="0" style="stop-color:#71c16e"/>
    <stop offset="1" style="stop-color:#3e853f"/>
  </linearGradient>
  <path d="m635.6 1396.5-32.1 125.4 241.5 42.5-203.6-68.5z" style="fill:url(#SVGID_34_)"/>
  <linearGradient id="SVGID_35_" x1="841.672" x2="796.279" y1="1651.402" y2="1606.009" gradientUnits="userSpaceOnUse">
    <stop offset="0" style="stop-color:#71c16e"/>
    <stop offset="1" style="stop-color:#3e853f"/>
  </linearGradient>
  <path d="m789.1 1613.2 26.1 13.6 27.7 23.4-16-28z" style="fill:url(#SVGID_35_)"/>
  <linearGradient id="SVGID_36_" x1="891.209" x2="845.816" y1="1624.005" y2="1578.612" gradientUnits="userSpaceOnUse">
    <stop offset="0" style="stop-color:#71c16e"/>
    <stop offset="1" style="stop-color:#3e853f"/>
  </linearGradient>
  <path d="m838.6 1585.8 26.2 13.6 27.6 23.4-15.9-28z" style="fill:url(#SVGID_36_)"/>
  <linearGradient id="SVGID_37_" x1="935.668" x2="890.275" y1="1604.46" y2="1559.067" gradientUnits="userSpaceOnUse">
    <stop offset="0" style="stop-color:#71c16e"/>
    <stop offset="1" style="stop-color:#3e853f"/>
  </linearGradient>
  <path d="m883.1 1566.3 26.1 13.6 27.7 23.4-16-28z" style="fill:url(#SVGID_37_)"/>
  <linearGradient id="SVGID_38_" x1="925.72" x2="880.327" y1="1554.668" y2="1509.274" gradientUnits="userSpaceOnUse">
    <stop offset="0" style="stop-color:#71c16e"/>
    <stop offset="1" style="stop-color:#3e853f"/>
  </linearGradient>
  <path d="m873.1 1516.5 26.2 13.6 27.6 23.4-15.9-28z" style="fill:url(#SVGID_38_)"/>
  <linearGradient id="SVGID_39_" x1="989.483" x2="945.589" y1="1524" y2="1480.106" gradientUnits="userSpaceOnUse">
    <stop offset="0" style="stop-color:#71c16e"/>
    <stop offset="1" style="stop-color:#3e853f"/>
  </linearGradient>
  <path d="m943.8 1481.9 19.1 26.6 25.4 16.7-7.7-21.2z" style="fill:url(#SVGID_39_)"/>
  <linearGradient id="SVGID_40_" x1="994.715" x2="953.079" y1="1478.264" y2="1436.628" gradientUnits="userSpaceOnUse">
    <stop offset="0" style="stop-color:#71c16e"/>
    <stop offset="1" style="stop-color:#3e853f"/>
  </linearGradient>
  <path d="m942.4 1447.3 28.4 3.9 27.6 23.4-18.4-32.4z" style="fill:url(#SVGID_40_)"/>
  <linearGradient id="SVGID_41_" x1="1327.482" x2="1119.321" y1="1436.271" y2="1436.271" gradientUnits="userSpaceOnUse">
    <stop offset="0" style="stop-color:#3e853f"/>
    <stop offset="1" style="stop-color:#2e6431"/>
  </linearGradient>
  <path d="m1327.5 1458.4-208.2-44.2 48.5 41.8z" style="fill:url(#SVGID_41_)"/>
  <path d="m1545.1 401.8-8.4 9.7 14.2 17 22.8-12zM1611.7 433.4l10.2-8.6-2.2-11.1-22 6.5z" class="st6"/>
  <path d="m1655.9 1078-43.9-4h-.4l-.1-.4-.3-1.7v-.1l.4.4-59.4-7.7-3.1-.4 2.9-1 55.2-18.6 1-.3.2 1 4.2 26.3-.8-.8 44.3 5.8-1.2 1.1-2.9-76.6 1.3 1.2-142.5.3 1.4-.9-81.3 172.6-.2.5-.5.3-32.4 20-1.6 1-1.1-1.4-32.3-41.4-.3-.3-.1-.4-25.4-93.5v-.2l-15.8-87.4-.8-4.7 4.3 2 18.5 8.8-3.5 2.6-11.1-70-.3-2.2 2.1-.7 67-21 3.9-1.2-.5 4-10.6 94.7-.3-1.7 53.9 96.7-5.4 1.2 8-126.3.1-1 .6-.8 76.6-93.1-.7 1.4 11.9-65.6 1.9 3.5-32.3-13.4-5.2-2.1 4.5-3.4 43-32.3-1.3 2.2 5.2-49.3 3.5 3.6-74.6 6.6 1.2-.3-62.3 32-9.5 4.9 5.1-9.4 60-111.4.4-.7.6-.4 85-63.4 2.6-1.9 2.1 2.5 12.7 15.4.7.8.1 1 3.4 32.9-6.3-1.5 31.5-48.9-.4 2.8-18-58.6-.6-2 1.6-1.4 40.3-37.6-1.1 2.1 8.5-73.5 1.8 3.4-20.9-11 2.4.3-48.3 12.5-1.5.4-1.3-.9-32.7-23 3.3.3-41 18.6 1.2-.9-48.4 60.1-.5.7-.8.3-107.2 41.4-.3.1-.3.1-214 40.3 1.8-1.2-33.1 50.8-.4.7-.7.3-17.8 7.8-.1.1h-.1l-46.9 14.6-.7.2-.7-.2-103.2-26 2.5-3.6 46.8 68.9-.9-.8 35.1 16.4 3.2 1.5-2.8 2.2-14.4 11.1-.6.4h-.7l-392.4-.6.8-2.7L794 799.7l-.7-.2 190.8.1.2 2.4L730 841.2l.2-2.3 207.7 74.5h-.7l122.9-25.9.7 2.6-166.2 58.2-.3-2.9 143.7 23h-.7l91.4-24.3 1.8-.5.4 1.9 40.6 188.1.2 1-.7.8-40.3 45.7-1.1 1.2-1.5-.7-68.9-33.3-.1-.1-.1-.1-245.7-165 2.7.2-212.2 102.4 1.7-2.2-31.1 166.8-.4 1.9-1.8.6-45 14.1-1 .3-1-.3-75.7-24.7-.9-.3-.6-.7-52-61.9-.5-.6-.2-.7-22.1-83.4-.1-.4v-.4l-.1-118.3 6.2 2.3-83.3 96.8.4-4.1 32.3 59.1-6 4-59.2-75.8 6.6-2.6 13.5 143-1.6-2.7 37.7 26.9 24.3 17.3-27.8-10.7-54.4-20.9 4.5-5.8 41.2 58.8-1.1-1.1 49.7 30.7-3.2-.4 46.6-15.1 2.2-.7 1.7 1.6 55 53.4.2.2.2.2 70.7 94.1.7.9.1 1.1 11 101 .2 1.6-.9 1.3-47.2 64.6-2.6-6.4 295.2 52.6h.2l.2.1 74.2 20.8-4.7 5.7-14-28.9 1.1 1.4-18.5-14.5-14.7-11.6 18.2 4.5 91 22.6-4.8 5-10.5-34.8 1.7 2.2-10-6.3-13.5-8.5 15.9 1.2 42.4 3.3-3.8 5.7-15.7-31.8 2.3 2-88.5-29.5-22.1-7.4c-1.8-.7-3.7-1.1-5.6-1.7l-5.6-1.6-11.2-3.2-44.8-12.9 1.7-7.4 118.1 21.1h.4l61.6 17.3 6.9 1.9-5.6 4.5-7.9 6.3-1.4-6.4 79.1 21-.9-.1 69.1.1h.4l70 8.9.6.1.5.3 57.2 29.6-5 3.5-4-32.5-1.7-13.6 7.8 11.2 14.4 20.7-6 1 8.4-29.3.5 2.9-17.7-24.3.8.8-33.5-23.2 2.6.5-53.5 12.2-2.2.5-1.2-2-26.7-43.5-1-1.6.9-1.6 37.2-66.7 1.6-2.9 2.8 1.9 49.1 33.9-1.7-.5 166.7-2.5-2.4 1.6 85.1-177.1.3-.7.6-.4 57.7-35 .8-.5.9.2 96.7 19-2.2.9 61.2-85.6-.2 1.9-17.9-41.8 3.6-.2-10.8 33.4-.1.3-.2.3-40.4 48.3-1.2 1.4-1.3-1.2-42.4-38.9-1-1 .8-1.1 45.4-63.2.4-.6h.7l67.2-2.5h.5l.4.3 56.3 48.5.5.5-.2.7-8.3 28.3v-.4l3.6 38.5-1.7-.5 50.5-70.4v.9l-80.5-90.5zm.4-.7 81.1 90.3.4.4-.3.5-50.2 70.6-1.4 2-.2-2.5-3.8-38.5v-.2l.1-.2 8.2-28.3.3 1.1-56.6-48.3.9.3-67.2 2.8 1.1-.6-45.1 63.4-.2-2.1 42.6 38.7-2.5.2 40.2-48.5-.3.6 10.7-33.4 1.5-4.8 2 4.6 18.1 41.8.4 1-.6.9-60.9 85.8-.8 1.1-1.4-.3-96.8-18.7 1.7-.3-57.6 35.2.9-1-84.6 177.4-.7 1.5h-1.7L1167 1473h-.9l-.8-.5-49.2-33.7 4.4-1-37 66.8-.1-3.2 26.8 43.4-3.4-1.4 53.5-12.3 1.4-.3 1.2.8 33.6 23.1.5.3.3.5 17.8 24.3 1 1.3-.4 1.6-8.3 29.3-1.9 6.8-4.1-5.8-14.5-20.6 6.2-2.4 4 32.5.8 6.4-5.8-3-57.2-29.5 1.2.4-70-8.8h.4l-69.1.1h-.5l-.5-.1-79.4-21-7-1.9 5.7-4.6 7.9-6.3 1.3 6.4-61.6-17.2.4.1-118.1-21 1.7-7.4 44.9 12.9 11.2 3.2 5.6 1.6c1.9.6 3.8 1 5.6 1.7l22.2 7.4 88.6 29.5 1.5.5.7 1.5 15.7 31.8 3.1 6.2-6.9-.5-42.4-3.2 2.4-7.3 10 6.3 1.3.8.4 1.4 10.5 34.7 2 6.7-6.8-1.7-91.1-22.5 3.4-7.1 18.5 14.5.7.6.4.8 14 28.8 3.9 8.1-8.6-2.4-74.2-20.8.4.1-295.2-52.7-6.4-1.1 3.8-5.2 47.2-64.5-.8 2.8-10.9-101 .8 2-70.6-94.2.4.5-54.9-53.4 3.9.9-46.6 15-1.7.6-1.5-.9-49.7-30.7-.7-.4-.5-.7-41.2-58.9-7.2-10.3 11.7 4.5 54.3 20.9-3.6 6.6-37.6-26.9-1.4-1-.2-1.7-13.4-143.1-1.2-12.5 7.7 9.9 59.1 75.9-6 4-32.2-59.2-1.2-2.2 1.6-1.9 83.4-96.7 6.2-7.2v9.5l-.1 118.3-.1-.9 21.9 83.4-.7-1.3 51.9 62-1.5-1 75.7 24.8h-2l45-14.1-2.2 2.5 31.4-166.7.3-1.5 1.4-.7 212.5-101.9 1.4-.7 1.3.9 245.4 165.9-.3-.2 68.8 33.5-2.6.5 40.4-45.6-.5 1.8-40.1-188.2 2.2 1.4-91.4 24.1-.4.1-.4-.1-143.7-23.4-5.8-1 5.6-1.9 166.3-57.9.7 2.6-123 25.7-.3.1-.3-.1-207.6-74.7-4.3-1.6 4.5-.7 254.3-39.3.2 2.4-190.3.1h-.4l-.3-.2-191-123.4-4.2-2.7h5.1l392.4-.6-1.3.4 14.4-11.2.4 3.7-35.2-16.3-.6-.3-.3-.5-47-68.7-3.5-5.1 6 1.5 103.3 25.7h-1.4l46.9-14.8-.3.1 17.8-7.9-1.1 1 33-50.9.6-1 1.1-.2 213.7-40.9-.5.2 107.1-41.6-1.3 1 48.3-60.2.5-.6.7-.3 41-18.7 1.7-.8 1.5 1.1 32.7 23-2.8-.5 48.3-12.5 1.3-.3 1.1.6 21 11 2.1 1.1-.3 2.3-8.5 73.5-.1 1.2-.9.8-40.3 37.6.9-3.5 18 58.6.5 1.5-.9 1.3-31.5 48.9-5.3 8.2-1-9.7-3.4-33 .8 1.8-12.7-15.4 4.7.6-85.1 63.3 1-1.1-60.1 111.4-4.4-4.5 62.3-31.9.6-.3.6-.1 74.6-6.6 3.9-.3-.4 3.9-5.2 49.3-.1 1.4-1.1.8-43 32.2-.7-5.5 32.2 13.5 2.4 1-.5 2.5-12.1 65.6-.1.8-.5.6-76.8 92.9.7-1.7-8.2 126.3-.6 9.8-4.8-8.6-53.6-96.8-.4-.8.1-.9 10.9-94.7 3.4 2.8L1332 912l1.8-2.8 10.9 70.1.7 4.6-4.2-2-18.5-8.9 3.4-2.6 15.6 87.5v-.2l25.3 93.6-.4-.7 32.2 41.5-2.7-.5 32.5-19.9-.7.8 82-172.3.4-.9h1l142.5.3h1.2v1.2l2.5 76.6v1.3l-1.3-.2-44.2-6-.7-.1-.1-.7-4.1-26.4 1.2.7-55.3 18.2-.1-1.4 59.3 8.1h.4l.1.3v.1l.2 1.7-.5-.4 43.9 4.7z" class="st45"/>
  <path d="M950.9 1537.5c-1.3 1.5-2.6 2.9-3.9 4.3-1.3 1.4-2.5 2.7-3.8 4-2.5 2.6-5.1 5-7.7 7.4l-2.6 2.4-1.9-3.4c-1.7-3.1-3.4-6.2-5-9.3-1.6-3.1-3.1-6.3-4.4-9.6l.9 1.1c-1.4-1.3-2.9-2.7-4.3-4l-4.2-4.1c-1.4-1.4-2.8-2.7-4.3-4-1.4-1.3-2.9-2.6-4.4-3.8l-4.1-3.4 5.1 1.4c3.1.8 6.1 1.5 9.2 2.1 3.1.6 6.2 1.1 9.4 1.6l9.4 1.4c3.1.5 6.2 1.1 9.3 1.7 6.2 1.3 12.4 2.5 18.6 4 6.2 1.5 12.3 3.2 18.3 5.1l5.5 1.7-3.6 4-1.7 1.9-1.2 1.4-1.4-.1-6.6-.6c-2.2-.2-4.4-.5-6.7-.8-2.3-.3-4.5-.6-6.8-.9-2.3-.7-4.7-1.1-7.1-1.5zm-.2-.7c2.1-.4 4.4-.7 6.6-.9 2.2-.3 4.5-.5 6.8-.7 2.3-.2 4.6-.4 7-.6 2.3-.1 4.7-.3 7.1-.4l-2.7 1.2 1.5-2.1 1.9 5.7c-6.2-1.1-12.4-2.5-18.6-4.1-6.1-1.6-12.2-3.4-18.3-5.2-3-.9-6.1-1.8-9.1-2.8l-9-3.1c-3-1-6-2.1-9-3-3-.9-6.1-1.7-9.2-2.4l1-2c1.6 1.2 3.2 2.3 4.8 3.4 1.6 1.1 3.3 2.1 5 3.2l5 3.1c1.7 1 3.3 2.1 4.9 3.2l.4.3.5.8c1.8 3.1 3.3 6.2 4.8 9.4s2.9 6.4 4.3 9.7l-4.5-1c3.1-2.2 6.3-4.4 9.4-6.3 1.6-1 3.2-1.9 4.7-2.9 1.6-.9 3.1-1.7 4.7-2.5zM991.4 1521.7c-.6-.8-1.2-1.8-1.9-2.8-.7-1.1-1.5-2.3-2.2-3.7-.8-1.4-1.5-2.8-2.2-4.4-.7-1.5-1.3-3.1-1.8-4.7l1.4 1.9c-1.7-1-3.3-2.2-4.8-3.5-1.5-1.4-2.9-2.8-4.3-4.2l-5.2-4.9 6.2 1.7c2.6.7 5.2 1.1 7.8 1.1 2.6.1 5.3-.2 7.9-.5 2.7-.3 5.3-.5 7.9-.5h7.9l7.6.3-4.8 6.3c-1.5 2-3.2 3.9-4.9 5.7-1.8 1.8-3.6 3.4-5.4 5-1.8 1.5-3.5 2.9-5.1 4.1-1.4 1.1-2.9 2.2-4.1 3.1zm.1-.8c1.5-2.5 2.8-4.7 3.9-6.8l3.1-6c1-1.8 1.9-3.5 2.9-5.1 1-1.6 2.1-3 3.4-4.4l2.8 6.6c-2.6-.3-5.2-.8-7.8-1.2-2.6-.4-5.2-1-7.8-1.7-2.6-.7-5.2-1.4-7.8-1.7-2.6-.4-5.2-.4-7.9-.1l1-3.2c1.9.7 3.8 1.3 5.7 2.1 1.9.8 3.6 1.7 5.2 2.8l1.2.8.3 1.1c.3 1.1.5 2.2.7 3.4.2 1.2.2 2.4.3 3.7.1 1.3.1 2.8.2 4.4.2 1.7.4 3.4.6 5.3zM1018.3 1489.3l-3.6 4.8-.5.7-.5-.8c-5.5-9-11-18.1-16.4-27.2-5.4-9.1-10.8-18.2-16.2-27.4l2.3 1.1-21.9 3.4-21.9 3.3c-14.6 2.2-29.2 4.3-43.8 6.4l-21.9 3.1-21.9 3c-7.3 1-14.6 1.9-22 2.8-7.3.9-14.7 1.8-22 2.7l-1.4.2-1-.9-40-39.3c-6.7-6.6-13.3-13.1-20.1-19.6-6.7-6.5-13.5-13-20.3-19.4l-.5-.5.2-.7c2.6-8.9 5-17.8 7.5-26.7 2.5-8.9 4.9-17.8 7.3-26.7l7.1-26.8 7-26.8 2.8 2.8-3.4 1-5.2 1.6 2.6-4.9.2-.4.5-.9 1.1-.2 30.5-6.4c10.2-2.1 20.4-4.2 30.5-6.3l61.2-12.3 1.6-.3 1.3 1 42.5 31.4c14.1 10.6 28.3 21 42.3 31.7 14.1 10.6 28.1 21.2 42.1 32 14 10.7 28 21.4 41.9 32.2l1.6 1.2-.5 1.8-7.1 26.7-7.2 26.6c-2.4 8.9-4.9 17.7-7.3 26.5-2.5 8.9-5 17.7-7.5 26.5zm-.7-.4c1.9-9 3.9-18 5.9-27 2-9 3.9-18 6-26.9l6.1-26.8 6.2-26.7 1.1 3c-14.3-10.3-28.5-20.7-42.7-31.1-14.2-10.4-28.4-20.9-42.6-31.3-14.2-10.4-28.3-21.1-42.4-31.6l-42.2-31.9 2.9.7-61.3 11.3c-10.2 1.9-20.5 3.7-30.7 5.5l-30.7 5.4 1.6-1.2-.2.4-2.7-3.3 3.4-.9 3.9-1.1-1.1 3.8-15.7 53.1c-2.6 8.9-5.2 17.7-7.7 26.6-2.5 8.9-5.1 17.7-7.5 26.6l-.3-1.2c6.8 6.4 13.6 12.8 20.5 19.1 6.9 6.4 13.8 12.7 20.7 18.9l41.5 37.7-2.4-.8c7.3-1.1 14.6-2.3 21.9-3.3 7.3-1.1 14.6-2.2 21.9-3.2 7.3-1 14.6-2.1 21.9-3l22-2.9c14.6-2 29.3-3.8 43.9-5.7l22-2.7 22-2.6 1.6-.2.7 1.3c5 9.3 10 18.7 14.9 28 5 9.4 9.9 18.7 14.7 28.2l-1-.1 3.9-4.1z" class="st45"/>
</svg>
