<svg xmlns="http://www.w3.org/2000/svg" xml:space="preserve" id="Layer_1" x="0" y="0" style="enable-background:new 0 0 2000 2000" version="1.1" viewBox="0 0 2000 2000">
  <style>
    .st4{fill:#88a5b6}.st16{fill:#eff8f9}.st30{fill:#5a7db0}
  </style>
  <linearGradient id="SVGID_3_" x1="437.012" x2="1031.306" y1="472.282" y2="472.282" gradientTransform="matrix(1 0 0 -1 0 2000)" gradientUnits="userSpaceOnUse">
    <stop offset="0" style="stop-color:#c8d2d6"/>
    <stop offset=".994" style="stop-color:#d9d3dd"/>
  </linearGradient>
  <path d="m1002.4 1686.5-120.2-29.9 24.3 19.2L925 1714l-98-27.5-36.4-6.5-353.6-63.1 62.4-85.2 13.4-117.7 2.7-23.8 168.3-48.7-19.1 67.9-20.4 72.9 27.6 26 80.2 75.7 231.9-31.7 47.3 84.3-56-4.4 13.2 8.3z" style="fill:url(#SVGID_3_)"/>
  <path d="M790.6 1680 437 1616.9l62.4-85.2 13.4-117.7 158.5-72.5 13.7-4.4-40.7 145.2 27.6 26h-17.1l11.3 110z" class="st4"/>
  <linearGradient id="SVGID_4_" x1="838.58" x2="1002.378" y1="337.215" y2="337.215" gradientTransform="matrix(1 0 0 -1 0 2000)" gradientUnits="userSpaceOnUse">
    <stop offset="0" style="stop-color:#aea9ae"/>
    <stop offset="1" style="stop-color:#9bc2db"/>
  </linearGradient>
  <path d="m882.2 1656.6-43.6-17.5H907l95.4 47.4z" style="fill:url(#SVGID_4_)"/>
  <linearGradient id="SVGID_5_" x1="905.948" x2="1031.306" y1="381.599" y2="381.599" gradientTransform="matrix(1 0 0 -1 0 2000)" gradientUnits="userSpaceOnUse">
    <stop offset="0" style="stop-color:#aea9ae"/>
    <stop offset="1" style="stop-color:#9bc2db"/>
  </linearGradient>
  <path d="m975.3 1632.2-20.2-13.9-49.2-18.1 62.7 2.7 62.7 33.7z" style="fill:url(#SVGID_5_)"/>
  <linearGradient id="SVGID_6_" x1="897.891" x2="1286.646" y1="369.974" y2="369.974" gradientTransform="matrix(1 0 0 -1 0 2000)" gradientUnits="userSpaceOnUse">
    <stop offset="0" style="stop-color:#aea9ae"/>
    <stop offset="1" style="stop-color:#9bc2db"/>
  </linearGradient>
  <path d="m1068.7 1464-38.7 155.4-52.6 63.9-36.1-.5-43.4 34.9 104.5 27.6h91.3l92.4 11.6 75.6 39.1-5.3-42.9-28.5-35.2 28.5 35.2 19.1 27.3 11.1-38.7-23.5-32.1-44.4-30.6-70.6 16.2-35.3-57.4 58.9-106.1z" style="fill:url(#SVGID_6_)"/>
  <linearGradient id="SVGID_7_" x1="32.934" x2="1979.614" y1="1001.519" y2="1001.519" gradientTransform="matrix(1 0 0 -1 0 2000)" gradientUnits="userSpaceOnUse">
    <stop offset="0" style="stop-color:#c8d2d6"/>
    <stop offset=".994" style="stop-color:#d9d3dd"/>
  </linearGradient>
  <path d="m1979.6 1195.2-66.6 93.2-4.8-50.9 10.9-37.4-74.6-63.9-88.8 3.6-59.7 83.6 56.1 51.2 53.4-63.8 14.1-44.1 23.8 55.2-60.6 85.2-20 27.9-127.7-24.8-76.2 46.3-112 234.2-220.2 3.6-385.3-283.2-161.9 31.2-99.3 181.7-40.3 96.8 217.7 62.9 148.3 49.4 20.9 42-56-4.3 13.2 8.3 13.9 46-120.2-29.9 24.3 19.2 18.5 38.1-98-27.4-390-69.7 62.4-85.2-14.4-133.4-93.4-124.3-72.7-70.6-61.4 19.9-65.6-40.5-54.5-77.7 71.8 27.6-49.7-35.5-17.7-189.1 78.1 100.3-42.7-78.2L182.9 941v156.1l29 110.2 68.6 81.9 100 32.7 59.3-18.6 41.3-220.3 280.5-135 260.2 175.2.3.3 64 43.2 90.9 44.1 53.2-60.3-53.2-248.6-120.7 31.9-189.8-30.6 219.6-76.8-162.5 34.1L649.4 762l335.9-51.8H733.2L481.1 546.8h518.4l19-14.7-46.4-21.6-61.9-90.8 136.3 34.1 61.9-19.4 23.6-10.3 43.7-67.1 282.3-53.7 141.6-54.8 63.8-79.4 54.1-24.7 43.2 30.4 63.8-16.5 27.8 14.4-11.3 97.1-53.3 49.8 23.9 77.4-41.6 64.6-4.5-43.5-16.8-20.5-98 73-14.4 10.7-79.4 147.1 82.3-42.1 98.5-8.7-6.8 65.1-56.8 42.7 42.6 17.7-15.8 86.6-101.3 122.9-10.7 166.8-71-127.9 14.2-125.1-88.7 27.8 14.6 92.4-24.5-11.6 20.8 115.5 33.7 123.6 42.5 54.7 42.8-26.3 107.9-227.9h188.2l3.5 101.2-58.4-7.8-5.4-34.7-73.1 24.3 78.5 10.4v.2l.4 2.1 58 5.5z" style="fill:url(#SVGID_7_)"/>
  <path d="m1872.9 1075.8-58-5.5-.4-2.3z" style="fill:#3e853f"/>
  <path d="m1639.2 397.3 11.5 73.3-14.4 10.7-79.4 147.1-184.3 81.8-16.6-18.5 31-118.8 214.3-185.3zM1787.7 319.6l-41.9 34.5 32.8 45.9-8.6 61.6-4.5-43.5-16.8-20.5-98 73 48.7-100.4-19.1-41.9 7-46.1 33.4-28.5 28.9 28.5 39.8-27.1 26.8 24.2 24.8-9.5z" class="st4"/>
  <linearGradient id="SVGID_8_" x1="481.132" x2="985.337" y1="1371.517" y2="1371.517" gradientTransform="matrix(1 0 0 -1 0 2000)" gradientUnits="userSpaceOnUse">
    <stop offset="0" style="stop-color:#bac8de"/>
    <stop offset=".721" style="stop-color:#ecf8fe"/>
  </linearGradient>
  <path d="m481.1 546.8 257.7 131.4 246.5 32H733.2z" style="fill:url(#SVGID_8_)"/>
  <linearGradient id="SVGID_9_" x1="649.42" x2="1086.126" y1="1188.764" y2="1188.764" gradientTransform="matrix(1 0 0 -1 0 2000)" gradientUnits="userSpaceOnUse">
    <stop offset="0" style="stop-color:#bac8de"/>
    <stop offset=".721" style="stop-color:#ecf8fe"/>
  </linearGradient>
  <path d="M649.4 762 926 826.4h160.1l-162.5 34.1z" style="fill:url(#SVGID_9_)"/>
  <linearGradient id="SVGID_10_" x1="866.452" x2="1177.007" y1="1082.163" y2="1082.163" gradientTransform="matrix(1 0 0 -1 0 2000)" gradientUnits="userSpaceOnUse">
    <stop offset="0" style="stop-color:#bac8de"/>
    <stop offset=".721" style="stop-color:#ecf8fe"/>
  </linearGradient>
  <path d="m866.5 903.2 187.8 7.1 122.7-8.4-120.7 31.9z" style="fill:url(#SVGID_10_)"/>
  <linearGradient id="SVGID_11_" x1="1566.29" x2="1730.88" y1="1316.763" y2="1316.763" gradientTransform="matrix(1 0 0 -1 0 2000)" gradientUnits="userSpaceOnUse">
    <stop offset="0" style="stop-color:#aea9ae"/>
    <stop offset="1" style="stop-color:#9bc2db"/>
  </linearGradient>
  <path d="m1566.3 723.8 82.3-63.3 82.3-17.8-56.8 42.7-23.4-7.7z" style="fill:url(#SVGID_11_)"/>
  <linearGradient id="SVGID_12_" x1="1021.663" x2="1486.505" y1="1410.749" y2="1410.749" gradientTransform="matrix(1 0 0 -1 0 2000)" gradientUnits="userSpaceOnUse">
    <stop offset="0" style="stop-color:#aea9ae"/>
    <stop offset="1" style="stop-color:#9bc2db"/>
  </linearGradient>
  <path d="m1486.5 443.1-144 116.1-147 176.2-173.8-25.2 147.5-11.4L1321.3 518z" style="fill:url(#SVGID_12_)"/>
  <linearGradient id="SVGID_13_" x1="910.175" x2="1092.862" y1="1524.086" y2="1524.086" gradientTransform="matrix(1 0 0 -1 0 2000)" gradientUnits="userSpaceOnUse">
    <stop offset="0" style="stop-color:#bac8de"/>
    <stop offset=".721" style="stop-color:#ecf8fe"/>
  </linearGradient>
  <path d="m910.2 419.7 77.9 77.5 104.8-4.7-74.4 39.6-46.4-21.6z" style="fill:url(#SVGID_13_)"/>
  <path d="m1360.5 378.6-112.8 42.6-70.7 21.9 37.3 64.5 96.4-4.7 129.2-124.3-131.5 118.1h-87.3l-25.3-46.7 57.6-16.2z" class="st4"/>
  <path d="M1420.3 387.6h-61l-97.9 49.8-53 16.1 17.3 34.5h82.7z" class="st16"/>
  <linearGradient id="SVGID_14_" x1="1316.237" x2="1395.135" y1="1576.197" y2="1576.197" gradientTransform="matrix(1 0 0 -1 0 2000)" gradientUnits="userSpaceOnUse">
    <stop offset="0" style="stop-color:#fff568"/>
    <stop offset=".606" style="stop-color:#fff68b"/>
  </linearGradient>
  <path d="m1316.5 415.7 21.3-11.1 21.3-11 .1-.1h.1l34.3 3.7 1.5.1-1.1.9-14.4 14-14.4 14c-9.6 9.2-19.3 18.5-29.1 27.7 9.4-9.5 18.9-19 28.3-28.4l14.3-14.1 14.3-14 .4 1.2-34.3-3.8h.3l-21.5 10.6-21.4 10.3z" style="fill:url(#SVGID_14_)"/>
  <linearGradient id="SVGID_15_" x1="1092.862" x2="1508.961" y1="1585.51" y2="1585.51" gradientTransform="matrix(1 0 0 -1 0 2000)" gradientUnits="userSpaceOnUse">
    <stop offset="0" style="stop-color:#aea9ae"/>
    <stop offset="1" style="stop-color:#9bc2db"/>
  </linearGradient>
  <path d="m1509 358.4-101.9-21.9-230.1 88.9-84.1 67.1 86.6-54.7 61-21.4 114.6-39.9z" style="fill:url(#SVGID_15_)"/>
  <linearGradient id="SVGID_16_" x1="1179.363" x2="1177.006" y1="1095.174" y2="1095.174" gradientTransform="matrix(1 0 0 -1 0 2000)" gradientUnits="userSpaceOnUse">
    <stop offset="0" style="stop-color:#3a7c3b"/>
    <stop offset="1" style="stop-color:#2e6431"/>
  </linearGradient>
  <path d="m1179.4 906.9-1.1.9-1.3-5.9z" style="fill:url(#SVGID_16_)"/>
  <linearGradient id="SVGID_17_" x1="552.991" x2="1227.863" y1="603.055" y2="603.055" gradientTransform="matrix(1 0 0 -1 0 2000)" gradientUnits="userSpaceOnUse">
    <stop offset="0" style="stop-color:#aea9ae"/>
    <stop offset="1" style="stop-color:#9bc2db"/>
  </linearGradient>
  <path d="m1227.9 1575.7-379.3-289.2-187.4 48.1L553 1536.8l63.1-219.2 213.9-99.4z" style="fill:url(#SVGID_17_)"/>
  <linearGradient id="SVGID_18_" x1="1385.452" x2="1530.492" y1="829.664" y2="829.664" gradientTransform="matrix(1 0 0 -1 0 2000)" gradientUnits="userSpaceOnUse">
    <stop offset="0" style="stop-color:#aea9ae"/>
    <stop offset="1" style="stop-color:#9bc2db"/>
  </linearGradient>
  <path d="m1530.5 1228.8-79.3 39.9-65.5-80.7-.2-116 56.1 107.9 52.8 2.7z" style="fill:url(#SVGID_18_)"/>
  <linearGradient id="SVGID_19_" x1="32.934" x2="380.476" y1="609.792" y2="609.792" gradientTransform="matrix(1 0 0 -1 0 2000)" gradientUnits="userSpaceOnUse">
    <stop offset="0" style="stop-color:#aea9ae"/>
    <stop offset="1" style="stop-color:#9bc2db"/>
  </linearGradient>
  <path d="m380.5 1536.8-93.4-124.3-72.7-70.6-61.4 19.9-65.6-40.5-54.5-77.7 67.4 68.1 56.1 27.7 57-7.8 110.5 70.8z" style="fill:url(#SVGID_19_)"/>
  <linearGradient id="SVGID_20_" x1="734.093" x2="897.891" y1="198.647" y2="198.647" gradientTransform="matrix(1 0 0 -1 0 2000)" gradientUnits="userSpaceOnUse">
    <stop offset="0" style="stop-color:#aea9ae"/>
    <stop offset="1" style="stop-color:#9bc2db"/>
  </linearGradient>
  <path d="m777.7 1795.2-43.6-17.6h68.4l95.4 47.5z" style="fill:url(#SVGID_20_)"/>
  <linearGradient id="SVGID_21_" x1="801.461" x2="926.819" y1="243.031" y2="243.031" gradientTransform="matrix(1 0 0 -1 0 2000)" gradientUnits="userSpaceOnUse">
    <stop offset="0" style="stop-color:#aea9ae"/>
    <stop offset="1" style="stop-color:#9bc2db"/>
  </linearGradient>
  <path d="m870.8 1770.8-20.2-13.9-49.1-18.1 62.6 2.6 62.7 33.7z" style="fill:url(#SVGID_21_)"/>
  <linearGradient id="SVGID_22_" x1="1446.877" x2="1782.793" y1="565.54" y2="565.54" gradientTransform="matrix(1 0 0 -1 0 2000)" gradientUnits="userSpaceOnUse">
    <stop offset="0" style="stop-color:#aea9ae"/>
    <stop offset="1" style="stop-color:#9bc2db"/>
  </linearGradient>
  <path d="m1782.8 1307.1-20 27.9-127.7-24.8-76.2 46.3-112 234.2 45.8-212.2 116-100.3 24.3 14.5 118 26.2z" style="fill:url(#SVGID_22_)"/>
  <linearGradient id="SVGID_23_" x1="1704.461" x2="1873.014" y1="953.767" y2="953.767" gradientTransform="matrix(1 0 0 -1 0 2000)" gradientUnits="userSpaceOnUse">
    <stop offset="0" style="stop-color:#aea9ae"/>
    <stop offset="1" style="stop-color:#9bc2db"/>
  </linearGradient>
  <path d="m1853.9 1023.5-138-6.7-11.4 36.7 110.2 14.5 58.4 7.7-19.2-52.2zm-117.9 34.1 72.9-24.3 5.4 34.7-78.3-10.4z" style="fill:url(#SVGID_23_)"/>
  <linearGradient id="SVGID_24_" x1="1696.007" x2="1924.399" y1="798.622" y2="798.622" gradientTransform="matrix(1 0 0 -1 0 2000)" gradientUnits="userSpaceOnUse">
    <stop offset="0" style="stop-color:#aea9ae"/>
    <stop offset="1" style="stop-color:#9bc2db"/>
  </linearGradient>
  <path d="m1924.4 1186-4.1 48.1-7.3 54.3-4.8-50.9 10.9-37.4-74.6-63.9-88.8 3.6-59.7 83.6 40-109 114.3 5.7z" style="fill:url(#SVGID_24_)"/>
  <path d="m1362.7 979-42.1 215.7 71.3 118.5 157.1-95-116.5 60-82.7-112.7zM1486.5 683.2l152-83.8 92.4-8.9-6 30.8-89.3 7.1zM1662.6 691.7l4.9 85.6L1549 895.8l147-112.2 12.7-73.4zM1592.6 919.3l-29.1 14.5 21.5 109.8 4.8-84.7zM1360.6 559.9l-59.7 174.2 9.1 43.2 107.6-59.9h-61.5l-17.8-21zM1046.5 539c-3.3-2.5-36.6 40.7-36.6 40.7l-396.4-19.8 382.3-7 50.7-13.9zM686.7 762l326.2-51.8-51.7 35.3zM908.9 895.8l236.3-80.3-42.2 46.2zM1670.8 329.1l-33 7.4-15.2 19.3 42.8 22.8-4.8 52.6 31-61zM1757.6 350.1l36.4 44-13.3 43.7 24.8-42.8-20.1-65.9zM1717.8 152.1l-30.5 41.2 43.6 37.8-21.8-36.3 16.2-18.5 56.2 29.9 47-15.1 7.8 42.1 10.4-57.5-21.4-8.8-56 18.1zM43.8 1062.2l21.4 89.7 59.4 36.3zM43.8 1258.4l47.4 41.1 47.4-3.5zM172.4 959.3l-33.5 86.9 28.9 64.5zM1144.1 1261.3l-363.9-228-227.2 42.5L758.4 979l268.5 167.1zM1704.3 1068c13.6.9 27.2 2.2 40.7 3.7 13.6 1.5 27.1 3 40.6 4.8 13.5 1.7 26.9 3.7 40.4 5.5l20.2 3 20.1 3.2 2.2.4 1.7 1.7c7.9 8.2 15.9 16.4 23.6 24.6 4 4.1 7.8 8.2 11.8 12.4 3.8 4.1 7.8 8.3 11.6 12.4 15.5 16.6 30.8 33.6 45.7 50.7l2.4 2.8-1.6 2.8c-2.9 4.8-5.8 9.5-8.7 14.3-2.9 4.8-5.9 9.4-8.9 14.1s-5.9 9.4-9 14c-3 4.6-6.1 9.2-9.2 13.9 2.1-5.2 4.4-10.3 6.6-15.3 2.2-5.2 4.5-10.2 6.9-15.2 2.4-5 4.6-10.2 7-15.2 2.4-5 4.8-10 7.1-15.1l.8 5.4c-16.5-15.6-32.9-31.6-48.9-47.7-4.1-4-8.1-8.1-12-12.2l-11.9-12.2c-7.9-8.2-15.9-16.4-23.6-24.6l4 2.1-20.1-3.7-20.1-3.8c-13.3-2.6-26.7-5.3-40-8.1s-26.6-5.8-39.9-8.9c-13.1-2.9-26.4-6.1-39.5-9.8zM1680.6 1033.3c0-1.1.3-2 .5-3 .3-.9.7-2 .9-2.9.7-2 1.5-3.8 2.2-5.7 1.6-3.7 3.2-7.4 4.9-11.1 1.7-3.6 3.6-7.3 5.4-10.8s3.7-7.1 5.7-10.6l1.1-2.1 3-.3c12.7-.8 25.2-1.5 37.9-1.8 12.7-.4 25.2-.5 37.9-.5s25.2.3 37.9.7c12.7.4 25.2 1.1 37.9 2l3.8.3.7 3c.7 3.6 1.3 7 2 10.6.7 3.6 1.3 7 1.8 10.6.7 3.6 1.1 7.1 1.6 10.7.5 3.6.9 7.1 1.5 10.7-1.5-3.3-2.9-6.6-4.2-9.9-1.3-3.3-2.8-6.6-4-10-1.3-3.3-2.5-6.7-3.8-10-1.2-3.4-2.5-6.7-3.7-10.2l4.5 3.4c-12.7.9-25.2 1.6-37.9 2-12.7.4-25.2.7-37.9.7s-25.2-.1-37.9-.5-25.2-.9-37.9-1.8l4.1-2.2-14.3 19.2-7.1 9.6-3.4 4.9c-.5.8-1.2 1.6-1.6 2.5-.9.6-1.4 1.4-1.6 2.5zM1820.7 1174.5c1.5 3.7 2.8 7.3 4.1 11s2.6 7.4 4 11.1c1.3 3.7 2.5 7.4 3.7 11.1l3.6 11.1.5 1.8-1.5 2c-4.9 6.7-9.9 13.3-14.9 19.9l-7.5 9.9-7.7 9.8c-5.2 6.5-10.3 12.9-15.6 19.4-5.2 6.5-10.6 12.8-15.9 19.2l-2.1 2.6h-3.4l-14.9-.1-14.9-.1c-5 0-9.9-.3-14.9-.3-5-.1-9.9-.3-14.9-.5l-2.2-.1-1.5-1.1c-5.5-4.4-11.1-8.7-16.6-13.2-5.5-4.5-11-9-16.4-13.5-5.4-4.5-10.8-9.1-16.1-13.9s-10.6-9.4-15.7-14.4c6.2 3.4 12.4 7 18.5 10.6 6.1 3.7 12.2 7.4 18.1 11.1 5.9 3.7 12 7.5 17.8 11.5 5.9 3.8 11.8 7.8 17.7 11.8l-3.7-1.2c5-.1 9.9-.4 14.9-.5s9.9-.3 14.9-.3l14.9-.1 14.9-.1-5.5 2.6c5.4-6.3 10.7-12.7 16.1-18.9 5.4-6.3 10.8-12.5 16.4-18.8l8.3-9.2 8.3-9.2c5.7-6.1 11.2-12.2 17-18.2l-.9 3.8-2-11.5c-.7-3.8-1.3-7.7-1.8-11.6-.7-3.8-1.2-7.8-1.7-11.6-.3-4.1-.9-8.1-1.4-11.9z" class="st16"/>
  <linearGradient id="SVGID_25_" x1="1022.06" x2="1548.986" y1="985.139" y2="985.139" gradientTransform="matrix(1 0 0 -1 0 2000)" gradientUnits="userSpaceOnUse">
    <stop offset="0" style="stop-color:#aea9ae"/>
    <stop offset="1" style="stop-color:#9bc2db"/>
  </linearGradient>
  <path d="M1549 777.3v49.1l-31.1 125.1 14.2-125.1-88.7 27.8 14.6 92.4-22.1-12.8 18.4 116.7-64.1-116.7-63.1 15.9-72.9 100.9 12 116.1-16.5 66.8-83.8 18.9-143.8-128.9 64 43.2 90.9 44.1 53.2-60.3-52-251.6 46.5-4.6 22.7 67.3 67-167.9z" style="fill:url(#SVGID_25_)"/>
  <path d="m1092.2 1557.4 38.3 32.8-26.7 49.8 36.7 59.3-77.1-63.9zM1180.8 1699.3l30.2 3.2 45.4 50.6v32.3l-11-30.6-44-45.6z" class="st16"/>
  <path d="M1195.5 1688.2h30.4l36.4 24.5 19.7 29.7-5.9 23.5-10.5-29.3-9.2-15.9-39.4-24.8zM525 1497.1l-42.5 165.6 319 56.2-269-90.5zM727.6 1783.3l34.6 18 36.5 30.9-21-37zM793 1747.1l34.6 18 36.5 30.9-21-37zM851.8 1721.4l34.5 17.9 36.6 30.9-21-36.9zM838.6 1655.6l34.6 18 36.4 30.9-21-37zM932.1 1609.9l25.1 35.1 33.6 22.1-10.2-28zM930.3 1564.2l37.3 5.1 36.5 30.9-24.3-42.8z" class="st16"/>
  <linearGradient id="SVGID_26_" x1="1438.819" x2="1163.929" y1="450.354" y2="450.354" gradientTransform="matrix(1 0 0 -1 0 2000)" gradientUnits="userSpaceOnUse">
    <stop offset="0" style="stop-color:#aea9ae"/>
    <stop offset="1" style="stop-color:#9bc2db"/>
  </linearGradient>
  <path d="m1438.8 1578.8-274.9-58.3 64 55.2z" style="fill:url(#SVGID_26_)"/>
  <path d="m1726.3 183.1-11.1 12.8 18.7 22.5 30.1-15.9zM1814.2 224.9l13.6-11.4-3-14.7-29.1 8.6z" class="st4"/>
  <path d="m1872.8 1076.4-58-5.3h-.5l-.1-.5-.4-2.2v-.1l.5.5-78.5-10.2-4.1-.5 3.8-1.3 72.9-24.6 1.3-.4.3 1.3 5.5 34.7-1.1-1.1 58.5 7.7-1.6 1.5-3.8-101.2 1.7 1.6-188.2.4 1.8-1.2-107.4 228-.3.7-.7.4-42.8 26.4-2 1.3-1.5-1.8-42.7-54.7-.4-.4-.1-.5-33.8-123.5v-.2l-20.9-115.5-1.1-6.2 5.7 2.6 24.4 11.6-4.6 3.4-14.7-92.5-.4-2.9 2.8-.9 88.5-27.7 5.2-1.6-.7 5.3-14 125.1-.4-2.2 71.2 127.7-7.1 1.6 10.6-166.8.1-1.3.8-1.1 101.2-123-.9 1.8 15.7-86.7 2.5 4.6-42.7-17.7-6.9-2.8 5.9-4.5 56.8-42.7-1.7 2.9 6.9-65.1 4.6 4.8-98.5 8.7 1.6-.4-82 42.3-12.5 6.5 6.7-12.4 79.3-147.2.5-.9.8-.5 112.3-83.7 3.4-2.5 2.8 3.3 16.8 20.3.9 1.1.1 1.3 4.5 43.5-8.3-2 41.6-64.6-.5 3.7-23.8-77.4-.8-2.6 2.1-1.8 53.2-49.7-1.5 2.8 11.2-97.1 2.4 4.5-27.6-14.5 3.2.4L1762 179l-2 .5-1.7-1.2-43.2-30.4 4.4.4-54.2 24.6 1.6-1.2-63.9 79.4-.7.9-1.1.4-141.6 54.7-.4.1-.4.1-282.5 53.2 2.4-1.6L1135 426l-.5.9-.9.4-23.5 10.3-.1.1h-.1l-62 19.3-.9.3-.9-.3-136.3-34.3 3.3-4.8 61.8 91-1.2-1.1 46.1 21.7 4.2 2-3.7 2.9-19 14.7-.8.5h-.9l-518.3-.8 1.1-3.6 251.9 163.5-.9-.3 252 .1.3 3.2-335.9 51.9.3-3L924.5 859h-.9l162.5-34.3.9 3.4L867.1 905l-.4-3.8 190 30.4h-.9l120.7-32.1 2.4-.7.5 2.5 53.6 248.5.3 1.3-.9 1.1-53.2 60.4-1.5 1.6-2-.9-91-44-.1-.1-.1-.1L759.6 951l3.6.3-280.3 135.3 2.2-2.9-41.1 220.2-.5 2.5-2.4.8-59.4 18.6-1.3.4-1.3-.4-100-32.6-1.2-.4-.8-.9-68.7-81.8-.7-.8-.3-.9-29.2-110.2-.1-.5v-.5l.1-156.3 8.2 3-110 127.9.5-5.4 42.7 78.1-7.9 5.3-78.2-100.1 8.7-3.4L60 1235.1l-2.1-3.6 49.8 35.5 32.1 22.9-36.9-14.1-71.9-27.6 5.9-7.7 54.4 77.7-1.5-1.5 65.7 40.6-4.2-.5 61.6-19.9 2.9-.9 2.2 2.1 72.7 70.5.3.3.3.3 93.4 124.3.9 1.2.1 1.5 14.5 133.4.3 2.1-1.2 1.7-62.3 85.3-3.4-8.5 389.9 69.5h.3l.3.1 98 27.5-6.2 7.5-18.5-38.2 1.5 1.8-24.4-19.2L755 1784l24 5.9 120.2 29.9-6.3 6.6-13.9-46 2.2 2.9-13.2-8.3-17.8-11.2 21 1.6 56 4.4-5 7.5-20.7-42 3 2.6-116.9-39-29.2-9.8c-2.4-.9-4.9-1.5-7.4-2.2l-7.4-2.1-14.8-4.2-59.2-17 2.2-9.8 156 27.9h.6l81.4 22.9 9.1 2.5-7.4 5.9-10.4 8.3-1.8-8.5 104.5 27.7-1.2-.1 91.3.1h.6l92.5 11.8.8.1.7.4 75.6 39.1-6.6 4.6-5.3-42.9-2.2-18 10.3 14.8 19 27.3-7.9 1.3 11.1-38.7.7 3.8-23.4-32.1 1.1 1.1-44.3-30.6 3.4.7-70.7 16.1-2.9.7-1.6-2.6-35.3-57.5-1.3-2.1 1.2-2.1 49.1-88.1 2.1-3.8 3.7 2.5 64.9 44.8-2.2-.7 220.2-3.3-3.2 2.1 112.4-233.9.4-.9.8-.5 76.2-46.2 1.1-.7 1.2.3 127.7 25.1-2.9 1.2 80.8-113.1-.3 2.5-23.6-55.2 4.8-.3-14.3 44.1-.1.4-.3.4-53.4 63.8-1.6 1.8-1.7-1.6-56-51.4-1.3-1.3 1.1-1.5 60-83.5.5-.8h.9l88.8-3.3h.7l.5.4 74.4 64.1.7.7-.3.9-11 37.4v-.5l4.8 50.9-2.2-.7 66.7-93v1.2l-106.7-119.6zm.3-1 107.1 119.3.5.5-.4.7-66.3 93.3-1.8 2.6-.3-3.3-5-50.9v-.3l.1-.3 10.8-37.4.4 1.5-74.8-63.8 1.2.4-88.8 3.7 1.5-.8-59.6 83.7-.3-2.8 56.3 51.1-3.3.3 53.1-64.1-.4.8 14.1-44.1 2-6.3 2.6 6.1 23.9 55.2.5 1.3-.8 1.2-80.4 113.3-1.1 1.5-1.8-.4-127.9-24.7 2.2-.4-76.1 46.5 1.2-1.3-111.5 234.4-.9 2h-2.2l-220.1 3.8h-1.2l-1.1-.7-65-44.5 5.8-1.3-48.9 88.2-.1-4.2 35.4 57.3-4.5-1.8 70.7-16.2 1.8-.4 1.6 1.1 44.4 30.5.7.4.4.7 23.5 32.1 1.3 1.7-.5 2.1-11 38.7-2.5 9-5.4-7.7-19.2-27.2 8.2-3.2 5.3 42.9 1.1 8.5-7.7-4-75.6-39 1.6.5-92.5-11.6h.5l-91.3.1h-.7l-.7-.1-104.2-27.4-9.2-2.5 7.5-6.1 10.4-8.3 1.7 8.5L826 1691l.5.1-156-27.7 2.2-9.8 59.3 17 14.8 4.2 7.4 2.1c2.5.8 5 1.3 7.4 2.2l29.3 9.8 117 39 2 .7.9 2 20.7 42 4.1 8.2-9.1-.7-56-4.2 3.2-9.6 13.2 8.3 1.7 1.1.5 1.8 13.9 45.8 2.6 8.9-9-2.2-120.3-29.7 4.5-9.4 24.4 19.2.9.8.5 1.1 18.5 38 5.2 10.7-11.4-3.2-98-27.5.5.1-389.9-69.6-8.5-1.5 5-6.9 62.3-85.2-1.1 3.7-14.4-133.4 1.1 2.6-92.9-124.4.5.7-72.5-70.5 5.2 1.2-61.6 19.8-2.2.8-2-1.2-65.7-40.6-.9-.5-.7-.9-54.4-77.8-9.5-13.6 15.5 5.9 71.7 27.6-4.8 8.7-49.6-35.5-1.8-1.3-.3-2.2-17.7-189-1.6-16.5 10.2 13.1 78.1 100.3-7.9 5.3-42.3-77.9-1.6-2.9 2.1-2.5 110.2-127.7 8.2-9.5V941l-.1 156.3-.1-1.2 28.9 110.2-.9-1.7 68.6 81.9-2-1.3 100 32.8h-2.6l59.4-18.6-2.9 3.3 41.5-220.2.4-2 1.8-.9L760.3 945l1.8-.9 1.7 1.2 324.2 219.1-.4-.3 90.9 44.3-3.4.7 53.4-60.2-.7 2.4-53-248.6 2.9 1.8-120.7 31.8-.5.1-.5-.1-189.8-30.9-7.7-1.3 7.4-2.5 219.7-76.5.9 3.4L924 862.4l-.4.1-.4-.1L649 763.7l-5.7-2.1 5.9-.9 335.9-51.9.3 3.2H732.9l-.4-.3-252.3-163-5.5-3.6h6.7l518.3-.8-1.7.5 19-14.8.5 4.9-46.5-21.5-.8-.4-.4-.7-62.1-90.7-4.6-6.7 7.9 2 136.5 33.9h-1.8l62-19.5-.4.1 23.5-10.4-1.5 1.3 43.6-67.2.8-1.3 1.5-.3 282.3-54-.7.3 141.5-55-1.7 1.3 63.8-79.5.7-.8.9-.4 54.2-24.7 2.2-1.1 2 1.5 43.2 30.4-3.7-.7 63.8-16.5 1.7-.4 1.5.8 27.7 14.5 2.8 1.5-.4 3-11.2 97.1-.1 1.6-1.2 1.1-53.2 49.7 1.2-4.6 23.8 77.4.7 2-1.2 1.7-41.6 64.6-7 10.8-1.3-12.8-4.5-43.6 1.1 2.4-16.8-20.3 6.2.8-112.4 83.6 1.3-1.5-79.4 147.2-5.8-5.9 82.3-42.1.8-.4.8-.1 98.5-8.7 5.2-.4-.5 5.2-6.9 65.1-.1 1.8-1.5 1.1-56.8 42.5-.9-7.3 42.5 17.8 3.2 1.3-.7 3.3-16 86.7-.1 1.1-.7.8-101.4 122.7.9-2.2-10.8 166.8-.8 12.9-6.3-11.4-70.8-127.9-.5-1.1.1-1.2 14.4-125.1 4.5 3.7-88.6 27.5 2.4-3.7 14.4 92.6.9 6.1-5.5-2.6-24.4-11.8 4.5-3.4 20.6 115.6v-.3l33.4 123.6-.5-.9 42.5 54.8-3.6-.7 42.9-26.3-.9 1.1 108.3-227.6.5-1.2h1.3l188.2.4h1.6v1.6l3.3 101.2v1.7l-1.7-.3-58.4-7.9-.9-.1-.1-.9-5.4-34.9 1.6.9-73 24-.1-1.8 78.3 10.7h.5l.1.4v.1l.3 2.2-.7-.5 57.3 5.9z" class="st30"/>
  <path d="M941.5 1683.3c-1.7 2-3.4 3.8-5.2 5.7-1.7 1.8-3.3 3.6-5 5.3-3.3 3.4-6.7 6.6-10.2 9.8l-3.4 3.2-2.5-4.5c-2.2-4.1-4.5-8.2-6.6-12.3-2.1-4.1-4.1-8.3-5.8-12.7l1.2 1.5c-1.8-1.7-3.8-3.6-5.7-5.3l-5.5-5.4c-1.8-1.8-3.7-3.6-5.7-5.3-1.8-1.7-3.8-3.4-5.8-5l-5.4-4.5 6.7 1.8c4.1 1.1 8.1 2 12.2 2.8 4.1.8 8.2 1.5 12.4 2.1l12.4 1.8c4.1.7 8.2 1.5 12.3 2.2 8.2 1.7 16.4 3.3 24.6 5.3 8.2 2 16.2 4.2 24.2 6.7l7.3 2.2-4.8 5.3-2.2 2.5-1.6 1.8-1.8-.1c-2.9-.3-5.8-.5-8.7-.8-2.9-.3-5.8-.7-8.9-1.1s-5.9-.8-9-1.2c-3.3-.7-6.3-1.2-9.5-1.8zm-.4-.9c2.8-.5 5.8-.9 8.7-1.2 2.9-.4 5.9-.7 9-.9 3-.3 6.1-.5 9.2-.8 3-.1 6.2-.4 9.4-.5l-3.6 1.6 2-2.8 2.5 7.5c-8.2-1.5-16.4-3.3-24.6-5.4-8.1-2.1-16.1-4.5-24.2-6.9-4-1.2-8.1-2.4-12-3.7l-11.9-4.1c-4-1.3-7.9-2.8-11.9-4s-8.1-2.2-12.2-3.2l1.3-2.6c2.1 1.6 4.2 3 6.3 4.5 2.1 1.5 4.4 2.8 6.6 4.2l6.6 4.1c2.2 1.3 4.4 2.8 6.5 4.2l.5.4.7 1.1c2.4 4.1 4.4 8.2 6.3 12.4 2 4.2 3.8 8.5 5.7 12.8l-5.9-1.3c4.1-2.9 8.3-5.8 12.4-8.3 2.1-1.3 4.2-2.5 6.2-3.8 2.3-1.2 4.4-2.2 6.4-3.3zM994.8 1662.5c-.8-1.1-1.6-2.4-2.5-3.7-.9-1.5-2-3-2.9-4.9-1.1-1.8-2-3.7-2.9-5.8-.9-2-1.7-4.1-2.4-6.2l1.8 2.5c-2.2-1.3-4.4-2.9-6.3-4.6-2-1.8-3.8-3.7-5.7-5.5l-6.9-6.5 8.2 2.2c3.4.9 6.9 1.5 10.3 1.5 3.4.1 7-.3 10.4-.7 3.6-.4 7-.7 10.4-.7h10.4l10 .4-6.3 8.3c-2 2.6-4.2 5.2-6.5 7.5-2.4 2.4-4.8 4.5-7.1 6.6-2.4 2-4.6 3.8-6.7 5.4-1.7 1.5-3.5 3-5.3 4.2zm.3-1.1c2-3.3 3.7-6.2 5.2-9l4.1-7.9c1.3-2.4 2.5-4.6 3.8-6.7 1.3-2.1 2.8-4 4.5-5.8l3.7 8.7c-3.4-.4-6.9-1.1-10.3-1.6-3.4-.5-6.9-1.3-10.3-2.2-3.4-.9-6.9-1.8-10.3-2.2-3.4-.5-6.9-.5-10.4-.1l1.3-4.2c2.5.9 5 1.7 7.5 2.8 2.5 1.1 4.8 2.2 6.9 3.7l1.6 1.1.4 1.5c.4 1.5.7 2.9.9 4.5.3 1.6.3 3.2.4 4.9.1 1.7.1 3.7.3 5.8.1 1.9.3 4.2.7 6.7zM1030.4 1619.7l-4.8 6.3-.7.9-.7-1.1c-7.3-11.9-14.5-23.9-21.7-35.9-7.1-12-14.3-24-21.4-36.2l3 1.5-28.9 4.5-28.9 4.4c-19.3 2.9-38.6 5.7-57.9 8.5l-28.9 4.1c-9.6 1.3-19.3 2.6-28.9 4-9.6 1.3-19.3 2.5-29.1 3.7-9.6 1.2-19.4 2.4-29.1 3.6l-1.8.3-1.3-1.2-52.8-51.9c-8.9-8.7-17.6-17.3-26.6-25.9-8.9-8.6-17.8-17.2-26.8-25.6l-.7-.7.3-.9c3.4-11.8 6.6-23.5 9.9-35.3s6.5-23.5 9.6-35.3l9.4-35.4 9.2-35.4 3.7 3.7-4.5 1.3-6.9 2.1 3.4-6.5.3-.5.7-1.2 1.5-.3 40.3-8.5c13.5-2.8 26.9-5.5 40.3-8.3l80.8-16.2 2.1-.4 1.7 1.3 56.1 41.5c18.6 14 37.4 27.7 55.9 41.9 18.6 14 37.1 28 55.6 42.3 18.5 14.1 37 28.3 55.3 42.5l2.1 1.6-.7 2.4-9.4 35.3-9.5 35.1c-3.2 11.8-6.5 23.4-9.6 35-3 11.6-6.3 23.2-9.6 34.9zm-.9-.6c2.5-11.9 5.2-23.8 7.8-35.7 2.6-11.9 5.2-23.8 7.9-35.5l8.1-35.4 8.2-35.3 1.5 4c-18.9-13.6-37.6-27.3-56.4-41.1-18.8-13.7-37.5-27.6-56.3-41.3-18.8-13.7-37.4-27.9-56-41.7l-55.7-42.1 3.8.9-81 14.9c-13.5 2.5-27.1 4.9-40.6 7.3l-40.6 7.1 2.1-1.6-.3.5-3.6-4.4 4.5-1.2 5.2-1.5-1.5 5-20.7 70.1c-3.4 11.8-6.9 23.4-10.2 35.1s-6.7 23.4-9.9 35.1l-.4-1.6c9 8.5 18 16.9 27.1 25.2 9.1 8.5 18.2 16.8 27.3 25l54.8 49.8-3.2-1.1c9.6-1.5 19.3-3 28.9-4.4 9.6-1.5 19.3-2.9 28.9-4.2s19.3-2.8 28.9-4l29.1-3.8c19.3-2.6 38.7-5 58-7.5l29.1-3.6 29.1-3.4 2.1-.3.9 1.7c6.6 12.3 13.2 24.7 19.7 37 6.5 12.4 13.1 24.7 19.4 37.3l-1.3-.1 5.3-5.2z" class="st30"/>
</svg>
