<svg xmlns="http://www.w3.org/2000/svg" xml:space="preserve" id="Layer_1" x="0" y="0" style="enable-background:new 0 0 2000 2000" version="1.1" viewBox="0 0 2000 2000">
  <style>
    .st0{fill:#3e853f}.st4{fill:#2e6431}.st43{fill:#1f441f}
  </style>
  <path d="m1002.6 1691.8-121.3-30.1 24.6 19.3 18.7 38.5-98.8-27.7-36.6-6.5-356.4-63.7 62.8-85.8 13.5-118.6 2.8-24 169.6-49.1-19.2 68.4-20.6 73.5 27.8 26.2 80.8 76.3 233.7-32 47.6 85-56.3-4.4 13.3 8.4z" class="st0"/>
  <linearGradient id="SVGID_1_" x1="432.8" x2="789.189" y1="487.517" y2="487.517" gradientTransform="matrix(1 0 0 -1 0 2000)" gradientUnits="userSpaceOnUse">
    <stop offset=".246" style="stop-color:#2e6431"/>
    <stop offset=".325" style="stop-color:#316a34"/>
    <stop offset=".564" style="stop-color:#39793a"/>
    <stop offset=".793" style="stop-color:#3d823e"/>
    <stop offset="1" style="stop-color:#3e853f"/>
  </linearGradient>
  <path d="m789.2 1685.3-356.4-63.7 62.8-85.8 13.5-118.6 159.7-73.1 13.9-4.4-41 146.3 27.8 26.2h-17.2l11.3 110.9z" style="fill:url(#SVGID_1_)"/>
  <linearGradient id="SVGID_2_" x1="837.515" x2="1002.596" y1="332.088" y2="332.088" gradientTransform="matrix(1 0 0 -1 0 2000)" gradientUnits="userSpaceOnUse">
    <stop offset="0" style="stop-color:#3e853f"/>
    <stop offset="1" style="stop-color:#2e6431"/>
  </linearGradient>
  <path d="m881.3 1661.7-43.8-17.7h69l96.1 47.8z" style="fill:url(#SVGID_2_)"/>
  <linearGradient id="SVGID_3_" x1="905.411" x2="1031.618" y1="376.819" y2="376.819" gradientTransform="matrix(1 0 0 -1 0 2000)" gradientUnits="userSpaceOnUse">
    <stop offset="0" style="stop-color:#3e853f"/>
    <stop offset="1" style="stop-color:#2e6431"/>
  </linearGradient>
  <path d="m975.3 1637.1-20.5-14-49.4-18.2 63.1 2.6 63.1 34z" style="fill:url(#SVGID_3_)"/>
  <path d="m1069.3 1467.6-38.9 156.6-53.1 64.4-36.3-.5-43.7 35.1 105.3 27.9h92l93.2 11.7 76.1 39.4-5.3-43.3-28.9-35.4 28.9 35.4 19.3 27.6 11.1-39-23.6-32.4-44.7-30.9-71.3 16.4-35.5-57.9 59.2-106.9z" class="st4"/>
  <path d="m1987.4 1196.7-67 93.9-4.9-51.3 10.9-37.7-75.1-64.4-89.5 3.6-60.1 84.3 56.5 51.6 53.7-64.3 14.4-44.5 23.9 55.7-61.2 85.9-20 28.1-128.8-25.1-76.7 46.8-112.9 236-221.9 3.6-388.4-285.4-163.1 31.4-100.1 183.2-40.7 97.5 219.5 63.4 149.5 49.8 20.9 42.3-56.3-4.4 13.3 8.4 14 46.4-121.3-30.1 24.6 19.3 18.7 38.5-98.8-27.7-393-70.2 62.8-85.9-14.6-134.4-94-125.3-73.2-71.2-62.1 20.1-66-40.9-54.8-78.3 72.2 27.8-50-35.8-18-190.5 78.8 101.1-43-78.8 110.9-128.8v157.4l29.3 111 69.1 82.6 100.8 33 59.9-18.8 41.5-222.1 282.8-136 262.1 176.6.4.3 64.5 43.5 91.7 44.5 53.6-60.8-53.6-250.6-121.7 32.2-191.3-30.9 221.3-77.3-163.6 34.3L646.7 760l338.6-52.2h-254L477.1 543.2h522.6l19.1-14.8-46.8-21.8-62.5-91.5 137.6 34.3 62.4-19.5 23.7-10.4 43.9-67.6 284.7-54.1 142.5-55.2 64.3-80.1 54.6-24.8 43.6 30.6 64.4-16.7 27.8 14.5-11.3 97.9-53.6 50.2 23.9 78-41.8 65.1-4.6-43.8-17-20.6-98.6 73.4-14.5 10.8-80 148.3 82.9-42.4 99.3-8.8-6.9 65.6-57.2 43 42.8 17.9-15.9 87.3-102.2 123.8-10.6 168.1-71.6-128.8 14.3-126.1-89.3 28 14.7 93.1-24.7-11.7 20.9 116.4 33.8 124.6 43 55.1 43.2-26.5 108.8-229.6h189.5l3.6 101.9-58.8-7.8-5.6-35-73.5 24.5 79.1 10.5v.1l.2 2.2 58.6 5.5z" class="st0"/>
  <path d="m1879.9 1076.3-58.6-5.5-.2-2.3z" class="st0"/>
  <path d="m1644.4 392.5 11.6 73.8-14.5 10.8-80 148.3-185.9 82.4-16.6-18.6 31.1-119.7 216.1-186.8zM1794.1 314.2l-42.2 34.7 33 46.4-8.7 62-4.6-43.8-17-20.6-98.6 73.4 49.1-101.1-19.3-42.2 6.9-46.5 33.7-28.8 29.2 28.8 40.1-27.3 27 24.4 25-9.6zM477.1 543.2 737 675.6l248.3 32.2h-254zM646.7 760l278.9 65h161.3l-163.6 34.3zM865.6 902.3l189.3 7.2 123.7-8.5-121.7 32.2zM1570.9 721.6l83-63.8 82.9-18-57.2 43-23.6-7.7z" class="st4"/>
  <linearGradient id="SVGID_4_" x1="1022.033" x2="1490.517" y1="1414.034" y2="1414.034" gradientTransform="matrix(1 0 0 -1 0 2000)" gradientUnits="userSpaceOnUse">
    <stop offset="0" style="stop-color:#3e853f"/>
    <stop offset="1" style="stop-color:#2e6431"/>
  </linearGradient>
  <path d="m1490.5 438.7-145.1 117-148.2 177.6-175.2-25.5 148.6-11.4L1324 514.1z" style="fill:url(#SVGID_4_)"/>
  <path d="m909.5 415.1 78.7 78.1 105.6-4.8-75 40-46.8-21.8zM1363.4 373.7l-113.7 42.9-71.1 22.1 37.4 64.9 97.3-4.6 130.2-125.3-132.4 119h-88l-25.6-47.1 58-16.3z" class="st4"/>
  <linearGradient id="SVGID_5_" x1="1210.278" x2="1423.686" y1="1566.667" y2="1566.667" gradientTransform="matrix(1 0 0 -1 0 2000)" gradientUnits="userSpaceOnUse">
    <stop offset="0" style="stop-color:#429a4d"/>
    <stop offset=".204" style="stop-color:#3e853f"/>
    <stop offset="1" style="stop-color:#44b05d"/>
  </linearGradient>
  <path d="M1423.7 382.7h-61.4l-98.6 50.2-53.4 16.3 17.4 34.7h83.4z" style="fill:url(#SVGID_5_)"/>
  <path d="m1319.2 411.1 41.5-24.9.7-.4h1.2l35 1.1 12.9.4-9.2 10.4-62.2 52 53.4-61.1 3.8 10.8-34.4-6.5 1.9-.4z" style="fill:#71c16e"/>
  <path d="m1513.1 353.3-102.6-22.1-231.9 89.6-84.8 67.6 87.3-55.1 61.4-21.5 115.6-40.2z" class="st4"/>
  <linearGradient id="SVGID_6_" x1="1180.924" x2="1178.548" y1="1095.987" y2="1095.987" gradientTransform="matrix(1 0 0 -1 0 2000)" gradientUnits="userSpaceOnUse">
    <stop offset="0" style="stop-color:#3a7c3b"/>
    <stop offset="1" style="stop-color:#2e6431"/>
  </linearGradient>
  <path d="m1181 906.1-1.2.9-1.2-6z" style="fill:url(#SVGID_6_)"/>
  <path d="m1229.8 1580.1-382.3-291.4-188.8 48.5-109 203.8 63.5-221 215.7-100.1z" class="st4"/>
  <linearGradient id="SVGID_7_" x1="1461.761" x2="1461.761" y1="927.511" y2="729.28" gradientTransform="matrix(1 0 0 -1 0 2000)" gradientUnits="userSpaceOnUse">
    <stop offset="0" style="stop-color:#3e853f"/>
    <stop offset="1" style="stop-color:#2e6431"/>
  </linearGradient>
  <path d="m1534.8 1230.5-80 40.2-66-81.3-.1-116.9 56.4 108.8 53.4 2.6z" style="fill:url(#SVGID_7_)"/>
  <linearGradient id="SVGID_8_" x1="25.556" x2="375.688" y1="606.801" y2="606.801" gradientTransform="matrix(1 0 0 -1 0 2000)" gradientUnits="userSpaceOnUse">
    <stop offset="0" style="stop-color:#3e853f"/>
    <stop offset="1" style="stop-color:#2e6431"/>
  </linearGradient>
  <path d="m375.7 1541-94-125.3-73.2-71.2-62.1 20.1-66-40.9-54.8-78.3 67.9 68.7 56.5 27.8 57.4-7.8 111.3 71.3z" style="fill:url(#SVGID_8_)"/>
  <linearGradient id="SVGID_9_" x1="732.209" x2="897.29" y1="192.434" y2="192.434" gradientTransform="matrix(1 0 0 -1 0 2000)" gradientUnits="userSpaceOnUse">
    <stop offset="0" style="stop-color:#3e853f"/>
    <stop offset="1" style="stop-color:#2e6431"/>
  </linearGradient>
  <path d="m776 1801.4-43.8-17.7h69l96.1 47.8z" style="fill:url(#SVGID_9_)"/>
  <linearGradient id="SVGID_10_" x1="800.106" x2="926.313" y1="237.166" y2="237.166" gradientTransform="matrix(1 0 0 -1 0 2000)" gradientUnits="userSpaceOnUse">
    <stop offset="0" style="stop-color:#3e853f"/>
    <stop offset="1" style="stop-color:#2e6431"/>
  </linearGradient>
  <path d="m870 1776.7-20.5-13.9-49.4-18.3 63.1 2.7 63.1 33.9z" style="fill:url(#SVGID_10_)"/>
  <linearGradient id="SVGID_11_" x1="1450.578" x2="1788.994" y1="562.202" y2="562.202" gradientTransform="matrix(1 0 0 -1 0 2000)" gradientUnits="userSpaceOnUse">
    <stop offset="0" style="stop-color:#3e853f"/>
    <stop offset="1" style="stop-color:#2e6431"/>
  </linearGradient>
  <path d="m1789 1309.5-20 28.1-128.8-25.1-76.7 46.8-112.9 236 46-213.9 117.1-101.1 24.3 14.6 119 26.4z" style="fill:url(#SVGID_11_)"/>
  <linearGradient id="SVGID_12_" x1="1710.048" x2="1879.921" y1="953.471" y2="953.471" gradientTransform="matrix(1 0 0 -1 0 2000)" gradientUnits="userSpaceOnUse">
    <stop offset="0" style="stop-color:#3e853f"/>
    <stop offset="1" style="stop-color:#2e6431"/>
  </linearGradient>
  <path d="m1860.6 1023.6-139.1-6.8-11.4 37 111 14.6 58.8 7.7-19.3-52.5zM1742 1058l73.5-24.5 5.5 35-79-10.5z" style="fill:url(#SVGID_12_)"/>
  <linearGradient id="SVGID_13_" x1="1701.661" x2="1931.709" y1="797.11" y2="797.11" gradientTransform="matrix(1 0 0 -1 0 2000)" gradientUnits="userSpaceOnUse">
    <stop offset="0" style="stop-color:#3e853f"/>
    <stop offset="1" style="stop-color:#2e6431"/>
  </linearGradient>
  <path d="m1931.7 1187.4-4 48.4-7.3 54.8-4.9-51.3 10.9-37.7-75.1-64.4-89.5 3.6-60.1 84.3 40.3-109.9 115.2 5.7z" style="fill:url(#SVGID_13_)"/>
  <linearGradient id="SVGID_14_" x1="1323.173" x2="1553.354" y1="852.825" y2="852.825" gradientTransform="matrix(1 0 0 -1 0 2000)" gradientUnits="userSpaceOnUse">
    <stop offset="0" style="stop-color:#71c16e"/>
    <stop offset="1" style="stop-color:#3e853f"/>
  </linearGradient>
  <path d="m1365.8 978.8-42.6 217.4 72 119.4 158.2-95.7-117.3 60.4-83.4-113.6z" style="fill:url(#SVGID_14_)"/>
  <linearGradient id="SVGID_15_" x1="1736.807" x2="1490.517" y1="1366.041" y2="1366.041" gradientTransform="matrix(1 0 0 -1 0 2000)" gradientUnits="userSpaceOnUse">
    <stop offset="0" style="stop-color:#71c16e"/>
    <stop offset="1" style="stop-color:#3e853f"/>
  </linearGradient>
  <path d="m1490.5 680.7 153.2-84.5 93.1-9-6.1 31.1-89.9 7.1z" style="fill:url(#SVGID_15_)"/>
  <linearGradient id="SVGID_16_" x1="1714.308" x2="1553.354" y1="1207.949" y2="1207.949" gradientTransform="matrix(1 0 0 -1 0 2000)" gradientUnits="userSpaceOnUse">
    <stop offset="0" style="stop-color:#71c16e"/>
    <stop offset="1" style="stop-color:#3e853f"/>
  </linearGradient>
  <path d="m1668 689.2 4.8 86.3-119.4 119.4 148.3-113 12.6-74.1z" style="fill:url(#SVGID_16_)"/>
  <linearGradient id="SVGID_17_" x1="1597.42" x2="1568.131" y1="1018.771" y2="1018.771" gradientTransform="matrix(1 0 0 -1 0 2000)" gradientUnits="userSpaceOnUse">
    <stop offset="0" style="stop-color:#71c16e"/>
    <stop offset="1" style="stop-color:#3e853f"/>
  </linearGradient>
  <path d="m1597.4 918.6-29.3 14.6 21.7 110.7 4.8-85.4z" style="fill:url(#SVGID_17_)"/>
  <linearGradient id="SVGID_18_" x1="1420.89" x2="1303.469" y1="1334.089" y2="1334.089" gradientTransform="matrix(1 0 0 -1 0 2000)" gradientUnits="userSpaceOnUse">
    <stop offset="0" style="stop-color:#71c16e"/>
    <stop offset="1" style="stop-color:#3e853f"/>
  </linearGradient>
  <path d="m1363.5 556.3-60 175.6 9.2 43.6 108.2-60.3h-61.8l-18-21.2z" style="fill:url(#SVGID_18_)"/>
  <linearGradient id="SVGID_19_" x1="610.662" x2="1047.061" y1="1444.241" y2="1444.241" gradientTransform="matrix(1 0 0 -1 0 2000)" gradientUnits="userSpaceOnUse">
    <stop offset="0" style="stop-color:#71c16e"/>
    <stop offset="1" style="stop-color:#3e853f"/>
  </linearGradient>
  <path d="M1047.1 535.3c-3.3-2.5-36.9 41-36.9 41l-399.5-20 385.3-7.1 51.1-13.9z" style="fill:url(#SVGID_19_)"/>
  <linearGradient id="SVGID_20_" x1="684.283" x2="1013.246" y1="1266.06" y2="1266.06" gradientTransform="matrix(1 0 0 -1 0 2000)" gradientUnits="userSpaceOnUse">
    <stop offset="0" style="stop-color:#71c16e"/>
    <stop offset="1" style="stop-color:#3e853f"/>
  </linearGradient>
  <path d="m684.3 760 328.9-52.2-52.1 35.6z" style="fill:url(#SVGID_20_)"/>
  <linearGradient id="SVGID_21_" x1="908.207" x2="1146.509" y1="1145.578" y2="1145.578" gradientTransform="matrix(1 0 0 -1 0 2000)" gradientUnits="userSpaceOnUse">
    <stop offset="0" style="stop-color:#71c16e"/>
    <stop offset="1" style="stop-color:#3e853f"/>
  </linearGradient>
  <path d="m908.2 894.9 238.3-80.9-42.6 46.5z" style="fill:url(#SVGID_21_)"/>
  <linearGradient id="SVGID_22_" x1="1697.267" x2="1627.594" y1="1624.778" y2="1624.778" gradientTransform="matrix(1 0 0 -1 0 2000)" gradientUnits="userSpaceOnUse">
    <stop offset="0" style="stop-color:#71c16e"/>
    <stop offset="1" style="stop-color:#3e853f"/>
  </linearGradient>
  <path d="m1676.1 323.8-33.1 7.4-15.5 19.5 43.3 23-4.8 53 31.3-61.5z" style="fill:url(#SVGID_22_)"/>
  <linearGradient id="SVGID_23_" x1="1811.947" x2="1763.651" y1="1621.45" y2="1621.45" gradientTransform="matrix(1 0 0 -1 0 2000)" gradientUnits="userSpaceOnUse">
    <stop offset="0" style="stop-color:#71c16e"/>
    <stop offset="1" style="stop-color:#3e853f"/>
  </linearGradient>
  <path d="m1763.7 344.9 36.6 44.4-13.4 44 25-43.1-20.1-66.4z" style="fill:url(#SVGID_23_)"/>
  <linearGradient id="SVGID_24_" x1="1853.429" x2="1692.741" y1="1813.756" y2="1813.756" gradientTransform="matrix(1 0 0 -1 0 2000)" gradientUnits="userSpaceOnUse">
    <stop offset="0" style="stop-color:#71c16e"/>
    <stop offset="1" style="stop-color:#3e853f"/>
  </linearGradient>
  <path d="m1723.6 145.4-30.9 41.5 44.1 38.1-22-36.6 16.4-18.7 56.6 30.3 47.4-15.4 7.8 42.5 10.4-57.9-21.4-8.9-56.6 18.2z" style="fill:url(#SVGID_24_)"/>
  <linearGradient id="SVGID_25_" x1="117.815" x2="36.473" y1="873.86" y2="873.86" gradientTransform="matrix(1 0 0 -1 0 2000)" gradientUnits="userSpaceOnUse">
    <stop offset="0" style="stop-color:#71c16e"/>
    <stop offset="1" style="stop-color:#3e853f"/>
  </linearGradient>
  <path d="m36.5 1062.6 21.4 90.4 59.9 36.6z" style="fill:url(#SVGID_25_)"/>
  <linearGradient id="SVGID_26_" x1="2085.333" x2="2029.921" y1="2589.443" y2="2589.443" gradientTransform="scale(1 -1) rotate(35.677 7081.973 -2411.127)" gradientUnits="userSpaceOnUse">
    <stop offset="0" style="stop-color:#71c16e"/>
    <stop offset="1" style="stop-color:#3e853f"/>
  </linearGradient>
  <path d="m36.5 1260.3 47.8 41.4 47.6-3.4z" style="fill:url(#SVGID_26_)"/>
  <linearGradient id="SVGID_27_" x1="-369.349" x2="-451.703" y1="-1615.376" y2="-1615.376" gradientTransform="scale(1 -1) rotate(-34.402 813.74 -2252.36)" gradientUnits="userSpaceOnUse">
    <stop offset="0" style="stop-color:#71c16e"/>
    <stop offset="1" style="stop-color:#3e853f"/>
  </linearGradient>
  <path d="m166 958.9-33.7 87.6 29 65z" style="fill:url(#SVGID_27_)"/>
  <linearGradient id="SVGID_28_" x1="1102.149" x2="609.41" y1="673.502" y2="1010.874" gradientTransform="matrix(1 0 0 -1 0 2000)" gradientUnits="userSpaceOnUse">
    <stop offset="0" style="stop-color:#71c16e"/>
    <stop offset="1" style="stop-color:#3e853f"/>
  </linearGradient>
  <path d="m1145.4 1263.3-366.7-229.8-229 42.8 207-97.5 270.7 168.4z" style="fill:url(#SVGID_28_)"/>
  <linearGradient id="SVGID_29_" x1="1708.274" x2="1979.833" y1="838.713" y2="838.713" gradientTransform="matrix(1 0 0 -1 0 2000)" gradientUnits="userSpaceOnUse">
    <stop offset="0" style="stop-color:#3e853f"/>
    <stop offset="1" style="stop-color:#71c16e"/>
  </linearGradient>
  <path d="M1709.9 1068.5c13.8.3 27.6 1.1 41.3 2.1 13.7 1.1 27.4 2.4 41 4 13.6 1.6 27.3 3.3 40.7 5.2 6.8.9 13.6 2 20.4 3.1s13.6 2.1 20.2 3.2l3.2.5 2.4 2.4c4 4.1 8 8.3 12 12.4s8 8.3 11.8 12.5l11.7 12.5 11.6 12.6c15.4 17 30.6 34.2 45.4 51.8l3.1 3.7-2.1 3.3-8.9 14.2c-3.1 4.7-6 9.5-9.2 14.1-3.1 4.7-6.1 9.3-9.3 14-1.6 2.3-3.2 4.7-4.8 6.9-1.6 2.3-3.2 4.7-4.9 6.9.9-2.7 2-5.2 3.1-7.9s2.1-5.2 3.2-7.9c2.1-5.2 4.3-10.4 6.5-15.4 2.3-5.2 4.5-10.3 6.8-15.4l6.9-15.3.9 7.1c-17-15.4-33.7-31.3-50.1-47.4l-12.2-12.1-12.1-12.2c-4-4.1-8-8.3-12-12.4s-8-8.3-12-12.4l5.6 2.9c-6.8-1.2-13.4-2.4-20.2-3.6-6.8-1.2-13.4-2.5-20.2-3.9-13.4-2.7-26.9-5.6-40.2-8.5-13.3-3.1-26.8-6.3-40.1-9.9-13-3-26.3-6.7-39.5-11.1z" style="fill:url(#SVGID_29_)"/>
  <linearGradient id="SVGID_30_" x1="1675.947" x2="1883.689" y1="992.279" y2="992.279" gradientTransform="matrix(1 0 0 -1 0 2000)" gradientUnits="userSpaceOnUse">
    <stop offset="0" style="stop-color:#3e853f"/>
    <stop offset="1" style="stop-color:#71c16e"/>
  </linearGradient>
  <path d="M1686.1 1033.5c-.1-1.1.1-2.1.3-3.1.3-1.1.5-2 .8-3.1.5-2 1.2-4 2-5.9 1.5-3.9 2.9-7.6 4.5-11.4 1.6-3.7 3.3-7.5 5.1-11 1.7-3.7 3.6-7.3 5.5-10.9l1.3-2.7 4.4-.4c12.8-1.2 25.4-2 38.2-2.5s25.4-.7 38.2-.7c12.8 0 25.4.4 38.2.9 12.8.7 25.4 1.5 38.2 2.8l5.5.5.7 4.1c.7 3.6 1.2 7.2 1.7 10.8.5 3.6 1.1 7.2 1.5 10.8.4 3.6.8 7.2 1.2 10.9.1 1.9.4 3.6.5 5.5.1 1.9.3 3.6.4 5.5-.9-1.6-1.7-3.3-2.5-4.9-.8-1.6-1.6-3.3-2.4-4.9-1.6-3.3-3.1-6.7-4.5-10s-2.8-6.7-4.3-10c-1.3-3.3-2.7-6.8-4-10.1l6.1 4.7c-12.8 1.3-25.4 2.1-38.2 2.8-12.8.5-25.4.9-38.2.9-12.8 0-25.4-.1-38.2-.7-12.8-.5-25.4-1.3-38.2-2.5l5.7-3.2c-2.5 3.1-4.9 6.3-7.5 9.5l-7.6 9.5-7.6 9.5-3.7 4.8c-.7.8-1.2 1.6-1.7 2.4-.5.2-1.1 1-1.4 2.1z" style="fill:url(#SVGID_30_)"/>
  <linearGradient id="SVGID_31_" x1="1639.302" x2="1849.754" y1="757.903" y2="757.903" gradientTransform="matrix(1 0 0 -1 0 2000)" gradientUnits="userSpaceOnUse">
    <stop offset="0" style="stop-color:#3e853f"/>
    <stop offset="1" style="stop-color:#71c16e"/>
  </linearGradient>
  <path d="M1827.3 1175.8c1.5 3.7 2.9 7.3 4.4 11 1.3 3.7 2.8 7.5 4.1 11 2.7 7.5 5.2 14.9 7.9 22.4l.7 2-1.7 2.5c-4.8 6.9-9.5 13.8-14.4 20.6-2.4 3.5-4.9 6.8-7.5 10.1-2.5 3.3-4.9 6.8-7.6 10-5.1 6.7-10.3 13.2-15.4 19.8-5.2 6.5-10.5 13-15.8 19.4l-2.9 3.6h-27.3l-7.5-.1c-5.1-.1-10-.3-15-.4l-7.5-.3-7.5-.4-3.3-.1-1.9-1.6c-5.6-4.4-11-9.1-16.5-13.6-5.5-4.7-10.9-9.3-16.2-14-5.3-4.8-10.7-9.6-15.8-14.5-5.2-4.9-10.4-10-15.3-15.3 6.5 3.1 12.9 6.4 19.3 9.9 6.3 3.5 12.5 7.1 18.6 10.7 6.1 3.6 12.2 7.3 18.4 11.2 6 3.9 12.1 7.6 18 11.6l-5.2-1.7 7.5-.4 7.5-.3c5.1-.1 10-.3 15-.4l7.5-.1h7.5c5.1 0 10-.1 15 0l-7.7 3.6c5.3-6.4 10.9-12.6 16.4-18.9 5.6-6.3 11.2-12.5 16.8-18.6 2.8-3.1 5.7-6.1 8.5-9.2 2.8-3.1 5.7-6.1 8.7-9.1 5.9-6 11.7-12 17.8-17.8l-1.1 4.5c-1.2-7.7-2.5-15.6-3.6-23.4-.5-3.9-1.1-7.9-1.6-11.7-.3-4.1-.9-8.1-1.3-12z" style="fill:url(#SVGID_31_)"/>
  <linearGradient id="SVGID_32_" x1="1022.432" x2="1553.354" y1="985.09" y2="985.09" gradientTransform="matrix(1 0 0 -1 0 2000)" gradientUnits="userSpaceOnUse">
    <stop offset="0" style="stop-color:#3a7c3b"/>
    <stop offset="1" style="stop-color:#2e6431"/>
  </linearGradient>
  <path d="M1553.4 775.5V825l-31.3 126.1 14.3-126.1-89.3 28 14.7 93.1-22.3-12.9 18.5 117.6-64.7-117.6-63.5 16-73.5 101.7 12 117-16.6 67.4-84.3 19-145-129.9 64.5 43.5 91.7 44.5 53.6-60.8-52.4-253.5 46.9-4.7 22.9 67.8L1317 792z" style="fill:url(#SVGID_32_)"/>
  <path d="m1093.1 1561.7 38.5 33.1-26.9 50.1 37.1 59.8-77.7-64.4zM1182.3 1704.7l30.5 3.2 45.8 51v32.6l-11-30.9-44.5-45.9z" class="st0"/>
  <path d="M1197.2 1693.5h30.5l36.9 24.7 19.8 29.9-6 23.7-10.6-29.5-9.2-16-39.7-25z" class="st0"/>
  <linearGradient id="SVGID_33_" x1="478.597" x2="800.106" y1="387.337" y2="387.337" gradientTransform="matrix(1 0 0 -1 0 2000)" gradientUnits="userSpaceOnUse">
    <stop offset="0" style="stop-color:#71c16e"/>
    <stop offset="1" style="stop-color:#3e853f"/>
  </linearGradient>
  <path d="m521.3 1500.9-42.7 166.9 321.5 56.6-271-91.2z" style="fill:url(#SVGID_33_)"/>
  <linearGradient id="SVGID_34_" x1="795.712" x2="735.271" y1="159.751" y2="220.192" gradientTransform="matrix(1 0 0 -1 0 2000)" gradientUnits="userSpaceOnUse">
    <stop offset="0" style="stop-color:#71c16e"/>
    <stop offset="1" style="stop-color:#3e853f"/>
  </linearGradient>
  <path d="m725.7 1789.4 34.7 18.1 36.9 31.2-21.3-37.3z" style="fill:url(#SVGID_34_)"/>
  <linearGradient id="SVGID_35_" x1="861.645" x2="801.204" y1="196.262" y2="256.703" gradientTransform="matrix(1 0 0 -1 0 2000)" gradientUnits="userSpaceOnUse">
    <stop offset="0" style="stop-color:#71c16e"/>
    <stop offset="1" style="stop-color:#3e853f"/>
  </linearGradient>
  <path d="m791.6 1752.9 34.9 18.1 36.7 31.2-21.2-37.3z" style="fill:url(#SVGID_35_)"/>
  <linearGradient id="SVGID_36_" x1="920.854" x2="860.413" y1="222.189" y2="282.63" gradientTransform="matrix(1 0 0 -1 0 2000)" gradientUnits="userSpaceOnUse">
    <stop offset="0" style="stop-color:#71c16e"/>
    <stop offset="1" style="stop-color:#3e853f"/>
  </linearGradient>
  <path d="m850.8 1727 34.8 18.1 36.9 31.1-21.3-37.3z" style="fill:url(#SVGID_36_)"/>
  <linearGradient id="SVGID_37_" x1="907.575" x2="847.134" y1="288.521" y2="348.962" gradientTransform="matrix(1 0 0 -1 0 2000)" gradientUnits="userSpaceOnUse">
    <stop offset="0" style="stop-color:#71c16e"/>
    <stop offset="1" style="stop-color:#3e853f"/>
  </linearGradient>
  <path d="m837.5 1660.7 34.9 18.1 36.7 31.1-21.1-37.3z" style="fill:url(#SVGID_37_)"/>
  <linearGradient id="SVGID_38_" x1="992.478" x2="934.034" y1="329.358" y2="387.803" gradientTransform="matrix(1 0 0 -1 0 2000)" gradientUnits="userSpaceOnUse">
    <stop offset="0" style="stop-color:#71c16e"/>
    <stop offset="1" style="stop-color:#3e853f"/>
  </linearGradient>
  <path d="m931.6 1614.6 25.5 35.4 33.8 22.2-10.3-28.2z" style="fill:url(#SVGID_38_)"/>
  <linearGradient id="SVGID_39_" x1="999.434" x2="943.986" y1="390.232" y2="445.681" gradientTransform="matrix(1 0 0 -1 0 2000)" gradientUnits="userSpaceOnUse">
    <stop offset="0" style="stop-color:#71c16e"/>
    <stop offset="1" style="stop-color:#3e853f"/>
  </linearGradient>
  <path d="m929.8 1568.5 37.8 5.2 36.7 31.2-24.5-43.2z" style="fill:url(#SVGID_39_)"/>
  <linearGradient id="SVGID_40_" x1="1442.457" x2="1165.281" y1="446.113" y2="446.113" gradientTransform="matrix(1 0 0 -1 0 2000)" gradientUnits="userSpaceOnUse">
    <stop offset="0" style="stop-color:#3e853f"/>
    <stop offset="1" style="stop-color:#2e6431"/>
  </linearGradient>
  <path d="m1442.5 1583.3-277.2-58.8 64.5 55.6z" style="fill:url(#SVGID_40_)"/>
  <path d="m1732.1 176.7-11.1 12.9 18.9 22.6 30.3-16zM1820.8 218.7l13.6-11.4-2.9-14.8-29.3 8.7z" class="st4"/>
  <path d="m1879.7 1076.9-58.4-5.3h-.5l-.1-.5-.4-2.3v-.1l.5.5-79.1-10.3-4.1-.5 3.9-1.3 73.5-24.8 1.3-.4.3 1.3 5.6 35-1.1-1.1 59 7.7-1.6 1.5-3.9-102 1.7 1.6-189.7.4 1.9-1.2-108.4 229.9-.3.7-.7.4-43.1 26.6-2.1 1.3-1.5-1.9-43-55.1-.4-.4-.1-.5-33.8-124.5v-.2l-21-116.4-1.1-6.3 5.7 2.7 24.6 11.7-4.7 3.5-14.8-93.2-.4-2.9 2.8-.9 89.2-28 5.2-1.6-.7 5.3-14.1 126.1-.4-2.3 71.8 128.7-7.2 1.6 10.7-168.1.1-1.3.8-1.1 102-123.9-.9 1.9 15.8-87.3 2.5 4.7-43-17.8-6.9-2.8 6-4.5 57.2-43-1.7 2.9 6.9-65.6 4.7 4.8-99.3 8.8 1.6-.4-82.9 42.6-12.6 6.5 6.8-12.5 79.9-148.3.5-.9.8-.5 113.2-84.4 3.5-2.5 2.8 3.3 16.9 20.5.9 1.1.1 1.3 4.5 43.8-8.4-2 41.9-65.1-.5 3.7-24-78-.8-2.7 2.1-1.9 53.7-50.1-1.5 2.8 11.3-97.9 2.4 4.5-27.8-14.6 3.2.4-64.3 16.6-2 .5-1.7-1.2L1721 141l4.4.4-54.6 24.8 1.6-1.2-64.4 80-.7.9-1.1.4-142.7 55.1-.4.1-.4.1-284.9 53.7 2.4-1.6-44.1 67.6-.5.9-.9.4L1111 433l-.1.1h-.1l-62.4 19.4-.9.3-.9-.3L909 418l3.3-4.8 62.3 91.7-1.2-1.1 46.7 21.8 4.3 2-3.7 2.9-19.2 14.8-.8.5h-.9l-522.4-.8 1.1-3.6 253.7 164.8-.9-.3 254 .1.3 3.2L647 761.6l.3-3.1 276.5 99.2h-.9l163.6-34.5.9 3.5-221.3 77.5-.4-3.9L1057 931h-.9l121.7-32.4 2.4-.7.5 2.5 54.1 250.4.3 1.3-.9 1.1-53.7 60.8-1.5 1.6-2-.9-91.7-44.3-.1-.1-.1-.1-327.2-219.7 3.6.3L479 1087.1l2.3-2.9-41.4 222.1-.5 2.5-2.4.8-59.9 18.8-1.3.4-1.3-.4-100.8-32.9-1.2-.4-.8-.9-69.2-82.4-.7-.8-.3-.9L172 1099l-.1-.5v-.5l-.1-157.5 8.3 3.1-111 128.8.5-5.5 43 78.7-8 5.3L25.8 1050l8.8-3.5 18 190.4-2.1-3.6 50.2 35.8 32.4 23-37-14.2-72.4-27.8 6-7.7 54.8 78.3-1.5-1.5 66.2 40.9-4.3-.5 62-20.1 2.9-.9 2.3 2.1 73.2 71.1.3.3.3.3 94.1 125.3.9 1.2.1 1.5 14.6 134.5.3 2.1-1.2 1.7-62.8 86-3.5-8.5 393 70h.3l.3.1 98.8 27.7-6.3 7.6-18.6-38.5 1.5 1.9-24.6-19.3-19.6-15.4 24.2 6 121.1 30.1-6.4 6.7-14-46.3 2.3 2.9-13.3-8.4-18-11.3 21.2 1.6 56.4 4.4-5.1 7.6-20.9-42.3 3.1 2.7-117.8-39.7-29.4-9.9c-2.4-.9-4.9-1.5-7.5-2.3l-7.5-2.1-14.9-4.3-59.6-17.2 2.3-9.9 157.2 28.1h.6l82 23 9.2 2.5-7.5 6-10.5 8.4-1.9-8.5 105.3 28-1.2-.1 92 .1h.6l93.2 11.8.8.1.7.4 76.2 39.4-6.7 4.7-5.3-43.3-2.3-18.1 10.4 14.9 19.2 27.6-8 1.3 11.2-39 .7 3.9-23.6-32.4 1.1 1.1-44.6-30.9 3.5.7-71.2 16.2-2.9.7-1.6-2.7-35.5-57.9-1.3-2.1 1.2-2.1 49.5-88.8 2.1-3.9 3.7 2.5 65.4 45.1-2.3-.7 221.9-3.3-3.2 2.1 113.3-235.8.4-.9.8-.5 76.8-46.6 1.1-.7 1.2.3 128.7 25.3-2.9 1.2 81.5-114-.3 2.5-23.8-55.6 4.8-.3-14.4 44.5-.1.4-.3.4-53.8 64.3-1.6 1.9-1.7-1.6-56.4-51.8-1.3-1.3 1.1-1.5 60.4-84.1.5-.8h.9l89.5-3.3h.7l.5.4 75 64.6.7.7-.3.9-11 37.7v-.5l4.8 51.3-2.3-.7 67.2-93.7v1.2l-107.5-120.4zm.5-.9 108 120.2.5.5-.4.7-66.8 94-1.9 2.7-.3-3.3-5.1-51.3v-.3l.1-.3 10.9-37.7.4 1.5-75.4-64.3 1.2.4-89.5 3.7 1.5-.8-60 84.4-.3-2.8 56.7 51.5-3.3.3 53.5-64.6-.4.8 14.2-44.5 2-6.4 2.7 6.1 24.1 55.6.5 1.3-.8 1.2-81.1 114.2-1.1 1.5-1.9-.4-128.9-24.9 2.3-.4-76.7 46.9 1.2-1.3-112.6 236.2-.9 2h-2.3l-221.8 4.3h-1.2l-1.1-.7-65.5-44.9 5.9-1.3-49.3 88.9-.1-4.3 35.7 57.8-4.5-1.9 71.2-16.4 1.9-.4 1.6 1.1 44.7 30.8.7.4.4.7 23.7 32.4 1.3 1.7-.5 2.1-11 39-2.5 9.1-5.5-7.7-19.3-27.4 8.3-3.2 5.3 43.3 1.1 8.5-7.7-4-76.1-39.3 1.6.5-93.2-11.7h.5l-92 .1h-.7l-.7-.1-105.7-28-9.3-2.5 7.6-6.1 10.5-8.4 1.7 8.5-82-22.9.5.1-157.2-28 2.3-9.9 59.8 17.2 14.9 4.3 7.5 2.1c2.5.8 5.1 1.3 7.5 2.3l29.6 9.9 118 39.3 2 .7.9 2 20.9 42.3 4.1 8.3-9.2-.7-56.4-4.3 3.2-9.7 13.3 8.4 1.7 1.1.5 1.9 14 46.2 2.7 8.9-9.1-2.3-121.3-30 4.5-9.5 24.6 19.3.9.8.5 1.1 18.6 38.3 5.2 10.8-11.4-3.2-98.8-27.7.5.1-393-70.2-8.5-1.5 5.1-6.9 62.8-85.9-1.1 3.7-14.5-134.5 1.1 2.7-94-125.4.5.7-73.1-71.1 5.2 1.2-62 20-2.3.8-2-1.2-66.2-40.9-.9-.5-.7-.9-54.8-78.4-9.6-13.7 15.6 6 72.3 27.8-4.8 8.8-50.1-35.8-1.9-1.3-.3-2.3-17.8-190.5-1.6-16.6 10.3 13.2 78.7 101-8 5.3-42.9-78.8-1.6-2.9 2.1-2.5 111-128.7 8.3-9.6v12.6l-.1 157.5-.1-1.2 29.2 111-.9-1.7 69.1 82.5-2-1.3 100.8 33h-2.7l59.9-18.8-2.9 3.3 41.8-221.9.4-2 1.9-.9L757.7 944l1.9-.9 1.7 1.2 326.7 220.9-.4-.3 91.6 44.6-3.5.7 53.8-60.7-.7 2.4-53.4-250.6 2.9 1.9-121.7 32.1-.5.1-.5-.1-191.3-31.2-7.7-1.3 7.5-2.5 221.4-77.1.9 3.5-163.7 34.2-.4.1-.4-.1-276.4-99.4-5.7-2.1 6-.9 338.5-52.3.3 3.2-253.3.1h-.5l-.4-.3-254.3-164.3-5.6-3.6h6.8l522.4-.8-1.7.5 19.2-14.9.5 4.9-46.9-21.7-.8-.3-.4-.7-62.6-91.5-4.7-6.8 8 2 137.5 34.2h-1.9l62.4-19.7-.4.1 23.7-10.5-1.5 1.3 43.9-67.8.8-1.3 1.5-.3 284.5-54.5-.7.3 142.6-55.4-1.7 1.3 64.3-80.1.7-.8.9-.4 54.6-24.9 2.3-1.1 2 1.5 43.5 30.6-3.7-.7 64.3-16.6 1.7-.4 1.5.8 28 14.6 2.8 1.5-.4 3.1-11.3 97.9-.1 1.6-1.2 1.1-53.7 50.1 1.2-4.7 24 78 .7 2-1.2 1.7-41.9 65.1-7.1 10.9-1.3-12.9-4.5-43.9 1.1 2.4-16.9-20.5 6.3.8-113.3 84.3 1.3-1.5-80 148.3-5.9-6 82.9-42.5.8-.4.8-.1 99.3-8.8 5.2-.4-.5 5.2-6.9 65.6-.1 1.9-1.5 1.1-57.2 42.9-.9-7.3 42.9 18 3.2 1.3-.7 3.3-16.1 87.3-.1 1.1-.7.8-102.2 123.7.9-2.3-10.9 168.1-.8 13-6.4-11.4-71.4-128.9-.5-1.1.1-1.2 14.5-126.1 4.5 3.7-89.3 27.7 2.4-3.7 14.5 93.3.9 6.1-5.6-2.7-24.6-11.8 4.5-3.5 20.8 116.5v-.3l33.7 124.6-.5-.9 42.9 55.2-3.6-.7 43.3-26.5-.9 1.1L1685.6 973l.5-1.2h1.3l189.7.4h1.6v1.6l3.3 102v1.7l-1.7-.3-58.8-8-.9-.1-.1-.9-5.5-35.1 1.6.9-73.6 24.2-.1-1.9 78.9 10.8h.5l.1.4v.1l.3 2.3-.7-.5 58.2 6.6z" class="st43"/>
  <path d="M941.1 1688.6c-1.7 2-3.5 3.9-5.2 5.7-1.7 1.9-3.3 3.6-5.1 5.3-3.3 3.5-6.8 6.7-10.3 9.9l-3.5 3.2-2.5-4.5c-2.3-4.1-4.5-8.3-6.7-12.4s-4.1-8.4-5.9-12.8l1.2 1.5c-1.9-1.7-3.9-3.6-5.7-5.3l-5.6-5.5c-1.9-1.9-3.7-3.6-5.7-5.3-1.9-1.7-3.9-3.5-5.9-5.1l-5.5-4.5 6.8 1.9c4.1 1.1 8.1 2 12.2 2.8 4.1.8 8.3 1.5 12.5 2.1l12.5 1.9c4.1.7 8.3 1.5 12.4 2.3 8.3 1.7 16.5 3.3 24.8 5.3s16.4 4.3 24.4 6.8l7.3 2.3-4.8 5.3-2.3 2.5-1.6 1.9-1.9-.1c-2.9-.3-5.9-.5-8.8-.8-2.9-.3-5.9-.7-8.9-1.1-3.1-.4-6-.8-9.1-1.2-2.7-1-5.9-1.6-9.1-2.1zm-.3-.9c2.8-.5 5.9-.9 8.8-1.2 2.9-.4 6-.7 9.1-.9 3.1-.3 6.1-.5 9.3-.8 3.1-.1 6.3-.4 9.5-.5l-3.6 1.6 2-2.8 2.5 7.6c-8.3-1.5-16.5-3.3-24.8-5.5-8.1-2.1-16.2-4.5-24.4-6.9-4-1.2-8.1-2.4-12.1-3.7l-12-4.1c-4-1.3-8-2.8-12-4-4-1.2-8.1-2.3-12.2-3.2l1.3-2.7c2.1 1.6 4.3 3.1 6.4 4.5 2.1 1.5 4.4 2.8 6.7 4.3l6.7 4.1c2.3 1.3 4.4 2.8 6.5 4.3l.5.4.7 1.1c2.4 4.1 4.4 8.3 6.4 12.5 2 4.3 3.9 8.5 5.7 12.9l-6-1.3c4.1-2.9 8.4-5.9 12.5-8.4 2.1-1.3 4.3-2.5 6.3-3.9 2.1-1.3 4.1-2.4 6.2-3.4zM995 1667.6c-.8-1.1-1.6-2.4-2.5-3.7-.9-1.5-2-3.1-2.9-4.9-1.1-1.9-2-3.7-2.9-5.9-.9-2-1.7-4.1-2.4-6.3l1.9 2.5c-2.3-1.3-4.4-2.9-6.4-4.7-2-1.9-3.9-3.7-5.7-5.6l-6.9-6.5 8.3 2.3c3.5.9 6.9 1.5 10.4 1.5 3.5.1 7.1-.3 10.5-.7 3.6-.4 7.1-.7 10.5-.7h10.5l10.1.4-6.4 8.4c-2 2.7-4.3 5.2-6.5 7.6-2.4 2.4-4.8 4.5-7.2 6.7-2.4 2-4.7 3.9-6.8 5.5-2 1.4-4 2.9-5.6 4.1zm.1-1.1c2-3.3 3.7-6.3 5.2-9.1l4.1-8c1.3-2.4 2.5-4.7 3.9-6.8 1.3-2.1 2.8-4 4.5-5.9l3.7 8.8c-3.5-.4-6.9-1.1-10.4-1.6s-6.9-1.3-10.4-2.3c-3.5-.9-6.9-1.9-10.4-2.3-3.5-.5-6.9-.5-10.5-.1l1.3-4.3c2.5.9 5.1 1.7 7.6 2.8 2.5 1.1 4.8 2.3 6.9 3.7l1.6 1.1.4 1.5c.4 1.5.7 2.9.9 4.5.3 1.6.3 3.2.4 4.9.1 1.7.1 3.7.3 5.9.4 2.4.7 4.7.9 7.2zM1030.8 1624.4l-4.8 6.4-.7.9-.7-1.1c-7.3-12-14.6-24.1-21.8-36.2-7.2-12.1-14.4-24.2-21.6-36.5l3.1 1.5-29.2 4.5-29.2 4.4c-19.4 2.9-38.9 5.7-58.3 8.5l-29.2 4.1c-9.7 1.3-19.4 2.7-29.2 4-9.7 1.3-19.4 2.5-29.3 3.7-9.7 1.2-19.6 2.4-29.3 3.6l-1.9.3-1.3-1.2-53.3-52.3c-8.9-8.8-17.7-17.4-26.8-26.1-8.9-8.7-18-17.3-27-25.8l-.7-.7.3-.9c3.5-11.8 6.7-23.7 10-35.5s6.5-23.7 9.7-35.5l9.5-35.7 9.3-35.7 3.7 3.7-4.5 1.3-6.9 2.1 3.5-6.5.3-.5.7-1.2 1.5-.3 40.6-8.5c13.6-2.8 27.2-5.6 40.6-8.4l81.5-16.4 2.1-.4 1.7 1.3 56.6 41.8c18.8 14.1 37.7 28 56.3 42.2 18.8 14.1 37.4 28.2 56 42.6 18.6 14.2 37.3 28.5 55.8 42.9l2.1 1.6-.7 2.4-9.5 35.5-9.6 35.4c-3.2 11.8-6.5 23.6-9.7 35.3-3 12-6.4 23.7-9.7 35.4zm-.9-.5c2.5-12 5.2-24 7.9-35.9s5.2-24 8-35.8l8.1-35.7 8.3-35.5 1.5 4c-19-13.7-37.9-27.6-56.8-41.4-18.9-13.8-37.8-27.8-56.7-41.7-18.9-13.8-37.7-28.1-56.4-42.1l-56.2-42.5 3.9.9-81.6 15c-13.6 2.5-27.3 4.9-40.9 7.3l-40.9 7.2 2.1-1.6-.3.5-3.6-4.4 4.5-1.2 5.2-1.5-1.5 5.1-20.9 70.7c-3.5 11.8-6.9 23.6-10.3 35.4-3.3 11.8-6.8 23.6-10 35.4l-.4-1.6c9.1 8.5 18.1 17 27.3 25.4 9.2 8.5 18.4 16.9 27.6 25.2l55.2 50.2-3.2-1.1c9.7-1.5 19.4-3.1 29.2-4.4 9.7-1.5 19.4-2.9 29.2-4.3s19.4-2.8 29.2-4l29.3-3.9c19.4-2.7 39-5.1 58.4-7.6l29.3-3.6 29.3-3.5 2.1-.3.9 1.7c6.7 12.4 13.3 24.9 19.8 37.3 6.7 12.5 13.2 24.9 19.6 37.5l-1.3-.1 5.1-5.1z" class="st43"/>
</svg>
