<svg xmlns="http://www.w3.org/2000/svg" xml:space="preserve" id="Layer_1" x="0" y="0" style="enable-background:new 0 0 2000 2000" version="1.1" viewBox="0 0 2000 2000">
  <style>
    .st192{fill:#88a5b6}.st203{fill:#eff8f9}.st217{fill:#5a7db0}
  </style>
  <linearGradient id="SVGID_2_" x1="500.912" x2="950.766" y1="1419.665" y2="1419.665" gradientUnits="userSpaceOnUse">
    <stop offset="0" style="stop-color:#c8d2d6"/>
    <stop offset=".994" style="stop-color:#d9d3dd"/>
  </linearGradient>
  <path d="m928.9 1539.9-91-22.6 18.4 14.5 14 28.9-74.2-20.8-27.5-4.9-267.7-47.8 47.2-64.5 10.2-89.1 2-18 127.4-36.9-14.4 51.4-15.5 55.2 20.9 19.7 60.7 57.3 175.6-24 35.8 63.8-42.4-3.3 10 6.3z" style="fill:url(#SVGID_2_)"/>
  <path d="m768.6 1535-267.7-47.8 47.2-64.5 10.2-89.1 120-54.9 10.3-3.3-30.8 109.9 20.9 19.7h-12.9l8.5 83.3z" class="st192"/>
  <linearGradient id="SVGID_3_" x1="804.949" x2="928.91" y1="1521.93" y2="1521.93" gradientUnits="userSpaceOnUse">
    <stop offset="0" style="stop-color:#aea9ae"/>
    <stop offset="1" style="stop-color:#9bc2db"/>
  </linearGradient>
  <path d="m837.9 1517.3-33-13.3h51.8l72.2 35.9z" style="fill:url(#SVGID_3_)"/>
  <linearGradient id="SVGID_5_" x1="855.899" x2="950.775" y1="1488.323" y2="1488.323" gradientUnits="userSpaceOnUse">
    <stop offset="0" style="stop-color:#aea9ae"/>
    <stop offset="1" style="stop-color:#9bc2db"/>
  </linearGradient>
  <path d="m908.4 1498.8-15.3-10.5-37.2-13.7 47.4 2 47.5 25.5z" style="fill:url(#SVGID_5_)"/>
  <linearGradient id="SVGID_6_" x1="849.81" x2="1144.054" y1="1497.143" y2="1497.143" gradientUnits="userSpaceOnUse">
    <stop offset="0" style="stop-color:#aea9ae"/>
    <stop offset="1" style="stop-color:#9bc2db"/>
  </linearGradient>
  <path d="m979.1 1371.5-29.3 117.6-39.8 48.4-27.3-.4-32.9 26.4 79.1 20.9H998l70 8.8 57.2 29.6-4-32.5-21.6-26.6 21.6 26.6 14.5 20.7 8.4-29.3-17.8-24.3-33.6-23.2-53.5 12.3-26.7-43.5 44.6-80.3z" style="fill:url(#SVGID_6_)"/>
  <linearGradient id="SVGID_7_" x1="195.005" x2="1668.662" y1="1019.027" y2="1019.027" gradientUnits="userSpaceOnUse">
    <stop offset="0" style="stop-color:#c8d2d6"/>
    <stop offset=".994" style="stop-color:#d9d3dd"/>
  </linearGradient>
  <path d="m1668.7 1168-50.4 70.5-3.7-38.5 8.3-28.3-56.5-48.4-67.2 2.7-45.2 63.3 42.5 38.8 40.4-48.3 10.7-33.4 18 41.8-45.9 64.5-15.1 21.1-96.7-18.8-57.7 35.1-84.8 177.3-166.7 2.7L807 1255.7l-122.5 23.6-75.2 137.6-30.5 73.3 164.8 47.6 112.3 37.4 15.8 31.8-42.4-3.3 10 6.3 10.5 34.8-91-22.6 18.4 14.5 14 28.9-74.2-20.8-295.2-52.7 47.2-64.5-10.9-101-70.7-94.1-55-53.5-46.5 15.1-49.7-30.7-41.2-58.8 54.3 20.9-37.6-26.9-13.4-143.1 59.1 75.9-32.3-59.2 83.4-96.7v118.2l22 83.4 51.9 62 75.7 24.8 44.9-14.1 31.3-166.8 212.3-102.2 197 132.7.2.2 48.5 32.7 68.8 33.4 40.3-45.7-40.3-188.2-91.4 24.2L826 946.9l166.3-58.1-123 25.8L661.7 840 916 800.8H725.1L534.3 677.1h392.4l14.4-11.1-35.1-16.4-46.9-68.7 103.2 25.8 46.9-14.7 17.8-7.8 33.1-50.8 213.7-40.6 107.2-41.5 48.3-60.1 41-18.7 32.7 23 48.3-12.5 21 10.9-8.5 73.5-40.4 37.7 18.1 58.6-31.5 48.9-3.4-32.9-12.7-15.5-74.2 55.2-10.9 8.1-60.1 111.4L1411 707l74.6-6.6-5.2 49.3-43 32.3 32.3 13.4-12 65.6-76.7 93-8.1 126.3-53.7-96.8 10.7-94.7-67.1 21 11 70-18.5-8.8 15.7 87.4 25.5 93.6 32.2 41.4 32.4-19.9 81.7-172.5h142.5l2.6 76.6-44.2-5.9-4.1-26.3-55.3 18.4 59.4 7.9v.1l.3 1.6 43.9 4.2z" style="fill:url(#SVGID_7_)"/>
  <path d="m1587.9 1077.6-43.9-4.2-.3-1.7z" style="fill:#3e853f"/>
  <path d="m1411 563.9 8.7 55.5-10.9 8.1-60.1 111.4-139.5 61.9-12.6-14 23.5-89.9 162.2-140.3z" class="st192"/>
  <path d="m1523.4 505.1-31.7 26.1 24.8 34.8-6.5 46.6-3.4-32.9-12.7-15.5-74.2 55.2 36.9-76-14.5-31.7 5.3-34.9 25.3-21.6 21.9 21.6 30.1-20.5 20.3 18.3 18.8-7.2z" class="st192"/>
  <linearGradient id="SVGID_8_" x1="534.261" x2="915.956" y1="738.942" y2="738.942" gradientUnits="userSpaceOnUse">
    <stop offset="0" style="stop-color:#bac8de"/>
    <stop offset=".721" style="stop-color:#ecf8fe"/>
  </linearGradient>
  <path d="m534.3 677.1 195.1 99.5L916 800.8H725.1z" style="fill:url(#SVGID_8_)"/>
  <linearGradient id="SVGID_9_" x1="661.676" x2="992.276" y1="877.328" y2="877.328" gradientUnits="userSpaceOnUse">
    <stop offset="0" style="stop-color:#bac8de"/>
    <stop offset=".721" style="stop-color:#ecf8fe"/>
  </linearGradient>
  <path d="m661.7 840 209.4 48.8h121.2l-123 25.8z" style="fill:url(#SVGID_9_)"/>
  <linearGradient id="SVGID_10_" x1="825.989" x2="1061.099" y1="958.005" y2="958.005" gradientUnits="userSpaceOnUse">
    <stop offset="0" style="stop-color:#bac8de"/>
    <stop offset=".721" style="stop-color:#ecf8fe"/>
  </linearGradient>
  <path d="m826 946.9 142.2 5.4 92.9-6.4-91.4 24.2z" style="fill:url(#SVGID_10_)"/>
  <linearGradient id="SVGID_11_" x1="1355.799" x2="1480.433" y1="780.393" y2="780.393" gradientUnits="userSpaceOnUse">
    <stop offset="0" style="stop-color:#aea9ae"/>
    <stop offset="1" style="stop-color:#9bc2db"/>
  </linearGradient>
  <path d="m1355.8 811.1 62.3-47.9 62.3-13.5-43 32.3-17.7-5.8z" style="fill:url(#SVGID_11_)"/>
  <linearGradient id="SVGID_12_" x1="943.544" x2="1295.428" y1="709.262" y2="709.262" gradientUnits="userSpaceOnUse">
    <stop offset="0" style="stop-color:#aea9ae"/>
    <stop offset="1" style="stop-color:#9bc2db"/>
  </linearGradient>
  <path d="m1295.4 598.6-109 87.9-111.3 133.4-131.6-19.1 111.7-8.6 115.1-136.9z" style="fill:url(#SVGID_12_)"/>
  <linearGradient id="SVGID_13_" x1="859.063" x2="997.392" y1="623.408" y2="623.408" gradientUnits="userSpaceOnUse">
    <stop offset="0" style="stop-color:#bac8de"/>
    <stop offset=".721" style="stop-color:#ecf8fe"/>
  </linearGradient>
  <path d="m859.1 580.9 59 58.7 79.3-3.6-56.3 30-35.1-16.4z" style="fill:url(#SVGID_13_)"/>
  <path d="m1200 549.8-85.4 32.2-53.5 16.6 28.2 48.8 73-3.5 97.8-94.1-99.5 89.4h-66.1l-19.2-35.4 43.6-12.2z" class="st192"/>
  <path d="M1245.3 556.6h-46.2l-74.1 37.7-40.1 12.2 13.1 26.1h62.6z" class="st203"/>
  <linearGradient id="SVGID_14_" x1="1166.502" x2="1226.23" y1="583.987" y2="583.987" gradientUnits="userSpaceOnUse">
    <stop offset="0" style="stop-color:#fff568"/>
    <stop offset=".606" style="stop-color:#fff68b"/>
  </linearGradient>
  <path d="m1166.7 577.9 16.1-8.4 16.1-8.3.1-.1h.1l26 2.8 1.1.1-.8.7-10.9 10.6-10.9 10.6c-7.3 7-14.6 14-22 21 7.1-7.2 14.3-14.4 21.4-21.5l10.8-10.7 10.8-10.6.3.9-26-2.9h.2l-16.3 8-16.1 7.8z" style="fill:url(#SVGID_14_)"/>
  <linearGradient id="SVGID_15_" x1="997.392" x2="1312.437" y1="576.936" y2="576.936" gradientUnits="userSpaceOnUse">
    <stop offset="0" style="stop-color:#aea9ae"/>
    <stop offset="1" style="stop-color:#9bc2db"/>
  </linearGradient>
  <path d="m1312.4 534.5-77.1-16.6-174.2 67.3-63.7 50.8 65.6-41.4 46.2-16.2 86.7-30.2z" style="fill:url(#SVGID_15_)"/>
  <linearGradient id="SVGID_16_" x1="1062.883" x2="1061.099" y1="948.173" y2="948.173" gradientUnits="userSpaceOnUse">
    <stop offset="0" style="stop-color:#3a7c3b"/>
    <stop offset="1" style="stop-color:#2e6431"/>
  </linearGradient>
  <path d="m1062.9 949.7-.8.7-1-4.5z" style="fill:url(#SVGID_16_)"/>
  <linearGradient id="SVGID_17_" x1="588.717" x2="1099.585" y1="1320.659" y2="1320.659" gradientUnits="userSpaceOnUse">
    <stop offset="0" style="stop-color:#aea9ae"/>
    <stop offset="1" style="stop-color:#9bc2db"/>
  </linearGradient>
  <path d="m1099.6 1456-287.1-218.9-141.9 36.4-81.9 153.1 47.8-166 161.9-75.2z" style="fill:url(#SVGID_17_)"/>
  <linearGradient id="SVGID_18_" x1="1218.911" x2="1328.723" y1="1149.156" y2="1149.156" gradientUnits="userSpaceOnUse">
    <stop offset="0" style="stop-color:#aea9ae"/>
    <stop offset="1" style="stop-color:#9bc2db"/>
  </linearGradient>
  <path d="m1328.7 1193.4-60 30.2-49.6-61.1-.2-87.8 42.5 81.7 40 2z" style="fill:url(#SVGID_18_)"/>
  <linearGradient id="SVGID_19_" x1="195.005" x2="458.054" y1="1315.586" y2="1315.586" gradientUnits="userSpaceOnUse">
    <stop offset="0" style="stop-color:#aea9ae"/>
    <stop offset="1" style="stop-color:#9bc2db"/>
  </linearGradient>
  <path d="m458.1 1426.6-70.7-94.1-55-53.5-46.5 15.1-49.7-30.7-41.2-58.8 51 51.6 42.5 20.9 43.1-5.9 83.7 53.6z" style="fill:url(#SVGID_19_)"/>
  <linearGradient id="SVGID_20_" x1="725.848" x2="849.81" y1="1626.832" y2="1626.832" gradientUnits="userSpaceOnUse">
    <stop offset="0" style="stop-color:#aea9ae"/>
    <stop offset="1" style="stop-color:#9bc2db"/>
  </linearGradient>
  <path d="m758.8 1622.2-33-13.3h51.8l72.2 35.9z" style="fill:url(#SVGID_20_)"/>
  <linearGradient id="SVGID_21_" x1="776.799" x2="871.675" y1="1593.225" y2="1593.225" gradientUnits="userSpaceOnUse">
    <stop offset="0" style="stop-color:#aea9ae"/>
    <stop offset="1" style="stop-color:#9bc2db"/>
  </linearGradient>
  <path d="m829.3 1603.7-15.3-10.5-37.2-13.7 47.4 2 47.5 25.5z" style="fill:url(#SVGID_21_)"/>
  <linearGradient id="SVGID_22_" x1="1265.385" x2="1519.666" y1="1349.076" y2="1349.076" gradientUnits="userSpaceOnUse">
    <stop offset="0" style="stop-color:#aea9ae"/>
    <stop offset="1" style="stop-color:#9bc2db"/>
  </linearGradient>
  <path d="m1519.7 1252.7-15.1 21.1-96.7-18.8-57.7 35.1-84.8 177.3 34.7-160.7 87.8-75.9 18.4 11 89.3 19.8z" style="fill:url(#SVGID_22_)"/>
  <linearGradient id="SVGID_23_" x1="1460.276" x2="1587.938" y1="1055.279" y2="1055.279" gradientUnits="userSpaceOnUse">
    <stop offset="0" style="stop-color:#aea9ae"/>
    <stop offset="1" style="stop-color:#9bc2db"/>
  </linearGradient>
  <path d="m1573.5 1038-104.5-5.1-8.6 27.8 83.4 11 44.2 5.8-14.5-39.5zm-89.2 25.8 55.2-18.4 4.1 26.3-59.3-7.9z" style="fill:url(#SVGID_23_)"/>
  <linearGradient id="SVGID_24_" x1="1454.013" x2="1626.867" y1="1172.654" y2="1172.654" gradientUnits="userSpaceOnUse">
    <stop offset="0" style="stop-color:#aea9ae"/>
    <stop offset="1" style="stop-color:#9bc2db"/>
  </linearGradient>
  <path d="m1626.9 1161-3.1 36.4-5.5 41.1-3.7-38.5 8.3-28.3-56.5-48.4-67.2 2.7-45.2 63.3 30.3-82.5 86.5 4.3z" style="fill:url(#SVGID_24_)"/>
  <path d="m1201.7 1004.3-31.9 163.3 54 89.7 118.9-71.9-88.2 45.4-62.6-85.3zM1295.4 780.4l115.1-63.5 69.9-6.7-4.5 23.3-67.6 5.4zM1428.7 786.8l3.7 64.8-89.7 89.7 111.3-84.9 9.6-55.6zM1375.7 959.1l-22 11 16.3 83.1 3.6-64.1zM1200.1 687l-45.2 131.9 6.9 32.7 81.4-45.3h-46.5l-13.5-15.9zM962.3 671.2c-2.5-1.9-27.7 30.8-27.7 30.8l-300.1-15 289.4-5.3 38.4-10.5zM689.9 840l247-39.2-39.2 26.7zM858.1 941.3l178.9-60.8-31.9 35zM1434.9 512.3l-25 5.6-11.5 14.6 32.4 17.3-3.6 39.8 23.5-46.2zM1500.6 528.2l27.6 33.3-10.1 33.1 18.8-32.4-15.2-49.9zM1470.5 378.3l-23.1 31.2 33 28.6-16.5-27.5 12.3-14 42.5 22.7 35.6-11.5 5.9 31.9 7.9-43.5-16.2-6.7-42.4 13.7zM203.2 1067.3l16.2 67.9 45 27.5zM203.2 1215.8l35.9 31.1 35.9-2.6zM300.6 989.4l-25.4 65.8 21.9 48.8zM1036.2 1218l-275.5-172.6-172 32.2 155.5-73.3 203.3 126.5zM1460.3 1071.7c10.3.7 20.6 1.7 30.8 2.8 10.3 1.1 20.5 2.3 30.7 3.6 10.2 1.3 20.4 2.8 30.6 4.2l15.3 2.3 15.2 2.4 1.7.3 1.3 1.3c6 6.2 12 12.4 17.9 18.6 3 3.1 5.9 6.2 8.9 9.4 2.9 3.1 5.9 6.3 8.8 9.4 11.7 12.6 23.3 25.4 34.6 38.4l1.8 2.1-1.2 2.1-6.6 10.8c-2.2 3.6-4.5 7.1-6.7 10.7-2.2 3.6-4.5 7.1-6.8 10.6s-4.6 7-7 10.5c1.6-3.9 3.3-7.8 5-11.6 1.7-3.9 3.4-7.7 5.2-11.5 1.8-3.8 3.5-7.7 5.3-11.5l5.4-11.4.6 4.1c-12.5-11.8-24.9-23.9-37-36.1-3.1-3-6.1-6.1-9.1-9.2-3-3.1-6-6.1-9-9.2-6-6.2-12-12.4-17.9-18.6l3 1.6-15.2-2.8-15.2-2.9c-10.1-2-20.2-4-30.3-6.1-10.1-2.1-20.1-4.4-30.2-6.7-9.9-2.4-20-4.8-29.9-7.6zM1442.3 1045.4c0-.8.2-1.5.4-2.3.2-.7.5-1.5.7-2.2.5-1.5 1.1-2.9 1.7-4.3 1.2-2.8 2.4-5.6 3.7-8.4 1.3-2.7 2.7-5.5 4.1-8.2 1.4-2.7 2.8-5.4 4.3-8l.8-1.6 2.3-.2c9.6-.6 19.1-1.1 28.7-1.4 9.6-.3 19.1-.4 28.7-.4 9.6 0 19.1.2 28.7.5 9.6.3 19.1.8 28.7 1.5l2.9.2.5 2.3c.5 2.7 1 5.3 1.5 8s1 5.3 1.4 8c.5 2.7.8 5.4 1.2 8.1.4 2.7.7 5.4 1.1 8.1-1.1-2.5-2.2-5-3.2-7.5s-2.1-5-3-7.6c-1-2.5-1.9-5.1-2.9-7.6-.9-2.6-1.9-5.1-2.8-7.7l3.4 2.6c-9.6.7-19.1 1.2-28.7 1.5-9.6.3-19.1.5-28.7.5-9.6 0-19.1-.1-28.7-.4-9.6-.3-19.1-.7-28.7-1.4l3.1-1.7-10.8 14.5-5.4 7.3-2.6 3.7c-.4.6-.9 1.2-1.2 1.9-.6.8-1 1.4-1.2 2.2zM1548.4 1152.3c1.1 2.8 2.1 5.5 3.1 8.3l3 8.4c1 2.8 1.9 5.6 2.8 8.4l2.7 8.4.4 1.4-1.1 1.5c-3.7 5.1-7.5 10.1-11.3 15.1l-5.7 7.5-5.8 7.4c-3.9 4.9-7.8 9.8-11.8 14.7-3.9 4.9-8 9.7-12 14.5l-1.6 2h-2.6l-11.3-.1-11.3-.1c-3.8 0-7.5-.2-11.3-.2-3.8-.1-7.5-.2-11.3-.4l-1.7-.1-1.1-.8c-4.2-3.3-8.4-6.6-12.6-10-4.2-3.4-8.3-6.8-12.4-10.2-4.1-3.4-8.2-6.9-12.2-10.5-4-3.6-8-7.1-11.9-10.9 4.7 2.6 9.4 5.3 14 8 4.6 2.8 9.2 5.6 13.7 8.4 4.5 2.8 9.1 5.7 13.5 8.7 4.5 2.9 8.9 5.9 13.4 8.9l-2.8-.9c3.8-.1 7.5-.3 11.3-.4 3.8-.1 7.5-.2 11.3-.2l11.3-.1 11.3-.1-4.2 2c4.1-4.8 8.1-9.6 12.2-14.3 4.1-4.8 8.2-9.5 12.4-14.2l6.3-7 6.3-7c4.3-4.6 8.5-9.2 12.9-13.8l-.7 2.9-1.5-8.7c-.5-2.9-1-5.8-1.4-8.8-.5-2.9-.9-5.9-1.3-8.8-.2-3-.6-6-1-8.9z" class="st203"/>
  <linearGradient id="SVGID_25_" x1="943.838" x2="1342.654" y1="1031.44" y2="1031.44" gradientUnits="userSpaceOnUse">
    <stop offset="0" style="stop-color:#aea9ae"/>
    <stop offset="1" style="stop-color:#9bc2db"/>
  </linearGradient>
  <path d="M1342.7 851.6v37.2l-23.5 94.7 10.7-94.7-67.1 21 11 70-16.7-9.7 13.9 88.3-48.5-88.3-47.8 12-55.2 76.4 9.1 87.9-12.5 50.6-63.4 14.3-108.9-97.6 48.5 32.7 68.8 33.4 40.3-45.7-39.4-190.4 35.2-3.5 17.2 50.9 50.7-127.1z" style="fill:url(#SVGID_25_)"/>
  <path d="m996.9 1442.2 29 24.8-20.2 37.7 27.8 44.9-58.4-48.4zM1064 1549.6l22.8 2.4 34.4 38.3v24.5l-8.3-23.2-33.3-34.5z" class="st203"/>
  <path d="M1075.1 1541.2h23l27.6 18.5 14.9 22.5-4.5 17.8-7.9-22.2-7-12-29.8-18.8zM567.5 1396.5l-32.2 125.4 241.5 42.5-203.6-68.5zM720.9 1613.2l26.2 13.6 27.6 23.4-15.9-28zM770.4 1585.8l26.2 13.6 27.6 23.4-15.9-28zM814.9 1566.3l26.1 13.6 27.7 23.4-15.9-28zM804.9 1516.5l26.2 13.6 27.6 23.4-15.9-28zM875.7 1481.9l19 26.6 25.4 16.7-7.7-21.2zM874.3 1447.3l28.3 3.9 27.6 23.4-18.4-32.4z" class="st203"/>
  <linearGradient id="SVGID_26_" x1="1259.315" x2="1051.154" y1="1436.271" y2="1436.271" gradientUnits="userSpaceOnUse">
    <stop offset="0" style="stop-color:#aea9ae"/>
    <stop offset="1" style="stop-color:#9bc2db"/>
  </linearGradient>
  <path d="m1259.3 1458.4-208.1-44.2 48.4 41.8z" style="fill:url(#SVGID_26_)"/>
  <path d="m1476.9 401.8-8.4 9.7 14.2 17 22.8-12zM1543.5 433.4l10.3-8.6-2.3-11.1-22 6.5z" class="st192"/>
  <path d="m1587.8 1078-43.9-4h-.4l-.1-.4-.3-1.7v-.1l.4.4-59.4-7.7-3.1-.4 2.9-1 55.2-18.6 1-.3.2 1 4.2 26.3-.8-.8 44.3 5.8-1.2 1.1-2.9-76.6 1.3 1.2-142.5.3 1.4-.9-81.3 172.6-.2.5-.5.3-32.4 20-1.5 1-1.1-1.4-32.3-41.4-.3-.3-.1-.4-25.6-93.5v-.2l-15.8-87.4-.8-4.7 4.3 2 18.5 8.8-3.5 2.6-11.1-70-.3-2.2 2.1-.7 67-21 3.9-1.2-.5 4-10.6 94.7-.3-1.7 53.9 96.7-5.4 1.2 8-126.3.1-1 .6-.8 76.6-93.1-.7 1.4 11.9-65.6 1.9 3.5-32.3-13.4-5.2-2.1 4.5-3.4 43-32.3-1.3 2.2 5.2-49.3 3.5 3.6-74.6 6.6 1.2-.3-62.3 32-9.5 4.9 5.1-9.4 60-111.4.4-.7.6-.4 85-63.4 2.6-1.9 2.1 2.5 12.7 15.4.7.8.1 1 3.4 32.9-6.3-1.5 31.5-48.9-.4 2.8-18-58.6-.6-2 1.6-1.4 40.3-37.6-1.1 2.1 8.5-73.5 1.8 3.4-20.9-11 2.4.3-48.3 12.5-1.5.4-1.3-.9-32.7-23 3.3.3-41 18.6 1.2-.9-48.4 60.1-.5.7-.8.3-107.2 41.4-.3.1-.3.1-213.9 40.3 1.8-1.2-33.1 50.8-.4.7-.7.3-17.8 7.8-.1.1h-.1l-46.9 14.6-.7.2-.7-.2-103.2-26 2.5-3.6 46.8 68.9-.9-.8L942 664l3.2 1.5-2.8 2.2-14.4 11.1-.6.4h-.7l-392.4-.6.8-2.7 190.7 123.8-.7-.2 190.8.1.2 2.4-254.3 39.3.2-2.3 207.7 74.5h-.7l123-26 .7 2.6-166.2 58.2-.3-2.9 143.8 23h-.7l91.4-24.3 1.8-.5.4 1.9 40.6 188.1.2 1-.7.8-40.3 45.7-1.1 1.2-1.5-.7-68.9-33.3-.1-.1-.1-.1-245.9-165 2.7.2-212.2 102.4 1.7-2.2-31.1 166.8-.4 1.9-1.8.6-45 14.1-1 .3-1-.3-75.7-24.7-.9-.3-.6-.7-52-61.9-.5-.6-.2-.7-22.1-83.4-.1-.4v-.4l.1-118.3 6.2 2.3-83.3 96.8.4-4.1 32.3 59.1-6 4-59.2-75.8 6.6-2.6 13.5 143-1.6-2.7 37.7 26.9 24.3 17.3L248 1229l-54.4-20.9 4.5-5.8 41.2 58.8-1.1-1.1 49.7 30.7-3.2-.4 46.6-15.1 2.2-.7 1.7 1.6 55 53.4.2.2.2.2 70.7 94.1.7.9.1 1.1 11 101 .2 1.6-.9 1.3-47.2 64.6-2.6-6.4 295.2 52.6h.2l.2.1 74.2 20.8-4.7 5.7-14-28.9 1.1 1.4-18.5-14.5-14.7-11.6 18.2 4.5 91 22.6-4.8 5-10.5-34.8 1.7 2.2-10-6.3-13.5-8.5 15.9 1.2 42.4 3.3-3.8 5.7-15.7-31.8 2.3 2-88.5-29.5-22.1-7.4c-1.8-.7-3.7-1.1-5.6-1.7l-5.6-1.6-11.2-3.2-44.8-12.9 1.7-7.4 118.1 21.1h.4l61.6 17.3 6.9 1.9-5.6 4.5-7.9 6.3-1.4-6.4 79.1 21-.9-.1 69.1.1h.4l70 8.9.6.1.5.3 57.2 29.6-5 3.5-4-32.5-1.7-13.6 7.8 11.2 14.4 20.7-6 1 8.4-29.3.5 2.9-17.7-24.3.8.8-33.5-23.2 2.6.5-53.5 12.2-2.2.5-1.2-2-26.7-43.5-1-1.6.9-1.6 37.2-66.7 1.6-2.9 2.8 1.9 49.1 33.9-1.7-.5 166.7-2.5-2.4 1.6 85.1-177.1.3-.7.6-.4 57.7-35 .8-.5.9.2 96.7 19-2.2.9 61.2-85.6-.2 1.9-17.9-41.8 3.6-.2-10.8 33.4-.1.3-.2.3-40.4 48.3-1.2 1.4-1.3-1.2-42.4-38.9-1-1 .8-1.1 45.4-63.2.4-.6h.7l67.2-2.5h.5l.4.3 56.3 48.5.5.5-.2.7-8.3 28.3v-.4l3.6 38.5-1.7-.5 50.5-70.4v.9l-80.5-90.5zm.3-.7 81.1 90.3.4.4-.3.5-50.2 70.6-1.4 2-.2-2.5-3.8-38.5v-.2l.1-.2 8.2-28.3.3 1.1-56.6-48.3.9.3-67.2 2.8 1.1-.6-45.1 63.4-.2-2.1 42.6 38.7-2.5.2 40.2-48.5-.3.6 10.7-33.4 1.5-4.8 2 4.6 18.1 41.8.4 1-.6.9-60.9 85.8-.8 1.1-1.4-.3-96.8-18.7 1.7-.3-57.6 35.2.9-1-84.6 177.4-.7 1.5h-1.7l-166.6 2.9h-.9l-.8-.5-49.2-33.7 4.4-1-37 66.8-.1-3.2 26.8 43.4-3.4-1.4 53.5-12.3 1.4-.3 1.2.8 33.6 23.1.5.3.3.5 17.8 24.3 1 1.3-.4 1.6-8.3 29.3-1.9 6.8-4.1-5.8-14.5-20.6 6.2-2.4 4 32.5.8 6.4-5.8-3-57.2-29.5 1.2.4-70-8.8h.4l-69.1.1h-.5l-.5-.1-79.1-20.8-7-1.9 5.7-4.6 7.9-6.3 1.3 6.4-61.6-17.2.4.1-118.1-21 1.7-7.4 44.9 12.9 11.2 3.2 5.6 1.6c1.9.6 3.8 1 5.6 1.7l22.2 7.4 88.6 29.5 1.5.5.7 1.5 15.7 31.8 3.1 6.2-6.9-.5-42.4-3.2 2.4-7.3 10 6.3 1.3.8.4 1.4 10.5 34.7 2 6.7-6.8-1.7-91.1-22.5 3.4-7.1 18.5 14.5.7.6.4.8 14 28.8 3.9 8.1-8.6-2.4-74.2-20.8.4.1-295.2-52.7-6.4-1.1 3.8-5.2 47.2-64.5-.8 2.8-10.9-101 .8 2-70.6-94.2.4.5-54.9-53.4 3.9.9-46.6 15-1.7.6-1.5-.9-49.7-30.7-.7-.4-.5-.7-41.2-58.9-7.2-10.3 11.7 4.5 54.3 20.9-3.6 6.6-37.6-26.9-1.4-1-.2-1.7-13.4-143.1-1.2-12.5 7.7 9.9L260 1129l-6 4-32-59-1.2-2.2 1.6-1.9 83.4-96.7 6.2-7.2v9.5l-.1 118.3-.1-.9 21.9 83.4-.7-1.3 51.9 62-1.5-1 75.7 24.8h-2l45-14.1-2.2 2.5 31.4-166.7.3-1.5 1.4-.7 212.5-101.9 1.4-.7 1.3.9 245.4 165.9-.3-.2 68.8 33.5-2.6.5 40.4-45.6-.5 1.8-40.1-188.2 2.2 1.4-91.4 24.1-.4.1-.4-.1-143.7-23.4-5.8-1 5.6-1.9 166.3-57.9.7 2.6-123 25.7-.3.1-.3-.1-207.6-74.7-4.3-1.6 4.5-.7 254.3-39.3.2 2.4H724.7l-.3-.2-191-123.4-4.2-2.7h5.1l392.4-.6-1.3.4 14.4-11.2.4 3.7-35.2-16.3-.6-.3-.3-.5-47-68.7-3.5-5.1 6 1.5 103.3 25.7h-1.4l46.9-14.8-.3.1 17.8-7.9-1.1 1 33-50.9.6-1 1.1-.2 213.7-40.9-.5.2 107.1-41.6-1.3 1 48.3-60.2.5-.6.7-.3 41-18.7 1.7-.8 1.5 1.1 32.7 23-2.8-.5 48.3-12.5 1.3-.3 1.1.6 21 11 2.1 1.1-.3 2.3-8.5 73.5-.1 1.2-.9.8-40.3 37.6.9-3.5 18 58.6.5 1.5-.9 1.3-31.5 48.9-5.3 8.2-1-9.7-3.4-33 .8 1.8-12.7-15.4 4.7.6-85.1 63.3 1-1.1-60.1 111.4-4.4-4.5 62.3-31.9.6-.3.6-.1 74.6-6.6 3.9-.3-.4 3.9-5.2 49.3-.1 1.4-1.1.8-43 32.2-.7-5.5 32.2 13.5 2.4 1-.5 2.5-12.1 65.6-.1.8-.5.6-76.8 92.9.7-1.7-8.2 126.3-.6 9.8-4.8-8.6-53.6-96.8-.4-.8.1-.9 10.9-94.7 3.4 2.8-67.1 20.8 1.8-2.8 10.9 70.1.7 4.6-4.2-2-18.5-8.9 3.4-2.6 15.6 87.5v-.2l25.3 93.6-.4-.7 32.2 41.5-2.7-.5 32.5-19.9-.7.8 82-172.3.4-.9h1l142.5.3h1.2v1.2l2.5 76.6v1.3l-1.3-.2-44.2-6-.7-.1-.1-.7-4.1-26.4 1.2.7-55.3 18.2-.1-1.4 59.3 8.1h.4l.1.3v.1l.2 1.7-.5-.4 43.9 4.7z" class="st217"/>
  <path d="M882.8 1537.5c-1.3 1.5-2.6 2.9-3.9 4.3-1.3 1.4-2.5 2.7-3.8 4-2.5 2.6-5.1 5-7.7 7.4l-2.6 2.4-1.9-3.4c-1.7-3.1-3.4-6.2-5-9.3-1.6-3.1-3.1-6.3-4.4-9.6l.9 1.1c-1.4-1.3-2.9-2.7-4.3-4l-4.2-4.1c-1.4-1.4-2.8-2.7-4.3-4-1.4-1.3-2.9-2.6-4.4-3.8l-4.1-3.4 5.1 1.4c3.1.8 6.1 1.5 9.2 2.1 3.1.6 6.2 1.1 9.4 1.6l9.4 1.4c3.1.5 6.2 1.1 9.3 1.7 6.2 1.3 12.4 2.5 18.6 4 6.2 1.5 12.3 3.2 18.3 5.1l5.5 1.7-3.6 4-1.7 1.9-1.2 1.4-1.4-.1-6.6-.6c-2.2-.2-4.4-.5-6.7-.8-2.3-.3-4.5-.6-6.8-.9-2.4-.7-4.7-1.1-7.1-1.5zm-.3-.7c2.1-.4 4.4-.7 6.6-.9 2.2-.3 4.5-.5 6.8-.7 2.3-.2 4.6-.4 7-.6 2.3-.1 4.7-.3 7.1-.4l-2.7 1.2 1.5-2.1 1.9 5.7c-6.2-1.1-12.4-2.5-18.6-4.1-6.1-1.6-12.2-3.4-18.3-5.2-3-.9-6.1-1.8-9.1-2.8l-9-3.1c-3-1-6-2.1-9-3-3-.9-6.1-1.7-9.2-2.4l1-2c1.6 1.2 3.2 2.3 4.8 3.4 1.6 1.1 3.3 2.1 5 3.2l5 3.1c1.7 1 3.3 2.1 4.9 3.2l.4.3.5.8c1.8 3.1 3.3 6.2 4.8 9.4s2.9 6.4 4.3 9.7l-4.5-1c3.1-2.2 6.3-4.4 9.4-6.3 1.6-1 3.2-1.9 4.7-2.9 1.6-.9 3.2-1.7 4.7-2.5zM923.2 1521.7c-.6-.8-1.2-1.8-1.9-2.8-.7-1.1-1.5-2.3-2.2-3.7-.8-1.4-1.5-2.8-2.2-4.4-.7-1.5-1.3-3.1-1.8-4.7l1.4 1.9c-1.7-1-3.3-2.2-4.8-3.5-1.5-1.4-2.9-2.8-4.3-4.2l-5.2-4.9 6.2 1.7c2.6.7 5.2 1.1 7.8 1.1 2.6.1 5.3-.2 7.9-.5 2.7-.3 5.3-.5 7.9-.5h7.9l7.6.3-4.8 6.3c-1.5 2-3.2 3.9-4.9 5.7-1.8 1.8-3.6 3.4-5.4 5-1.8 1.5-3.5 2.9-5.1 4.1-1.4 1.1-2.8 2.2-4.1 3.1zm.2-.8c1.5-2.5 2.8-4.7 3.9-6.8l3.1-6c1-1.8 1.9-3.5 2.9-5.1 1-1.6 2.1-3 3.4-4.4l2.8 6.6c-2.6-.3-5.2-.8-7.8-1.2-2.6-.4-5.2-1-7.8-1.7-2.6-.7-5.2-1.4-7.8-1.7-2.6-.4-5.2-.4-7.9-.1l1-3.2c1.9.7 3.8 1.3 5.7 2.1 1.9.8 3.6 1.7 5.2 2.8l1.2.8.3 1.1c.3 1.1.5 2.2.7 3.4.2 1.2.2 2.4.3 3.7.1 1.3.1 2.8.2 4.4.1 1.7.3 3.4.6 5.3zM950.1 1489.3l-3.6 4.8-.5.7-.5-.8c-5.5-9-11-18.1-16.4-27.2-5.4-9.1-10.8-18.2-16.2-27.4l2.3 1.1-21.9 3.4-21.9 3.3c-14.6 2.2-29.2 4.3-43.8 6.4l-21.9 3.1-21.9 3c-7.3 1-14.6 1.9-22 2.8-7.3.9-14.7 1.8-22 2.7l-1.4.2-1-.9-40-39.3c-6.7-6.6-13.3-13.1-20.1-19.6-6.7-6.5-13.5-13-20.3-19.4l-.5-.5.2-.7c2.6-8.9 5-17.8 7.5-26.7 2.5-8.9 4.9-17.8 7.3-26.7l7.1-26.8 7-26.8 2.8 2.8-3.4 1-5.2 1.6 2.6-4.9.2-.4.5-.9 1.1-.2 30.5-6.4c10.2-2.1 20.4-4.2 30.5-6.3l61.2-12.3 1.6-.3 1.3 1 42.5 31.4c14.1 10.6 28.3 21 42.3 31.7 14.1 10.6 28.1 21.2 42.1 32 14 10.7 28 21.4 41.9 32.2l1.6 1.2-.5 1.8-7.1 26.7-7.2 26.6c-2.4 8.9-4.9 17.7-7.3 26.5-2.5 8.9-5 17.7-7.5 26.5zm-.7-.4c1.9-9 3.9-18 5.9-27 2-9 3.9-18 6-26.9l6.1-26.8 6.2-26.7 1.1 3c-14.3-10.3-28.5-20.7-42.7-31.1-14.2-10.4-28.4-20.9-42.6-31.3-14.2-10.4-28.3-21.1-42.4-31.6l-42.2-31.9 2.9.7-61.3 11.3c-10.2 1.9-20.5 3.7-30.7 5.5l-30.7 5.4 1.6-1.2-.2.4-2.7-3.3 3.4-.9 3.9-1.1-1.1 3.8-15.7 53.1c-2.6 8.9-5.2 17.7-7.7 26.6-2.5 8.9-5.1 17.7-7.5 26.6l-.3-1.2c6.8 6.4 13.6 12.8 20.5 19.1 6.9 6.4 13.8 12.7 20.7 18.9l41.5 37.7-2.4-.8c7.3-1.1 14.6-2.3 21.9-3.3 7.3-1.1 14.6-2.2 21.9-3.2 7.3-1 14.6-2.1 21.9-3l22-2.9c14.6-2 29.3-3.8 43.9-5.7l22-2.7 22-2.6 1.6-.2.7 1.3c5 9.3 10 18.7 14.9 28 4.9 9.4 9.9 18.7 14.7 28.2l-1-.1 3.9-4.1z" class="st217"/>
</svg>
