<svg xmlns="http://www.w3.org/2000/svg" xml:space="preserve" id="Layer_1" x="0" y="0" style="enable-background:new 0 0 2000 2000" version="1.1" viewBox="0 0 2000 2000">
  <style>
    .st4{fill:#a2822e}.st51{fill:#9a732b}.st52{fill:#77682a}
  </style>
  <linearGradient id="SVGID_3_" x1="431.45" x2="1031.694" y1="466.947" y2="466.947" gradientTransform="matrix(1 0 0 -1 0 2000)" gradientUnits="userSpaceOnUse">
    <stop offset="0" style="stop-color:#d4c229"/>
    <stop offset=".556" style="stop-color:#d4c229"/>
    <stop offset=".869" style="stop-color:#d1aa2c"/>
  </linearGradient>
  <path d="M1002.6 1693.5 881 1663.3l24.7 19.3 18.7 38.6-99-27.7-36.7-6.6-357.2-63.8 62.9-86 13.5-118.9 2.8-24.1 170-49.2-19.2 68.6-20.7 73.6 27.9 26.3 81 76.5 234.2-32 47.8 85.1-56.5-4.4 13.4 8.4z" style="fill:url(#SVGID_3_)"/>
  <path d="m788.7 1686.9-357.2-63.8 62.9-86 13.5-118.9 160.2-73.3 13.8-4.4-41.1 146.6 27.9 26.3h-17.2l11.3 111.2zM881 1663.3l-43.9-17.8h69.2l96.3 48zM975.2 1638.6l-20.5-14-49.5-18.3 63.2 2.7 63.3 34z" class="st4"/>
  <linearGradient id="SVGID_4_" x1="1093.346" x2="1093.346" y1="195.917" y2="531.269" gradientTransform="matrix(1 0 0 -1 0 2000)" gradientUnits="userSpaceOnUse">
    <stop offset="0" style="stop-color:#d4c229"/>
    <stop offset=".869" style="stop-color:#cb9e20"/>
  </linearGradient>
  <path d="m1069.5 1468.7-39 157-53.3 64.6-36.4-.6-43.8 35.2 105.6 27.9h92.2l93.4 11.8 76.4 39.5-5.4-43.4-28.9-35.5 28.9 35.5 19.4 27.6 11-39.1-23.6-32.4-44.8-31-71.4 16.5-35.6-58.1 59.3-107.1z" style="fill:url(#SVGID_4_)"/>
  <linearGradient id="SVGID_5_" x1="23.237" x2="1989.707" y1="1001.601" y2="1001.601" gradientTransform="matrix(1 0 0 -1 0 2000)" gradientUnits="userSpaceOnUse">
    <stop offset="0" style="stop-color:#d4c229"/>
    <stop offset=".556" style="stop-color:#d4c229"/>
    <stop offset=".869" style="stop-color:#d1aa2c"/>
  </linearGradient>
  <path d="m1989.7 1197.2-67.1 94-5-51.3 11-37.8-75.3-64.6-89.7 3.6-60.3 84.5 56.7 51.8 53.8-64.5 14.4-44.6 24.1 55.8-61.4 86.1-20 28.2-129.2-25.1-76.9 46.8-113.1 236.6-222.5 3.6-389.3-286.1-163.4 31.5-100.4 183.6-40.8 97.8 220 63.6 149.9 49.9 20.9 42.4-56.4-4.4 13.3 8.4 14 46.4-121.5-30.1 24.7 19.3 18.6 38.6-99-27.8-393.9-70.3 63-86.1-14.7-134.7-94.2-125.6-73.4-71.4-62.2 20.1-66.2-40.9-55-78.5 72.5 27.9-50.2-35.9-18-191 79 101.3-43.1-79 111.2-129V1098l29.3 111.3 69.3 82.7 101 33.1 60.1-18.8 41.6-222.6 283.4-136.3 262.8 177 .4.3 64.6 43.6 91.9 44.6 53.8-61-53.8-251.1-122 32.3-191.7-31 221.8-77.5-164 34.4-277.2-99.5 339.4-52.3H730.6L475.9 542.1h523.8l19.2-14.8-47-21.9-62.6-91.7 137.9 34.4 62.6-19.6 23.7-10.4 44.1-67.8 285.3-54.2 142.9-55.3 64.4-80.2 54.7-25 43.7 30.7 64.6-16.7 27.9 14.6-11.4 98-53.8 50.3 24.1 78.2-41.9 65.3-4.7-43.9-17-20.7-98.8 73.7-14.6 10.8-80.2 148.6 83.1-42.5 99.6-8.8-6.9 65.8-57.4 43.1 42.9 17.8-16 87.6-102.3 124.1-10.7 168.5-71.8-129.1 14.4-126.4-89.5 28 14.7 93.4-24.7-11.7 20.9 116.6 33.9 124.9 43.1 55.3 43.3-26.6 109-230.2h190l3.6 102.2-59-7.8-5.6-35.1-73.6 24.5 79.2 10.6v.1l.3 2.1 58.7 5.6z" style="fill:url(#SVGID_5_)"/>
  <path d="m1882 1076.5-58.7-5.6-.3-2.2z" style="fill:#3e853f"/>
  <path d="m1645.9 391 11.7 74.1-14.6 10.8-80.2 148.6-186.3 82.7-16.7-18.7 31.3-120 216.5-187.2zM1795.9 312.5l-42.3 34.9 33.1 46.4-8.6 62.2-4.7-43.9-17-20.7-98.8 73.7 49.2-101.4-19.3-42.3 6.9-46.6 33.8-28.8 29.2 28.8 40.1-27.4 27.1 24.4 25.1-9.6z" class="st4"/>
  <linearGradient id="SVGID_6_" x1="475.888" x2="985.254" y1="1375.386" y2="1375.386" gradientTransform="matrix(1 0 0 -1 0 2000)" gradientUnits="userSpaceOnUse">
    <stop offset="0" style="stop-color:#ccaf01"/>
    <stop offset="1" style="stop-color:#fff68b"/>
  </linearGradient>
  <path d="m475.9 542.1 260.5 132.8 248.9 32.3H730.6z" style="fill:url(#SVGID_6_)"/>
  <linearGradient id="SVGID_7_" x1="645.899" x2="1087.074" y1="1190.762" y2="1190.762" gradientTransform="matrix(1 0 0 -1 0 2000)" gradientUnits="userSpaceOnUse">
    <stop offset="0" style="stop-color:#ccaf01"/>
    <stop offset="1" style="stop-color:#fff68b"/>
  </linearGradient>
  <path d="m645.9 759.5 279.6 65.1h161.6l-164 34.4z" style="fill:url(#SVGID_7_)"/>
  <linearGradient id="SVGID_8_" x1="865.285" x2="1179.019" y1="1083.071" y2="1083.071" gradientTransform="matrix(1 0 0 -1 0 2000)" gradientUnits="userSpaceOnUse">
    <stop offset="0" style="stop-color:#ccaf01"/>
    <stop offset="1" style="stop-color:#fff68b"/>
  </linearGradient>
  <path d="m865.3 902.1 189.7 7.2 124-8.5-122 32.3z" style="fill:url(#SVGID_8_)"/>
  <path d="m1572.3 720.9 83.1-63.9 83.2-18-57.4 43.1-23.6-7.8z" class="st4"/>
  <linearGradient id="SVGID_9_" x1="1022.085" x2="1491.684" y1="1415.019" y2="1415.019" gradientTransform="matrix(1 0 0 -1 0 2000)" gradientUnits="userSpaceOnUse">
    <stop offset="0" style="stop-color:#bfa222"/>
    <stop offset=".27" style="stop-color:#bc9d24"/>
    <stop offset=".63" style="stop-color:#b19229"/>
    <stop offset="1" style="stop-color:#a2822e"/>
  </linearGradient>
  <path d="m1491.7 437.3-145.5 117.3-148.5 178-175.6-25.4 148.9-11.5L1324.7 513z" style="fill:url(#SVGID_9_)"/>
  <linearGradient id="SVGID_10_" x1="909.323" x2="1094.013" y1="1529.516" y2="1529.516" gradientTransform="matrix(1 0 0 -1 0 2000)" gradientUnits="userSpaceOnUse">
    <stop offset="0" style="stop-color:#ccaf01"/>
    <stop offset="1" style="stop-color:#fff68b"/>
  </linearGradient>
  <path d="m909.3 413.7 78.9 78.3 105.8-4.8-75.1 40.1-47-21.9z" style="fill:url(#SVGID_10_)"/>
  <path d="m1364.2 372.2-113.9 43-71.3 22.1 37.5 65.1 97.6-4.6 130.5-125.6-132.8 119.3h-88.2l-25.6-47.2 58.2-16.3z" class="st4"/>
  <linearGradient id="SVGID_11_" x1="1210.779" x2="1424.694" y1="1568.016" y2="1568.016" gradientTransform="matrix(1 0 0 -1 0 2000)" gradientUnits="userSpaceOnUse">
    <stop offset="0" style="stop-color:#ccaf01"/>
    <stop offset="1" style="stop-color:#fff68b"/>
  </linearGradient>
  <path d="M1424.7 381.3h-61.5l-98.9 50.3-53.5 16.3 17.5 34.8h83.5z" style="fill:url(#SVGID_11_)"/>
  <linearGradient id="SVGID_12_" x1="1319.63" x2="1399.335" y1="1582.161" y2="1582.161" gradientTransform="matrix(1 0 0 -1 0 2000)" gradientUnits="userSpaceOnUse">
    <stop offset="0" style="stop-color:#fff568"/>
    <stop offset=".606" style="stop-color:#fff68b"/>
  </linearGradient>
  <path d="m1319.9 409.7 21.5-11.2 21.5-11.1.1-.1h.1l34.7 3.7 1.5.1-1.1.9-14.5 14.1-14.5 14.1c-9.7 9.3-19.5 18.7-29.4 28 9.5-9.6 19.1-19.2 28.6-28.7l14.4-14.3 14.4-14.1.4 1.2-34.7-3.9h.3l-21.8 10.7-21.5 10.6z" style="fill:url(#SVGID_12_)"/>
  <path d="m1514.4 351.8-102.9-22.2-232.5 89.8-85 67.8 87.6-55.2 61.5-21.6 115.8-40.3z" class="st4"/>
  <linearGradient id="SVGID_13_" x1="1181.354" x2="1178.973" y1="1096.215" y2="1096.215" gradientTransform="matrix(1 0 0 -1 0 2000)" gradientUnits="userSpaceOnUse">
    <stop offset="0" style="stop-color:#3a7c3b"/>
    <stop offset="1" style="stop-color:#2e6431"/>
  </linearGradient>
  <path d="m1181.4 905.9-1.2.9-1.2-6z" style="fill:url(#SVGID_13_)"/>
  <linearGradient id="SVGID_14_" x1="548.616" x2="1230.396" y1="599.059" y2="599.059" gradientTransform="matrix(1 0 0 -1 0 2000)" gradientUnits="userSpaceOnUse">
    <stop offset="0" style="stop-color:#ccaf01"/>
    <stop offset="1" style="stop-color:#fff68b"/>
  </linearGradient>
  <path d="m1230.4 1581.5-383.3-292.1-189.2 48.6-109.3 204.3 63.7-221.6 216.2-100.3z" style="fill:url(#SVGID_14_)"/>
  <path d="M1184.3 1525.1 801 1232.9l-189.2 48.6-109.3 204.3 63.7-221.5 214.4-64.5z" class="st4"/>
  <linearGradient id="SVGID_15_" x1="1389.598" x2="1536.122" y1="827.987" y2="827.987" gradientTransform="matrix(1 0 0 -1 0 2000)" gradientUnits="userSpaceOnUse">
    <stop offset="0" style="stop-color:#d4c229"/>
    <stop offset=".869" style="stop-color:#cb9e20"/>
  </linearGradient>
  <path d="m1536.1 1231.1-80.2 40.3-66.2-81.6-.1-117.1 56.6 109 53.5 2.7z" style="fill:url(#SVGID_15_)"/>
  <linearGradient id="SVGID_16_" x1="23.237" x2="374.202" y1="605.865" y2="605.865" gradientTransform="matrix(1 0 0 -1 0 2000)" gradientUnits="userSpaceOnUse">
    <stop offset="0" style="stop-color:#ccaf01"/>
    <stop offset="1" style="stop-color:#fff68b"/>
  </linearGradient>
  <path d="M374.2 1542.3 280 1416.7l-73.4-71.4-62.2 20.1-66.2-40.9-55-78.5 68.1 68.9 56.7 27.9 57.5-7.9 111.6 71.5z" style="fill:url(#SVGID_16_)"/>
  <path d="m775.5 1803.3-43.9-17.8h69.1l96.3 47.9zM869.7 1778.6l-20.6-14-49.5-18.3 63.3 2.7 63.2 34z" class="st4"/>
  <linearGradient id="SVGID_17_" x1="1451.65" x2="1790.872" y1="561.16" y2="561.16" gradientTransform="matrix(1 0 0 -1 0 2000)" gradientUnits="userSpaceOnUse">
    <stop offset="0" style="stop-color:#ccaf01"/>
    <stop offset="1" style="stop-color:#fff68b"/>
  </linearGradient>
  <path d="m1790.9 1310.2-20 28.2-129.2-25.1-76.9 46.8-113.1 236.6 46.1-214.4 117.3-101.3 24.4 14.7 119.3 26.4z" style="fill:url(#SVGID_17_)"/>
  <linearGradient id="SVGID_18_" x1="1711.738" x2="1882.016" y1="953.36" y2="953.36" gradientTransform="matrix(1 0 0 -1 0 2000)" gradientUnits="userSpaceOnUse">
    <stop offset="0" style="stop-color:#ccaf01"/>
    <stop offset="1" style="stop-color:#fff68b"/>
  </linearGradient>
  <path d="m1862.7 1023.7-139.5-6.8-11.5 37.1 111.3 14.7 59 7.7-19.3-52.7zm-118.9 34.4 73.7-24.6 5.5 35.1-79.2-10.5z" style="fill:url(#SVGID_18_)"/>
  <linearGradient id="SVGID_19_" x1="1703.331" x2="1933.927" y1="796.627" y2="796.627" gradientTransform="matrix(1 0 0 -1 0 2000)" gradientUnits="userSpaceOnUse">
    <stop offset="0" style="stop-color:#ccaf01"/>
    <stop offset="1" style="stop-color:#fff68b"/>
  </linearGradient>
  <path d="m1933.9 1187.8-4 48.6-7.3 54.8-5-51.3 11-37.8-75.3-64.6-89.7 3.6-60.3 84.5 40.5-110.1 115.4 5.7z" style="fill:url(#SVGID_19_)"/>
  <linearGradient id="SVGID_20_" x1="1323.942" x2="1554.671" y1="852.475" y2="852.475" gradientTransform="matrix(1 0 0 -1 0 2000)" gradientUnits="userSpaceOnUse">
    <stop offset="0" style="stop-color:#fff568"/>
    <stop offset=".606" style="stop-color:#fff68b"/>
  </linearGradient>
  <path d="m1366.6 978.7-42.7 217.9 72.2 119.7 158.6-95.9-117.6 60.6-83.5-113.9z" style="fill:url(#SVGID_20_)"/>
  <linearGradient id="SVGID_21_" x1="1738.561" x2="1491.684" y1="1366.912" y2="1366.912" gradientTransform="matrix(1 0 0 -1 0 2000)" gradientUnits="userSpaceOnUse">
    <stop offset="0" style="stop-color:#fff568"/>
    <stop offset=".606" style="stop-color:#fff68b"/>
  </linearGradient>
  <path d="m1491.7 679.9 153.6-84.7 93.3-9-6.2 31.1-90.1 7.2z" style="fill:url(#SVGID_21_)"/>
  <linearGradient id="SVGID_22_" x1="1716.008" x2="1554.671" y1="1208.444" y2="1208.444" gradientTransform="matrix(1 0 0 -1 0 2000)" gradientUnits="userSpaceOnUse">
    <stop offset="0" style="stop-color:#fff568"/>
    <stop offset=".606" style="stop-color:#fff68b"/>
  </linearGradient>
  <path d="m1669.6 688.5 4.8 86.4-119.7 119.7 148.6-113.3 12.7-74.1z" style="fill:url(#SVGID_22_)"/>
  <linearGradient id="SVGID_23_" x1="1598.842" x2="1569.484" y1="1018.816" y2="1018.816" gradientTransform="matrix(1 0 0 -1 0 2000)" gradientUnits="userSpaceOnUse">
    <stop offset="0" style="stop-color:#ccaf01"/>
    <stop offset="1" style="stop-color:#fff68b"/>
  </linearGradient>
  <path d="m1598.8 918.4-29.3 14.7 21.7 110.9 4.8-85.6z" style="fill:url(#SVGID_23_)"/>
  <linearGradient id="SVGID_24_" x1="1304.192" x2="1421.892" y1="1334.884" y2="1334.884" gradientTransform="matrix(1 0 0 -1 0 2000)" gradientUnits="userSpaceOnUse">
    <stop offset="0" style="stop-color:#fff568"/>
    <stop offset=".606" style="stop-color:#fff68b"/>
  </linearGradient>
  <path d="m1364.4 555.3-60.2 176 9.2 43.6 108.5-60.4H1360l-18-21.2z" style="fill:url(#SVGID_24_)"/>
  <linearGradient id="SVGID_25_" x1="609.735" x2="1047.173" y1="1445.298" y2="1445.298" gradientTransform="matrix(1 0 0 -1 0 2000)" gradientUnits="userSpaceOnUse">
    <stop offset="0" style="stop-color:#fff568"/>
    <stop offset=".606" style="stop-color:#fff68b"/>
  </linearGradient>
  <path d="M1047.2 534.2c-3.3-2.5-37 41.1-37 41.1l-400.5-20 386.2-7.1 51.3-14z" style="fill:url(#SVGID_25_)"/>
  <linearGradient id="SVGID_26_" x1="683.531" x2="1013.278" y1="1266.693" y2="1266.693" gradientTransform="matrix(1 0 0 -1 0 2000)" gradientUnits="userSpaceOnUse">
    <stop offset="0" style="stop-color:#fff568"/>
    <stop offset=".606" style="stop-color:#fff68b"/>
  </linearGradient>
  <path d="m683.5 759.5 329.8-52.3-52.3 35.6z" style="fill:url(#SVGID_26_)"/>
  <linearGradient id="SVGID_27_" x1="907.988" x2="1146.858" y1="1145.924" y2="1145.924" gradientTransform="matrix(1 0 0 -1 0 2000)" gradientUnits="userSpaceOnUse">
    <stop offset="0" style="stop-color:#fff568"/>
    <stop offset=".606" style="stop-color:#fff68b"/>
  </linearGradient>
  <path d="m908 894.6 238.9-81.1-42.7 46.7z" style="fill:url(#SVGID_27_)"/>
  <linearGradient id="SVGID_28_" x1="1698.927" x2="1629.088" y1="1626.265" y2="1626.265" gradientTransform="matrix(1 0 0 -1 0 2000)" gradientUnits="userSpaceOnUse">
    <stop offset="0" style="stop-color:#fff568"/>
    <stop offset=".606" style="stop-color:#fff68b"/>
  </linearGradient>
  <path d="m1677.7 322.2-33.2 7.4-15.5 19.5 43.4 23.1-4.8 53.1 31.3-61.6z" style="fill:url(#SVGID_28_)"/>
  <linearGradient id="SVGID_29_" x1="1813.879" x2="1765.469" y1="1622.929" y2="1622.929" gradientTransform="matrix(1 0 0 -1 0 2000)" gradientUnits="userSpaceOnUse">
    <stop offset="0" style="stop-color:#fff568"/>
    <stop offset=".606" style="stop-color:#fff68b"/>
  </linearGradient>
  <path d="m1765.5 343.4 36.7 44.4-13.5 44.2 25.1-43.3-20.1-66.5z" style="fill:url(#SVGID_29_)"/>
  <linearGradient id="SVGID_30_" x1="1855.46" x2="1694.39" y1="1815.693" y2="1815.693" gradientTransform="matrix(1 0 0 -1 0 2000)" gradientUnits="userSpaceOnUse">
    <stop offset="0" style="stop-color:#ccaf01"/>
    <stop offset="1" style="stop-color:#fff68b"/>
  </linearGradient>
  <path d="m1725.3 143.3-30.9 41.7 44.2 38.1-22.1-36.7 16.5-18.6 56.7 30.3 47.5-15.4 7.9 42.6 10.4-58.1-21.5-8.9-56.7 18.3z" style="fill:url(#SVGID_30_)"/>
  <linearGradient id="SVGID_31_" x1="115.715" x2="34.179" y1="873.559" y2="873.559" gradientTransform="matrix(1 0 0 -1 0 2000)" gradientUnits="userSpaceOnUse">
    <stop offset="0" style="stop-color:#fff568"/>
    <stop offset=".606" style="stop-color:#fff68b"/>
  </linearGradient>
  <path d="m34.2 1062.8 21.5 90.6 60 36.7z" style="fill:url(#SVGID_31_)"/>
  <linearGradient id="SVGID_32_" x1="470.647" x2="415.103" y1="1760.939" y2="1760.939" gradientTransform="scale(1 -1) rotate(35.677 4987.263 -320.2)" gradientUnits="userSpaceOnUse">
    <stop offset="0" style="stop-color:#fff568"/>
    <stop offset=".606" style="stop-color:#fff68b"/>
  </linearGradient>
  <path d="m34.2 1261 47.9 41.5 47.8-3.5z" style="fill:url(#SVGID_32_)"/>
  <linearGradient id="SVGID_33_" x1="444.123" x2="361.572" y1="-67.511" y2="-67.511" gradientTransform="scale(1 -1) rotate(-34.402 -1280.781 -161.735)" gradientUnits="userSpaceOnUse">
    <stop offset="0" style="stop-color:#fff568"/>
    <stop offset=".606" style="stop-color:#fff68b"/>
  </linearGradient>
  <path d="m164 958.8-33.7 87.8 29.1 65.2z" style="fill:url(#SVGID_33_)"/>
  <linearGradient id="SVGID_34_" x1="1102.392" x2="608.48" y1="672.725" y2="1010.9" gradientTransform="matrix(1 0 0 -1 0 2000)" gradientUnits="userSpaceOnUse">
    <stop offset="0" style="stop-color:#fff568"/>
    <stop offset=".606" style="stop-color:#fff68b"/>
  </linearGradient>
  <path d="m1145.8 1263.9-367.7-230.3-229.5 42.9 207.5-97.8 271.3 168.8z" style="fill:url(#SVGID_34_)"/>
  <linearGradient id="SVGID_35_" x1="1710.205" x2="1980.378" y1="838.196" y2="838.196" gradientTransform="matrix(1 0 0 -1 0 2000)" gradientUnits="userSpaceOnUse">
    <stop offset="0" style="stop-color:#ccaf01"/>
    <stop offset="1" style="stop-color:#fff68b"/>
  </linearGradient>
  <path d="M1711.6 1068.7c3.5.1 6.9.3 10.4.5l10.3.7c6.9.4 13.7 1.1 20.6 1.7 13.7 1.2 27.4 2.8 41.1 4.4 13.6 1.7 27.2 3.5 40.8 5.5 6.8.9 13.6 2 20.4 3.1 6.8 1.1 13.6 2.1 20.3 3.3l2.8.4 2 2.1c4 4.1 8 8.3 12 12.4s8 8.3 11.9 12.5l11.7 12.5 11.7 12.7c15.5 16.9 30.8 34.2 45.8 51.6l2.7 3.1-1.9 2.9c-5.9 9.6-11.7 19.1-17.9 28.6-2.9 4.8-6.1 9.5-9.2 14.1-1.5 2.4-3.1 4.7-4.7 7.1-1.6 2.3-3.2 4.7-4.8 6.9 1.1-2.7 2.1-5.2 3.2-7.9 1.1-2.5 2.1-5.2 3.3-7.7 2.3-5.2 4.4-10.3 6.8-15.5 4.5-10.3 9.3-20.4 14-30.6l.8 6c-16.9-15.6-33.5-31.6-49.8-47.8l-12.3-12.1-12.1-12.3c-4-4.1-8-8.3-12-12.4s-8-8.3-12-12.4l4.8 2.5c-6.8-1.2-13.5-2.4-20.3-3.6-6.8-1.2-13.5-2.5-20.3-3.9-13.5-2.5-27-5.5-40.4-8.3-13.5-2.9-26.8-6.1-40.2-9.5-6.7-1.7-13.3-3.3-20-5.2l-10-2.8c-2.8-.6-6.2-1.6-9.5-2.6z" style="fill:url(#SVGID_35_)"/>
  <linearGradient id="SVGID_36_" x1="1679.013" x2="1884.387" y1="991.659" y2="991.659" gradientTransform="matrix(1 0 0 -1 0 2000)" gradientUnits="userSpaceOnUse">
    <stop offset="0" style="stop-color:#ccaf01"/>
    <stop offset="1" style="stop-color:#fff68b"/>
  </linearGradient>
  <path d="M1687.7 1033.6c-.1-1.1.1-2.1.4-3.1.3-1.1.5-2 .8-2.9.7-2 1.3-3.9 2.1-5.9 1.5-3.9 3.1-7.6 4.8-11.3 1.7-3.7 3.5-7.3 5.3-10.9 1.7-3.6 3.7-7.2 5.6-10.8l1.2-2.4 3.7-.3c12.8-1.1 25.5-1.7 38.3-2.1 12.8-.5 25.5-.7 38.3-.7 12.8 0 25.5.3 38.3.8 12.8.5 25.5 1.3 38.3 2.4l4.7.4.7 3.6c.7 3.6 1.2 7.2 1.9 10.7.5 3.6 1.2 7.2 1.7 10.8.5 3.6 1.1 7.2 1.5 10.8.4 3.6.8 7.2 1.1 10.9-1.6-3.3-3.1-6.7-4.5-10s-2.9-6.7-4.3-10-2.7-6.8-4-10.1-2.7-6.8-3.9-10.1l5.3 4c-12.8 1.1-25.5 1.9-38.3 2.4-12.8.5-25.5.8-38.3.8-12.8 0-25.5-.1-38.3-.7-12.8-.4-25.5-1.1-38.3-2.1l4.9-2.7-14.7 19.1-7.5 9.6-3.6 4.8c-.5.8-1.2 1.6-1.7 2.5-.7.6-1.2 1.4-1.5 2.5z" style="fill:url(#SVGID_36_)"/>
  <linearGradient id="SVGID_37_" x1="1641.682" x2="1850.183" y1="758.128" y2="758.128" gradientTransform="matrix(1 0 0 -1 0 2000)" gradientUnits="userSpaceOnUse">
    <stop offset="0" style="stop-color:#ccaf01"/>
    <stop offset="1" style="stop-color:#fff68b"/>
  </linearGradient>
  <path d="M1829.3 1176.2c1.6 3.7 2.9 7.3 4.4 11.1 1.5 3.7 2.8 7.5 4.1 11.1 1.3 3.7 2.7 7.5 4 11.2s2.5 7.5 3.9 11.2l.7 2.1-1.7 2.4c-4.9 6.8-9.9 13.6-14.9 20.3l-7.6 10-7.7 9.9c-5.2 6.5-10.4 13.2-15.6 19.6-5.2 6.5-10.7 12.9-16 19.3l-2.5 3.1h-4l-15.1-.1-15.1-.3c-5.1-.1-10-.3-15.1-.4-5.1-.1-10-.4-15.1-.5l-2.7-.1-1.6-1.3c-5.6-4.4-11.2-8.9-16.7-13.5-2.8-2.3-5.5-4.5-8.3-6.8-2.8-2.3-5.5-4.7-8.1-6.9-5.5-4.7-10.8-9.5-16.1-14.3-5.3-4.8-10.5-9.7-15.7-14.8 6.4 3.3 12.7 6.8 18.9 10.4 6.3 3.6 12.4 7.2 18.5 10.9 3.1 1.9 6.1 3.7 9.1 5.6 3.1 1.9 6 3.7 9.1 5.7 6 3.9 12 7.7 18 11.7l-4.4-1.5c5.1-.1 10-.4 15.1-.5s10-.3 15.1-.4l15.1-.3 15.1-.1-6.7 3.1c5.5-6.4 10.8-12.8 16.3-19.1 5.5-6.4 11.1-12.5 16.5-18.8l8.4-9.3 8.5-9.2c5.7-6.1 11.5-12.1 17.3-18.1l-1.1 4.5c-.7-3.9-1.3-7.7-1.9-11.7-.7-3.9-1.2-7.9-1.7-11.7s-1.1-7.9-1.6-11.7c-.3-3.9-.7-7.9-1.1-11.8z" style="fill:url(#SVGID_37_)"/>
  <path d="M1554.7 774.9v49.7L1523.3 951l14.4-126.4-89.5 28 14.7 93.4-22.3-12.9 18.5 117.8-64.8-117.8-63.7 16L1257 1051l12 117.3-16.7 67.6-84.5 19-145.3-130.2 64.6 43.6 91.9 44.6 53.8-61-52.6-254.1 47-4.6 22.9 67.9 67.7-169.6z" class="st4"/>
  <linearGradient id="SVGID_38_" x1="1064.255" x2="1142.187" y1="365.261" y2="365.261" gradientTransform="matrix(1 0 0 -1 0 2000)" gradientUnits="userSpaceOnUse">
    <stop offset="0" style="stop-color:#fff568"/>
    <stop offset=".606" style="stop-color:#fff68b"/>
  </linearGradient>
  <path d="m1093.3 1563.1 38.6 33.1-26.9 50.3 37.2 59.9-77.9-64.6z" style="fill:url(#SVGID_38_)"/>
  <linearGradient id="SVGID_39_" x1="1182.755" x2="1259.22" y1="250.096" y2="250.096" gradientTransform="matrix(1 0 0 -1 0 2000)" gradientUnits="userSpaceOnUse">
    <stop offset="0" style="stop-color:#fff568"/>
    <stop offset=".606" style="stop-color:#fff68b"/>
  </linearGradient>
  <path d="m1182.8 1706.4 30.5 3.2 45.9 51.1v32.7l-11.1-31-44.5-46z" style="fill:url(#SVGID_39_)"/>
  <linearGradient id="SVGID_40_" x1="1197.701" x2="1285.109" y1="265.576" y2="265.576" gradientTransform="matrix(1 0 0 -1 0 2000)" gradientUnits="userSpaceOnUse">
    <stop offset="0" style="stop-color:#fff568"/>
    <stop offset=".606" style="stop-color:#fff68b"/>
  </linearGradient>
  <path d="M1197.7 1695.2h30.6l36.9 24.7 19.9 30-6 23.8-10.7-29.7-9.2-16-39.7-25.1z" style="fill:url(#SVGID_40_)"/>
  <linearGradient id="SVGID_41_" x1="477.356" x2="799.63" y1="385.878" y2="385.878" gradientTransform="matrix(1 0 0 -1 0 2000)" gradientUnits="userSpaceOnUse">
    <stop offset="0" style="stop-color:#fff568"/>
    <stop offset=".606" style="stop-color:#fff68b"/>
  </linearGradient>
  <path d="m520.2 1502.1-42.8 167.3 322.2 56.8-271.7-91.5z" style="fill:url(#SVGID_41_)"/>
  <linearGradient id="SVGID_42_" x1="795.226" x2="734.641" y1="157.751" y2="218.336" gradientTransform="matrix(1 0 0 -1 0 2000)" gradientUnits="userSpaceOnUse">
    <stop offset="0" style="stop-color:#fff568"/>
    <stop offset=".606" style="stop-color:#fff68b"/>
  </linearGradient>
  <path d="m725 1791.3 34.9 18.1 36.9 31.2-21.3-37.3z" style="fill:url(#SVGID_42_)"/>
  <linearGradient id="SVGID_43_" x1="861.315" x2="800.731" y1="194.349" y2="254.934" gradientTransform="matrix(1 0 0 -1 0 2000)" gradientUnits="userSpaceOnUse">
    <stop offset="0" style="stop-color:#fff568"/>
    <stop offset=".606" style="stop-color:#fff68b"/>
  </linearGradient>
  <path d="m791.1 1754.7 35 18.2 36.8 31.2-21.2-37.4z" style="fill:url(#SVGID_43_)"/>
  <linearGradient id="SVGID_44_" x1="920.666" x2="860.081" y1="220.338" y2="280.922" gradientTransform="matrix(1 0 0 -1 0 2000)" gradientUnits="userSpaceOnUse">
    <stop offset="0" style="stop-color:#fff568"/>
    <stop offset=".606" style="stop-color:#fff68b"/>
  </linearGradient>
  <path d="m850.5 1728.7 34.8 18.1 37 31.3-21.4-37.4z" style="fill:url(#SVGID_44_)"/>
  <linearGradient id="SVGID_45_" x1="837.128" x2="908.923" y1="313.083" y2="313.083" gradientTransform="matrix(1 0 0 -1 0 2000)" gradientUnits="userSpaceOnUse">
    <stop offset="0" style="stop-color:#fff568"/>
    <stop offset=".606" style="stop-color:#fff68b"/>
  </linearGradient>
  <path d="m837.1 1662.2 35 18.2 36.8 31.2-21.2-37.4z" style="fill:url(#SVGID_45_)"/>
  <linearGradient id="SVGID_46_" x1="931.475" x2="990.776" y1="355.052" y2="355.052" gradientTransform="matrix(1 0 0 -1 0 2000)" gradientUnits="userSpaceOnUse">
    <stop offset="0" style="stop-color:#fff568"/>
    <stop offset=".606" style="stop-color:#fff68b"/>
  </linearGradient>
  <path d="m931.5 1616.1 25.5 35.5 33.9 22.2-10.3-28.3z" style="fill:url(#SVGID_46_)"/>
  <linearGradient id="SVGID_47_" x1="929.607" x2="1004.337" y1="415.303" y2="415.303" gradientTransform="matrix(1 0 0 -1 0 2000)" gradientUnits="userSpaceOnUse">
    <stop offset="0" style="stop-color:#fff568"/>
    <stop offset=".606" style="stop-color:#fff68b"/>
  </linearGradient>
  <path d="m929.6 1569.9 37.9 5.2 36.8 31.2-24.5-43.2z" style="fill:url(#SVGID_47_)"/>
  <linearGradient id="SVGID_48_" x1="1443.51" x2="1165.674" y1="444.795" y2="444.795" gradientTransform="matrix(1 0 0 -1 0 2000)" gradientUnits="userSpaceOnUse">
    <stop offset="0" style="stop-color:#ccaf01"/>
    <stop offset="1" style="stop-color:#fff68b"/>
  </linearGradient>
  <path d="m1443.5 1584.7-277.8-59 64.7 55.8z" style="fill:url(#SVGID_48_)"/>
  <path d="m1733.9 174.7-11.2 12.9 18.9 22.7 30.5-16zM1822.8 216.9l13.6-11.5-3-14.8-29.3 8.7z" class="st51"/>
  <path d="m1881.7 1077.1-58.6-5.3h-.5l-.1-.5-.4-2.3v-.1l.5.5-79.3-10.3-4.1-.5 3.9-1.3 73.7-24.8 1.3-.4.3 1.3 5.6 35.1-1.1-1.1 59.1 7.7-1.6 1.5-3.9-102.2 1.7 1.6-190.2.4 1.9-1.2-108.5 230.3-.3.7-.7.4-43.2 26.7-2.1 1.3-1.5-1.9-43.1-55.2-.4-.4-.1-.5-33.9-124.8v-.2L1435 935l-1.1-6.3 5.7 2.7 24.7 11.7-4.7 3.5L1445 853l-.4-2.9 2.8-.9 89.4-28 5.2-1.6-.7 5.3-14.1 126.4-.4-2.3 71.9 129-7.2 1.6 10.7-168.5.1-1.3.8-1.1 102.2-124.2-.9 1.9 15.9-87.5 2.5 4.7-43.1-17.9-6.9-2.8 6-4.5 57.4-43.1-1.7 2.9 6.9-65.8 4.7 4.8-99.6 8.8 1.6-.4-83.1 42.7-12.7 6.5 6.8-12.5 80.1-148.7.5-.9.8-.5 113.4-84.6 3.5-2.5 2.8 3.3 16.9 20.6.9 1.1.1 1.3 4.5 43.9-8.4-2 42-65.3-.5 3.7-24-78.2-.8-2.7 2.1-1.9 53.8-50.2-1.5 2.8 11.3-98.1 2.4 4.5-27.9-14.7 3.2.4-64.5 16.7-2 .5-1.7-1.2-43.6-30.7 4.4.4-54.7 24.8 1.6-1.2-64.6 80.2-.7.9-1.1.4-143.1 55.2-.4.1-.4.1-285.6 53.8 2.4-1.6-44.2 67.8-.5.9-.9.4-23.8 10.4-.1.1h-.1l-62.6 19.5-.9.3-.9-.3-137.7-34.7 3.3-4.8 62.5 91.9-1.2-1.1 46.8 21.9 4.3 2-3.7 2.9-19.2 14.8-.8.5h-.9l-523.6-.8 1.1-3.6 254.3 165.2-.9-.3 254.6.1.3 3.2-339.4 52.3.3-3.1 277.2 99.4h-.9l164-34.6.9 3.5L865.8 904l-.4-3.9 191.9 30.7h-.9l122-32.4 2.4-.7.5 2.5 54.2 251 .3 1.3-.9 1.1-53.8 61-1.5 1.6-2-.9-91.9-44.4-.1-.1-.1-.1-328-220.2 3.6.3-283.2 136.6 2.3-2.9-41.7 222.5-.5 2.5-2.4.8-60.1 18.8-1.3.4-1.3-.4-101-33-1.2-.4-.8-.9-69.4-82.6-.7-.8-.3-.9-29.5-111.3-.1-.5v-.5l-.1-157.9 8.3 3.1-111.2 129.1.5-5.5 43.1 78.9-8 5.3-79-101.2 8.8-3.5 18 190.8-2.1-3.6 50.3 35.9 32.4 23.1-37.1-14.3-72.6-27.9 6-7.7 55 78.5-1.5-1.5 66.3 41-4.3-.5 62.1-20.2 2.9-.9 2.3 2.1 73.4 71.3.3.3.3.3 94.3 125.6.9 1.2.1 1.5 14.7 134.8.3 2.1-1.2 1.7-63 86.2-3.5-8.5 393.9 70.2h.3l.3.1 99 27.8-6.3 7.6-18.7-38.6 1.5 1.9-24.7-19.3-19.6-15.5 24.3 6 121.4 30.2-6.4 6.7-14-46.4 2.3 2.9-13.3-8.4-18-11.3 21.2 1.6 56.6 4.4-5.1 7.6-21-42.4 3.1 2.7-118-39.6-29.5-9.9c-2.4-.9-4.9-1.5-7.5-2.3l-7.5-2.1-14.9-4.3-59.8-17.2 2.3-9.9 157.6 28.2h.6l82.2 23.1 9.2 2.5-7.5 6-10.5 8.4-1.9-8.5 105.6 28-1.2-.1 92.2.1h.6l93.4 11.9.8.1.7.4 76.3 39.5-6.7 4.7-5.3-43.4-2.3-18.1 10.4 14.9 19.2 27.6-8 1.3 11.2-39.1.7 3.9-23.6-32.4 1.1 1.1-44.7-31 3.5.7-71.4 16.3-2.9.7-1.6-2.7-35.6-58-1.3-2.1 1.2-2.1 49.6-89 2.1-3.9 3.7 2.5 65.5 45.2-2.3-.7 222.5-3.3-3.2 2.1 113.6-236.3.4-.9.8-.5 77-46.7 1.1-.7 1.2.3 129 25.4-2.9 1.2 81.7-114.2-.3 2.5-23.9-55.8 4.8-.3-14.4 44.6-.1.4-.3.4-53.9 64.5-1.6 1.9-1.7-1.6-56.6-51.9-1.3-1.3 1.1-1.5 60.6-84.3.5-.8h.9l89.7-3.3h.7l.5.4 75.1 64.7.7.7-.3.9-11.1 37.8v-.5l4.8 51.4-2.3-.7 67.4-93.9v1.2l-107.6-121.1zm.6-1 108.2 120.5.5.5-.4.7-67 94.2-1.9 2.7-.3-3.3-5.1-51.4v-.3l.1-.3 10.9-37.8.4 1.5-75.5-64.5 1.2.4-89.7 3.7 1.5-.8-60.2 84.6-.3-2.8 56.8 51.6-3.3.3 53.6-64.7-.4.8 14.3-44.6 2-6.4 2.7 6.1 24.2 55.8.5 1.3-.8 1.2-81.3 114.5-1.1 1.5-1.9-.4-129.2-25 2.3-.4-76.9 47 1.2-1.3-112.9 236.7-.9 2h-2.3L1229 1604h-1.2l-1.1-.7-65.7-45 5.9-1.3-49.4 89.1-.1-4.3 35.8 57.9-4.5-1.9 71.4-16.4 1.9-.4 1.6 1.1 44.8 30.8.7.4.4.7 23.8 32.4 1.3 1.7-.5 2.1-11.1 39.1-2.5 9.1-5.5-7.7-19.3-27.5 8.3-3.2 5.3 43.4 1.1 8.5-7.7-4-76.3-39.4 1.6.5-93.4-11.7h.5l-92.2.1h-.7l-.7-.1-106-28-9.3-2.5 7.6-6.1 10.5-8.4 1.7 8.5-82.2-23 .5.1-157.6-28 2.3-9.9 59.9 17.2 14.9 4.3 7.5 2.1c2.5.8 5.1 1.3 7.5 2.3l29.6 9.9 118.2 39.4 2 .7.9 2 21 42.4 4.1 8.3-9.2-.7-56.6-4.3 3.2-9.7 13.3 8.4 1.7 1.1.5 1.9 14 46.3 2.7 8.9-9.1-2.3-121.6-30 4.5-9.5 24.7 19.3.9.8.5 1.1 18.7 38.4 5.2 10.8-11.5-3.2-99-27.8.5.1-393.9-70.3-8.5-1.5 5.1-6.9 63-86.1-1.1 3.7-14.5-134.8 1.1 2.7-94.2-125.7.5.7-73.3-71.3 5.2 1.2-62.2 20-2.3.8-2-1.2-66.3-41-.9-.5-.7-.9-55-78.6-9-13.3 15.6 6 72.5 27.9-4.8 8.8-50.2-35.9-1.9-1.3-.3-2.3-17.9-191-1.6-16.7 10.3 13.2 78.9 101.3-8 5.3-43-79-1.6-2.9 2.1-2.5 111.3-129 8.3-9.6v12.7l-.1 157.9-.1-1.2 29.2 111.3-.9-1.7 69.3 82.7-2-1.3 101 33.1h-2.7l60.1-18.8-2.9 3.3 41.9-222.5.4-2 1.9-.9 283.6-136 1.9-.9 1.7 1.2 327.5 221.4-.4-.3 91.8 44.7-3.5.7 53.9-60.9-.7 2.4-53.5-251.1 2.9 1.9-122 32.2-.5.1-.5-.1L864.1 904l-7.7-1.3 7.5-2.5 221.9-77.3.9 3.5-164.1 34.3-.4.1-.4-.1-277-99.7-5.7-2.1 6-.9 339.4-52.4.3 3.2-253.9.1h-.5l-.4-.3-255.2-164.8-5.6-3.6h6.7l523.6-.8-1.7.5L1017 525l.5 4.9-47-21.8-.8-.4-.4-.7-62.7-91.7-4.7-6.8 8 2 137.9 34.3h-1.9l62.6-19.8-.4.1 23.8-10.5-1.5 1.3 44-67.9.8-1.3 1.5-.3 285.2-54.6-.7.3 142.9-55.5-1.7 1.3 64.5-80.3.7-.8.9-.4 54.7-25 2.3-1.1 2 1.5 43.6 30.7-3.7-.7 64.5-16.7 1.7-.4 1.5.8 28 14.7 2.8 1.5-.4 3.1-11.3 98.1-.1 1.6-1.2 1.1-53.8 50.2 1.2-4.7 24 78.2.7 2-1.2 1.7-42 65.3-7.1 10.9-1.3-12.9-4.5-44 1.1 2.4-16.9-20.6 6.3.8-113.6 84.5 1.3-1.5-80.2 148.7-5.9-6 83.1-42.6.8-.4.8-.1 99.6-8.8 5.2-.4-.5 5.2-6.9 65.8-.1 1.9-1.5 1.1-57.4 43-.9-7.3 43 18 3.2 1.3-.7 3.3-16.1 87.5-.1 1.1-.7.8L1609 914l.9-2.3-10.9 168.5-.8 13.1-6.4-11.5-71.5-129.2-.5-1.1.1-1.2 14.5-126.4 4.5 3.7-89.5 27.8 2.4-3.7 14.5 93.5.9 6.1-5.6-2.7-24.7-11.9 4.5-3.5 20.8 116.8v-.3l33.8 124.9-.5-.9 43 55.4-3.6-.7 43.4-26.6-.9 1.1L1686.8 973l.5-1.2h1.3l190.2.4h1.6v1.6l3.3 102.2v1.7l-1.7-.3-59-8-.9-.1-.1-.9-5.5-35.2 1.6.9-73.8 24.3-.1-1.9 79.1 10.8h.5l.1.4v.1l.3 2.3-.7-.5 58.8 6.5z" class="st52"/>
  <path d="M940.9 1690.3c-1.7 2-3.5 3.9-5.2 5.7-1.7 1.9-3.5 3.6-5.1 5.3-3.3 3.5-6.8 6.7-10.3 9.9l-3.5 3.2-2.5-4.5c-2.3-4.1-4.5-8.3-6.7-12.4-2.1-4.1-4.1-8.4-5.9-12.8l1.2 1.5c-1.9-1.7-3.9-3.6-5.7-5.3l-5.6-5.5c-1.9-1.9-3.7-3.6-5.7-5.3-1.9-1.7-3.9-3.5-5.9-5.1l-5.5-4.5 6.8 1.9c4.1 1.1 8.1 2 12.3 2.8 4.1.8 8.3 1.5 12.5 2.1l12.5 1.9c4.1.7 8.3 1.5 12.4 2.3 8.3 1.7 16.5 3.3 24.8 5.3s16.4 4.3 24.4 6.8l7.3 2.3-4.8 5.3-2.3 2.5-1.6 1.9-1.9-.1c-2.9-.3-5.9-.5-8.8-.8-2.9-.3-5.9-.7-8.9-1.1-3.1-.4-6-.8-9.1-1.2-2.7-1.1-5.9-1.6-9.2-2.1zm-.2-1c2.8-.5 5.9-.9 8.8-1.2 2.9-.4 6-.7 9.1-.9 3.1-.3 6.1-.5 9.3-.8 3.1-.1 6.3-.4 9.5-.5l-3.6 1.6 2-2.8 2.5 7.6c-8.3-1.5-16.5-3.3-24.8-5.5-8.1-2.1-16.3-4.5-24.4-6.9-4-1.2-8.1-2.4-12.1-3.7l-12-4.1c-4-1.3-8-2.8-12-4-4-1.2-8.1-2.3-12.3-3.2l1.3-2.7c2.1 1.6 4.3 3.1 6.4 4.5 2.1 1.5 4.4 2.8 6.7 4.3l6.7 4.1c2.3 1.3 4.4 2.8 6.5 4.3l.5.4.7 1.1c2.4 4.1 4.4 8.3 6.4 12.5 2 4.3 3.9 8.5 5.7 12.9l-6-1.3c4.1-2.9 8.4-5.9 12.5-8.4 2.1-1.3 4.3-2.5 6.3-3.9 2.1-1.2 4.1-2.3 6.3-3.4zM995 1669.2c-.8-1.1-1.6-2.4-2.5-3.7-.9-1.5-2-3.1-2.9-4.9-1.1-1.9-2-3.7-2.9-5.9-.9-2-1.7-4.1-2.4-6.3l1.9 2.5c-2.3-1.3-4.4-2.9-6.4-4.7-2-1.9-3.9-3.7-5.7-5.6l-6.9-6.5 8.3 2.3c3.5.9 6.9 1.5 10.4 1.5 3.5.1 7.1-.3 10.5-.7 3.6-.4 7.1-.7 10.5-.7h10.5l10.1.4-6.4 8.4c-2 2.7-4.3 5.2-6.5 7.6-2.4 2.4-4.8 4.5-7.2 6.7-2.4 2-4.7 3.9-6.8 5.5-2 1.4-4 2.9-5.6 4.1zm.1-1.1c2-3.3 3.7-6.3 5.2-9.1l4.1-8c1.3-2.4 2.5-4.7 3.9-6.8 1.3-2.1 2.8-4 4.5-5.9l3.7 8.8c-3.5-.4-6.9-1.1-10.4-1.6s-6.9-1.3-10.4-2.3c-3.5-.9-6.9-1.9-10.4-2.3-3.5-.5-6.9-.5-10.5-.1l1.3-4.3c2.5.9 5.1 1.7 7.6 2.8 2.5 1.1 4.8 2.3 6.9 3.7l1.6 1.1.4 1.5c.4 1.5.7 2.9.9 4.5.3 1.6.3 3.2.4 4.9.1 1.7.1 3.7.3 5.9.4 2.4.7 4.7.9 7.2zM1030.9 1625.9l-4.8 6.4-.7.9-.7-1.1c-7.3-12-14.7-24.2-21.9-36.3-7.2-12.1-14.4-24.3-21.6-36.6l3.1 1.5-29.2 4.5-29.2 4.4c-19.5 2.9-39 5.7-58.4 8.5l-29.2 4.1c-9.7 1.3-19.5 2.7-29.2 4-9.7 1.3-19.5 2.5-29.4 3.7-9.7 1.2-19.6 2.4-29.4 3.6l-1.9.3-1.3-1.2-53.4-52.4c-8.9-8.8-17.7-17.5-26.8-26.2-8.9-8.7-18-17.3-27.1-25.9l-.7-.7.3-.9c3.5-11.9 6.7-23.8 10-35.6 3.3-11.9 6.5-23.8 9.7-35.6l9.5-35.8 9.3-35.8 3.7 3.7-4.5 1.3-6.9 2.1 3.5-6.5.3-.5.7-1.2 1.5-.3 40.7-8.5c13.6-2.8 27.2-5.6 40.7-8.4l81.7-16.4 2.1-.4 1.7 1.3 56.7 41.9c18.8 14.1 37.8 28 56.4 42.3 18.8 14.1 37.5 28.3 56.2 42.7 18.7 14.3 37.4 28.6 55.9 43l2.1 1.6-.7 2.4-9.5 35.6-9.6 35.5c-3.2 11.9-6.5 23.6-9.7 35.4-3.3 12.1-6.7 23.9-10 35.6zm-.9-.5c2.5-12 5.2-24 7.9-36s5.2-24 8-35.9l8.1-35.8 8.3-35.6 1.5 4c-19.1-13.7-38-27.6-57-41.5-18.9-13.9-37.9-27.9-56.8-41.8-18.9-13.9-37.8-28.2-56.6-42.2l-56.3-42.6 3.9.9-81.8 15.1c-13.6 2.5-27.4 4.9-41 7.3l-41 7.2 2.1-1.6-.3.5-3.6-4.4 4.5-1.2 5.2-1.5-1.5 5.1-21 70.9c-3.5 11.9-6.9 23.6-10.3 35.5-3.3 11.9-6.8 23.6-10 35.5l-.4-1.6c9.1 8.5 18.1 17.1 27.4 25.5 9.2 8.5 18.4 16.9 27.6 25.2l55.4 50.3-3.2-1.1c9.7-1.5 19.5-3.1 29.2-4.4 9.7-1.5 19.5-2.9 29.2-4.3 9.7-1.3 19.5-2.8 29.2-4l29.4-3.9c19.5-2.7 39.1-5.1 58.6-7.6l29.4-3.6 29.4-3.5 2.1-.3.9 1.7c6.7 12.4 13.3 25 19.9 37.4 6.7 12.5 13.2 25 19.6 37.6l-1.3-.1 5.3-5.2z" class="st52"/>
</svg>
