<?xml version="1.0" encoding="utf-8"?>
<svg xmlns="http://www.w3.org/2000/svg" id="Layer_1" x="0" y="0" style="enable-background:new 0 0 2000 2000" version="1.1" viewBox="0 0 2000 2000">
  <style>
    .st4{fill:#88a5b6}.st16{fill:#eff8f9}.st30{fill:#5a7db0}
  </style>
  <linearGradient id="SVGID_3_" x1="437.012" x2="1031.306" y1="472.282" y2="472.282" gradientTransform="matrix(1.008077, 0, 0, -1.008077, -8.076383, 2008.075577)" gradientUnits="userSpaceOnUse">
    <stop offset="0" style="stop-color:#c8d2d6"/>
    <stop offset="0.994" style="stop-color:#d9d3dd"/>
  </linearGradient>
  <path d="M 1002.42 1692.04 L 881.249 1661.9 L 905.745 1681.26 L 924.395 1719.77 L 825.603 1692.04 L 788.909 1685.49 L 432.453 1621.88 L 495.357 1535.99 L 508.865 1417.34 L 511.587 1393.35 L 681.247 1344.26 L 661.992 1412.7 L 641.427 1486.19 L 669.25 1512.4 L 750.098 1588.72 L 983.871 1556.76 L 1031.55 1641.74 L 975.101 1637.31 L 988.408 1645.67 L 1002.42 1692.04 Z" style="fill: url(&quot;#SVGID_3_&quot;);"/>
  <path d="M 788.909 1685.49 L 432.453 1621.88 L 495.357 1535.99 L 508.865 1417.34 L 668.646 1344.26 L 682.456 1339.82 L 641.427 1486.19 L 669.25 1512.4 L 652.012 1512.4 L 663.404 1623.29 L 788.909 1685.49 Z" class="st4" style=""/>
  <linearGradient id="SVGID_4_" x1="838.58" x2="1002.378" y1="337.215" y2="337.215" gradientTransform="matrix(1.008077, 0, 0, -1.008077, -8.076383, 2008.075577)" gradientUnits="userSpaceOnUse">
    <stop offset="0" style="stop-color:#aea9ae"/>
    <stop offset="1" style="stop-color:#9bc2db"/>
  </linearGradient>
  <path d="M 881.249 1661.9 L 837.297 1644.26 L 906.249 1644.26 L 1002.42 1692.04 L 881.249 1661.9 Z" style="fill: url(&quot;#SVGID_4_&quot;);"/>
  <linearGradient id="SVGID_5_" x1="905.948" x2="1031.306" y1="381.599" y2="381.599" gradientTransform="matrix(1.008077, 0, 0, -1.008077, -8.076383, 2008.075577)" gradientUnits="userSpaceOnUse">
    <stop offset="0" style="stop-color:#aea9ae"/>
    <stop offset="1" style="stop-color:#9bc2db"/>
  </linearGradient>
  <path d="M 975.101 1637.31 L 954.738 1623.29 L 905.14 1605.05 L 968.347 1607.77 L 1031.55 1641.74 L 975.101 1637.31 Z" style="fill: url(&quot;#SVGID_5_&quot;);"/>
  <linearGradient id="SVGID_6_" x1="897.891" x2="1286.646" y1="369.974" y2="369.974" gradientTransform="matrix(1.008077, 0, 0, -1.008077, -8.076383, 2008.075577)" gradientUnits="userSpaceOnUse">
    <stop offset="0" style="stop-color:#aea9ae"/>
    <stop offset="1" style="stop-color:#9bc2db"/>
  </linearGradient>
  <path d="M 1069.26 1467.75 L 1030.24 1624.4 L 977.218 1688.82 L 940.826 1688.31 L 897.076 1723.49 L 1002.42 1751.32 L 1094.46 1751.32 L 1187.6 1763.01 L 1263.81 1802.43 L 1258.47 1759.18 L 1229.74 1723.7 L 1258.47 1759.18 L 1277.73 1786.7 L 1288.91 1747.69 L 1265.22 1715.33 L 1220.47 1684.48 L 1149.3 1700.81 L 1113.71 1642.95 L 1173.09 1535.99 L 1069.26 1467.75 Z" style="fill: url(&quot;#SVGID_6_&quot;);"/>
  <linearGradient id="SVGID_7_" x1="32.934" x2="1979.614" y1="1001.519" y2="1001.519" gradientTransform="matrix(1.008077, 0, 0, -1.008077, -8.076383, 2008.075577)" gradientUnits="userSpaceOnUse">
    <stop offset="0" style="stop-color:#c8d2d6"/>
    <stop offset="0.994" style="stop-color:#d9d3dd"/>
  </linearGradient>
  <path d="M 1987.51 1196.78 L 1920.38 1290.73 L 1915.54 1239.42 L 1926.52 1201.71 L 1851.32 1137.3 L 1761.8 1140.93 L 1701.62 1225.2 L 1758.17 1276.82 L 1812.01 1212.5 L 1826.22 1168.05 L 1850.21 1223.69 L 1789.12 1309.58 L 1768.96 1337.7 L 1640.23 1312.7 L 1563.41 1359.38 L 1450.51 1595.47 L 1228.53 1599.1 L 840.119 1313.61 L 676.912 1345.06 L 576.81 1528.23 L 536.184 1625.81 L 755.643 1689.22 L 905.14 1739.02 L 926.209 1781.36 L 869.757 1777.02 L 883.063 1785.39 L 897.076 1831.76 L 775.905 1801.62 L 800.401 1820.98 L 819.051 1859.38 L 720.259 1831.76 L 327.109 1761.5 L 390.013 1675.61 L 375.497 1541.13 L 281.342 1415.83 L 208.055 1344.66 L 146.159 1364.72 L 80.03 1323.89 L 25.089 1245.57 L 97.469 1273.39 L 47.368 1237.6 L 29.525 1046.97 L 108.256 1148.09 L 65.211 1069.25 L 176.301 940.522 L 176.301 1097.88 L 205.535 1208.97 L 274.689 1291.54 L 375.497 1324.5 L 435.276 1305.75 L 476.909 1083.67 L 759.675 947.579 L 1021.98 1124.19 L 1022.28 1124.5 L 1086.8 1168.05 L 1178.43 1212.5 L 1232.06 1151.71 L 1178.43 901.106 L 1056.76 933.264 L 865.422 902.417 L 1086.8 824.997 L 922.983 859.372 L 646.569 760.077 L 985.182 707.858 L 731.046 707.858 L 476.909 543.138 L 999.496 543.138 L 1018.65 528.32 L 971.875 506.545 L 909.475 415.012 L 1046.88 449.387 L 1109.28 429.831 L 1133.07 419.447 L 1177.12 351.805 L 1461.7 297.672 L 1604.44 242.429 L 1668.76 162.388 L 1723.3 137.488 L 1766.84 168.134 L 1831.16 151.501 L 1859.18 166.017 L 1847.79 263.901 L 1794.06 314.103 L 1818.16 392.128 L 1776.22 457.25 L 1771.68 413.399 L 1754.75 392.733 L 1655.96 466.323 L 1641.44 477.109 L 1561.4 625.397 L 1644.36 582.957 L 1743.66 574.187 L 1736.8 639.813 L 1679.55 682.858 L 1722.49 700.701 L 1706.56 788 L 1604.44 911.893 L 1593.66 1080.04 L 1522.08 951.107 L 1536.4 824.997 L 1446.98 853.021 L 1461.7 946.167 L 1437 934.474 L 1457.97 1050.91 L 1491.94 1175.51 L 1534.79 1230.65 L 1577.93 1204.13 L 1686.7 974.394 L 1876.42 974.394 L 1879.95 1076.41 L 1821.08 1068.55 L 1815.63 1033.57 L 1741.94 1058.06 L 1821.08 1068.55 L 1821.08 1068.75 L 1821.48 1070.87 L 1879.95 1076.41 L 1987.51 1196.78 Z" style="fill: url(&quot;#SVGID_7_&quot;);"/>
  <path d="M 1879.95 1076.41 L 1821.48 1070.87 L 1821.08 1068.55 L 1879.95 1076.41 Z" style="fill: rgb(62, 133, 63);"/>
  <path d="M 1644.36 392.431 L 1655.96 466.323 L 1641.44 477.109 L 1561.4 625.397 L 1375.61 707.858 L 1358.88 689.209 L 1390.13 569.449 L 1606.16 382.653 L 1644.36 392.431 Z M 1794.06 314.103 L 1751.82 348.882 L 1784.89 395.153 L 1776.22 457.25 L 1771.68 413.399 L 1754.75 392.733 L 1655.96 466.323 L 1705.05 365.112 L 1685.8 322.874 L 1692.85 276.401 L 1726.52 247.671 L 1755.65 276.401 L 1795.78 249.082 L 1822.79 273.478 L 1847.79 263.901 L 1794.06 314.103 Z" class="st4" style=""/>
  <linearGradient id="SVGID_8_" x1="481.132" x2="985.337" y1="1371.517" y2="1371.517" gradientTransform="matrix(1.008077, 0, 0, -1.008077, -8.076383, 2008.075577)" gradientUnits="userSpaceOnUse">
    <stop offset="0" style="stop-color:#bac8de"/>
    <stop offset="0.721" style="stop-color:#ecf8fe"/>
  </linearGradient>
  <path d="M 476.909 543.138 L 736.691 675.6 L 985.182 707.858 L 731.046 707.858 L 476.909 543.138 Z" style="fill: url(&quot;#SVGID_8_&quot;);"/>
  <linearGradient id="SVGID_9_" x1="649.42" x2="1086.126" y1="1188.764" y2="1188.764" gradientTransform="matrix(1.008077, 0, 0, -1.008077, -8.076383, 2008.075577)" gradientUnits="userSpaceOnUse">
    <stop offset="0" style="stop-color:#bac8de"/>
    <stop offset="0.721" style="stop-color:#ecf8fe"/>
  </linearGradient>
  <path d="M 646.569 760.077 L 925.403 824.997 L 1086.8 824.997 L 922.983 859.372 L 646.569 760.077 Z" style="fill: url(&quot;#SVGID_9_&quot;);"/>
  <linearGradient id="SVGID_10_" x1="866.452" x2="1177.007" y1="1082.163" y2="1082.163" gradientTransform="matrix(1.008077, 0, 0, -1.008077, -8.076383, 2008.075577)" gradientUnits="userSpaceOnUse">
    <stop offset="0" style="stop-color:#bac8de"/>
    <stop offset="0.721" style="stop-color:#ecf8fe"/>
  </linearGradient>
  <path d="M 865.422 902.417 L 1054.74 909.574 L 1178.43 901.106 L 1056.76 933.264 L 865.422 902.417 Z" style="fill: url(&quot;#SVGID_10_&quot;);"/>
  <linearGradient id="SVGID_11_" x1="1566.29" x2="1730.88" y1="1316.763" y2="1316.763" gradientTransform="matrix(1.008077, 0, 0, -1.008077, -8.076383, 2008.075577)" gradientUnits="userSpaceOnUse">
    <stop offset="0" style="stop-color:#aea9ae"/>
    <stop offset="1" style="stop-color:#9bc2db"/>
  </linearGradient>
  <path d="M 1570.87 721.568 L 1653.84 657.757 L 1736.8 639.813 L 1679.55 682.858 L 1655.96 675.096 L 1570.87 721.568 Z" style="fill: url(&quot;#SVGID_11_&quot;);"/>
  <linearGradient id="SVGID_12_" x1="1021.663" x2="1486.505" y1="1410.749" y2="1410.749" gradientTransform="matrix(1.008077, 0, 0, -1.008077, -8.076383, 2008.075577)" gradientUnits="userSpaceOnUse">
    <stop offset="0" style="stop-color:#aea9ae"/>
    <stop offset="1" style="stop-color:#9bc2db"/>
  </linearGradient>
  <path d="M 1490.43 438.601 L 1345.27 555.639 L 1197.08 733.262 L 1021.88 707.858 L 1170.57 696.366 L 1323.89 514.106 L 1490.43 438.601 Z" style="fill: url(&quot;#SVGID_12_&quot;);"/>
  <linearGradient id="SVGID_13_" x1="910.175" x2="1092.862" y1="1524.086" y2="1524.086" gradientTransform="matrix(1.008077, 0, 0, -1.008077, -8.076383, 2008.075577)" gradientUnits="userSpaceOnUse">
    <stop offset="0" style="stop-color:#bac8de"/>
    <stop offset="0.721" style="stop-color:#ecf8fe"/>
  </linearGradient>
  <path d="M 909.475 415.012 L 988.004 493.138 L 1093.65 488.4 L 1018.65 528.32 L 971.875 506.545 L 909.475 415.012 Z" style="fill: url(&quot;#SVGID_13_&quot;);"/>
  <path d="M 1363.41 373.58 L 1249.7 416.524 L 1178.43 438.601 L 1216.03 503.622 L 1313.21 498.884 L 1443.45 373.58 L 1310.89 492.634 L 1222.89 492.634 L 1197.38 445.557 L 1255.45 429.226 L 1363.41 373.58 Z" class="st4" style=""/>
  <path d="M 1423.69 382.653 L 1362.2 382.653 L 1263.51 432.855 L 1210.08 449.085 L 1227.52 483.863 L 1310.89 483.863 L 1423.69 382.653 Z" class="st16" style=""/>
  <linearGradient id="SVGID_14_" x1="1316.237" x2="1395.135" y1="1576.197" y2="1576.197" gradientTransform="matrix(1.008077, 0, 0, -1.008077, -8.076383, 2008.075577)" gradientUnits="userSpaceOnUse">
    <stop offset="0" style="stop-color:#fff568"/>
    <stop offset="0.606" style="stop-color:#fff68b"/>
  </linearGradient>
  <path d="M 1319.06 410.98 L 1340.53 399.79 L 1362 388.701 L 1362.1 388.6 L 1362.2 388.6 L 1396.78 392.33 L 1398.29 392.431 L 1397.18 393.338 L 1382.67 407.451 L 1368.15 421.564 C 1358.47 430.839 1348.69 440.214 1338.82 449.488 C 1348.29 439.911 1357.87 430.335 1367.34 420.859 L 1381.76 406.645 L 1396.17 392.532 L 1396.58 393.741 L 1362 389.911 L 1362.3 389.911 L 1340.63 400.596 L 1319.06 410.98 L 1319.06 410.98 Z" style="fill: url(&quot;#SVGID_14_&quot;);"/>
  <linearGradient id="SVGID_15_" x1="1092.862" x2="1508.961" y1="1585.51" y2="1585.51" gradientTransform="matrix(1.008077, 0, 0, -1.008077, -8.076383, 2008.075577)" gradientUnits="userSpaceOnUse">
    <stop offset="0" style="stop-color:#aea9ae"/>
    <stop offset="1" style="stop-color:#9bc2db"/>
  </linearGradient>
  <path d="M 1513.11 353.217 L 1410.39 331.14 L 1178.43 420.758 L 1093.65 488.4 L 1180.95 433.258 L 1242.44 411.685 L 1357.97 371.463 L 1513.11 353.217 Z" style="fill: url(&quot;#SVGID_15_&quot;);"/>
  <linearGradient id="SVGID_16_" x1="1179.363" x2="1177.006" y1="1095.174" y2="1095.174" gradientTransform="matrix(1.008077, 0, 0, -1.008077, -8.076383, 2008.075577)" gradientUnits="userSpaceOnUse">
    <stop offset="0" style="stop-color:#3a7c3b"/>
    <stop offset="1" style="stop-color:#2e6431"/>
  </linearGradient>
  <path d="M 1180.85 906.147 L 1179.74 907.054 L 1178.43 901.106 L 1180.85 906.147 Z" style="fill: url(&quot;#SVGID_16_&quot;);"/>
  <linearGradient id="SVGID_17_" x1="552.991" x2="1227.863" y1="603.055" y2="603.055" gradientTransform="matrix(1.008077, 0, 0, -1.008077, -8.076383, 2008.075577)" gradientUnits="userSpaceOnUse">
    <stop offset="0" style="stop-color:#aea9ae"/>
    <stop offset="1" style="stop-color:#9bc2db"/>
  </linearGradient>
  <path d="M 1229.74 1580.35 L 847.378 1288.81 L 658.464 1337.3 L 549.39 1541.13 L 613 1320.16 L 828.627 1219.96 L 1229.74 1580.35 Z" style="fill: url(&quot;#SVGID_17_&quot;);"/>
  <linearGradient id="SVGID_18_" x1="1385.452" x2="1530.492" y1="829.664" y2="829.664" gradientTransform="matrix(1.008077, 0, 0, -1.008077, -8.076383, 2008.075577)" gradientUnits="userSpaceOnUse">
    <stop offset="0" style="stop-color:#aea9ae"/>
    <stop offset="1" style="stop-color:#9bc2db"/>
  </linearGradient>
  <path d="M 1534.79 1230.65 L 1454.85 1270.87 L 1388.82 1189.52 L 1388.61 1072.58 L 1445.17 1181.35 L 1498.39 1184.07 L 1534.79 1230.65 Z" style="fill: url(&quot;#SVGID_18_&quot;);"/>
  <linearGradient id="SVGID_19_" x1="32.934" x2="380.476" y1="609.792" y2="609.792" gradientTransform="matrix(1.008077, 0, 0, -1.008077, -8.076383, 2008.075577)" gradientUnits="userSpaceOnUse">
    <stop offset="0" style="stop-color:#aea9ae"/>
    <stop offset="1" style="stop-color:#9bc2db"/>
  </linearGradient>
  <path d="M 375.497 1541.13 L 281.342 1415.83 L 208.055 1344.66 L 146.159 1364.72 L 80.03 1323.89 L 25.089 1245.57 L 93.034 1314.22 L 149.587 1342.14 L 207.047 1334.28 L 318.44 1405.65 L 375.497 1541.13 Z" style="fill: url(&quot;#SVGID_19_&quot;);"/>
  <linearGradient id="SVGID_20_" x1="734.093" x2="897.891" y1="198.647" y2="198.647" gradientTransform="matrix(1.008077, 0, 0, -1.008077, -8.076383, 2008.075577)" gradientUnits="userSpaceOnUse">
    <stop offset="0" style="stop-color:#aea9ae"/>
    <stop offset="1" style="stop-color:#9bc2db"/>
  </linearGradient>
  <path d="M 775.905 1801.62 L 731.953 1783.88 L 800.905 1783.88 L 897.076 1831.76 L 775.905 1801.62 Z" style="fill: url(&quot;#SVGID_20_&quot;);"/>
  <linearGradient id="SVGID_21_" x1="801.461" x2="926.819" y1="243.031" y2="243.031" gradientTransform="matrix(1.008077, 0, 0, -1.008077, -8.076383, 2008.075577)" gradientUnits="userSpaceOnUse">
    <stop offset="0" style="stop-color:#aea9ae"/>
    <stop offset="1" style="stop-color:#9bc2db"/>
  </linearGradient>
  <path d="M 869.757 1777.02 L 849.394 1763.01 L 799.897 1744.77 L 863.003 1747.39 L 926.209 1781.36 L 869.757 1777.02 Z" style="fill: url(&quot;#SVGID_21_&quot;);"/>
  <linearGradient id="SVGID_22_" x1="1446.877" x2="1782.793" y1="565.54" y2="565.54" gradientTransform="matrix(1.008077, 0, 0, -1.008077, -8.076383, 2008.075577)" gradientUnits="userSpaceOnUse">
    <stop offset="0" style="stop-color:#aea9ae"/>
    <stop offset="1" style="stop-color:#9bc2db"/>
  </linearGradient>
  <path d="M 1789.12 1309.58 L 1768.96 1337.7 L 1640.23 1312.7 L 1563.41 1359.38 L 1450.51 1595.47 L 1496.68 1381.56 L 1613.62 1280.45 L 1638.11 1295.06 L 1757.07 1321.47 L 1789.12 1309.58 Z" style="fill: url(&quot;#SVGID_22_&quot;);"/>
  <linearGradient id="SVGID_23_" x1="1704.461" x2="1873.014" y1="953.767" y2="953.767" gradientTransform="matrix(1.008077, 0, 0, -1.008077, -8.076383, 2008.075577)" gradientUnits="userSpaceOnUse">
    <stop offset="0" style="stop-color:#aea9ae"/>
    <stop offset="1" style="stop-color:#9bc2db"/>
  </linearGradient>
  <path d="M 1860.8 1023.69 L 1721.68 1016.93 L 1710.19 1053.93 L 1821.28 1068.55 L 1880.15 1076.31 L 1860.8 1023.69 Z M 1741.94 1058.06 L 1815.43 1033.57 L 1820.88 1068.55 L 1741.94 1058.06 L 1741.94 1058.06 Z" style="fill: url(&quot;#SVGID_23_&quot;);"/>
  <linearGradient id="SVGID_24_" x1="1696.007" x2="1924.399" y1="798.622" y2="798.622" gradientTransform="matrix(1.008077, 0, 0, -1.008077, -8.076383, 2008.075577)" gradientUnits="userSpaceOnUse">
    <stop offset="0" style="stop-color:#aea9ae"/>
    <stop offset="1" style="stop-color:#9bc2db"/>
  </linearGradient>
  <path d="M 1931.87 1187.5 L 1927.73 1235.99 L 1920.38 1290.73 L 1915.54 1239.42 L 1926.52 1201.71 L 1851.32 1137.3 L 1761.8 1140.93 L 1701.62 1225.2 L 1741.94 1115.32 L 1857.17 1121.07 L 1931.87 1187.5 Z" style="fill: url(&quot;#SVGID_24_&quot;);"/>
  <path d="M 1365.63 978.829 L 1323.19 1196.27 L 1395.07 1315.73 L 1553.43 1219.96 L 1435.99 1280.45 L 1352.63 1166.84 L 1365.63 978.829 Z M 1490.43 680.64 L 1643.66 596.163 L 1736.8 587.191 L 1730.76 618.24 L 1640.73 625.397 L 1490.43 680.64 Z M 1667.95 689.209 L 1672.89 775.5 L 1553.43 894.957 L 1701.62 781.851 L 1714.42 707.858 L 1667.95 689.209 Z M 1597.39 918.647 L 1568.05 933.264 L 1589.72 1043.95 L 1594.56 958.567 L 1597.39 918.647 Z M 1363.51 556.344 L 1303.33 731.951 L 1312.5 775.5 L 1420.97 715.116 L 1358.98 715.116 L 1341.03 693.947 L 1363.51 556.344 Z M 1046.88 535.275 C 1043.55 532.755 1009.98 576.304 1009.98 576.304 L 610.379 556.344 L 995.766 549.288 L 1046.88 535.275 L 1046.88 535.275 Z M 684.17 760.077 L 1013 707.858 L 960.887 743.443 L 684.17 760.077 Z M 908.165 894.957 L 1146.37 814.009 L 1103.83 860.582 L 908.165 894.957 Z M 1676.22 323.68 L 1642.95 331.14 L 1627.63 350.596 L 1670.78 373.58 L 1665.94 426.605 L 1697.19 365.112 L 1676.22 323.68 Z M 1763.72 344.85 L 1800.41 389.205 L 1787.01 433.258 L 1812.01 390.112 L 1791.74 323.68 L 1763.72 344.85 Z M 1723.6 145.25 L 1692.85 186.783 L 1736.8 224.889 L 1714.83 188.295 L 1731.16 169.646 L 1787.81 199.787 L 1835.19 184.565 L 1843.06 227.006 L 1853.54 169.041 L 1831.97 160.17 L 1775.51 178.416 L 1723.6 145.25 Z M 36.077 1062.7 L 57.65 1153.13 L 117.53 1189.72 L 36.077 1062.7 Z M 36.077 1260.49 L 83.86 1301.92 L 131.643 1298.39 L 36.077 1260.49 Z M 165.716 958.97 L 131.945 1046.57 L 161.079 1111.59 L 165.716 958.97 Z M 1145.26 1263.41 L 778.425 1033.57 L 549.39 1076.41 L 756.449 978.829 L 1027.12 1147.28 L 1145.26 1263.41 Z M 1709.99 1068.55 C 1723.7 1069.45 1737.41 1070.77 1751.02 1072.28 C 1764.73 1073.79 1778.34 1075.3 1791.95 1077.12 C 1805.56 1078.83 1819.06 1080.85 1832.67 1082.66 L 1853.04 1085.68 L 1873.3 1088.91 L 1875.52 1089.31 L 1877.23 1091.03 C 1885.19 1099.29 1893.26 1107.56 1901.02 1115.83 C 1905.05 1119.96 1908.88 1124.09 1912.91 1128.33 C 1916.74 1132.46 1920.78 1136.69 1924.61 1140.83 C 1940.23 1157.56 1955.66 1174.7 1970.68 1191.94 L 1973.1 1194.76 L 1971.48 1197.58 C 1968.56 1202.42 1965.64 1207.16 1962.71 1212 C 1959.79 1216.84 1956.77 1221.47 1953.74 1226.21 C 1950.72 1230.95 1947.79 1235.69 1944.67 1240.32 C 1941.64 1244.96 1938.52 1249.6 1935.39 1254.34 C 1937.51 1249.1 1939.83 1243.95 1942.05 1238.91 C 1944.27 1233.67 1946.59 1228.63 1949 1223.59 C 1951.42 1218.55 1953.64 1213.31 1956.06 1208.27 C 1958.48 1203.23 1960.9 1198.19 1963.22 1193.05 L 1964.02 1198.49 C 1947.39 1182.76 1930.86 1166.63 1914.73 1150.4 C 1910.6 1146.37 1906.56 1142.24 1902.63 1138.11 L 1890.64 1125.81 C 1882.67 1117.54 1874.61 1109.27 1866.85 1101.01 L 1870.88 1103.13 L 1850.62 1099.39 L 1830.35 1095.56 C 1816.95 1092.94 1803.44 1090.22 1790.03 1087.4 C 1776.62 1084.58 1763.21 1081.55 1749.81 1078.43 C 1736.6 1075.5 1723.19 1072.28 1709.99 1068.55 L 1709.99 1068.55 Z M 1686.1 1033.57 C 1686.1 1032.46 1686.4 1031.55 1686.6 1030.54 C 1686.9 1029.64 1687.31 1028.53 1687.51 1027.62 C 1688.21 1025.6 1689.02 1023.79 1689.73 1021.87 C 1691.34 1018.14 1692.95 1014.41 1694.67 1010.68 C 1696.38 1007.05 1698.3 1003.33 1700.11 999.797 C 1701.92 996.269 1703.84 992.64 1705.86 989.112 L 1706.96 986.995 L 1709.99 986.692 C 1722.79 985.886 1735.39 985.18 1748.19 984.878 C 1761 984.474 1773.6 984.374 1786.4 984.374 C 1799.2 984.374 1811.81 984.676 1824.61 985.079 C 1837.41 985.482 1850.01 986.188 1862.81 987.095 L 1866.64 987.398 L 1867.35 990.422 C 1868.06 994.051 1868.66 997.479 1869.37 1001.11 C 1870.07 1004.74 1870.68 1008.16 1871.18 1011.79 C 1871.89 1015.42 1872.29 1018.95 1872.79 1022.58 C 1873.3 1026.21 1873.7 1029.74 1874.31 1033.37 C 1872.79 1030.04 1871.38 1026.71 1870.07 1023.39 C 1868.76 1020.06 1867.25 1016.73 1866.04 1013.3 C 1864.73 1009.98 1863.52 1006.55 1862.21 1003.23 C 1861 999.797 1859.69 996.471 1858.48 992.942 L 1863.02 996.37 C 1850.21 997.277 1837.61 997.983 1824.81 998.386 C 1812.01 998.789 1799.4 999.092 1786.6 999.092 C 1773.8 999.092 1761.2 998.991 1748.4 998.587 C 1735.59 998.184 1722.99 997.68 1710.19 996.773 L 1714.32 994.555 L 1699.91 1013.91 L 1692.75 1023.59 L 1689.32 1028.53 C 1688.82 1029.33 1688.11 1030.14 1687.71 1031.05 C 1686.8 1031.65 1686.3 1032.46 1686.1 1033.57 L 1686.1 1033.57 Z M 1827.33 1175.91 C 1828.84 1179.64 1830.15 1183.27 1831.46 1187 C 1832.77 1190.73 1834.08 1194.46 1835.49 1198.19 C 1836.81 1201.92 1838.02 1205.65 1839.22 1209.38 L 1842.85 1220.57 L 1843.36 1222.38 L 1841.85 1224.4 C 1836.91 1231.15 1831.87 1237.8 1826.83 1244.46 L 1819.26 1254.44 L 1811.5 1264.32 C 1806.26 1270.87 1801.12 1277.32 1795.78 1283.87 C 1790.53 1290.43 1785.09 1296.78 1779.75 1303.23 L 1777.63 1305.85 L 1774.2 1305.85 L 1759.18 1305.75 L 1744.16 1305.65 C 1739.12 1305.65 1734.18 1305.35 1729.14 1305.35 C 1724.1 1305.24 1719.16 1305.04 1714.12 1304.84 L 1711.9 1304.74 L 1710.39 1303.63 C 1704.85 1299.2 1699.2 1294.86 1693.66 1290.33 C 1688.11 1285.79 1682.57 1281.25 1677.13 1276.72 C 1671.68 1272.18 1666.24 1267.54 1660.9 1262.7 C 1655.55 1257.87 1650.21 1253.23 1645.07 1248.19 C 1651.32 1251.62 1657.57 1255.24 1663.72 1258.87 C 1669.87 1262.6 1676.02 1266.33 1681.96 1270.06 C 1687.91 1273.79 1694.06 1277.62 1699.91 1281.65 C 1705.86 1285.49 1711.8 1289.52 1717.75 1293.55 L 1714.02 1292.34 C 1719.06 1292.24 1724 1291.94 1729.04 1291.84 C 1734.08 1291.74 1739.02 1291.54 1744.06 1291.54 L 1759.08 1291.43 L 1774.1 1291.33 L 1768.56 1293.95 C 1774 1287.6 1779.35 1281.15 1784.79 1274.9 C 1790.23 1268.55 1795.67 1262.3 1801.32 1255.95 L 1809.69 1246.67 L 1818.06 1237.4 C 1823.8 1231.25 1829.35 1225.1 1835.19 1219.05 L 1834.29 1222.88 L 1832.27 1211.29 C 1831.56 1207.46 1830.96 1203.53 1830.45 1199.6 C 1829.75 1195.77 1829.24 1191.73 1828.74 1187.9 C 1828.44 1183.77 1827.83 1179.74 1827.33 1175.91 L 1827.33 1175.91 Z" class="st16" style=""/>
  <linearGradient id="SVGID_25_" x1="1022.06" x2="1548.986" y1="985.139" y2="985.139" gradientTransform="matrix(1.008077, 0, 0, -1.008077, -8.076383, 2008.075577)" gradientUnits="userSpaceOnUse">
    <stop offset="0" style="stop-color:#aea9ae"/>
    <stop offset="1" style="stop-color:#9bc2db"/>
  </linearGradient>
  <path d="M 1553.43 775.5 L 1553.43 824.997 L 1522.08 951.107 L 1536.4 824.997 L 1446.98 853.021 L 1461.7 946.167 L 1439.42 933.264 L 1457.97 1050.91 L 1393.35 933.264 L 1329.74 949.293 L 1256.25 1051.01 L 1268.35 1168.05 L 1251.72 1235.38 L 1167.24 1254.44 L 1022.28 1124.5 L 1086.8 1168.05 L 1178.43 1212.5 L 1232.06 1151.71 L 1179.64 898.082 L 1226.52 893.445 L 1249.4 961.289 L 1316.94 792.033 L 1553.43 775.5 Z" style="fill: url(&quot;#SVGID_25_&quot;);"/>
  <path d="M 1092.94 1561.9 L 1131.55 1594.97 L 1104.64 1645.17 L 1141.63 1704.95 L 1063.91 1640.53 L 1092.94 1561.9 Z M 1182.26 1704.95 L 1212.7 1708.17 L 1258.47 1759.18 L 1258.47 1791.74 L 1247.38 1760.89 L 1203.03 1714.93 L 1182.26 1704.95 Z" class="st16" style=""/>
  <path d="M 1197.08 1693.76 L 1227.72 1693.76 L 1264.42 1718.45 L 1284.28 1748.39 L 1278.33 1772.09 L 1267.75 1742.55 L 1258.47 1726.52 L 1218.75 1701.52 L 1197.08 1693.76 Z M 521.164 1501.11 L 478.321 1668.05 L 799.897 1724.7 L 528.725 1633.47 L 521.164 1501.11 Z M 725.4 1789.63 L 760.28 1807.77 L 797.075 1838.92 L 775.905 1801.62 L 725.4 1789.63 Z M 791.329 1753.13 L 826.208 1771.28 L 863.003 1802.43 L 841.833 1765.13 L 791.329 1753.13 Z M 850.603 1727.22 L 885.382 1745.27 L 922.278 1776.42 L 901.108 1739.22 L 850.603 1727.22 Z M 837.297 1660.89 L 872.176 1679.04 L 908.87 1710.19 L 887.701 1672.89 L 837.297 1660.89 Z M 931.552 1614.83 L 956.855 1650.21 L 990.726 1672.49 L 980.444 1644.26 L 931.552 1614.83 Z M 929.737 1568.76 L 967.339 1573.9 L 1004.13 1605.05 L 979.637 1561.9 L 929.737 1568.76 Z" class="st16" style=""/>
  <linearGradient id="SVGID_26_" x1="1438.819" x2="1163.929" y1="450.354" y2="450.354" gradientTransform="matrix(1.008077, 0, 0, -1.008077, -8.076383, 2008.075577)" gradientUnits="userSpaceOnUse">
    <stop offset="0" style="stop-color:#aea9ae"/>
    <stop offset="1" style="stop-color:#9bc2db"/>
  </linearGradient>
  <path d="M 1442.34 1583.47 L 1165.22 1524.7 L 1229.74 1580.35 L 1442.34 1583.47 Z" style="fill: url(&quot;#SVGID_26_&quot;);"/>
  <path d="M 1732.17 176.501 L 1720.98 189.404 L 1739.83 212.086 L 1770.17 196.058 L 1732.17 176.501 Z M 1820.78 218.638 L 1834.49 207.146 L 1831.46 192.328 L 1802.13 200.997 L 1820.78 218.638 Z" class="st4" style=""/>
  <path d="M 1879.85 1077.02 L 1821.38 1071.67 L 1820.88 1071.67 L 1820.78 1071.17 L 1820.37 1068.95 L 1820.37 1068.85 L 1820.88 1069.35 L 1741.74 1059.07 L 1737.61 1058.57 L 1741.44 1057.26 L 1814.93 1032.46 L 1816.24 1032.06 L 1816.54 1033.37 L 1822.09 1068.35 L 1820.98 1067.24 L 1879.95 1075 L 1878.34 1076.51 L 1874.51 974.494 L 1876.22 976.107 L 1686.5 976.511 L 1688.32 975.301 L 1580.05 1205.14 L 1579.74 1205.85 L 1579.04 1206.25 L 1535.89 1232.87 L 1533.88 1234.17 L 1532.37 1232.36 L 1489.32 1177.22 L 1488.92 1176.82 L 1488.82 1176.31 L 1454.74 1051.81 L 1454.74 1051.61 L 1433.67 935.179 L 1432.57 928.929 L 1438.31 931.55 L 1462.91 943.244 L 1458.27 946.672 L 1443.45 853.424 L 1443.05 850.501 L 1445.87 849.594 L 1535.09 821.67 L 1540.33 820.057 L 1539.62 825.4 L 1525.51 951.51 L 1525.11 949.293 L 1596.88 1078.02 L 1589.72 1079.64 L 1600.41 911.49 L 1600.51 910.179 L 1601.32 909.07 L 1703.34 785.077 L 1702.43 786.891 L 1718.26 699.491 L 1720.78 704.128 L 1677.73 686.285 L 1670.78 683.463 L 1676.72 678.926 L 1733.98 635.881 L 1732.27 638.805 L 1739.22 573.179 L 1743.86 578.018 L 1644.57 586.788 L 1646.18 586.385 L 1563.52 629.027 L 1550.91 635.579 L 1557.67 623.079 L 1637.61 474.69 L 1638.11 473.783 L 1638.92 473.279 L 1752.13 388.903 L 1755.55 386.382 L 1758.38 389.709 L 1775.31 410.173 L 1776.22 411.282 L 1776.32 412.592 L 1780.86 456.444 L 1772.49 454.428 L 1814.43 389.306 L 1813.92 393.036 L 1789.93 315.011 L 1789.12 312.39 L 1791.24 310.575 L 1844.87 260.474 L 1843.36 263.296 L 1854.65 165.412 L 1857.07 169.948 L 1829.24 155.331 L 1832.47 155.734 L 1768.15 172.368 L 1766.14 172.872 L 1764.42 171.662 L 1720.88 141.017 L 1725.31 141.42 L 1670.67 166.218 L 1672.29 165.009 L 1607.87 245.05 L 1607.16 245.957 L 1606.06 246.361 L 1463.31 301.502 L 1462.91 301.603 L 1462.51 301.704 L 1177.72 355.334 L 1180.14 353.721 L 1136.09 421.363 L 1135.59 422.27 L 1134.68 422.673 L 1110.99 433.056 L 1110.89 433.157 L 1110.79 433.157 L 1048.29 452.613 L 1047.38 452.916 L 1046.47 452.613 L 909.072 418.036 L 912.399 413.197 L 974.698 504.932 L 973.488 503.823 L 1019.96 525.699 L 1024.19 527.715 L 1020.46 530.638 L 1001.31 545.457 L 1000.5 545.961 L 999.597 545.961 L 477.111 545.155 L 478.22 541.525 L 732.154 706.346 L 731.247 706.044 L 985.282 706.144 L 985.585 709.37 L 646.972 761.689 L 647.274 758.665 L 923.891 857.86 L 922.983 857.86 L 1086.8 823.283 L 1087.7 826.71 L 866.027 904.231 L 865.624 900.401 L 1057.16 931.046 L 1056.25 931.046 L 1177.93 898.687 L 1180.35 897.981 L 1180.85 900.502 L 1234.88 1151.01 L 1235.18 1152.32 L 1234.28 1153.43 L 1180.65 1214.32 L 1179.14 1215.93 L 1177.12 1215.02 L 1085.38 1170.67 L 1085.28 1170.57 L 1085.18 1170.46 L 757.659 950.603 L 761.288 950.905 L 478.724 1087.3 L 480.942 1084.38 L 439.51 1306.35 L 439.006 1308.87 L 436.586 1309.68 L 376.707 1328.43 L 375.396 1328.83 L 374.086 1328.43 L 273.278 1295.57 L 272.068 1295.16 L 271.262 1294.26 L 202.007 1211.8 L 201.301 1210.99 L 200.999 1210.08 L 171.563 1098.99 L 171.462 1098.49 L 171.462 1097.98 L 171.563 940.421 L 179.829 943.446 L 68.941 1072.38 L 69.445 1066.93 L 112.49 1145.67 L 104.526 1151.01 L 25.694 1050.1 L 34.464 1046.67 L 52.408 1237 L 50.291 1233.37 L 100.493 1269.15 L 132.853 1292.24 L 95.655 1278.03 L 23.174 1250.2 L 29.122 1242.44 L 83.961 1320.77 L 82.449 1319.26 L 148.68 1360.18 L 144.446 1359.68 L 206.543 1339.62 L 209.467 1338.71 L 211.684 1340.83 L 284.972 1411.9 L 285.274 1412.2 L 285.576 1412.5 L 379.731 1537.81 L 380.638 1539.02 L 380.739 1540.53 L 395.356 1675.01 L 395.658 1677.12 L 394.449 1678.84 L 331.645 1764.83 L 328.218 1756.26 L 721.267 1826.32 L 721.57 1826.32 L 721.872 1826.42 L 820.664 1854.14 L 814.413 1861.7 L 795.764 1823.19 L 797.276 1825.01 L 772.679 1805.65 L 753.022 1790.33 L 777.215 1796.28 L 898.386 1826.42 L 892.035 1833.07 L 878.023 1786.7 L 880.241 1789.63 L 866.934 1781.26 L 848.991 1769.97 L 870.16 1771.58 L 926.612 1776.02 L 921.572 1783.58 L 900.705 1741.24 L 903.729 1743.86 L 785.885 1704.54 L 756.449 1694.66 C 754.03 1693.76 751.509 1693.15 748.989 1692.45 L 741.53 1690.33 L 726.61 1686.1 L 666.932 1668.96 L 669.15 1659.08 L 826.41 1687.2 L 827.014 1687.2 L 909.072 1710.29 L 918.245 1712.81 L 910.786 1718.76 L 900.302 1727.13 L 898.487 1718.56 L 1003.83 1746.48 L 1002.62 1746.38 L 1094.66 1746.48 L 1095.26 1746.48 L 1188.51 1758.38 L 1189.32 1758.48 L 1190.02 1758.88 L 1266.23 1798.3 L 1259.58 1802.93 L 1254.24 1759.68 L 1252.02 1741.54 L 1262.4 1756.46 L 1281.56 1783.98 L 1273.59 1785.29 L 1284.78 1746.28 L 1285.49 1750.11 L 1261.9 1717.75 L 1263.01 1718.86 L 1218.35 1688.01 L 1221.78 1688.72 L 1150.51 1704.95 L 1147.58 1705.65 L 1145.97 1703.03 L 1110.38 1645.07 L 1109.07 1642.95 L 1110.28 1640.83 L 1159.78 1552.02 L 1161.9 1548.19 L 1165.63 1550.71 L 1231.05 1595.87 L 1228.83 1595.17 L 1450.81 1591.84 L 1447.59 1593.96 L 1560.89 1358.17 L 1561.3 1357.26 L 1562.1 1356.76 L 1638.92 1310.18 L 1640.03 1309.48 L 1641.24 1309.78 L 1769.97 1335.08 L 1767.05 1336.29 L 1848.5 1222.28 L 1848.2 1224.8 L 1824.41 1169.15 L 1829.24 1168.85 L 1814.83 1213.31 L 1814.73 1213.71 L 1814.43 1214.11 L 1760.59 1278.43 L 1758.98 1280.24 L 1757.27 1278.63 L 1700.82 1226.82 L 1699.51 1225.51 L 1700.61 1223.99 L 1761.1 1139.82 L 1761.6 1139.01 L 1762.51 1139.01 L 1852.03 1135.69 L 1852.73 1135.69 L 1853.24 1136.09 L 1928.24 1200.71 L 1928.94 1201.41 L 1928.64 1202.32 L 1917.55 1240.02 L 1917.55 1239.52 L 1922.39 1290.83 L 1920.17 1290.12 L 1987.41 1196.37 L 1987.41 1197.58 L 1879.85 1077.02 L 1879.85 1077.02 Z M 1880.15 1076.01 L 1988.12 1196.27 L 1988.62 1196.78 L 1988.22 1197.48 L 1921.38 1291.54 L 1919.57 1294.16 L 1919.27 1290.83 L 1914.22 1239.52 L 1914.22 1239.21 L 1914.33 1238.91 L 1925.21 1201.21 L 1925.62 1202.72 L 1850.21 1138.41 L 1851.42 1138.81 L 1761.9 1142.54 L 1763.42 1141.73 L 1703.34 1226.11 L 1703.03 1223.29 L 1759.79 1274.8 L 1756.46 1275.1 L 1809.99 1210.48 L 1809.59 1211.29 L 1823.8 1166.84 L 1825.82 1160.48 L 1828.44 1166.63 L 1852.53 1222.28 L 1853.04 1223.59 L 1852.23 1224.8 L 1771.18 1339.02 L 1770.07 1340.53 L 1768.26 1340.12 L 1639.32 1315.22 L 1641.54 1314.82 L 1564.83 1361.7 L 1566.04 1360.39 L 1453.63 1596.68 L 1452.73 1598.7 L 1450.51 1598.7 L 1228.63 1602.53 L 1227.42 1602.53 L 1226.31 1601.82 L 1160.79 1556.96 L 1166.63 1555.65 L 1117.34 1644.56 L 1117.24 1640.33 L 1152.93 1698.09 L 1148.39 1696.28 L 1219.66 1679.95 L 1221.47 1679.54 L 1223.09 1680.65 L 1267.85 1711.4 L 1268.55 1711.8 L 1268.95 1712.51 L 1292.64 1744.87 L 1293.96 1746.58 L 1293.45 1748.7 L 1282.36 1787.71 L 1279.84 1796.78 L 1274.4 1789.02 L 1255.04 1761.6 L 1263.31 1758.38 L 1268.65 1801.62 L 1269.76 1810.19 L 1262 1806.16 L 1185.79 1766.84 L 1187.4 1767.35 L 1094.15 1755.65 L 1094.66 1755.65 L 1002.62 1755.75 L 1001.92 1755.75 L 1001.21 1755.65 L 896.168 1728.03 L 886.894 1725.51 L 894.455 1719.36 L 904.939 1710.99 L 906.652 1719.56 L 824.595 1696.58 L 825.099 1696.68 L 667.839 1668.76 L 670.057 1658.88 L 729.836 1676.02 L 744.755 1680.25 L 752.215 1682.37 C 754.735 1683.17 757.256 1683.68 759.675 1684.58 L 789.212 1694.46 L 907.157 1733.78 L 909.173 1734.48 L 910.08 1736.5 L 930.947 1778.84 L 935.08 1787.11 L 925.907 1786.4 L 869.454 1782.17 L 872.68 1772.49 L 885.987 1780.86 L 887.701 1781.96 L 888.205 1783.78 L 902.217 1829.95 L 904.838 1838.92 L 895.765 1836.7 L 774.494 1806.76 L 779.03 1797.29 L 803.627 1816.64 L 804.534 1817.45 L 805.038 1818.56 L 823.688 1856.86 L 828.93 1867.65 L 817.438 1864.42 L 718.646 1836.7 L 719.15 1836.8 L 326.101 1766.64 L 317.532 1765.13 L 322.573 1758.17 L 385.376 1672.29 L 384.267 1676.02 L 369.751 1541.54 L 370.86 1544.16 L 277.209 1418.75 L 277.713 1419.46 L 204.628 1348.39 L 209.87 1349.6 L 147.772 1369.56 L 145.555 1370.37 L 143.538 1369.16 L 77.308 1328.23 L 76.4 1327.72 L 75.695 1326.82 L 20.855 1248.39 L 11.279 1234.68 L 26.904 1240.63 L 99.183 1268.45 L 94.344 1277.22 L 44.344 1241.43 L 42.529 1240.12 L 42.227 1237.9 L 24.384 1047.38 L 22.771 1030.74 L 33.053 1043.95 L 111.784 1145.06 L 103.82 1150.4 L 61.178 1071.88 L 59.566 1068.95 L 61.683 1066.43 L 172.773 937.7 L 181.039 928.123 L 181.039 940.522 L 180.938 1098.09 L 180.837 1096.88 L 209.971 1207.96 L 209.063 1206.25 L 278.217 1288.81 L 276.201 1287.5 L 377.009 1320.57 L 374.388 1320.57 L 434.268 1301.82 L 431.344 1305.14 L 473.179 1083.16 L 473.583 1081.15 L 475.397 1080.24 L 758.364 944.555 L 760.179 943.647 L 761.893 944.857 L 1088.71 1165.73 L 1088.31 1165.42 L 1179.94 1210.08 L 1176.52 1210.79 L 1230.35 1150.1 L 1229.64 1152.52 L 1176.21 901.913 L 1179.14 903.727 L 1057.46 935.784 L 1056.96 935.885 L 1056.45 935.784 L 865.12 904.635 L 857.358 903.324 L 864.817 900.804 L 1086.29 823.686 L 1087.2 827.114 L 923.387 861.287 L 922.983 861.388 L 922.58 861.287 L 646.165 761.79 L 640.419 759.673 L 646.367 758.766 L 984.98 706.447 L 985.282 709.673 L 730.743 709.673 L 730.34 709.37 L 476.002 545.054 L 470.458 541.425 L 477.212 541.425 L 999.698 540.618 L 997.984 541.122 L 1017.14 526.203 L 1017.64 531.142 L 970.766 509.469 L 969.96 509.065 L 969.556 508.36 L 906.955 416.927 L 902.318 410.173 L 910.282 412.189 L 1047.88 446.363 L 1046.07 446.363 L 1108.57 426.706 L 1108.17 426.806 L 1131.86 416.322 L 1130.35 417.633 L 1174.3 349.89 L 1175.1 348.58 L 1176.62 348.277 L 1461.2 293.841 L 1460.49 294.143 L 1603.13 238.699 L 1601.42 240.01 L 1665.73 159.868 L 1666.44 159.061 L 1667.35 158.658 L 1721.98 133.758 L 1724.2 132.65 L 1726.22 134.162 L 1769.77 164.807 L 1766.04 164.102 L 1830.35 147.468 L 1832.07 147.065 L 1833.58 147.871 L 1861.5 162.489 L 1864.33 164.001 L 1863.92 167.025 L 1852.63 264.909 L 1852.53 266.522 L 1851.32 267.631 L 1797.69 317.732 L 1798.9 313.095 L 1822.89 391.12 L 1823.6 393.137 L 1822.39 394.85 L 1780.45 459.972 L 1773.4 470.859 L 1772.09 457.956 L 1767.55 414.004 L 1768.66 416.423 L 1751.72 395.959 L 1757.97 396.766 L 1644.67 481.041 L 1645.98 479.529 L 1565.93 627.918 L 1560.09 621.97 L 1643.05 579.53 L 1643.86 579.127 L 1644.67 579.026 L 1743.96 570.256 L 1749.2 569.852 L 1748.7 575.094 L 1741.74 640.72 L 1741.64 642.535 L 1740.13 643.644 L 1682.87 686.487 L 1681.96 679.128 L 1724.81 697.072 L 1728.03 698.382 L 1727.33 701.709 L 1711.2 789.109 L 1711.1 790.218 L 1710.39 791.024 L 1608.17 914.715 L 1609.08 912.498 L 1598.19 1080.64 L 1597.39 1093.65 L 1591.04 1082.16 L 1519.66 953.224 L 1519.16 952.115 L 1519.26 950.905 L 1533.78 824.795 L 1538.31 828.525 L 1449 856.247 L 1451.42 852.517 L 1465.93 945.865 L 1466.84 952.014 L 1461.3 949.393 L 1436.7 937.498 L 1441.24 934.071 L 1462 1050.6 L 1462 1050.3 L 1495.67 1174.9 L 1495.17 1173.99 L 1538.01 1229.23 L 1534.38 1228.53 L 1577.63 1202.02 L 1576.72 1203.13 L 1685.9 973.688 L 1686.4 972.478 L 1687.71 972.478 L 1877.43 972.882 L 1879.04 972.882 L 1879.04 974.494 L 1882.37 1076.51 L 1882.37 1078.23 L 1880.66 1077.92 L 1821.79 1069.96 L 1820.88 1069.86 L 1820.78 1068.95 L 1815.33 1033.77 L 1816.95 1034.68 L 1743.36 1058.87 L 1743.26 1057.06 L 1822.19 1067.84 L 1822.69 1067.84 L 1822.79 1068.25 L 1822.79 1068.35 L 1823.1 1070.56 L 1822.39 1070.06 L 1880.15 1076.01 L 1880.15 1076.01 Z" class="st30" style=""/>
  <path d="M 941.028 1688.82 C 939.314 1690.83 937.6 1692.65 935.786 1694.56 C 934.072 1696.38 932.459 1698.19 930.746 1699.91 C 927.419 1703.33 923.991 1706.56 920.463 1709.79 L 917.036 1713.01 L 914.515 1708.47 C 912.298 1704.34 909.979 1700.21 907.862 1696.08 C 905.745 1691.94 903.729 1687.71 902.015 1683.27 L 903.225 1684.79 C 901.41 1683.07 899.394 1681.16 897.479 1679.44 L 891.935 1674 C 890.12 1672.18 888.205 1670.37 886.189 1668.66 C 884.374 1666.94 882.358 1665.23 880.342 1663.62 L 874.898 1659.08 L 881.652 1660.89 C 885.785 1662 889.818 1662.91 893.951 1663.72 C 898.084 1664.52 902.217 1665.23 906.451 1665.83 L 918.951 1667.65 C 923.084 1668.35 927.217 1669.16 931.35 1669.87 C 939.617 1671.58 947.883 1673.19 956.149 1675.21 C 964.415 1677.22 972.48 1679.44 980.545 1681.96 L 987.903 1684.18 L 983.065 1689.52 L 980.847 1692.04 L 979.234 1693.86 L 977.419 1693.76 C 974.496 1693.45 971.573 1693.25 968.649 1692.95 C 965.726 1692.65 962.802 1692.24 959.677 1691.84 C 956.552 1691.44 953.73 1691.04 950.605 1690.63 C 947.278 1689.93 944.254 1689.42 941.028 1688.82 Z M 940.625 1687.91 C 943.447 1687.41 946.472 1687 949.395 1686.7 C 952.318 1686.3 955.343 1685.99 958.468 1685.79 C 961.492 1685.49 964.617 1685.29 967.742 1684.99 C 970.766 1684.89 973.992 1684.58 977.218 1684.48 L 973.589 1686.1 L 975.605 1683.27 L 978.125 1690.83 C 969.859 1689.32 961.593 1687.51 953.326 1685.39 C 945.161 1683.27 937.096 1680.85 928.931 1678.43 C 924.899 1677.22 920.766 1676.02 916.834 1674.7 L 904.838 1670.57 C 900.806 1669.26 896.874 1667.75 892.842 1666.54 C 888.81 1665.33 884.676 1664.32 880.543 1663.31 L 881.854 1660.69 C 883.971 1662.31 886.088 1663.72 888.205 1665.23 C 890.322 1666.74 892.64 1668.05 894.858 1669.46 L 901.511 1673.6 C 903.729 1674.91 905.947 1676.42 908.064 1677.83 L 908.568 1678.23 L 909.273 1679.34 C 911.693 1683.47 913.709 1687.61 915.624 1691.84 C 917.641 1696.08 919.455 1700.41 921.37 1704.74 L 915.423 1703.43 C 919.556 1700.51 923.79 1697.59 927.923 1695.07 C 930.04 1693.76 932.157 1692.55 934.173 1691.24 C 936.492 1690.03 938.609 1689.02 940.625 1687.91 Z M 994.758 1667.85 C 993.952 1666.74 993.145 1665.43 992.238 1664.12 C 991.331 1662.61 990.222 1661.1 989.315 1659.18 C 988.206 1657.37 987.299 1655.45 986.391 1653.33 C 985.484 1651.32 984.678 1649.2 983.972 1647.08 L 985.787 1649.6 C 983.569 1648.29 981.351 1646.68 979.436 1644.97 C 977.419 1643.15 975.605 1641.24 973.69 1639.42 L 966.734 1632.87 L 975 1635.09 C 978.428 1635.99 981.956 1636.6 985.383 1636.6 C 988.811 1636.7 992.44 1636.3 995.867 1635.89 C 999.496 1635.49 1002.92 1635.19 1006.35 1635.19 L 1016.84 1635.19 L 1026.92 1635.59 L 1020.57 1643.96 C 1018.55 1646.58 1016.33 1649.2 1014.01 1651.52 C 1011.59 1653.94 1009.17 1656.06 1006.86 1658.17 C 1004.44 1660.19 1002.22 1662 1000.1 1663.62 C 998.387 1665.13 996.573 1666.64 994.758 1667.85 L 994.758 1667.85 Z M 995.061 1666.74 C 997.077 1663.41 998.791 1660.49 1000.3 1657.67 L 1004.44 1649.7 C 1005.75 1647.29 1006.96 1645.07 1008.27 1642.95 C 1009.58 1640.83 1011.09 1638.92 1012.8 1637.1 L 1016.53 1645.87 C 1013.11 1645.47 1009.58 1644.77 1006.15 1644.26 C 1002.72 1643.76 999.194 1642.95 995.766 1642.04 C 992.339 1641.14 988.811 1640.23 985.383 1639.83 C 981.956 1639.32 978.428 1639.32 974.899 1639.72 L 976.21 1635.49 C 978.73 1636.4 981.25 1637.2 983.77 1638.31 C 986.291 1639.42 988.609 1640.53 990.726 1642.04 L 992.339 1643.15 L 992.742 1644.66 C 993.145 1646.18 993.448 1647.59 993.65 1649.2 C 993.952 1650.81 993.952 1652.43 994.053 1654.14 C 994.154 1655.85 994.154 1657.87 994.355 1659.99 C 994.456 1661.9 994.658 1664.22 995.061 1666.74 L 995.061 1666.74 Z M 1030.65 1624.7 L 1025.81 1631.06 L 1025.1 1631.96 L 1024.4 1630.85 C 1017.04 1618.86 1009.78 1606.76 1002.52 1594.66 C 995.363 1582.57 988.105 1570.47 980.948 1558.17 L 983.972 1559.68 L 954.839 1564.22 L 925.705 1568.65 C 906.249 1571.58 886.793 1574.4 867.337 1577.22 L 838.204 1581.36 C 828.527 1582.67 818.748 1583.98 809.071 1585.39 C 799.393 1586.7 789.615 1587.91 779.736 1589.12 C 770.058 1590.33 760.179 1591.54 750.401 1592.75 L 748.586 1593.05 L 747.276 1591.84 L 694.049 1539.52 C 685.077 1530.75 676.307 1522.08 667.234 1513.41 C 658.262 1504.74 649.29 1496.07 640.218 1487.61 L 639.512 1486.9 L 639.815 1485.99 C 643.242 1474.1 646.468 1462.3 649.795 1450.41 C 653.121 1438.51 656.347 1426.72 659.472 1414.82 L 668.948 1379.14 L 678.222 1343.45 L 681.952 1347.18 L 677.416 1348.49 L 670.46 1350.61 L 673.888 1344.06 L 674.19 1343.55 L 674.896 1342.34 L 676.408 1342.04 L 717.033 1333.47 C 730.642 1330.65 744.151 1327.93 757.659 1325.1 L 839.111 1308.77 L 841.228 1308.37 L 842.942 1309.68 L 899.495 1351.52 C 918.245 1365.63 937.197 1379.44 955.847 1393.75 C 974.597 1407.87 993.246 1421.98 1011.9 1436.39 C 1030.55 1450.61 1049.19 1464.92 1067.64 1479.24 L 1069.76 1480.85 L 1069.05 1483.27 L 1059.58 1518.86 L 1050 1554.24 C 1046.78 1566.13 1043.45 1577.83 1040.32 1589.52 C 1037.3 1601.22 1033.97 1612.91 1030.65 1624.7 L 1030.65 1624.7 Z M 1029.74 1624.1 C 1032.26 1612.1 1034.98 1600.11 1037.6 1588.11 C 1040.22 1576.12 1042.84 1564.12 1045.57 1552.32 L 1053.73 1516.64 L 1062 1481.05 L 1063.51 1485.09 C 1044.46 1471.38 1025.61 1457.57 1006.65 1443.65 C 987.702 1429.84 968.851 1415.83 949.899 1402.02 C 930.947 1388.21 912.197 1373.89 893.447 1359.98 L 837.297 1317.54 L 841.128 1318.45 L 759.473 1333.47 C 745.864 1335.99 732.154 1338.41 718.545 1340.83 L 677.617 1347.99 L 679.734 1346.37 L 679.432 1346.88 L 675.803 1342.44 L 680.339 1341.23 L 685.581 1339.72 L 684.069 1344.76 L 663.202 1415.43 C 659.774 1427.32 656.246 1439.02 652.92 1450.81 C 649.593 1462.61 646.165 1474.4 642.94 1486.19 L 642.536 1484.58 C 651.609 1493.15 660.682 1501.62 669.855 1509.98 C 679.029 1518.55 688.202 1526.92 697.376 1535.19 L 752.618 1585.39 L 749.393 1584.28 C 759.07 1582.77 768.848 1581.26 778.526 1579.85 C 788.203 1578.33 797.982 1576.92 807.659 1575.61 C 817.337 1574.3 827.115 1572.79 836.793 1571.58 L 866.128 1567.75 C 885.584 1565.13 905.14 1562.71 924.596 1560.19 L 953.931 1556.56 L 983.266 1553.13 L 985.383 1552.83 L 986.291 1554.54 C 992.944 1566.94 999.597 1579.44 1006.15 1591.84 C 1012.7 1604.34 1019.36 1616.74 1025.71 1629.44 L 1024.4 1629.34 L 1029.74 1624.1 Z" class="st30" style=""/>
</svg>