<svg xmlns="http://www.w3.org/2000/svg" xml:space="preserve" style="enable-background:new 0 0 2000 2000" viewBox="0 0 2000 2000">
  <style>
    .st2{fill:#c3cad7}.st3{fill:#9299a5}.st6{fill:#c2d2e8}.st8{opacity:.5;fill:#c3cad7}.st12{fill:#5e5e5f}.st14{fill:#c3cad7;stroke:#5e5e5f;stroke-width:1.1167;stroke-miterlimit:10}.st18{fill:#f5f8fc}.st26{fill:#848d9b}
  </style>
  <g id="Layer_2">
    <path d="m1380.7 715.9-10.9-58.2-83.3 7.2-69-21.7-25 10.7-98.9 119-101 121.7L756.2 1179v123.1l145.1 64.9 70.3-33.7 181-264.9 50.8-74.4 13.3-19.5 97 30.7 60.3-105.4 212.1 80.6 87.8 44.7 36.2-81.5V811.5l-329.4-95.6zm-81 237.4-60.2-18.3 45.6-69 52.3 20.1-37.7 67.2z" class="st2"/>
    <path d="m933.5 1250.6 38.1 82.6 245.1-358.7 97 30.7 60.3-105.4 212.1 80.6 15.3 15.5 72.6 29.2 36.2-81.5-76.6-22.1-16.2-22.2-359.1-86.2-324.8 437.5zm306-315.7 45.6-69 50.1 19.2 2.3.9-37.7 67.3-60.3-18.4z" class="st3"/>
    <linearGradient id="SVGID_3_" x1="928.14" x2="1140.234" y1="919.741" y2="919.741" gradientTransform="matrix(-1 0 0 1 2514.247 0)" gradientUnits="userSpaceOnUse">
      <stop offset="0" style="stop-color:#616772;stop-opacity:0"/>
      <stop offset="1" style="stop-color:#616772"/>
    </linearGradient>
    <path d="M1374 859v40.9l212.1 80.6z" style="fill:url(#SVGID_3_)"/>
    <linearGradient id="SVGID_4_" x1="1166.664" x2="1302.844" y1="881.487" y2="881.487" gradientTransform="matrix(-1 0 0 1 2514.247 0)" gradientUnits="userSpaceOnUse">
      <stop offset="0" style="stop-color:#616772;stop-opacity:0"/>
      <stop offset="1" style="stop-color:#616772"/>
    </linearGradient>
    <path d="m1211.4 924.5 28.1 10.4 45.6-69 50.1 19.2 12.4-23.8-74.1-33.3z" style="fill:url(#SVGID_4_)"/>
    <path d="M1367.6 855.9c-4.8 9.2-9.9 18.3-14.9 27.4l-7.6 13.6-7.7 13.6-7.8 13.5-7.8 13.5c-5.3 9-10.5 17.9-15.9 26.8l-.9 1.5-1.6-.5c-7.9-2.4-15.8-4.8-23.6-7.2l-11.8-3.7-11.8-3.8c-3.9-1.2-7.9-2.5-11.8-3.8-3.9-1.3-7.8-2.5-11.7-3.9-7.8-2.6-15.6-5.3-23.4-8 8 1.9 16 4 24 6.1 4 1 8 2.1 11.9 3.2 4 1.1 8 2.1 11.9 3.3l11.9 3.3 11.9 3.4c7.9 2.2 15.8 4.6 23.7 6.9l-2.5 1c5.2-9 10.6-17.9 15.9-26.8 2.7-4.5 5.4-8.9 8.1-13.3l8.1-13.3 8.2-13.3 8.3-13.2c5.6-8.9 11.1-17.7 16.9-26.3z" class="st6"/>
    <linearGradient id="SVGID_5_" x1="831.174" x2="1127.517" y1="833.596" y2="833.596" gradientTransform="matrix(-1 0 0 1 2514.247 0)" gradientUnits="userSpaceOnUse">
      <stop offset="0" style="stop-color:#616772;stop-opacity:.3939"/>
      <stop offset="1" style="stop-color:#616772"/>
    </linearGradient>
    <path d="M1683.1 818.1v91.5l-27.7-9.5-6.2-26.4-262.5-60.5 52.3-55.6z" style="fill:url(#SVGID_5_)"/>
    <path d="m1617.4 899.3-31.3 81.2 15.3 15.5 32.2-74.4z" class="st8"/>
    <linearGradient id="SVGID_6_" x1="1140.234" x2="1203.465" y1="932.125" y2="932.125" gradientTransform="matrix(-1 0 0 1 2514.247 0)" gradientUnits="userSpaceOnUse">
      <stop offset="0" style="stop-color:#616772;stop-opacity:0"/>
      <stop offset="1" style="stop-color:#616772"/>
    </linearGradient>
    <path d="m1374 859-63.2 111.8 2.9 34.4 60.3-105.3z" style="fill:url(#SVGID_6_)"/>
    <ellipse cx="825.6" cy="1270.7" rx="32.9" ry="40.6" transform="rotate(-64.463 825.646 1270.744)"/>
    <linearGradient id="SVGID_7_" x1="1197.436" x2="1723.818" y1="959.345" y2="959.345" gradientTransform="matrix(-1 0 0 1 2514.247 0)" gradientUnits="userSpaceOnUse">
      <stop offset="0" style="stop-color:#c3cad7"/>
      <stop offset=".807" style="stop-color:#d9e5e4"/>
    </linearGradient>
    <path d="m933.5 1250.6-143.1-62.8 426.3-519.7 100.1 35.6-58.5 109.5z" style="fill:url(#SVGID_7_)"/>
    <linearGradient id="SVGID_8_" x1="1696.354" x2="1357.069" y1="888.261" y2="888.261" gradientUnits="userSpaceOnUse">
      <stop offset="0" style="stop-color:#dde0e7"/>
      <stop offset=".807" style="stop-color:#fff"/>
    </linearGradient>
    <path d="M1695.6 939.5c-5.2-1.3-10.5-2.6-15.7-3.9l-15.6-4c-10.4-2.7-20.8-5.5-31.2-8.3l-.5-.1-.4-.5c-5.6-7.3-11-14.6-16.5-22l1.3.8c-10.9-2.4-21.7-5-32.5-7.4-10.8-2.5-21.7-5-32.5-7.6-21.7-5.1-43.3-10.4-64.9-15.7l-32.4-8.1-32.3-8.3c-21.5-5.6-43.1-11.3-64.5-17.3 21.8 4.3 43.6 9 65.3 13.8l32.6 7.3 32.5 7.5c21.7 5.1 43.3 10.2 64.9 15.5 10.8 2.6 21.6 5.2 32.4 8 10.8 2.7 21.6 5.3 32.4 8.1l.8.2.4.6c5.3 7.5 10.6 14.9 15.8 22.5l-.9-.7c10.3 3.2 20.6 6.4 30.8 9.7l15.4 4.9c5.1 1.6 10.2 3.3 15.3 5z" style="fill:url(#SVGID_8_)"/>
    <path d="M1096.5 995.7c-4.3-.8-174.9 225.3-174.9 225.3l-93.8-38.4 176.3-212.5 92.4 25.6z" class="st2"/>
    <path d="M1096.5 995.7c-.4.1-.6.4-.9.6l-.8.8c-.5.5-1 1.1-1.5 1.6-1 1.1-2 2.2-2.9 3.4l-5.7 6.9c-3.7 4.6-7.4 9.3-11.1 14-7.3 9.4-14.6 18.8-21.8 28.2l-43.3 56.7-43.1 56.9-43 56.9-.5.6-.7-.3-93.8-38.3-1.4-.6 1-1.2 88.2-106.2 88.4-106 .2-.3.3.1 46.3 13.2c15.5 4.5 30.8 8.8 46.1 13zm0 0c-15.5-4.3-31-8.5-46.4-12.6l-46.1-12.4.6-.2-87.9 106.5-88 106.3-.4-1.7 93.7 38.5-1.2.3 43.1-56.8 43.4-56.6c14.5-18.8 29.1-37.7 43.8-56.3 7.3-9.3 14.7-18.7 22.2-27.9 3.7-4.6 7.5-9.3 11.2-13.8 1.9-2.3 3.8-4.6 5.7-6.8 1-1.1 1.9-2.2 2.9-3.3.5-.5 1-1.1 1.5-1.6l.8-.8c.5-.4.7-.7 1.1-.8z" class="st12"/>
    <path d="m989.3 1001 9.6 2.4 9.6 2.5c6.4 1.7 12.7 3.4 19.1 5.1 6.3 1.8 12.7 3.5 19 5.4l9.5 2.8c3.2 1 6.3 1.9 9.5 2.9l-9.6-2.4-9.6-2.5c-6.4-1.7-12.7-3.4-19.1-5.1-6.3-1.8-12.7-3.5-19-5.4l-9.5-2.8c-3.2-1-6.3-1.9-9.5-2.9zM980.6 1011.6l9.6 2.4 9.6 2.5c6.4 1.7 12.7 3.4 19.1 5.1 6.3 1.8 12.7 3.5 19 5.4l9.5 2.8c3.2 1 6.3 1.9 9.5 2.9l-9.6-2.4-9.6-2.5c-6.4-1.7-12.7-3.4-19.1-5.1-6.3-1.8-12.7-3.5-19-5.4l-9.5-2.8c-3.1-1-6.3-1.9-9.5-2.9zM972 1022.2l9.6 2.4 9.6 2.5c6.4 1.7 12.7 3.4 19.1 5.1 6.3 1.8 12.7 3.5 19 5.4l9.5 2.8c3.2 1 6.3 1.9 9.5 2.9l-9.6-2.4-9.6-2.5c-6.4-1.7-12.7-3.4-19.1-5.1-6.3-1.8-12.7-3.5-19-5.4l-9.5-2.8c-3.2-1-6.4-1.9-9.5-2.9zM963.3 1032.8l9.6 2.4 9.6 2.5c6.4 1.7 12.7 3.4 19.1 5.1 6.3 1.8 12.7 3.5 19 5.4l9.5 2.8c3.2 1 6.3 1.9 9.5 2.9l-9.6-2.4-9.6-2.5c-6.4-1.7-12.7-3.4-19.1-5.1-6.3-1.8-12.7-3.5-19-5.4l-9.5-2.8c-3.2-.9-6.4-1.9-9.5-2.9zM954.6 1043.4l9.6 2.4 9.6 2.5c6.4 1.7 12.7 3.4 19.1 5.1 6.3 1.8 12.7 3.5 19 5.4l9.5 2.8c3.2 1 6.3 1.9 9.5 2.9l-9.6-2.4-9.6-2.5c-6.4-1.7-12.7-3.4-19.1-5.1-6.3-1.8-12.7-3.5-19-5.4l-9.5-2.8c-3.2-.9-6.4-1.9-9.5-2.9zM945.9 1054.1l9.6 2.4 9.6 2.5c6.4 1.7 12.7 3.4 19.1 5.1 6.3 1.8 12.7 3.5 19 5.4l9.5 2.8c3.2 1 6.3 1.9 9.5 2.9l-9.6-2.4-9.6-2.5c-6.4-1.7-12.7-3.4-19.1-5.1-6.3-1.8-12.7-3.5-19-5.4l-9.5-2.8c-3.2-1-6.4-1.9-9.5-2.9zM937.2 1064.7l9.6 2.4 9.6 2.5c6.4 1.7 12.7 3.4 19.1 5.1 6.3 1.8 12.7 3.5 19 5.4l9.5 2.8c3.2 1 6.3 1.9 9.5 2.9l-9.6-2.4-9.6-2.5c-6.4-1.7-12.7-3.4-19.1-5.1-6.3-1.8-12.7-3.5-19-5.4l-9.5-2.8c-3.2-1-6.4-1.9-9.5-2.9zM928.5 1075.3l9.6 2.4 9.6 2.5c6.4 1.7 12.7 3.4 19.1 5.1 6.3 1.8 12.7 3.5 19 5.4l9.5 2.8c3.2 1 6.3 1.9 9.5 2.9l-9.6-2.4-9.6-2.5c-6.4-1.7-12.7-3.4-19.1-5.1-6.3-1.8-12.7-3.5-19-5.4l-9.5-2.8c-3.2-1-6.4-1.9-9.5-2.9zM919.8 1085.9l9.6 2.4 9.6 2.5c6.4 1.7 12.7 3.4 19.1 5.1 6.3 1.8 12.7 3.5 19 5.4l9.5 2.8c3.2 1 6.3 1.9 9.5 2.9l-9.6-2.4-9.6-2.5c-6.4-1.7-12.7-3.4-19.1-5.1-6.3-1.8-12.7-3.5-19-5.4l-9.5-2.8c-3.2-1-6.4-1.9-9.5-2.9zM911.1 1096.5l9.6 2.4 9.6 2.5c6.4 1.7 12.7 3.4 19.1 5.1 6.3 1.8 12.7 3.5 19 5.4l9.5 2.8c3.2 1 6.3 1.9 9.5 2.9l-9.6-2.4-9.6-2.5c-6.4-1.7-12.7-3.4-19.1-5.1-6.3-1.8-12.7-3.5-19-5.4l-9.5-2.8c-3.2-1-6.3-1.9-9.5-2.9zM902.4 1107.1l9.6 2.4 9.6 2.5c6.4 1.7 12.7 3.4 19.1 5.1 6.3 1.8 12.7 3.5 19 5.4l9.5 2.8c3.2 1 6.3 1.9 9.5 2.9l-9.6-2.4-9.6-2.5c-6.4-1.7-12.7-3.4-19.1-5.1-6.3-1.8-12.7-3.5-19-5.4l-9.5-2.8c-3.2-.9-6.3-1.9-9.5-2.9zM893.7 1117.8l9.6 2.4 9.6 2.5c6.4 1.7 12.7 3.4 19.1 5.1 6.3 1.8 12.7 3.5 19 5.4l9.5 2.8c3.2 1 6.3 1.9 9.5 2.9l-9.6-2.4-9.6-2.5c-6.4-1.7-12.7-3.4-19.1-5.1-6.3-1.8-12.7-3.5-19-5.4l-9.5-2.8c-3.2-1-6.3-1.9-9.5-2.9zM885 1128.4l9.6 2.4 9.6 2.5c6.4 1.7 12.7 3.4 19.1 5.1 6.3 1.8 12.7 3.5 19 5.4l9.5 2.8c3.2 1 6.3 1.9 9.5 2.9l-9.6-2.4-9.6-2.5c-6.4-1.7-12.7-3.4-19.1-5.1-6.3-1.8-12.7-3.5-19-5.4l-9.5-2.8c-3.2-1-6.3-1.9-9.5-2.9zM876.3 1139l9.6 2.4 9.6 2.5c6.4 1.7 12.7 3.4 19.1 5.1 6.3 1.8 12.7 3.5 19 5.4l9.5 2.8c3.2 1 6.3 1.9 9.5 2.9l-9.6-2.4-9.6-2.5c-6.4-1.7-12.7-3.4-19.1-5.1-6.3-1.8-12.7-3.5-19-5.4l-9.5-2.8c-3.2-1-6.3-1.9-9.5-2.9zM867.6 1149.6l9.6 2.4 9.6 2.5c6.4 1.7 12.7 3.4 19.1 5.1 6.3 1.8 12.7 3.5 19 5.4l9.5 2.8c3.2 1 6.3 1.9 9.5 2.9l-9.6-2.4-9.6-2.5c-6.4-1.7-12.7-3.4-19.1-5.1-6.3-1.8-12.7-3.5-19-5.4l-9.5-2.8c-3.2-1-6.3-1.9-9.5-2.9zM859 1160.2l9.6 2.4 9.6 2.5c6.4 1.7 12.7 3.4 19.1 5.1 6.3 1.8 12.7 3.5 19 5.4l9.5 2.8c3.2 1 6.3 1.9 9.5 2.9l-9.6-2.4-9.6-2.5c-6.4-1.7-12.7-3.4-19.1-5.1-6.3-1.8-12.7-3.5-19-5.4l-9.5-2.8c-3.2-1-6.4-1.9-9.5-2.9z" class="st12"/>
    <path d="M1266.5 732.8 1084 970.1l-32.5-9.5 184.6-233.5z" class="st2"/>
    <path d="m1266.6 732.7-44.9 59.3-22.7 29.8-11.4 14.9-11.5 14.9c-7.6 9.9-15.3 19.8-23 29.7L1130 911l-22.9 29.7-22.8 29.8-.2.2-.3-.1-32.5-9.4-.9-.3.6-.7 45.8-58.6 23-29.2 11.5-14.6 11.6-14.6c15.4-19.4 30.8-38.9 46.3-58.3 15.5-19.4 31-38.7 46.6-58.1l.2-.2.3.1 30.3 6zm-.2.1-30.3-5.3.5-.2c-15.2 19.6-30.4 39.2-45.8 58.7-15.3 19.6-30.7 39-46 58.5l-11.5 14.6-11.6 14.6-23.2 29.1-46.5 58.1-.3-1 32.4 9.8-.5.2 22.9-29.6 22.7-29.7 22.5-29.7c7.5-9.9 15-19.8 22.6-29.6l11.4-14.8 11.5-14.8 22.9-29.6 46.3-59.3z" class="st12"/>
    <linearGradient id="SVGID_9_" x1="1416.065" x2="1529.913" y1="717.812" y2="717.812" gradientTransform="matrix(-1 0 0 1 2714.988 0)" gradientUnits="userSpaceOnUse">
      <stop offset="0" style="stop-color:#616772;stop-opacity:0"/>
      <stop offset="1" style="stop-color:#616772"/>
    </linearGradient>
    <path d="M1298.9 716.6v-9.7l-22.3 13.7-91.5-16.3 2.1 8.1 92.4 19z" style="fill:url(#SVGID_9_);stroke:#5f5e5f;stroke-width:1.1167;stroke-miterlimit:10"/>
    <path d="m1280.9 691.1-89.3 5.2-6.5 8 91.3 18.5 22.5-15.9z" class="st14"/>
    <linearGradient id="SVGID_10_" x1="992.579" x2="1203.338" y1="920.71" y2="920.71" gradientUnits="userSpaceOnUse">
      <stop offset="0" style="stop-color:#616772;stop-opacity:0"/>
      <stop offset="1" style="stop-color:#616772"/>
    </linearGradient>
    <path d="m1203.3 994-50.8 74.4-46.3-50.3-93.4-101.5-20.2-22L1093.7 773l-15.6 64 78.3 113.5z" style="opacity:.22;fill:url(#SVGID_10_)"/>
    <linearGradient id="SVGID_11_" x1="828.417" x2="1053.62" y1="1144.178" y2="1144.178" gradientUnits="userSpaceOnUse">
      <stop offset="0" style="stop-color:#616772;stop-opacity:0"/>
      <stop offset="1" style="stop-color:#616772"/>
    </linearGradient>
    <path d="m828.4 1092.1 46.3-7.1 98.5 112.1 32.6 86 47.8-69.9-153-208z" style="opacity:.59;fill:url(#SVGID_11_)"/>
    <linearGradient id="SVGID_12_" x1="1296.671" x2="1450.857" y1="726.352" y2="726.352" gradientTransform="matrix(-1 0 0 1 2514.247 0)" gradientUnits="userSpaceOnUse">
      <stop offset="0" style="stop-color:#616772;stop-opacity:0"/>
      <stop offset="1" style="stop-color:#616772"/>
    </linearGradient>
    <path d="m1128.3 757.6 89.3-114.3-25 10.7-129.2 155.4z" style="fill:url(#SVGID_12_)"/>
    <path d="M966.2 1321.6c-3-5.8-5.9-11.6-8.8-17.4-2.9-5.8-5.8-11.7-8.6-17.5-2.9-5.9-5.7-11.7-8.5-17.6-2.8-5.9-5.7-11.7-8.4-17.6l1 1-16.8-7.2-16.8-7.3c-11.2-4.8-22.4-9.8-33.5-14.8-5.6-2.5-11.1-5-16.7-7.5s-11.1-5-16.7-7.6l-16.6-7.6-16.6-7.8.2.1-15.3-4.3c-5.1-1.4-10.2-2.9-15.3-4.4 5.2 1 10.4 2.1 15.6 3.2l15.6 3.3h.2l16.9 7 16.9 7.1c5.6 2.3 11.2 4.8 16.9 7.2l16.8 7.2c11.2 4.9 22.4 9.7 33.6 14.7l16.7 7.4 16.7 7.5.7.3.3.7c2.7 5.9 5.3 11.9 7.9 17.9 2.6 6 5.2 11.9 7.8 17.9 2.6 6 5.1 12 7.7 18 2.1 6.1 4.6 12.1 7.1 18.1z" class="st18"/>
    <path d="m1310.8 903.9-19-22.4-45.9-10.7 9.2 29.6 33.4 3.5 16 15.8z" class="st3"/>
    <path d="M1306.5 903.9c-1.6-1.2-3.1-2.5-4.5-3.8-1.5-1.3-2.9-2.6-4.3-3.9-2.8-2.7-5.6-5.4-8.2-8.2l1 .6c-6.5-1.6-12.9-3.4-19.2-5.5-3.2-1-6.3-2.1-9.4-3.3-3.1-1.2-6.2-2.5-9.3-3.9 3.4.3 6.7.8 10 1.4 3.3.6 6.6 1.3 9.8 2 6.5 1.5 12.9 3.3 19.3 5.3l.6.2.4.4c2.5 3 4.9 6 7.3 9.1 1.2 1.6 2.3 3.1 3.4 4.7.9 1.6 2 3.2 3.1 4.9z" class="st6"/>
    <path d="m881.7 672.3-25-10.7-69 21.6-83.3-7.2-10.9 58.2L364 829.8V962l36.2 81.5 87.9-44.7 212.1-80.6 60.3 105.4 97-30.7 245.1 358.7 70.3 33.7 145.1-64.9v-123.1l-436.3-525zM774.6 971.6l-37.7-67.3 52.3-20 45.6 69-60.2 18.3z" class="st2"/>
    <path d="m816 831.5-359 86.2-16.2 22.2-76.6 22.1 36.2 81.5 72.6-29.2 15.3-15.5 212.1-80.6 60.3 105.4 97-30.7 245.1 358.7 38.1-82.6L816 831.5zm-41.4 140.1-37.7-67.3 2.3-.9 50.1-19.2 45.6 69-60.3 18.4z" class="st3"/>
    <linearGradient id="SVGID_13_" x1="488.229" x2="700.323" y1="938.071" y2="938.071" gradientUnits="userSpaceOnUse">
      <stop offset="0" style="stop-color:#616772;stop-opacity:0"/>
      <stop offset="1" style="stop-color:#616772"/>
    </linearGradient>
    <path d="M700.3 877.3v40.9l-212.1 80.6z" style="fill:url(#SVGID_13_)"/>
    <linearGradient id="SVGID_14_" x1="726.754" x2="862.934" y1="899.817" y2="899.817" gradientUnits="userSpaceOnUse">
      <stop offset="0" style="stop-color:#616772;stop-opacity:0"/>
      <stop offset="1" style="stop-color:#616772"/>
    </linearGradient>
    <path d="m862.9 942.9-28.1 10.4-45.6-69-50 19.2-12.4-23.9 74-33.2z" style="fill:url(#SVGID_14_)"/>
    <path d="M706.7 874.2c5.8 8.7 11.3 17.4 16.9 26.2l8.3 13.2 8.2 13.3 8.1 13.3c2.7 4.4 5.4 8.9 8.1 13.3 5.3 8.9 10.7 17.8 15.9 26.8l-2.5-1c7.9-2.3 15.8-4.7 23.7-6.9l11.9-3.4 11.9-3.3c4-1.1 7.9-2.2 11.9-3.3 4-1.1 8-2.2 11.9-3.2 8-2.1 16-4.2 24-6.1-7.8 2.8-15.6 5.4-23.4 8l-11.7 3.9c-3.9 1.3-7.8 2.6-11.8 3.8l-11.8 3.8-11.8 3.7c-7.9 2.5-15.8 4.8-23.6 7.2l-1.6.5-.9-1.5c-5.4-8.9-10.6-17.9-15.9-26.8l-7.8-13.5-7.8-13.5-7.7-13.6-7.6-13.6c-5-9-10-18.1-14.9-27.3z" class="st6"/>
    <linearGradient id="SVGID_15_" x1="391.263" x2="687.607" y1="851.926" y2="851.926" gradientUnits="userSpaceOnUse">
      <stop offset="0" style="stop-color:#616772;stop-opacity:.3939"/>
      <stop offset="1" style="stop-color:#616772"/>
    </linearGradient>
    <path d="M391.3 836.4v91.5l27.6-9.5 6.2-26.4 262.5-60.5-52.3-55.6z" style="fill:url(#SVGID_15_)"/>
    <path d="m457 917.7 31.2 81.1-15.3 15.5-32.1-74.4z" class="st8"/>
    <linearGradient id="SVGID_16_" x1="700.323" x2="763.555" y1="950.455" y2="950.455" gradientUnits="userSpaceOnUse">
      <stop offset="0" style="stop-color:#616772;stop-opacity:0"/>
      <stop offset="1" style="stop-color:#616772"/>
    </linearGradient>
    <path d="m700.3 877.3 63.3 111.8-3 34.5-60.3-105.4z" style="fill:url(#SVGID_16_)"/>
    <ellipse cx="1248.7" cy="1289" rx="40.6" ry="32.9" transform="rotate(-25.538 1248.586 1288.957)"/>
    <linearGradient id="SVGID_17_" x1="757.525" x2="1283.908" y1="977.675" y2="977.675" gradientUnits="userSpaceOnUse">
      <stop offset=".053" style="stop-color:#c3cad7"/>
      <stop offset=".807" style="stop-color:#d9e5e4"/>
    </linearGradient>
    <path d="m1140.8 1268.9 143.1-62.8-426.2-519.7L757.5 722 816 831.5z" style="fill:url(#SVGID_17_)"/>
    <linearGradient id="SVGID_18_" x1="377.983" x2="717.268" y1="906.59" y2="906.59" gradientUnits="userSpaceOnUse">
      <stop offset="0" style="stop-color:#dde0e7"/>
      <stop offset=".807" style="stop-color:#fff"/>
    </linearGradient>
    <path d="M378.8 957.8c5.1-1.7 10.2-3.4 15.3-5l15.4-4.9c10.3-3.3 20.5-6.5 30.8-9.7l-.9.7c5.2-7.5 10.6-15 15.8-22.5l.4-.6.8-.2c10.8-2.8 21.6-5.4 32.4-8.1 10.8-2.7 21.6-5.3 32.4-8 21.6-5.3 43.3-10.4 64.9-15.5l32.5-7.5 32.6-7.3c21.7-4.8 43.5-9.5 65.3-13.8-21.4 6-42.9 11.7-64.5 17.3l-32.3 8.3-32.4 8.1c-21.6 5.3-43.2 10.6-64.9 15.7-10.8 2.6-21.6 5.1-32.5 7.6-10.8 2.5-21.7 5-32.5 7.4l1.3-.8c-5.5 7.3-11 14.7-16.5 22l-.4.5-.5.1c-10.4 2.8-20.8 5.6-31.2 8.3l-15.6 4c-5.3 1.3-10.5 2.6-15.7 3.9z" style="fill:url(#SVGID_18_)"/>
    <linearGradient id="SVGID_19_" x1="856.76" x2="1010.947" y1="744.682" y2="744.682" gradientUnits="userSpaceOnUse">
      <stop offset="0" style="stop-color:#616772;stop-opacity:0"/>
      <stop offset="1" style="stop-color:#616772"/>
    </linearGradient>
    <path d="m946 775.9-89.2-114.3 24.9 10.7 129.2 155.5z" style="fill:url(#SVGID_19_)"/>
    <path d="M1108.2 1339.9c2.5-6 5-12 7.5-18.1 2.6-6 5.1-12 7.7-18 2.6-6 5.2-12 7.8-17.9 2.6-6 5.2-11.9 7.9-17.9l.3-.7.7-.3 16.7-7.5 16.7-7.4c11.2-5 22.4-9.8 33.6-14.7 5.6-2.5 11.2-4.8 16.8-7.2 5.6-2.4 11.2-4.8 16.9-7.2l16.9-7.1 16.9-7h.2l15.6-3.3c5.2-1.1 10.4-2.2 15.6-3.2-5.1 1.5-10.2 3-15.3 4.4l-15.3 4.3.2-.1-16.6 7.8-16.6 7.6c-5.5 2.6-11.1 5-16.7 7.6-5.6 2.5-11.1 5-16.7 7.5-11.2 4.9-22.3 9.9-33.5 14.8l-16.8 7.3-16.8 7.2 1-1c-2.8 5.9-5.6 11.7-8.4 17.6-2.8 5.9-5.7 11.7-8.5 17.6-2.8 5.9-5.8 11.7-8.6 17.5-3.3 5.8-6.3 11.6-9.2 17.4z" class="st18"/>
    <path d="m763.6 922.3 18.9-22.5 45.9-10.7-9.1 29.6-33.4 3.6-16.1 15.8z" class="st3"/>
    <path d="M767.9 922.2c1-1.7 2.1-3.3 3.2-4.9 1.1-1.6 2.3-3.2 3.4-4.7 2.3-3.1 4.8-6.1 7.3-9.1l.4-.4.6-.2c6.4-2 12.8-3.7 19.3-5.3 3.2-.7 6.5-1.5 9.8-2 3.3-.6 6.6-1.1 10-1.4-3 1.5-6.1 2.7-9.3 3.9-3.1 1.2-6.3 2.3-9.4 3.3-6.3 2.1-12.7 3.9-19.2 5.5l1-.6c-2.7 2.8-5.4 5.5-8.2 8.2-1.4 1.3-2.8 2.7-4.3 3.9-1.6 1.3-3.1 2.6-4.6 3.8z" class="st6"/>
    <path d="m1318.2 1320.5-.6-30.8-.5-30.8-.5-30.8-.4-30.8.4 1.2c-36.9-43.3-73.5-86.9-110.1-130.5-36.5-43.6-73-87.3-109.2-131.2-18.2-21.9-36.2-43.9-54.3-65.8-18.1-21.9-36.1-44-54.1-66-36-44.1-71.8-88.3-107.3-132.8 37.2 43 74.2 86.3 110.9 129.7 18.3 21.7 36.7 43.4 55 65.3 18.3 21.8 36.6 43.6 54.8 65.4 36.5 43.7 72.8 87.5 109 131.3 36.2 43.9 72.3 87.9 108.2 132.1l.4.5v.7l-.4 30.8-.5 30.8-.5 30.8-.3 30.9zM760.6 1023.6c8-2.8 16-5.7 24-8.5s16-5.6 24.1-8.3c8-2.7 16-5.5 24.1-8.2l24.1-8.1 1.8-.6 1.1 1.6 31.3 44.4 31 44.6 30.8 44.8 30.5 44.9c20.3 30 40.4 60.1 60.4 90.3 19.9 30.3 39.7 60.6 59.1 91.2-21.5-29.1-42.6-58.6-63.5-88.2s-41.6-59.3-62.2-89.1l-30.7-44.8-30.5-44.9-30.3-45.1-30-45.3 2.9 1-24.4 7.2c-8.1 2.4-16.3 4.8-24.4 7.1-8.1 2.4-16.3 4.7-24.5 7-8.3 2.4-16.5 4.7-24.7 7zM856.8 661.6l-17.1 5.8-17.1 5.8-34.3 11.4-.2.1h-.3l-20.8-1.5-20.8-1.6-41.7-3.2 2.6-2-5.2 29.2-5.2 29.2-.3 1.8-1.7.5c-27.4 8.1-54.8 16.3-82.3 24.2l-41.2 12-41.2 11.9-41.2 11.9-41.2 11.7-20.6 5.9-20.6 5.8-41.6 11.5 1.6-2.1-.4 33-.5 33-.6 33-.7 33-.7-33-.6-33-.5-33-.4-33v-1.7l1.6-.5 41.1-12.3 20.5-6.2 20.6-6.1 41.1-12.2 41.2-12 41.2-12 41.2-11.9c27.5-8 55-15.8 82.5-23.6l-2.1 2.3 5.6-29.1 5.7-29.1.4-2.2 2.2.2 41.6 4.1 20.8 2.1 20.8 2.1-.5.1 34.7-10.2 17.4-5.1 17.2-5zM1710.2 943.7l-.7-33-.6-33-.5-33-.4-33 1.6 2.1-41.3-11.6-20.6-5.8-20.6-5.9-41.2-11.7-41.2-11.9-41.2-11.9-41.2-12-41.2-12.1-41.1-12.2-1.7-.5-.3-1.8-5.2-29.2-5.2-29.2 2.6 2c-13.9 1.1-27.8 2.1-41.7 3.2l-20.8 1.5-20.8 1.5h-.3l-.2-.1-34.3-11.4-17.1-5.8-17.1-5.8 17.4 5 17.4 5.1 34.7 10.2-.5-.1 20.8-2.1 20.8-2.1c13.9-1.4 27.7-2.8 41.6-4.1l2.2-.2.4 2.2 5.7 29.1 5.6 29.1-2.1-2.3 41.2 11.7 41.2 11.9 41.2 11.9 41.2 12 41.2 12.1 41.1 12.2 20.6 6.1 20.5 6.2 41.1 12.3 1.6.5v1.6l-.4 33-.5 33-.6 33-1.1 33.3zM756.2 1179c.7 10.3 1.3 20.5 1.7 30.8.3 5.1.4 10.3.6 15.4.2 5.1.4 10.3.5 15.4.3 10.3.6 20.5.7 30.8l.2 15.4.1 15.4-2.3-3.5c12.1 5.3 24.2 10.7 36.3 16.2 12.1 5.5 24 11.1 36.1 16.7l17.9 8.6c6 2.9 11.9 5.8 17.9 8.7 11.9 5.9 23.7 11.8 35.4 18.1-12.5-4.5-24.8-9.4-37.1-14.3-6.1-2.5-12.3-4.9-18.4-7.5l-18.4-7.6c-12.2-5.2-24.4-10.4-36.5-15.7-12.1-5.3-24.2-10.7-36.3-16.2l-2.3-1v-2.5l.1-15.4.2-15.4c.1-10.3.4-20.5.7-30.8.1-5.1.3-10.3.5-15.4s.3-10.3.6-15.4c.5-10.2 1-20.5 1.8-30.8z" class="st26"/>
    <path d="M1173.1 1385.3c11.7-6.3 23.6-12.2 35.4-18.1 6-2.9 11.9-5.9 17.9-8.7l17.9-8.6 18-8.4 9-4.2 9-4.1c12.1-5.5 24.1-10.9 36.3-16.3l-2.3 3.5.1-15.4.2-15.4c.1-5.1.1-10.3.3-15.4l.4-15.4c.1-5.1.3-10.3.5-15.4s.3-10.3.6-15.4c.5-10.3 1-20.5 1.7-30.8.7 10.3 1.3 20.5 1.7 30.8.3 5.1.4 10.3.6 15.4.2 5.1.4 10.3.5 15.4l.4 15.4.3 15.4.2 15.4.1 15.4v2.5l-2.3 1c-12.1 5.5-24.2 10.9-36.3 16.2l-9.1 4-9.1 3.9-18.3 7.8-18.3 7.6c-6.1 2.5-12.3 5-18.4 7.5-12.2 5-24.6 9.9-37 14.4z" class="st26"/>
    <path d="M966 997.2c4.3-.8 174.9 225.3 174.9 225.3l93.8-38.4-176.3-212.5-92.4 25.6z" class="st2"/>
    <path d="M966 997.2c.4.1.6.4.9.6.3.2.5.5.8.8.5.5 1 1.1 1.5 1.6 1 1.1 2 2.2 2.9 3.3 1.9 2.3 3.8 4.5 5.7 6.8 3.8 4.6 7.5 9.2 11.2 13.8l22.2 27.9c14.7 18.7 29.3 37.5 43.8 56.3l43.4 56.6 43.1 56.8-1.2-.3 93.7-38.5-.4 1.7-88-106.3-87.7-106.3.6.2-46.1 12.4c-15.4 4.1-30.9 8.3-46.4 12.6zm0 0c15.3-4.2 30.6-8.5 46-12.9l46.3-13.2.3-.1.2.3 88.4 106 88.2 106.2 1 1.2-1.4.6-93.8 38.3-.7.3-.5-.6-43-56.9-43.1-56.9-43.3-56.7c-7.2-9.4-14.5-18.8-21.8-28.2-3.7-4.7-7.4-9.3-11.1-14-1.9-2.3-3.7-4.6-5.7-6.9-1-1.1-1.9-2.3-2.9-3.4-.5-.6-1-1.1-1.5-1.6l-.8-.8c-.2-.3-.5-.7-.8-.7z" class="st12"/>
    <path d="M1073.1 1002.4c-3.1 1-6.3 1.9-9.5 2.9l-9.5 2.8c-6.3 1.8-12.7 3.6-19 5.4-6.4 1.7-12.7 3.5-19.1 5.1l-9.6 2.5-9.6 2.4c3.1-1 6.3-1.9 9.5-2.9l9.5-2.8c6.3-1.8 12.7-3.6 19-5.4 6.4-1.7 12.7-3.5 19.1-5.1l9.6-2.5 9.6-2.4zM1081.8 1013.1c-3.1 1-6.3 1.9-9.5 2.9l-9.5 2.8c-6.3 1.8-12.7 3.6-19 5.4-6.4 1.7-12.7 3.5-19.1 5.1l-9.6 2.5-9.6 2.4c3.1-1 6.3-1.9 9.5-2.9l9.5-2.8c6.3-1.8 12.7-3.6 19-5.4 6.4-1.7 12.7-3.5 19.1-5.1l9.6-2.5c3.2-.9 6.4-1.7 9.6-2.4zM1090.5 1023.7c-3.1 1-6.3 1.9-9.5 2.9l-9.5 2.8c-6.3 1.8-12.7 3.6-19 5.4-6.4 1.7-12.7 3.5-19.1 5.1l-9.6 2.5-9.6 2.4c3.1-1 6.3-1.9 9.5-2.9l9.5-2.8c6.3-1.8 12.7-3.6 19-5.4 6.4-1.7 12.7-3.5 19.1-5.1l9.6-2.5c3.2-.8 6.4-1.7 9.6-2.4zM1099.2 1034.3c-3.1 1-6.3 1.9-9.5 2.9l-9.5 2.8c-6.3 1.8-12.7 3.6-19 5.4-6.4 1.7-12.7 3.5-19.1 5.1l-9.6 2.5-9.6 2.4c3.1-1 6.3-1.9 9.5-2.9l9.5-2.8c6.3-1.8 12.7-3.6 19-5.4 6.4-1.7 12.7-3.5 19.1-5.1l9.6-2.5c3.2-.8 6.4-1.7 9.6-2.4zM1107.9 1044.9c-3.1 1-6.3 1.9-9.5 2.9l-9.5 2.8c-6.3 1.8-12.7 3.6-19 5.4-6.4 1.7-12.7 3.5-19.1 5.1l-9.6 2.5-9.6 2.4c3.1-1 6.3-1.9 9.5-2.9l9.5-2.8c6.3-1.8 12.7-3.6 19-5.4 6.4-1.7 12.7-3.5 19.1-5.1l9.6-2.5 9.6-2.4zM1116.6 1055.5c-3.1 1-6.3 1.9-9.5 2.9l-9.5 2.8c-6.3 1.8-12.7 3.6-19 5.4-6.4 1.7-12.7 3.5-19.1 5.1l-9.6 2.5-9.6 2.4c3.1-1 6.3-1.9 9.5-2.9l9.5-2.8c6.3-1.8 12.7-3.6 19-5.4 6.4-1.7 12.7-3.5 19.1-5.1l9.6-2.5 9.6-2.4zM1125.3 1066.1c-3.1 1-6.3 1.9-9.5 2.9l-9.5 2.8c-6.3 1.8-12.7 3.6-19 5.4-6.4 1.7-12.7 3.5-19.1 5.1l-9.6 2.5-9.6 2.4c3.1-1 6.3-1.9 9.5-2.9l9.5-2.8c6.3-1.8 12.7-3.6 19-5.4 6.4-1.7 12.7-3.5 19.1-5.1l9.6-2.5 9.6-2.4zM1134 1076.8c-3.1 1-6.3 1.9-9.5 2.9l-9.5 2.8c-6.3 1.8-12.7 3.6-19 5.4-6.4 1.7-12.7 3.5-19.1 5.1l-9.6 2.5-9.6 2.4c3.1-1 6.3-1.9 9.5-2.9l9.5-2.8c6.3-1.8 12.7-3.6 19-5.4 6.4-1.7 12.7-3.5 19.1-5.1l9.6-2.5c3.2-.9 6.4-1.7 9.6-2.4zM1142.7 1087.4c-3.1 1-6.3 1.9-9.5 2.9l-9.5 2.8c-6.3 1.8-12.7 3.6-19 5.4-6.4 1.7-12.7 3.5-19.1 5.1l-9.6 2.5-9.6 2.4c3.1-1 6.3-1.9 9.5-2.9l9.5-2.8c6.3-1.8 12.7-3.6 19-5.4 6.4-1.7 12.7-3.5 19.1-5.1l9.6-2.5c3.2-.9 6.4-1.7 9.6-2.4zM1151.4 1098c-3.1 1-6.3 1.9-9.5 2.9l-9.5 2.8c-6.3 1.8-12.7 3.6-19 5.4-6.4 1.7-12.7 3.5-19.1 5.1l-9.6 2.5-9.6 2.4c3.1-1 6.3-1.9 9.5-2.9l9.5-2.8c6.3-1.8 12.7-3.6 19-5.4 6.4-1.7 12.7-3.5 19.1-5.1l9.6-2.5c3.2-.8 6.4-1.7 9.6-2.4zM1160.1 1108.6c-3.1 1-6.3 1.9-9.5 2.9l-9.5 2.8c-6.3 1.8-12.7 3.6-19 5.4-6.4 1.7-12.7 3.5-19.1 5.1l-9.6 2.5-9.6 2.4c3.1-1 6.3-1.9 9.5-2.9l9.5-2.8c6.3-1.8 12.7-3.6 19-5.4 6.4-1.7 12.7-3.5 19.1-5.1l9.6-2.5 9.6-2.4zM1168.8 1119.2c-3.1 1-6.3 1.9-9.5 2.9l-9.5 2.8c-6.3 1.8-12.7 3.6-19 5.4-6.4 1.7-12.7 3.5-19.1 5.1l-9.6 2.5-9.6 2.4c3.1-1 6.3-1.9 9.5-2.9l9.5-2.8c6.3-1.8 12.7-3.6 19-5.4 6.4-1.7 12.7-3.5 19.1-5.1l9.6-2.5c3.2-.8 6.3-1.6 9.6-2.4zM1177.4 1129.8c-3.1 1-6.3 1.9-9.5 2.9l-9.5 2.8c-6.3 1.8-12.7 3.6-19 5.4-6.4 1.7-12.7 3.5-19.1 5.1l-9.6 2.5-9.6 2.4c3.1-1 6.3-1.9 9.5-2.9l9.5-2.8c6.3-1.8 12.7-3.6 19-5.4 6.4-1.7 12.7-3.5 19.1-5.1l9.6-2.5 9.6-2.4zM1186.1 1140.4c-3.1 1-6.3 1.9-9.5 2.9l-9.5 2.8c-6.3 1.8-12.7 3.6-19 5.4-6.4 1.7-12.7 3.5-19.1 5.1l-9.6 2.5-9.6 2.4c3.1-1 6.3-1.9 9.5-2.9l9.5-2.8c6.3-1.8 12.7-3.6 19-5.4 6.4-1.7 12.7-3.5 19.1-5.1l9.6-2.5 9.6-2.4zM1194.8 1151.1c-3.1 1-6.3 1.9-9.5 2.9l-9.5 2.8c-6.3 1.8-12.7 3.6-19 5.4-6.4 1.7-12.7 3.5-19.1 5.1l-9.6 2.5-9.6 2.4c3.1-1 6.3-1.9 9.5-2.9l9.5-2.8c6.3-1.8 12.7-3.6 19-5.4 6.4-1.7 12.7-3.5 19.1-5.1l9.6-2.5c3.2-.9 6.4-1.7 9.6-2.4zM1203.5 1161.7c-3.1 1-6.3 1.9-9.5 2.9l-9.5 2.8c-6.3 1.8-12.7 3.6-19 5.4-6.4 1.7-12.7 3.5-19.1 5.1l-9.6 2.5-9.6 2.4c3.1-1 6.3-1.9 9.5-2.9l9.5-2.8c6.3-1.8 12.7-3.6 19-5.4 6.4-1.7 12.7-3.5 19.1-5.1l9.6-2.5c3.2-.8 6.4-1.7 9.6-2.4z" class="st12"/>
    <path d="m796 734.2 182.5 237.4 32.4-9.6-184.6-233.5z" class="st2"/>
    <path d="m796.1 734.3 46.4 59.4 22.9 29.6 11.5 14.8 11.4 14.8c7.6 9.8 15.1 19.7 22.6 29.6l22.5 29.7 22.7 29.7 22.9 29.6-.5-.2 32.4-9.8-.3 1-46.6-58.2-23.2-29.1-11.6-14.6-11.5-14.6c-15.4-19.5-30.8-38.9-46-58.5-15.3-19.5-30.5-39.1-45.8-58.7l.5.2-30.3 5.3zm-.2-.1 30.4-6.1.3-.1.2.2c15.6 19.3 31.1 38.7 46.6 58.1s30.9 38.8 46.3 58.3l11.6 14.6 11.5 14.6 23 29.2 45.8 58.6.6.7-.9.3-32.5 9.4-.3.1-.2-.2-22.8-29.8-22.9-29.7-23.1-29.6c-7.7-9.9-15.4-19.8-23-29.7L875 838.2l-11.4-14.9-22.7-29.8-45-59.3z" class="st12"/>
    <linearGradient id="SVGID_20_" x1="763.555" x2="877.403" y1="719.277" y2="719.277" gradientUnits="userSpaceOnUse">
      <stop offset="0" style="stop-color:#616772;stop-opacity:0"/>
      <stop offset="1" style="stop-color:#616772"/>
    </linearGradient>
    <path d="M763.6 718.1v-9.8l22.3 13.7 91.5-16.3-2.1 8.2-92.5 18.9z" style="fill:url(#SVGID_20_);stroke:#5f5e5f;stroke-width:1.1167;stroke-miterlimit:10"/>
    <path d="m781.6 692.6 89.3 5.2 6.5 7.9-91.3 18.5-22.5-15.9z" class="st14"/>
  </g>
</svg>
