<svg xmlns="http://www.w3.org/2000/svg" xml:space="preserve" id="Layer_1" x="0" y="0" style="enable-background:new 0 0 2000 2000" version="1.1" viewBox="0 0 2000 2000">
  <style>
    .st2{fill:#c3cad7}.st3{fill:#9299a5}.st6{fill:#c2d2e8}.st8{opacity:.5;fill:#c3cad7;enable-background:new}.st12{fill:#5e5e5f}.st14{fill:#c3cad7;stroke:#5e5e5f;stroke-width:1.6326;stroke-miterlimit:10}.st18{fill:#f5f8fc}.st26{fill:#848d9b}
  </style>
  <g id="Layer_2_1_">
    <path d="m1508.1 639.7-16-85-121.7 10.6-100.9-31.8L1233 549l-144.5 174-147.7 177.9-345.7 415.7v180l212.2 94.8 102.8-49.3 264.5-387.2 74.2-108.7 19.4-28.5 141.8 44.9 88.1-154.1 310.1 117.8 128.3 65.4 52.9-119.1V779.5l-481.3-139.8zm-118.4 347-88-26.7 66.6-100.9 76.4 29.3-55 98.3z" class="st2"/>
    <path d="M854.3 1421.3 910 1542l358.3-524.4 141.8 44.9 88.1-154.1 310.1 117.8 22.3 22.7 106.1 42.7 52.9-119.1-112-32.3-23.7-32.4-524.9-126-474.7 639.5zm447.4-461.5 66.6-100.9 73.3 28.1 3.3 1.3-55.1 98.4-88.1-26.9z" class="st3"/>
    <linearGradient id="SVGID_3_" x1="2605.8" x2="2915.869" y1="-462.314" y2="-462.314" gradientTransform="matrix(-1 0 0 1 4414.247 1400)" gradientUnits="userSpaceOnUse">
      <stop offset="0" style="stop-color:#616772;stop-opacity:0"/>
      <stop offset="1" style="stop-color:#616772"/>
    </linearGradient>
    <path d="M1498.4 848.9v59.8l310 117.8z" style="fill:url(#SVGID_3_)"/>
    <linearGradient id="SVGID_4_" x1="2954.521" x2="3153.667" y1="-518.328" y2="-518.328" gradientTransform="matrix(-1 0 0 1 4414.247 1400)" gradientUnits="userSpaceOnUse">
      <stop offset="0" style="stop-color:#616772;stop-opacity:0"/>
      <stop offset="1" style="stop-color:#616772"/>
    </linearGradient>
    <path d="m1260.6 944.6 41.1 15.2 66.6-100.8 73.3 28.1 18.1-34.9-108.3-48.7z" style="fill:url(#SVGID_4_)"/>
    <path d="M1488.9 844.4c-7 13.5-14.5 26.7-21.8 40l-11.2 19.9-11.3 19.9-11.4 19.8c-3.8 6.6-7.6 13.1-11.4 19.8-7.7 13.1-15.3 26.1-23.2 39.1l-1.3 2.2-2.3-.7c-11.5-3.6-23.1-7-34.5-10.6l-17.3-5.4-17.3-5.5c-5.6-1.7-11.5-3.7-17.3-5.5-5.6-1.8-11.4-3.7-17.1-5.6-11.4-3.8-22.8-7.7-34.2-11.7 11.7 2.8 23.4 5.9 35.1 9 5.9 1.5 11.7 3.1 17.4 4.7 5.9 1.6 11.7 3.1 17.4 4.8l17.4 4.8 17.4 5c11.5 3.2 23.1 6.7 34.6 10.1l-3.7 1.5c7.6-13.1 15.5-26.1 23.2-39.1 3.9-6.6 7.9-13 11.9-19.4l11.9-19.4 12-19.4 12.1-19.3c8.5-13.6 16.5-26.5 24.9-39z" class="st6"/>
    <linearGradient id="SVGID_5_" x1="2464.079" x2="2897.341" y1="-588.207" y2="-588.207" gradientTransform="matrix(-1 0 0 1 4414.247 1400)" gradientUnits="userSpaceOnUse">
      <stop offset="0" style="stop-color:#616772;stop-opacity:.3939"/>
      <stop offset="1" style="stop-color:#616772"/>
    </linearGradient>
    <path d="M1950.2 789v133.9l-40.5-14-9.1-38.5-383.7-88.5 76.4-81.2z" style="fill:url(#SVGID_5_)"/>
    <path d="m1854.1 907.8-45.7 118.7 22.4 22.7 47.1-108.8z" class="st8"/>
    <linearGradient id="SVGID_6_" x1="2915.869" x2="3008.265" y1="-444.216" y2="-444.216" gradientTransform="matrix(-1 0 0 1 4414.247 1400)" gradientUnits="userSpaceOnUse">
      <stop offset="0" style="stop-color:#616772;stop-opacity:0"/>
      <stop offset="1" style="stop-color:#616772"/>
    </linearGradient>
    <path d="m1498.4 848.9-92.4 163.5 4.2 50.3 88.2-154z" style="fill:url(#SVGID_6_)"/>
    <ellipse cx="696.6" cy="1450.8" rx="48.1" ry="59.4" transform="rotate(-64.463 696.639 1450.827)"/>
    <linearGradient id="SVGID_7_" x1="2999.553" x2="3769.143" y1="-404.46" y2="-404.46" gradientTransform="matrix(-1 0 0 1 4414.247 1400)" gradientUnits="userSpaceOnUse">
      <stop offset="0" style="stop-color:#c3cad7"/>
      <stop offset=".807" style="stop-color:#d9e5e4"/>
    </linearGradient>
    <path d="m854.3 1421.3-209.2-91.8 623.2-759.7 146.4 52-85.5 160.1z" style="fill:url(#SVGID_7_)"/>
    <linearGradient id="SVGID_8_" x1="1969.576" x2="1473.571" y1="-508.266" y2="-508.266" gradientTransform="translate(0 1400)" gradientUnits="userSpaceOnUse">
      <stop offset="0" style="stop-color:#dde0e7"/>
      <stop offset=".807" style="stop-color:#fff"/>
    </linearGradient>
    <path d="M1968.5 966.6c-7.6-1.8-15.3-3.8-22.9-5.6l-22.8-5.9c-15.2-3.9-30.4-8.1-45.6-12.1l-.7-.1-.6-.7c-8.2-10.7-16.1-21.4-24.2-32.1l1.8 1.2c-16-3.6-31.8-7.4-47.5-10.8-15.8-3.7-31.8-7.4-47.5-11.2-31.8-7.5-63.3-15.2-94.8-22.9l-47.4-11.9-47.2-12.1c-31.4-8.2-63.1-16.6-94.2-25.3 31.9 6.3 63.7 13.1 95.5 20.1l47.6 10.7 47.5 10.9c31.8 7.5 63.3 15 94.8 22.7 15.8 3.8 31.5 7.6 47.4 11.7 15.8 3.9 31.5 7.7 47.4 11.9l1.2.2.6.9c7.7 10.9 15.5 21.8 23.1 32.9l-1.3-1c15.1 4.7 30.1 9.3 45 14.2l22.5 7.1c7.4 2.2 14.8 4.7 22.3 7.2z" style="fill:url(#SVGID_8_)"/>
    <path d="M1092.6 1048.7c-6.3-1.2-255.7 329.3-255.7 329.3l-137.2-56.2 257.7-310.7 135.2 37.6z" class="st2"/>
    <path d="M1092.6 1048.7c-.6.1-.9.6-1.3.9l-1.2 1.2c-.7.7-1.5 1.6-2.2 2.3-1.5 1.6-2.9 3.2-4.3 5-2.8 3.3-5.5 6.7-8.3 10.1-5.4 6.7-10.8 13.6-16.2 20.5-10.7 13.7-21.4 27.5-31.9 41.2l-63.3 82.9-63.1 83.2-62.8 83.2-.7.9-1-.5-137.2-56-2.1-.9 1.5-1.7 129-155.2 129.2-155 .2-.5.5.1 67.7 19.3c22.8 6.6 45.2 12.8 67.5 19zm0 0c-22.7-6.3-45.3-12.4-67.9-18.4l-67.4-18.2.9-.2-128.5 155.7-128.6 155.3-.6-2.5 136.9 56.3-1.7.5 63.1-83.1 63.4-82.7c21.2-27.5 42.6-55.1 64.1-82.3 10.7-13.6 21.5-27.4 32.4-40.7 5.4-6.7 10.9-13.6 16.3-20.1 2.8-3.3 5.5-6.7 8.3-9.9 1.5-1.6 2.8-3.2 4.3-4.8.7-.7 1.5-1.6 2.2-2.3l1.2-1.2c.7-.8 1.1-1.2 1.6-1.4z" class="st12"/>
    <path d="M935.9 1056.5c4.7 1.2 9.3 2.3 14 3.6l14 3.7c9.3 2.5 18.5 5 28 7.5 9.2 2.6 18.5 5.2 27.7 7.9l13.9 4c4.7 1.5 9.2 2.8 13.9 4.3-4.7-1.2-9.3-2.3-14-3.6l-14-3.7c-9.3-2.5-18.5-5-28-7.5-9.2-2.6-18.5-5.2-27.7-7.9l-13.9-4c-4.7-1.6-9.2-2.8-13.9-4.3zM923.1 1072c4.7 1.2 9.3 2.3 14 3.6l14 3.7c9.3 2.5 18.5 5 28 7.5 9.2 2.6 18.5 5.2 27.7 7.9l13.9 4c4.7 1.5 9.2 2.8 13.9 4.3-4.7-1.2-9.3-2.3-14-3.6l-14-3.7c-9.3-2.5-18.5-5-28-7.5-9.2-2.6-18.5-5.2-27.7-7.9l-13.9-4c-4.4-1.5-9.1-2.8-13.9-4.3zM910.6 1087.4c4.7 1.2 9.3 2.3 14 3.6l14 3.7c9.3 2.5 18.5 5 28 7.5 9.2 2.6 18.5 5.2 27.7 7.9l13.9 4c4.7 1.5 9.2 2.8 13.9 4.3-4.7-1.2-9.3-2.3-14-3.6l-14-3.7c-9.3-2.5-18.5-5-28-7.5-9.2-2.6-18.5-5.2-27.7-7.9l-13.9-4c-4.7-1.4-9.3-2.8-13.9-4.3zM897.9 1102.9c4.7 1.2 9.3 2.3 14 3.6l14 3.7c9.3 2.5 18.5 5 28 7.5 9.2 2.6 18.5 5.2 27.7 7.9l13.9 4c4.7 1.5 9.2 2.8 13.9 4.3-4.7-1.2-9.3-2.3-14-3.6l-14-3.7c-9.3-2.5-18.5-5-28-7.5-9.2-2.6-18.5-5.2-27.7-7.9l-13.9-4c-4.7-1.4-9.4-2.8-13.9-4.3zM885.2 1118.5c4.7 1.2 9.3 2.3 14 3.6l14 3.7c9.3 2.5 18.5 5 28 7.5 9.2 2.6 18.5 5.2 27.7 7.9l13.9 4c4.7 1.5 9.2 2.8 13.9 4.3-4.7-1.2-9.3-2.3-14-3.6l-14-3.7c-9.3-2.5-18.5-5-28-7.5-9.2-2.6-18.5-5.2-27.7-7.9l-13.9-4.2c-4.7-1.2-9.3-2.6-13.9-4.1zM872.5 1134.1c4.7 1.2 9.3 2.3 14 3.6l14 3.7c9.3 2.5 18.5 5 28 7.5 9.2 2.6 18.5 5.2 27.7 7.9l13.9 4c4.7 1.5 9.2 2.8 13.9 4.3-4.7-1.2-9.3-2.3-14-3.6l-14-3.7c-9.3-2.5-18.5-5-28-7.5-9.2-2.6-18.5-5.2-27.7-7.9l-13.9-4c-4.7-1.5-9.4-2.9-13.9-4.3zM859.7 1149.7c4.7 1.2 9.3 2.3 14 3.6l14 3.7c9.3 2.5 18.5 5 28 7.5 9.2 2.6 18.5 5.2 27.7 7.9l13.9 4c4.7 1.5 9.2 2.8 13.9 4.3-4.7-1.2-9.3-2.3-14-3.6l-14-3.7c-9.3-2.5-18.5-5-28-7.5-9.2-2.6-18.5-5.2-27.7-7.9l-13.9-4c-4.7-1.6-9.3-3-13.9-4.3zM847.1 1165.1c4.7 1.2 9.3 2.3 14 3.6l14 3.7c9.3 2.5 18.5 5 28 7.5 9.2 2.6 18.5 5.2 27.7 7.9l13.9 4c4.7 1.5 9.2 2.8 13.9 4.3-4.7-1.2-9.3-2.3-14-3.6l-14-3.7c-9.3-2.5-18.5-5-28-7.5-9.2-2.6-18.5-5.2-27.7-7.9l-13.9-4c-4.7-1.6-9.4-2.8-13.9-4.3zM834.3 1180.6c4.7 1.2 9.3 2.3 14 3.6l14 3.7c9.3 2.5 18.5 5 28 7.5 9.2 2.6 18.5 5.2 27.7 7.9l13.9 4c4.7 1.5 9.2 2.8 13.9 4.3-4.7-1.2-9.3-2.3-14-3.6l-14-3.7c-9.3-2.5-18.5-5-28-7.5-9.2-2.6-18.5-5.2-27.7-7.9l-13.9-4c-4.7-1.5-9.3-2.9-13.9-4.3zM821.6 1196c4.7 1.2 9.3 2.3 14 3.6l14 3.7c9.3 2.5 18.5 5 28 7.5 9.2 2.6 18.5 5.2 27.7 7.9l13.9 4c4.7 1.5 9.2 2.8 13.9 4.3-4.7-1.2-9.3-2.3-14-3.6l-14-3.7c-9.3-2.5-18.5-5-28-7.5-9.2-2.6-18.5-5.2-27.7-7.9l-13.9-4c-4.7-1.4-9.2-2.8-13.9-4.3zM808.9 1211.6c4.7 1.2 9.3 2.3 14 3.6l14 3.7c9.3 2.5 18.5 5 28 7.5 9.2 2.6 18.5 5.2 27.7 7.9l13.9 4c4.7 1.5 9.2 2.8 13.9 4.3-4.7-1.2-9.3-2.3-14-3.6l-14-3.7c-9.3-2.5-18.5-5-28-7.5-9.2-2.6-18.5-5.2-27.7-7.9l-13.9-4c-4.7-1.3-9.2-2.8-13.9-4.3zM796.2 1227.2c4.7 1.2 9.3 2.3 14 3.6l14 3.7c9.3 2.5 18.5 5 28 7.5 9.2 2.6 18.5 5.2 27.7 7.9l13.9 4c4.7 1.5 9.2 2.8 13.9 4.3-4.7-1.2-9.3-2.3-14-3.6l-14-3.7c-9.3-2.5-18.5-5-28-7.5-9.2-2.6-18.5-5.2-27.7-7.9l-13.9-4c-4.7-1.5-9.3-2.8-13.9-4.3zM783.4 1242.7c4.7 1.2 9.3 2.3 14 3.6l14 3.7c9.3 2.5 18.5 5 28 7.5 9.2 2.6 18.5 5.2 27.7 7.9l13.9 4c4.7 1.5 9.2 2.8 13.9 4.3-4.7-1.2-9.3-2.3-14-3.6l-14-3.7c-9.3-2.5-18.5-5-28-7.5-9.2-2.6-18.5-5.2-27.7-7.9l-13.9-4c-4.6-1.5-9.1-2.9-13.9-4.3zM770.8 1258.2c4.7 1.2 9.3 2.3 14 3.6l14 3.7c9.3 2.5 18.5 5 28 7.5 9.2 2.6 18.5 5.2 27.7 7.9l13.9 4c4.7 1.5 9.2 2.8 13.9 4.3-4.7-1.2-9.3-2.3-14-3.6l-14-3.7c-9.3-2.5-18.5-5-28-7.5-9.2-2.6-18.5-5.2-27.7-7.9l-13.9-4c-4.7-1.6-9.3-2.8-13.9-4.3zM758 1273.7c4.7 1.2 9.3 2.3 14 3.6l14 3.7c9.3 2.5 18.5 5 28 7.5 9.2 2.6 18.5 5.2 27.7 7.9l13.9 4c4.7 1.5 9.2 2.8 13.9 4.3-4.7-1.2-9.3-2.3-14-3.6l-14-3.7c-9.3-2.5-18.5-5-28-7.5-9.2-2.6-18.5-5.2-27.7-7.9l-13.9-4c-4.7-1.5-9.2-2.8-13.9-4.3zM745.5 1289.2c4.7 1.2 9.3 2.3 14 3.6l14 3.7c9.3 2.5 18.5 5 28 7.5 9.2 2.6 18.5 5.2 27.7 7.9l13.9 4c4.7 1.5 9.2 2.8 13.9 4.3-4.7-1.2-9.3-2.3-14-3.6l-14-3.7c-9.3-2.5-18.5-5-28-7.5-9.2-2.6-18.5-5.2-27.7-7.9l-13.9-4c-4.7-1.5-9.4-2.9-13.9-4.3z" class="st12"/>
    <path d="m1341.2 664.4-266.9 346.8-47.5-13.8 270-341.4z" class="st2"/>
    <path d="m1341.3 664.2-65.6 86.8-33.1 43.6-16.7 21.8-16.8 21.8c-11.2 14.5-22.3 29-33.6 43.4l-33.7 43.4-33.5 43.4-33.4 43.6-.2.2-.5-.1-47.5-13.7-1.3-.5.9-1 67-85.6 33.6-42.7 16.8-21.4 16.9-21.4c22.5-28.3 45-56.8 67.7-85.3 22.7-28.3 45.3-56.6 68.1-84.9l.2-.2.5.1 44.2 8.7zm-.2.2-44.3-7.7.7-.2c-22.2 28.7-44.4 57.3-67 85.8-22.3 28.7-44.9 57.1-67.2 85.5l-16.8 21.4-16.9 21.4-33.9 42.6-68 84.9-.5-1.5 47.4 14.4-.7.2 33.5-43.3 33.1-43.4 32.9-43.4c10.9-14.5 22-29 33-43.3l16.7-21.6 16.8-21.6 33.5-43.3 67.7-86.9z" class="st12"/>
    <linearGradient id="SVGID_9_" x1="3226.429" x2="3392.814" y1="-757.475" y2="-757.475" gradientTransform="matrix(-1 0 0 1 4614.988 1400)" gradientUnits="userSpaceOnUse">
      <stop offset="0" style="stop-color:#616772;stop-opacity:0"/>
      <stop offset="1" style="stop-color:#616772"/>
    </linearGradient>
    <path d="M1388.6 640.7v-14.1l-32.7 20-133.7-23.8 3 11.7 135.1 27.8z" style="fill:url(#SVGID_9_);stroke:#5f5e5f;stroke-width:1.6326;stroke-miterlimit:10"/>
    <path d="m1362.2 603.4-130.6 7.6-9.4 11.8 133.5 27 32.9-23.2z" class="st14"/>
    <linearGradient id="SVGID_10_" x1="940.694" x2="1248.801" y1="-460.903" y2="-460.903" gradientTransform="translate(0 1400)" gradientUnits="userSpaceOnUse">
      <stop offset="0" style="stop-color:#616772;stop-opacity:0"/>
      <stop offset="1" style="stop-color:#616772"/>
    </linearGradient>
    <path d="m1248.8 1046.2-74.2 108.9-67.8-73.7-136.5-148.3-29.6-32.2 147.9-177.8-22.9 93.7 114.5 165.9z" style="opacity:.22;fill:url(#SVGID_10_);enable-background:new"/>
    <linearGradient id="SVGID_11_" x1="700.688" x2="1029.899" y1="-134.208" y2="-134.208" gradientTransform="translate(0 1400)" gradientUnits="userSpaceOnUse">
      <stop offset="0" style="stop-color:#616772;stop-opacity:0"/>
      <stop offset="1" style="stop-color:#616772"/>
    </linearGradient>
    <path d="m700.7 1189.7 67.7-10.5 144 164 47.7 125.7 69.8-102.2-223.7-304z" style="opacity:.59;fill:url(#SVGID_11_);enable-background:new"/>
    <linearGradient id="SVGID_12_" x1="3144.587" x2="3369.992" y1="-745.021" y2="-745.021" gradientTransform="matrix(-1 0 0 1 4414.247 1400)" gradientUnits="userSpaceOnUse">
      <stop offset="0" style="stop-color:#616772;stop-opacity:0"/>
      <stop offset="1" style="stop-color:#616772"/>
    </linearGradient>
    <path d="m1139.1 700.7 130.6-167.1-36.6 15.5-188.8 227.3z" style="fill:url(#SVGID_12_)"/>
    <path d="M902.2 1525.1c-4.4-8.5-8.6-16.9-12.9-25.4-4.3-8.5-8.5-17.1-12.5-25.5-4.3-8.6-8.3-17.1-12.4-25.8-4-8.6-8.3-17.1-12.3-25.8l1.5 1.5-24.5-10.6-24.5-10.7c-16.3-7-32.8-14.4-49-21.6-8.2-3.7-16.2-7.4-24.4-10.9-8.2-3.7-16.2-7.4-24.4-11.2l-24.3-11.2-24.3-11.4.2.1-22.3-6.3c-7.5-2.1-15-4.3-22.3-6.4 7.6 1.5 15.2 3.1 22.8 4.7l22.8 4.8h.2l24.7 10.2L709 1354c8.2 3.3 16.3 7 24.7 10.6 8.2 3.6 16.3 7 24.5 10.6 16.3 7.1 32.8 14.2 49.1 21.5l24.4 10.8 24.4 10.9 1 .5.5 1c3.9 8.6 7.7 17.4 11.5 26.1l11.4 26.1c3.8 8.7 7.5 17.5 11.3 26.3 3 9.2 6.7 18 10.4 26.7z" class="st18"/>
    <path d="m1406 914.6-27.9-32.8-67.1-15.7 13.5 43.3 48.8 5.2 23.5 23z" class="st3"/>
    <path d="M1399.6 914.6c-2.3-1.7-4.5-3.7-6.6-5.5-2.2-1.8-4.3-3.8-6.3-5.6-4-3.9-8.2-7.9-12-12l1.5.9c-9.4-2.3-18.9-5-28.1-8.1-4.7-1.5-9.2-3.1-13.7-4.8-4.5-1.7-9.1-3.7-13.6-5.6 5 .5 9.8 1.2 14.6 2.1 4.8.9 9.7 1.8 14.4 2.9 9.4 2.2 18.9 4.8 28.2 7.7l.9.2.6.6c3.7 4.4 7.1 8.7 10.7 13.3 1.7 2.3 3.3 4.5 5 6.9 1.2 2 2.8 4.4 4.4 7z" class="st6"/>
    <path d="M778.6 575.9 742 560.3l-100.9 31.5-121.7-10.6-16 85-481.6 140v193.3l52.9 119.1 128.5-65.4 310.1-117.8 88.1 154.1 141.8-44.9 358.3 524.4 102.8 49.3 212.2-94.8v-180L778.6 575.9zM622 1013.5 566.9 915l76.4-29.2L710 986.7l-88 26.8z" class="st2"/>
    <path d="m682.5 808.7-524.8 126-23.7 32.4-112 32.2 52.9 119.1 106.1-42.7 22.3-22.7 310.1-117.8 88.1 154.1 141.8-44.9 358.3 524.4 55.7-120.7-474.8-639.4zM622 1013.5 566.9 915l3.3-1.3 73.3-28.1 66.6 100.9-88.1 27z" class="st3"/>
    <linearGradient id="SVGID_13_" x1="203.375" x2="513.444" y1="-435.565" y2="-435.565" gradientTransform="translate(0 1400)" gradientUnits="userSpaceOnUse">
      <stop offset="0" style="stop-color:#616772;stop-opacity:0"/>
      <stop offset="1" style="stop-color:#616772"/>
    </linearGradient>
    <path d="M513.4 875.7v59.7l-310 117.8z" style="fill:url(#SVGID_13_)"/>
    <linearGradient id="SVGID_14_" x1="552.218" x2="751.119" y1="-491.395" y2="-491.395" gradientTransform="translate(0 1400)" gradientUnits="userSpaceOnUse">
      <stop offset="0" style="stop-color:#616772;stop-opacity:0"/>
      <stop offset="1" style="stop-color:#616772"/>
    </linearGradient>
    <path d="M751.1 971.5 710 986.7l-66.6-100.9-73.1 28.1-18.1-34.9 108.1-48.5z" style="fill:url(#SVGID_14_)"/>
    <path d="M522.8 871.1c8.5 12.8 16.6 25.4 24.7 38.3l12.1 19.3 12 19.4 11.9 19.4c3.9 6.4 7.9 13 11.9 19.4 7.7 13 15.6 26 23.2 39.1l-3.7-1.5c11.5-3.3 23.1-6.9 34.6-10.1l17.4-5 17.4-4.8c5.9-1.6 11.5-3.2 17.4-4.8s11.7-3.2 17.4-4.7c11.7-3.1 23.4-6.1 35.1-9-11.4 4-22.8 7.9-34.2 11.7-5.6 1.8-11.4 3.8-17.1 5.6-5.6 1.8-11.4 3.8-17.3 5.5l-17.3 5.5-17.3 5.4c-11.5 3.7-23.1 7-34.5 10.6l-2.3.7-1.3-2.2c-7.9-13-15.5-26.1-23.2-39.1-3.8-6.6-7.6-13.1-11.4-19.8l-11.4-19.8-11.3-19.9-11.2-19.9c-7.2-12.5-14.4-25.9-21.6-39.3z" class="st6"/>
    <linearGradient id="SVGID_15_" x1="61.653" x2="494.916" y1="-561.458" y2="-561.458" gradientTransform="translate(0 1400)" gradientUnits="userSpaceOnUse">
      <stop offset="0" style="stop-color:#616772;stop-opacity:.3939"/>
      <stop offset="1" style="stop-color:#616772"/>
    </linearGradient>
    <path d="M61.7 815.8v133.8l40.3-13.9 9.1-38.6 383.8-88.4-76.6-81.3z" style="fill:url(#SVGID_15_)"/>
    <path d="m157.7 934.7 45.7 118.5-22.4 22.7-47-108.7z" class="st8"/>
    <linearGradient id="SVGID_16_" x1="513.444" x2="605.962" y1="-417.405" y2="-417.405" gradientTransform="translate(0 1400)" gradientUnits="userSpaceOnUse">
      <stop offset="0" style="stop-color:#616772;stop-opacity:0"/>
      <stop offset="1" style="stop-color:#616772"/>
    </linearGradient>
    <path d="m513.4 875.7 92.6 163.4-4.5 50.4-88.1-154.1z" style="fill:url(#SVGID_16_)"/>
    <ellipse cx="1315.2" cy="1477.4" rx="59.4" ry="48.1" transform="rotate(-25.538 1315.148 1477.395)"/>
    <linearGradient id="SVGID_17_" x1="597.005" x2="1366.595" y1="-377.711" y2="-377.711" gradientTransform="translate(0 1400)" gradientUnits="userSpaceOnUse">
      <stop offset=".053" style="stop-color:#c3cad7"/>
      <stop offset=".807" style="stop-color:#d9e5e4"/>
    </linearGradient>
    <path d="m1157.4 1448.1 209.2-91.8-623.1-759.8L597 648.7l85.5 160z" style="fill:url(#SVGID_17_)"/>
    <linearGradient id="SVGID_18_" x1="42.233" x2="538.239" y1="-481.517" y2="-481.517" gradientTransform="translate(0 1400)" gradientUnits="userSpaceOnUse">
      <stop offset="0" style="stop-color:#dde0e7"/>
      <stop offset=".807" style="stop-color:#fff"/>
    </linearGradient>
    <path d="M43.4 993.3c7.5-2.5 15-5 22.3-7.4l22.5-7.1c15.1-4.8 29.9-9.4 45-14.2l-1.3 1c7.6-10.9 15.5-22 23.1-32.9l.6-.9 1.2-.2c15.8-4 31.5-7.9 47.4-11.9 15.8-3.9 31.5-7.7 47.4-11.7 31.5-7.7 63.3-15.2 94.8-22.7l47.5-10.9 47.6-10.7c31.8-7 63.6-13.9 95.5-20.1-31.3 8.7-62.7 17.1-94.2 25.3L395.6 881 348 893c-31.5 7.7-63.2 15.5-94.8 22.9-15.8 3.8-31.5 7.5-47.5 11.2-15.8 3.7-31.8 7.4-47.5 10.8l1.8-1.2c-8.1 10.7-16.1 21.5-24.2 32.1l-.6.7-.7.1c-15.2 4-30.4 8.2-45.6 12.1l-22.8 5.9c-7.5 1.9-15.1 3.8-22.7 5.7z" style="fill:url(#SVGID_18_)"/>
    <linearGradient id="SVGID_19_" x1="742.162" x2="967.444" y1="-718.21" y2="-718.21" gradientTransform="translate(0 1400)" gradientUnits="userSpaceOnUse">
      <stop offset="0" style="stop-color:#616772;stop-opacity:0"/>
      <stop offset="1" style="stop-color:#616772"/>
    </linearGradient>
    <path d="M872.6 727.4 742.2 560.3l36.4 15.6 188.8 227.4z" style="fill:url(#SVGID_19_)"/>
    <path d="M1109.8 1551.9c3.7-8.7 7.4-17.5 10.9-26.5 3.8-8.7 7.5-17.5 11.3-26.3 3.8-8.7 7.6-17.5 11.4-26.1 3.8-8.7 7.6-17.4 11.5-26.1l.5-1 1-.5 24.4-10.9 24.4-10.8c16.3-7.4 32.8-14.4 49.1-21.5 8.2-3.7 16.3-7 24.5-10.6 8.2-3.6 16.3-7 24.7-10.6l24.7-10.4 24.7-10.2h.2l22.8-4.8c7.6-1.6 15.2-3.2 22.8-4.7-7.5 2.2-15 4.4-22.3 6.4l-22.3 6.3.2-.1-24.3 11.4-24.3 11.2c-8.1 3.8-16.2 7.4-24.4 11.2-8.2 3.7-16.2 7.4-24.4 10.9-16.3 7.1-32.6 14.5-49 21.6l-24.5 10.7-24.5 10.6 1.5-1.5c-4 8.6-8.2 17.1-12.3 25.8-4 8.6-8.3 17.1-12.4 25.8-4 8.6-8.5 17.1-12.5 25.5-4.8 8.2-9.2 16.7-13.4 25.2z" class="st18"/>
    <path d="m606 941.4 27.6-32.9 67.1-15.7-13.3 43.4-48.8 5.2-23.6 23.1z" class="st3"/>
    <path d="M612.2 941.3c1.5-2.5 3.1-4.8 4.7-7.1s3.3-4.7 5-6.9c3.3-4.5 7-9 10.7-13.3l.6-.6.9-.2c9.3-2.9 18.8-5.4 28.2-7.7 4.7-1 9.4-2.2 14.4-2.9 4.8-.9 9.7-1.6 14.6-2.1-4.4 2.2-9 3.9-13.6 5.6-4.5 1.7-9.2 3.3-13.7 4.8-9.2 3.1-18.5 5.6-28.1 8.1l1.5-.9c-3.9 4-7.9 8.1-12 12-2.1 1.8-4 3.9-6.3 5.6-2.5 1.9-4.7 3.8-6.9 5.6z" class="st6"/>
    <path d="m1416.8 1523.5-.9-45-.7-45-.7-45-.6-45 .6 1.7c-54-63.3-107.5-127-161-190.8-53.4-63.7-106.8-127.6-159.6-191.8-26.6-32-52.9-64.2-79.4-96.2-26.5-32-52.8-64.3-79.1-96.4-52.6-64.4-104.9-129.1-156.8-194.1C833 638.7 887.1 702 940.7 765.5c26.7 31.8 53.6 63.4 80.4 95.5 26.7 31.9 53.5 63.7 80.1 95.6 53.4 63.9 106.4 127.9 159.4 191.9 52.9 64.2 105.6 128.5 158.2 193.1l.6.7v1l-.6 45-.7 45-.7 45-.6 45.2zM601.5 1089.5c11.7-4 23.4-8.3 35.1-12.4s23.4-8.2 35.2-12.1c11.7-3.9 23.4-8.1 35.2-12l35.2-11.9 2.6-.9 1.6 2.3 45.8 64.9 45.3 65.2 45 65.5 44.5 65.6c29.7 43.8 59 87.9 88.3 132 29.1 44.3 58 88.6 86.4 133.4-31.4-42.6-62.3-85.6-92.9-129-30.6-43.3-60.9-86.8-90.9-130.3l-44.9-65.5-44.5-65.6-44.3-65.9-43.8-66.3 4.3 1.5-35.7 10.6c-11.9 3.6-23.8 7-35.7 10.4-11.9 3.6-23.8 6.9-35.8 10.2-11.9 3.6-23.9 6.9-36 10.3zM742.2 560.3l-25 8.5-25 8.5L642 594l-.2.1h-.5l-30.4-2.2-30.4-2.3-61-4.7 3.8-2.9-7.6 42.7-7.6 42.7-.2 2.6-2.5.7c-40 11.9-80.1 23.8-120.4 35.3l-60.2 17.5-60.2 17.4-60.2 17.4-60.2 17.1-30.1 8.6-30.1 8.5-61 16.9 2.3-3.1-.6 48.2-.7 48.3-.9 48.2-1 48.2-1-48.2-.9-48.2-.7-48.2-.5-48.3v-2.5l2.3-.7 60.1-18 29.9-9.1 30.1-9 60.1-17.8 60.2-17.5 60.2-17.5 60.2-17.4c40.2-11.7 80.4-23.1 120.6-34.5l-3.1 3.3L508 623l8.3-42.6.6-3.2 3.2.2 60.9 6 30.4 3.1 30.4 3.1-.7.1 50.7-15 25.4-7.5 25-6.9zM1989.8 972.7l-1-48.2-.9-48.2-.7-48.2-.6-48.2 2.3 3.1-60.4-16.9-30.1-8.5-30.1-8.6-60.2-17.1-60.2-17.4-60.2-17.4-60.2-17.5-60.2-17.7-60.1-17.8-2.5-.7-.5-2.6-7.6-42.7-7.6-42.7 3.8 2.9c-20.4 1.6-40.6 3.1-61 4.7l-30.4 2.2-30.4 2.2h-.5l-.2-.1-50.2-16.7-25-8.5-25-8.5 25.4 7.4 25.4 7.5 50.7 15-.7-.1 30.4-3.1 30.4-3.1c20.4-2.1 40.5-4 60.9-6l3.2-.2.6 3.2 8.3 42.6 8.2 42.6-3.1-3.3 60.2 17.1 60.2 17.4 60.2 17.4 60.2 17.5 60.2 17.7 60.1 17.8 30.1 9 29.9 9.1 60.1 18 2.3.7v2.3l-.6 48.2-.7 48.2-.9 48.2-1.3 48zM595.2 1316.7c1 15.1 1.8 29.9 2.5 45 .5 7.5.6 15.1.9 22.5.2 7.5.6 15.1.7 22.5.5 15.1.9 29.9 1 45l.2 22.5.1 22.5-3.3-5.2c17.7 7.7 35.3 15.6 53 23.7 17.7 8.1 35.1 16.2 52.8 24.4l26.1 12.5c8.7 4.3 17.4 8.5 26.1 12.8 17.4 8.6 34.6 17.3 51.8 26.5-18.3-6.6-36.2-13.7-54.2-20.9-9-3.7-18-7.1-26.9-10.9l-26.9-11.2c-17.8-7.6-35.7-15.2-53.4-22.9-17.7-7.7-35.3-15.6-53-23.7l-3.3-1.5v-3.7l.1-22.5.2-22.5c.1-15.1.6-29.9 1-45 .1-7.5.5-15.1.7-22.5.2-7.5.5-15.1.9-22.5.9-14.8 1.6-29.9 2.9-44.9z" class="st26"/>
    <path d="M1204.6 1618.3c17.1-9.2 34.5-17.8 51.8-26.5 8.7-4.3 17.4-8.6 26.1-12.8l26.1-12.5 26.3-12.3 13.1-6.1 13.1-6c17.7-8.1 35.2-16 53-23.8l-3.3 5.2.1-22.5.2-22.5c.1-7.5.1-15.1.5-22.5l.6-22.5c.1-7.5.5-15.1.7-22.5.2-7.5.5-15.1.9-22.5.7-15.1 1.5-29.9 2.5-45 1 15.1 1.8 29.9 2.5 45 .5 7.5.6 15.1.9 22.5.2 7.5.6 15.1.7 22.5l.6 22.5c.1 7.5.2 15.1.5 22.5l.2 22.5.1 22.5v3.7l-3.3 1.5c-17.7 8.1-35.3 16-53 23.7l-13.3 5.9-13.3 5.6-26.7 11.4-26.7 11.2c-9 3.7-18 7.4-26.9 10.9-17.8 7.1-35.8 14.4-54 20.9z" class="st26"/>
    <path d="M901.9 1050.9c6.3-1.2 255.7 329.3 255.7 329.3l137.2-56.2-257.7-310.7-135.2 37.6z" class="st2"/>
    <path d="M901.9 1050.9c.6.1.9.6 1.3.9.5.2.7.7 1.2 1.2.7.7 1.5 1.6 2.2 2.3 1.5 1.6 2.9 3.2 4.3 4.8 2.8 3.3 5.5 6.6 8.3 9.9 5.5 6.7 10.9 13.5 16.3 20.1 10.8 13.6 21.6 27.2 32.4 40.7 21.5 27.4 42.8 54.8 64.1 82.3l63.4 82.7 63.1 83.1-1.7-.5 136.9-56.3-.6 2.5-128.6-155.3-128.2-155.3.9.2-67.4 18.2c-22.6 6.1-45.3 12.2-67.9 18.5zm0 0c22.3-6.1 44.8-12.4 67.2-18.9l67.7-19.3.5-.1.2.5 129.2 155 129 155.2 1.5 1.7-2.1.9-137.2 56-1 .5-.7-.9-62.8-83.2-63.1-83.2-63.3-82.9c-10.6-13.7-21.2-27.5-31.9-41.2-5.4-6.9-10.8-13.6-16.2-20.5-2.8-3.3-5.4-6.7-8.3-10.1-1.5-1.6-2.8-3.3-4.3-5-.7-.9-1.5-1.6-2.2-2.3l-1.2-1.2c-.1-.4-.6-1-1-1z" class="st12"/>
    <path d="M1058.5 1058.5c-4.5 1.5-9.2 2.8-13.9 4.3l-13.9 4c-9.2 2.6-18.5 5.3-27.7 7.9-9.3 2.5-18.5 5.2-28 7.5l-14 3.7c-4.7 1.2-9.3 2.3-14 3.6 4.5-1.5 9.2-2.8 13.9-4.3l13.9-4c9.2-2.6 18.5-5.3 27.7-7.9 9.3-2.5 18.5-5.2 28-7.5l14-3.7c4.5-1.3 9.2-2.4 14-3.6zM1071.1 1074.2c-4.5 1.5-9.2 2.8-13.9 4.3l-13.9 4c-9.2 2.6-18.5 5.3-27.7 7.9-9.3 2.5-18.5 5.2-28 7.5l-14 3.7c-4.7 1.2-9.3 2.3-14 3.6 4.5-1.5 9.2-2.8 13.9-4.3l13.9-4c9.2-2.6 18.5-5.3 27.7-7.9 9.3-2.5 18.5-5.2 28-7.5l14-3.7c4.7-1.4 9.4-2.6 14-3.6zM1083.9 1089.7c-4.5 1.5-9.2 2.8-13.9 4.3l-13.9 4c-9.2 2.6-18.5 5.3-27.7 7.9-9.3 2.5-18.5 5.2-28 7.5l-14 3.7c-4.7 1.2-9.3 2.3-14 3.6 4.5-1.5 9.2-2.8 13.9-4.3l13.9-4c9.2-2.6 18.5-5.3 27.7-7.9 9.3-2.5 18.5-5.2 28-7.5l14-3.7c4.7-1.3 9.3-2.7 14-3.6zM1096.6 1105.1c-4.5 1.5-9.2 2.8-13.9 4.3l-13.9 4c-9.2 2.6-18.5 5.3-27.7 7.9-9.3 2.5-18.5 5.2-28 7.5l-14 3.7c-4.7 1.2-9.3 2.3-14 3.6 4.5-1.5 9.2-2.8 13.9-4.3l13.9-4c9.2-2.6 18.5-5.3 27.7-7.9 9.3-2.5 18.5-5.2 28-7.5l14-3.7c4.6-1.3 9.3-2.5 14-3.6zM1109.3 1120.7c-4.5 1.5-9.2 2.8-13.9 4.3l-13.9 4c-9.2 2.6-18.5 5.3-27.7 7.9-9.3 2.5-18.5 5.2-28 7.5l-14 3.7c-4.7 1.2-9.3 2.3-14 3.6 4.5-1.5 9.2-2.8 13.9-4.3l13.9-4c9.2-2.6 18.5-5.3 27.7-7.9 9.3-2.5 18.5-5.2 28-7.5l14-3.7c4.7-1.3 9.3-2.5 14-3.6zM1122 1136.2c-4.5 1.5-9.2 2.8-13.9 4.3l-13.9 4c-9.2 2.6-18.5 5.3-27.7 7.9-9.3 2.5-18.5 5.2-28 7.5l-14 3.7c-4.7 1.2-9.3 2.3-14 3.6 4.5-1.5 9.2-2.8 13.9-4.3l13.9-4c9.2-2.6 18.5-5.3 27.7-7.9 9.3-2.5 18.5-5.2 28-7.5l14-3.7c4.7-1.3 9.4-2.5 14-3.6zM1134.7 1151.6c-4.5 1.5-9.2 2.8-13.9 4.3l-13.9 4c-9.2 2.6-18.5 5.3-27.7 7.9-9.3 2.5-18.5 5.2-28 7.5l-14 3.7c-4.7 1.2-9.3 2.3-14 3.6 4.5-1.5 9.2-2.8 13.9-4.3l13.9-4c9.2-2.6 18.5-5.3 27.7-7.9 9.3-2.5 18.5-5.2 28-7.5l14-3.7c4.7-1.3 9.3-2.4 14-3.6zM1147.4 1167.3c-4.5 1.5-9.2 2.8-13.9 4.3l-13.9 4c-9.2 2.6-18.5 5.3-27.7 7.9-9.3 2.5-18.5 5.2-28 7.5l-14 3.7c-4.7 1.2-9.3 2.3-14 3.6 4.5-1.5 9.2-2.8 13.9-4.3l13.9-4c9.2-2.6 18.5-5.3 27.7-7.9 9.3-2.5 18.5-5.2 28-7.5l14-3.7c4.7-1.4 9.4-2.6 14-3.6zM1160.2 1182.8c-4.5 1.5-9.2 2.8-13.9 4.3l-13.9 4c-9.2 2.6-18.5 5.3-27.7 7.9-9.3 2.5-18.5 5.2-28 7.5l-14 3.7c-4.7 1.2-9.3 2.3-14 3.6 4.5-1.5 9.2-2.8 13.9-4.3l13.9-4c9.2-2.6 18.5-5.3 27.7-7.9 9.3-2.5 18.5-5.2 28-7.5l14-3.7c4.7-1.4 9.3-2.6 14-3.6zM1172.8 1198.2c-4.5 1.5-9.2 2.8-13.9 4.3l-13.9 4c-9.2 2.6-18.5 5.3-27.7 7.9-9.3 2.5-18.5 5.2-28 7.5l-14 3.7c-4.7 1.2-9.3 2.3-14 3.6 4.5-1.5 9.2-2.8 13.9-4.3l13.9-4c9.2-2.6 18.5-5.3 27.7-7.9 9.3-2.5 18.5-5.2 28-7.5l14-3.7c4.7-1.2 9.4-2.5 14-3.6zM1185.6 1213.8c-4.5 1.5-9.2 2.8-13.9 4.3l-13.9 4c-9.2 2.6-18.5 5.3-27.7 7.9-9.3 2.5-18.5 5.2-28 7.5l-14 3.7c-4.7 1.2-9.3 2.3-14 3.6 4.5-1.5 9.2-2.8 13.9-4.3l13.9-4c9.2-2.6 18.5-5.3 27.7-7.9 9.3-2.5 18.5-5.2 28-7.5l14-3.7c4.7-1.2 9.3-2.5 14-3.6zM1198.4 1229.3c-4.5 1.5-9.2 2.8-13.9 4.3l-13.9 4c-9.2 2.6-18.5 5.3-27.7 7.9-9.3 2.5-18.5 5.2-28 7.5l-14 3.7c-4.7 1.2-9.3 2.3-14 3.6 4.5-1.5 9.2-2.8 13.9-4.3l13.9-4c9.2-2.6 18.5-5.3 27.7-7.9 9.3-2.5 18.5-5.2 28-7.5l14-3.7c4.5-1.3 9.1-2.5 14-3.6zM1210.9 1244.7c-4.5 1.5-9.2 2.8-13.9 4.3l-13.9 4c-9.2 2.6-18.5 5.3-27.7 7.9-9.3 2.5-18.5 5.2-28 7.5l-14 3.7c-4.7 1.2-9.3 2.3-14 3.6 4.5-1.5 9.2-2.8 13.9-4.3l13.9-4c9.2-2.6 18.5-5.3 27.7-7.9 9.3-2.5 18.5-5.2 28-7.5l14-3.7c4.7-1.2 9.3-2.3 14-3.6zM1223.6 1260.2c-4.5 1.5-9.2 2.8-13.9 4.3l-13.9 4c-9.2 2.6-18.5 5.3-27.7 7.9-9.3 2.5-18.5 5.2-28 7.5l-14 3.7c-4.7 1.2-9.3 2.3-14 3.6 4.5-1.5 9.2-2.8 13.9-4.3l13.9-4c9.2-2.6 18.5-5.3 27.7-7.9 9.3-2.5 18.5-5.2 28-7.5l14-3.7c4.7-1.1 9.4-2.4 14-3.6zM1236.4 1275.9c-4.5 1.5-9.2 2.8-13.9 4.3l-13.9 4c-9.2 2.6-18.5 5.3-27.7 7.9-9.3 2.5-18.5 5.2-28 7.5l-14 3.7c-4.7 1.2-9.3 2.3-14 3.6 4.5-1.5 9.2-2.8 13.9-4.3l13.9-4c9.2-2.6 18.5-5.3 27.7-7.9 9.3-2.5 18.5-5.2 28-7.5l14-3.7c4.6-1.4 9.2-2.6 14-3.6zM1249 1291.4c-4.5 1.5-9.2 2.8-13.9 4.3l-13.9 4c-9.2 2.6-18.5 5.3-27.7 7.9-9.3 2.5-18.5 5.2-28 7.5l-14 3.7c-4.7 1.2-9.3 2.3-14 3.6 4.5-1.5 9.2-2.8 13.9-4.3l13.9-4c9.2-2.6 18.5-5.3 27.7-7.9 9.3-2.5 18.5-5.2 28-7.5l14-3.7c4.7-1.3 9.4-2.5 14-3.6z" class="st12"/>
    <path d="m653.3 666.5 266.8 347 47.3-14-269.8-341.4z" class="st2"/>
    <path d="m653.4 666.6 67.9 86.9 33.5 43.3 16.8 21.6 16.7 21.6c11.2 14.4 22.1 28.8 33 43.3l32.9 43.4 33.1 43.4 33.5 43.3-.7-.2 47.4-14.4-.5 1.5-68.1-85-33.9-42.6-16.9-21.4-16.9-21.3c-22.5-28.5-45-56.8-67.2-85.5-22.3-28.5-44.5-57.2-67-85.8l.7.2-44.3 7.7zm-.2-.1 44.4-9 .5-.1.2.2c22.8 28.2 45.5 56.6 68.1 84.9 22.7 28.3 45.2 56.7 67.7 85.3l16.9 21.4 16.8 21.4 33.6 42.7 67 85.6.9 1-1.3.5-47.5 13.7-.5.1-.2-.2-33.4-43.6-33.4-43.5-33.7-43.3c-11.3-14.5-22.5-29-33.6-43.4l-16.8-21.8-16.7-21.8L719 753l-65.8-86.5z" class="st12"/>
    <linearGradient id="SVGID_20_" x1="605.962" x2="772.346" y1="-755.451" y2="-755.451" gradientTransform="translate(0 1400)" gradientUnits="userSpaceOnUse">
      <stop offset="0" style="stop-color:#616772;stop-opacity:0"/>
      <stop offset="1" style="stop-color:#616772"/>
    </linearGradient>
    <path d="M606 642.9v-14.4l32.6 20.2 133.7-24-3 12.1-135.2 27.6z" style="fill:url(#SVGID_20_);stroke:#5f5e5f;stroke-width:1.6326;stroke-miterlimit:10"/>
    <path d="m632.3 605.6 130.5 7.6 9.5 11.5-133.5 27.2-32.8-23.4z" class="st14"/>
  </g>
</svg>
