<svg xmlns="http://www.w3.org/2000/svg" xmlns:xlink="http://www.w3.org/1999/xlink" xml:space="preserve" style="enable-background:new 0 0 1000 1000" viewBox="0 0 1000 1000"><style>.st4{clip-path:url(#SVGID_00000178200355318735640660000007024515059389164952_);fill:#18161c}.st5{clip-path:url(#SVGID_00000070831417897651279540000008731625503603487888_)}.st5,.st6,.st7{fill:#363649}.st6{clip-path:url(#SVGID_00000157273475758568275720000010489482038349267885_)}.st7{clip-path:url(#SVGID_00000131356456383449100160000015037828412085534363_)}.st10,.st8,.st9{fill:#363649}.st8,.st9{clip-path:url(#SVGID_00000138532137325997923070000017373518605568541366_)}.st9{clip-path:url(#SVGID_00000056418311068357861220000001914787670849202362_)}.st10{clip-path:url(#SVGID_00000132789958187221359020000003820808920036075198_)}.st11{clip-path:url(#SVGID_00000170253884011849246710000003691041226123535021_);fill:#797582}.st12{clip-path:url(#SVGID_00000152951169133038199410000007401115885675950014_)}.st12,.st13,.st14{fill:#797582}.st13{clip-path:url(#SVGID_00000169536777781435454290000017898845493045537953_)}.st14{clip-path:url(#SVGID_00000116220156745943010730000008458179351127796658_)}</style><switch><g><g id="Layer_1"><path d="m137.4 873.8 2.2-2.2 22.6-23-10.7 2.2-9.7 1.8.9-8.1c1-8.9 2.6-18.2 4.7-28.4 3.3-15.2 8.4-34.8 17.9-52.1.5-1 1.1-2 1.6-3l.1-.1c1.5-2.9 3.1-5.9 4.9-8.8 12.4-21.3 27.6-41.3 45.4-59.3 8.6-8.7 25.7-20.9 35.2-27.4l9.8-6.8-5.3 145.1 10.9 1.4c5.5-37.9 11.7-80.7 16.8-122.6v-.2c5.6-38.7 19-76.8 38.7-110.3 3.6-6.4 8.9-14.7 13.5-21.2 1.8-2.7 4.5-6.3 6.8-9.5l.2-.3c1-1.4 1.9-2.6 2.7-3.7l.1-.2c37.5-48.2 86.5-89 133.9-128.5 12.3-10.3 25.1-20.9 37.3-31.4-1.1-5.3-2.3-11.6-3.6-18.2l-.1-.5c-2.9-14.5-6.1-30.9-8.4-41.4-1-1-2.2-2.2-3.4-3.2-4.5-3.9-9.2-7.7-14.4-11.8-14-11.1-28.3-21.9-41.7-32l-95.8 30.1-38.1 11.9 22.9-19.3c1.3-1.1 17.1-16.2 34.7-33l.3-.3c14-13.4 26.1-25 28.2-26.8l1.6-1.3 1.8-.6 77.6-20 3.2-.6 2.8 1.6 67.9 37.3 119.3-118-42.3-51.2-84.2-27.5-30.2-10 31.1-6.6 112-24.3 3.3-.7 2.9 1.8L830 105.3l3.1 1.6.8 3.7 28.9 117.5 6.8 26.6-19.4-19.4-58.7-58-66.6-4.4-96.4 128.3 68.2 70.8.2 2.3c.2 1.7 3.2 30.9 3.2 30.9l.3 2.8c2.4 23.2 2.8 27.5 2.9 28.5v.5l-6.2 65.6-12 3.9-1.9-6.7c-13.8-47.3-17.5-59.9-18.1-62L650.3 406l-60.5-12.5c-.5 7.5-1 16.3-1.4 22.2l-.6 8.4-.3 1.5-4.8 38.8-.8 5.2-5.1.7-10.7 1.7h-.5c-31.6 4.9-53.4 8.3-57.2 8.9-15.1 5.8-30.8 15-48 28-27.3 21-50.9 47.7-70.1 79.5-19.7 32.4-34.7 70.3-44.5 112.7-9 38.9-13.4 69-14.1 97.4v9c0 12.7-2.2 24.6-4.8 37.8-2.2 10.7-4.5 20.2-6.9 29l-1.7 6-28.1.3-37.2 35.8-8.1 33.2-1.9 7.2-7.3-1.1-17.5-2.9-5.3-.8-1.2-5.5-5.3-24.1-23.6-3.9-44.9 82-.5-126.7z" style="opacity:.1;fill:none;stroke:#008740;stroke-width:2;stroke-miterlimit:10"/><path d="m139.4 874.6 1.6-1.6 27.1-27.7-17.1 3.4-7 1.3.6-5.4c1-8.9 2.6-18.1 4.7-28.2 3.3-15 8.3-34.4 17.7-51.5.5-1 1.1-2.1 1.7-3.2 1.5-2.9 3.1-5.8 4.8-8.7 12.3-21.2 27.4-41 45.1-58.9 8.5-8.5 25.5-20.7 34.9-27.2l6.6-4.5-5.1 143 14.7 1.9.1-1c5.5-38.1 11.8-81.4 17-123.6v-.1c5.6-38.4 18.8-76.3 38.4-109.5 3.6-6.3 8.9-14.6 13.4-21l.1-.1c1.7-2.6 4.4-6.2 6.8-9.4l.2-.3c1-1.4 2-2.6 2.7-3.7l.1-.1c37.4-48 86.3-88.8 133.6-128.2 12.5-10.4 25.4-21.1 37.8-31.8l.4-.4-.1-.6c-1.1-5.4-2.4-11.9-3.7-18.7l-.1-.5c-2.9-14.6-6.2-31.2-8.5-41.7l-.1-.3-.2-.2c-1.1-1.2-2.5-2.4-3.8-3.5-4.5-3.9-9.2-7.7-14.4-11.9-14.2-11.3-28.7-22.2-42.2-32.3l-.4-.3-96.8 30.4-28.6 8.9 15.3-12.9c1.3-1.1 16.5-15.6 34.7-33l.1-.1c14.1-13.5 26.4-25.2 28.4-27l1.2-1 1.4-.5 77.4-20 2.4-.5 2.2 1.2 69.2 38 121.7-120.4-43.8-53.1-84.8-27.7-23.2-7.6 23.9-5.1 112-24.3 2.5-.6 2.2 1.4L829.1 107l2.3 1.2.6 2.8 28.9 117.6 5 19.6-14.3-14.3-59.2-58.6-68.5-4.5-98.1 130.6 68.8 71.5.2 1.6c.2 1.7 3.2 30.9 3.2 30.9l.3 2.8c2.3 22.8 2.8 27.5 2.9 28.5v.4l-6.1 64.1-8.7 2.8-1.4-4.7c-13.9-47.9-17.6-60.2-18.1-62.1v-.1l-15.3-32.9-63.7-13.2-.1 1.2c-.5 7.6-1.1 16.7-1.5 23.4l-.5 8.3-.2 1.4-4.8 38.9-.5 3.7-3.7.5L566 470h-.6c-31.9 5-53.9 8.4-57.4 8.9h-.2c-15.3 5.9-31.1 15.2-48.6 28.3-27.5 21.1-51.3 48.1-70.6 80.1-19.8 32.6-34.9 70.7-44.7 113.2-9 39-13.4 69.2-14.2 97.8v9.1c0 12.5-2.2 24.3-4.8 37.4-2.2 10.7-4.5 20.1-6.9 28.9l-1.3 4.6-27.4.3-38.2 36.7-8.3 33.8-1.4 5.5-5.5-.9-17.5-2.9-4-.6-.9-4.1-5.5-25.5-26.3-4.4-41.9 76.4-.4-118z" style="opacity:.25;fill:none;stroke:#008740;stroke-width:2;stroke-miterlimit:10"/><path d="m141.4 875.4 1-1 31.7-32.3-23.5 4.7-4.3.8.3-2.7c1-8.8 2.5-18 4.6-28.1 3.3-14.9 8.2-34.1 17.5-51 .6-1 1.1-2.1 1.7-3.2 1.5-2.8 3-5.8 4.7-8.6 12.2-21 27.3-40.8 44.8-58.6 8.3-8.4 25.3-20.5 34.6-26.9l3.3-2.3-5.1 140.8 18.4 2.4.4-2.9c5.5-38.1 11.8-81.4 17-123.6v-.1c5.5-38.2 18.7-75.8 38.1-108.8 3.6-6.3 8.8-14.5 13.3-20.9l.1-.1c1.7-2.6 4.4-6.2 6.7-9.3l.2-.3c1-1.3 2-2.6 2.7-3.7l.1-.1c37.2-47.9 86.1-88.5 133.3-127.8 12.5-10.4 25.4-21.2 37.8-31.8l1.3-1.1-.3-1.7c-1.1-5.5-2.4-12-3.8-18.9l-.1-.3c-2.9-14.7-6.2-31.3-8.5-41.7l-.2-.8-.6-.6c-1.2-1.2-2.6-2.5-3.9-3.7-4.5-4-9.3-7.8-14.5-11.9-14.2-11.3-28.7-22.2-42.2-32.4l-1.2-.9-97.8 30.7-19.1 6 7.7-6.5c1.4-1.2 16-15.1 34.8-33.1l.1-.1c14.1-13.5 26.4-25.2 28.3-27l.9-.7 1-.3 77.3-19.9 1.7-.3 1.5.9 70.5 38.7 124-122.7-45.4-54.9L547 48.9l-16.1-5.3L548 40l112-24.3 1.7-.4 1.5.9 164.9 92.6 1.6.8.4 1.9L859 229.1l3.2 12.5-9.1-9.1-59.8-59.1-70.3-4.6-99.7 132.8 69.5 72.2.1.9c.2 1.7 3.2 30.9 3.2 30.9 2.6 25 3.1 30.2 3.2 31.2v.2l-5.9 62.7-5.5 1.8-.6-2c-2.8-9.8-17-58.6-18.4-62.9l-.1-.2-15.8-34-67-13.8-.2 3.5c-.4 7.3-1 15.8-1.5 23.3l-.5 8.2-.2 1.3-4.8 39-.3 2.2-2.2.3-10.4 1.6h-.7c-31.9 5-53.9 8.4-57.4 8.9l-.3.1-.3.1c-15.4 6-31.5 15.3-49 28.5-27.7 21.3-51.7 48.4-71.1 80.6-19.9 32.8-35 71.1-45 113.8-9.1 39.2-13.5 69.5-14.2 98.2v9.1c0 12.3-2.1 24-4.7 37-2.2 10.6-4.5 20-6.8 28.7l-.9 3.1-26.7.3-39.2 37.6-8.4 34.4-1 3.7-3.7-.6-17.5-2.9-2.7-.4-.6-2.8-5.8-26.8-29.1-4.9-38.9 71.3-.5-109.6z" style="opacity:.5;fill:none;stroke:#008740;stroke-width:2;stroke-miterlimit:10"/><path d="m143.4 876.2.4-.4 36.3-37-29.9 6-1.6.3c1-8.7 2.5-17.9 4.6-27.9 3.2-14.7 8.1-33.7 17.3-50.4.6-1.1 1.1-2.1 1.7-3.2 1.5-2.8 3-5.7 4.7-8.5 12.2-21 27.1-40.5 44.5-58.2 8.1-8.2 24.5-19.9 34.3-26.7l-5 138.7 22.2 2.9.7-4.9c5.5-38.2 11.8-81.4 17-123.7v-.1c5.5-37.9 18.6-75.3 37.9-108 3.6-6.3 8.8-14.4 13.2-20.7l.1-.1c1.7-2.6 4.4-6.2 6.7-9.3l.1-.2c1-1.4 2-2.7 2.8-3.8v-.1c37.1-47.7 85.8-88.3 133-127.5 12.5-10.4 25.4-21.2 37.8-31.8l2.2-1.9-.6-2.9c-1.1-5.5-2.4-12-3.8-18.9v-.2c-2.9-14.7-6.2-31.4-8.5-41.8l-.3-1.3-.9-1c-1.2-1.3-2.7-2.6-4-3.8-4.6-4-9.3-7.8-14.6-12-14.2-11.3-28.7-22.2-42.3-32.4l-2.1-1.5-98.8 31-9.6 3 .1-.1c1.4-1.2 15.4-14.5 34.9-33.2l.1-.1c14.1-13.5 26.4-25.2 28.3-26.9l.5-.4.6-.2 77.1-19.9 1-.2.9.5 71.9 39.4 126.4-125L634 75l-85.9-28.1-9.1-3 9.4-2 112-24.3.9-.2.8.5 165 92.6.8.4.2 1L857 229.5l1.4 5.5-4-4-60.3-59.6-72.1-4.7-101.4 135 70.2 72.9v.3c.2 2 1.7 16.7 3.2 30.9 2.5 24.6 3.1 30.2 3.2 31.2l-5.8 61.2-2.3.8c-6.5-22.4-17.2-59.3-18.4-62.9l-.1-.3-16.2-35-70.2-14.5-.3 5.8c-.4 7.4-1 16-1.5 23.7l-.5 7.8-.2 1.2-4.8 39-.1.7-.7.1-10.3 1.6h-.5l-.4.1c-31.9 5-53.9 8.4-57.4 8.9l-.5.1-.5.2c-15.6 6-31.8 15.5-49.5 28.8-28 21.5-52 48.8-71.6 81.2-20 32.9-35.2 71.4-45.2 114.4-9.1 39.3-13.5 69.7-14.3 98.6v9.2c0 12.1-2.1 23.7-4.7 36.6-2.2 10.6-4.4 19.9-6.8 28.6l-.5 1.7-26 .3-40.2 38.6-8.6 34.9-.5 1.9-1.9-.3-17.5-2.9-1.3-.2-.3-1.4-6.1-28.1-31.8-5.3-35.8 65.3-.5-101.2z" style="fill:none;stroke:#008740;stroke-width:2;stroke-miterlimit:10"/><defs><path id="SVGID_1_" d="m696.8 437.4-6.4 66.5-19.6-67.9-16.2-35.2-71.2-14.9-2.5 37.9-5.1 40.2-10.3 1.6-59.3 9S405.7 508 353.8 646c-19 50.4-31.7 123.9-30.5 160.3.7 22.6-11 65.1-11.4 66.4l-25.1.3-41.3 39.6-8.7 35.5-17.4-2.8-6.5-29.4-34.8-5.7-32.8 69.3-.7-102.2 22.4-22.9 16.7-17.1-33.8 6.9s4.6-42.7 18.8-71.4c35.1-71.1 88.8-104.8 88.8-104.8v.1l-4.3 141 20.2 4.9v-.1c.4-2.5 12.2-82.6 16.3-117 3.6-30.8 12.2-79.6 48.5-134.8 35.4-53.7 96.2-103.2 97.8-104.8 3.1-3.1 89.3-75.3 90.6-76.5v-.2c-.7-3.6-12.2-62-13.3-66.4-1.1-4.5-65.5-52.6-65.5-52.6L347.9 293l56.2-53.3 77.1-19.8 73.6 40.5 129.5-128.1-49-59.2-86.6-28.3 112-24.4L826 112.6l29.3 117.7-61-59.7-73.1-4.5-101.4 136.1 70.5 73 6.5 62.2z"/></defs><clipPath id="SVGID_00000158004302994759834900000002118205066033362828_"><use xlink:href="#SVGID_1_" style="overflow:visible"/></clipPath><path d="m696.8 437.4-6.4 66.5-19.6-67.9-16.2-35.2-71.2-14.9-2.5 37.9-5.1 40.2-10.3 1.6-59.3 9S405.7 508 353.8 646c-19 50.4-31.7 123.9-30.5 160.3.7 22.6-11 65.1-11.4 66.4l-25.1.3-41.3 39.6-8.7 35.5-17.4-2.8-6.5-29.4-34.8-5.7-32.8 69.3-.7-102.2 22.4-22.9 16.7-17.1-33.8 6.9s4.6-42.7 18.8-71.4c35.1-71.1 88.8-104.8 88.8-104.8v.1l-4.3 141 20.2 4.9v-.1c.4-2.5 12.2-82.6 16.3-117 3.6-30.8 12.2-79.6 48.5-134.8 35.4-53.7 96.2-103.2 97.8-104.8 3.1-3.1 89.3-75.3 90.6-76.5v-.2c-.7-3.6-12.2-62-13.3-66.4-1.1-4.5-65.5-52.6-65.5-52.6L347.9 293l56.2-53.3 77.1-19.8 73.6 40.5 129.5-128.1-49-59.2-86.6-28.3 112-24.4L826 112.6l29.3 117.7-61-59.7-73.1-4.5-101.4 136.1 70.5 73 6.5 62.2z" style="clip-path:url(#SVGID_00000158004302994759834900000002118205066033362828_);fill:#18161c"/><defs><path id="SVGID_00000011713092229846862540000017171464255524440755_" d="m696.8 437.4-6.4 66.5-19.6-67.9-16.2-35.2-71.2-14.9-2.5 37.9-5.1 40.2-10.3 1.6-59.3 9S405.7 508 353.8 646c-19 50.4-31.7 123.9-30.5 160.3.7 22.6-11 65.1-11.4 66.4l-25.1.3-41.3 39.6-8.7 35.5-17.4-2.8-6.5-29.4-34.8-5.7-32.8 69.3-.7-102.2 22.4-22.9 16.7-17.1-33.8 6.9s4.6-42.7 18.8-71.4c35.1-71.1 88.8-104.8 88.8-104.8v.1l-4.3 141 20.2 4.9v-.1c.4-2.5 12.2-82.6 16.3-117 3.6-30.8 12.2-79.6 48.5-134.8 35.4-53.7 96.2-103.2 97.8-104.8 3.1-3.1 89.3-75.3 90.6-76.5v-.2c-.7-3.6-12.2-62-13.3-66.4-1.1-4.5-65.5-52.6-65.5-52.6L347.9 293l56.2-53.3 77.1-19.8 73.6 40.5 129.5-128.1-49-59.2-86.6-28.3 112-24.4L826 112.6l29.3 117.7-61-59.7-73.1-4.5-101.4 136.1 70.5 73 6.5 62.2z"/></defs><clipPath id="SVGID_00000027579054974026990300000015586275556577132183_"><use xlink:href="#SVGID_00000011713092229846862540000017171464255524440755_" style="overflow:visible"/></clipPath><path d="M506.3 474.5s-100.5 33.4-152.4 171.4c-19 50.4-31.7 123.9-30.5 160.3.7 22.6-11 65.1-11.4 66.4-.1-1.9-5.9-92.1 21-201.6 27.1-110.5 120.5-194.3 151-206.5 55.8-22.2 90.7-.9 91.8-.6l-69.5 10.6z" style="clip-path:url(#SVGID_00000027579054974026990300000015586275556577132183_);fill:#363649"/><defs><path id="SVGID_00000067207901311699657320000014839299311124488105_" d="m696.8 437.4-6.4 66.5-19.6-67.9-16.2-35.2-71.2-14.9-2.5 37.9-5.1 40.2-10.3 1.6-59.3 9S405.7 508 353.8 646c-19 50.4-31.7 123.9-30.5 160.3.7 22.6-11 65.1-11.4 66.4l-25.1.3-41.3 39.6-8.7 35.5-17.4-2.8-6.5-29.4-34.8-5.7-32.8 69.3-.7-102.2 22.4-22.9 16.7-17.1-33.8 6.9s4.6-42.7 18.8-71.4c35.1-71.1 88.8-104.8 88.8-104.8v.1l-4.3 141 20.2 4.9v-.1c.4-2.5 12.2-82.6 16.3-117 3.6-30.8 12.2-79.6 48.5-134.8 35.4-53.7 96.2-103.2 97.8-104.8 3.1-3.1 89.3-75.3 90.6-76.5v-.2c-.7-3.6-12.2-62-13.3-66.4-1.1-4.5-65.5-52.6-65.5-52.6L347.9 293l56.2-53.3 77.1-19.8 73.6 40.5 129.5-128.1-49-59.2-86.6-28.3 112-24.4L826 112.6l29.3 117.7-61-59.7-73.1-4.5-101.4 136.1 70.5 73 6.5 62.2z"/></defs><clipPath id="SVGID_00000111193680247164826980000012946657012863714455_"><use xlink:href="#SVGID_00000067207901311699657320000014839299311124488105_" style="overflow:visible"/></clipPath><path d="M690.5 503.8 670.8 436l-16.2-35.2-71.2-14.9-2.5 37.9-5.1 40.2-8-113.4 68.1 7.8 43.6 55.4z" style="clip-path:url(#SVGID_00000111193680247164826980000012946657012863714455_);fill:#363649"/><defs><path id="SVGID_00000173877174815778921960000003656109049376625831_" d="m696.8 437.4-6.4 66.5-19.6-67.9-16.2-35.2-71.2-14.9-2.5 37.9-5.1 40.2-10.3 1.6-59.3 9S405.7 508 353.8 646c-19 50.4-31.7 123.9-30.5 160.3.7 22.6-11 65.1-11.4 66.4l-25.1.3-41.3 39.6-8.7 35.5-17.4-2.8-6.5-29.4-34.8-5.7-32.8 69.3-.7-102.2 22.4-22.9 16.7-17.1-33.8 6.9s4.6-42.7 18.8-71.4c35.1-71.1 88.8-104.8 88.8-104.8v.1l-4.3 141 20.2 4.9v-.1c.4-2.5 12.2-82.6 16.3-117 3.6-30.8 12.2-79.6 48.5-134.8 35.4-53.7 96.2-103.2 97.8-104.8 3.1-3.1 89.3-75.3 90.6-76.5v-.2c-.7-3.6-12.2-62-13.3-66.4-1.1-4.5-65.5-52.6-65.5-52.6L347.9 293l56.2-53.3 77.1-19.8 73.6 40.5 129.5-128.1-49-59.2-86.6-28.3 112-24.4L826 112.6l29.3 117.7-61-59.7-73.1-4.5-101.4 136.1 70.5 73 6.5 62.2z"/></defs><clipPath id="SVGID_00000101799783199802511440000013898333019149470101_"><use xlink:href="#SVGID_00000173877174815778921960000003656109049376625831_" style="overflow:visible"/></clipPath><path d="m619.8 302.2 70.6 73-88.5-81.3 124.9-162.1 79.5 15.4 49 83.2-61-59.8-73.1-4.5z" style="clip-path:url(#SVGID_00000101799783199802511440000013898333019149470101_);fill:#363649"/><defs><path id="SVGID_00000147900318739678056270000007111420434174061496_" d="m696.8 437.4-6.4 66.5-19.6-67.9-16.2-35.2-71.2-14.9-2.5 37.9-5.1 40.2-10.3 1.6-59.3 9S405.7 508 353.8 646c-19 50.4-31.7 123.9-30.5 160.3.7 22.6-11 65.1-11.4 66.4l-25.1.3-41.3 39.6-8.7 35.5-17.4-2.8-6.5-29.4-34.8-5.7-32.8 69.3-.7-102.2 22.4-22.9 16.7-17.1-33.8 6.9s4.6-42.7 18.8-71.4c35.1-71.1 88.8-104.8 88.8-104.8v.1l-4.3 141 20.2 4.9v-.1c.4-2.5 12.2-82.6 16.3-117 3.6-30.8 12.2-79.6 48.5-134.8 35.4-53.7 96.2-103.2 97.8-104.8 3.1-3.1 89.3-75.3 90.6-76.5v-.2c-.7-3.6-12.2-62-13.3-66.4-1.1-4.5-65.5-52.6-65.5-52.6L347.9 293l56.2-53.3 77.1-19.8 73.6 40.5 129.5-128.1-49-59.2-86.6-28.3 112-24.4L826 112.6l29.3 117.7-61-59.7-73.1-4.5-101.4 136.1 70.5 73 6.5 62.2z"/></defs><clipPath id="SVGID_00000181789521255423231260000008977105505526162600_"><use xlink:href="#SVGID_00000147900318739678056270000007111420434174061496_" style="overflow:visible"/></clipPath><path d="M526.6 380.7c-.7-3.6-12.2-62-13.3-66.4-1.1-4.5-65.5-52.6-65.5-52.6L347.9 293l77.3-46.2 38.7 7.9 50.6 44.3 12.1 81.7z" style="clip-path:url(#SVGID_00000181789521255423231260000008977105505526162600_);fill:#363649"/><defs><path id="SVGID_00000054226983498826150330000013731418321620915131_" d="m696.8 437.4-6.4 66.5-19.6-67.9-16.2-35.2-71.2-14.9-2.5 37.9-5.1 40.2-10.3 1.6-59.3 9S405.7 508 353.8 646c-19 50.4-31.7 123.9-30.5 160.3.7 22.6-11 65.1-11.4 66.4l-25.1.3-41.3 39.6-8.7 35.5-17.4-2.8-6.5-29.4-34.8-5.7-32.8 69.3-.7-102.2 22.4-22.9 16.7-17.1-33.8 6.9s4.6-42.7 18.8-71.4c35.1-71.1 88.8-104.8 88.8-104.8v.1l-4.3 141 20.2 4.9v-.1c.4-2.5 12.2-82.6 16.3-117 3.6-30.8 12.2-79.6 48.5-134.8 35.4-53.7 96.2-103.2 97.8-104.8 3.1-3.1 89.3-75.3 90.6-76.5v-.2c-.7-3.6-12.2-62-13.3-66.4-1.1-4.5-65.5-52.6-65.5-52.6L347.9 293l56.2-53.3 77.1-19.8 73.6 40.5 129.5-128.1-49-59.2-86.6-28.3 112-24.4L826 112.6l29.3 117.7-61-59.7-73.1-4.5-101.4 136.1 70.5 73 6.5 62.2z"/></defs><clipPath id="SVGID_00000181048017899554112290000016260014763810807193_"><use xlink:href="#SVGID_00000054226983498826150330000013731418321620915131_" style="overflow:visible"/></clipPath><path d="m554.7 260.4 129.5-128.1-48.9-59.2-86.6-28.3 97.5 5.8 60.8 69z" style="clip-path:url(#SVGID_00000181048017899554112290000016260014763810807193_);fill:#363649"/><defs><path id="SVGID_00000070835657127398954280000014108028203490878879_" d="m696.8 437.4-6.4 66.5-19.6-67.9-16.2-35.2-71.2-14.9-2.5 37.9-5.1 40.2-10.3 1.6-59.3 9S405.7 508 353.8 646c-19 50.4-31.7 123.9-30.5 160.3.7 22.6-11 65.1-11.4 66.4l-25.1.3-41.3 39.6-8.7 35.5-17.4-2.8-6.5-29.4-34.8-5.7-32.8 69.3-.7-102.2 22.4-22.9 16.7-17.1-33.8 6.9s4.6-42.7 18.8-71.4c35.1-71.1 88.8-104.8 88.8-104.8v.1l-4.3 141 20.2 4.9v-.1c.4-2.5 12.2-82.6 16.3-117 3.6-30.8 12.2-79.6 48.5-134.8 35.4-53.7 96.2-103.2 97.8-104.8 3.1-3.1 89.3-75.3 90.6-76.5v-.2c-.7-3.6-12.2-62-13.3-66.4-1.1-4.5-65.5-52.6-65.5-52.6L347.9 293l56.2-53.3 77.1-19.8 73.6 40.5 129.5-128.1-49-59.2-86.6-28.3 112-24.4L826 112.6l29.3 117.7-61-59.7-73.1-4.5-101.4 136.1 70.5 73 6.5 62.2z"/></defs><clipPath id="SVGID_00000150080669786311624670000005365043744231139251_"><use xlink:href="#SVGID_00000070835657127398954280000014108028203490878879_" style="overflow:visible"/></clipPath><path d="m144.7 877.3 22.4-22.9c16.4-13.5 37.3-32.1 50.1-53.2 25.1-41.7 39.9-129.9 40.4-133l-4.3 141 20.2 4.9s6.9 7-18.9 37.4c-25.9 30.3-98.1 27.4-109.9 25.8z" style="clip-path:url(#SVGID_00000150080669786311624670000005365043744231139251_);fill:#363649"/><defs><path id="SVGID_00000134229026625856336450000008089890407612366252_" d="m696.8 437.4-6.4 66.5-19.6-67.9-16.2-35.2-71.2-14.9-2.5 37.9-5.1 40.2-10.3 1.6-59.3 9S405.7 508 353.8 646c-19 50.4-31.7 123.9-30.5 160.3.7 22.6-11 65.1-11.4 66.4l-25.1.3-41.3 39.6-8.7 35.5-17.4-2.8-6.5-29.4-34.8-5.7-32.8 69.3-.7-102.2 22.4-22.9 16.7-17.1-33.8 6.9s4.6-42.7 18.8-71.4c35.1-71.1 88.8-104.8 88.8-104.8v.1l-4.3 141 20.2 4.9v-.1c.4-2.5 12.2-82.6 16.3-117 3.6-30.8 12.2-79.6 48.5-134.8 35.4-53.7 96.2-103.2 97.8-104.8 3.1-3.1 89.3-75.3 90.6-76.5v-.2c-.7-3.6-12.2-62-13.3-66.4-1.1-4.5-65.5-52.6-65.5-52.6L347.9 293l56.2-53.3 77.1-19.8 73.6 40.5 129.5-128.1-49-59.2-86.6-28.3 112-24.4L826 112.6l29.3 117.7-61-59.7-73.1-4.5-101.4 136.1 70.5 73 6.5 62.2z"/></defs><clipPath id="SVGID_00000053545610701957935700000015051409180843119014_"><use xlink:href="#SVGID_00000134229026625856336450000008089890407612366252_" style="overflow:visible"/></clipPath><path d="M149.9 844.3s21.1-57.3 42.8-91.2 64.9-85 64.9-85-25.5-133.6-85.2-7.3-22.5 183.5-22.5 183.5z" style="clip-path:url(#SVGID_00000053545610701957935700000015051409180843119014_);fill:#797582"/><defs><path id="SVGID_00000134933091260818951940000010250780259754664367_" d="m696.8 437.4-6.4 66.5-19.6-67.9-16.2-35.2-71.2-14.9-2.5 37.9-5.1 40.2-10.3 1.6-59.3 9S405.7 508 353.8 646c-19 50.4-31.7 123.9-30.5 160.3.7 22.6-11 65.1-11.4 66.4l-25.1.3-41.3 39.6-8.7 35.5-17.4-2.8-6.5-29.4-34.8-5.7-32.8 69.3-.7-102.2 22.4-22.9 16.7-17.1-33.8 6.9s4.6-42.7 18.8-71.4c35.1-71.1 88.8-104.8 88.8-104.8v.1l-4.3 141 20.2 4.9v-.1c.4-2.5 12.2-82.6 16.3-117 3.6-30.8 12.2-79.6 48.5-134.8 35.4-53.7 96.2-103.2 97.8-104.8 3.1-3.1 89.3-75.3 90.6-76.5v-.2c-.7-3.6-12.2-62-13.3-66.4-1.1-4.5-65.5-52.6-65.5-52.6L347.9 293l56.2-53.3 77.1-19.8 73.6 40.5 129.5-128.1-49-59.2-86.6-28.3 112-24.4L826 112.6l29.3 117.7-61-59.7-73.1-4.5-101.4 136.1 70.5 73 6.5 62.2z"/></defs><clipPath id="SVGID_00000067220482058652068010000012296763278811177398_"><use xlink:href="#SVGID_00000134933091260818951940000010250780259754664367_" style="overflow:visible"/></clipPath><path d="M273.4 814s19-163.8 65.9-237.5 187.3-195.6 187.3-195.6S363.7 458.4 304 584.7 273.4 814 273.4 814z" style="clip-path:url(#SVGID_00000067220482058652068010000012296763278811177398_);fill:#797582"/><defs><path id="SVGID_00000159450950624587675970000015295655475571458703_" d="m696.8 437.4-6.4 66.5-19.6-67.9-16.2-35.2-71.2-14.9-2.5 37.9-5.1 40.2-10.3 1.6-59.3 9S405.7 508 353.8 646c-19 50.4-31.7 123.9-30.5 160.3.7 22.6-11 65.1-11.4 66.4l-25.1.3-41.3 39.6-8.7 35.5-17.4-2.8-6.5-29.4-34.8-5.7-32.8 69.3-.7-102.2 22.4-22.9 16.7-17.1-33.8 6.9s4.6-42.7 18.8-71.4c35.1-71.1 88.8-104.8 88.8-104.8v.1l-4.3 141 20.2 4.9v-.1c.4-2.5 12.2-82.6 16.3-117 3.6-30.8 12.2-79.6 48.5-134.8 35.4-53.7 96.2-103.2 97.8-104.8 3.1-3.1 89.3-75.3 90.6-76.5v-.2c-.7-3.6-12.2-62-13.3-66.4-1.1-4.5-65.5-52.6-65.5-52.6L347.9 293l56.2-53.3 77.1-19.8 73.6 40.5 129.5-128.1-49-59.2-86.6-28.3 112-24.4L826 112.6l29.3 117.7-61-59.7-73.1-4.5-101.4 136.1 70.5 73 6.5 62.2z"/></defs><clipPath id="SVGID_00000072975855409975726280000013588624013366112668_"><use xlink:href="#SVGID_00000159450950624587675970000015295655475571458703_" style="overflow:visible"/></clipPath><path d="m564.6 263 21.8 4 103.2-129z" style="clip-path:url(#SVGID_00000072975855409975726280000013588624013366112668_);fill:#797582"/><defs><path id="SVGID_00000045587446132393831670000009999126706744243372_" d="m696.8 437.4-6.4 66.5-19.6-67.9-16.2-35.2-71.2-14.9-2.5 37.9-5.1 40.2-10.3 1.6-59.3 9S405.7 508 353.8 646c-19 50.4-31.7 123.9-30.5 160.3.7 22.6-11 65.1-11.4 66.4l-25.1.3-41.3 39.6-8.7 35.5-17.4-2.8-6.5-29.4-34.8-5.7-32.8 69.3-.7-102.2 22.4-22.9 16.7-17.1-33.8 6.9s4.6-42.7 18.8-71.4c35.1-71.1 88.8-104.8 88.8-104.8v.1l-4.3 141 20.2 4.9v-.1c.4-2.5 12.2-82.6 16.3-117 3.6-30.8 12.2-79.6 48.5-134.8 35.4-53.7 96.2-103.2 97.8-104.8 3.1-3.1 89.3-75.3 90.6-76.5v-.2c-.7-3.6-12.2-62-13.3-66.4-1.1-4.5-65.5-52.6-65.5-52.6L347.9 293l56.2-53.3 77.1-19.8 73.6 40.5 129.5-128.1-49-59.2-86.6-28.3 112-24.4L826 112.6l29.3 117.7-61-59.7-73.1-4.5-101.4 136.1 70.5 73 6.5 62.2z"/></defs><clipPath id="SVGID_00000013157007618130703760000018418897668814956465_"><use xlink:href="#SVGID_00000045587446132393831670000009999126706744243372_" style="overflow:visible"/></clipPath><path d="m363.8 277.9 47.9-40.2 65.7-8.5 67.6 35.9-19.6 12.8-48.8-37.9-64.3 3.9z" style="clip-path:url(#SVGID_00000013157007618130703760000018418897668814956465_);fill:#797582"/><path d="m697.1 437.4-6.3 66.5-.1 1.5-.4-1.5s-19.8-68.1-19.8-67.8L654.2 401l.3.2-71.2-14.7.8-.6c-.6 11-1.7 27.2-2.4 38l-.2 1.2-4.8 39-.1.7-.7.1-10.3 1.6h-.3l-.3-.2.7.1s-59.9 9.3-59 9.2c-18 6.9-34.6 17.4-50 29-28.8 22.1-52.9 50.2-71.6 81.2-21.4 35.2-35.9 74.3-45.2 114.4-7.5 32.4-13.4 65.4-14.3 98.7v9.1c0 12.4-2.3 24.6-4.7 36.6-2 9.6-4.2 19.1-6.8 28.6v-1.1c.1.5 0 1.3-.3 1.7l-.7 1.1h-1.2l-25.1.3 1.5-.6-41.3 39.6.6-1-8.7 35.5-.5 1.9-1.9-.3-17.4-2.9-1.4-.2-.3-1.4-6.4-29.4 1.6 1.5-34.7-5.8 2-1.1-33 69.2-3.2 6.7v-7.4l-.4-102.2v-.6l.4-.4 39.1-39.9 1.1 2.1-33.8 6.8-1.6.3c1.1-9.4 2.7-18.7 4.6-27.9 3.8-17.3 8.7-34.8 17.3-50.4 2.1-3.9 4.1-7.9 6.4-11.7 12.3-21.2 27.3-40.7 44.5-58.2 11-11.1 22.7-21.4 35.7-30.1l1.1 1.1c.1-.1.1-.4.1-.6v.2L254 809l-.6-.8 20.2 4.8-1 .8c6.3-43.4 12.6-86.6 17.9-130.1 5.5-38 18.4-75 37.9-108.1 3.7-6.5 8.9-14.6 13.3-20.8 2.5-3.8 7-9.6 9.7-13.3 48-61.7 115.1-111.2 174-162.1l.3-.3.4-.1c.1 0-1.5 2.3-1.4 2.3-3.5-17.1-9.9-50.2-13.4-66.2-1.4-1.7-3.3-3.4-5-4.9-4.7-4.1-9.7-8.1-14.6-12-14.9-11.8-30-23.2-45.2-34.6l2 .3-99.9 31.4-9.6 3c2.2-1.8 59.1-56.4 63.4-60.3l.5-.4.6-.2 77.1-19.9 1-.2.9.5 73.6 40.4-3.1.4 129.5-128.1-.2 3.6-48.9-59.2 1.2.8L548 47.4l-9.1-3 9.4-2 112-24.3.9-.2.8.5L827 111l.8.4.2.9L856.9 230l1.4 5.5-4-4-60.7-60 .8.4-73.1-4.8.9-.4-102 135.8v-.6c.1.1 70.4 73.1 70.5 73.2 0 .1 6.4 62.2 6.4 62.3zm-.5 0-6.5-62.1c.6.7-70.7-72.9-70.5-72.7l-.3-.3.2-.3 100.9-136.4.3-.4h.5l73.1 4.2h.5l.3.3 61.2 59.5-2.7 1.5L824 113.1l1 1.3-165.5-91.8 1.8.3-112 24.5.2-5 86.6 28.2.7.2.5.6 48.9 59.2 1.6 1.9-1.7 1.7-129.6 128-1.4 1.4-1.7-.9-73.5-40.6 1.8.2-77 19.7 1.1-.6-56.2 53.2-2.3-3.9 100-31.2 1.1-.3.9.7c15.2 11.5 30.3 23 45.2 34.9 6.2 5 12.5 9.9 18.3 15.5.9 1 2.5 2.3 2.7 3.8 3.8 18 10 49.9 13.6 68.3l-1.8.5.8-.4-50.4 42.1c-39.8 33.2-80.1 66.3-113.6 106-37.5 43.4-63.2 96.6-71.5 153.5-5.6 43.3-11.7 86.8-18.1 130l-.1 1-.9-.2-20.2-4.9-.6-.2c-.2-.2 4.5-141.4 4.4-141.7v.2c0-.2 0-.5.1-.6l1.1 1.1c-4.6 3-9 6.4-13.3 9.8-29.9 24.5-54.8 55.3-72.4 89.7-12.5 23.4-17.7 50-21.1 76.2l-1.4-1.2 33.8-7 4-.8-2.8 2.9-38.9 40.1.4-1 1 102.2-3.2-.7 32.7-69.4.6-1.3 1.4.2 34.8 5.6 1.3.2.3 1.3 6.5 29.3-1.7-1.6 17.4 2.8-2.4 1.6 8.6-35.5.1-.6.5-.4 41.2-39.7.6-.6h.9l25.1-.3-1.9 1.1c-.3.4-.4 1.2-.2 1.7v-1.2c4.9-18.6 9.3-37.7 11-56.8.4-4.6.2-9.8.2-14.4 0-4.8.2-9.9.6-14.7 2.1-29.3 7.3-58.2 14.1-86.8 10.1-42.8 26.2-84.5 50.1-121.5 18.6-28.7 41.8-54.7 69.2-75.3 15.7-11.7 32.5-22.2 50.9-29 .2-.1 59.3-8.8 59.5-8.8h.3l.3.2c.1 0-.6-.1-.6-.1l10.3-1.5-.8.8 5.1-38.9.2-1.2.1-1.2c.8-10.3 1.8-26.4 2.5-36.7v-.8l.7.1 71.2 15.1h.2l.1.2 16.1 35.2s19.6 67.9 19.7 67.9h-.6l6-66.6z" style="fill:#24202b"/><path d="M177.1 884.5c24.1-1.7 53.3-6.6 72.8-21.6 6.4-5.4 11.8-12.2 16.3-19.1 4.3-7.1 6.5-15.3 8.1-23.7 12.2-72.1 20.4-147.2 55.2-212.8 10-19.2 21.9-37.5 34.3-55.1-8.8 14.9-17.5 29.8-25.3 45.1-36.5 69.1-45 147.9-59.3 223.7-1.9 8.6-4.5 17.4-9.3 24.9-4.9 7.4-10.8 14.1-17.8 19.6-20.8 15.1-50 18.8-75 19z" style="fill:#a7a5af"/></g></g></switch></svg>