<svg xmlns="http://www.w3.org/2000/svg" xml:space="preserve" id="Layer_2_1_" x="0" y="0" style="enable-background:new 0 0 2000 2000" version="1.1" viewBox="0 0 2000 2000">
  <style>
    .st5{fill:#efda5a}
  </style>
  <linearGradient id="SVGID_1_" x1="1924.34" x2="75.9" y1="-296.116" y2="-296.116" gradientTransform="translate(0 1400)" gradientUnits="userSpaceOnUse">
    <stop offset=".366" style="stop-color:#382b1c"/>
    <stop offset=".818" style="stop-color:#6c5642"/>
  </linearGradient>
  <path d="m145.7 1129.1-66.3-83.8S18.9 844.4 403.2 762.4c416.4-88.6 870-40.9 1006.9 0 136.8 40.9 576.6 121.9 506.8 312.3-70 190.1-473.8 452.8-744.7 417.6-271.3-35.1-1026.5-363.2-1026.5-363.2z" style="fill:url(#SVGID_1_)"/>
  <linearGradient id="SVGID_2_" x1="982.612" x2="1385.858" y1="-1126.005" y2="-261.242" gradientTransform="translate(0 1400)" gradientUnits="userSpaceOnUse">
    <stop offset="0" style="stop-color:#5a5963"/>
    <stop offset=".154" style="stop-color:#53535d"/>
    <stop offset=".392" style="stop-color:#40434e"/>
    <stop offset=".684" style="stop-color:#222c39"/>
    <stop offset=".872" style="stop-color:#081b29"/>
  </linearGradient>
  <path d="M751 725.3s10-222.6 252.8-432.2 382-107.8 413.2-35.4c31.2 72.7 126.6 419.3-52 745.5-95 173.4-213.9 244.9-213.9 244.9L751 725.3z" style="fill:url(#SVGID_2_)"/>
  <radialGradient id="SVGID_3_" cx="1040.497" cy="-506.344" r="263.056" gradientTransform="translate(0 1400)" gradientUnits="userSpaceOnUse">
    <stop offset=".338" style="stop-color:#eee7ac"/>
    <stop offset=".415" style="stop-color:#eee7a6"/>
    <stop offset=".536" style="stop-color:#efe695"/>
    <stop offset=".682" style="stop-color:#f0e47a"/>
    <stop offset=".818" style="stop-color:#f2e354"/>
    <stop offset=".941" style="stop-color:#e58248"/>
  </radialGradient>
  <circle cx="1040.5" cy="893.7" r="263.1" style="fill:url(#SVGID_3_)"/>
  <linearGradient id="SVGID_4_" x1="1089.853" x2="1562.275" y1="-1088.462" y2="-75.349" gradientTransform="translate(0 1400)" gradientUnits="userSpaceOnUse">
    <stop offset="0" style="stop-color:#556e6e"/>
    <stop offset=".167" style="stop-color:#516869"/>
    <stop offset=".425" style="stop-color:#45575b"/>
    <stop offset=".741" style="stop-color:#334049"/>
    <stop offset="1" style="stop-color:#222c39"/>
  </linearGradient>
  <path d="M1352.4 189.1S1573 297.2 1704 604.4s22.8 610.5 22.8 610.5l-419.3 228.6-236.8-147.6s289.8-206.8 365.6-562.9c90.5-426.6-83.9-543.9-83.9-543.9z" style="fill:url(#SVGID_4_)"/>
  <path d="M1070.3 1296.1c40.9-32.8 78.9-69.2 114-107.8 17.6-19.2 34.9-39.1 50.9-59.7 16.2-20.5 31.7-41.5 46.7-63 29.4-43.3 56.4-88.1 78.7-135.3 11.5-23.3 21.5-47.4 31-71.8 2.3-6.1 4.4-12.3 6.6-18.4 2.1-6.1 4.7-12.3 6.3-18.4 3.9-12.6 8.2-24.9 11.3-37.4l5.2-18.7c1.6-6.3 3.1-12.6 4.7-18.9s3.1-12.6 4.4-18.9l3.9-19.2c1.3-6.3 2.6-12.8 3.9-19.2l3.4-19.2c2.3-12.8 4.1-25.9 5.8-38.7l1.3-9.7c.5-3.4.8-6.3 1-9.7l2.1-19.4c.8-6.3 1.3-13.1 1.8-19.4l1.6-19.4.8-19.4.5-9.7v-9.7l.3-19.4-.5-19.4c-1.8-52-8.4-104.3-24.4-153.9-7.6-24.9-17.9-49-30.7-71.8-6.6-11.3-13.9-22.3-21.8-32.5s-16.8-20.2-27.2-28.1c10.8 7.4 20 16.8 28.6 27 8.4 10 16.2 20.7 23.3 32 13.9 22.5 25.1 46.7 33.8 71.5 8.7 24.9 15.2 50.7 19.7 76.6 4.7 26.2 7.1 52.2 8.4 78.7l.8 19.7.3 19.7v10l-.3 10-.8 19.7-1.3 19.7c-.5 6.6-.8 13.1-1.6 19.7l-2.1 19.7c-.3 3.4-.5 6.6-1 9.7l-1.3 9.7c-1.8 13.1-3.4 26.2-5.6 39.1l-3.4 19.4c-1 6.3-2.6 13.1-3.6 19.4l-3.9 19.4c-1.3 6.3-2.9 12.8-4.4 19.2-1.6 6.3-2.9 12.8-4.7 19.2l-5.4 19.2c-3.4 12.8-7.6 25.4-11.8 38-1.8 6.3-4.4 12.6-6.6 18.7s-4.4 12.6-6.9 18.7l-7.4 18.4-3.9 9.2-4.1 8.9-7.9 18.1c-2.9 5.8-5.8 11.8-8.7 17.9-23.3 47.4-50.7 92.8-81.5 135.5-15.4 21.3-31.5 42.2-48.5 62.5-16.8 20.2-34.6 39.7-53 58.7-18.4 18.7-37.4 36.9-57.1 54.3-17.7 17.1-38.2 33.8-59.7 48.9z" style="fill:#597a7a"/>
  <path d="M1068.2 1305.6c40.2-33.3 77.4-70.2 111.7-109.4 34.6-39 66.3-80.5 95-123.8 28.6-43.3 54.6-88.6 76.3-135.8 11-23.6 21-47.4 29.9-71.8 8.9-24.4 16.8-49 23.8-74l4.9-18.7c1.6-6.3 3.1-12.6 4.7-18.9 3.1-12.6 5.4-25.4 7.9-38.2 2.9-12.8 4.9-25.7 6.9-38.5 2.3-12.8 4.1-25.7 5.8-38.5l1.6-9.7 1.3-9.7 2.3-19.4c.8-6.3 1.3-12.8 1.8-19.4.5-6.3 1.3-12.8 1.6-19.4.8-13.1 1.8-25.9 2.1-39 .3-6.3.5-13.1.5-19.4v-19.4c-.8-51.7-5.8-103.8-19.2-153.9-.8-3.1-1.6-6.3-2.6-9.5l-2.9-9.2c-2.1-6.1-4.1-12.3-6.1-18.4-4.7-12.1-9.5-24.1-15.2-35.9-5.8-11.5-12.3-23.1-19.4-33.8-7.1-10.8-15.4-21.3-24.9-29.9 10.2 8.2 18.7 18.4 26.7 28.9 7.6 10.5 14.6 21.8 21 33.3 6.1 11.5 11.8 23.6 16.7 35.6 2.3 6.1 4.9 12.3 6.9 18.4l3.1 9.5c1 3.1 2.1 6.1 3.1 9.5 7.4 25.1 12.8 50.9 16.7 77.1 3.9 26.2 5.6 52.2 6.6 78.7 1.6 52.5-2.1 105.1-8.7 157.1-1.8 13.1-3.4 26.2-5.8 39-2.3 12.8-4.4 25.9-6.9 38.7-2.5 12.8-4.9 25.7-7.9 38.7-1.3 6.3-3.1 12.8-4.7 19.2-1.6 6.3-3.4 12.8-4.9 19.2-14.1 50.7-32.8 100.2-55.3 147.6-22.8 47.4-49.2 93-79.2 136.1-14.9 21.5-30.7 42.5-47.2 63-16.7 20.2-33.8 40.2-51.7 59.2s-36.7 37.4-55.9 55.1c-19.2 17.4-39.1 34.3-60.4 49.7z" class="st5"/>
  <linearGradient id="SVGID_5_" x1="549.244" x2="1032.192" y1="-993.195" y2="42.49" gradientTransform="translate(0 1400)" gradientUnits="userSpaceOnUse">
    <stop offset=".374" style="stop-color:#7f1519"/>
    <stop offset=".482" style="stop-color:#7a1317"/>
    <stop offset=".648" style="stop-color:#6e0c0f"/>
    <stop offset=".852" style="stop-color:#5a0000"/>
    <stop offset=".872" style="stop-color:#570000"/>
  </linearGradient>
  <path d="M582 391.5s121.2 115.6 200.1 207.2c244.1 283.4 547.8 702.2 547.8 702.2S868.7 1586 552.7 1166.2C294 822.1 582 391.5 582 391.5z" style="fill:url(#SVGID_5_)"/>
  <path d="M1330.1 1300.9c-30.2 18.4-62.2 33.6-95 46.7-32.8 13.1-66.6 24.1-100.9 32.5s-69.5 14.1-105.1 16.8c-35.4 2.9-71 2.3-106.3-1.6-70.8-7.4-139.8-31-201.1-67.4-61.3-36.7-114.3-85.8-158.9-141.1-11-14.1-21.8-28.1-31.5-43-5.2-7.4-9.7-15.2-14.4-22.5-2.3-3.9-4.4-7.6-6.6-11.5-2.3-3.9-4.4-7.6-6.3-11.8l-6.1-11.8-5.8-12.1c-2.1-4.1-3.9-8.2-5.6-12.3-1.8-4.1-3.6-8.2-5.2-12.3-6.9-16.5-12.6-33.3-17.6-50.4-20.2-68.4-26.4-140.3-20.5-211.4 5.6-71 22.3-140.3 45.9-206.9 12.1-33.3 25.9-65.8 41.2-97.6 15.7-31.7 32.5-62.7 52-92.3-9.5 14.9-17.9 30.5-26.2 46.1-8.2 15.7-16.2 31.5-23.3 47.4-14.6 32-28 64.8-39 98.1-22.5 66.6-38.2 135.8-42.8 206-1.3 17.4-1.6 35.1-1.3 52.5s1 35.1 2.9 52.5c3.4 34.9 10 69.5 20 103 5.2 16.7 10.8 33.3 17.6 49.5 1.6 4.1 3.6 7.9 5.2 12.1 1.8 4.1 3.6 7.9 5.4 12.1l5.6 11.8 6.1 11.5c2.1 3.9 4.1 7.6 6.3 11.5 2.2 3.9 4.4 7.6 6.6 11.3 4.7 7.4 9.2 14.9 14.1 22 9.7 14.6 20.5 28.4 31.2 42.2 43.5 54.8 95.5 103.3 155.8 139.4 29.9 17.9 61.7 33 95 44.3 33 11.3 67.4 18.9 102.2 23.3 34.9 4.4 70 5.2 105.1 2.9 35.1-2.3 70-7.6 104.3-15.4 34.3-7.8 68.2-17.9 101.2-30.2 16.5-6.1 32.8-13.1 49-20.2 15.5-6.9 31.4-14.7 46.8-23.7z" style="fill:#3a1212"/>
  <linearGradient id="SVGID_6_" x1="79.371" x2="1916.745" y1="37.781" y2="37.781" gradientTransform="translate(0 1400)" gradientUnits="userSpaceOnUse">
    <stop offset=".366" style="stop-color:#382b1c"/>
    <stop offset=".818" style="stop-color:#6c5642"/>
  </linearGradient>
  <path d="M1916.7 1074.4c-79.2 351-460.7 755.9-925.4 755.9-477.5 0-850.3-419.6-912-785 144.5 142.4 459.9 276.4 957.6 276.4 439 0 706.7-92.9 879.8-247.3z" style="fill:url(#SVGID_6_)"/>
  <path d="M1765.9 873.8c-1.6-17.6-3.4-34.9-5.6-52-2.3-17.1-5.2-34.3-8.4-51.2-6.6-33.8-15.4-67.4-26.2-100.2-5.4-16.5-11.5-32.5-17.9-48.7-6.6-15.9-13.9-31.7-21-47.4-14.6-31.2-31-61.7-49-91.2-35.9-59-77.9-114.3-126.1-163.4l-8.9-9.2-9.2-8.9c-3.1-3.1-6.1-5.8-9.5-8.9l-9.5-8.7c-12.8-11.5-25.9-22.8-39.4-33.3-13.6-10.8-27.5-21-41.5-30.5-14.1-9.5-28.9-18.7-43.8-26.4l5.2-9.2-5.4 9.2c-13.6-7.1-28.4-12.6-43.5-15.9-7.6-1.3-15.2-3.1-23.1-3.4l-5.8-.5c-2.1-.3-3.9-.3-5.8-.3h-11.8c-31.2.8-61.9 8.9-91.2 20.2-29.4 11.5-56.9 27.2-83.6 44.6-6.6 4.4-13.1 8.7-19.7 13.3l-18.9 14.4c-3.1 2.3-6.3 4.7-9.5 7.1l-9.2 7.6-18.4 15.2c-48.2 41.5-92.5 87.3-130.4 138.7-18.9 25.4-36.4 52-52 79.7-15.7 27.7-29.2 56.4-40.7 86l-2.9 6.9-4.9-5.6c-15.7-18.1-31.5-36.2-47.7-53.8-16.2-17.6-32.8-35.1-49.5-52.2-33.3-34.6-67.1-68.7-101.5-102l4.4-.5c-17.4 27-33 55.3-47.2 84.2s-27 58.7-38.2 88.9c-5.8 15.2-10.8 30.5-15.9 45.6l-6.6 23.3c-1 3.9-2.3 7.6-3.4 11.5l-2.9 11.8c-1.8 7.9-4.1 15.7-5.6 23.6l-4.9 23.6c-.8 3.9-1.8 7.9-2.3 11.8l-1.8 12.1-3.6 23.8-.3 1.3-1.3.3-32 6.3-16.2 3.4-15.9 3.6L370 772c-5.4 1.3-10.5 2.9-15.9 4.1l-15.9 4.4c-5.2 1.6-10.5 3.1-15.7 4.9l-15.7 4.9-15.4 5.4c-5.2 1.8-10.2 3.6-15.4 5.6l-15.2 6.1-7.4 3.1-7.4 3.4-14.9 6.9-14.4 7.4-7.1 3.9-6.9 4.1c-4.7 2.9-9.5 5.4-13.9 8.4l-13.6 8.9c-8.7 6.3-17.4 12.8-25.4 20.2-16.2 14.4-31 30.5-42.8 48.5-1.6 2.3-2.9 4.7-4.4 6.9l-4.1 6.9-3.6 7.1-1.8 3.6-1.6 3.6-3.1 7.4-2.6 7.6c-1 2.6-1.6 5.2-2.3 7.6-.8 2.6-1.6 5.2-2.1 7.6-2.3 10.5-3.6 21-3.9 31.7 0 5.4.3 10.8.8 15.9s1.3 10.8 2.9 15.4v.6c9.2 52.5 24.6 104.3 44.3 153.7 19.7 49.8 43.8 97.6 71.3 143.4 55.1 91.5 124.5 174.4 204.2 245.4s170.7 129.6 269 170.7c49.2 20.5 100.2 36.7 152.4 47.7 13.1 2.3 26.2 5.2 39.1 7.4l39.4 5.4c13.3 1.3 26.7 2.3 39.7 3.4l4.9.5 4.9.3 10 .3 20 .5c106.5 1 212.9-19.4 312.3-58.2s191.9-94.9 274.1-162.6c82.3-68.2 154.7-148.4 214.2-237.3 29.7-44.3 56.1-91.2 78.4-139.7 22.3-48.7 40.2-99.1 52.5-151.4v-.6c4.1-10.5 6.6-21.8 7.4-33 .8-11.3-.5-22.8-3.6-33.6-6.3-21.8-20-41.2-36.2-57.4-16.2-16.5-34.9-29.9-54.6-42.2-9.7-6.1-19.7-11.8-29.9-17.4-7.8-5.3-18.1-10.1-29.1-15.6zm1-.5c10.2 4.4 20.7 9.5 31.2 14.9 10.2 5.2 20.5 10.8 30.5 16.8 20 12.1 39 25.7 55.9 42 16.7 16.5 31 35.9 38 58.7 3.4 11.3 4.9 23.3 4.4 35.1s-3.1 23.6-7.1 34.9v-.3c-11.8 52.5-29.4 103.8-51.2 153.2-21.8 49.2-48.2 96.5-77.6 141.6-29.4 45.1-62.5 87.9-98.4 128.2-35.9 40.2-74.8 77.9-116.1 112.7-82.8 69.2-176 126.9-276.7 166.3-50.3 19.7-102.5 35.1-155.8 45.4-53.3 10.2-107.3 14.9-161.5 14.4-108.3-.5-216.3-24.6-315.7-66.6-99.7-42-191.4-102-271.9-173.9-80.5-72-149.7-156.5-204.7-249.3-27.5-46.4-51.2-95-70.8-145.5-19.2-50.4-34.1-102.5-43-155.8v.5c-1.6-5.6-2.3-11.3-2.9-16.7-.5-5.6-.8-11.3-.5-16.7.3-11.3 1.6-22.3 4.1-33 .5-2.9 1.3-5.4 2.1-8.2.8-2.6 1.6-5.4 2.3-7.9l2.9-7.9 3.4-7.6 1.6-3.9 1.8-3.6 3.9-7.4 4.4-7.1c1.6-2.3 2.9-4.9 4.4-6.9 12.3-18.4 27.5-34.9 44.1-49.2s34.9-27 53.8-38l7.1-4.1 7.1-3.9 14.6-7.4 14.9-6.9 7.4-3.4 7.6-3.1 15.2-6.1c5.2-2.1 10.2-3.6 15.4-5.6l15.4-5.4 15.7-4.9c5.2-1.6 10.5-3.4 15.7-4.9l15.9-4.4c5.4-1.3 10.5-2.9 15.9-4.1l15.9-3.6 15.9-3.6 16.2-3.4 32.3-6.3-1.6 1.8 3.6-24.1 1.8-12.1c.8-4.1 1.6-7.9 2.3-12.1l4.9-23.8c1.8-7.9 3.9-15.7 5.6-23.6l2.9-11.8c1-3.9 2.3-7.6 3.4-11.8l6.6-23.3c5.2-15.4 10-30.7 15.7-45.9 11-30.5 23.6-60.3 37.7-89.4 14.1-29.2 29.2-57.9 46.7-85.3l1.8-3.1 2.6 2.6c34.9 33 69.2 66.9 102.8 101.2s66.9 69.2 98.6 105.4l-7.4 1.3c11.5-30.2 24.9-59.5 40.4-87.6s33-55.3 52-81.2c19.2-25.9 39.7-50.7 61.7-74.3 22-23.6 45.4-45.6 69.7-66.6l18.7-15.4 9.2-7.6c3.1-2.6 6.3-4.9 9.7-7.1l19.4-14.6c6.6-4.7 13.3-8.9 20-13.6 27.2-17.4 55.3-33.6 85.5-45.4 7.6-2.9 15.4-5.4 23.1-8.2 1.8-.8 3.9-1.3 5.8-1.8l5.8-1.6 11.8-3.1c3.9-1 7.9-1.6 12.1-2.3 4.1-.8 7.9-1.6 12.1-2.1l12.3-1c4.1-.3 8.2-.8 12.3-.8h12.3c2.1 0 4.1 0 6.1.3l6.1.5c8.2.5 16.5 2.1 24.4 3.6 16.2 3.9 31.7 9.5 46.1 17.1l-5.4 9.2 5.2-9.2c15.9 8.2 30.5 17.6 44.8 27.5s28.4 20.2 42 31.2c27.2 21.8 53 45.4 76.8 70.8 48.5 50.3 90.2 106.3 125.8 166 17.6 29.9 34.1 60.8 48.5 92.3 7.1 15.9 14.1 31.7 20.5 47.9 6.1 16.2 12.1 32.5 17.1 49.2 10.5 33 18.7 66.9 24.9 101.2 3.1 17.1 5.6 34.3 7.4 51.4 2.4 16.9 4 34.4 4.7 51.2z" style="fill:#2b1710"/>
  <path d="M79.2 1045.3c15.2 13.6 31 26.4 47.2 38.5 8.2 5.8 16.5 12.1 24.9 17.4 4.4 2.9 8.4 5.6 12.8 8.4l12.8 7.9c34.6 21.3 70.5 39.7 107.6 55.9 36.9 16.5 74.5 31 113 43.5s77.1 23.6 116.6 33c9.7 2.6 19.7 4.7 29.4 6.9 4.9 1 9.7 2.3 14.9 3.4l14.9 3.1 14.9 3.1c4.9 1 10 1.8 14.9 2.9 10 1.8 19.7 3.9 29.7 5.4 39.7 6.9 80 12.3 119.9 16.8 80.2 9.2 161.2 13.9 242.1 14.9 40.4.5 81 .5 121.4-.5 40.4-.8 81-2.9 121.2-5.6 40.2-2.9 80.5-6.6 120.6-11.8l29.9-4.1 29.9-4.7c10-1.8 20-3.4 29.7-5.2 10-1.8 20-3.6 29.7-5.6 39.4-7.9 78.7-17.6 117.4-29.2 38.7-11.3 76.8-24.9 114-40.7 37.2-15.7 73.5-33.8 108.1-54.6l13.1-7.9 6.3-3.9 6.3-4.1 12.8-8.4c4.4-2.9 8.2-5.8 12.6-8.7 16.7-11.5 32.8-24.1 48.7-36.7-14.9 14.1-29.9 27.7-45.9 40.4-4.1 3.1-7.9 6.3-12.1 9.5l-12.3 9.2-6.1 4.7-6.1 4.4-12.6 8.7c-8.4 5.6-17.1 11.3-25.7 16.8l-13.1 7.9c-4.4 2.6-8.7 5.4-13.3 7.6-8.9 4.9-17.6 10.2-27 14.9l-13.6 7.1c-4.7 2.3-9.2 4.7-13.9 6.6-36.9 17.6-75 33-114 46.1-4.9 1.6-9.7 3.4-14.6 4.9l-14.6 4.7-14.6 4.7-14.9 4.1-14.9 4.1-14.9 3.9c-10 2.6-20 4.9-29.9 7.1-10 2.6-20 4.4-29.9 6.6-10 2.1-20 4.1-30.2 6.1-10 1.8-20.2 3.6-30.2 5.4l-30.5 4.7c-40.4 5.8-81.2 10.5-122.2 14.1-81.8 6.9-163.4 8.9-245.2 7.9-40.9-1-81.8-2.3-122.7-5.2-40.7-2.9-81.8-6.1-122.2-11.5-81.2-10.5-162.1-25.1-241-46.9-39.4-10.8-78.7-22.8-117.1-37.4-38.5-14.4-76.1-30.5-112.7-48.7l-13.6-6.9c-4.7-2.3-8.9-4.9-13.6-7.1-4.7-2.6-8.9-4.9-13.6-7.4l-13.3-7.6-6.6-3.9-6.6-4.1-13.1-8.2c-4.4-2.9-8.4-5.6-12.8-8.4-4.4-2.9-8.4-5.6-12.6-8.7l-12.6-8.9c-4.1-3.1-8.2-6.1-12.3-9.2-8.2-6.1-16.2-12.8-24.1-19.2-15.4-13.7-30.3-27.4-44.5-42.3z" style="fill:#83654e"/>
  <path d="M582 391.5c71.8 67.4 141.6 136.3 206.6 210.3 16.2 18.7 32.3 37.2 47.9 56.1 15.7 18.9 31.5 37.7 47.2 56.6l46.7 57.1 46.1 57.4 45.6 57.9 45.1 58.2c29.9 39 60 77.9 89.2 117.4 29.4 39.4 58.7 78.9 87.6 118.3 28.9 39.7 57.7 79.4 85.8 119.6-29.7-39.1-59.2-78.4-88.9-117.5-29.7-39.1-59.5-78.1-89.4-117.1l-89.9-116.6-45.4-58.2-45.6-57.7C909.8 756.2 847.9 680.1 784.4 605c-31.5-37.4-65.1-73.5-98.9-108.9-34.1-35.3-68.7-70.1-103.5-104.6z" style="fill:#8f242b"/>
  <path d="M582 391.5c72.3 66.9 143.4 134.8 211.1 206.6 33.8 35.9 66.3 72.7 98.6 109.9 32 37.4 63.5 75.3 94.3 113.5 30.7 38.5 61 77.1 90.7 116.4 29.7 39.1 59 78.9 87.6 118.8 57.4 80 112.7 161.5 165.2 244.4l-21.3-29.9-21.3-29.9c-14.4-20-28.6-39.9-43.3-59.7-28.9-39.7-58.2-79.4-87.3-118.6-29.4-39.1-59-78.7-89.2-117.4-29.9-39-60.3-77.6-91.2-115.8-30.7-38.5-61.9-76.3-93.6-113.8-31.5-37.7-64-74.5-96.8-110.9-33-36.4-66.9-72-100.9-107.3-16.8-17.6-34.1-35.4-51.2-53L582 391.5z" class="st5"/>
  <path d="M1037 1321.7c77.9-2.9 155.5-6.9 232.9-14.9 38.7-4.1 77.1-8.9 115.6-15.2 38.2-6.1 76.3-13.3 114.3-22 37.7-8.7 75-18.9 112-31 36.9-11.8 73-25.9 108.3-41.7 70.8-31.7 137.1-72.7 197.2-122.5-56.6 53.5-122.5 97.6-193 131.4-35.4 17.1-71.8 31.5-108.6 44.3-37.2 12.6-74.8 22.8-113 32-38.2 8.7-76.6 15.9-115.3 21.5s-77.4 10-116.4 13.1c-78.2 6.3-156.1 7.6-234 5z" class="st5"/>
</svg>
