<svg xmlns="http://www.w3.org/2000/svg" xml:space="preserve" id="Layer_2" x="0" y="0" style="enable-background:new 0 0 2000 2000" version="1.1" viewBox="0 0 2000 2000">
  <style>
    .st5{fill:#efda5a}
  </style>
  <linearGradient id="SVGID_1_" x1="1319.126" x2="597.67" y1="1155.897" y2="1155.897" gradientUnits="userSpaceOnUse">
    <stop offset=".366" style="stop-color:#382b1c"/>
    <stop offset=".818" style="stop-color:#6c5642"/>
  </linearGradient>
  <path d="m624.9 1165.8-25.9-32.7s-23.6-78.4 126.4-110.4c162.5-34.6 339.6-16 393 0s225.1 47.6 197.8 121.9c-27.3 74.2-184.9 176.7-290.7 163s-400.6-141.8-400.6-141.8z" style="fill:url(#SVGID_1_)"/>
  <linearGradient id="SVGID_2_" x1="951.571" x2="1109.019" y1="831.999" y2="1169.647" gradientUnits="userSpaceOnUse">
    <stop offset="0" style="stop-color:#5a5963"/>
    <stop offset=".154" style="stop-color:#53535d"/>
    <stop offset=".392" style="stop-color:#40434e"/>
    <stop offset=".684" style="stop-color:#222c39"/>
    <stop offset=".872" style="stop-color:#081b29"/>
  </linearGradient>
  <path d="M861.2 1008.2s3.9-86.9 98.7-168.7 149.1-42.1 161.3-13.8c12.2 28.4 49.4 163.7-20.3 291-37.1 67.7-83.5 95.6-83.5 95.6l-156.2-204.1z" style="fill:url(#SVGID_2_)"/>
  <radialGradient id="SVGID_3_" cx="974.172" cy="1073.875" r="102.692" gradientUnits="userSpaceOnUse">
    <stop offset=".338" style="stop-color:#eee7ac"/>
    <stop offset=".415" style="stop-color:#eee7a6"/>
    <stop offset=".536" style="stop-color:#efe695"/>
    <stop offset=".682" style="stop-color:#f0e47a"/>
    <stop offset=".818" style="stop-color:#f2e354"/>
    <stop offset=".941" style="stop-color:#e58248"/>
  </radialGradient>
  <circle cx="974.2" cy="1073.9" r="102.7" style="fill:url(#SVGID_3_)"/>
  <linearGradient id="SVGID_4_" x1="993.318" x2="1177.703" y1="846.747" y2="1242.16" gradientUnits="userSpaceOnUse">
    <stop offset="0" style="stop-color:#556e6e"/>
    <stop offset=".167" style="stop-color:#516869"/>
    <stop offset=".425" style="stop-color:#45575b"/>
    <stop offset=".741" style="stop-color:#334049"/>
    <stop offset="1" style="stop-color:#222c39"/>
  </linearGradient>
  <path d="M1095.9 798.9s86.1 42.2 137.2 162.1 8.9 238.3 8.9 238.3l-163.7 89.2-92.4-57.6s113.1-80.7 142.7-219.7c35.4-166.5-32.7-212.3-32.7-212.3z" style="fill:url(#SVGID_4_)"/>
  <path d="M985.8 1231c16-12.8 30.8-27 44.5-42.1 6.9-7.5 13.6-15.3 19.9-23.3 6.3-8 12.4-16.2 18.2-24.6 11.5-16.9 22-34.4 30.7-52.8 4.5-9.1 8.4-18.5 12.1-28 .9-2.4 1.7-4.8 2.6-7.2.8-2.4 1.8-4.8 2.5-7.2 1.5-4.9 3.2-9.7 4.4-14.6l2-7.3c.6-2.5 1.2-4.9 1.8-7.4.6-2.5 1.2-4.9 1.7-7.4l1.5-7.5 1.5-7.5 1.3-7.5c.9-5 1.6-10.1 2.3-15.1l.5-3.8c.2-1.3.3-2.5.4-3.8l.8-7.6c.3-2.5.5-5.1.7-7.6l.6-7.6.3-7.6.2-3.8v-3.8l.1-7.6-.2-7.6c-.7-20.3-3.3-40.7-9.5-60.1-3-9.7-7-19.1-12-28-2.6-4.4-5.4-8.7-8.5-12.7-3.1-4-6.6-7.9-10.6-11 4.2 2.9 7.8 6.6 11.2 10.5 3.3 3.9 6.3 8.1 9.1 12.5 5.4 8.8 9.8 18.2 13.2 27.9 3.4 9.7 5.9 19.8 7.7 29.9 1.8 10.2 2.8 20.4 3.3 30.7l.3 7.7.1 7.7v3.9l-.1 3.9-.3 7.7-.5 7.7c-.2 2.6-.3 5.1-.6 7.7l-.8 7.7c-.1 1.3-.2 2.6-.4 3.8l-.5 3.8c-.7 5.1-1.3 10.2-2.2 15.3l-1.3 7.6c-.4 2.5-1 5.1-1.4 7.6l-1.5 7.6c-.5 2.5-1.1 5-1.7 7.5-.6 2.5-1.1 5-1.8 7.5l-2.1 7.5c-1.3 5-3 9.9-4.6 14.8-.7 2.5-1.7 4.9-2.6 7.3-.9 2.4-1.7 4.9-2.7 7.3l-2.9 7.2-1.5 3.6-1.6 3.5-3.1 7.1c-1.1 2.3-2.3 4.6-3.4 7-9.1 18.5-19.8 36.2-31.8 52.9-6 8.3-12.3 16.5-18.9 24.4-6.6 7.9-13.5 15.5-20.7 22.9-7.2 7.3-14.6 14.4-22.3 21.2-7 6.8-15 13.3-23.4 19.2z" style="fill:#597a7a"/>
  <path d="M985 1234.7c15.7-13 30.2-27.4 43.6-42.7 13.5-15.2 25.9-31.4 37.1-48.3 11.2-16.9 21.3-34.6 29.8-53a359.68 359.68 0 0 0 21-56.9l1.9-7.3c.6-2.5 1.2-4.9 1.8-7.4 1.2-4.9 2.1-9.9 3.1-14.9 1.1-5 1.9-10 2.7-15 .9-5 1.6-10 2.3-15l.6-3.8.5-3.8.9-7.6c.3-2.5.5-5 .7-7.6.2-2.5.5-5 .6-7.6.3-5.1.7-10.1.8-15.2.1-2.5.2-5.1.2-7.6v-7.6c-.3-20.2-2.3-40.5-7.5-60.1-.3-1.2-.6-2.5-1-3.7l-1.1-3.6-2.4-7.2c-1.8-4.7-3.7-9.4-5.9-14-2.3-4.5-4.8-9-7.6-13.2-2.8-4.2-6-8.3-9.7-11.7 4 3.2 7.3 7.2 10.4 11.3 3 4.1 5.7 8.5 8.2 13 2.4 4.5 4.6 9.2 6.5 13.9.9 2.4 1.9 4.8 2.7 7.2l1.2 3.7c.4 1.2.8 2.4 1.2 3.7 2.9 9.8 5 19.9 6.5 30.1 1.5 10.2 2.2 20.4 2.6 30.7.6 20.5-.8 41-3.4 61.3-.7 5.1-1.3 10.2-2.3 15.2-.9 5-1.7 10.1-2.7 15.1-1 5-1.9 10-3.1 15.1-.5 2.5-1.2 5-1.8 7.5-.6 2.5-1.3 5-1.9 7.5-5.5 19.8-12.8 39.1-21.6 57.6-8.9 18.5-19.2 36.3-30.9 53.1-5.8 8.4-12 16.6-18.4 24.6-6.5 7.9-13.2 15.7-20.2 23.1-7 7.4-14.3 14.6-21.8 21.5-7.5 7-15.3 13.6-23.6 19.6z" class="st5"/>
  <linearGradient id="SVGID_5_" x1="782.415" x2="970.961" y1="883.855" y2="1288.193" gradientUnits="userSpaceOnUse">
    <stop offset=".374" style="stop-color:#7f1519"/>
    <stop offset=".482" style="stop-color:#7a1317"/>
    <stop offset=".648" style="stop-color:#6e0c0f"/>
    <stop offset=".852" style="stop-color:#5a0000"/>
    <stop offset=".872" style="stop-color:#570000"/>
  </linearGradient>
  <path d="M795.2 877.9s47.3 45.1 78.1 80.9c95.3 110.6 213.8 274.1 213.8 274.1s-180 111.3-303.3-52.6c-101-134.3 11.4-302.4 11.4-302.4z" style="fill:url(#SVGID_5_)"/>
  <path d="M1087.2 1232.9c-11.8 7.2-24.3 13.1-37.1 18.2s-26 9.4-39.4 12.7c-13.4 3.3-27.1 5.5-41 6.6-13.8 1.1-27.7.9-41.5-.6-27.6-2.9-54.6-12.1-78.5-26.3-23.9-14.3-44.6-33.5-62-55.1-4.3-5.5-8.5-11-12.3-16.8-2-2.9-3.8-5.9-5.6-8.8-.9-1.5-1.7-3-2.6-4.5-.9-1.5-1.7-3-2.5-4.6l-2.4-4.6-2.3-4.7c-.8-1.6-1.5-3.2-2.2-4.8-.7-1.6-1.4-3.2-2-4.8-2.7-6.4-4.9-13-6.9-19.7-7.9-26.7-10.3-54.8-8-82.5 2.2-27.7 8.7-54.8 17.9-80.8 4.7-13 10.1-25.7 16.1-38.1 6.1-12.4 12.7-24.5 20.3-36-3.7 5.8-7 11.9-10.2 18-3.2 6.1-6.3 12.3-9.1 18.5-5.7 12.5-10.9 25.3-15.2 38.3-8.8 26-14.9 53-16.7 80.4-.5 6.8-.6 13.7-.5 20.5.1 6.8.4 13.7 1.1 20.5 1.3 13.6 3.9 27.1 7.8 40.2 2 6.5 4.2 13 6.9 19.3.6 1.6 1.4 3.1 2 4.7.7 1.6 1.4 3.1 2.1 4.7l2.2 4.6 2.4 4.5c.8 1.5 1.6 3 2.5 4.5.9 1.5 1.7 3 2.6 4.4 1.8 2.9 3.6 5.8 5.5 8.6 3.8 5.7 8 11.1 12.2 16.5 17 21.4 37.3 40.3 60.8 54.4 11.7 7 24.1 12.9 37.1 17.3 12.9 4.4 26.3 7.4 39.9 9.1 13.6 1.7 27.3 2 41 1.1 13.7-.9 27.3-3 40.7-6 13.4-3 26.6-7 39.5-11.8 6.4-2.4 12.8-5.1 19.1-7.9 6.1-2.7 12.3-5.7 18.3-9.2z" style="fill:#3a1212"/>
  <linearGradient id="SVGID_6_" x1="599.023" x2="1316.21" y1="1286.277" y2="1286.277" gradientUnits="userSpaceOnUse">
    <stop offset=".366" style="stop-color:#382b1c"/>
    <stop offset=".818" style="stop-color:#6c5642"/>
  </linearGradient>
  <path d="M1316.2 1144.5c-30.9 137-179.8 295-361.2 295-186.4 0-331.9-163.8-356-306.4 56.4 55.6 179.5 107.9 373.8 107.9 171.3 0 275.8-36.3 343.4-96.5z" style="fill:url(#SVGID_6_)"/>
  <path d="M1257.3 1066.2c-.6-6.9-1.3-13.6-2.2-20.3-.9-6.7-2-13.4-3.3-20-2.6-13.2-6-26.3-10.2-39.1-2.1-6.4-4.5-12.7-7-19-2.6-6.2-5.4-12.4-8.2-18.5-5.7-12.2-12.1-24.1-19.1-35.6-14-23-30.4-44.6-49.2-63.8l-3.5-3.6-3.6-3.5c-1.2-1.2-2.4-2.3-3.7-3.5l-3.7-3.4c-5-4.5-10.1-8.9-15.4-13-5.3-4.2-10.7-8.2-16.2-11.9-5.5-3.7-11.3-7.3-17.1-10.3l2-3.6-2.1 3.6c-5.3-2.8-11.1-4.9-17-6.2-3-.5-5.9-1.2-9-1.3l-2.3-.2c-.8-.1-1.5-.1-2.3-.1h-4.6c-12.2.3-24.2 3.5-35.6 7.9-11.5 4.5-22.2 10.6-32.6 17.4-2.6 1.7-5.1 3.4-7.7 5.2l-7.4 5.6c-1.2.9-2.5 1.8-3.7 2.8l-3.6 3-7.2 5.9c-18.8 16.2-36.1 34.1-50.9 54.1-7.4 9.9-14.2 20.3-20.3 31.1-6.1 10.8-11.4 22-15.9 33.6l-1.1 2.7-1.9-2.2c-6.1-7.1-12.3-14.1-18.6-21-6.3-6.9-12.8-13.7-19.3-20.4-13-13.5-26.2-26.8-39.6-39.8l1.7-.2c-6.8 10.5-12.9 21.6-18.4 32.9-5.5 11.3-10.5 22.9-14.9 34.7-2.3 5.9-4.2 11.9-6.2 17.8l-2.6 9.1c-.4 1.5-.9 3-1.3 4.5l-1.1 4.6c-.7 3.1-1.6 6.1-2.2 9.2l-1.9 9.2c-.3 1.5-.7 3.1-.9 4.6l-.7 4.7-1.4 9.3-.1.5-.5.1-12.5 2.5-6.3 1.3-6.2 1.4-6.2 1.4c-2.1.5-4.1 1.1-6.2 1.6l-6.2 1.7c-2 .6-4.1 1.2-6.1 1.9l-6.1 1.9-6 2.1c-2 .7-4 1.4-6 2.2l-5.9 2.4-2.9 1.2-2.9 1.3-5.8 2.7-5.6 2.9-2.8 1.5-2.7 1.6c-1.8 1.1-3.7 2.1-5.4 3.3l-5.3 3.5c-3.4 2.5-6.8 5-9.9 7.9-6.3 5.6-12.1 11.9-16.7 18.9-.6.9-1.1 1.8-1.7 2.7l-1.6 2.7-1.4 2.8-.7 1.4-.6 1.4-1.2 2.9-1 3c-.4 1-.6 2-.9 3-.3 1-.6 2-.8 3-.9 4.1-1.4 8.2-1.5 12.4 0 2.1.1 4.2.3 6.2.2 2 .5 4.2 1.1 6v.2c3.6 20.5 9.6 40.7 17.3 60 7.7 19.4 17.1 38.1 27.8 56 21.5 35.7 48.6 68.1 79.7 95.8 31.1 27.7 66.6 50.6 105 66.6 19.2 8 39.1 14.3 59.5 18.6 5.1.9 10.2 2 15.3 2.9l15.4 2.1c5.2.5 10.4.9 15.5 1.3l1.9.2 1.9.1 3.9.1 7.8.2c41.6.4 83.1-7.6 121.9-22.7 38.8-15.1 74.9-37 107-63.5 32.1-26.6 60.4-57.9 83.6-92.6 11.6-17.3 21.9-35.6 30.6-54.5 8.7-19 15.7-38.7 20.5-59.1v-.2c1.6-4.1 2.6-8.5 2.9-12.9.3-4.4-.2-8.9-1.4-13.1-2.5-8.5-7.8-16.1-14.1-22.4-6.3-6.4-13.6-11.7-21.3-16.5-3.8-2.4-7.7-4.6-11.7-6.8-3.4-2.1-7.4-4-11.7-6.1zm.4-.2c4 1.7 8.1 3.7 12.2 5.8 4 2 8 4.2 11.9 6.6 7.8 4.7 15.2 10 21.8 16.4 6.5 6.4 12.1 14 14.8 22.9 1.3 4.4 1.9 9.1 1.7 13.7-.2 4.6-1.2 9.2-2.8 13.6v-.1c-4.6 20.5-11.5 40.5-20 59.8-8.5 19.2-18.8 37.7-30.3 55.3-11.5 17.6-24.4 34.3-38.4 50-14 15.7-29.2 30.4-45.3 44-32.3 27-68.7 49.5-108 64.9-19.6 7.7-40 13.7-60.8 17.7-20.8 4-41.9 5.8-63 5.6-42.3-.2-84.4-9.6-123.2-26-38.9-16.4-74.7-39.8-106.1-67.9-31.4-28.1-58.4-61.1-79.9-97.3-10.7-18.1-20-37.1-27.6-56.8-7.5-19.7-13.3-40-16.8-60.8v.2c-.6-2.2-.9-4.4-1.1-6.5-.2-2.2-.3-4.4-.2-6.5.1-4.4.6-8.7 1.6-12.9.2-1.1.5-2.1.8-3.2.3-1 .6-2.1.9-3.1l1.1-3.1 1.3-3 .6-1.5.7-1.4 1.5-2.9 1.7-2.8c.6-.9 1.1-1.9 1.7-2.7 4.8-7.2 10.7-13.6 17.2-19.2s13.6-10.5 21-14.8l2.8-1.6 2.8-1.5 5.7-2.9 5.8-2.7 2.9-1.3 3-1.2 5.9-2.4c2-.8 4-1.4 6-2.2l6-2.1 6.1-1.9c2-.6 4.1-1.3 6.1-1.9l6.2-1.7c2.1-.5 4.1-1.1 6.2-1.6l6.2-1.4 6.2-1.4 6.3-1.3 12.6-2.5-.6.7 1.4-9.4.7-4.7c.3-1.6.6-3.1.9-4.7l1.9-9.3c.7-3.1 1.5-6.1 2.2-9.2l1.1-4.6c.4-1.5.9-3 1.3-4.6l2.6-9.1c2-6 3.9-12 6.1-17.9 4.3-11.9 9.2-23.5 14.7-34.9 5.5-11.4 11.4-22.6 18.2-33.3l.7-1.2 1 1c13.6 12.9 27 26.1 40.1 39.5 13.1 13.4 26.1 27 38.5 41.1l-2.9.5c4.5-11.8 9.7-23.2 15.8-34.2 6.1-11 12.9-21.6 20.3-31.7 7.5-10.1 15.5-19.8 24.1-29 8.6-9.2 17.7-17.8 27.2-26l7.3-6 3.6-3c1.2-1 2.5-1.9 3.8-2.8l7.6-5.7c2.6-1.8 5.2-3.5 7.8-5.3 10.6-6.8 21.6-13.1 33.4-17.7 3-1.1 6-2.1 9-3.2.7-.3 1.5-.5 2.3-.7l2.3-.6 4.6-1.2c1.5-.4 3.1-.6 4.7-.9 1.6-.3 3.1-.6 4.7-.8l4.8-.4c1.6-.1 3.2-.3 4.8-.3h4.8c.8 0 1.6 0 2.4.1l2.4.2c3.2.2 6.4.8 9.5 1.4 6.3 1.5 12.4 3.7 18 6.7l-2.1 3.6 2-3.6c6.2 3.2 11.9 6.9 17.5 10.7 5.6 3.8 11.1 7.9 16.4 12.2 10.6 8.5 20.7 17.7 30 27.6 18.9 19.6 35.2 41.5 49.1 64.8 6.9 11.7 13.3 23.7 18.9 36 2.8 6.2 5.5 12.4 8 18.7 2.4 6.3 4.7 12.7 6.7 19.2 4.1 12.9 7.3 26.1 9.7 39.5 1.2 6.7 2.2 13.4 2.9 20.1 1.1 6.6 1.7 13.4 2 20z" style="fill:#2b1710"/>
  <path d="M599 1133.1c5.9 5.3 12.1 10.3 18.4 15 3.2 2.3 6.4 4.7 9.7 6.8 1.7 1.1 3.3 2.2 5 3.3l5 3.1c13.5 8.3 27.5 15.5 42 21.8 14.4 6.4 29.1 12.1 44.1 17s30.1 9.2 45.5 12.9c3.8 1 7.7 1.8 11.5 2.7 1.9.4 3.8.9 5.8 1.3l5.8 1.2 5.8 1.2c1.9.4 3.9.7 5.8 1.1 3.9.7 7.7 1.5 11.6 2.1 15.5 2.7 31.2 4.8 46.8 6.6 31.3 3.6 62.9 5.4 94.5 5.8 15.8.2 31.6.2 47.4-.2 15.8-.3 31.6-1.1 47.3-2.2 15.7-1.1 31.4-2.6 47.1-4.6l11.7-1.6 11.7-1.8c3.9-.7 7.8-1.3 11.6-2 3.9-.7 7.8-1.4 11.6-2.2 15.4-3.1 30.7-6.9 45.8-11.4 15.1-4.4 30-9.7 44.5-15.9 14.5-6.1 28.7-13.2 42.2-21.3l5.1-3.1 2.5-1.5 2.5-1.6 5-3.3c1.7-1.1 3.2-2.3 4.9-3.4 6.5-4.5 12.8-9.4 19-14.3-5.8 5.5-11.7 10.8-17.9 15.8-1.6 1.2-3.1 2.5-4.7 3.7l-4.8 3.6-2.4 1.8-2.4 1.7-4.9 3.4c-3.3 2.2-6.7 4.4-10 6.6l-5.1 3.1c-1.7 1-3.4 2.1-5.2 3-3.5 1.9-6.9 4-10.5 5.8l-5.3 2.8c-1.8.9-3.6 1.8-5.4 2.6-14.4 6.9-29.3 12.9-44.5 18-1.9.6-3.8 1.3-5.7 1.9l-5.7 1.8-5.7 1.8-5.8 1.6-5.8 1.6-5.8 1.5c-3.9 1-7.8 1.9-11.7 2.8-3.9 1-7.8 1.7-11.7 2.6-3.9.8-7.8 1.6-11.8 2.4-3.9.7-7.9 1.4-11.8 2.1l-11.9 1.8c-15.8 2.3-31.7 4.1-47.7 5.5-31.9 2.7-63.8 3.5-95.7 3.1-16-.4-31.9-.9-47.9-2-15.9-1.1-31.9-2.4-47.7-4.5-31.7-4.1-63.3-9.8-94.1-18.3-15.4-4.2-30.7-8.9-45.7-14.6-15-5.6-29.7-11.9-44-19l-5.3-2.7c-1.8-.9-3.5-1.9-5.3-2.8-1.8-1-3.5-1.9-5.3-2.9l-5.2-3-2.6-1.5-2.6-1.6-5.1-3.2c-1.7-1.1-3.3-2.2-5-3.3-1.7-1.1-3.3-2.2-4.9-3.4l-4.9-3.5-4.8-3.6c-3.2-2.4-6.3-5-9.4-7.5-6.2-5.3-12-10.7-17.5-16.5z" style="fill:#83654e"/>
  <path d="M795.2 877.9c28 26.3 55.3 53.2 80.6 82.1 6.3 7.3 12.6 14.5 18.7 21.9 6.1 7.4 12.3 14.7 18.4 22.1l18.2 22.3 18 22.4 17.8 22.6 17.6 22.7c11.7 15.2 23.4 30.4 34.8 45.8 11.5 15.4 22.9 30.8 34.2 46.2 11.3 15.5 22.5 31 33.5 46.7-11.6-15.3-23.1-30.6-34.7-45.9-11.6-15.3-23.2-30.5-34.9-45.7l-35.1-45.5-17.7-22.7-17.8-22.5c-23.7-30.1-47.9-59.8-72.7-89.1-12.3-14.6-25.4-28.7-38.6-42.5-13.2-13.8-26.7-27.4-40.3-40.9z" style="fill:#8f242b"/>
  <path d="M795.2 877.9c28.2 26.1 56 52.6 82.4 80.6 13.2 14 25.9 28.4 38.5 42.9 12.5 14.6 24.8 29.4 36.8 44.3 12 15 23.8 30.1 35.4 45.4 11.6 15.3 23 30.8 34.2 46.4 22.4 31.2 44 63 64.5 95.4l-8.3-11.7-8.3-11.7c-5.6-7.8-11.2-15.6-16.9-23.3-11.3-15.5-22.7-31-34.1-46.3-11.5-15.3-23-30.7-34.8-45.8-11.7-15.2-23.5-30.3-35.6-45.2-12-15-24.2-29.8-36.5-44.4-12.3-14.7-25-29.1-37.8-43.3-12.9-14.2-26.1-28.1-39.4-41.9-6.6-6.9-13.3-13.8-20-20.7l-20.1-20.7z" class="st5"/>
  <path d="M972.8 1241c30.4-1.1 60.7-2.7 90.9-5.8 15.1-1.6 30.1-3.5 45.1-5.9 14.9-2.4 29.8-5.2 44.6-8.6 14.7-3.4 29.3-7.4 43.7-12.1 14.4-4.6 28.5-10.1 42.3-16.3 27.6-12.4 53.5-28.4 77-47.8-22.1 20.9-47.8 38.1-75.3 51.3-13.8 6.7-28 12.3-42.4 17.3-14.5 4.9-29.2 8.9-44.1 12.5-14.9 3.4-29.9 6.2-45 8.4-15.1 2.2-30.2 3.9-45.4 5.1-30.6 2.4-61 2.9-91.4 1.9z" class="st5"/>
</svg>
