<svg xmlns="http://www.w3.org/2000/svg" xmlns:xlink="http://www.w3.org/1999/xlink" xml:space="preserve" style="enable-background:new 0 0 1000 1000" viewBox="0 0 1000 1000"><style>.st0{fill:#898585}.st6{fill:none;stroke:#735099;stroke-width:5;stroke-miterlimit:10}</style><g id="Layer_1"><path d="M429.3 62.4c-41.8-13.7-87.1-15.1-130.2-7.1-38.4 7.4-75.7 22.2-107.5 44.9-54 37.9-94.6 105.4-73.4 171.7 23.5 73.3 106 109.2 179.1 109.7 74.6.8 150.9-28.8 200.9-84.4 22.6-25.3 39.2-57 42.1-91 6.5-69.6-47.2-124.1-111-143.8z" class="st0"/><path d="M580.4 725.5c21.1-102.1-45.1-196.8-131.4-244.9-60.2-34.3-131-49.5-199.9-43.4-82.7 7-166.9 49.7-206 125.5-50.1 95.8-6.6 206.5 75.6 268.6 68.6 52.7 158.1 75.7 243.7 66.5 98.4-10 196.7-70.2 218-172.3z" style="fill:#af8080"/><defs><path id="SVGID_1_" d="M945.4 243.9c54.5 83.3 7.2 210.7-105.8 284.6S622.2 660 533 508c-84.4-143.7-3.7-207.1 109.3-281s248.6-66.4 303.1 16.9z"/></defs><clipPath id="SVGID_00000073722572176578976750000004842889865115658660_"><use xlink:href="#SVGID_1_" style="overflow:visible"/></clipPath><path d="M945.4 243.9c54.5 83.3 7.2 210.7-105.8 284.6S670.4 747.7 523 539.9s6.3-239 119.2-312.9 248.7-66.4 303.2 16.9z" style="clip-path:url(#SVGID_00000073722572176578976750000004842889865115658660_);fill:#885baf"/><ellipse cx="693.7" cy="338.3" rx="158.8" ry="85.3" style="fill:#8f68c1" transform="rotate(-42.143 693.725 338.25)"/><defs><path id="SVGID_00000135670855688831907430000001050663373926530490_" d="M945.4 243.9c54.5 83.3 7.2 210.7-105.8 284.6S622.2 660 533 508c-84.4-143.7-3.7-207.1 109.3-281s248.6-66.4 303.1 16.9z"/></defs><clipPath id="SVGID_00000015313237241947872130000004421545883351426729_"><use xlink:href="#SVGID_00000135670855688831907430000001050663373926530490_" style="overflow:visible"/></clipPath><path d="M889.8 193.9s55.5 130.4-71.5 283.2S566.2 578 566.2 578l78 68.9s203-119.8 267.8-217.2 70.3-239.4 70.3-239.4l-92.5 3.6z" style="clip-path:url(#SVGID_00000015313237241947872130000004421545883351426729_);fill:#735099"/><defs><path id="SVGID_00000036247618236916831070000017298882972030398861_" d="M945.4 243.9c54.5 83.3 7.2 210.7-105.8 284.6S622.2 660 533 508c-84.4-143.7-3.7-207.1 109.3-281s248.6-66.4 303.1 16.9z"/></defs><clipPath id="SVGID_00000103963187922871935730000001965299633955769751_"><use xlink:href="#SVGID_00000036247618236916831070000017298882972030398861_" style="overflow:visible"/></clipPath><defs><path id="SVGID_00000137845333254142744100000010748266200880568493_" d="M945.4 243.9c54.5 83.3 7.2 210.7-105.8 284.6S622.2 660 533 508c-84.4-143.7-3.7-207.1 109.3-281s248.6-66.4 303.1 16.9z"/></defs><clipPath id="SVGID_00000052080194027526811810000009384045536157295270_"><use xlink:href="#SVGID_00000137845333254142744100000010748266200880568493_" style="overflow:visible"/></clipPath><g style="opacity:.4;clip-path:url(#SVGID_00000052080194027526811810000009384045536157295270_)"><circle cx="547.9" cy="545" r="167.2" class="st6"/><path d="M754.6 545c-5.7 114-92.5 206.7-206.7 206.7S341.2 659.1 341.2 545s92.5-206.7 206.7-206.7S761 417.5 754.6 545z" class="st6"/><circle cx="578.1" cy="513.9" r="206.7" class="st6"/><circle cx="611.9" cy="486.5" r="206.7" class="st6"/></g><defs><path id="SVGID_00000043432831075679939640000010632132521777771407_" d="M945.4 243.9c54.5 83.3 7.2 210.7-105.8 284.6S622.2 660 533 508c-84.4-143.7-3.7-207.1 109.3-281s248.6-66.4 303.1 16.9z"/></defs><clipPath id="SVGID_00000149369461896662005300000011823383629784791209_"><use xlink:href="#SVGID_00000043432831075679939640000010632132521777771407_" style="overflow:visible"/></clipPath><path d="M557.7 564.6s-53.3-80.7-31.5-153.5 61.7-141.9 164.2-201.2 210.8-8.5 210.8-8.5 25-107.6-144.1-81.6S306.5 85.2 325 318.5s232.7 246.1 232.7 246.1z" style="opacity:.38;clip-path:url(#SVGID_00000149369461896662005300000011823383629784791209_);fill:#735099;enable-background:new"/><path d="M945.6 243.8c32.8 49.3 27.5 114.5 2.9 166.2-24.5 52.9-67.2 95.8-116.6 126-114.1 73.5-210.1 116.3-295.5-21.8-89.4-144-18-210.9 104.6-289.6 45.6-29.6 98.8-48.8 153.4-50 57.3-1.9 119.2 19.3 151.2 69.2zm-.4.2c-23.7-36.7-65.3-58.1-107.8-64-64.1-9-129.7 10.1-184.4 43.3-122.9 78.8-203.8 140.5-114.2 289.4 41 68.5 95.8 109.7 177.5 81.3 40.9-14.1 77.4-38 113.5-61.5 36.3-23 68.9-52.1 93.8-87.2 41.2-56.9 62.8-138.6 21.6-201.3z" style="fill:#3f285e"/><defs><ellipse id="SVGID_00000083048646599101334240000002305731652159287686_" cx="299" cy="670.3" rx="284.4" ry="232.3" transform="rotate(-64.552 298.987 670.3)"/></defs><clipPath id="SVGID_00000098921454466742713630000010828853498623996321_"><use xlink:href="#SVGID_00000083048646599101334240000002305731652159287686_" style="overflow:visible"/></clipPath><ellipse cx="302.2" cy="671.4" rx="232.6" ry="284.1" style="clip-path:url(#SVGID_00000098921454466742713630000010828853498623996321_);fill:#af8080" transform="rotate(-78.159 302.22 671.451)"/><ellipse cx="321.6" cy="579.8" rx="112.1" ry="212.1" style="fill:#b28d8d" transform="rotate(-73.14 321.637 579.849)"/><defs><ellipse id="SVGID_00000057856985037712871130000007601456231490024336_" cx="302.7" cy="668.1" rx="232.6" ry="284.1" transform="rotate(-78.159 302.703 668.111)"/></defs><clipPath id="SVGID_00000106833542690738706960000002423909825163815848_"><use xlink:href="#SVGID_00000057856985037712871130000007601456231490024336_" style="overflow:visible"/></clipPath><defs><ellipse id="SVGID_00000136398835990454785490000014552172447013815220_" cx="302.7" cy="668.1" rx="232.6" ry="284.1" transform="rotate(-78.159 302.703 668.111)"/></defs><clipPath id="SVGID_00000172410596764054300290000015897284527722609848_"><use xlink:href="#SVGID_00000136398835990454785490000014552172447013815220_" style="overflow:visible"/></clipPath><path d="M73.2 452.7S-3.2 684.7 194 803.2s427.6 64 427.6 64-266.1 117-494-52-54.4-362.5-54.4-362.5z" style="clip-path:url(#SVGID_00000172410596764054300290000015897284527722609848_);fill:#9b7272"/><defs><ellipse id="SVGID_00000067194383336542338480000014341360329620955820_" cx="302.7" cy="668.1" rx="232.6" ry="284.1" transform="rotate(-78.159 302.703 668.111)"/></defs><clipPath id="SVGID_00000023256239392025591820000006871262639898535558_"><use xlink:href="#SVGID_00000067194383336542338480000014341360329620955820_" style="overflow:visible"/></clipPath><ellipse cx="470.9" cy="719.1" rx="161.1" ry="161.4" style="opacity:.64;clip-path:url(#SVGID_00000023256239392025591820000006871262639898535558_);fill:none;stroke:#a36f6f;stroke-width:6;stroke-miterlimit:10;enable-background:new"/><defs><ellipse id="SVGID_00000163778878842024386680000012229961133499585213_" cx="302.7" cy="668.1" rx="232.6" ry="284.1" transform="rotate(-78.159 302.703 668.111)"/></defs><clipPath id="SVGID_00000174581528421034170950000003913906543695400325_"><use xlink:href="#SVGID_00000163778878842024386680000012229961133499585213_" style="overflow:visible"/></clipPath><ellipse cx="437.5" cy="706.9" rx="214.6" ry="214.9" style="opacity:.64;clip-path:url(#SVGID_00000174581528421034170950000003913906543695400325_);fill:none;stroke:#a36f6f;stroke-width:6;stroke-miterlimit:10;enable-background:new"/><defs><ellipse id="SVGID_00000167372941588958676530000010209305217858121658_" cx="302.7" cy="668.1" rx="232.6" ry="284.1" transform="rotate(-78.159 302.703 668.111)"/></defs><clipPath id="SVGID_00000127739067273972290890000004691370264076453255_"><use xlink:href="#SVGID_00000167372941588958676530000010209305217858121658_" style="overflow:visible"/></clipPath><ellipse cx="376.9" cy="686.7" rx="247.9" ry="239.9" style="opacity:.64;clip-path:url(#SVGID_00000127739067273972290890000004691370264076453255_);fill:none;stroke:#a36f6f;stroke-width:6;stroke-miterlimit:10;enable-background:new"/><path d="M581 726.1c-20.9 103.6-123.7 170-224.3 178.1-133.9 13.2-283.2-61-327.5-193.3-1.2-3.5-2.7-8.7-3.5-12.3-1-3.7-2.2-8.8-2.8-12.5-.8-3.6-1.6-8.9-2.1-12.6-.3-1.8-.6-4.5-.8-6.3C9 554.5 93.8 467 198.1 440.5c82.8-21.8 173.5-9 248.2 32.4 88.9 47.9 157 149.8 134.7 253.2zm-.6-.1c21.1-102.1-45.1-196.8-131.4-244.9-60.2-34.3-131-49.5-199.9-43.4-82.7 7-166.9 49.7-206 125.5C-7 659 36.6 769.7 118.7 831.8c68.6 52.7 158.1 75.7 243.7 66.5 98.4-10 196.7-70.2 218-172.3z" style="fill:#7f5757"/><defs><path id="SVGID_00000100351867863840978680000008382984760508995461_" d="M268.1 68.8c111.8-36.7 224.1-16.3 258.2 65.1s-26.2 184.2-134.7 229.7-224.1 16.3-258.2-65.1c-43.1-94 20.5-192.2 134.7-229.7z"/></defs><clipPath id="SVGID_00000075878877975300269750000007084722066590311561_"><use xlink:href="#SVGID_00000100351867863840978680000008382984760508995461_" style="overflow:visible"/></clipPath><ellipse cx="329.8" cy="216.2" rx="213" ry="159.8" style="clip-path:url(#SVGID_00000075878877975300269750000007084722066590311561_);fill:#b7aeae" transform="rotate(-9.724 329.79 216.217)"/><ellipse cx="302.1" cy="154.3" rx="134" ry="60.8" style="fill:#c4bfbf" transform="rotate(-11.507 302.103 154.27)"/><defs><ellipse id="SVGID_00000080909652096969164820000017742967802112140180_" cx="329.8" cy="216.2" rx="213" ry="159.8" transform="rotate(-12.456 329.793 216.206)"/></defs><clipPath id="SVGID_00000179631718684837804490000017459575844199745176_"><use xlink:href="#SVGID_00000080909652096969164820000017742967802112140180_" style="overflow:visible"/></clipPath><defs><ellipse id="SVGID_00000070802035849598892720000007324033399662519190_" cx="329.8" cy="216.2" rx="213" ry="159.8" transform="rotate(-12.456 329.793 216.206)"/></defs><clipPath id="SVGID_00000039847455355750899460000001963109836387887032_"><use xlink:href="#SVGID_00000070802035849598892720000007324033399662519190_" style="overflow:visible"/></clipPath><path d="M490.5 55.9s69.4 154.2-72.1 246.5-317.1 68.3-317.1 68.3S308 441.7 470 313s20.5-257.1 20.5-257.1z" style="clip-path:url(#SVGID_00000039847455355750899460000001963109836387887032_);fill:#afa0a0"/><defs><path id="SVGID_00000151524689323041869800000018051571948146780349_" d="M263.8 48.9c109.7-42.6 224.5-10.4 256.4 71.9s-24.6 195.3-134.3 237.9S155 357.3 123.1 275s31-183.5 140.7-226.1z"/></defs><clipPath id="SVGID_00000019675934951138529830000001883630876584896929_"><use xlink:href="#SVGID_00000151524689323041869800000018051571948146780349_" style="overflow:visible"/></clipPath><ellipse cx="206.4" cy="260.7" rx="121.1" ry="110.6" style="opacity:.64;clip-path:url(#SVGID_00000019675934951138529830000001883630876584896929_);fill:none;stroke:#bc8f8f;stroke-width:6.0002;stroke-miterlimit:10.0004;enable-background:new" transform="rotate(-4.38 206.415 260.702) scale(1.00002)"/><defs><ellipse id="SVGID_00000157303185575711917190000005494184970027251341_" cx="323.4" cy="201.6" rx="213" ry="159.8" transform="rotate(-21.22 323.436 201.547)"/></defs><clipPath id="SVGID_00000173864119555063611640000012124052568495058846_"><use xlink:href="#SVGID_00000157303185575711917190000005494184970027251341_" style="overflow:visible"/></clipPath><ellipse cx="230.8" cy="250.5" rx="161.3" ry="147.3" style="opacity:.64;clip-path:url(#SVGID_00000173864119555063611640000012124052568495058846_);fill:none;stroke:#bc8f8f;stroke-width:6.0002;stroke-miterlimit:10.0004;enable-background:new" transform="rotate(-4.38 230.818 250.501) scale(1.00002)"/><defs><ellipse id="SVGID_00000052817050175727412050000014093081580227825300_" cx="326.6" cy="208.1" rx="213" ry="159.8" transform="rotate(-21.22 326.62 208.047)"/></defs><clipPath id="SVGID_00000173869931348984960600000003650571137582025350_"><use xlink:href="#SVGID_00000052817050175727412050000014093081580227825300_" style="overflow:visible"/></clipPath><ellipse cx="275.1" cy="233.2" rx="186.3" ry="164.4" style="opacity:.64;clip-path:url(#SVGID_00000173869931348984960600000003650571137582025350_);fill:none;stroke:#bc8f8f;stroke-width:6.0002;stroke-miterlimit:10.0004;enable-background:new" transform="rotate(-4.38 275.117 233.202) scale(1.00002)"/><path d="M124.7 271.7c19.7 63.5 87 96.7 149.2 103 30.1 3.2 60.9 1.3 90.5-5.1 50.4-11 99.1-35 133.8-73.7 42.4-46.2 56.9-113.5 19.2-167.1-35.2-50.4-99.4-71.7-159-72.1-60.5-.2-121.6 18.8-169.6 56-48.2 36.8-83.1 97.5-64.1 159zm-4.6.2c-20.9-66.3 3.6-126.7 57-164.6 41-30.9 87.1-48.7 125.1-56.1 42.6-8 88.3-2.5 129.6 11.2 63.1 19.7 116.2 74.2 109.7 143.8-2.8 34-19.3 65.7-41.6 91-49.4 55.6-124.8 85.2-198.6 84.4-72.3-.5-153.9-36.4-177.1-109.7h-4.1z" class="st0"/></g></svg>