<svg xmlns="http://www.w3.org/2000/svg" xml:space="preserve" id="Layer_1" x="0" y="0" style="enable-background:new 0 0 1000 1000" version="1.1" viewBox="0 0 1000 1000"><style>.st7{fill:#727271}.st8{fill:#22323a}.st9{fill:#565656}.st11{opacity:.5;fill:#b0b2b7;enable-background:new}</style><switch><g><path d="M841.6 980.2c-.7-.4-74.6-38.1-75.4-38.6l-3.6-2.4v-3c-.9-2.8-3.4-10.2-6.1-18.1l-1-3.1c-7-20.9-9.6-28.4-10.4-31.1-60.1-94.4-119-193.3-175.9-289-34.3-57.7-69.8-117.3-105.2-175.3-10.1-16.5-20.5-33.2-30.5-49.3l-5.1-8.3-.3-.2c-12.5-8.2-27.6-17.9-43.7-28.1 0 0-9.1-5.8-14.5-9.3l-65.5 60-45.9-8.4-51.8-22.1-10.2-2-5.5-1.3-2.1-5-50-111.9-1.5-3.8 1.4-3.5 13.8-39.4.9-3.7 3.4-1.6c22-10.6 52-25.2 70.5-34.3 5.8-2.8 18.8-9.3 29.2-14.4l5.1-2.5c-.6-2.1-1.2-4.3-1.7-6.7-5.8-27.2 4.4-54.4 27.3-72.6 17-13.6 36.5-22.3 56.3-25.1 4.1-.6 8.4-.9 12.6-.9 21.5 0 43.5 7.4 62 20.9 2.3 1.7 4.2 3.2 6.1 4.7 12.4-6.3 27.2-13.7 41.5-20.9l1-.5c14.9-7.5 28.9-14.5 40.5-20.4l3.7-2.1 4.2 1.4L551.5 19l3.5.9 2.1 3.2c11.2 15.6 25.4 36.1 39.1 55.9l.2.3c9.7 14.1 19 27.5 27 38.9l2.8 4-3.1 5.9 11.2 33.3-25.8 67.6-112.9 25.3.1 2c.8 23 1.8 49 2.3 65.6C559.4 425 608.3 507.9 651.9 583c58.9 101.8 109.9 191.2 151.7 265.9.9.7 2.2 1.8 4.3 3.6 3.3 2.7 7.6 6.4 11.9 10l.6.5c17 14.2 17 14.3 17.3 14.5l2.4 2.3v2.5c2 9.2 13.7 83.6 14.7 88l5 21-18.2-11.1zM325.1 62.5c-1.6 2.9-3.4 5.7-5.1 8.3.2-.1 1-.6 1-.6 2.9-1.6 5.9-3.2 8.8-4.8l4.8-2.4c-2.9-.2-5.9-.4-8.7-.5h-.8z" style="opacity:.27;fill:none;stroke:#249cff;stroke-width:7;stroke-miterlimit:10;enable-background:new"/><path d="M842.7 978.4c-.7-.4-74.7-38.1-75.3-38.5l-2.7-1.8v-2.3c-.9-2.5-3.4-10.2-6.2-18.5l-1-2.9c-7.4-21.8-9.8-29-10.5-31.5-60.1-94.4-119-193.5-176-289.2-34.3-57.7-69.8-117.3-105.2-175.3-10.1-16.5-20.5-33.2-30.5-49.3l-5.4-8.6-.7-.5c-12.5-8.2-27.7-17.9-43.8-28.2 0 0-10.5-6.8-15.7-10l-65.9 60.3-44.7-8.2-51.7-22.1-10.4-2.1-4.5-1-1.7-4-50-112-1.2-2.9 1.1-2.7 13.8-39.6.7-2.9 2.5-1.2c22-10.6 52-25.2 70.6-34.3 5.9-2.8 18.8-9.3 29.3-14.5l6.5-3.3c-.8-2.5-1.5-5.1-2.1-8.1-5.6-26.5 4.3-52.9 26.6-70.6C305.4 39.2 324.5 30.7 344 28c4-.6 8.2-.9 12.4-.9 21.1 0 42.6 7.3 60.8 20.6 2.6 1.9 4.9 3.7 7 5.5 12.7-6.4 27.9-14.1 42.7-21.5l.9-.5c14.9-7.5 29-14.6 40.5-20.4l3-1.7 3.4 1.1 36.2 10.7 2.8.7 1.7 2.5c11.2 15.6 25.4 36.1 39.1 56l.2.3c9.8 14.1 19 27.5 27 38.9l2.1 3-2.9 5.6 11.3 33.4-25.1 65.9-113.5 25.4.1 3.6c.9 23.2 1.8 49.6 2.4 66.1 61.5 103.3 110.5 186.4 154.1 261.5 58.9 101.9 110 191.5 151.9 266.2.9.7 2.3 1.9 4.6 3.8 3.3 2.7 7.6 6.4 11.9 10l.6.5c16.9 14.1 17 14.2 17.2 14.4l1.8 1.8v1.9c1.7 7.8 13.7 83.9 14.7 88.3l4.4 16.6-14.6-8.9zM324 60.4c-3.1 5.6-6.7 11-10.3 16.1 2.7-1.5 5.4-2.9 8-4.4l.3-.1c2.9-1.6 5.9-3.2 8.8-4.8 3.6-1.9 7.2-3.7 11.1-5.5-5.3-.7-10.7-1-15.9-1.2-.6 0-1.3 0-2-.1z" style="opacity:.38;fill:none;stroke:#249cff;stroke-width:7;stroke-miterlimit:10;enable-background:new"/><path d="M322.8 58.4c-4.2 7.9-9.5 15.3-14.6 22.4-.4.5-.8 1.1-1.2 1.6 5.3-2.8 10.6-5.7 15.7-8.5l.2-.1c2.9-1.6 5.9-3.2 8.8-4.8 5.4-2.8 11-5.5 17.1-8.2-1.7-.3-3.2-.5-4.5-.7-6.1-1-12.3-1.3-18.2-1.5-1.1-.1-2.2-.2-3.3-.2z" style="opacity:.5;fill:none;stroke:#249cff;stroke-width:7;stroke-miterlimit:10;enable-background:new"/><path d="M844.8 975c-3.9-2.2-74.8-38.2-75.2-38.5l-.9-.6v-.8c-.6-1.7-3.6-10.6-6.7-20.1-8.5-25.1-10.7-31.8-11.3-33.8-60.2-94.5-119.2-193.7-176.3-289.6C540 534 504.5 474.4 469.2 416.4c-10.1-16.6-20.6-33.4-30.6-49.6l-5.7-9.2-1.5-1c-12.5-8.2-27.8-18-44-28.3-6-3.9-12.1-7.8-18.1-11.6l-66.7 61.1-42.3-7.7-51.7-22.1-10.8-2.2-2.4-.5-.9-2.1-50.1-112.1-.5-1.3.5-1.2 13.9-39.9.3-1.2.8-.4c22-10.6 52-25.2 70.6-34.3 5.9-2.9 19.1-9.4 29.7-14.7 3.5-1.7 6.7-3.3 9.3-4.6-1.3-3.2-2.3-6.8-3.2-11-5.3-24.9 4.1-49.9 25.2-66.7 16.2-13 34.6-21.2 53.4-23.8 3.9-.5 7.8-.8 11.8-.8 20.2 0 41 7 58.5 19.8 3.3 2.4 6.1 4.7 8.7 7.1 13.1-6.7 29.6-15 45.6-23 15.1-7.6 29.3-14.8 41-20.7l1.6-.9 1.7.6 36.3 10.8 1.5.4.8 1.2c11.3 15.7 25.5 36.3 39.2 56.1 9.9 14.3 19.2 27.8 27.2 39.1l.7 1-2.6 4.9 11.4 33.7-23.8 62.6-114.6 25.7.3 7c.9 23.8 1.9 50.7 2.4 67.1 61.7 103.6 110.9 187 154.6 262.4C705.8 688 757 777.8 799 852.8c.9.7 2.4 1.9 5.1 4.2 3.3 2.7 7.6 6.3 11.9 10 2.9 2.4 17.3 14.5 17.5 14.7l.6.6v.6c1 4.6 13.7 84 14.8 88.7l1.7 7-5.8-3.6zM321.6 56.3c-4.3 8.3-9.7 15.9-15 23.3l-6 8.4c7.9-4.1 15.7-8.3 23.2-12.4 3-1.6 5.9-3.2 8.9-4.8 7-3.7 14.4-7.1 22.9-10.7-3.8-.8-7.7-1.5-11-1.9-6.1-1-12.4-1.3-18.4-1.6-1.5-.1-3-.2-4.6-.3z" style="opacity:.6;fill:none;stroke:#249cff;stroke-width:7;stroke-miterlimit:10;enable-background:new"/><path d="M853.4 980.6c-.1-.2-21.2-97.3-21.2-97.5-.1-.1-34.7-29.1-34.8-29.1-48.2-86.1-103-181.7-152.4-267.1-50.9-87.6-103-175.7-154.9-262.8v-.4c-.6-18.3-1.7-49.9-2.7-75.8l115.2-25.8 23.2-60.9-11.4-33.8 2.4-4.6c-19.3-27.4-47-68.3-66.4-95.3l-.4-.6-.8-.2-36.4-10.8-.9-.3-.9.5c-24.8 12.6-62.7 31.5-87.8 44.3-3-2.9-6.2-5.4-9.6-7.9-19.6-14.3-44.6-22-68.8-18.6-19.3 2.7-37.3 11.3-52.4 23.4-19.7 15.7-29.8 39.8-24.5 64.7.9 4.2 2 8.3 3.8 12.4-9.9 4.9-32.4 16.1-40.7 20.1-20.4 10-50 24.4-70.6 34.3l-.1.4-14 40.1-.2.5.2.5 50.1 112.1.5 1.2 1.3.3 11 2.2 51.7 22.1 41.1 7.5 67.1-61.5c22 14.1 45.7 29.2 63.3 40.8l1.9 1.2c12.2 19.7 24.5 39.4 36.6 59.2C565 569.7 656 729 752.4 880.4c0 .2 18.3 54.4 18.3 54.5.3.2 81 46.5 81.4 46.7l1.8 1.1-.5-2.1zm-533-926.4c8.1.5 16.3.6 24.5 1.9 5.1.7 11.5 2 17.5 3.3-9.8 4-19.2 8.1-28.7 13.1-12.8 6.9-25.4 13.9-38.9 20.7 8.3-13.2 18.7-25 25.6-39z" style="fill:none;stroke:#249cff;stroke-width:7;stroke-miterlimit:10;enable-background:new"/><path d="m456.5 254.8 146.1-32.7 23.2-60.9-12.6-37.3-156.7 66zM260.9 368.2l-55.2-23.6 153.1-82.4 31.5 32.6-88.3 80.9z" style="fill:#565656;stroke:#232635;stroke-width:5;stroke-miterlimit:10"/><path d="m296 318.9 27.4 4.9 12.5 20.8 30.6-36.4-31.4-23.1z" style="opacity:.43;fill:#353535;enable-background:new"/><path d="m616.5 122.8-67.8-94-36.5-10.4-89.5 45.9s-47.2-49.8-111.1-16.2-37.8 87.3-37.8 87.3l-112.4 54.5-13.8 40.1 51.2 111.6 53.7 10.3 83.5-63.2 98.5 63.3 52.2-28.2-3-103.2 107-50.4 25.8-47.4zM294.6 93.4l24.3-42 52.5 7.3-76.8 34.7z" class="st7"/><path d="M616.1 122.9c-20.4-26.6-49.4-66.3-69.2-92.8l1.2.8-36.6-10.1 1.8-.2-44.6 23.3c-12.2 6.4-34.5 17.9-46.7 24.2-3.6-3.8-7.7-7.3-12-10.3-18.5-13.3-41.6-20.5-64.4-17.6-18.2 2.3-35.6 10.2-50 21.3-21.1 16.1-30.2 41.2-22.7 66.9.8 2.7 1.8 5.4 2.9 7.8l-1.3.6c-26 12.3-58.6 27.9-84.5 40.4l-28.1 13.7.6-.6-13.6 40.3-.1-1 52.3 111.1-1.9-1.5L253 349l-2.4.5 83.2-63.7 2-1.5c28.5 18.3 71.9 45.9 100.6 64.6l-3.8-.1 52.3-28-1.8 3.2c-.7-25.8-1.8-77.5-2.4-103.2v-1.9l1.7-.8 26.9-12.3c24.9-11.4 55.9-25.5 80.8-36.6l-.5.5 26.5-46.8zm.7-.1-25.1 47.9-.2.3c-15.3 7.6-37.9 18.6-53.5 26.2-13.3 6.5-39.9 19.5-53.2 25.9l1.6-2.6c.9 25.7 2.9 77.5 3.7 103.2l.1 2.1-1.9 1-52.1 28.4-1.9 1-1.9-1.2c-27.9-18.2-70.9-45.4-98.4-63.5l4.1-.2-83.9 62.8-1.1.8-1.3-.3-53.6-10.7-1.3-.3-.5-1.2-50.1-112.1-.2-.5.2-.5 14-40.1.1-.4c20.6-9.9 50.2-24.3 70.6-34.3 8.7-4.2 32.9-16.3 42-20.8l-.7 2.1c-2.1-4.5-3.4-9.1-4.4-13.8-5.3-24.9 4.8-49 24.5-64.7 15.1-12.1 33.1-20.7 52.4-23.4 24.2-3.4 49.2 4.3 68.8 18.6 4 2.9 7.7 5.9 11.2 9.5l-3.6-.6C446.3 48.6 485.6 29 511 16.1l.9-.5.9.3 36.4 10.8.8.2.4.6c19.4 27 47.1 67.9 66.4 95.3z" class="st8"/><path d="M294.3 93.7c7.2-14.9 13.5-31.6 23.3-45.4 9.2 1.9 18.3 4.6 27.7 5.7 7.6 1.1 18.7 1.7 26.5 2.1l8.9.5c-15.5 8.5-32 16.6-48.5 23-12.7 4.9-25.7 9.4-37.9 14.1zm.5-.5c13.5-6.8 26.1-13.8 38.9-20.7 12-6.3 23.9-11.3 36.6-16.2l.7 5c-7.7-1.7-18.4-4.2-26.1-5.2-8.8-1.4-17.7-1.4-26.5-2l2.8-1.4c-6.9 14.6-17.8 26.8-26.4 40.5z" class="st8"/><path d="m276 145.4 8.5 50.3 25.5 45 55 28.2 77.7 68-11.2 5.8-89.3-60.4-70.1-33.6-16.2-72.8-84.3 19.8zm95.4-73.7 59.8 36.9 19.6 64.4-29.8 55.8 45.5-47.2-19.5-80.4-61.4-29.5z" class="st9"/><path d="m287.6 111.7 11.8 62.1 42.8 63.2 60.3 6.6-60.3-24.6-25.6-59.3 3.2-48 51.6-39.3z" class="st9"/><path d="M431.8 71.7 471 97.8l15.1 67.7-12.5 34.7 3.6-35.6-18.2-64.1-56.5-28.1z" style="fill:#b0b2b7"/><path d="m514.3 29.3 73.8 131.5 21.3-33L538 32z" class="st11"/><path d="M164.6 200.2 153.9 228l49.2 107 36.4 9.6z" class="st9"/><path d="m797.1 854.3 34.6 29.1 20.7 97.4-80.9-46.7-18-54.1-322-531.6 55.2-24.6z" class="st7"/><path d="M797.4 854c.1 0 34.7 29 34.8 29.1 0 .2 21.1 97.3 21.2 97.5l.5 2.1-1.8-1.1c-.4-.2-81.1-46.5-81.4-46.7 0-.1-18.3-54.3-18.3-54.5C656 729 565 569.7 470.9 415.4c-13.9-22.7-28-45.3-42-67.9l2-.9 54.9-25.2 2.1-1 1.2 2C541.3 410 593.8 498.7 645 586.9c49.4 85.4 104.2 181 152.4 267.1zm-.5.5c-51.5-84-107.9-178.5-158-263.4-25.4-42.9-52.7-89.9-77.6-132.8-25.7-44.4-51.5-88.7-76.9-133.2l3.3 1.1-55.5 24 .9-2.8c13.2 22.3 26.4 44.6 39.6 66.8 93.5 155.3 191.4 308 282 465l.1.2v.1l17.8 54.2-.6-.7 80.7 47-1.4 1c0 .1-20.7-98.7-20.2-97.2.2 0-34.2-29.3-34.2-29.3z" class="st8"/><path d="M450.2 342.7c2.9 3.1 316.3 536 316.3 536l31.2 35s58.5 66.1 51 60.6c-7.4-5.6-67.9-46.3-67.9-46.3l-27.3-54.5-317.2-522.7 13.9-8.1z" class="st9"/><path d="m471.5 222.1-31.4 21.5 25.9 84.1 15.5-8.8zm-2.3 116.6 310.4 526.5 31.8 16.9 34.6 84-14.3-82.7-40-18.2-305.6-535.1z" class="st11"/><path d="m594.2 170.4 6.4 47.9 20.4-57.5-8.3-26.6z" style="opacity:.26;fill:#b0b2b7;enable-background:new"/></g></switch></svg>