<svg xmlns="http://www.w3.org/2000/svg" xmlns:xlink="http://www.w3.org/1999/xlink" xml:space="preserve" id="Layer_1" x="0" y="0" style="enable-background:new 0 0 1000 1000" version="1.1" viewBox="0 0 1000 1000"><style>.st1{fill:#684d40}.st4{fill:#ad7b6c}.st6{fill:#442923}.st238{fill:none;stroke:#442923;stroke-width:7;stroke-miterlimit:10}</style><path d="M694.48 887.76H95.79L273.11 65.99H859.7z" style="fill:#5b423b"/><path d="m755.57 140.15-4.18 20.77-130.34 648.32H179.46l144.36-669.09z" class="st1"/><path d="M751.39 160.92 621.05 809.24H200.63l139.88-648.32z" style="fill:#684d40;stroke:#000;stroke-miterlimit:10"/><path d="M904.21 129.4 749.77 934.01H130.11l-34.32-46.25h598.69L859.69 65.99z" class="st1"/><path d="M904.21 129.4 749.77 934.01l-55.29-46.25L859.69 65.99z" style="fill:#49352e"/><defs><path id="SVGID_00000049209046607918246480000016446378641166334605_" d="M751.39 160.92 621.05 809.24H200.63l139.88-648.32z"/></defs><clipPath id="SVGID_00000160186025582248965050000011673139398485142424_"><use xlink:href="#SVGID_00000049209046607918246480000016446378641166334605_" style="overflow:visible"/></clipPath><linearGradient id="SVGID_00000119096667994426416790000013385817459931754940_" x1="425.652" x2="586.226" y1="623.03" y2="128.835" gradientUnits="userSpaceOnUse"><stop offset="0" style="stop-color:#3f4151"/><stop offset=".932" style="stop-color:#1f2239"/></linearGradient><path d="M233.13 560.48c37.17 1.09 124.3-4.3 242.88 0 118.57 4.3 218.47 23.57 218.47 23.57L811.3 201.97l-519.6 44.95-58.57 313.56z" style="clip-path:url(#SVGID_00000160186025582248965050000011673139398485142424_);fill:url(#SVGID_00000119096667994426416790000013385817459931754940_)"/><radialGradient id="SVGID_00000142139989840441917520000014223140670365216937_" cx="529.419" cy="261.084" r="229.124" gradientUnits="userSpaceOnUse"><stop offset="0" style="stop-color:#ffe5a7"/><stop offset="1" style="stop-color:#d18b00"/></radialGradient><path d="M748.31 176.2c0 52.21-107.66 110.07-136.07 149.38C568.84 385.62 592.17 500 512.43 500c-63.43 0-58.08-90.74-100.86-131.08-46.2-43.57-101.04-62.66-101.04-131.18 0-131.95 69.95-215.58 201.9-215.58S748.31 44.25 748.31 176.2z" style="clip-path:url(#SVGID_00000160186025582248965050000011673139398485142424_);fill:url(#SVGID_00000142139989840441917520000014223140670365216937_)"/><path d="M342.54 150.6s4.82 85.08 36.92 109.16 70.64 33.71 64.21 52.98c-6.42 19.26 10.34 62.61 34.07 65.82 23.73 3.21 6.07 28.9 10.88 28.9s41.74-35.32 41.74-49.77 16.05-81.87 62.61-78.66c46.56 3.21 66.54-54.58 101.5-73.85s76.7-78.66 76.7-78.66-19.02 141.31-45.63 162.96c-26.61 21.65-105.27 81.05-119.72 117.97-14.45 36.92-16.05 63.74-40.13 77.62-24.08 13.88-87.94 39.57-87.94 39.57s-19.62-70.64-56.54-86.69c-36.92-16.05-80.27-20.87-78.66-44.95 1.61-24.08 19.18-33.71-.04-52.98-19.22-19.26-50.79-51.04-50.79-51.04l50.82-138.38z" style="clip-path:url(#SVGID_00000160186025582248965050000011673139398485142424_);fill:#7a302e"/><linearGradient id="SVGID_00000135677225647196471480000016286328273317159552_" x1="445.961" x2="445.961" y1="837.608" y2="524.607" gradientUnits="userSpaceOnUse"><stop offset="0" style="stop-color:#3f4127"/><stop offset=".932" style="stop-color:#332529"/></linearGradient><path d="M634.81 837.61H179.46l77.65-282.38s106.62-29.62 143.22-30.58c48.75-1.29 192.64 30.58 192.64 30.58s47.66-16.45 64.21-16.14c14.39.27 55.27 16.14 55.27 16.14l-77.64 282.38z" style="clip-path:url(#SVGID_00000160186025582248965050000011673139398485142424_);fill:url(#SVGID_00000135677225647196471480000016286328273317159552_)"/><linearGradient id="SVGID_00000132074110731408631440000008031980500378230662_" x1="448.358" x2="448.358" y1="714.628" y2="594.253" gradientUnits="userSpaceOnUse"><stop offset="0" style="stop-color:#3f4151"/><stop offset=".932" style="stop-color:#1f2239"/></linearGradient><path d="M712.46 594.89s-387.58-4.01-357.08 8.02 296.99 40.1 226.36 54.13-372.93 22.52-372.93 22.52l-24.56 35.06s379.83-29.51 432.8-53.57-192.57-45.71-218.33-55.14c-25.76-9.43 313.74-3.01 313.74-3.01v-8.01z" style="clip-path:url(#SVGID_00000160186025582248965050000011673139398485142424_);fill:url(#SVGID_00000132074110731408631440000008031980500378230662_)"/><linearGradient id="SVGID_00000140702074378284715920000004999598334895265445_" x1="287.917" x2="287.917" y1="426.718" y2="659.495" gradientUnits="userSpaceOnUse"><stop offset="0" style="stop-color:#121e34"/><stop offset=".932" style="stop-color:#101b00"/></linearGradient><path d="M275.11 426.72s57.79 38.06 51.37 58.36-4.63 10.6-15.96 39.53c-11.33 28.93 21.77 36.96 16.46 53.02-5.31 16.05-34.02 28.9-16.46 38.53 17.56 9.63 48.07 28.9 48.07 28.9s-88.42 14.45-130.16 14.45 46.68-232.79 46.68-232.79z" style="clip-path:url(#SVGID_00000160186025582248965050000011673139398485142424_);fill:url(#SVGID_00000140702074378284715920000004999598334895265445_)"/><linearGradient id="SVGID_00000041279836979965567150000011730105079669770628_" x1="290.033" x2="373.167" y1="785.224" y2="699.137" gradientUnits="userSpaceOnUse"><stop offset="0" style="stop-color:#775435"/><stop offset=".25" style="stop-color:#745235"/><stop offset=".453" style="stop-color:#6a4c36"/><stop offset=".64" style="stop-color:#594336"/><stop offset=".817" style="stop-color:#413537"/><stop offset=".985" style="stop-color:#222439"/><stop offset="1" style="stop-color:#1f2239"/></linearGradient><path d="m262.27 726.92 28.9 59.4s9.63-35.32 14.45-29.7c4.82 5.62 67.43 0 67.43 0s-1.61 31.3 0 29.7c1.61-1.61 28.9-59.4 28.9-59.4l-110.77-6.42-28.91 6.42z" style="fill:url(#SVGID_00000041279836979965567150000011730105079669770628_)"/><path d="M859.7 65.99C808.86 334.8 752.03 619.85 697.81 888.42l-.55 2.73c-76.02-.18-226.11-.51-302.12-.94-96.88-.68-202.77-1.21-299.34-2.46 96.45-1.07 202.49-1.95 299.34-2.46 74.65-.47 224.73-.76 299.35-.93l-3.33 2.72 20.56-102.74c47.09-233.77 98.39-485.75 147.98-718.35z" class="st4"/><path d="M95.79 887.76c41.91-205.58 85.59-412 129.64-617.05 11.33-52.54 33.48-155.6 44.95-208.11 74.48.2 221.55.52 296.02.95 41.06.3 105.92.57 146.65 1 48.88.46 97.76.79 146.65 1.44-48.88.65-97.76.98-146.65 1.44-40.61.43-105.48.73-146.65 1-73.14.48-220.18.76-293.29.95l3.31-2.67c-10.93 51.29-33.21 154.22-44.29 205.45-44.42 204.94-89.75 411.05-136.34 615.6z" style="fill:#663e37"/><path d="M749.77 934.01c-154.71 3.66-310.01 3.91-464.74 3.07-50.67-.31-104.33-.91-154.91-1.82l-.66-.01-.35-.5-16.71-23.45-16.61-23.54 17.71 22.71 17.61 22.79-1.01-.51c50.56-.9 104.26-1.51 154.91-1.82 154.75-.83 310.05-.57 464.76 3.08z" class="st6"/><path d="M179.46 809.24c32.95-164.48 69.63-338.33 104.9-502.54 9.28-43 27.38-126.92 36.76-169.91 55.17.21 163.42.58 218.58 1.02 71.96.57 143.92 1.25 215.88 2.35-71.96 1.1-143.92 1.78-215.88 2.35-53.85.47-162.05.8-215.88 1.01l3.28-2.65c-15.94 74.56-37.94 176.42-54.15 250.91-29.77 135.94-62.16 282.1-93.49 417.46z" class="st4"/><path d="M751.39 160.92c-29.52 159.35-62.56 327.8-94.38 486.92-8.39 41.73-24.73 123.05-33.22 164.77-53.78-.2-159.18-.58-212.95-1.01-70.07-.57-140.14-1.25-210.21-2.36 70.07-1.11 140.14-1.79 210.21-2.36 52.43-.47 157.8-.8 210.21-1l-3.29 2.69c14.37-72.24 34.25-170.94 48.9-243.12 26.91-131.74 56.24-273.36 84.73-404.53z" class="st6"/><linearGradient id="SVGID_00000029029631058401297700000003672858057660647328_" x1="540.385" x2="540.385" y1="786.378" y2="676.851" gradientUnits="userSpaceOnUse"><stop offset="0" style="stop-color:#354a4d"/><stop offset=".932" style="stop-color:#33363b"/></linearGradient><path d="M573.9 702.93s-10.19-29.32-12.67-25.78-31.72 4.55-31.72 4.55l-11.79 21.61-23.99 24.88 7.52 1.71 18.91-19.47-6.89 21.18h9.17l11.05-26.67 12.13-9.1 14.81 34.05-14.81 56.47h15.16l10.41-38.9 3.74 38.9h12.13v-58.27l-13.16-25.16z" style="fill:url(#SVGID_00000029029631058401297700000003672858057660647328_)"/><linearGradient id="SVGID_00000122688854537832464950000009282568301588755848_" x1="533.65" x2="533.65" y1="669.743" y2="635.835" gradientTransform="rotate(50.861 531.18 673.651)" gradientUnits="userSpaceOnUse"><stop offset="0" style="stop-color:#354a4d"/><stop offset=".932" style="stop-color:#33363b"/></linearGradient><path d="m545.34 684.93-19.24-23.65 26.3-21.4 19.24 23.64z" style="fill:url(#SVGID_00000122688854537832464950000009282568301588755848_)"/><path stroke-width="7" d="m453.822 753.392 14.083 24.05-24.049 14.082-14.083-24.049zm51.15-1.91 14.082 24.049-24.049 14.082-14.083-24.049z" class="st238"/><path d="M404.97 755.27c.51 1.77 37.9 19.2 37.9 19.2l58.87-3.88 12.89-35.79-14.63-6.56" class="st238"/></svg>