<svg xmlns="http://www.w3.org/2000/svg" xmlns:xlink="http://www.w3.org/1999/xlink" xml:space="preserve" id="Layer_1" x="0" y="0" style="enable-background:new 0 0 1000 1000" version="1.1" viewBox="0 0 1000 1000"><style>.st1{fill:#684d40}.st4{fill:#ad7b6c}.st6{fill:#442923}</style><path d="M747.33 933.31c-154.13 3.99-308.87 4.57-463.03 4.06-50.49-.2-103.94-.69-154.35-1.49l-.66-.01-.35-.51-16.62-23.77-16.51-23.84 17.63 23.03 17.53 23.1-1.02-.52c50.37-1.01 103.87-1.73 154.34-2.15 154.15-1.15 308.89-1.23 463.04 2.1z" class="st6"/><path d="M694.48 887.76H95.79L273.11 65.99H859.7z" style="fill:#5b423b"/><path d="m755.57 140.15-4.18 20.77-130.34 648.32H179.46l144.36-669.09z" class="st1"/><path d="M751.39 160.92 621.05 809.24H200.63l139.88-648.32z" style="fill:#684d40;stroke:#000;stroke-miterlimit:10"/><path d="M904.21 129.4 749.77 934.01H130.11l-34.32-46.25h598.69L859.69 65.99z" class="st1"/><path d="M904.21 129.4 749.77 934.01l-55.29-46.25L859.69 65.99z" style="fill:#49352e"/><path d="M859.7 65.99C808.86 334.8 752.03 619.85 697.81 888.42l-.55 2.73c-76.02-.18-226.11-.51-302.12-.94-96.88-.68-202.77-1.21-299.34-2.46 96.45-1.07 202.49-1.95 299.34-2.46 74.65-.47 224.73-.76 299.35-.93l-3.33 2.72 20.56-102.74c47.09-233.77 98.39-485.75 147.98-718.35z" class="st4"/><path d="M95.79 887.76c41.91-205.58 85.59-412 129.64-617.05 11.33-52.54 33.48-155.6 44.95-208.11 74.48.2 221.55.52 296.02.95 41.06.3 105.92.57 146.65 1 48.88.46 97.76.79 146.65 1.44-48.88.65-97.76.98-146.65 1.44-40.61.43-105.48.73-146.65 1-73.14.48-220.18.76-293.29.95l3.31-2.67c-10.93 51.29-33.21 154.22-44.29 205.45-44.42 204.94-89.75 411.05-136.34 615.6z" style="fill:#663e37"/><path d="M179.46 809.24c32.95-164.48 69.63-338.33 104.9-502.54 9.28-43 27.38-126.92 36.76-169.91 55.17.21 163.42.58 218.58 1.02 71.96.57 143.92 1.25 215.88 2.35-71.96 1.1-143.92 1.78-215.88 2.35-53.85.47-162.05.8-215.88 1.01l3.28-2.65c-15.94 74.56-37.95 176.42-54.15 250.91-29.77 135.94-62.16 282.1-93.49 417.46z" class="st4"/><path d="M751.39 160.92c-29.52 159.35-62.56 327.8-94.38 486.92-8.39 41.73-24.73 123.05-33.22 164.77-53.78-.2-159.18-.58-212.95-1.01-70.07-.57-140.14-1.25-210.21-2.36 70.07-1.11 140.14-1.79 210.21-2.36 52.43-.47 157.8-.8 210.21-1l-3.29 2.69c14.37-72.24 34.25-170.94 48.9-243.12 26.91-131.74 56.24-273.36 84.73-404.53z" class="st6"/><defs><path id="SVGID_00000146467613941240251310000002671439415640822940_" d="M193.75 809.24h429.8l128.87-648.32H340.04z"/></defs><clipPath id="SVGID_00000150820984977534198370000000010229745335920001_"><use xlink:href="#SVGID_00000146467613941240251310000002671439415640822940_" style="overflow:visible"/></clipPath><g style="clip-path:url(#SVGID_00000150820984977534198370000000010229745335920001_)"><defs><path id="SVGID_00000175316644424840509090000006083778481518746761_" d="M236.06 621.73s29.83-8.55 50.96-29.86c21.08-21.31 41.43-56.84 41.43-56.84s-11 56.84 7.46 65.36c18.48 8.53 52.98-78.15 52.98-78.15s4.48 44.05 21.05 46.89c16.57 2.84 49.21-10.5 54.75-3.83 5.56 6.67-3.76 72.03.22 83.4 3.98 11.37-.16 52.57-15.28 72.47-15.15 19.89-15.68 56.84-34.35 56.84-18.68 0-33.51-34.1-60.93-24.16-27.45 9.95-69.13 34.1-88.45 35.52-19.32 1.42-67.67 0-67.67 0l37.83-167.64z"/></defs><clipPath id="SVGID_00000038380769508238175460000016794078112102625448_"><use xlink:href="#SVGID_00000175316644424840509090000006083778481518746761_" style="overflow:visible"/></clipPath></g><defs><path id="SVGID_00000134963710721710730320000011653364340690259379_" d="M193.75 809.24h429.8l128.87-648.32H340.04z"/></defs><clipPath id="SVGID_00000052820484489366233870000014385726453115585201_"><use xlink:href="#SVGID_00000134963710721710730320000011653364340690259379_" style="overflow:visible"/></clipPath><linearGradient id="SVGID_00000176013132016278305420000013004008732729917622_" x1="535.145" x2="535.145" y1="160.917" y2="453.403" gradientUnits="userSpaceOnUse"><stop offset=".012" style="stop-color:#e4c68f"/><stop offset="1" style="stop-color:#64461f"/></linearGradient><path d="M694.28 453.4H317.87l65.18-292.48h369.37z" style="clip-path:url(#SVGID_00000052820484489366233870000014385726453115585201_);fill:url(#SVGID_00000176013132016278305420000013004008732729917622_)"/><linearGradient id="SVGID_00000020384421286313155720000007609581553837339525_" x1="385.316" x2="385.316" y1="18.748" y2="506.545" gradientUnits="userSpaceOnUse"><stop offset=".012" style="stop-color:#362116"/><stop offset=".795" style="stop-color:#5c391a"/></linearGradient><path d="M523.16 144.04s-23.69 91.87-22.74 163.12c1.1 71.25 76.48 149.99 38.47 155.62-38.03 5.62-348.77 110.62-315.35-26.25 33.38-136.87-57.24-376.86 114.4-412.48 170.88-35.63 185.22 119.99 185.22 119.99z" style="clip-path:url(#SVGID_00000052820484489366233870000014385726453115585201_);fill:url(#SVGID_00000020384421286313155720000007609581553837339525_)"/><linearGradient id="SVGID_00000003784699935329386860000018307074413481508774_" x1="488.757" x2="488.757" y1="253.505" y2="621.729" gradientUnits="userSpaceOnUse"><stop offset=".012" style="stop-color:#3f2c26"/><stop offset="1" style="stop-color:#010000"/></linearGradient><path d="m701.15 253.51-20.49 14.8-8.67-14.8s-19.25 22.92-16.44 37.81c2.82 14.89 6.03 27.95 6.03 27.95h-42.46l-35.29 57.33-2.19 67.66s-83.33 31.15-92.05 9.49c-8.69-21.66-121.01-47.38-146.35-46.02-25.34 1.35-59.51 2.71-59.51 2.71l-21.69 96.11 398.77 115.18 54.64-274.91-21.67-27.55 5.72-21.25 1.65-44.51z" style="clip-path:url(#SVGID_00000052820484489366233870000014385726453115585201_);fill:url(#SVGID_00000003784699935329386860000018307074413481508774_)"/><linearGradient id="SVGID_00000083047174001789457910000005175161704059832739_" x1="438.464" x2="438.464" y1="493.836" y2="824.438" gradientUnits="userSpaceOnUse"><stop offset="0" style="stop-color:#010000"/><stop offset=".117" style="stop-color:#1e1409"/><stop offset=".284" style="stop-color:#3f2c13"/><stop offset=".456" style="stop-color:#5a3e1b"/><stop offset=".63" style="stop-color:#6d4b20"/><stop offset=".809" style="stop-color:#785324"/><stop offset="1" style="stop-color:#7c5625"/></linearGradient><path d="m262.05 506.54-71.73 317.89h430.21s82.34-317.89 63.19-317.89c-7.91 0-65.17 15.91-148.61 15.91-47.04 0-134.43-28.62-177.83-28.62-65.96.01-95.23 12.71-95.23 12.71z" style="clip-path:url(#SVGID_00000052820484489366233870000014385726453115585201_);fill:url(#SVGID_00000083047174001789457910000005175161704059832739_)"/><path d="M236.06 621.73s29.83-8.55 50.96-29.86c21.08-21.31 41.43-56.84 41.43-56.84s-11 56.84 7.46 65.36c18.48 8.53 52.98-78.15 52.98-78.15s4.48 44.05 21.05 46.89c16.57 2.84 49.21-10.5 54.75-3.83 5.56 6.67-3.76 72.03.22 83.4 3.98 11.37-.16 52.57-15.28 72.47-15.15 19.89-15.68 56.84-34.35 56.84-18.68 0-33.51-34.1-60.93-24.16-27.45 9.95-69.13 34.1-88.45 35.52-19.32 1.42-67.67 0-67.67 0l37.83-167.64z" style="clip-path:url(#SVGID_00000052820484489366233870000014385726453115585201_);fill:#591d1a"/><g style="clip-path:url(#SVGID_00000052820484489366233870000014385726453115585201_)"><defs><path id="SVGID_00000103237579687527977700000008438982026160012675_" d="M236.06 621.73s29.83-8.55 50.96-29.86c21.08-21.31 41.43-56.84 41.43-56.84s-11 56.84 7.46 65.36c18.48 8.53 52.98-78.15 52.98-78.15s4.48 44.05 21.05 46.89c16.57 2.84 49.21-10.5 54.75-3.83 5.56 6.67-3.76 72.03.22 83.4 3.98 11.37-.16 52.57-15.28 72.47-15.15 19.89-15.68 56.84-34.35 56.84-18.68 0-33.51-34.1-60.93-24.16-27.45 9.95-69.13 34.1-88.45 35.52-19.32 1.42-67.67 0-67.67 0l37.83-167.64z"/></defs><clipPath id="SVGID_00000139972890917962768970000003940749077086268830_"><use xlink:href="#SVGID_00000103237579687527977700000008438982026160012675_" style="overflow:visible"/></clipPath><linearGradient id="SVGID_00000021824184711782661750000017839299769092085149_" x1="425.808" x2="160.103" y1="668.174" y2="668.174" gradientUnits="userSpaceOnUse"><stop offset="0" style="stop-color:#89302b"/><stop offset=".974" style="stop-color:#591d1a"/></linearGradient><path d="M425.57 502.17s1.56 51.66-3.35 91.66c-4.89 40-5.1 166.42-21.42 186.65-16.35 20.23-46.99 58.33-46.99 58.33s-25 8.33-28.78 0c-3.78-8.33-164.92-36.66-164.92-36.66s241.61-308.31 248.9-308.31 16.56 8.33 16.56 8.33z" style="clip-path:url(#SVGID_00000139972890917962768970000003940749077086268830_);fill:url(#SVGID_00000021824184711782661750000017839299769092085149_)"/><linearGradient id="SVGID_00000004548370269513116940000003921835073475475646_" x1="350.124" x2="83.681" y1="597.129" y2="597.129" gradientUnits="userSpaceOnUse"><stop offset="0" style="stop-color:#89302b"/><stop offset=".974" style="stop-color:#591d1a"/></linearGradient><path d="M350 431.12s1.2 51.66-3.96 91.66c-5.14 40-6.21 166.42-22.59 186.65-16.42 20.23-47.18 58.33-47.18 58.33s-24.94 8.33-28.66 0c-3.7-8.33-163.94-36.66-163.94-36.66S326.3 422.79 333.56 422.79s16.44 8.33 16.44 8.33z" style="clip-path:url(#SVGID_00000139972890917962768970000003940749077086268830_);fill:url(#SVGID_00000004548370269513116940000003921835073475475646_)"/><linearGradient id="SVGID_00000143613872102718902760000013149005566433225366_" x1="632.899" x2="371.433" y1="602.812" y2="602.812" gradientUnits="userSpaceOnUse"><stop offset="0" style="stop-color:#89302b"/><stop offset=".974" style="stop-color:#591d1a"/></linearGradient><path d="M632.38 436.81s2.14 51.66-2.29 91.66c-4.41 40-3.18 166.42-19.2 186.65-16.05 20.23-46.13 58.33-46.13 58.33s-24.8 8.33-28.67 0c-3.86-8.33-164.66-36.66-164.66-36.66s237.09-308.31 244.36-308.31c7.26-.01 16.59 8.33 16.59 8.33z" style="clip-path:url(#SVGID_00000139972890917962768970000003940749077086268830_);fill:url(#SVGID_00000143613872102718902760000013149005566433225366_)"/><linearGradient id="SVGID_00000023982879791866059670000005552913060343408035_" x1="304.187" x2="186.485" y1="747.668" y2="747.668" gradientUnits="userSpaceOnUse"><stop offset="0" style="stop-color:#89302b"/><stop offset=".974" style="stop-color:#591d1a"/></linearGradient><path d="M304.11 674.57s.62 22.75-1.63 40.36-2.66 73.28-9.91 82.19c-7.26 8.91-20.85 25.68-20.85 25.68s-11.01 3.67-12.66 0c-1.65-3.67-72.57-16.14-72.57-16.14S293.5 670.9 296.74 670.9s7.37 3.67 7.37 3.67z" style="clip-path:url(#SVGID_00000139972890917962768970000003940749077086268830_);fill:url(#SVGID_00000023982879791866059670000005552913060343408035_)"/></g><linearGradient id="SVGID_00000073690728921233707260000007798606685402236067_" x1="647.545" x2="411.777" y1="598.26" y2="734.381" gradientUnits="userSpaceOnUse"><stop offset=".012" style="stop-color:#3f2c26"/><stop offset="1" style="stop-color:#010000"/></linearGradient><path d="M454.56 592.89s37.06-39.31 42.67-28.56c5.63 10.75 38.23 19.05 59.47-1.86 21.19-20.92 41.58-41.69 46.14-33.18 4.57 8.51 41.6 63.6 41.6 63.6s-10.91 80.77-20.47 102.28c-9.57 21.51-67.19 1.79-68.86 19.72-1.67 17.92-12.28 69.9-12.28 69.9h-31.71l33.02-84.24-43.45 17.92s-2.53 69.9-7.78 66.32c-5.25-3.58-51.95.13-51.95.13l34.85-84.37-23.16-98.58" style="clip-path:url(#SVGID_00000052820484489366233870000014385726453115585201_);fill:url(#SVGID_00000073690728921233707260000007798606685402236067_)"/><path d="m556.7 562.46-1.77 59.27s46.83-8.56 48.49-16.74c1.66-8.18 11.46-56.56 11.46-56.56l-58.18 14.03zm7.88-50.51-1.7 40.32s29.73-5.83 30.86-11.39 7.85-38.47 7.85-38.47l-37.01 9.54z" style="clip-path:url(#SVGID_00000052820484489366233870000014385726453115585201_);fill:#392f27"/><defs><path id="SVGID_00000107561509391942108290000016916620608361214652_" d="M193.75 809.24h429.8l128.87-648.32H340.04z"/></defs><clipPath id="SVGID_00000021821235750895038200000007164477310448639909_"><use xlink:href="#SVGID_00000107561509391942108290000016916620608361214652_" style="overflow:visible"/></clipPath><g style="clip-path:url(#SVGID_00000021821235750895038200000007164477310448639909_)"><defs><path id="SVGID_00000034775445415043533100000002502453920852573090_" d="M236.06 621.73s29.83-8.55 50.96-29.86c21.08-21.31 41.43-56.84 41.43-56.84s-11 56.84 7.46 65.36c18.48 8.53 52.98-78.15 52.98-78.15s4.48 44.05 21.05 46.89c16.57 2.84 49.21-10.5 54.75-3.83 5.56 6.67-3.76 72.03.22 83.4 3.98 11.37-.16 52.57-15.28 72.47-15.15 19.89-15.68 56.84-34.35 56.84-18.68 0-33.51-34.1-60.93-24.16-27.45 9.95-69.13 34.1-88.45 35.52-19.32 1.42-67.67 0-67.67 0l37.83-167.64z"/></defs><clipPath id="SVGID_00000111900512126378710310000010553682911781468037_"><use xlink:href="#SVGID_00000034775445415043533100000002502453920852573090_" style="overflow:visible"/></clipPath></g></svg>