<svg xmlns="http://www.w3.org/2000/svg" xmlns:xlink="http://www.w3.org/1999/xlink" xml:space="preserve" id="Layer_1" x="0" y="0" style="enable-background:new 0 0 1000 1000" version="1.1" viewBox="0 0 1000 1000"><style>.st1{fill:#684d40}.st4{fill:#ad7b6c}.st6{fill:#442923}.st252{fill:#73623f}.st253{fill:#b09f83}.st254{fill:#89624c}.st256{fill:#2c3635}</style><defs><path id="SVGID_00000024722135644783381560000013317684388790505874_" d="m342.95 1181.96 112.34 29.1-24 96.28-126.85 29.1 38.51-154.48zm238.74 4.98 58.91-119.59H486.14l-.72 119.59h96.27zm106.44 149.49 38.51-154.47-126.85 29.1-24 96.28 112.34 29.09zm-143.19 114.61.72-119.59h-96.28l-58.91 119.59h154.47z"/></defs><clipPath id="SVGID_00000159468715493284467360000009811651359856688523_"><use xlink:href="#SVGID_00000024722135644783381560000013317684388790505874_" style="overflow:visible"/></clipPath><path d="M519.98 1053.43c.5 5.94 135.48 357.19 135.48 357.19l34.55-30.95-158.06-395.32-11.97 69.08z" style="clip-path:url(#SVGID_00000159468715493284467360000009811651359856688523_);fill:#ffe9cc"/><path d="M714.38 110.07h1.99c3.81 0 7.63-.13 11.42.1" style="fill:#150a07"/><path d="M694.48 887.76H95.79L273.11 65.99H859.7z" style="fill:#5b423b"/><path d="m755.57 140.15-4.18 20.77-130.34 648.32H179.46l144.36-669.09z" class="st1"/><path d="M751.39 160.92 621.05 809.24H200.63l139.88-648.32z" style="fill:#684d40;stroke:#000;stroke-miterlimit:10"/><path d="M904.21 129.4 749.77 934.01H130.11l-34.32-46.25h598.69L859.69 65.99z" class="st1"/><path d="M904.21 129.4 749.77 934.01l-55.29-46.25L859.69 65.99z" style="fill:#49352e"/><path d="M859.7 65.99C808.86 334.8 752.03 619.85 697.81 888.42l-.55 2.73c-76.02-.18-226.11-.51-302.12-.94-96.88-.68-202.77-1.21-299.34-2.46 96.45-1.07 202.49-1.95 299.34-2.46 74.65-.47 224.73-.76 299.35-.93l-3.33 2.72 20.56-102.74c47.09-233.77 98.39-485.75 147.98-718.35z" class="st4"/><path d="M95.79 887.76c41.91-205.58 85.59-412 129.64-617.05 11.33-52.54 33.48-155.6 44.95-208.11 74.48.2 221.55.52 296.02.95 41.06.3 105.92.57 146.65 1 48.88.46 97.76.79 146.65 1.44-48.88.65-97.76.98-146.65 1.44-40.61.43-105.48.73-146.65 1-73.14.48-220.18.76-293.29.95l3.31-2.67c-10.93 51.29-33.21 154.22-44.29 205.45-44.42 204.94-89.75 411.05-136.34 615.6z" style="fill:#663e37"/><path d="M179.46 809.24c32.95-164.48 69.63-338.33 104.9-502.54 9.28-43 27.38-126.92 36.76-169.91 55.17.21 163.42.58 218.58 1.02 71.96.57 143.92 1.25 215.88 2.35-71.96 1.1-143.92 1.78-215.88 2.35-53.85.47-162.05.8-215.88 1.01l3.28-2.65c-15.94 74.56-37.95 176.42-54.15 250.91-29.77 135.94-62.16 282.1-93.49 417.46z" class="st4"/><path d="M751.39 160.92c-29.52 159.35-62.56 327.8-94.38 486.92-8.39 41.73-24.73 123.05-33.22 164.77-53.78-.2-159.18-.58-212.95-1.01-70.07-.57-140.14-1.25-210.21-2.36 70.07-1.11 140.14-1.79 210.21-2.36 52.43-.47 157.8-.8 210.21-1l-3.29 2.69c14.37-72.24 34.25-170.94 48.9-243.12 26.91-131.74 56.24-273.36 84.73-404.53z" class="st6"/><defs><path id="SVGID_00000178165167238570432590000018412769128588788117_" d="M751.39 160.92 621.05 816.9H200.63l139.88-655.98z"/></defs><clipPath id="SVGID_00000057109445825417495450000005982970591036534172_"><use xlink:href="#SVGID_00000178165167238570432590000018412769128588788117_" style="overflow:visible"/></clipPath><g style="clip-path:url(#SVGID_00000057109445825417495450000005982970591036534172_)"><path d="M271.69 807.79h-80.88L335.7 151.81h79.54z" class="st252"/><path d="M342.69 160.92h64.55l-14.3 65.29h-64.65zM216.04 734.91h65.51l-14.3 65.29h-65.61zM326.61 233.8h64.67L283.54 725.79h-65.49z" class="st253"/><path d="m355.36 250.1 17.88 23.18-28.06 23.17-17.88-23.17zm-16.62 75.61 17.93 23.18-28.12 23.17-17.92-23.17zm-16.62 75.62 17.97 23.17-28.16 23.18-17.97-23.18zm-16.62 75.61 18.01 23.18-28.2 23.17-18.01-23.17zm-16.62 75.62 18.06 23.17-28.25 23.17-18.06-23.17zm-16.62 75.61 18.1 23.17-28.29 23.18-18.1-23.18z" class="st254"/><path d="M630.74 807.79h-80.89l138.93-655.98h79.54z" class="st252"/><path d="M695.86 160.92h64.55l-13.71 65.29h-64.65zM574.43 734.91h65.5l-13.7 65.29h-65.61zM680.44 233.8h64.67L641.84 725.79h-65.48z" class="st253"/><path d="m709.34 250.1 18.09 23.18-27.85 23.17-18.1-23.17zm-15.93 75.61 18.13 23.18-27.9 23.17-18.13-23.17zm-15.94 75.62 18.18 23.17-27.94 23.18-18.18-23.18zm-15.93 75.61 18.23 23.18-28 23.17-18.22-23.17zm-15.93 75.62 18.27 23.17-28.04 23.17-18.27-23.17zm-15.94 75.61 18.32 23.17-28.08 23.18-18.32-23.18z" class="st254"/><path d="M549.85 807.79H271.69l143.55-655.98h273.54z" style="fill:#4d4943"/><path d="M616.97 247.39c-10.16 47.68-56.78 86.34-104.13 86.34s-77.32-38.66-66.95-86.34 56.99-86.34 104.13-86.34c47.14 0 77.12 38.66 66.95 86.34z" class="st256"/><path d="M471.87 752.84c-5.8 27.11-32.6 49.09-59.84 49.09s-44.57-21.98-38.7-49.09c5.87-27.11 32.66-49.09 59.84-49.09s44.51 21.98 38.7 49.09z" style="fill:#425654"/><path d="M555.29 694.18H315.51l75.39-345.29h237.68z" class="st256"/><path d="M546.46 680.89H328.4l69.94-320.71h216.29z" style="fill:#030100"/><path d="m490.55 468.72-1.49-27.6 32.41-8.83 8.76-40.85h30.74l-8.26 38.64 13.58 18.77s-22.23 61.72-22.34 60.27c-.12-1.46-53.4-40.4-53.4-40.4z" style="fill:#b9b399"/><path d="M353.81 670.73s35.02-72.86 35.98-77.27c.96-4.42 6.51-118.05 6.51-118.05l29.19-46.43h17.99l6.69-30.91h38.02L470.2 435.6l-1.23 98.8-45.1 136.33s-24.11 14.35-22.11 0 47.66-108.18 48.85-113.7c1.19-5.52-22.84-29.81-22.84-29.81l-16.96 78.38-50.23 71.51-6.77-6.38z" style="fill:#713a1d"/><path d="M485.73 456.57c2.65-3.31 78.44 2.21 78.44 2.21l-15.53 109.29-19.34 7.66-3.01 97.21-36.24-34.22-42.11 38.39 31.03-128.91 6.76-91.63z" style="fill:#4b1514"/><path d="m542.08 513.26-60.42 16.45-6.29-87.14 60.31-16.44z" style="fill:#423831"/><path d="m313.42 703.75-5.61 25.65 60.51 72.54 12.24-14.02zm241.26 0-5.44 25.65-91.74 72.54-6.21-14.02z" style="fill:#837267"/></g><path d="M749.77 934.01c-154.7 4.18-310.01 4.47-464.74 3.51-50.67-.35-104.33-1.04-154.91-2.08l-.75-.02-.4-.56-16.64-23.51c-5.55-7.83-11.01-15.73-16.53-23.59 5.93 7.55 11.91 15.07 17.79 22.65l17.68 22.74-1.15-.58c50.56-1.03 104.26-1.72 154.91-2.08 154.73-.95 310.04-.66 464.74 3.52z" class="st6"/></svg>