<svg xmlns="http://www.w3.org/2000/svg" xmlns:xlink="http://www.w3.org/1999/xlink" xml:space="preserve" id="Layer_1" x="0" y="0" style="enable-background:new 0 0 1000 1000" version="1.1" viewBox="0 0 1000 1000"><style>.st1{fill:#684d40}.st4{fill:#ad7b6c}.st6{fill:#442923}</style><path d="M694.48 887.76H95.79L273.11 65.99H859.7z" style="fill:#5b423b"/><path d="m755.57 140.15-4.18 20.77-130.34 648.32H179.46l144.36-669.09z" class="st1"/><path d="M751.39 160.92 621.05 809.24H200.63l139.88-648.32z" style="fill:#684d40;stroke:#000;stroke-miterlimit:10"/><path d="M904.21 129.4 749.77 934.01H130.11l-34.32-46.25h598.69L859.69 65.99z" class="st1"/><path d="M904.21 129.4 749.77 934.01l-55.29-46.25L859.69 65.99z" style="fill:#49352e"/><path d="M859.7 65.99C808.86 334.8 752.03 619.85 697.81 888.42l-.55 2.73c-76.02-.18-226.11-.51-302.12-.94-96.88-.68-202.77-1.21-299.34-2.46 96.45-1.07 202.49-1.95 299.34-2.46 74.65-.47 224.73-.76 299.34-.93l-3.33 2.72 20.56-102.74c47.1-233.77 98.4-485.75 147.99-718.35z" class="st4"/><path d="M95.79 887.76c41.91-205.58 85.59-412 129.64-617.05 11.33-52.54 33.48-155.6 44.95-208.11 74.48.2 221.55.52 296.02.95 41.06.3 105.92.57 146.65 1 48.88.46 97.76.79 146.65 1.44-48.88.65-97.76.98-146.65 1.44-40.61.43-105.48.73-146.65 1-73.14.48-220.18.76-293.29.95l3.31-2.67c-10.93 51.29-33.21 154.22-44.29 205.45-44.42 204.94-89.75 411.05-136.34 615.6z" style="fill:#663e37"/><path d="M751.39 160.92c-29.52 159.35-62.56 327.8-94.38 486.92-8.39 41.73-24.73 123.05-33.22 164.77-53.78-.2-159.18-.58-212.95-1.01-70.07-.57-140.14-1.25-210.21-2.36 70.07-1.11 140.14-1.79 210.21-2.36 52.43-.47 157.8-.8 210.21-1l-3.29 2.69c14.37-72.24 34.25-170.94 48.9-243.12 26.91-131.74 56.24-273.36 84.73-404.53z" class="st6"/><defs><path id="SVGID_1_" d="m614.82 810-410.19-5.57 125.55-646.68 419.35 3.19z"/></defs><clipPath id="SVGID_00000048474484942108493960000003634244149123331236_"><use xlink:href="#SVGID_1_" style="overflow:visible"/></clipPath><defs><path id="SVGID_00000036951819872219814850000016937189821539495086_" d="m614.82 810-410.19-5.57 125.55-646.68 419.35 3.19z"/></defs><clipPath id="SVGID_00000158027319043988401240000009192825427876057760_"><use xlink:href="#SVGID_00000036951819872219814850000016937189821539495086_" style="overflow:visible"/></clipPath><linearGradient id="SVGID_00000088096516555014445720000001370228335874960525_" x1="487.276" x2="487.276" y1="140.148" y2="818.681" gradientUnits="userSpaceOnUse"><stop offset=".012" style="stop-color:#362116"/><stop offset=".795" style="stop-color:#5c391a"/></linearGradient><path d="m625.42 810.14-436.33 8.54 151.42-664.07 444.95-14.46z" style="clip-path:url(#SVGID_00000158027319043988401240000009192825427876057760_);fill:url(#SVGID_00000088096516555014445720000001370228335874960525_)"/><linearGradient id="SVGID_00000049925790503043484060000003024555095050008492_" x1="316.421" x2="316.421" y1="283.549" y2="419.065" gradientUnits="userSpaceOnUse"><stop offset="0" style="stop-color:#49352a"/><stop offset="1" style="stop-color:#7a685b"/></linearGradient><path d="m314.97 283.68-28.1 135.39 31.38-.27 27.72-135.25z" style="clip-path:url(#SVGID_00000158027319043988401240000009192825427876057760_);fill:url(#SVGID_00000049925790503043484060000003024555095050008492_)"/><linearGradient id="SVGID_00000159452550973020441920000015760491600720546477_" x1="440.583" x2="440.583" y1="283.014" y2="418.025" gradientUnits="userSpaceOnUse"><stop offset="0" style="stop-color:#49352a"/><stop offset="1" style="stop-color:#7a685b"/></linearGradient><path d="m438.37 283.15-26.61 134.88 31.41-.27 26.24-134.75z" style="clip-path:url(#SVGID_00000158027319043988401240000009192825427876057760_);fill:url(#SVGID_00000159452550973020441920000015760491600720546477_)"/><linearGradient id="SVGID_00000113328292813902508770000012695965273957537675_" x1="379.802" x2="379.802" y1="289.328" y2="418.735" gradientUnits="userSpaceOnUse"><stop offset="0" style="stop-color:#49352a"/><stop offset="1" style="stop-color:#7a685b"/></linearGradient><path d="m407.6 418.06-81.04.67 26.36-129.04 80.12-.36z" style="clip-path:url(#SVGID_00000158027319043988401240000009192825427876057760_);fill:url(#SVGID_00000113328292813902508770000012695965273957537675_)"/><path d="m478.02 282.98-26.13 134.71-8.72.07 26.24-134.75zm-125.1 6.71-25.96 129.04-8.71.07 27.72-135.25z" style="clip-path:url(#SVGID_00000158027319043988401240000009192825427876057760_);fill:#250802"/><path d="m426.01 277.73 38.81-45.31 19.1 45.07zm-114.53.48 1.96-8.68 28.52-36.76 18.6 45.23z" style="clip-path:url(#SVGID_00000158027319043988401240000009192825427876057760_);fill:#755340"/><radialGradient id="SVGID_00000022532124673347957120000015809044730849722241_" cx="718.191" cy="342.344" r="297.069" gradientUnits="userSpaceOnUse"><stop offset="0" style="stop-color:#c0a881"/><stop offset=".569" style="stop-color:#5c391a"/></radialGradient><path d="M539.28 318.43s-18.72-65.09 13.36-70.92c32.04-5.82 88.92-41.34 88.92-41.34s-4.03 28.52 25.08 38.69c29.17 10.15 54.16 16.88 54.16 16.88s-15.12 86.93-15.67 90.12c-.55 3.19-35.68.23-35.68.23l-130.17-33.66z" style="clip-path:url(#SVGID_00000158027319043988401240000009192825427876057760_);fill:url(#SVGID_00000022532124673347957120000015809044730849722241_)"/><g style="clip-path:url(#SVGID_00000158027319043988401240000009192825427876057760_)"><path d="M460.62 397.85s38 .85 61.47-.48c23.47-1.32 53.6 5.29 67.15 7.46 13.55 2.17 25.6-.2 25.6-.2l52.74-28.86 8.96-37.6s40.17-58.21-64.53-32.68l-105.15 25.69-32.92-2.1-13.32 68.77z" style="fill:#170b05"/></g><g style="clip-path:url(#SVGID_00000158027319043988401240000009192825427876057760_)"><path d="M728.84 460.62S634.1 529.83 579 534.05c-55.14 4.23-165.31 45.78-210.91 105.27-45.94 59.61-119.74 164.28-119.74 164.28l300.91 8.04 162.49-250.67 17.09-100.35z" style="fill:#1f1413"/></g><g style="clip-path:url(#SVGID_00000158027319043988401240000009192825427876057760_)"><path d="m348.57 716.69 12.51 39.82s46.75 44.01 45.9 44.03c-.86.02 84.26-1.62 84.26-1.62S380 745.78 423.1 716.44c6.2-4.22-74.53.25-74.53.25z" style="fill:#b7aeb7"/></g><g style="clip-path:url(#SVGID_00000158027319043988401240000009192825427876057760_)"><path d="m561.83 745.44 1.06 6.18c.23 1.34.72 2.59 1.46 3.68 3.85 5.71 16.37 24.28 16.08 24.28 11-.21 19.06-12.71 13-20.26-7.73-9.65-12.76-20.91-4.25-28.94 1.23-1.16-5.4-1.24-12.73-1-8.55.3-15.93 8.4-14.62 16.06z" style="fill:#fffeff"/></g><path d="m229.62 628.25 64.14-22.59 28.61 35.21-55.89 30.49-32.27 37.16-21.42.36z" style="clip-path:url(#SVGID_00000158027319043988401240000009192825427876057760_);fill:#aa9faa"/><path d="m490.05 579.23 16.96 17.07-14.56 20.91-20.06-11.66-21.1-.95-2.09-7.78z" style="clip-path:url(#SVGID_00000158027319043988401240000009192825427876057760_);fill:#fffeff"/><path d="m371.02 624.49-101.71 76.48-7.05 59.21 88.31-53.58 45.35-23.35zm252 11.08-38.93 2.74-5.32 19.97 33.07 2.24 16.87 2.71zM366.34 464.12l-34.92 27.99-2.72 21.82 30.14-19.54 15.51-8.51z" style="clip-path:url(#SVGID_00000158027319043988401240000009192825427876057760_);fill:#a8573f"/><g style="clip-path:url(#SVGID_00000158027319043988401240000009192825427876057760_)"><path d="m197.01 752.82 29.23 36.12-3.12 15.13-18.49.36z" style="fill:#ada79d"/></g><path d="m483.98 679.79-24.13 12.89-18.45-42.04 24.08-12.87zm85.78 38.03-24.1 12.88-18.89-41.89 24.06-12.86zm-72.66 17.83-15.39 22-42.33-21.16 25.96-16.74z" style="clip-path:url(#SVGID_00000158027319043988401240000009192825427876057760_);fill:#540201"/><defs><path id="SVGID_00000149340108716420389940000013472364099061243009_" d="m614.82 810-410.19-5.57 125.55-646.68 419.35 3.19z"/></defs><clipPath id="SVGID_00000183932380497286212670000016275389945504240023_"><use xlink:href="#SVGID_00000149340108716420389940000013472364099061243009_" style="overflow:visible"/></clipPath><path d="M753.12 160.92 622.79 816.9H200.63l140.6-659.39z" style="fill:none"/><path d="M750.98 934.01c-154.7 4.18-310.01 4.47-464.74 3.51-50.67-.35-104.33-1.04-154.91-2.08l-.75-.02-.4-.56-16.64-23.51c-5.55-7.83-11.01-15.73-16.53-23.59 5.93 7.55 11.91 15.07 17.79 22.65l17.68 22.74-1.15-.58c50.56-1.03 104.26-1.72 154.91-2.08 154.73-.95 310.04-.66 464.74 3.52z" class="st6"/><path d="M181.78 811.94c32.95-164.48 69.63-338.33 104.9-502.54 9.28-43 27.38-126.92 36.76-169.91 55.17.21 163.42.58 218.58 1.02 71.96.57 143.92 1.25 215.88 2.35-71.96 1.1-143.92 1.78-215.88 2.35-53.85.47-162.05.8-215.88 1.01l3.28-2.65c-15.94 74.56-37.94 176.42-54.15 250.91-29.76 135.94-62.15 282.1-93.49 417.46z" class="st4"/></svg>