<svg xmlns="http://www.w3.org/2000/svg" xmlns:xlink="http://www.w3.org/1999/xlink" xml:space="preserve" id="Layer_1" x="0" y="0" style="enable-background:new 0 0 1000 1000" version="1.1" viewBox="0 0 1000 1000"><style>.st1{fill:#684d40}.st4{fill:#ad7b6c}.st6{fill:#442923}</style><path d="M694.48 887.76H95.79L273.11 65.99H859.7z" style="fill:#5b423b"/><path d="m755.57 140.15-4.18 20.77-130.34 648.32H179.46l144.36-669.09z" class="st1"/><path d="M751.39 160.92 621.05 809.24H200.63l139.88-648.32z" style="fill:#684d40;stroke:#000;stroke-miterlimit:10"/><path d="M904.21 129.4 749.77 934.01H130.11l-34.32-46.25h598.69L859.69 65.99z" class="st1"/><path d="M904.21 129.4 749.77 934.01l-55.29-46.25L859.69 65.99z" style="fill:#49352e"/><path d="M859.7 65.99C808.86 334.8 752.03 619.85 697.81 888.42l-.55 2.73c-76.02-.18-226.11-.51-302.12-.94-96.88-.68-202.77-1.21-299.34-2.46 96.45-1.07 202.49-1.95 299.34-2.46 74.65-.47 224.73-.76 299.35-.93l-3.33 2.72 20.56-102.74c47.09-233.77 98.39-485.75 147.98-718.35z" class="st4"/><path d="M95.79 887.76c41.91-205.58 85.59-412 129.64-617.05 11.33-52.54 33.48-155.6 44.95-208.11 74.48.2 221.55.52 296.02.95 41.06.3 105.92.57 146.65 1 48.88.46 97.76.79 146.65 1.44-48.88.65-97.76.98-146.65 1.44-40.61.43-105.48.73-146.65 1-73.14.48-220.18.76-293.29.95l3.31-2.67c-10.93 51.29-33.21 154.22-44.29 205.45-44.42 204.94-89.75 411.05-136.34 615.6z" style="fill:#663e37"/><path d="M747.32 933.31c-154.71 3.66-310.01 3.91-464.74 3.07-50.67-.31-104.33-.91-154.91-1.82l-.68-.01-.35-.52-15.47-23.1-15.37-23.17 16.5 22.38 16.4 22.45-1.03-.54c50.56-.9 104.26-1.51 154.91-1.82 154.73-.83 310.04-.57 464.74 3.08z" class="st6"/><path d="M179.46 809.24c32.95-164.48 69.63-338.33 104.9-502.54 9.28-43 27.38-126.92 36.76-169.91 55.17.21 163.42.58 218.58 1.02 71.96.57 143.92 1.25 215.88 2.35-71.96 1.1-143.91 1.78-215.88 2.35-53.85.47-162.05.8-215.88 1.01l3.28-2.65c-15.94 74.56-37.94 176.42-54.15 250.91-29.77 135.94-62.16 282.1-93.49 417.46z" class="st4"/><path d="M751.39 160.92c-29.52 159.35-62.56 327.8-94.38 486.92-8.39 41.73-24.73 123.05-33.22 164.77-53.78-.2-159.18-.58-212.95-1.01-70.07-.57-140.14-1.25-210.21-2.36 70.07-1.11 140.14-1.79 210.21-2.36 52.43-.47 157.8-.8 210.21-1l-3.29 2.69c14.37-72.24 34.25-170.94 48.9-243.12 26.91-131.74 56.24-273.36 84.73-404.53z" class="st6"/><defs><path id="SVGID_00000169558267409182796530000015016651123134242967_" d="M753.12 160.92 622.79 809.24H202.36l139.88-648.32z"/></defs><clipPath id="SVGID_00000176018737663876974370000003262584759839973811_"><use xlink:href="#SVGID_00000169558267409182796530000015016651123134242967_" style="overflow:visible"/></clipPath><g style="clip-path:url(#SVGID_00000176018737663876974370000003262584759839973811_)"><linearGradient id="SVGID_00000146480013976697057390000001844889299802565514_" x1="514.322" x2="514.322" y1="151.35" y2="545.588" gradientUnits="userSpaceOnUse"><stop offset="0" style="stop-color:#bf2500"/><stop offset="1" style="stop-color:#d1c76a"/></linearGradient><path d="M707.64 545.59H243.16l71.31-394.24h471.01z" style="fill:url(#SVGID_00000146480013976697057390000001844889299802565514_)"/><linearGradient id="SVGID_00000042732341113704300240000002650569077257359509_" x1="506.617" x2="506.617" y1="252.099" y2="545.588" gradientUnits="userSpaceOnUse"><stop offset="0" style="stop-color:#a62718"/><stop offset=".932" style="stop-color:#6b2529"/></linearGradient><path d="m411.05 318.5 27.76 39.42-38.06 58.1 62.6 8.3s-47.39 118.27-38.1 120.35c9.29 2.07 125.8 0 125.8 0l-34.46-114.12 81.78-10.95-35.7-47.15 101.51-101.67H578.2l-55.18 64.32-6.98-35.27-30.85-2.07s5.85 41.5-1.95 41.5-26.63-87.15-26.63-87.15H349.05l62 66.39z" style="fill:url(#SVGID_00000042732341113704300240000002650569077257359509_)"/><linearGradient id="SVGID_00000102535919998785435940000015518437295766061451_" x1="478.404" x2="478.404" y1="348.469" y2="646.684" gradientUnits="userSpaceOnUse"><stop offset="0" style="stop-color:#243729"/><stop offset=".932" style="stop-color:#2c3234"/></linearGradient><path d="m230.5 615.56 34.92-193.01h27.21l-4.16 22.86h25.25l2.66-14.52h27.2l-16.2 88.17h17.44l24.08-67.42 1.1 67.42h13.56l-4.43 23.88h147.09l9.12-47.73h25.2l5.58-29.05 14.38-4.15 25.13-49.79.1 49.79 20.37 5.1-5.45 28.1-3.63 18.68h17.44l31.38-91.34h21.38l14.51-74.08h21.44l-14.56 74.08h23.32l-44.25 224.13h-462.8z" style="fill:url(#SVGID_00000102535919998785435940000015518437295766061451_)"/><linearGradient id="SVGID_00000167383320936677922370000015707846263842049409_" x1="459.978" x2="459.978" y1="545.202" y2="681.639" gradientUnits="userSpaceOnUse"><stop offset="0" style="stop-color:#745336"/><stop offset=".011" style="stop-color:#725236"/><stop offset=".246" style="stop-color:#50392f"/><stop offset=".439" style="stop-color:#3b2a2b"/><stop offset=".565" style="stop-color:#332529"/></linearGradient><path d="M237.45 577.17s73.6-31.23 99.67-31.95c31.2-.85 57.48 30.41 110.07 31.95 51.84 1.52 69.41-19.12 123.37-16.74 41.49 1.83 130.84 16.74 130.84 16.74l-20.63 104.47H218.55l18.9-104.47z" style="fill:url(#SVGID_00000167383320936677922370000015707846263842049409_)"/><linearGradient id="SVGID_00000146472785371290613230000000259868384823396775_" x1="438.018" x2="438.018" y1="818.805" y2="673.947" gradientUnits="userSpaceOnUse"><stop offset="0" style="stop-color:#4e361e"/><stop offset=".932" style="stop-color:#3b2c30"/></linearGradient><path d="M653.69 818.8H193.74l26.2-144.85h462.35z" style="fill:url(#SVGID_00000146472785371290613230000000259868384823396775_)"/><linearGradient id="SVGID_00000106141877006858933000000002773787396111039402_" x1="311.704" x2="311.704" y1="786.551" y2="717.107" gradientTransform="matrix(.9999 .00407 .00407 .8869 .893 -24.843)" gradientUnits="userSpaceOnUse"><stop offset="0" style="stop-color:#745336"/><stop offset=".02" style="stop-color:#725236"/><stop offset=".434" style="stop-color:#50392f"/><stop offset=".776" style="stop-color:#3b2a2b"/><stop offset="1" style="stop-color:#332529"/></linearGradient><path d="M329.29 612.51s-7.75 21.4-9.51 31.63c-1.76 10.24-2.2 29.91-2.2 29.91l-15.66-.07s8.31-13.24 12.77-25.83c4.46-12.59 4.16-35.68 4.16-35.68l10.44.04z" style="fill:url(#SVGID_00000106141877006858933000000002773787396111039402_)"/><linearGradient id="SVGID_00000149365050928150095000000008683568365829491350_" x1="-334.279" x2="-334.279" y1="761.327" y2="692.441" gradientTransform="matrix(.5784 -.0224 .1451 .8722 502.193 2.405)" gradientUnits="userSpaceOnUse"><stop offset="0" style="stop-color:#745336"/><stop offset=".02" style="stop-color:#725236"/><stop offset=".434" style="stop-color:#50392f"/><stop offset=".776" style="stop-color:#3b2a2b"/><stop offset="1" style="stop-color:#332529"/></linearGradient><path d="M420.06 613.43s-2.97 21.15-3.25 31.22c-.29 10.07.88 29.32.88 29.32l-9.14.38s3.89-13.19 5.58-25.64c1.69-12.45-.16-35.03-.16-35.03l6.09-.25z" style="fill:url(#SVGID_00000149365050928150095000000008683568365829491350_)"/><linearGradient id="SVGID_00000007396189955812653830000008167561936688038329_" x1="-157.406" x2="-157.406" y1="765.859" y2="696.984" gradientTransform="matrix(.5784 -.0224 .1451 .8722 502.193 2.405)" gradientUnits="userSpaceOnUse"><stop offset="0" style="stop-color:#745336"/><stop offset=".02" style="stop-color:#725236"/><stop offset=".434" style="stop-color:#50392f"/><stop offset=".776" style="stop-color:#3b2a2b"/><stop offset="1" style="stop-color:#332529"/></linearGradient><path d="M523.13 613.43s-3.04 21.15-3.37 31.22c-.32 10.07.77 29.32.77 29.32l-9.14.38s3.94-13.19 5.68-25.64c1.74-12.45-.03-35.03-.03-35.03l6.09-.25z" style="fill:url(#SVGID_00000007396189955812653830000008167561936688038329_)"/><linearGradient id="SVGID_00000089535180641245925110000006573459239593474452_" x1="19.467" x2="19.467" y1="770.392" y2="701.526" gradientTransform="matrix(.5784 -.0224 .1451 .8722 502.193 2.405)" gradientUnits="userSpaceOnUse"><stop offset="0" style="stop-color:#745336"/><stop offset=".02" style="stop-color:#725236"/><stop offset=".434" style="stop-color:#50392f"/><stop offset=".776" style="stop-color:#3b2a2b"/><stop offset="1" style="stop-color:#332529"/></linearGradient><path d="M626.21 613.43s-3.12 21.15-3.48 31.22c-.36 10.07.66 29.32.66 29.32l-9.14.38s3.99-13.19 5.77-25.64c1.78-12.45.09-35.03.09-35.03l6.1-.25z" style="fill:url(#SVGID_00000089535180641245925110000006573459239593474452_)"/><linearGradient id="SVGID_00000127746899684635439240000012510724639844224936_" x1="217.407" x2="217.407" y1="711.44" y2="643.047" gradientTransform="matrix(.9964 -.0829 .0812 .8832 20.589 63.105)" gradientUnits="userSpaceOnUse"><stop offset="0" style="stop-color:#745336"/><stop offset=".02" style="stop-color:#725236"/><stop offset=".434" style="stop-color:#50392f"/><stop offset=".776" style="stop-color:#3b2a2b"/><stop offset="1" style="stop-color:#332529"/></linearGradient><path d="M303.44 611.88s-6.04 21.67-6.95 31.86c-.92 10.19-6.26 30.06-6.26 30.06l-9.31.82s7.3-13.74 10.76-26.49c3.45-12.75 1.18-35.32 1.18-35.32l10.58-.93z" style="fill:url(#SVGID_00000127746899684635439240000012510724639844224936_)"/><linearGradient id="SVGID_00000153677511276863805130000014379300608614810773_" x1="268.109" x2="268.109" y1="786.766" y2="717.322" gradientTransform="matrix(.9999 .00407 .00407 .8869 .893 -24.843)" gradientUnits="userSpaceOnUse"><stop offset="0" style="stop-color:#745336"/><stop offset=".02" style="stop-color:#725236"/><stop offset=".434" style="stop-color:#50392f"/><stop offset=".776" style="stop-color:#3b2a2b"/><stop offset="1" style="stop-color:#332529"/></linearGradient><path d="M282.39 612.51s-7.71 21.4-9.46 31.63c-1.74 10.24-2.15 29.91-2.15 29.91l-9.12-.04s1.75-13.27 6.19-25.86 4.1-35.68 4.1-35.68l10.44.04z" style="fill:url(#SVGID_00000153677511276863805130000014379300608614810773_)"/><linearGradient id="SVGID_00000155145211326649636720000002974414886853765310_" x1="-143.504" x2="-143.504" y1="857.607" y2="787.052" gradientTransform="matrix(.5694 .0474 .0408 .8832 507.419 -75.885)" gradientUnits="userSpaceOnUse"><stop offset="0" style="stop-color:#745336"/><stop offset=".02" style="stop-color:#725236"/><stop offset=".434" style="stop-color:#50392f"/><stop offset=".776" style="stop-color:#3b2a2b"/><stop offset="1" style="stop-color:#332529"/></linearGradient><path d="M466.47 613.22s-5.3 21.13-6.75 31.32c-1.45 10.2-2.57 29.93-2.57 29.93l-5.11-.47s1.59-13.24 4.66-25.68c3.07-12.44 3.93-35.64 3.93-35.64l5.84.54z" style="fill:url(#SVGID_00000155145211326649636720000002974414886853765310_)"/><linearGradient id="SVGID_00000110457071476358065870000005658481924714678164_" x1="241.408" x2="241.408" y1="786.873" y2="717.429" gradientTransform="matrix(.9999 .00407 .00407 .8869 .893 -24.843)" gradientUnits="userSpaceOnUse"><stop offset="0" style="stop-color:#745336"/><stop offset=".02" style="stop-color:#725236"/><stop offset=".434" style="stop-color:#50392f"/><stop offset=".776" style="stop-color:#3b2a2b"/><stop offset="1" style="stop-color:#332529"/></linearGradient><path d="M258.93 612.51s-7.7 21.4-9.43 31.63c-1.73 10.24-2.12 29.91-2.12 29.91l-15.66-.07s8.28-13.24 12.71-25.83c4.43-12.59 4.07-35.68 4.07-35.68l10.43.04z" style="fill:url(#SVGID_00000110457071476358065870000005658481924714678164_)"/><linearGradient id="SVGID_00000060017495453552821370000004670099056877547198_" x1="-101.043" x2="-101.043" y1="868.263" y2="797.458" gradientTransform="matrix(.526 .0518 .0445 .8829 621.308 -87.362)" gradientUnits="userSpaceOnUse"><stop offset="0" style="stop-color:#745336"/><stop offset=".02" style="stop-color:#725236"/><stop offset=".434" style="stop-color:#50392f"/><stop offset=".776" style="stop-color:#3b2a2b"/><stop offset="1" style="stop-color:#332529"/></linearGradient><path d="M613.96 612.51s-5.15 21.1-6.62 31.29c-1.46 10.19-2.76 29.93-2.76 29.93l-8.08-.87s5.01-12.88 7.99-25.3c2.98-12.42 4.08-35.64 4.08-35.64l5.39.59z" style="fill:url(#SVGID_00000060017495453552821370000004670099056877547198_)"/><linearGradient id="SVGID_00000174559588151785255060000008952939776186159255_" x1="-.229" x2="-.229" y1="862.353" y2="791.534" gradientTransform="matrix(.526 .0518 .0445 .8829 621.308 -87.362)" gradientUnits="userSpaceOnUse"><stop offset="0" style="stop-color:#745336"/><stop offset=".02" style="stop-color:#725236"/><stop offset=".434" style="stop-color:#50392f"/><stop offset=".776" style="stop-color:#3b2a2b"/><stop offset="1" style="stop-color:#332529"/></linearGradient><path d="M666.78 612.51s-5.19 21.1-6.68 31.29c-1.48 10.19-2.81 29.93-2.81 29.93l-8.07-.87s5.03-12.88 8.04-25.3c3.01-12.42 4.14-35.64 4.14-35.64l5.38.59z" style="fill:url(#SVGID_00000174559588151785255060000008952939776186159255_)"/><linearGradient id="SVGID_00000035493443271744429920000004401815311727611016_" x1="469.717" x2="469.717" y1="398.844" y2="229.343" gradientUnits="userSpaceOnUse"><stop offset="0" style="stop-color:#701209"/><stop offset=".932" style="stop-color:#6b2529"/></linearGradient><path d="m438.37 229.34 31.03 169.5h31.66l-62.69-169.5" style="fill:url(#SVGID_00000035493443271744429920000004401815311727611016_)"/><linearGradient id="SVGID_00000165212702800083512650000015078103946290088627_" x1="620.085" x2="620.085" y1="791.357" y2="704.504" gradientUnits="userSpaceOnUse"><stop offset="0" style="stop-color:#8c8a8d"/><stop offset=".229" style="stop-color:#89878b"/><stop offset=".415" style="stop-color:#7f7d83"/><stop offset=".585" style="stop-color:#6e6d76"/><stop offset=".747" style="stop-color:#565663"/><stop offset=".901" style="stop-color:#37394c"/><stop offset="1" style="stop-color:#1f2239"/></linearGradient><path d="M577.88 715.67c19.11-2.02 24.68-12.11 32.04-11.1 7.36 1.01 65.24 5.51 65.24 5.51l-14.65 74.2-6.82-7.06 5.75-43.39-34.24 12.54-15.56-1.98 5.86 24.76-15.03 22.2h-7.48l16.74-23.21-15.45-21.77s-3.99-12.54-9.61-12.54h-19.65l12.86-18.16z" style="fill:url(#SVGID_00000165212702800083512650000015078103946290088627_)"/><linearGradient id="SVGID_00000028327231018730550940000016697213872078595750_" x1="532.817" x2="511.612" y1="807.936" y2="766.318" gradientUnits="userSpaceOnUse"><stop offset="0" style="stop-color:#885059"/><stop offset=".232" style="stop-color:#854f58"/><stop offset=".421" style="stop-color:#7b4a55"/><stop offset=".595" style="stop-color:#6a4350"/><stop offset=".759" style="stop-color:#523848"/><stop offset=".915" style="stop-color:#332b3f"/><stop offset="1" style="stop-color:#1f2239"/></linearGradient><path d="m465.29 791.36 28.31-15.86 50.65-17.67 28.31 12.15-26.49 15.46-12.43 22.09h-19.9l1.22-6.33h12.76s15.5-16.86 7.65-18.52c-7.85-1.66-39.21 18.52-39.21 18.52l3.55-18.52-34.42 8.68z" style="fill:url(#SVGID_00000028327231018730550940000016697213872078595750_)"/><linearGradient id="SVGID_00000056426854512975402910000005930725464301842597_" x1="336.213" x2="336.213" y1="807.519" y2="757.337" gradientUnits="userSpaceOnUse"><stop offset="0" style="stop-color:#885059"/><stop offset=".232" style="stop-color:#854f58"/><stop offset=".421" style="stop-color:#7b4a55"/><stop offset=".595" style="stop-color:#6a4350"/><stop offset=".759" style="stop-color:#523848"/><stop offset=".915" style="stop-color:#332b3f"/><stop offset="1" style="stop-color:#1f2239"/></linearGradient><path d="m302.5 757.83 13.75 24.85 17.73 8.68-3 16.16 38.95-24.85-13.57-9.39-22.83-1.1s7.01-13.25 2.66-14.36c-4.34-1.1-33.69.01-33.69.01z" style="fill:url(#SVGID_00000056426854512975402910000005930725464301842597_)"/><linearGradient id="SVGID_00000070097456902083539820000013885616852574195095_" x1="350.324" x2="350.324" y1="702.393" y2="663.966" gradientUnits="userSpaceOnUse"><stop offset="0" style="stop-color:#885059"/><stop offset=".232" style="stop-color:#854f58"/><stop offset=".421" style="stop-color:#7b4a55"/><stop offset=".595" style="stop-color:#6a4350"/><stop offset=".759" style="stop-color:#523848"/><stop offset=".915" style="stop-color:#332b3f"/><stop offset="1" style="stop-color:#1f2239"/></linearGradient><path d="m357.64 663.97-19.04 23.19-2.82 15.23h27.08l2.01-10.82-10.8-8.39 8.31-19.21z" style="fill:url(#SVGID_00000070097456902083539820000013885616852574195095_)"/><linearGradient id="SVGID_00000048464437754958852940000008153497165326804117_" x1="356.12" x2="334.658" y1="732.998" y2="692.635" gradientUnits="userSpaceOnUse"><stop offset="0" style="stop-color:#8c8a8d"/><stop offset=".229" style="stop-color:#89878b"/><stop offset=".415" style="stop-color:#7f7d83"/><stop offset=".585" style="stop-color:#6e6d76"/><stop offset=".747" style="stop-color:#565663"/><stop offset=".901" style="stop-color:#37394c"/><stop offset="1" style="stop-color:#1f2239"/></linearGradient><path d="m298.92 711.64 52.31-13.12 39.38 13.12-20.36 13.85-11.08-5.78-6.99-7.71z" style="fill:url(#SVGID_00000048464437754958852940000008153497165326804117_)"/><linearGradient id="SVGID_00000171698300268740842520000004801076756720799617_" x1="258.655" x2="221.929" y1="769.527" y2="697.448" gradientUnits="userSpaceOnUse"><stop offset="0" style="stop-color:#885059"/><stop offset=".232" style="stop-color:#854f58"/><stop offset=".421" style="stop-color:#7b4a55"/><stop offset=".595" style="stop-color:#6a4350"/><stop offset=".759" style="stop-color:#523848"/><stop offset=".915" style="stop-color:#332b3f"/><stop offset="1" style="stop-color:#1f2239"/></linearGradient><path d="m223.92 716.97 11.36-18.45h12.1s.86-16 2.79-15.34c1.93.66 28.05 6.18 28.05 6.18l-22.67 13.03 19.89 2.11-22.26 67.81-26.29-8.97-22.08 19.09 19.11-65.46z" style="fill:url(#SVGID_00000171698300268740842520000004801076756720799617_)"/><linearGradient id="SVGID_00000047741117454579264520000003848421117490588350_" x1="267.5" x2="267.5" y1="801.189" y2="725.486" gradientUnits="userSpaceOnUse"><stop offset="0" style="stop-color:#8c8a8d"/><stop offset=".229" style="stop-color:#89878b"/><stop offset=".415" style="stop-color:#7f7d83"/><stop offset=".585" style="stop-color:#6e6d76"/><stop offset=".747" style="stop-color:#565663"/><stop offset=".901" style="stop-color:#37394c"/><stop offset="1" style="stop-color:#1f2239"/></linearGradient><path d="m251.34 725.49-29.16 45.17 26.53 30.53h64.11l-52.62-13.43-14.43-31.75 12.95-9.63z" style="fill:url(#SVGID_00000047741117454579264520000003848421117490588350_)"/><radialGradient id="SVGID_00000171684564784061472120000018181914380100200344_" cx="499.373" cy="485.077" r="323.44" gradientTransform="matrix(.9458 0 0 1 17.288 0)" gradientUnits="userSpaceOnUse"><stop offset="0" style="stop-color:#885059;stop-opacity:0"/><stop offset=".232" style="stop-color:#854f58;stop-opacity:.093"/><stop offset=".421" style="stop-color:#7b4a55;stop-opacity:.1685"/><stop offset=".595" style="stop-color:#6a4350;stop-opacity:.2378"/><stop offset=".759" style="stop-color:#523848;stop-opacity:.3035"/><stop offset=".915" style="stop-color:#332b3f;stop-opacity:.366"/><stop offset="1" style="stop-color:#1f2239;stop-opacity:.4"/></radialGradient><path d="M653.69 818.8H193.74l120.73-667.45h471.01z" style="fill:url(#SVGID_00000171684564784061472120000018181914380100200344_)"/></g></svg>