<svg xmlns="http://www.w3.org/2000/svg" xml:space="preserve" id="Layer_1" x="0" y="0" style="enable-background:new 0 0 2000 2000" version="1.1" viewBox="0 0 2000 2000">
  <style>
    .st2{opacity:.75}.st7{fill:#352c2c}.st8{fill:#3f3434}.st9{fill:#282020}
  </style>
  <linearGradient id="SVGID_1_" x1="716.333" x2="1018.556" y1="837.586" y2="837.586" gradientUnits="userSpaceOnUse">
    <stop offset="0" style="stop-color:#ca4840;stop-opacity:0"/>
    <stop offset="1" style="stop-color:#8e0f1b"/>
  </linearGradient>
  <path d="m720.8 1000 177.9-17.2 118.1-105.4 1.8-149.5-212.2-52.7-90.1 219.4z" style="fill:url(#SVGID_1_)"/>
  <linearGradient id="SVGID_2_" x1="736.124" x2="928.412" y1="632.641" y2="965.695" gradientUnits="userSpaceOnUse">
    <stop offset=".006" style="stop-color:#ee2d38"/>
    <stop offset=".226" style="stop-color:#ea2c37"/>
    <stop offset=".402" style="stop-color:#e12c37"/>
    <stop offset=".562" style="stop-color:#d52c38"/>
    <stop offset=".713" style="stop-color:#c32b36"/>
    <stop offset=".857" style="stop-color:#ac2733"/>
    <stop offset=".995" style="stop-color:#91212d"/>
    <stop offset="1" style="stop-color:#90202d"/>
  </linearGradient>
  <path d="m720.8 1000-80.5-205.3 42.3-131.1 123.8 11.6 78.2-57.9 134 110.6-1.8 149.5-118.1 105.4z" style="opacity:.75;fill:url(#SVGID_2_)"/>
  <g class="st2">
    <linearGradient id="SVGID_3_" x1="748.162" x2="862.865" y1="620.518" y2="819.189" gradientUnits="userSpaceOnUse">
      <stop offset=".006" style="stop-color:#ee2d38;stop-opacity:.8"/>
      <stop offset=".316" style="stop-color:#ee2e39;stop-opacity:.6305"/>
      <stop offset=".564" style="stop-color:#ee333f;stop-opacity:.4954"/>
      <stop offset=".789" style="stop-color:#ef3948;stop-opacity:.3725"/>
      <stop offset="1" style="stop-color:#ef4254;stop-opacity:.2576"/>
    </linearGradient>
    <path d="m640.3 794.7 4.8-16.6 4.8-16.5 9.8-33 10-33 10.1-32.9.6-2.1 2.3.2c10.3.8 20.7 1.7 31 2.6l31 2.7 61.9 5.6-2.4.7 19.6-14.4 19.6-14.4 19.6-14.4 19.7-14.3 2-1.5 1.9 1.6 16.6 14 16.6 14c11.1 9.4 22.1 18.7 33.1 28.1l16.5 14.1 16.4 14.2c11 9.5 21.9 19 32.7 28.6-11.5-8.8-22.9-17.7-34.3-26.7l-17.1-13.5-17-13.5c-11.3-9-22.6-18.1-33.9-27.2l-16.9-13.6-16.9-13.7 3.9.1-19.3 14.5-19.5 14.6-19.5 14.5-19.6 14.5-1.1.8-1.3-.1-61.9-6-30.9-3.1c-10.3-1-20.6-2.1-30.9-3.2l2.9-1.9-11 32.7-11.1 32.6-11.3 32.5-5.7 16.3-5.8 16.1z" style="fill:url(#SVGID_3_)"/>
  </g>
  <linearGradient id="SVGID_4_" x1="674.977" x2="848.295" y1="711.755" y2="1011.951" gradientUnits="userSpaceOnUse">
    <stop offset="0" style="stop-color:#fbd3dd;stop-opacity:.8"/>
    <stop offset=".587" style="stop-color:#fbd3dd;stop-opacity:.1"/>
  </linearGradient>
  <path d="m700.6 697-11.4 84.4s76.7 214.3 82.6 213.7 126.9-12.2 126.9-12.2L766.4 758.7l-29-36.5-36.8-25.2z" style="fill:url(#SVGID_4_)"/>
  <linearGradient id="SVGID_5_" x1="846.321" x2="973.493" y1="666.938" y2="887.207" gradientTransform="rotate(-27.19 908.273 735.718)" gradientUnits="userSpaceOnUse">
    <stop offset="0" style="stop-color:#fbd3dd;stop-opacity:.8"/>
    <stop offset=".587" style="stop-color:#fbd3dd;stop-opacity:.1"/>
  </linearGradient>
  <path d="m830.5 689.4 14.7 41.3s166.2 145.1 168.8 143.4 4-92.4 4-92.4l-142.8-79.6-21.9-9.9-22.8-2.8z" style="fill:url(#SVGID_5_)"/>
  <linearGradient id="SVGID_6_" x1="741.749" x2="895.118" y1="719.637" y2="985.281" gradientUnits="userSpaceOnUse">
    <stop offset="0" style="stop-color:#fbd3dd;stop-opacity:.8"/>
    <stop offset=".587" style="stop-color:#fbd3dd;stop-opacity:.1"/>
  </linearGradient>
  <path d="M898.7 982.8c-11.6-18.4-23-36.8-34.3-55.3l-16.9-27.8-16.7-27.9-16.6-28-16.5-28c-11-18.7-21.8-37.5-32.6-56.3l.1.2-7.1-9.3c-2.4-3.1-4.7-6.2-7-9.3l-7-9.4c-2.3-3.1-4.6-6.3-6.9-9.4 2.6 2.9 5.1 5.9 7.6 8.9l7.6 8.9c2.5 3 5 5.9 7.5 8.9l7.5 9v.1l.1.1c11.3 18.5 22.4 37.1 33.5 55.8l16.6 28 16.5 28 16.4 28.1 16.2 28.2c10.9 18.6 21.5 37.5 32 56.5z" style="fill:url(#SVGID_6_)"/>
  <path d="m1167.8 949.7-36.2 186.9-46.8 35.8-60.8 22.9-140.8-38.9 15.5-173.6 118.1-105.4 1.8-143.7v-5.8z" class="st7"/>
  <path d="m1167.8 949.7-83.7 67.9-67.3-140.2 3.5-143.4-1.7-6.1z" class="st8"/>
  <path d="m978.1 1108.2-94.9 48.2-95.5-53.5L749 997.3l166.6-20.5z" class="st9"/>
  <path d="M1018.6 727.9c.5 12.5.9 24.9 1.2 37.4.3 12.5.6 24.9.8 37.4l.3 18.7.2 18.7c.1 12.5.2 24.9.2 37.4v1.9l-1.5 1.3-29.2 26.7c-9.8 8.8-19.6 17.7-29.4 26.5-9.8 8.8-19.7 17.6-29.5 26.3-9.9 8.7-19.8 17.5-29.7 26.1l-1.2 1-1.4.1-22.3 1.9c-7.4.6-14.8 1.3-22.3 1.8l-22.3 1.7-11.1.9-11.2.8-22.3 1.6-22.3 1.4c-14.9.9-29.8 1.8-44.7 2.4 14.8-2.2 29.5-4.2 44.3-6.1l22.2-2.9 22.2-2.7 11.1-1.4 11.1-1.3 22.2-2.6c7.4-.9 14.8-1.7 22.2-2.5l22.2-2.4-2.6 1.2c9.7-8.9 19.5-17.7 29.3-26.6 9.8-8.8 19.6-17.6 29.5-26.4 9.8-8.8 19.7-17.5 29.6-26.2l29.8-26-1.5 3.2c.2-12.5.7-24.9 1.1-37.4l.6-18.7.7-18.7c.4-12.5 1.1-24.9 1.6-37.4.6-12.2 1.2-24.7 2.1-37.1z" class="st2" style="fill:#ef4254"/>
  <path d="m1084.8 1172.4-60.8 22.9-143.2-39.5 97.3-47.6z" style="fill:#231c1c"/>
  <path d="m886.2 1043.9-98.5 59-91.2-107.8-7.3-99.3 35 26.8 32.8 23.3 127.5 96.7z" class="st9"/>
  <path d="m1028.2 946.3-28.2 62.2-38.5 5.6-14.9 2.2 11.7 50.3-42.3-67.2v-.1l-35.2-116.8-6.5-55 70 36.4z" class="st7"/>
  <path d="m1167.8 950.9-118.6-49.4-9.8-66.7-1-2.4-38.4-89.3-44.4-58.8-1.1-1.5 63.4 24.3 94.8 102.7z" class="st8"/>
  <path d="m1042.2 789.4-3.8 43-38.4-89.3-44.4-58.8 44.4 28.3z" class="st7"/>
  <path d="m982.8 1036.2-36.2-19.9-30.6-16.9v-.1l-35.2-116.8-6.5-55 34 74.2 34.9 93.4 18.3 19z" class="st9"/>
  <path d="m884.5 1042.6-54 5.1-121.1-96.8-20.2-55.1 35 26.8 32.8 23.3z" class="st7"/>
  <path d="M955.6 684.3c7.7 9.6 15.4 19.2 23 28.8 7.6 9.6 15.2 19.2 22.8 28.9l.1.1.1.2 9.9 21.9 9.8 22 .2.5v.6l-.5 45.1-.6 45.1v1.3l-.9 1-13.8 15.3-13.8 15.3-2.7 3-3-2.9-44.9-43.5 1 .7-70-36.3 6.5-4.5 3.2 27.5 3.2 27.5-.2-.8 13.7 45.9 13.5 45.9.7 2.5-1.9 1.7-9.7 8.6-1 .9-1.2.1-20.7 1.8-20.7 1.8-41.3 3.5-1.2.1-.9-.7L783 969c-10.5-8.1-20.9-16.2-31.3-24.3-10.4-8.1-20.9-16.2-31.3-24.4-10.4-8.1-20.8-16.4-31.1-24.6 10.8 7.6 21.6 15.2 32.3 22.9 10.8 7.7 21.5 15.4 32.2 23.1 10.7 7.7 21.5 15.4 32.1 23.2l32.1 23.3-2.1-.6 41.2-4.4 20.6-2.2 20.6-2.1-2.2 1 9.6-8.7-1.2 4.1-14.1-45.8-13.9-45.8-.1-.4v-.4l-3.3-27.5-3.2-27.5-1-8.4 7.5 3.9 69.9 36.5.6.3.4.4 44.4 44.1-5.7.2 14-15.1 14.1-15.1-1 2.4 1.6-45 1.7-45 .2 1.1-9.2-22.3-9.1-22.3.2.4c-7.2-9.9-14.4-19.9-21.6-29.8-7.1-9.9-14.2-19.9-21.3-29.9z" style="fill:#ef3b39"/>
</svg>
