<svg xmlns="http://www.w3.org/2000/svg" xml:space="preserve" id="Layer_1" x="0" y="0" style="enable-background:new 0 0 2000 2000" version="1.1" viewBox="0 0 2000 2000">
  <style>
    .st2{opacity:.75}.st7{fill:#352c2c}.st8{fill:#3f3434}.st9{fill:#282020}
  </style>
  <linearGradient id="SVGID_1_" x1="391.49" x2="1378.359" y1="2607.802" y2="2607.802" gradientTransform="matrix(1 0 0 -1 0 3400)" gradientUnits="userSpaceOnUse">
    <stop offset="0" style="stop-color:#ca4840;stop-opacity:0"/>
    <stop offset="1" style="stop-color:#8e0f1b"/>
  </linearGradient>
  <path d="m406.3 1322.3 580.7-56 385.6-344 5.8-488.1-692.6-172.1-294.3 716.2z" style="fill:url(#SVGID_1_)"/>
  <linearGradient id="SVGID_2_" x1="456.396" x2="1084.02" y1="3276.818" y2="2189.741" gradientTransform="matrix(1 0 0 -1 0 3400)" gradientUnits="userSpaceOnUse">
    <stop offset=".006" style="stop-color:#ee2d38"/>
    <stop offset=".226" style="stop-color:#ea2c37"/>
    <stop offset=".402" style="stop-color:#e12c37"/>
    <stop offset=".562" style="stop-color:#d52c38"/>
    <stop offset=".713" style="stop-color:#c32b36"/>
    <stop offset=".857" style="stop-color:#ac2733"/>
    <stop offset=".995" style="stop-color:#91212d"/>
    <stop offset="1" style="stop-color:#90202d"/>
  </linearGradient>
  <path d="M406.3 1322.3 143.4 652.1l138-427.9 404.4 37.9L941 73.1l437.4 361.1-5.8 488.1-385.6 344z" style="opacity:.75;fill:url(#SVGID_2_);enable-background:new"/>
  <g class="st2">
    <linearGradient id="SVGID_3_" x1="495.099" x2="869.559" y1="3316.166" y2="2667.584" gradientTransform="matrix(1 0 0 -1 0 3400)" gradientUnits="userSpaceOnUse">
      <stop offset=".006" style="stop-color:#ee2d38;stop-opacity:.8"/>
      <stop offset=".316" style="stop-color:#ee2e39;stop-opacity:.6305"/>
      <stop offset=".564" style="stop-color:#ee333f;stop-opacity:.4954"/>
      <stop offset=".789" style="stop-color:#ef3948;stop-opacity:.3725"/>
      <stop offset="1" style="stop-color:#ef4254;stop-opacity:.2576"/>
    </linearGradient>
    <path d="M143.4 652.1 159 598l15.6-53.8 32-107.8 32.5-107.8L272 221.2l2-6.8 7.5.7c33.6 2.7 67.6 5.6 101.1 8.4l101.1 8.8 202.1 18.3-7.9 2.3 64-47 64-47 64-47 64.3-46.7 6.5-4.9 6.1 5.2 54.2 45.8 54.2 45.8c36.3 30.7 72.2 61 108.1 91.6l53.8 46 53.5 46.4c35.9 31.1 71.5 62 106.7 93.4-37.5-28.7-74.8-57.8-111.9-87.1l-55.9-44-55.5-44c-36.8-29.5-73.8-59.1-110.6-88.8l-55.2-44.4-54.6-45.1 12.8.4-63.1 47.4-63.6 47.8-63.6 47.4-64 47.4-3.6 2.7-4.3-.4-201.8-19.7-101-10.1c-33.6-3.3-67.2-6.8-101-10.5l9.5-6.1L254 334.1l-36.3 106.5L181 546.2l-18.5 53.4-19.1 52.5z" style="fill:url(#SVGID_3_)"/>
  </g>
  <linearGradient id="SVGID_4_" x1="256.546" x2="822.42" y1="3018.485" y2="2038.362" gradientTransform="matrix(1 0 0 -1 0 3400)" gradientUnits="userSpaceOnUse">
    <stop offset="0" style="stop-color:#fbd3dd;stop-opacity:.8"/>
    <stop offset=".587" style="stop-color:#fbd3dd;stop-opacity:.1"/>
  </linearGradient>
  <path d="M340.3 333.2 303 608.6s250.4 699.7 269.7 697.7c19.2-2 414.3-39.8 414.3-39.8L555 534.7l-94.7-119.1-120-82.4z" style="fill:url(#SVGID_4_)"/>
  <linearGradient id="SVGID_5_" x1="2047.334" x2="2462.462" y1="3503.178" y2="2784.155" gradientTransform="scale(1 -1) rotate(27.188 9363.639 -1135.663)" gradientUnits="userSpaceOnUse">
    <stop offset="0" style="stop-color:#fbd3dd;stop-opacity:.8"/>
    <stop offset=".587" style="stop-color:#fbd3dd;stop-opacity:.1"/>
  </linearGradient>
  <path d="m764.3 308.5 48 134.7s542.5 473.7 551.1 468.1 13.1-301.6 13.1-301.6L910.3 349.9l-71.5-32.3-74.5-9.1z" style="fill:url(#SVGID_5_)"/>
  <linearGradient id="SVGID_6_" x1="474.305" x2="974.993" y1="2992.285" y2="2125.068" gradientTransform="matrix(1 0 0 -1 0 3400)" gradientUnits="userSpaceOnUse">
    <stop offset="0" style="stop-color:#fbd3dd;stop-opacity:.8"/>
    <stop offset=".587" style="stop-color:#fbd3dd;stop-opacity:.1"/>
  </linearGradient>
  <path d="M987 1266.3c-37.9-60.2-75-120.1-111.9-180.5l-55.2-90.7-54.6-91.1-54.2-91.5-53.8-91.4c-35.9-61-71.1-122.5-106.5-183.8l.4.7-23.2-30.3c-7.9-10.1-15.3-20.1-22.8-30.3l-22.8-30.7c-7.5-10.1-15.1-20.5-22.5-30.7 8.4 9.5 16.7 19.2 24.8 29.1l24.8 29.1c8.3 9.9 16.3 19.2 24.5 29.1l24.5 29.5v.4l.4.4C595.7 594 632 654.7 668.3 715.7l54.2 91.5 53.8 91.5 53.5 91.6 53 92c35.3 60.2 69.9 122 104.2 184z" style="fill:url(#SVGID_6_)"/>
  <path d="m1865.5 1158.1-118.2 610.3-152.7 116.8-198.5 74.8-459.7-127 50.6-566.7 385.6-344 5.8-469.2v-18.9z" class="st7"/>
  <path d="m1865.5 1158.1-273.3 221.7-219.6-457.5L1384 454l-5.6-19.8z" class="st8"/>
  <path d="M1246.2 1675.7 936.4 1833l-311.7-174.7-126.5-344.7 544-66.9z" class="st9"/>
  <path d="M1378.4 434.2c1.6 40.8 2.9 81.4 3.9 122.2 1.1 40.8 2 81.4 2.7 122.2l1.1 61 .7 61c.4 40.8.7 81.4.7 122.2v6.1l-4.9 4.3-95.4 87.1c-32 28.7-64 57.8-96 86.6-32 28.8-64.3 57.5-96.3 85.9-32.3 28.4-64.7 57.1-97 85.2l-3.9 3.3-4.5.4-72.7 6.1c-24.1 2-48.3 4.3-72.7 5.9l-72.7 5.6-36.3 2.9-36.6 2.7-72.7 5.2-72.7 4.5c-48.7 2.9-97.2 5.9-145.9 7.9 48.3-7.2 96.3-13.7 144.6-20l72.6-9.5 72.6-8.8 36.3-4.5 36.3-4.3 72.6-8.4c24.1-2.9 48.3-5.6 72.6-8.3l72.6-7.9-8.4 3.9c31.7-29.1 63.6-57.8 95.6-86.8 32-28.7 64-57.5 96.3-86.2 32-28.7 64.3-57.1 96.6-85.5l97.2-84.8-4.9 10.5c.7-40.8 2.3-81.4 3.6-122.2l2-61 2.3-61c1.2-40.8 3.6-81.4 5.2-122.2.5-40.1 2.7-80.9 5.5-121.3z" class="st2" style="fill:#ef4254"/>
  <path d="m1594.6 1885.2-198.5 74.8-467.6-128.9 317.7-155.4z" style="fill:#231c1c"/>
  <path d="m946.2 1465.7-321.5 192.6-297.8-351.9L303 982.2l114.2 87.6 107.2 76 416.2 315.6z" class="st9"/>
  <path d="m1409.7 1147-92 203.2-125.7 18.3-48.7 7.2 38.3 164.2-138.2-219.5v-.4L928.5 938.8l-21.2-179.6 228.5 118.9z" class="st7"/>
  <path d="M1865.5 1162.1 1478.3 1001l-31.9-217.9-3.3-7.8-125.4-291.5-144.9-192-3.6-4.9 206.9 79.2 309.5 335.4z" class="st8"/>
  <path d="m1455.5 634.8-12.4 140.5-125.4-291.5-144.9-192 144.9 92.3z" class="st7"/>
  <path d="m1261.5 1440.6-118.2-64.9-99.9-55.3v-.4L928.5 938.8l-21.2-179.6 111 242.3 113.9 304.9 59.8 62.1z" class="st9"/>
  <path d="m940.6 1461.4-176.3 16.7-395.2-316L303 982.2l114.2 87.6 107.2 76z" class="st7"/>
  <path d="M1172.8 291.8c25.1 31.3 50.3 62.7 75 93.9 24.8 31.3 49.6 62.7 74.4 94.3l.4.4.4.7 32.3 71.5 32 71.9.7 1.6v2l-1.6 147.3-2 147.3v4.3l-2.9 3.3-45.1 49.9-45.1 49.9-8.8 9.9-9.9-9.5-146.7-141.9 3.3 2.3-228.5-118.6 21.2-14.7 10.5 89.8 10.5 89.8-.7-2.7 44.7 149.8 44 149.8 2.3 8.3-6.1 5.6-31.7 28-3.3 2.9-3.9.4-67.6 5.9-67.6 5.9-134.7 11.3-3.9.4-2.9-2.3-102.2-79c-34.3-26.4-68.2-53-102.2-79.4-34-26.4-68.2-53-102.2-79.8-34-26.4-67.9-53.5-101.5-80.3 35.2 24.8 70.4 49.6 105.5 74.8 35.2 25.1 70.2 50.3 105.1 75.4s70.2 50.3 104.8 75.8l104.8 76-6.8-2 134.5-14.4 67.2-7.2 67.2-6.8-7.2 3.3 31.3-28.4-3.9 13.3-46-149.5-45.4-149.5-.4-1.2v-1.2l-10.7-89.8-10.3-89.6-3.3-27.3 24.5 12.8 228.2 119.1 2 1.1 1.2 1.2 145 143.9-18.5.7 45.8-49.2 46-49.2-3.3 7.9 5.2-146.9 5.5-147.3.7 3.6-30-72.7-29.7-72.7.7 1.2c-23.5-32.3-47-65-70.4-97.2-23.6-32.9-46.8-65.6-69.9-98.2z" style="fill:#ef3b39"/>
</svg>
