<svg xmlns="http://www.w3.org/2000/svg" xml:space="preserve" id="Layer_2" x="0" y="0" style="enable-background:new 0 0 2000 2000" version="1.1" viewBox="0 0 2000 2000">
  <style>
    .st0{fill:#cda245;stroke:#917131;stroke-width:6.1774;stroke-miterlimit:10}.st1{fill:#e8bc66}.st2,.st3,.st4{fill:#ffd489}.st3,.st4{opacity:.39}.st4{fill:#c8913c}
  </style>
  <path d="m1202.7 1244.6-26.2-40.2-44.3-4 2 58.3h-16.1L1092 1146l8.1-22.1-34.2-50.3-76.5 4-64.4-26.2-42.3 58.4 21.1 42.3-49.3 28.2-30.2-46.3s-12.1-44.3-18.1-44.3c-6.1 0-34.2 4-34.2 4l-96.6 58.3-52.3 28.2-68.4 39.1-8.1 65.5L669.3 1470l132.8 68.4h218.7l189.9-195.2-8-98.6zm-452.9 5.1-54.3 109.7-17.1-90.6 71.4-112.7L790 1140l46.3 56.4-86.5 53.3zm161 45.2-52.3-32.2v-43.4h60.4l32.2 49.4-40.3 26.2zm136.9-44.2-18.1 64.4-22.1-42.3v-44.3h-42.3v-52.3l20.1-12.1h76.5l12 55.2-26.1 31.4z" class="st0"/>
  <path d="m1191.2 1255.8-.6-7.1-21.2-32.6-24.4-2.2 1.1 33 .8 24.1h-38.7l-7.7-33-19.4-83.4-2.2-9.4 7.2-19.6-26.7-39.4-72.3 3.8-58-23.5-32.2 44.4 4.8 9.7 18.2 36.3-59.5 34-8.6 4.9 2.9 3.6-95.6 58.9-23.1 46.8-35.3 71.2-10.7 21.6-4.6-24.6-15.3-80.7-5-26.3 64-101 12.1-19.2 52.4-20.9 48.2 58.7-29.2-44.7-.5-1.9c-3.4-12.6-8.4-27.6-11.6-34.7-6.1.6-15.7 1.9-24.5 3.2l-86 52-8.7 5.3L629 1191l-62.9 36-5.5 44.8-1.2 10.1 50.8 76.7 67.6 102 127.3 65.6h210.4l72-74 66.1-68 44.3-45.5-6.7-82.9zm-238.4-86.6 29.1-17.4h89.9l.2 1.1 15.2 69.7-9.2 11-19.2 23-25.8 91.8-38-72.5v-35h-42.3v-71.7zM846.2 1207h79.4l42.6 65.4-57.2 37.2-64.9-39.9V1207z" class="st1"/>
  <path d="M898.8 991.1v-54.4l-32.2-45.3-58.3 25.2 26.2-173.1-18.1-10.1-18.1-32.2-96.6-86.5h36.2l14.1-22.1-52.3-60.4L536.5 665l-90.6 209.3v219.4l68.4 157 20.1-8.1 12.1-72.4 36.2-22.1 14.1 22.1 32.2-10.1v-58.4l50.3-42.3 26.2 42.3 28.2-8 48.3-42.3 96.6 42.3 32.2-52.4-12-50.2zm-352.2-60.4 14.1 130.8-22.1 20.1-42.3-219.4 30.2-26.2 24.2-48.3 54.3-24.2-44.3 86.5-34.2 8.1-10.1 20.1 30.2 52.5zm42.2 108.6-12.1-98.6 36.2-10.1 20.1 96.6-44.2 12.1zM778 787.8l-36.2 18.1-20.1-28.2 20.1-38.2 36.2 14.1v34.2z" class="st0"/>
  <path d="M886.4 992.5v-51.9l-24.1-33.9-69.6 30.1 28.2-186.6-13.7-7.6-18.8-33.5-40.9-36.6-78.3-70.1h61.7l5.1-8 .4-.7-38.4-44.4-37.7 30.7-74.5 60.7-39.2 31.9-88.3 204.2v214.3l10 22.9 52.7 120.7 2.5-1 11.9-71.1 43.9-26.8 7.5-4.6 4.4 6.9 11.1 17.5 14.5-4.5v-55l28.5-23.9 37.2-31.2 26.8 43.3 1.9 3.1 5.8-1.6 10.7-3.1 52.1-45.6 93.9 41.1 23.9-38.8-11.2-46.9zm-312.8 73.9-43 39.2-11.1-57.4-36.7-190.6 33.7-29.2 25-50 90.3-40.2L569 860.9l-34.1 8-4.5 9 28.2 48.8 14.1 131.5.9 8.2zm4.7-11.4-15.1-123.3 59.1-16.5 25.2 120.9-69.2 18.9zm212-259.6-52.5 26.3-30.7-43L736 724l54.4 21.1v50.3z" class="st1"/>
  <path d="m1172.4 481.9-104.6-48.3-189.2-10.1-165 96.6 48.3 70.4 18.1-35.2 20.1 77.5v54.4l16.1 14.1 40.2-48.3-10 30.2 18.1 44.3 14.1 114.7v49.3l32.2 39.3 60.4-39.3 49.6-7 22.9-64.4-22.9-28.2 32.9-106.7-32.9-20.1 14.8-62.4 28.2 6.1v-52.4l-43-14.1V504h57.1l38.2 28.2-10.1 86.5 66.4-136.8zM926.9 677.1h-34.2v-28.2l18.1-28.2 32.2-8.1 22.1 36.2-38.2 28.3z" class="st0"/>
  <path d="m1155.8 487.8-91.1-42-183.1-9.7-150.4 88 29.1 42.4 23.4-45.6 22.6 86.8 6.1 23.5v50.3l2.3 2L847 645l21.2 11.8-8.6 25.9 5.2 12.8 11.8 28.8L891 841.4V887l22.4 27.3 53.4-34.7 44.9-6.4 18-50.8-22.6-27.9 20.7-67.1 11.3-36.7-32.4-19.8 5.7-24.1 13.9-58.7 25.1 5.4v-28.1l-43-14.1v-59.6h73.5l47.3 34.9-2.5 21.3 29.1-60.1zM981.6 652.1 931 689.5h-50.6v-44.2l13.5-21 9.2-14.3 45.7-11.4 25 40.9 7.8 12.6z" class="st1"/>
  <path d="M1516.6 777.7 1424 648.9l-84.5 66.4-80.5 74.5-38.2 78.5-10.1-18.1-20.1 20.1v34.2l-18.1 14.1-16.1-14.1-32.2 40.2V976l-10 47.2-30.2 46.3 26.2 50.3 38.2 6-16.1 74.5 44.3 4 12-48.3 43.3-12.1 39.3 26.2-6.1 49.2-54.3 13.2 21.1 114.7s77.5-68.4 83.5-68.4c6.1 0 177.1 8.1 177.1 8.1l82.5-217.4-58.4-291.8zm-334.1 303.9v-30.2l116.7-12.1-116.7 42.3zm132.8-150.9-22.1-8.1-8.1-46.3 44.3-20.1 12.1 47.3-26.2 27.2z" class="st0"/>
  <path d="m1513 822.6-8-39.8-35.5-49.4-48-66.8-59.1 46.5-14.9 11.7-58.3 53.9-20.1 18.6-47.6 97.7-13.6-24.6-4.9 4.9v35.1l-30.9 24-14.1-12.3-21.4 26.8v28.2l-10.8 50.7-27.5 42.2 20 38.4 45 7.1-11.3 52.3-4.6 21.3 19.9 1.8 4.8-19.3 6.4-25.8 55.7-15.5 50.3 33.6-3.5 28.4-4.5 36.8-51.3 12.4 4 21.4 11.1 60.4c28.8-25.2 46-39.3 56.5-47.2 13.3-9.9 16.1-9.9 18.8-9.9 5.6 0 131.1 5.9 168.7 7.7l15.3-40.2 62.8-165.4-49.4-245.7zm-175.3 16.3 17.5 68.3-36.5 37.9-36.4-13.3-10.9-62.7 66.3-30.2zm-167.5 260.3v-59L1298 1027l5.5 23.9-133.3 48.3z" class="st1"/>
  <path d="m1305.3 522.1-106.7-48.3-34.2 128.8-44.3 18.1-58.3 10v18.1l40.1 28.2-50.2 155-12.1 59.4h34.2l46.3 39.3 26.2-39.3-20.1-71.4 46.3 44.3 28.2-28.2-52.3-58.3 10.1-40.2 64.4-18.1h58.4l46.3-10.1 96.6-78.5-118.9-108.8zm-124.8 180.1-36.2-11.1-24.2-34.2 22.1-12.1h42.3l14.1 34.7-18.1 22.7z" class="st0"/>
  <path d="m1405.1 630.2-83.2 67.6-18.6 4.1h-.1l-23.4 5.1h-58.7l-73 20.5-5.6 22.4-7.8 31.2 48.9 54.5-11.3 11.4-70.3-67.2 30.8 109.5-15.3 23-39.1-33.2h-23.6l8.9-43.9 30.7-94.7 21.8-67.6 20.4 28.9 48.3 14.7 25.8-32.2 2.1-2.6-20-49.2h-53.7l-37.1 20.3 9 12.7 4.2 5.8-10-7-31.1-21.8v-1.3l49.5-8.5 51.2-21 32-120.6 91.6 41.5z" class="st1"/>
  <path d="m669.2 602.4 78.3 70.1-161.7-31.8 74.5-60.6h.1l75.6 14.3-5.1 8zM1006.7 670.9l32.4 19.8-11.4 36.7-162.9-31.9-5.2-12.8 8.6-25.9L847 645l-32.2 38.6-2.3-2v-50.4l-6.1-23.5 87.4 16.6-13.5 21v44.2H931l50.6-37.4-7.7-12.7 38.5 7.4zM1115.2 671.3l-10-7 5.8 1.2zM1303.2 701.9l-23.4 5.1h-58.7l-73 20.5-5.6 22.4-48.1-9.4 21.8-67.6 20.4 28.9 48.3 14.7 25.8-32.2zM1513 822.6l-223.8-43.9 58.3-53.9 14.9-11.7 107.1 20.3 35.5 49.4z" class="st2"/>
  <path d="m645.2 1072.1-28.5 23.9v47.2l-25.6-5.1-11.9-2.3-110.9-21.8-10-22.9v-54.5l61.2 11.6 11.1 57.4 43-39.2-.9-8.1zM711.1 1087.3l-1.9-3.1 7.8 1.4zM812.9 1139.1l29.2 44.7-48.2-58.7-52.4 20.9-12.1 19.2-39.2-7.7 86-52c8.8-1.3 18.5-2.5 24.5-3.2 3.3 7.2 8.2 22.2 11.6 34.7l.6 2.1zM1065.9 1151.8h-84l-29.1 17.4v39.8l-92.2-18 59.5-34-18.2-36.3zM1078 1233.6l9.2-11-15.2-69.7 9.3 1.8 19.3 83.3zM1167.1 1191.1l-19.9-1.8 4.6-21.3 20.1 3.8zM1190.6 1248.7l.6 7.1-45-8.8-1.2-33.1 24.4 2.2zM1499.4 1233.9l-15.3 40.2c-37.7-1.8-163.2-7.7-168.7-7.7-2.7 0-5.5 0-18.8 9.9L1229 1263l-4-21.4 51.3-12.4 4.5-36.8 218.6 41.5z" class="st3"/>
  <path d="m670.3 1292.6 15.3 80.7-75.4-14.8-50.8-76.6 1.2-10.1zM1153.6 1384.2l-66.1 67.9-386.6-75.8 35.3-71.2z" class="st4"/>
</svg>
