<svg xmlns="http://www.w3.org/2000/svg" xml:space="preserve" id="Layer_2_1_" x="0" y="0" style="enable-background:new 0 0 2000 2000" version="1.1" viewBox="0 0 2000 2000">
  <style>
    .st0{fill:#cda245;stroke:#917131;stroke-width:10.5329;stroke-miterlimit:10}.st1{fill:#e8bc66}.st2,.st3,.st4{fill:#ffd489}.st3,.st4{opacity:.39;enable-background:new}.st4{fill:#c8913c}
  </style>
  <path d="m1335.8 1443-44.7-68.6-75.5-6.8 3.5 99.4h-27.5l-44.5-192.2 13.7-37.8-58.3-85.8L972 1158l-109.8-44.7-72.2 99.5 36 72.2-84 48-51.5-79s-20.7-75.5-30.8-75.5c-10.4 0-58.3 6.8-58.3 6.8l-164.7 99.8-89.2 48-116.6 66.7-13.7 111.7 209.1 315.7 226.5 116.6h372.9l323.8-332.8-13.7-168zm-772.2 8.7-92.6 187-29.2-154.5L563.6 1292l68.6-27.5 79 96.2-147.6 91zm274.5 77.1-89.2-55v-74.1h103l55 84.2-68.8 44.9zm233.5-75.3-30.8 109.8-37.8-72.2v-75.5h-72.2v-89.2l34.3-20.7h130.5l20.4 94.2-44.4 53.6z" class="st0"/>
  <path d="m1316.1 1462.1-1-12.1-36.2-55.5-41.7-3.8 1.9 56.3 1.3 41.1h-66l-13.2-56.3-33.1-142.2-3.8-16.1 12.3-33.4-45.6-67.1-123.2 6.5-98.9-40.1-55 75.6 8.2 16.5 31.1 61.9-101.4 58-14.6 8.4 4.9 6.1-163 100.4-39.3 79.8-60.2 121.4-18.2 36.9-7.8-41.9-26-137.6-8.5-44.8 109.1-172.3 20.7-32.7 89.4-35.6 82.2 100.1-49.8-76.2-.9-3.2c-5.8-21.6-14.3-47-19.8-59.2-10.4 1-26.8 3.2-41.8 5.5L461.5 1295l-14.9 9-89.2 47.6-107.1 61.4-9.4 76.4-2 17.2 86.6 130.8 115.3 173.9L657.9 1923h358.7l122.8-126.1 112.7-116 75.5-77.5-11.5-141.3zm-406.4-147.6 49.6-29.7h153.3l.3 1.9 25.9 118.9-15.6 18.8-32.7 39.2-44 156.5-64.8-123.7v-59.6h-72.2v-122.2h.1v-.1zM727.9 1379h135.4l72.6 111.5-97.5 63.5-110.6-68v-107h.1z" class="st1"/>
  <path d="M817.6 1010.9v-92.7l-55-77.2-99.4 43 44.7-295.2-30.8-17.2-30.8-55-164.7-147.5h61.8l24-37.8-89.2-103-278.4 226.6L45.3 811.7v374l116.6 267.7 34.3-13.7 20.7-123.4 61.8-37.8 24 37.8 55-17.2v-99.5l85.8-72.2 44.7 72.2 48-13.6 82.3-72.2 164.7 72.2 55-89.4-20.6-85.7zm-600.4-103 24 223-37.8 34.3-72.2-374 51.5-44.7 41.2-82.3 92.6-41.2L241 770.5l-58.3 13.7-17.2 34.3 51.7 89.4zm71.9 185.1-20.7-168.1 61.8-17.2 34.3 164.6-75.4 20.7zm322.5-428.8L549.9 695l-34.3-48 34.3-65.1 61.8 24v58.3z" class="st0"/>
  <path d="M796.5 1013.2v-88.4l-41.1-57.9-118.6 51.3 48-318.2-23.4-13-32.1-57.1-69.6-62.3-133.5-119.5h105.2l8.7-13.6.7-1.2-65.5-75.6-64.3 52.4-127 103.5-66.8 54.1L66.6 815.9v365.4l17.1 39.1 89.8 205.8 4.2-1.7 20.2-121.2 74.9-45.7 12.7-7.8 7.5 11.7 18.9 29.8 24.7-7.7v-93.7l48.6-40.8 63.5-53.2 45.7 73.8 3.2 5.4 9.8-2.7 18.2-5.4 88.8-77.8 160.1 70.1 40.8-66.1-18.8-80zm-533.3 126.1-73.3 66.8-18.9-97.9-62.6-325 57.4-49.8 42.7-85.2 154-68.6-107 209.1-58.1 13.6-7.7 15.3 48 83.2 24 224.2 1.5 14.3zm7.9-19.5-25.7-210.3 100.8-28.2 43 206.1-118.1 32.4zm361.5-442.6L543.1 722l-52.4-73.3 49.3-93.3 92.7 36v85.8h-.1z" class="st1"/>
  <path d="m1284.2 142.6-178.3-82.3-322.6-17.2-281.5 164.7 82.3 120.1 30.8-60L649.2 400v92.7l27.5 24 68.6-82.3-17.1 51.6 30.8 75.5L783.2 757v84l55 67 103-67 84.6-12 39.1-109.8-39.1-48 56.1-182-56.1-34.3 25.2-106.5 48 10.4v-89.4l-73.3-24v-65.2h97.3l65.1 48-17.2 147.5 113.3-233.1zM865.6 475.4h-58.3v-48l30.8-48 55-13.7 37.8 61.8-65.3 47.9z" class="st0"/>
  <path d="m1255.8 152.7-155.3-71.6-312.1-16.5-256.4 150 49.6 72.3 39.9-77.8 38.5 148 10.4 40.1V483l3.9 3.5 55.1-65.7 36.2 20.1L751 485l8.8 21.8 20.1 49.2 24.6 199.6v77.8l38.2 46.6 91.1-59.2 76.5-10.8 30.7-86.6-38.5-47.6 35.3-114.4 19.2-62.6-55.3-33.7 9.7-41.1 23.7-100.1 42.8 9.3v-47.9l-73.3-24V159.5h125.3l80.7 59.4-4.3 36.2 49.5-102.4zM958.9 432.9l-86.3 63.8h-86.2v-75.4l23-35.9L825 361l78-19.4 42.7 69.7 13.2 21.6z" class="st1"/>
  <path d="m1871 646.9-158-219.5-144 113.2-137.3 127-65.1 133.8-17.2-30.8-34.3 34.3v58.3l-30.8 24-27.5-24-55 68.6v53.4l-17.1 80.4-51.5 79 44.7 85.8 65.1 10.3-27.5 127 75.5 6.8 20.4-82.3 73.8-20.7 67 44.7-10.4 83.9-92.6 22.6 36 195.6s132.2-116.6 142.3-116.6c10.4 0 302 13.7 302 13.7l140.7-370.7-99.2-497.8zm-569.6 518.3v-51.5l199-20.7-199 72.2zm226.4-257.3-37.8-13.7-13.7-79 75.5-34.3 20.7 80.7-44.7 46.3z" class="st0"/>
  <path d="m1864.9 723.6-13.6-67.8-60.5-84.2-81.8-113.8-100.8 79.2-25.5 20-99.4 91.8-34.3 31.7-81.1 166.6-23.1-41.9-8.4 8.4v59.9l-52.6 40.9-24-21-36.4 45.7V987l-18.4 86.5-46.9 71.9 34.1 65.5 76.7 12.1-19.2 89.2-7.8 36.3 34 3 8.2-33 10.8-44 95-26.5 85.8 57.3-5.9 48.5-7.7 62.8-87.5 21.1 6.8 36.4 18.9 103c49.2-43 78.4-67 96.3-80.4 22.7-16.9 27.5-16.9 32.1-16.9 9.5 0 223.5 10.1 287.7 13.2l26-68.6 107-282-84.5-418.8zm-299 27.8 29.8 116.4-62.2 64.7-62.1-22.7-18.4-106.9 112.9-51.5zm-285.5 443.7v-100.7l218-22.6 9.4 40.8-227.4 82.5z" class="st1"/>
  <path d="m1510.7 211.1-182-82.3-58.3 219.6-75.5 30.8-99.4 17.1v31l68.4 48-85.6 264.3-20.7 101.2h58.3l79 67 44.7-67-34.2-121.8 79 75.6 48-48-89.2-99.4 17.2-68.6 109.8-30.8h99.5l79-17.2 164.7-133.8-202.7-185.7zm-212.8 307.1-61.8-18.9-41.2-58.3 37.8-20.7h72.2l24 59.2-31 38.7z" class="st0"/>
  <path d="M1680.9 395.4 1539 510.7l-31.6 7.1h-.2l-39.9 8.7h-100.1l-124.5 34.8-9.6 38.3-13.3 53.1 83.5 93-19.3 19.4-119.9-114.5 52.5 186.7-26 39.2-66.7-56.6h-40.3l15.2-74.9 52.3-161.4 37.2-115.3 34.8 49.3 82.3 25.1 44-55 3.6-4.3-34.1-83.9h-91.6l-63.2 34.5 15.4 21.7 7.1 9.9-17-12-53.1-37.2v-2.2l84.4-14.4 87.3-35.9 54.6-205.5 156.2 70.7z" class="st1"/>
  <path d="m426.2 348.1 133.5 119.5L284 413.4l127-103.3h.1L540 334.4l-8.7 13.7zM1001.6 464.8l55.2 33.9-19.4 62.5-277.7-54.4-8.9-21.9 14.7-44.1-36.2-20.1-54.9 65.8-3.9-3.4v-85.9l-10.4-40.1L809 385.4l-23 35.8v75.5h86.5l86.4-63.8-13.2-21.7 65.7 12.6zM1186.6 465.6l-17-12 9.9 2.1zM1507.2 517.8l-39.9 8.7h-100.1l-124.5 34.8-9.6 38.3-82-16 37.2-115.3 34.8 49.3 82.3 25.1 44-55zM1864.9 723.6l-381.5-74.9 99.3-91.9 25.5-19.9 182.5 34.5 60.6 84.2z" class="st2"/>
  <path d="m385.3 1149-48.6 40.8v80.4l-43.7-8.7-20.3-3.9-189.2-37.2-16.9-39v-93l104.3 19.8 18.9 97.9 73.4-66.8-1.6-13.9zM497.6 1174.9l-3.3-5.4 13.3 2.5zM671.2 1263.3l49.8 76.2-82.2-100.1-89.4 35.6-20.7 32.7-66.8-13.2 146.7-88.7c15-2.2 31.5-4.2 41.8-5.5 5.6 12.3 14 37.9 19.8 59.2l1 3.8zM1102.5 1284.8H959.3l-49.6 29.7v67.9l-157.2-30.8 101.5-57.8-31.1-61.9zM1123.2 1424.4l15.6-18.8-25.9-118.9 15.9 3.2 32.9 142zM1275.1 1351.9l-33.9-3.2 7.8-36.3 34.3 6.5zM1315.1 1450.1l1 12-76.6-14.9-2-56.5 41.5 3.7zM1841.8 1424.8l-26 68.6c-64.2-3-278.3-13.2-287.7-13.2-4.6 0-9.4 0-32.1 16.9l-115.3-22.7-6.8-36.4 87.5-21.1 7.7-62.8 372.7 70.7z" class="st3"/>
  <path d="m428.1 1524.9 26 137.6-128.6-25.2-86.6-130.6 2.1-17.2zM1252.1 1681.1l-112.7 115.7-659.3-129.1 60.3-121.4z" class="st4"/>
</svg>
