<svg xmlns="http://www.w3.org/2000/svg" xml:space="preserve" id="Layer_1" x="0" y="0" style="enable-background:new 0 0 2000 2000" version="1.1" viewBox="0 0 2000 2000">
  <style>
    .st0{fill:#2599a5;stroke:#0e6b9a;stroke-width:9.0798;stroke-miterlimit:10}.st1{fill:#4bc4d5}.st2{fill:#f7d95c}.st3{fill:#fcf494}.st4{fill:#f3b75e}.st5{fill:#a57955}.st6{opacity:.39;fill:#323773;enable-background:new}.st7{fill:#12779f}.st8{fill:#8bd1cc}.st9{fill:#2599a5}.st10{fill:#0e6b9a}.st11{fill:#126c8c}.st12{fill:#f9e073}.st13{fill:#f8e9ab}.st14{fill:#e2c547}.st15{fill:#eed057}.st16{fill:#fff2bc}.st17{fill:#ddc043}.st18{fill:none;stroke:#ddc043;stroke-width:4.54;stroke-miterlimit:10}.st19{opacity:.64;fill:#d71f27;enable-background:new}.st20{fill:#84d0d0}
  </style>
  <path d="m623 1435.3-157.6-377.5L621 679.4l377.5-157.6 378.4 155.5 157.6 377.5-155.5 378.4-377.5 157.6L623 1435.3zm248.1-507.1-52.9 128.6 53.6 128.3 128.6 52.9 128.3-53.6 52.9-128.6-53.6-128.3-128.6-52.9-128.3 53.6z" class="st0"/>
  <path d="m643.7 1414.4-148.9-356.8L641.7 700l356.8-148.9L1356.1 698l148.9 356.8-147 357.6-356.8 148.9-357.5-146.9zm206.5-507.1-61.4 149.5L851 1206l149.5 61.4 149.2-62.3 61.4-149.5-62.3-149.2L999.4 845l-149.2 62.3z" class="st1"/>
  <path d="m1002.4 1986-658-270.4-274.2-656.8 270.6-658.2 656.7-274.2L1655.6 397l274.2 656.7-270.6 658.2-656.8 274.1zm-383.2-546.9 382.1 157.1 381.3-159.1 157.1-382.1-159.1-381.3-382.1-157.2-381.4 159L460 1057.7l159.2 381.4z" class="st0"/>
  <path d="m379 1680.7-259.6-622 256.1-623.4 622-259.6 623.4 256.1 259.6 622-256.1 623.4-622 259.6L379 1680.7zM582.2 640.9l-171.4 417 173.7 416 417 171.4 416-173.7 171.4-417-173.7-416-417-171.4-416 173.7z" class="st1"/>
  <path d="M472.5 1586.5 252 1058.2l217.7-529.4L998 308.3 1527.4 526l220.5 528.3-217.7 529.4-528.3 220.5-529.4-217.7zm15.7-1039.1-210 510.9L491 1567.9l510.9 210 509.7-212.8 210-510.9-212.8-509.7-510.9-210-509.7 212.9z" class="st2"/>
  <path d="m472.2 1586.8-55.8-131.5-55.8-131.7-111.3-264.1-.4-1.2.4-1.2 108.3-264.9L412 660l54.6-132.3.4-1.2 1.2-.4 264.5-109.3L865 362.2l132.2-54.8.4-.1.4.1 132.3 54.5 132.5 54.2 132.5 54.1 132.5 54.1.7.3.3.9 111.1 263.8 110.7 263.9.6 1.3-.6 1.4-108.4 264.9-108.7 264.8-.6 1.6-1.6.6-264.2 109.8-264.4 109.6-1.2.4-1.2-.4-264.7-110-263.4-110.4zm.6-.6 265.5 107.5 264.8 107.7h-2.3l263.8-110.8 263.9-110.6-2.2 2.2 108.8-264.7 109.1-264.7v2.7l-109.6-264.4-109.4-264.5 1.2 1.2-132.2-54.8-132.2-54.6-132.2-54.4-132.3-54.3h1l-132.2 55.2-131.9 55.6-263.8 111.3 1.7-1.7-54.2 132.5-54.5 132.3-109.1 264.5v-2.3l109.3 264.1 54.5 132.3 54.5 132.7z" class="st3"/>
  <path d="M488.5 547.7 436.8 676l-51.9 128L281 1059.4v-2.3l106.8 254.7 53.2 127.4 53 127.6-1.7-1.7 255 105.9 127.6 53 127.6 52.8h-1l127.4-53.2 127.4-53.3 127.3-53.5 127.3-53.6-1.2 1.2 104.1-255.9 104.5-255.7v2.7l-106.8-254.7L1505 546.1l2.2 2.2-255.3-105.4-255.1-105.7h2.3l-255 105.2-255.6 105.3zm-.6-.6L742 439.4l254.8-107.5 1.2-.4 1.2.4 255.7 104.4 255.6 104.6 1.6.6.6 1.6L1619 797.9l106.1 255 .6 1.3-.6 1.3-105.5 255.3-105.8 255.1-.3.9-.7.3-127.6 52.8-127.6 52.9-127.4 53-127.4 53.2-.4.1-.4-.1-127.9-52.2-128-52-255.9-104.1-1.2-.4-.6-1.2-53.3-127.3-53.1-127.4-106.5-255-.4-1.2.4-1.2 106.1-255.4 53.2-127.4 53.1-127.1z" class="st3"/>
  <path d="m700.5 1805.1 53.5-79.8 21.8 10.1-20.8 93.3z" class="st4"/>
  <path d="M700.4 1805.1c8.1-13.1 16.6-26.5 25.4-40.1 4.5-6.8 8.8-13.5 13.4-20.2 4.6-6.6 9.4-13.3 14-19.9l.4-.7.7.3c7.1 3.7 14.3 7.1 21.6 10.1l.6.3-.1.7-4.6 23.5c-1.6 7.8-3.2 15.6-4.9 23.4-1.7 7.8-3.3 15.6-5 23.4-1.7 7.8-3.5 15.6-5.3 23.4l-.6 2.2-2-.9-13.8-6.3c-4.6-2.2-9.2-4.2-13.7-6.3l-26.1-12.9zm.3-.2 28 11.1c4.6 1.7 9.1 3.6 13.5 5.5l13.4 5.5-2.6 1.3c1.7-7.8 3.3-15.6 5-23.4 1.7-7.8 3.6-15.6 5.3-23.4 1.7-7.8 3.6-15.6 5.5-23.2l5.8-23.2.4.9c-7.1-3.7-14.3-7.1-21.8-9.9l1.2-.3c-4.2 6.8-8.4 13.4-12.7 20s-8.8 13.1-13.3 19.6c-8.5 13-17.9 26.1-27.7 39.5z" class="st5"/>
  <path d="m850.9 1868 49.7-76.1 16.7 7.8-24.6 86.6z" class="st4"/>
  <path d="M850.7 1868c3.9-6.2 7.8-12.5 11.7-19 3.9-6.3 8.1-12.8 12.1-19.3s8.2-13 12.5-19.3 8.6-12.7 13-19l.4-.6.6.3c1.3.7 2.7 1.4 4 2.2 1.3.7 2.7 1.3 4.2 2 2.9 1.3 5.6 2.6 8.5 3.6l.4.1-.1.6-5.8 21.8c-1.9 7.2-3.9 14.6-5.9 21.8l-6.1 21.8c-2 7.2-4.2 14.4-6.2 21.6l-.4 1.6-1.4-.7-10.7-4.9c-3.5-1.6-7.1-3.3-10.5-4.9l-20.3-9.7zm.3-.1 21.5 8.5c3.6 1.4 6.9 2.9 10.4 4.2l10.4 4.3-1.9.9c2-7.2 4-14.4 6.1-21.6l6.3-21.6c2.2-7.2 4.2-14.4 6.3-21.6l6.6-21.5.3.7c-2.7-1.4-5.5-2.7-8.2-4-1.4-.6-2.7-1.3-4.2-1.9-1.4-.6-2.9-1.2-4.3-1.7l.9-.3c-4 6.3-7.9 12.8-12 19-4 6.3-8.2 12.5-12.4 18.7-4.2 6.2-8.4 12.5-12.7 18.7l-13.1 19.2z" class="st5"/>
  <path d="m564.8 1745.7 49.7-76.1 16.7 7.7-24.6 86.7z" class="st4"/>
  <path d="M564.6 1745.7c3.9-6.2 7.8-12.5 11.7-19 3.9-6.3 8.1-12.8 12.1-19.3s8.2-13 12.5-19.3 8.6-12.7 13-19l.4-.6.6.3c1.3.7 2.7 1.4 4 2.2 1.3.7 2.7 1.3 4.2 2 2.9 1.3 5.6 2.6 8.5 3.6l.4.1-.1.6-5.8 21.8c-1.9 7.2-3.9 14.6-5.9 21.8l-6.1 21.8c-2 7.2-4.2 14.4-6.2 21.6l-.4 1.6-1.4-.7-10.7-4.9c-3.5-1.6-7.1-3.3-10.5-4.9l-20.3-9.7zm.3 0 21.5 8.5c3.6 1.4 6.9 2.9 10.4 4.2l10.4 4.3-1.9.9c2-7.2 4-14.4 6.1-21.6l6.3-21.6c2.2-7.2 4.2-14.4 6.3-21.6l6.6-21.5.3.7c-2.7-1.4-5.5-2.7-8.2-4-1.4-.6-2.7-1.3-4.2-1.9-1.4-.6-2.9-1.2-4.3-1.7l.9-.3c-4 6.3-7.9 12.8-12 19-4 6.3-8.2 12.5-12.4 18.7-4.2 6.2-8.4 12.5-12.7 18.7l-13.1 19.2z" class="st5"/>
  <path d="m754.9 1828.8 39.8-56.9 27.8 11.1-13.3 69.5z" class="st4"/>
  <path d="m754.7 1828.8 9.1-14.3c3-4.8 6.3-9.7 9.5-14.6 3.3-4.9 6.5-9.8 9.9-14.6 3.5-4.9 7.1-9.5 10.5-14.3l.6-.7.7.3c4.6 2 9.1 4 13.7 6.1 4.6 1.9 9.2 3.7 13.8 5.6l.4.1-.1.4c-1 5.8-1.9 11.7-2.9 17.4-.9 5.9-1.9 11.7-2.7 17.4l-3 17.4c-1 5.8-2 11.7-3.2 17.4l-.4 2.5-2.3-1c-4.6-2-9.2-4.2-13.8-6.3l-13.7-6.5c-4.6-2.2-8.9-4.3-13.4-6.5l-12.7-5.8zm.3-.1 14.3 5.6c4.6 1.9 9.4 3.6 13.8 5.5l13.5 5.5c4.5 1.9 8.9 3.7 13.4 5.6l-2.7 1.4c1.2-5.8 2.2-11.5 3.5-17.3l3.6-17.3c1.2-5.8 2.5-11.5 3.7-17.3 1.3-5.8 2.6-11.5 3.7-17.3l.4.7c-4.6-1.9-9.2-3.7-14-5.5-4.6-1.7-9.4-3.5-14.1-5l1.3-.4c-3.2 4.8-6.2 9.5-9.4 14.3-3.2 4.6-6.6 9.2-9.9 13.8-3.5 4.6-6.8 9.2-10.4 13.8l-10.7 13.9z" class="st5"/>
  <path d="m646.6 1782.7 39.8-56.9 27.8 11.1-13.1 69.6z" class="st4"/>
  <path d="m646.5 1782.7 9.1-14.3c3-4.8 6.3-9.7 9.5-14.6 3.3-4.9 6.5-9.8 9.9-14.6 3.5-4.9 7.1-9.5 10.5-14.3l.6-.7.7.3c4.6 2 9.1 4 13.7 6.1 4.6 1.9 9.2 3.7 13.8 5.6l.4.1-.1.4c-1 5.8-1.9 11.7-2.9 17.4-.9 5.9-1.9 11.7-2.7 17.4l-3 17.4c-1 5.8-2 11.7-3.2 17.4l-.4 2.5-2.3-1c-4.6-2-9.2-4.2-13.8-6.3l-13.7-6.5c-4.6-2.2-8.9-4.3-13.4-6.5l-12.7-5.8zm.3-.1 14.3 5.6c4.6 1.9 9.4 3.6 13.8 5.5l13.5 5.5c4.5 1.9 8.9 3.7 13.4 5.6l-2.7 1.4c1.2-5.8 2.2-11.5 3.5-17.3l3.6-17.3c1.2-5.8 2.5-11.5 3.7-17.3 1.3-5.8 2.6-11.5 3.7-17.3l.4.7c-4.6-1.9-9.2-3.7-14-5.6-4.6-1.7-9.4-3.5-14.1-5l1.3-.4c-3.2 4.8-6.2 9.5-9.4 14.3-3.2 4.6-6.6 9.2-9.9 13.8-3.5 4.6-6.8 9.2-10.4 13.8l-10.7 14z" class="st5"/>
  <path d="m528.4 1786.9 84.9 36.6 82.6-209-19.6-151.8-50.3-20.8z" class="st6"/>
  <path d="M1417.5 1471.6c13-35.3 26.2-70.5 39.6-105.5l20.2-52.6 20.5-52.5c6.8-17.4 13.5-35 20.5-52.5l20.8-52.5 20.8-52.3 21-52.3v6.8c-14.7-34.6-29.5-69-44.1-103.8L1493 850.5c-14.4-34.7-29-69.3-43.2-104.1-14.4-34.7-28.5-69.5-42.7-104.4l4.8 4.8-51.9-21.9c-17.3-7.2-34.6-14.7-51.9-22.1-34.6-14.7-69.2-29.4-103.6-44.5l-51.7-22.5-51.6-22.6c-34.5-15.1-68.8-30.4-102.9-46 35.3 13 70.5 26.2 105.5 39.6l52.6 20.2 52.5 20.5c35 13.5 69.9 27.4 104.9 41.2 17.4 6.9 35 13.7 52.3 20.8l52.3 21 3.3 1.3 1.4 3.5c14.7 34.6 29.5 69 44.1 103.8 14.7 34.6 29.1 69.3 43.7 103.9l43.2 104.1c14.4 34.7 28.5 69.5 42.7 104.4l1.4 3.5-1.4 3.3-21.9 51.9-22.1 51.9-22.2 51.9c-7.4 17.3-14.8 34.5-22.3 51.7l-22.5 51.7-22.6 51.6c-14.8 34-30.1 68.3-45.7 102.6z" class="st7"/>
  <path d="M582.2 640.9c-13.7 35-27.5 69.9-41.5 104.8L519.9 798l-21 52.3-42.1 104.5-42.4 104.5v-3l43.7 103.9 43.5 103.9 43.2 104.1 43.1 104.1-2.2-2.2 104.1 43.4 103.9 43.5 51.9 21.9 51.9 22.1c34.6 14.7 69.2 29.3 103.6 44.3-35-13.7-69.9-27.5-104.8-41.5L844 1583l-52.3-21-104.5-42.1-104.5-42.4-1.4-.6-.6-1.4-43.7-103.9-43.5-103.9-43.2-104.1-43.1-104.1-.6-1.4.6-1.4 43.4-104.1 43.5-103.9 21.9-51.9 22.1-51.9c14.5-34.9 29.2-69.5 44.1-104z" class="st8"/>
  <path d="M595.9 1462.4 427 1057.8l166.6-405.5 404.6-168.9L1403.7 650l168.9 404.6-166.6 405.5-404.6 168.9-405.5-166.6zm405.5 123.4 374.1-156.1 154.1-374.9-156.1-374.1-375-153.9-374.1 156.1-154.1 374.9 156.1 374.1 375 153.9z" class="st2"/>
  <path d="M595.7 1462.7 510.3 1261l-85.2-202.2-.3-.9.3-.9 83-203 41.7-101.3 41.8-101.3.4-.9.9-.4 202.7-83.7 101.3-41.8 101.2-42.1.4-.1.4.1 101.3 41.8 101.5 41.5 101.5 41.5 101.5 41.4.6.3.3.6 85 202.1 84.9 202.1.4 1-.4 1-83 202.8-83.3 202.8-.4 1.2-1.2.4-202.4 84.2-202.5 84-.9.3-.9-.3-202.6-84.2-202.6-84.3zm.5-.4 203.4 82.3 202.8 82.5h-1.7l202.1-84.9 202.2-84.8-1.6 1.6 83.5-202.8 83.6-202.7v2l-84.2-202.2-83.7-202.5.9.9-101.2-41.9-101.3-41.9-101.3-41.8-101.5-41.5h.7l-101 42.4-101 42.7L595 654.9l1.3-1.3-41.5 101.5-41.7 101.3-83.6 202.7v-1.7l83.7 202.4 83 202.5z" class="st3"/>
  <path d="m1001.4 1585.5 186.7-79.3 186.5-78.6-1.2 1.2 76.7-187.5 38.5-93.7 38.6-93.7v1.9l-77.4-187.2-38.6-93.7-38.9-93.6.6.6-93.7-38.6-93.7-38.3-93.8-38.3-93.8-38.2h1.2l-186.8 78.7-186.8 78.4 1.4-1.4-76.8 187.5-77 187.5v-2.3l77.8 187.1 77.6 187.2-1.2-1.2 186.8 77.7 187.3 77.8zm0 .6-187.7-76-188-76.4-.9-.3-.3-.9-78.5-186.7-78.3-187-.4-1.2.4-1.2L544.8 869l77.3-187.4.4-1 1-.4 187-77.6 187.2-77.4.6-.3.6.3 93.6 38.8 93.7 38.8 93.7 38.6 93.7 38.5.4.1.1.4 39.2 93.4 39.4 93.4 78.8 186.7.4.9-.4.9-38.3 93.8-38.5 93.7-77.3 187.4-.3.9-.9.3-187.5 77.6-187.3 76.7z" class="st3"/>
  <path d="M1002.4 1936.8c-52.5-20-104.8-40.4-157.1-60.8l-78.4-30.8-78.3-31-78.3-31.1-78.3-31.3-78.1-31.4-78.1-31.6-3.3-1.3-1.4-3.5c-21.9-51.7-43.8-103.4-65.6-155.2l-65.2-155.4-64.7-155.5c-21.5-51.9-42.8-103.8-64.3-155.8l-1.4-3.5 1.4-3.3 32.4-77.7 32.7-77.7c21.8-51.7 43.5-103.5 65.7-155.2l33-77.6 33.3-77.4c22.2-51.6 44.5-103.1 67.3-154.5-20 52.5-40.4 104.8-60.8 157.1l-30.7 78.4-31 78.3c-21 52.6-41.9 104.6-62.8 156.8L159 983.9l-31.6 78.1v-6.8c21.9 51.7 43.8 103.4 65.6 155.2l65.2 155.4 64.7 155.5c21.6 51.9 42.8 103.8 64.1 155.8l-4.8-4.8 77.7 32.4 77.7 32.7 77.7 32.7 77.6 33 77.6 33 77.4 33.3c51.4 22.4 103 44.8 154.5 67.4z" class="st7"/>
  <path d="m997.5 175.6 78.3 31.1L1154 238l78.3 31.3 78.1 31.6 156.3 63.3 156.1 63.4 1.7.7.7 1.7 65.3 155.4 65 155.4 64.7 155.5 64.6 155.7.7 1.7-.7 1.7-64.6 155.7-64.9 155.5-32.6 77.7-32.7 77.7c-21.8 51.7-43.5 103.5-65.6 155.2 20.6-52.2 41.5-104.4 62.4-156.5l31.3-78.3 31.6-78.1L1813 1208l63.4-156.1v3.5L1811.1 900l-65-155.4-64.7-155.5-64.6-155.7 2.5 2.5-155.7-64.6-155.5-64.9-77.7-32.6-77.7-32.7-77.7-32.7-77.5-32.8z" class="st8"/>
  <path d="m1474.5 1780.8-84.9 36.5-82.6-209 9.8-110.7 60.1-61.8zM702.6 254l-68.8 73.6 82.7 223.5 63.9 19.2 59.8-21.5z" class="st6"/>
  <path d="m1780.9 1263.8 135.8 188.4-37.2 229.3-188.5 135.8-229.4-37.2-135.8-188.5 37.2-229.4 188.6-135.7z" class="st9"/>
  <path d="M1781.1 1263.4c11.5 15.3 23.1 30.8 34.6 46.3l34.7 46.6 34.6 46.8 34.5 47.1.9 1.2-.3 1.4-8.9 57.4-9.1 57.4c-3 19.2-6.2 38.2-9.2 57.4-3 19.2-6.3 38.2-9.5 57.2l-.3 1.6-1.3.9-95 66.9-47.6 33.4-47.3 33.6-.4.3-.6-.1-57.4-9.4-57.4-9.1-28.7-4.5-28.7-4.5-57.4-8.8-1-.1-.6-.9-34.5-46.7-17.2-23.4-17.2-23.5-34.3-46.8-34.2-47-1-1.4.3-1.7 18.2-114.7 9.2-57.4 9.4-57.4.3-2 1.6-1.2 94.6-67.6 94.7-67.2 1.3-.9 1.4.3c38.3 6.5 76.7 13.4 114.9 20l57.2 10.1 56.7 10.4zm-.5.7-57.8-8.4-57.5-8.5c-38.2-5.8-76.4-11.4-114.5-17.3l2.6-.6-93.7 68.6-94 68.3 2-3.2-9.4 57.4-9.4 57.4-19 114.6-.7-3.2 33.7 47.3 33.6 47.4 16.9 23.6 16.7 23.8 33.4 47.4-1.6-1 57.2 9.8 28.7 4.9 28.7 4.8 57.4 9.5 57.4 9.2-1.2.3 46.8-34.3 46.7-34.5 93.6-68.9-1.6 2.5c3-19.2 5.9-38.2 9.1-57.4 3-19.2 6.2-38.2 9.4-57.4l9.5-57.4 9.7-57.2.6 2.6-33.4-47.1-33.3-47.4-33.3-47.7c-11.1-15.9-22.2-31.8-33.3-47.9z" class="st10"/>
  <path d="m1475.5 1757.8-124.1-172.1 34-209.6 172.2-124.1 209.5 34 124.1 172.2-34 209.5-172.3 124.1z" class="st1"/>
  <path d="m1488.3 1736.9-113-157 31-190.9 156.9-113.1 190.9 31 113.1 157-30.9 191-157 113z" class="st11"/>
  <path d="m1745.6 1320.3 106.2 147-28.8 179-147 106.1-179.2-28.8-106.1-147 28.8-179 147.1-106.3z" class="st2"/>
  <path d="m1549.3 1638.6-61.4-85.1 16.7-103.5 85-61.4 103.5 16.7 61.4 84.9-16.5 103.7-85.1 61.4z" class="st12"/>
  <path d="m1693.1 1405.3 52.5-85 106.2 147-97.3 22.9z" class="st13"/>
  <path d="m1390.7 1576.6 97.2-23.1 61.4 85.1-52.5 85z" class="st14"/>
  <path d="m1652.9 1655.3-103.6-16.7-52.5 85 179.2 28.8z" class="st15"/>
  <path d="m1566.6 1291.3 23 97.3 103.5 16.7 52.5-85z" class="st12"/>
  <path d="M1589.6 1388.6c8.6 1 17.3 2.3 25.9 3.5s17.3 2.3 25.9 3.6l25.9 3.7 25.9 3.9.9.1.6.7 15.4 21.2 15.4 21.2c10.2 14.3 20.5 28.4 30.6 42.7l.4.7-.1.9c-2.9 17.3-5.9 34.5-9.1 51.6l-4.8 25.8c-1.6 8.6-3.2 17.2-4.9 25.8 1-8.6 2.3-17.3 3.5-25.9 1.2-8.6 2.3-17.3 3.6-25.9 2.5-17.3 5-34.6 7.6-51.9l.4 1.6c-10.4-14.1-20.6-28.3-30.8-42.4l-15.3-21.3-15.3-21.3 1.3.9-25.8-4.5-25.8-4.6-25.8-4.8c-8.4-2-16.9-3.6-25.6-5.3z" class="st16"/>
  <path d="M1652.9 1655.3c-8.6-1-17.3-2.3-25.9-3.5s-17.3-2.3-25.9-3.6l-25.9-3.7-25.9-3.9-.9-.1-.6-.7-15.4-21.2-15.4-21.2c-10.2-14.3-20.5-28.4-30.6-42.7l-.4-.7.1-.9c2.9-17.3 5.9-34.5 9.1-51.6l4.8-25.8c1.6-8.6 3.2-17.2 4.9-25.8-1 8.6-2.3 17.3-3.5 25.9-1.2 8.6-2.3 17.3-3.6 25.9-2.5 17.3-5 34.6-7.6 51.9l-.4-1.6c10.4 14.1 20.6 28.3 30.8 42.4l15.3 21.3 15.3 21.3-1.3-.9 25.8 4.5 25.8 4.6 25.8 4.8c8.5 2 17 3.6 25.6 5.3z" class="st17"/>
  <path d="m1745.6 1320.3 106.2 147-28.8 179-147 106.1-179.2-28.8-106.1-147 28.8-179 147.1-106.3z" class="st18"/>
  <path d="m967.1 838.8 12.8 117.5 19.2 42.3 18-42.4 10.8-117.4zM812.8 1167.8l102.8-58.4 31.1-34.3-46.1.1-111.8 36.7zM1203.7 1106.5l-114-31.4-46.1 2.2 32.6 32.4 105.1 53.3z" class="st1"/>
  <path d="M1043.6 1077.3c3 2.5 6.1 4.9 8.9 7.4 2.9 2.5 5.8 5 8.6 7.6 2.9 2.6 5.6 5.2 8.5 7.8 2.9 2.6 5.6 5.2 8.4 7.9l-.7-.4c3.2 1.4 6.3 3 9.5 4.6s6.3 3 9.4 4.8c6.2 3.2 12.5 6.5 18.6 9.8 3.2 1.6 6.2 3.3 9.2 5 3 1.7 6.2 3.5 9.2 5.2 6.1 3.5 12.1 7.2 18 11.1-6.6-2.5-13.1-5.2-19.6-8.1-3.2-1.4-6.5-2.9-9.7-4.3s-6.3-2.9-9.5-4.5c-6.3-3-12.7-6.2-18.9-9.2-3.2-1.6-6.2-3.2-9.4-4.8-3.2-1.6-6.2-3.2-9.4-4.9l-.4-.3-.3-.3c-2.6-2.7-5.3-5.5-7.9-8.4-2.6-2.9-5.2-5.6-7.8-8.5-2.6-2.9-5.2-5.8-7.6-8.6-2.2-2.9-4.8-5.9-7.1-8.9zM847.9 1147.9c5.3-3.9 10.7-7.5 16.1-11.1 2.7-1.7 5.5-3.6 8.2-5.2 2.7-1.7 5.5-3.5 8.4-5.2l8.4-5 8.5-4.9c2.7-1.6 5.6-3.2 8.5-4.8 2.9-1.6 5.6-3.2 8.5-4.8l-.7.6 8.1-8.4 8.2-8.2c2.7-2.7 5.5-5.5 8.4-8.1 2.7-2.6 5.6-5.3 8.6-7.8-2.3 3.2-4.6 6.2-6.9 9.4-2.3 3-4.8 6.1-7.2 9.1-2.5 3-4.9 5.9-7.4 8.9l-7.5 8.8-.3.3-.4.3c-2.7 1.7-5.6 3.3-8.4 4.9-2.9 1.6-5.6 3.3-8.5 4.9l-8.5 4.8-8.6 4.6c-2.9 1.6-5.8 3-8.6 4.5-2.9 1.4-5.8 2.9-8.8 4.3-6.3 2.8-12.2 5.5-18.1 8.1zM971.5 879.8c1.4 6.3 2.6 12.7 3.7 18.9.6 3.2 1.2 6.3 1.6 9.5.4 3.2 1 6.3 1.4 9.5l1.3 9.5 1.2 9.5c.4 3.2.7 6.3 1 9.5l1 9.5-.3-.9 4.5 10.7 4.3 10.8c1.4 3.6 2.7 7.2 4 10.8 1.3 3.6 2.6 7.4 3.7 11-2-3.3-3.9-6.6-5.8-10.1-1.9-3.3-3.6-6.8-5.5-10.2l-5.2-10.4-5-10.4-.1-.3v-.4l-1.2-9.5c-.4-3.2-.7-6.3-1-9.5l-1-9.5-.9-9.7c-.3-3.2-.4-6.3-.7-9.7-.3-3.2-.4-6.3-.6-9.7-.2-5.9-.4-12.4-.4-18.9z" class="st11"/>
  <path d="m517.6 1162 112.2-35.2 19.6 50.4-103.5 52.7z" class="st4"/>
  <path d="M517.3 1161.9c17.7-6.3 36.2-12.7 55.1-18.9 9.4-3 18.9-6.2 28.4-8.9 9.5-2.9 19.2-5.5 28.7-8.2l1-.3.3 1c1.4 4.2 3 8.5 4.6 12.7 1.6 4.2 3.2 8.4 4.8 12.7 1.7 4.2 3.3 8.4 5 12.5 1.7 4.2 3.5 8.4 5.2 12.5l.3.9-.9.4-25.5 13.8c-8.5 4.6-17.2 9.1-25.7 13.5-8.6 4.5-17.2 8.9-25.8 13.4-8.6 4.5-17.3 8.8-25.9 13l-2.3 1.2-.9-2.3-6.9-17.4c-2.3-5.8-4.6-11.7-6.8-17.4l-12.7-34.2zm.5.3 15.6 33.9c2.6 5.5 4.9 11.1 7.4 16.6l7.2 16.4-3.2-1.2c8.6-4.5 17.2-8.9 25.8-13.3 8.6-4.3 17.3-8.6 25.9-13 8.6-4.3 17.3-8.5 26.1-12.8l26.2-12.5-.4 1.3c-1.6-4.2-3-8.5-4.8-12.7-1.6-4.2-3.2-8.4-4.9-12.5-1.7-4.2-3.3-8.4-5-12.5-1.7-4.2-3.5-8.4-5.2-12.4l1.4.7c-9.2 3.2-18.3 6.3-27.4 9.4-9.1 3-18.5 5.8-27.7 8.5-18.6 5.4-37.4 10.6-57 16.1z" class="st5"/>
  <path d="m545.7 1229.8 84.4-16.8 15.2 33.8-71.3 50.9z" class="st4"/>
  <path d="m545.4 1229.6 20.2-4.9 10.4-2.5 10.5-2.5c7.1-1.6 14.3-3.2 21.5-4.5 7.2-1.4 14.4-2.6 21.6-3.7l1.2-.1.4 1c2.3 5.8 4.6 11.5 7.1 17.2l3.7 8.5 3.9 8.4.3.6-.4.4c-5.9 4.3-11.7 8.8-17.4 13.3-5.8 4.5-11.5 8.9-17.4 13.3l-17.7 13-8.8 6.5-8.9 6.3-2.5 1.7-1.2-2.9c-4.8-11.7-9.4-23.4-13.7-35-2.2-5.8-4.2-11.5-6.3-17.2l-6.5-16.9zm.5.3 15.7 33.9c5 11.1 9.9 21.9 14.6 32.9l-3.6-1 8.9-6.3 8.9-6.2 18-12.5c6.1-4.2 12.1-8.2 18.2-12.3 6.1-4 12.3-8.1 18.2-12.3l-.3.9-3.7-8.5-3.9-8.4c-2.6-5.6-5.5-11.1-8.2-16.6l1.6.7c-6.9 1.6-13.7 3.3-20.6 4.8-6.9 1.4-13.8 2.6-20.8 3.9l-10.5 1.7-10.7 1.7-21.8 3.6z" class="st5"/>
  <path d="m488.5 1095.9 84.3-16.8 15.3 33.8-71.3 50.8z" class="st4"/>
  <path d="m488.4 1095.7 20.2-4.9 10.4-2.5 10.5-2.5c7.1-1.6 14.3-3.2 21.5-4.5 7.2-1.4 14.4-2.6 21.6-3.7l1.2-.1.4 1c2.3 5.8 4.6 11.5 7.1 17.2l3.7 8.5 3.9 8.4.3.6-.4.4c-5.9 4.3-11.7 8.8-17.4 13.3-5.8 4.5-11.5 8.9-17.4 13.3l-17.7 13-8.8 6.5-8.9 6.3-2.5 1.7-1.2-2.9c-4.8-11.7-9.4-23.4-13.7-35-2.2-5.8-4.2-11.5-6.3-17.2l-6.5-16.9zm.4.3 15.7 33.9c5 11.1 9.9 21.9 14.6 32.9l-3.6-1 8.9-6.3 8.9-6.2 18-12.5c6.1-4.2 12.1-8.2 18.2-12.3 6.1-4 12.3-8.1 18.2-12.3l-.3.9-3.7-8.5-3.9-8.4c-2.6-5.6-5.5-11.1-8.2-16.6l1.6.7c-6.9 1.6-13.7 3.3-20.6 4.8-6.9 1.4-13.8 2.6-20.8 3.9l-10.5 1.7-10.7 1.7-21.8 3.6z" class="st5"/>
  <path d="m1773.3 820.1-93.9 19.3-8.5-22.3 80.3-52.1z" class="st4"/>
  <path d="M1773.6 820.3c-14.8 3.6-30.4 7.4-46.1 10.8-7.9 1.7-15.9 3.5-23.8 5s-16 2.9-23.9 4.3l-.9.1-.3-.7c-2.3-7.6-5.2-15.1-8.4-22.5l-.3-.6.6-.4 19.7-13.5c6.6-4.5 13.3-8.9 19.9-13.3 6.6-4.3 13.3-8.8 19.9-13.1 6.6-4.3 13.4-8.6 20.2-13l1.9-1.2.7 2 5.3 14.1c1.7 4.8 3.6 9.4 5.2 14.1l10.3 27.9zm-.5-.2-12.3-27.5c-2-4.5-3.9-8.9-5.8-13.4l-5.8-13.4 2.7.9c-6.6 4.3-13.3 8.8-20 13.1-6.6 4.3-13.4 8.5-20.2 12.8-6.8 4.3-13.4 8.5-20.2 12.7l-20.3 12.5.3-1c2.5 7.6 5.3 15.1 8.5 22.3l-1-.6c7.8-1.9 15.4-3.6 23.1-5.3 7.6-1.7 15.4-3.2 23.2-4.6 15.7-3 31.5-5.8 47.8-8.5z" class="st5"/>
  <path d="m1710.3 669.9-88.8 19.3-6.5-17.1 78.3-44.6z" class="st4"/>
  <path d="M1710.4 669.9c-7.1 1.7-14.4 3.6-21.6 5.3-7.4 1.7-14.7 3.5-22.2 5.2-7.5 1.7-14.8 3.5-22.5 5-7.5 1.6-15.1 3-22.5 4.5l-.6.1-.1-.6c-.4-1.4-.9-2.9-1.4-4.3-.4-1.4-1-2.9-1.6-4.3-1.2-2.9-2.2-5.8-3.5-8.5l-.1-.4.4-.3 19.3-11.5c6.5-3.7 13-7.6 19.5-11.4l19.5-11.2c6.5-3.7 13.1-7.4 19.6-11.1l1.4-.9.6 1.4 4.2 11c1.3 3.6 2.7 7.2 4 10.8l7.6 21.2zm-.3-.1-9.4-21.2c-1.6-3.5-3-6.9-4.5-10.4L1692 628l2 .7c-6.5 3.7-13 7.5-19.5 11.2l-19.6 11c-6.5 3.6-13.1 7.4-19.7 11l-19.7 10.8.3-.7c.9 2.9 2 5.8 3 8.6.6 1.4 1.2 2.9 1.7 4.3.6 1.4 1.2 2.9 1.9 4.2l-.9-.4c7.4-1.7 14.6-3.6 21.9-5.2 7.2-1.7 14.6-3.2 22.1-4.8 7.4-1.6 14.7-3 22.2-4.5l22.4-4.4z" class="st5"/>
  <path d="m1622.6 461.3-68.4 50-12.4-13.5 49-68.3 23.6 9.5z" class="st4"/>
  <path d="M1622.8 461.3c-5.3 4.3-11 8.6-16.4 12.8-5.5 4.3-11.2 8.5-17 12.8-5.6 4.3-11.4 8.5-17.3 12.7-5.9 4.2-11.7 8.2-17.6 12.3l-.6.4-.4-.4c-1-1.2-1.9-2.5-2.9-3.6-1-1.2-2-2.3-3-3.5-2.2-2.2-4.2-4.5-6.3-6.6l-.3-.3.3-.4 12-17.3c4-5.8 8.1-11.5 12.1-17.3 4-5.8 8.1-11.5 12.1-17.2 4-5.8 8.2-11.4 12.4-17l.7-.9 1 .4 23.4 9.9.4.1.1.4 3.9 11.5 3.4 11.2zm-.3-.1-4.8-11.1-4.5-10.8.6.6-23.6-9.2 1.7-.4c-4 5.8-8.1 11.4-12.3 17.2-4 5.8-8.2 11.4-12.4 17-4.2 5.6-8.4 11.2-12.5 16.9l-12.7 16.9v-.9c1.9 2.5 4 4.6 6.1 6.9 1 1.2 2 2.3 3.2 3.3 1 1.2 2.2 2.2 3.2 3.3l-.9-.1c5.6-4.3 11.1-8.6 16.7-12.8s11.2-8.4 17-12.4c5.8-4 11.4-8.2 17.3-12.3 5.9-3.9 11.8-8.1 17.9-12.1z" class="st5"/>
  <path d="m1861.1 1071.6-83.2-17.1 1.7-18.3 83.6-9.5 8.7 23.9z" class="st4"/>
  <path d="M1861.1 1071.8c-6.8-1.2-13.7-2.3-20.6-3.6-6.9-1.2-13.8-2.6-20.9-3.9-6.9-1.3-14-2.7-21-4.3s-14-3.2-20.9-4.8l-.7-.1.1-.6c.3-1.6.4-3 .7-4.6.1-1.6.3-3 .6-4.6.3-3 .6-6.1.7-9.2v-.4l.6-.1 20.9-2.9c6.9-.9 13.8-1.9 20.9-2.6 6.9-.9 14-1.7 20.9-2.6 6.9-.9 14-1.6 20.9-2.3l1.2-.1.4 1 8.4 23.9.1.4-.3.4-5.9 10.5-6.1 10.5zm-.2-.3 5-11 5-10.5v.9l-9.1-23.8 1.4.9c-6.9.9-14 1.7-20.9 2.5-6.9.9-14 1.4-20.9 2.2-6.9.7-14 1.4-20.9 2.2l-20.9 1.9.6-.6c-.4 3-.7 6.1-1.2 9.1-.1 1.6-.3 3-.4 4.6-.1 1.6-.1 3-.3 4.6l-.6-.7c6.9 1.3 13.8 2.5 20.8 3.7 6.9 1.3 13.7 2.7 20.6 4.3 6.9 1.4 13.7 3 20.8 4.6 7 1.8 13.9 3.4 21 5.1z" class="st5"/>
  <path d="m983.1 1928.7 12.6-83.9 18.5.8 13.8 83-23.3 9.9z" class="st4"/>
  <path d="M982.9 1928.7c.7-6.8 1.6-13.8 2.5-20.8.9-6.9 1.9-14 2.9-21 1-7.1 2-14.1 3.2-21.2 1.2-7.1 2.5-14.1 3.7-21l.1-.7h.6c1.6.1 3 .3 4.6.4 1.6.1 3 .1 4.6.3 3 0 6.2.3 9.2.1h.4l.1.6 3.9 20.6c1.3 6.9 2.6 13.8 3.7 20.8 1.2 6.9 2.5 13.8 3.6 20.8 1.2 6.9 2.3 13.8 3.5 20.8l.1 1.2-1 .4-23.5 9.7-.4.1-.4-.1-10.8-5.3-10.6-5.7zm.3-.1 11.1 4.5 10.8 4.5h-.9l23.2-10.2-.9 1.6c-1.2-6.9-2.5-13.8-3.6-20.8-1.2-6.9-2.2-13.8-3.3-20.8-1.2-6.9-2.2-13.8-3.2-20.8l-3-20.8.6.6c-3-.3-6.1-.4-9.2-.6-1.6 0-3-.1-4.6-.1h-4.6l.7-.6c-.9 6.9-1.7 14-2.7 20.9-.9 6.9-2 13.8-3.2 20.8-1.2 6.9-2.3 13.8-3.6 20.9-1 6.8-2.3 13.8-3.6 20.9z" class="st5"/>
  <path d="m398 425.4 46.4 71.2-14.3 11.6-65.7-52.6 10.8-23z" class="st4"/>
  <path d="M398 425.3c4 5.6 7.9 11.4 12 17.2s7.9 11.7 12 17.6c4 5.9 7.9 11.8 11.8 17.9 3.9 6.1 7.5 12.1 11.2 18.2l.3.6-.4.3c-1.3.9-2.5 1.9-3.7 2.7-1.3.9-2.5 1.9-3.6 2.9-2.3 2-4.8 3.9-7.1 5.9l-.4.3-.4-.3-16.7-12.8c-5.5-4.3-11.1-8.6-16.6-13-5.5-4.3-11.1-8.6-16.4-13-5.5-4.3-11-8.8-16.3-13.3l-.9-.7.4-1 11.1-22.9.3-.4.4-.1 11.7-3.2 11.3-2.9zm-.2.3-11.2 4-11 3.9.6-.6-10.5 23.2-.4-1.7c5.5 4.3 11 8.6 16.4 13.1 5.5 4.3 10.8 8.8 16.3 13.3s10.8 8.9 16.3 13.4l16.1 13.5h-.9c2.5-1.9 4.9-3.7 7.2-5.6 1.2-1 2.3-1.9 3.5-3 1.2-1 2.3-2 3.5-3l-.1.9c-4-5.8-7.9-11.5-12-17.3-3.9-5.8-7.6-11.7-11.4-17.6-3.7-5.9-7.5-11.8-11.2-18-3.7-6.1-7.4-12.2-11.2-18.5z" class="st5"/>
  <path d="m1828.8 957.6-89 19.5-6.5-17.3 78.3-44.6z" class="st4"/>
  <path d="M1828.8 957.8c-7.1 1.7-14.4 3.6-21.6 5.3-7.4 1.7-14.7 3.5-22.2 5.2-7.5 1.7-14.8 3.5-22.5 5-7.5 1.6-15.1 3-22.5 4.5l-.6.1-.1-.6c-.4-1.4-.9-2.9-1.4-4.3-.4-1.4-1-2.9-1.6-4.3-1.2-2.9-2.2-5.8-3.5-8.5l-.1-.4.4-.3 19.3-11.5c6.5-3.7 13-7.6 19.5-11.4l19.5-11.2c6.5-3.7 13.1-7.4 19.6-11.1l1.4-.9.6 1.4 4.2 11c1.3 3.6 2.7 7.2 4 10.8l7.6 21.2zm-.2-.2-9.4-21.2c-1.6-3.5-3-6.9-4.5-10.4l-4.3-10.2 2 .7c-6.5 3.7-13 7.5-19.5 11.2l-19.6 11c-6.5 3.6-13.1 7.4-19.7 11l-19.7 10.8.3-.7c.9 2.9 2 5.8 3 8.6.6 1.4 1.2 2.9 1.7 4.3.6 1.4 1.2 2.9 1.9 4.2l-.9-.4c7.4-1.7 14.6-3.6 21.9-5.2 7.2-1.7 14.6-3.2 22.1-4.8 7.4-1.6 14.7-3 22.2-4.5l22.5-4.4z" class="st5"/>
  <path d="m1751.2 765.2-68.2 12.7-12.1-27.4 58.3-40.5z" class="st4"/>
  <path d="m1751.5 765.2-16.4 3.7c-5.6 1.3-11.2 2.5-17 3.7-5.8 1.2-11.5 2.3-17.3 3.5-5.8 1-11.7 1.9-17.4 2.7l-.9.1-.3-.7c-1.9-4.6-3.6-9.4-5.6-14-1.9-4.6-3.9-9.2-6.1-13.7l-.1-.4.4-.3c4.8-3.5 9.5-6.9 14.3-10.5 4.8-3.6 9.5-7.1 14.3-10.5l14.4-10.4c4.8-3.5 9.7-6.8 14.4-10.2l2-1.4.9 2.3c1.9 4.8 3.7 9.5 5.5 14.3l5.2 14.1c1.7 4.8 3.3 9.4 5 14l4.7 13.7zm-.4-.2-6.3-14c-2-4.6-4.2-9.1-6.1-13.5l-5.9-13.4c-1.9-4.5-3.7-8.9-5.6-13.4l2.9.9c-4.9 3.3-9.7 6.8-14.6 9.9l-14.7 9.9c-4.9 3.3-9.8 6.5-14.8 9.7-4.9 3.2-9.9 6.3-14.8 9.7l.1-.7c2 4.6 3.9 9.2 6.1 13.7 2 4.6 4.3 9.1 6.5 13.5l-1.2-.6c5.6-1.3 11.1-2.6 16.6-3.6 5.6-1 11.1-2 16.7-2.9 5.6-.9 11.4-1.7 17.2-2.6l17.9-2.6z" class="st5"/>
  <path d="m1796.2 873.9-68.3 12.7-12-27.4 58.1-40.4z" class="st4"/>
  <path d="m1796.3 873.9-16.4 3.7c-5.6 1.3-11.2 2.5-17 3.7-5.8 1.2-11.5 2.3-17.3 3.5-5.8 1-11.7 1.9-17.4 2.7l-.9.1-.3-.7c-1.9-4.6-3.6-9.4-5.6-14-1.9-4.6-3.9-9.2-6.1-13.7l-.1-.4.4-.3c4.8-3.5 9.5-6.9 14.3-10.5 4.8-3.6 9.5-7.1 14.3-10.5l14.4-10.4c4.8-3.5 9.7-6.8 14.4-10.2l2-1.4.9 2.3c1.9 4.8 3.7 9.5 5.5 14.3l5.2 14.1c1.7 4.8 3.3 9.4 5 14l4.7 13.7zm-.3-.2-6.3-14c-2-4.6-4.2-9.1-6.1-13.5l-5.9-13.4c-1.9-4.5-3.7-8.9-5.6-13.4l2.9.9c-4.9 3.3-9.7 6.8-14.6 9.9l-14.7 9.9c-4.9 3.3-9.8 6.5-14.8 9.7-4.9 3.2-9.9 6.3-14.8 9.7l.1-.7c2 4.6 3.9 9.2 6.1 13.7 2 4.6 4.3 9.1 6.5 13.5l-1.2-.6c5.6-1.3 11.1-2.6 16.6-3.6 5.6-1 11.1-2 16.7-2.9 5.6-.9 11.4-1.7 17.2-2.6l17.9-2.6z" class="st5"/>
  <path d="m263.8 713.2 80.3 52.4-9.7 21.8-93.7-19.5z" class="st4"/>
  <path d="M263.8 713c13.1 7.9 26.8 16.1 40.4 24.8 6.8 4.3 13.7 8.6 20.5 13.3 6.8 4.6 13.4 9.2 20 13.8l.7.4-.3.7c-3.7 7.1-6.9 14.4-9.8 21.8l-.3.6-.7-.1-23.5-4.3c-7.8-1.4-15.7-3-23.5-4.6-7.8-1.6-15.6-3-23.5-4.6-7.8-1.6-15.6-3.3-23.4-5l-2.2-.4.9-2 6.2-13.8c2-4.6 4-9.2 6.2-13.7l12.3-26.9zm.1.3-10.7 28.1c-1.7 4.6-3.6 9.1-5.3 13.7l-5.3 13.5-1.3-2.5 23.4 4.8c7.8 1.6 15.6 3.3 23.4 5s15.6 3.5 23.4 5.2l23.2 5.5-.9.4c3.6-7.1 6.9-14.4 9.7-21.9l.3 1.2c-6.8-4.2-13.5-8.2-20.2-12.4-6.6-4.2-13.1-8.6-19.7-13-13.3-8.9-26.4-17.9-40-27.6z" class="st5"/>
  <path d="m202.8 864.4 76.7 48.7-7.5 16.7-86.9-23.4z" class="st4"/>
  <path d="M202.7 864.2c6.3 3.7 12.7 7.5 19.2 11.5 6.5 3.9 13 7.9 19.5 11.8 6.5 4 13 8.1 19.5 12.3 6.5 4.2 12.8 8.5 19.2 12.7l.6.3-.3.6c-.7 1.3-1.4 2.7-2 4.2-.7 1.4-1.3 2.7-2 4.2-1.2 2.9-2.5 5.6-3.6 8.5l-.1.4-.6-.1-21.9-5.5c-7.2-1.9-14.6-3.7-21.8-5.6l-21.8-5.8c-7.2-1.9-14.6-3.9-21.8-5.9l-1.6-.4.7-1.4 4.8-10.7c1.6-3.5 3.2-7.1 4.8-10.5l9.2-20.6zm.1.3-8.2 21.6c-1.3 3.6-2.7 7.1-4 10.5l-4.2 10.4-.9-1.9c7.2 1.9 14.6 3.7 21.8 5.8L229 917c7.2 2 14.4 4 21.6 6.1l21.6 6.3-.7.3c1.4-2.7 2.6-5.5 3.9-8.4.6-1.4 1.3-2.7 1.9-4.2s1.2-2.9 1.7-4.3l.3.9c-6.5-3.9-12.8-7.8-19.2-11.7-6.3-3.9-12.7-8.1-18.9-12.1-6.3-4.2-12.5-8.2-18.9-12.5l-19.5-12.9z" class="st5"/>
  <path d="m321.3 576.5 76.7 48.9-7.5 16.7-86.9-23.5z" class="st4"/>
  <path d="M321.3 576.4c6.3 3.7 12.7 7.5 19.2 11.5 6.5 3.9 13 7.9 19.5 11.8 6.5 4 13 8.1 19.5 12.3 6.5 4.2 12.8 8.5 19.2 12.7l.6.3-.3.6c-.7 1.3-1.4 2.7-2 4.2-.7 1.4-1.3 2.7-2 4.2-1.2 2.9-2.5 5.6-3.6 8.5l-.1.4-.6-.1-21.9-5.5c-7.2-1.9-14.6-3.7-21.8-5.6l-21.8-5.8c-7.2-1.9-14.6-3.9-21.8-5.9l-1.6-.4.7-1.4 4.8-10.7c1.6-3.5 3.2-7.1 4.8-10.5l9.2-20.6zm0 .2-8.2 21.6c-1.3 3.6-2.7 7.1-4 10.5l-4.2 10.4-.9-1.9c7.2 1.9 14.6 3.7 21.8 5.8l21.8 6.1c7.2 2 14.4 4 21.6 6.1l21.6 6.3-.7.3c1.4-2.7 2.6-5.5 3.9-8.4.6-1.4 1.3-2.7 1.9-4.2.6-1.4 1.2-2.9 1.7-4.3l.3.9c-6.5-3.9-12.8-7.8-19.2-11.7-6.3-3.9-12.7-8.1-18.9-12.1-6.3-4.2-12.5-8.2-18.9-12.5l-19.6-12.9z" class="st5"/>
  <path d="m240.7 767.8 57.5 39-10.8 28-69.7-12.2z" class="st4"/>
  <path d="m240.7 767.6 14.3 8.8c4.9 3 9.8 6.2 14.7 9.4 4.9 3.2 9.8 6.5 14.7 9.8 4.9 3.3 9.7 6.9 14.4 10.4l.7.6-.3.7c-2 4.6-4 9.2-5.8 13.8-1.9 4.6-3.6 9.2-5.3 14l-.1.4-.4-.1c-5.8-1-11.7-1.7-17.6-2.6-5.9-.9-11.7-1.7-17.6-2.6l-17.4-2.7c-5.8-.9-11.7-1.9-17.4-2.9l-2.5-.4 1-2.3c2-4.6 4-9.4 6.1-14l6.2-13.7c2-4.6 4.2-8.9 6.3-13.4l6-13.2zm0 .3-5.3 14.3c-1.7 4.6-3.5 9.4-5.2 14l-5.2 13.7c-1.7 4.5-3.6 8.9-5.5 13.4l-1.4-2.7c5.8 1 11.7 2 17.4 3.2L253 827c5.8 1.2 11.5 2.3 17.3 3.6 5.8 1.2 11.5 2.5 17.3 3.6l-.7.4c1.9-4.6 3.6-9.4 5.3-14 1.7-4.8 3.3-9.4 4.9-14.1l.4 1.3c-4.9-3-9.7-6.1-14.4-9.2s-9.4-6.5-14-9.8c-4.6-3.3-9.4-6.8-14-10.2l-14.4-10.7z" class="st5"/>
  <path d="m285.4 659 57.5 39-10.8 28-69.8-12.3z" class="st4"/>
  <path d="m285.4 658.8 14.3 8.8c4.9 3 9.8 6.2 14.7 9.4 4.9 3.2 9.8 6.5 14.7 9.8s9.7 6.9 14.4 10.4l.7.6-.3.7c-2 4.6-4 9.2-5.8 13.8-1.9 4.6-3.6 9.2-5.3 14l-.1.4-.4-.1c-5.8-1-11.7-1.7-17.6-2.6-5.9-.9-11.7-1.7-17.6-2.6l-17.4-2.7c-5.8-.9-11.7-1.9-17.4-2.9l-2.6-.6 1-2.3c2-4.6 4-9.4 6.1-14l6.2-13.7c2-4.6 4.2-8.9 6.3-13.4l6.1-13zm0 .3-5.3 14.3c-1.7 4.6-3.5 9.4-5.2 14l-5.2 13.7c-1.7 4.5-3.6 8.9-5.5 13.4l-1.4-2.7c5.8 1 11.7 2 17.4 3.2l17.4 3.3c5.8 1.2 11.5 2.3 17.3 3.6 5.8 1.2 11.5 2.5 17.3 3.6l-.7.4c1.9-4.6 3.6-9.4 5.3-14 1.7-4.8 3.3-9.4 4.9-14.1l.4 1.3c-4.9-3-9.7-6.1-14.4-9.2s-9.4-6.5-14-9.8c-4.6-3.3-9.4-6.8-14-10.2l-14.3-10.8z" class="st5"/>
  <path d="m1273.5 1472.9-16.8-84.3 33.8-15.3 50.9 71.4z" class="st4"/>
  <path d="m1273.4 1473.2-4.9-20.2-2.5-10.4-2.5-10.5c-1.6-7.1-3.2-14.3-4.5-21.5-1.4-7.2-2.5-14.4-3.7-21.6l-.1-1.2 1-.4c5.8-2.3 11.5-4.6 17.2-7.1l8.5-3.7 8.4-3.9.6-.3.4.4c4.3 5.9 8.8 11.7 13.3 17.4 4.5 5.8 8.9 11.5 13.3 17.4l13 17.7 6.5 8.8 6.3 8.9 1.7 2.5-2.9 1.2c-11.7 4.8-23.4 9.4-35 13.7-5.8 2.2-11.5 4.2-17.2 6.3l-16.9 6.5zm.3-.4 33.9-15.7c11.1-5 21.9-9.9 32.9-14.6l-1 3.6-6.3-8.9-6.2-8.9-12.4-18c-4.2-6.1-8.2-12.1-12.3-18.2-4-6.1-8.1-12.3-12.3-18.2l.9.3-8.5 3.7-8.4 3.9c-5.6 2.6-11.1 5.5-16.6 8.2l.7-1.6c1.6 6.9 3.3 13.7 4.8 20.6 1.4 6.9 2.6 13.8 3.9 20.8l1.7 10.5 1.7 10.7 3.5 21.8z" class="st5"/>
  <path d="m821.9 909.6-60-144.7-140.4 9.4 134.4-3.3 47.6 125.1-83.4-12.9-30.8 52.8-34.5-16.3 39.7 31.1 36.5-56.9 68.9 18.6 17 82.3 31.7-5.6 6.9-17.3-30.7 3.3zM478.3 402.1l-60.9 144.3 105.3 93.2-96.8-93.2 55.5-121.7 49.5 68.3 59.2-15.2 12.7 35.9-5.8-49.9-66.1 14-35.2-62 46.6-70.1-26.3-18.6-17.1 7.2 23.8 19.5zM1683 463.1l-30.1 58.6-64 5.1-33.1 47.4-26.4-78.9-70.5-65.8-83.6 5.7 15.4-56-28.7 56 .7 11.9 91.4-4.4 70.5 59-75.2 6.5 78.1 8.2 23.9 67.6-46.4 54.2v105.9l77.3 67.2-9.5 53.1-38.4-19.4-29.4 34.8 29.4-27.1 47.9 21.9 9.1-66.2-76.9-70.7v-95.6l67.8-71.8L1615 584l-14.7 58.1 14.7 50.4v-54.3l15.4-54.2-40.8-21 12.3-11.9h68.7l31.3-42.9z" class="st19"/>
  <path d="m1383.1 756 101.2 242.4-505.7-444.7 20.3-8.5 271.6 111.7zM1673.2 1154.4l-82.1-79.7 12.7-30.9-73.6-176.1 185.6 185.1zM1836.8 1155l-46.2 112.8-87.5-84.9 43.1-110.4zM337.3 707.8l35.7 31.4-23.7 56-15.9-14 1.4.3 9.7-21.8-78.6-51.3 66.6 11.7zM472.4 903.4l-90.6-79.5 21.5-58 92.3 81.2M1273.5 1530.2l36.8 39-2.9 33.2-.4 40.1-92.6-87.7M246 1059.8l94.2 202.8L160.3 1101l-19.5-46.2 37.6-91.3 74 68.9zM997.8 1766l-174.9-71.9-440.8-393.7-90.2-231.2 207.1 193 85.9 205.8 278.2 114.3 186.6 161.9zM1176.9 1858.2l-118.4 49.5L898 1766l107.5 46.3 74.6-36.4z" class="st20"/>
  <path d="m1268.2 640.1-54.5 104-49.6-21.7 36-110.4z" class="st4"/>
  <path d="M1268.3 639.9c-8.1 17-16.6 34.6-25.5 52.3-4.5 8.8-8.9 17.7-13.7 26.4-4.8 8.8-9.7 17.4-14.4 25.9l-.6 1-.9-.4c-4-1.9-8.1-3.9-12.3-5.8-4-1.9-8.2-3.7-12.4-5.5-4.2-1.7-8.2-3.6-12.4-5.3-4.2-1.7-8.4-3.5-12.5-5.2l-.9-.3.3-.9 8.4-27.8c2.9-9.2 5.6-18.5 8.6-27.7 2.9-9.2 5.8-18.5 8.8-27.7 2.9-9.2 6.1-18.5 9.1-27.5l.9-2.3 2.3 1 17.2 7.5c5.8 2.5 11.4 5 17 7.5l33 14.8zm-.4.2-34.9-13c-5.8-2.2-11.4-4.3-17-6.5l-16.7-6.5 3-1.4c-2.9 9.2-5.8 18.5-8.9 27.7-3 9.2-6.2 18.3-9.2 27.5-3 9.2-6.2 18.3-9.4 27.5l-9.7 27.4-.6-1.3c4 1.9 8.2 3.7 12.3 5.6 4 1.9 8.2 3.6 12.4 5.5 4.2 1.7 8.2 3.6 12.4 5.3 4.2 1.7 8.4 3.5 12.5 5l-1.4.6c4.3-8.8 8.5-17.4 12.8-26.1 4.3-8.6 8.9-17.2 13.5-25.7 9.3-16.9 18.8-33.9 28.9-51.6z" class="st5"/>
  <path d="m1200.3 612-47.7 71.5-34.8-13.2 14.6-86.3z" class="st4"/>
  <path d="m1200.6 612-10.8 17.9-5.6 9.1-5.8 9.2c-3.9 6.1-7.9 12.3-12 18.3-4.2 6.1-8.5 12-12.7 17.9l-.7.9-1-.4c-5.8-2.5-11.4-4.8-17.2-7.1l-8.6-3.3-8.6-3.2-.6-.1.1-.6c1.2-7.2 2-14.4 3-21.8 1-7.2 1.9-14.6 3-21.8l3.3-21.6 1.7-10.8 1.7-10.8.4-3 2.9 1.2c11.5 4.9 23.2 9.9 34.5 15 5.6 2.6 11.1 5.2 16.7 7.6l16.3 7.4zm-.5 0-35.2-12.8c-11.4-4.2-22.5-8.5-33.6-13l3.3-1.9-1.9 10.8-1.9 10.8-3.9 21.6c-1.3 7.2-2.7 14.3-4.2 21.5-1.4 7.2-2.9 14.3-4.2 21.5l-.4-.9 8.6 3.3 8.6 3.2c5.8 2 11.7 4 17.6 5.9l-1.6.6c3.7-6.1 7.4-12 11.2-17.9 3.9-5.9 7.9-11.5 12-17.4l6.2-8.6 6.3-8.8 13.1-17.9z" class="st5"/>
  <path d="m1335.5 666.3-47.9 71.4-34.7-13 14.6-86.5z" class="st4"/>
  <path d="m1335.6 666.2-10.8 17.9-5.6 9.1-5.8 9.2c-3.9 6.1-7.9 12.3-12 18.3-4.2 6.1-8.4 12-12.7 17.9l-.7.9-1-.4c-5.8-2.5-11.4-4.8-17.2-7.1l-8.6-3.3-8.6-3.2-.6-.1.1-.6c1.2-7.2 2-14.4 3-21.8 1-7.2 1.9-14.6 3-21.8l3.3-21.6 1.7-10.8 1.7-10.8.4-3 2.9 1.2c11.5 4.9 23.2 9.9 34.5 15 5.6 2.6 11.1 5.2 16.7 7.6l16.3 7.4zm-.4.1-35.2-12.8c-11.4-4.2-22.5-8.5-33.6-13l3.3-1.9-1.9 10.8-1.9 10.8-3.9 21.6c-1.3 7.2-2.7 14.3-4.2 21.5-1.4 7.2-2.9 14.3-4.2 21.5l-.4-.9 8.6 3.3 8.6 3.2c5.8 2 11.7 4 17.6 5.9l-1.6.6c3.7-6.1 7.4-12 11.2-17.9 3.9-5.9 7.9-11.5 12-17.4l6.2-8.6 6.3-8.8 13.1-17.9z" class="st5"/>
  <path d="m557.1 901.3 267.8 235.5 26.6 63.3 85.4 35.1 217 190.7 11.1 9.9 31.1 27.3 8.7 7.5 18.8 16.8-59.2 24.6-18.9-16.6-13.7-11.9-597.9-525.9" class="st20"/>
  <path d="m1139.6 1530.2-16.9-84.4 33.9-15.4 50.9 71.5z" class="st4"/>
  <path d="m1139.5 1530.3-4.9-20.2-2.5-10.4-2.5-10.5c-1.6-7.1-3.2-14.3-4.5-21.5-1.4-7.2-2.5-14.4-3.7-21.6l-.1-1.2 1-.4c5.8-2.3 11.5-4.6 17.2-7.1l8.5-3.7 8.4-3.9.6-.3.4.4c4.3 5.9 8.8 11.7 13.3 17.4 4.5 5.8 8.9 11.5 13.3 17.4l13 17.7 6.5 8.8 6.3 8.9 1.7 2.5-2.9 1.2c-11.7 4.8-23.4 9.4-35 13.7-5.8 2.2-11.5 4.2-17.2 6.3l-16.9 6.5zm.2-.4 33.9-15.7c11.1-5 21.9-9.9 32.9-14.6l-1 3.6-6.3-8.9-6.2-8.9-12.4-18c-4.2-6.1-8.2-12.1-12.3-18.2-4-6.1-8.1-12.3-12.3-18.2l.9.3-8.5 3.7-8.4 3.9c-5.6 2.6-11.1 5.5-16.6 8.2l.7-1.6c1.6 6.9 3.3 13.7 4.8 20.6 1.4 6.9 2.6 13.8 3.9 20.8l1.7 10.5 1.7 10.7 3.5 21.8z" class="st5"/>
  <path d="m1205.8 1501-35.2-112.1 50.3-19.6 52.6 103.5z" class="st4"/>
  <path d="M1205.6 1501.3c-6.3-17.7-12.7-36.2-18.9-55.1-3-9.4-6.2-18.9-8.9-28.4-2.9-9.5-5.5-19.2-8.2-28.7l-.3-1 1-.3c4.2-1.4 8.5-3 12.7-4.6 4.2-1.6 8.4-3.2 12.7-4.8 4.2-1.7 8.4-3.3 12.5-5 4.2-1.7 8.4-3.5 12.5-5.2l.9-.3.4.9 13.8 25.5c4.6 8.5 9.1 17.2 13.5 25.7 4.5 8.6 8.9 17.2 13.4 25.8 4.5 8.6 8.6 17.3 13 25.9l1.2 2.3-2.3.9-17.4 6.9c-5.8 2.3-11.7 4.6-17.4 6.8l-34.2 12.7zm.2-.4 33.9-15.6c5.5-2.6 11.1-4.9 16.6-7.4l16.4-7.2-1.2 3.2c-4.5-8.6-8.9-17.2-13.3-25.8s-8.6-17.3-13-25.9c-4.3-8.6-8.5-17.4-12.8-26.1l-12.5-26.2 1.3.4c-4.2 1.6-8.5 3-12.7 4.6-4.2 1.6-8.4 3.2-12.5 4.9-4.2 1.7-8.4 3.3-12.5 5-4.2 1.7-8.4 3.5-12.4 5.2l.7-1.4c3.2 9.2 6.3 18.3 9.4 27.4 3 9.1 5.8 18.5 8.5 27.7 5.4 18.6 10.7 37.6 16.1 57.2z" class="st5"/>
  <path d="m676.3 1611.3-148.2 178.9-231.2 21.8-179-148.2-21.8-231.2 148.2-179 231.4-21.8L654.6 1380z" class="st9"/>
  <path d="M676.8 1611.3c-12 15.1-23.9 30.1-36 45.3l-36.3 45.3-36.6 45.3-36.9 45.3-.9 1.2-1.4.1-57.8 5.8-57.8 5.6c-19.3 1.9-38.5 3.7-57.8 5.5-19.3 1.9-38.6 3.5-57.8 5.2l-1.6.1-1.2-1-88.6-75.1-44.3-37.5-44.5-37.3-.4-.4v-.6l-5.3-57.8-5.6-57.8-2.9-28.8-3-28.8-5.9-57.8-.1-1 .7-.9 36.6-45.1 18.3-22.6L168 1341l36.8-45 36.9-45 1.2-1.3 1.7-.1 115.6-11.4 57.8-5.6 57.8-5.5 2-.1 1.6 1.3 89.2 74.4 88.9 74.7 1.2 1 .1 1.4c3.3 38.8 6.5 77.6 9.7 116.2l4.6 57.9 3.7 57.4zm-.9-.1-6.5-57.9-6.3-57.8c-4-38.5-8.2-76.8-12.1-115l1.3 2.5-89.9-73.4-89.8-73.8 3.6 1.2-57.8 5.5-57.8 5.3-115.8 10.2 2.9-1.6-37.2 44.5-37.3 44.5-18.7 22.2-18.7 22.2-37.5 44.4.6-1.9 4.9 57.8 2.5 29 2.6 29 5.3 57.8 5.5 57.8-.6-1 45 36.8L209 1736l90.2 73.1-2.7-.9c19.3-1.9 38.5-3.9 57.8-5.8 19.3-1.9 38.5-3.7 57.8-5.5l57.8-5.3 57.8-5-2.5 1.3 37.2-44.3 37.5-44.1 37.8-44.3c12.8-14.5 25.4-29.3 38.2-44z" class="st10"/>
  <path d="m141.1 1651.5-19.9-211.3 135.4-163.4 211.3-19.9 163.4 135.3 19.9 211.3L515.9 1767l-211.3 19.9z" class="st1"/>
  <path d="m162.9 1640.1-18.2-192.5 123.4-149.1 192.6-18.1 149 123.4 18 192.5-123.2 149.1-192.6 18.1z" class="st11"/>
  <path d="m594.7 1409.2 18.6 180.5-114.4 140.7-180.5 18.6-140.7-114.5-18.4-180.4 114.3-140.7 180.5-18.5z" class="st2"/>
  <path d="M265.7 1587.1 255 1482.7l66.1-81.4 104.4-10.7 81.3 66.2 10.8 104.4-66.3 81.3-104.2 10.8z" class="st12"/>
  <path d="m506.8 1456.8 87.9-47.6 18.6 180.5-95.7-28.5z" class="st13"/>
  <path d="m159.3 1454.1 95.7 28.6 10.7 104.4-88 47.4z" class="st14"/>
  <path d="m347.1 1653.3-81.4-66.2-88 47.4L318.4 1749z" class="st15"/>
  <path d="m454.1 1294.9-28.6 95.7 81.3 66.2 87.9-47.6z" class="st12"/>
  <path d="M425.5 1390.6c7.1 5.2 13.8 10.7 20.8 16 6.9 5.3 13.8 10.7 20.8 16.1l20.6 16.3 20.5 16.3.6.6.1.9 2.9 26.1 2.7 26.1c1.7 17.4 3.6 34.7 5.2 52.2l.1.9-.6.6c-11.1 13.5-22.3 27-33.6 40.2-5.6 6.6-11.2 13.4-17 20-5.6 6.6-11.4 13.3-17.2 19.9 5.2-7.1 10.7-13.8 16-20.8 5.3-6.9 10.7-13.8 16.1-20.8 10.8-13.7 21.6-27.5 32.6-41.1l-.4 1.4c-2-17.3-3.7-34.7-5.6-52.2l-2.6-26.1-2.6-26.1.7 1.4-20.2-16.7-20-16.9c-6.6-5.6-13.4-11.2-20-17-6.8-5.9-13.4-11.5-19.9-17.3z" class="st16"/>
  <path d="M347.1 1653.3c-7.1-5.2-13.8-10.7-20.8-16s-13.8-10.7-20.8-16.1l-20.6-16.3-20.5-16.3-.6-.6-.1-.9-2.9-26.1-2.7-26.1c-1.7-17.4-3.6-34.7-5.2-52.2l-.1-.9.6-.6c11.1-13.5 22.3-27 33.6-40.2 5.6-6.6 11.2-13.4 17-20 5.6-6.6 11.4-13.3 17.2-19.9-5.2 7.1-10.7 13.8-16 20.8-5.3 6.9-10.7 13.8-16.1 20.8-10.8 13.7-21.6 27.5-32.6 41.1l.4-1.4c2 17.3 3.7 34.7 5.6 52.2l2.6 26.1 2.6 26.1-.7-1.4 20.2 16.7 20 16.9c6.6 5.6 13.4 11.2 20 17 6.6 5.7 13.3 11.5 19.9 17.3z" class="st17"/>
  <path d="m594.7 1409.2 18.6 180.5-114.4 140.7-180.5 18.6-140.7-114.5-18.4-180.4 114.3-140.7 180.5-18.5z" class="st18"/>
  <path d="m103.6 959.1 64.5-14 44.7 46.1 49.5-4-38.2 56.5-3.6 109.7 62 61.8-38.8 14.4 43.1-5.3 8.7-8.1-61.6-67.6.5-92 53 54-43.5-65.5 36.7-61.5 71.5 1.1 81.6-67.4 2.5-102.2 47-26.6 9.6 41.7 17.3-3.2-11.5-1.6-13.6-50.7-56.8 35.2-5.4 104.2-73.7 61-98.6-6.5-6.6-32.6 39.1 14.4 40.9-84.9-45.7 74.5-47.9-17.3 9.8 44.7-16.8-1.9-43.8-52.9-53.1 3.2z" class="st19"/>
  <path d="m136.8 1035.6 84.3 10.7-.4 18.4-82.6 15.9-10.5-23.1z" class="st4"/>
  <path d="M136.8 1035.5c6.9.6 13.8 1.3 20.8 2 7.1.7 14.1 1.4 21.2 2.3 7.1.9 14.1 1.6 21.2 2.6s14.1 2.2 21.2 3.2l.7.1v.6c-.1 1.6-.3 3-.3 4.6-.1 1.6-.1 3-.1 4.6 0 3-.1 6.2 0 9.2v.4l-.6.1-20.6 4.5c-6.9 1.4-13.7 2.9-20.6 4.2-6.9 1.4-13.7 2.7-20.6 4.2-6.9 1.3-13.8 2.6-20.6 3.9l-1.2.1-.4-1-10.2-23.2-.1-.4.1-.4 5.2-11 4.9-10.6zm.1.2-4.2 11.2-4.2 11v-.9l10.8 22.9-1.6-.9c6.9-1.4 13.7-2.7 20.6-4s13.8-2.6 20.6-3.9c6.9-1.3 13.8-2.5 20.8-3.7l20.8-3.5-.6.6c.3-3 .3-6.2.4-9.2v-4.6c0-1.6 0-3-.1-4.6l.6.7c-7.1-.7-14-1.4-20.9-2.2s-13.8-1.7-20.9-2.7c-6.9-1-14-1.9-21-3-6.8-.8-13.9-2-21.1-3.2z" class="st5"/>
  <path d="m999.1 1297.7-60.9 144.2 105.4 93.3-96.9-93.3 55.7-121.6 49.4 68.3 59.1-15.3 12.7 35.9-5.8-49.8-66 13.9-35.3-61.9 46.6-70.1-26.3-18.6-17.1 7.2 23.9 19.5z" class="st19"/>
  <path d="m1192.2 104.6 91.1 213.7-86.6 215.5-213.6 91.1-215.7-86.6-91.1-213.8L763 109l213.7-91.1z" class="st9"/>
  <path d="M1192.6 104.3c7.9 17.4 15.7 35.2 23.6 52.8l23.6 53 23.5 53.3 23.4 53.5.6 1.3-.6 1.4-21.3 54.1-21.5 53.9c-7.2 18-14.4 35.9-21.6 53.9-7.2 18-14.6 35.9-21.9 53.8l-.6 1.4-1.4.6-107.4 44.4-53.6 22.2-53.6 22.5-.6.3-.6-.3-53.9-21.8-53.9-21.5-27-10.7-27.1-10.5-54.1-21.2-.9-.4-.4-1-23.4-53.2-11.7-26.5-11.5-26.7-23.2-53.3-23.1-53.3-.7-1.6.7-1.7 43-108 21.6-53.9 21.6-53.9.7-1.9 1.9-.7 107-45.1 107.2-44.8 1.6-.7 1.3.6c36 14.8 71.9 29.8 107.7 44.7l53.5 22.5 53.1 22.5zm-.7.7-54.5-20.9-54.2-20.9c-36-14-72.1-27.8-107.8-41.9h2.7L871.6 67.5l-106.7 46 2.6-2.6-21.6 53.9-21.8 53.9-43.8 107.5V323l22.5 53.5 22.3 53.6 11.2 26.8 11.1 26.8 22.2 53.6-1.3-1.3 53.6 22.2 26.8 11.1 27 11 53.8 21.8 53.9 21.6h-1.2l53.3-23.2 53.2-23.4 106.4-46.7-2 2c7.1-18 14.1-36 21.5-54.1 7.2-18 14.4-35.9 21.6-53.9l21.8-53.8 21.9-53.8v2.7l-22.2-53.3-22.1-53.5-21.9-53.8c-7.2-17.9-14.6-35.9-21.8-53.9z" class="st10"/>
  <path d="m785.9 519.6-83.3-195.2 79.1-197.1L977 44.2l196.9 79.1 83.3 195.3-79.3 196.9-195.1 83.3z" class="st1"/>
  <path d="m803 502-75.9-177.9 72.2-179.5 178-75.9 179.5 72.2 75.8 177.9-72.1 179.6-178 75.8z" class="st11"/>
  <path d="m1146.7 156.8 71 166.9-67.6 168.2L983.4 563 815 495.3l-71.1-166.7 67.6-168.4 167-71.1z" class="st2"/>
  <path d="m884.9 424-41.1-96.4 39.1-97.3 96.6-41.3 97.3 39.2 41 96.5-39 97.3-96.6 41.1z" class="st12"/>
  <path d="m1076.8 228.2 69.9-71.4 71 166.9-99.9 1z" class="st13"/>
  <path d="m743.9 328.6 99.9-1 41.1 96.4-69.9 71.3z" class="st14"/>
  <path d="M982.2 463.1 884.9 424 815 495.3 983.4 563z" class="st15"/>
  <path d="m978.5 89.1 1 99.9 97.3 39.2 69.9-71.4z" class="st12"/>
  <path d="M979.5 189c8.2 2.9 16.4 6.1 24.6 9.1 8.2 3 16.4 6.1 24.5 9.2l24.5 9.4 24.4 9.5.7.3.3.7 10.4 24.1 10.4 24.1c6.8 16.1 13.7 32.1 20.3 48.3l.3.9-.3.7c-6.6 16.1-13.4 32.3-20.2 48.4-3.5 8.1-6.8 16.1-10.4 24.1-3.5 8.1-6.9 16-10.5 24.1 2.9-8.2 6.1-16.4 9.1-24.6 3-8.2 6.1-16.4 9.2-24.5 6.2-16.3 12.5-32.6 18.9-48.9v1.6c-7.1-16-13.8-32.1-20.8-48.1l-10.2-24.2-10.1-24.2 1.2 1.2-24.2-10.1-24.2-10.1c-8.1-3.5-16.1-6.9-24.1-10.4-7.8-3.5-15.9-7-23.8-10.6z" class="st16"/>
  <path d="M982.2 463.1c-8.2-2.9-16.4-6.1-24.6-9.1-8.2-3-16.4-6.1-24.5-9.2l-24.5-9.4-24.4-9.5-.7-.3-.3-.7-10.4-24.1-10.4-24.1c-6.8-16.1-13.7-32.1-20.3-48.3l-.3-.9.3-.7c6.6-16.1 13.4-32.3 20.2-48.4 3.5-8.1 6.8-16.1 10.4-24.1 3.5-8.1 6.9-16 10.5-24.1-2.9 8.2-6.1 16.4-9.1 24.6s-6.1 16.4-9.2 24.5c-6.2 16.3-12.5 32.6-18.9 48.9v-1.6c7.1 16 13.8 32.1 20.8 48.1l10.2 24.2 10.1 24.2-1.2-1.2 24.2 10.1 24.2 10.1c8.1 3.5 16.1 6.9 24.1 10.4 7.8 3.6 15.9 7.1 23.8 10.6z" class="st17"/>
  <path d="m1146.7 156.8 71 166.9-67.6 168.2L983.4 563 815 495.3l-71.1-166.7 67.6-168.4 167-71.1z" class="st18"/>
  <path d="m960.6 1695.5-13.9 91.4 150.8 17.3-20.2 62.1 33.3 25.4v45.1l25.3-6.5v-44l-38.4-15.2 113.5-47.6-7.3-60 69.8-37.7 11.8-30.3-28.6 30.3-64.2 37.7 7.8 52.6-102.8 36.4 18.5-60.6-157-14.8 96-51.3 16-56.2 60.7-14.3 11.2-48.2-25.1 46.2-54.9 2-19.3 61.5-77 46.7z" class="st19"/>
</svg>
