<svg xmlns="http://www.w3.org/2000/svg" xml:space="preserve" id="Layer_1" x="0" y="0" style="enable-background:new 0 0 2000 2000" version="1.1" viewBox="0 0 2000 2000">
  <style>
    .st2{fill:#f7d95c}.st3{fill:#fcf494}.st5{fill:#f3b75e}.st6{fill:#a57955}.st10{fill:#2599a5;stroke:#0e6b9a;stroke-width:6.2991;stroke-miterlimit:10}.st11{fill:#4bc4d5}.st12{opacity:.39;fill:#323773}.st13{fill:#12779f}.st14{fill:#8bd1cc}.st15{fill:#2599a5}.st16{fill:#0e6b9a}.st17{fill:#126c8c}.st18{fill:#f9e073}.st19{fill:#f8e9ab}.st20{fill:#e2c547}.st21{fill:#eed057}.st22{fill:#fff2bc}.st23{fill:#ddc043}.st24{fill:none;stroke:#ddc043;stroke-width:3.1496;stroke-miterlimit:10}.st39{opacity:.64;fill:#d71f27}.st63{fill:#84d0d0}
  </style>
  <path d="m675.1 1284.6-109.3-261.9 107.9-262.5 261.9-109.3 262.5 107.9 109.3 261.9-107.9 262.5-261.9 109.3-262.5-107.9zm172.1-351.8-36.7 89.2 37.2 89 89.2 36.7 89-37.2 36.7-89.2-37.2-89-89.2-36.7-89 37.2z" class="st10"/>
  <path d="m689.5 1270.1-103.3-247.5 101.9-248.1 247.5-103.3 248.1 101.9 103.3 247.5-102 248.1L937.5 1372l-248-101.9zm143.2-351.8L790.1 1022l43.2 103.5 103.7 42.6 103.5-43.2 42.6-103.7-43.2-103.5-103.7-42.6-103.5 43.2z" class="st11"/>
  <path d="M938.3 1666.6 481.8 1479l-190.2-455.6 187.7-456.6 455.6-190.2 456.6 187.7 190.2 455.6-187.7 456.6-455.7 190.1zm-265.8-379.4 265.1 109 264.5-110.4 109-265.1-110.4-264.5-265.1-109L671 757.5l-109 265.1 110.5 264.6z" class="st10"/>
  <path d="m505.8 1454.8-180.1-431.5 177.7-432.5 431.5-180.1 432.5 177.7 180.1 431.5-177.7 432.5-431.5 180.1-432.5-177.7zm141-721.3-118.9 289.3 120.5 288.6 289.3 118.9 288.6-120.5 118.9-289.3-120.5-288.6L935.4 613 646.8 733.5z" class="st11"/>
  <path d="m570.7 1389.5-153-366.5 151-367.3 366.5-153 367.3 151 153 366.5-151 367.3-366.5 153-367.3-151zm10.9-720.9L435.9 1023l147.6 353.6 354.4 145.7 353.6-147.6 145.7-354.4-147.6-353.6L935.2 521 581.6 668.6z" class="st2"/>
  <path d="m570.5 1389.7-38.7-91.2-38.7-91.4-77.2-183.2-.3-.8.3-.8L491 838.5l37.7-91.8 37.9-91.8.3-.8.8-.3L751.2 578l91.8-37.9 91.7-38 .3-.1.3.1 91.8 37.8 91.9 37.6 91.9 37.5 91.9 37.5.5.2.2.6 77.1 183 76.8 183.1.4.9-.4 1-75.2 183.8-75.4 183.7-.4 1.1-1.1.4-183.3 76.2-183.4 76-.8.3-.8-.3-183.6-76.3-182.9-76.5zm.4-.4 184.2 74.6 183.7 74.7h-1.6l183-76.9 183.1-76.7-1.5 1.5 75.5-183.6 75.7-183.6v1.9l-76-183.4-75.9-183.5.8.8-91.7-38-91.7-37.9-91.8-37.8-91.8-37.7h.7L843.9 542l-91.5 38.6-183 77.2 1.2-1.2-37.6 91.9-37.8 91.8-75.7 183.5v-1.6l75.8 183.2 37.8 91.8 37.8 92.1z" class="st3"/>
  <path d="m581.8 668.8-35.9 89-36 88.8-72.1 177.2v-1.6l74.1 176.7 36.9 88.4 36.8 88.5-1.2-1.2 176.9 73.5 88.5 36.8 88.5 36.6h-.7l88.4-36.9 88.4-37 88.3-37.1 88.3-37.2-.8.8 72.2-177.5 72.5-177.4v1.9l-74.1-176.7-73.8-176.7 1.5 1.5-177.1-73.1-177-73.3h1.6l-176.9 73-177.3 73zm-.4-.4 176.3-74.7 176.8-74.6.8-.3.8.3 177.4 72.4 177.3 72.6 1.1.4.4 1.1 73.8 176.8 73.6 176.9.4.9-.4.9-73.2 177.1-73.4 177-.2.6-.5.2-88.5 36.6-88.5 36.7-88.4 36.8-88.4 36.9-.3.1-.3-.1-88.7-36.2-88.8-36.1-177.5-72.2-.8-.3-.4-.8-37-88.3-36.9-88.4-73.9-176.9-.3-.8.3-.8L507.6 845l36.9-88.4 36.9-88.2z" class="st3"/>
  <path d="m728.9 1541.1 37.1-55.3 15.1 7-14.4 64.7z" class="st5"/>
  <path d="M728.8 1541.1c5.6-9.1 11.5-18.4 17.6-27.8 3.1-4.7 6.1-9.4 9.3-14 3.2-4.6 6.5-9.2 9.7-13.8l.3-.5.5.2c4.9 2.6 9.9 4.9 15 7l.4.2-.1.5-3.2 16.3c-1.1 5.4-2.2 10.8-3.4 16.2-1.2 5.4-2.3 10.8-3.5 16.2-1.2 5.4-2.4 10.8-3.7 16.2l-.4 1.5-1.4-.6-9.6-4.4c-3.2-1.5-6.4-2.9-9.5-4.4l-18-8.8zm.2-.1 19.4 7.7c3.2 1.2 6.3 2.5 9.4 3.8l9.3 3.8-1.8.9c1.2-5.4 2.3-10.8 3.5-16.2 1.2-5.4 2.5-10.8 3.7-16.2 1.2-5.4 2.5-10.8 3.8-16.1l4-16.1.3.6c-4.9-2.6-9.9-4.9-15.1-6.9l.8-.2c-2.9 4.7-5.8 9.3-8.8 13.9-3 4.6-6.1 9.1-9.2 13.6-6 9-12.5 18.1-19.3 27.4z" class="st6"/>
  <path d="m833.2 1584.8 34.5-52.8 11.6 5.4-17.1 60.1z" class="st5"/>
  <path d="M833.1 1584.8c2.7-4.3 5.4-8.7 8.1-13.2 2.7-4.4 5.6-8.9 8.4-13.4 2.8-4.5 5.7-9 8.7-13.4l9-13.2.3-.4.4.2c.9.5 1.9 1 2.8 1.5.9.5 1.9.9 2.9 1.4 2 .9 3.9 1.8 5.9 2.5l.3.1-.1.4-4 15.1c-1.3 5-2.7 10.1-4.1 15.1l-4.2 15.1c-1.4 5-2.9 10-4.3 15l-.3 1.1-1-.5-7.4-3.4c-2.4-1.1-4.9-2.3-7.3-3.4l-14.1-6.6zm.2-.1 14.9 5.9c2.5 1 4.8 2 7.2 2.9l7.2 3-1.3.6 4.2-15 4.4-15c1.5-5 2.9-10 4.4-15l4.6-14.9.2.5c-1.9-1-3.8-1.9-5.7-2.8-1-.4-1.9-.9-2.9-1.3l-3-1.2.6-.2c-2.8 4.4-5.5 8.9-8.3 13.2-2.8 4.4-5.7 8.7-8.6 13-2.9 4.3-5.8 8.7-8.8 13l-9.1 13.3z" class="st6"/>
  <path d="m634.7 1499.9 34.5-52.8 11.6 5.4-17.1 60.1z" class="st5"/>
  <path d="M634.6 1499.9c2.7-4.3 5.4-8.7 8.1-13.2 2.7-4.4 5.6-8.9 8.4-13.4 2.8-4.5 5.7-9 8.7-13.4l9-13.2.3-.4.4.2c.9.5 1.9 1 2.8 1.5.9.5 1.9.9 2.9 1.4 2 .9 3.9 1.8 5.9 2.5l.3.1-.1.4-4 15.1c-1.3 5-2.7 10.1-4.1 15.1l-4.2 15.1c-1.4 5-2.9 10-4.3 15l-.3 1.1-1-.5-7.4-3.4c-2.4-1.1-4.9-2.3-7.3-3.4l-14.1-6.6zm.2 0 14.9 5.9c2.5 1 4.8 2 7.2 2.9l7.2 3-1.3.6 4.2-15 4.4-15c1.5-5 2.9-10 4.4-15l4.6-14.9.2.5c-1.9-1-3.8-1.9-5.7-2.8-1-.4-1.9-.9-2.9-1.3l-3-1.2.6-.2c-2.8 4.4-5.5 8.9-8.3 13.2-2.8 4.4-5.7 8.7-8.6 13-2.9 4.3-5.8 8.7-8.8 13l-9.1 13.3z" class="st6"/>
  <path d="m766.6 1557.6 27.6-39.5 19.3 7.7-9.2 48.2z" class="st5"/>
  <path d="m766.5 1557.6 6.3-9.9c2.1-3.3 4.4-6.7 6.6-10.1 2.3-3.4 4.5-6.8 6.9-10.1 2.4-3.4 4.9-6.6 7.3-9.9l.4-.5.5.2c3.2 1.4 6.3 2.8 9.5 4.2l9.6 3.9.3.1-.1.3c-.7 4-1.3 8.1-2 12.1-.6 4.1-1.3 8.1-1.9 12.1l-2.1 12.1c-.7 4-1.4 8.1-2.2 12.1l-.3 1.7-1.6-.7c-3.2-1.4-6.4-2.9-9.6-4.4l-9.5-4.5c-3.2-1.5-6.2-3-9.3-4.5l-8.8-4.2zm.2-.1 9.9 3.9c3.2 1.3 6.5 2.5 9.6 3.8l9.4 3.8 9.3 3.9-1.9 1c.8-4 1.5-8 2.4-12l2.5-12c.8-4 1.7-8 2.6-12 .9-4 1.8-8 2.6-12l.3.5c-3.2-1.3-6.4-2.6-9.7-3.8-3.2-1.2-6.5-2.4-9.8-3.5l.9-.3c-2.2 3.3-4.3 6.6-6.5 9.9-2.2 3.2-4.6 6.4-6.9 9.6-2.4 3.2-4.7 6.4-7.2 9.6l-7.5 9.6z" class="st6"/>
  <path d="m691.5 1525.6 27.6-39.5 19.3 7.7-9.1 48.3z" class="st5"/>
  <path d="m691.4 1525.6 6.3-9.9c2.1-3.3 4.4-6.7 6.6-10.1 2.3-3.4 4.5-6.8 6.9-10.1 2.4-3.4 4.9-6.6 7.3-9.9l.4-.5.5.2c3.2 1.4 6.3 2.8 9.5 4.2l9.6 3.9.3.1-.1.3c-.7 4-1.3 8.1-2 12.1-.6 4.1-1.3 8.1-1.9 12.1l-2.1 12.1c-.7 4-1.4 8.1-2.2 12.1l-.3 1.7-1.6-.7c-3.2-1.4-6.4-2.9-9.6-4.4l-9.5-4.5c-3.2-1.5-6.2-3-9.3-4.5l-8.8-4.2zm.2-.1 9.9 3.9c3.2 1.3 6.5 2.5 9.6 3.8l9.4 3.8 9.3 3.9-1.9 1c.8-4 1.5-8 2.4-12l2.5-12c.8-4 1.7-8 2.6-12 .9-4 1.8-8 2.6-12l.3.5c-3.2-1.3-6.4-2.6-9.7-3.9-3.2-1.2-6.5-2.4-9.8-3.5l.9-.3c-2.2 3.3-4.3 6.6-6.5 9.9-2.2 3.2-4.6 6.4-6.9 9.6-2.4 3.2-4.7 6.4-7.2 9.6l-7.5 9.7z" class="st6"/>
  <path d="m609.5 1528.5 58.9 25.4 57.3-145-13.6-105.3-34.9-14.4z" class="st12"/>
  <path d="M1226.3 1309.8c9-24.5 18.2-48.9 27.5-73.2l14-36.5 14.2-36.4c4.7-12.1 9.4-24.3 14.2-36.4l14.4-36.4 14.4-36.3 14.6-36.3v4.7c-10.2-24-20.5-47.9-30.6-72l-30.3-72.1c-10-24.1-20.1-48.1-30-72.2-10-24.1-19.8-48.2-29.6-72.4l3.3 3.3-36-15.2c-12-5-24-10.2-36-15.3-24-10.2-48-20.4-71.9-30.9l-35.9-15.6-35.8-15.7c-23.9-10.5-47.7-21.1-71.4-31.9 24.5 9 48.9 18.2 73.2 27.5l36.5 14 36.4 14.2c24.3 9.4 48.5 19 72.8 28.6 12.1 4.8 24.3 9.5 36.3 14.4l36.3 14.6 2.3.9 1 2.4c10.2 24 20.5 47.9 30.6 72 10.2 24 20.2 48.1 30.3 72.1l30 72.2c10 24.1 19.8 48.2 29.6 72.4l1 2.4-1 2.3-15.2 36-15.3 36-15.4 36c-5.1 12-10.3 23.9-15.5 35.9l-15.6 35.9-15.7 35.8c-10.3 23.6-20.9 47.4-31.7 71.2z" class="st13"/>
  <path d="M646.8 733.5c-9.5 24.3-19.1 48.5-28.8 72.7l-14.4 36.3-14.6 36.3-29.2 72.5-29.4 72.5v-2.1l30.3 72.1 30.2 72.1 30 72.2 29.9 72.2-1.5-1.5 72.2 30.1 72.1 30.2 36 15.2 36 15.3c24 10.2 48 20.3 71.9 30.7-24.3-9.5-48.5-19.1-72.7-28.8l-36.3-14.4-36.3-14.6-72.5-29.2-72.5-29.4-1-.4-.4-1-30.3-72.1-30.2-72.1-30-72.2-29.9-72.2-.4-1 .4-1 30.1-72.2 30.2-72.1 15.2-36 15.3-36c10.1-24.2 20.3-48.2 30.6-72.1z" class="st14"/>
  <path d="m656.3 1303.4-117.2-280.7 115.6-281.3 280.7-117.2 281.3 115.6 117.2 280.7-115.6 281.3L937.6 1419l-281.3-115.6zm281.3 85.6 259.5-108.3 106.9-260.1-108.3-259.5-260.1-106.8-259.5 108.3-106.9 260.1 108.3 259.5L937.6 1389z" class="st2"/>
  <path d="m656.2 1303.6-59.3-139.9-59.1-140.3-.2-.6.2-.6 57.6-140.8 28.9-70.3 29-70.3.3-.6.6-.3 140.6-58.1 70.3-29 70.2-29.2.3-.1.3.1 70.3 29 70.4 28.8 70.4 28.8 70.4 28.7.4.2.2.4 59 140.2 58.9 140.2.3.7-.3.7-57.6 140.7-57.8 140.7-.3.8-.8.3-140.4 58.4-140.5 58.3-.6.2-.6-.2-140.6-58.4-140.5-58.5zm.3-.3 141.1 57.1 140.7 57.2h-1.2l140.2-58.9 140.3-58.8-1.1 1.1 57.9-140.7 58-140.6v1.4L1274 880.8l-58.1-140.5.6.6-70.2-29.1-70.3-29.1-70.3-29-70.4-28.8h.5l-70.1 29.4-70.1 29.6L655.5 743l.9-.9-28.8 70.4-28.9 70.3-58 140.6v-1.2l58.1 140.4 57.7 140.7z" class="st3"/>
  <path d="m937.6 1388.8 129.5-55 129.4-54.5-.8.8 53.2-130.1 26.7-65 26.8-65v1.3l-53.7-129.9-26.8-65-27-64.9.4.4-65-26.8-65-26.6-65.1-26.6-65.1-26.5h.8L806.3 710l-129.6 54.4 1-1-53.3 130.1-53.4 130.1v-1.6l54 129.8 53.8 129.9-.8-.8 129.6 53.9 130 54zm0 .4-130.2-52.7-130.4-53-.6-.2-.2-.6-54.5-129.6-54.3-129.7-.3-.8.3-.8 53.5-130 53.6-130 .3-.7.7-.3L805.2 707l129.9-53.7.4-.2.4.2 64.9 26.9 65 26.9 65 26.8 65 26.7.3.1.1.3 27.2 64.8 27.3 64.8 54.7 129.5.3.6-.3.6-26.6 65.1-26.7 65-53.6 130-.2.6-.6.2-130.1 53.8-130 53.2z" class="st3"/>
  <path d="M938.3 1632.5c-36.4-13.9-72.7-28-109-42.2l-54.4-21.4-54.3-21.5-54.3-21.6-54.3-21.7-54.2-21.8-54.2-21.9-2.3-.9-1-2.4c-15.2-35.9-30.4-71.7-45.5-107.7l-45.2-107.8-44.9-107.9c-14.9-36-29.7-72-44.6-108.1l-1-2.4 1-2.3 22.5-53.9 22.7-53.9c15.1-35.9 30.2-71.8 45.6-107.7l22.9-53.8 23.1-53.7c15.4-35.8 30.9-71.5 46.7-107.2-13.9 36.4-28 72.7-42.2 109l-21.3 54.4-21.5 54.3C404 844.9 389.5 881 375 917.2l-21.8 54.2-21.9 54.2v-4.7c15.2 35.9 30.4 71.7 45.5 107.7l45.2 107.8 44.9 107.9c15 36 29.7 72 44.5 108.1l-3.3-3.3 53.9 22.5 53.9 22.7 53.9 22.7 53.8 22.9 53.8 22.9 53.7 23.1c35.7 15.4 71.5 30.9 107.2 46.6z" class="st13"/>
  <path d="m934.9 410.7 54.3 21.6 54.3 21.7 54.3 21.7 54.2 21.9 108.4 43.9 108.3 44 1.2.5.5 1.2 45.3 107.8 45.1 107.8 44.9 107.9 44.8 108 .5 1.2-.5 1.2-44.8 108-45 107.9-22.6 53.9-22.7 53.9c-15.1 35.9-30.2 71.8-45.5 107.7 14.3-36.2 28.8-72.4 43.3-108.6l21.7-54.3 21.9-54.2 43.9-108.4 44-108.3v2.4l-45.3-107.8-45.1-107.8-44.9-107.9-44.8-108 1.7 1.7-108-44.8-107.9-45-53.9-22.6-53.9-22.7-53.9-22.7-53.8-22.8z" class="st14"/>
  <path d="m1265.8 1524.3-58.9 25.3-57.3-145 6.8-76.8 41.7-42.9zM730.3 465.1l-47.7 51L740 671.2l44.3 13.3 41.5-14.9z" class="st12"/>
  <path d="m1478.4 1165.6 94.2 130.7-25.8 159.1-130.8 94.2-159.1-25.8-94.2-130.8 25.8-159.1 130.8-94.2z" class="st15"/>
  <path d="M1478.5 1165.3c8 10.6 16 21.4 24 32.1l24.1 32.3 24 32.5 23.9 32.7.6.8-.2 1-6.2 39.8-6.3 39.8c-2.1 13.3-4.3 26.5-6.4 39.8-2.1 13.3-4.4 26.5-6.6 39.7l-.2 1.1-.9.6-65.9 46.4-33 23.2-32.8 23.3-.3.2-.4-.1-39.8-6.5-39.8-6.3-19.9-3.1-19.9-3.1-39.8-6.1-.7-.1-.4-.6-23.9-32.4-11.9-16.2-11.9-16.3-23.8-32.5-23.7-32.6-.7-1 .2-1.2 12.6-79.6 6.4-39.8 6.5-39.8.2-1.4 1.1-.8 65.6-46.9 65.7-46.6.9-.6 1 .2c26.6 4.5 53.2 9.3 79.7 13.9l39.7 7 39.2 7.2zm-.3.5-40.1-5.8-39.9-5.9c-26.5-4-53-7.9-79.4-12l1.8-.4-65 47.6-65.2 47.4 1.4-2.2-6.5 39.8-6.5 39.8-13.2 79.5-.5-2.2 23.4 32.8 23.3 32.9 11.7 16.4 11.6 16.5 23.2 32.9-1.1-.7 39.7 6.8 19.9 3.4 19.9 3.3 39.8 6.6 39.8 6.4-.8.2 32.5-23.8 32.4-23.9 64.9-47.8-1.1 1.7c2.1-13.3 4.1-26.5 6.3-39.8 2.1-13.3 4.3-26.5 6.5-39.8l6.6-39.8 6.7-39.7.4 1.8-23.2-32.7-23.1-32.9-23.1-33.1c-7.7-11.1-15.4-22.1-23.1-33.3z" class="st16"/>
  <path d="m1266.5 1508.3-86.1-119.4 23.6-145.4 119.5-86.1 145.3 23.6 86.1 119.5-23.6 145.3-119.5 86.1z" class="st11"/>
  <path d="m1275.4 1493.8-78.4-108.9 21.5-132.4 108.9-78.5 132.4 21.5 78.5 108.9-21.5 132.5-108.9 78.4z" class="st17"/>
  <path d="m1453.9 1204.8 73.7 102-20 124.2-102 73.6-124.3-20-73.6-102 20-124.2 102-73.7z" class="st2"/>
  <path d="m1317.7 1425.6-42.6-59 11.6-71.8 59-42.6 71.8 11.6 42.6 58.9-11.5 71.9-59 42.6z" class="st18"/>
  <path d="m1417.5 1263.8 36.4-59 73.7 102-67.5 15.9z" class="st19"/>
  <path d="m1207.7 1382.6 67.4-16 42.6 59-36.4 59z" class="st20"/>
  <path d="m1389.6 1437.2-71.9-11.6-36.4 59 124.3 20z" class="st21"/>
  <path d="m1329.7 1184.7 16 67.5 71.8 11.6 36.4-59z" class="st18"/>
  <path d="M1345.7 1252.2c6 .7 12 1.6 18 2.4 6 .8 12 1.6 18 2.5l18 2.6 18 2.7.6.1.4.5 10.7 14.7 10.7 14.7c7.1 9.9 14.2 19.7 21.2 29.6l.3.5-.1.6c-2 12-4.1 23.9-6.3 35.8-1.1 6-2.2 11.9-3.3 17.9-1.1 6-2.2 11.9-3.4 17.9.7-6 1.6-12 2.4-18 .8-6 1.6-12 2.5-18 1.7-12 3.5-24 5.3-36l.3 1.1c-7.2-9.8-14.3-19.6-21.4-29.4l-10.6-14.8-10.6-14.8.9.6-17.9-3.1-17.9-3.2c-6-1.1-11.9-2.2-17.9-3.3-6-1.3-11.9-2.4-17.9-3.6z" class="st22"/>
  <path d="M1389.6 1437.2c-6-.7-12-1.6-18-2.4-6-.8-12-1.6-18-2.5l-18-2.6-18-2.7-.6-.1-.4-.5-10.7-14.7-10.7-14.7c-7.1-9.9-14.2-19.7-21.2-29.6l-.3-.5.1-.6c2-12 4.1-23.9 6.3-35.8 1.1-6 2.2-11.9 3.3-17.9 1.1-6 2.2-11.9 3.4-17.9-.7 6-1.6 12-2.4 18-.8 6-1.6 12-2.5 18-1.7 12-3.5 24-5.3 36l-.3-1.1c7.2 9.8 14.3 19.6 21.4 29.4l10.6 14.8 10.6 14.8-.9-.6 17.9 3.1 17.9 3.2c6 1.1 11.9 2.2 17.9 3.3 6 1.3 11.9 2.4 17.9 3.6z" class="st23"/>
  <path d="m1453.9 1204.8 73.7 102-20 124.2-102 73.6-124.3-20-73.6-102 20-124.2 102-73.7z" class="st24"/>
  <path d="m913.8 870.8 8.9 81.5 13.3 29.3 12.5-29.4 7.5-81.4zM806.8 1099l71.3-40.5 21.6-23.8-32 .1-77.6 25.4zM1078 1056.5l-79.1-21.8-32 1.5 22.6 22.5 72.9 37z" class="st11"/>
  <path d="M966.9 1036.2c2.1 1.7 4.2 3.4 6.2 5.1 2 1.7 4 3.5 6 5.3 2 1.8 3.9 3.6 5.9 5.4 2 1.8 3.9 3.6 5.8 5.5l-.5-.3c2.2 1 4.4 2.1 6.6 3.2 2.2 1.1 4.4 2.1 6.5 3.3 4.3 2.2 8.7 4.5 12.9 6.8 2.2 1.1 4.3 2.3 6.4 3.5 2.1 1.2 4.3 2.4 6.4 3.6 4.2 2.4 8.4 5 12.5 7.7-4.6-1.7-9.1-3.6-13.6-5.6-2.2-1-4.5-2-6.7-3s-4.4-2-6.6-3.1c-4.4-2.1-8.8-4.3-13.1-6.4-2.2-1.1-4.3-2.2-6.5-3.3-2.2-1.1-4.3-2.2-6.5-3.4l-.3-.2-.2-.2c-1.8-1.9-3.7-3.8-5.5-5.8-1.8-2-3.6-3.9-5.4-5.9-1.8-2-3.6-4-5.3-6-1.6-2-3.4-4.1-5-6.2zM831.1 1085.2c3.7-2.7 7.4-5.2 11.2-7.7 1.9-1.2 3.8-2.5 5.7-3.6 1.9-1.2 3.8-2.4 5.8-3.6l5.8-3.5 5.9-3.4c1.9-1.1 3.9-2.2 5.9-3.3 2-1.1 3.9-2.2 5.9-3.3l-.5.4 5.6-5.8 5.7-5.7c1.9-1.9 3.8-3.8 5.8-5.6 1.9-1.8 3.9-3.7 6-5.4-1.6 2.2-3.2 4.3-4.8 6.5-1.6 2.1-3.3 4.2-5 6.3-1.7 2.1-3.4 4.1-5.1 6.2l-5.2 6.1-.2.2-.3.2c-1.9 1.2-3.9 2.3-5.8 3.4-2 1.1-3.9 2.3-5.9 3.4l-5.9 3.3-6 3.2c-2 1.1-4 2.1-6 3.1s-4 2-6.1 3c-4.3 1.9-8.4 3.8-12.5 5.6zM916.9 899.2c1 4.4 1.8 8.8 2.6 13.1.4 2.2.8 4.4 1.1 6.6.3 2.2.7 4.4 1 6.6l.9 6.6.8 6.6c.3 2.2.5 4.4.7 6.6l.7 6.6-.2-.6 3.1 7.4 3 7.5c1 2.5 1.9 5 2.8 7.5.9 2.5 1.8 5.1 2.6 7.6-1.4-2.3-2.7-4.6-4-7-1.3-2.3-2.5-4.7-3.8-7.1l-3.6-7.2-3.5-7.2-.1-.2v-.3l-.8-6.6c-.3-2.2-.5-4.4-.7-6.6l-.7-6.6-.6-6.7c-.2-2.2-.3-4.4-.5-6.7-.2-2.2-.3-4.4-.4-6.7-.3-4.2-.4-8.7-.4-13.2z" class="st17"/>
  <path d="m602 1095 77.8-24.4 13.6 34.9-71.8 36.6z" class="st5"/>
  <path d="M601.8 1094.9c12.3-4.4 25.1-8.8 38.2-13.1 6.5-2.1 13.1-4.3 19.7-6.2 6.6-2 13.3-3.8 19.9-5.7l.7-.2.2.7c1 2.9 2.1 5.9 3.2 8.8 1.1 2.9 2.2 5.8 3.3 8.8 1.2 2.9 2.3 5.8 3.5 8.7l3.6 8.7.2.6-.6.3-17.7 9.6c-5.9 3.2-11.9 6.3-17.8 9.4-6 3.1-11.9 6.2-17.9 9.3-6 3.1-12 6.1-18 9l-1.6.8-.6-1.6-4.8-12.1c-1.6-4-3.2-8.1-4.7-12.1l-8.8-23.7zm.3.2 10.8 23.5c1.8 3.8 3.4 7.7 5.1 11.5l5 11.4-2.2-.8c6-3.1 11.9-6.2 17.9-9.2l18-9c6-3 12-5.9 18.1-8.9l18.2-8.7-.3.9c-1.1-2.9-2.1-5.9-3.3-8.8-1.1-2.9-2.2-5.8-3.4-8.7-1.2-2.9-2.3-5.8-3.5-8.7-1.2-2.9-2.4-5.8-3.6-8.6l1 .5c-6.4 2.2-12.7 4.4-19 6.5-6.3 2.1-12.8 4-19.2 5.9-12.9 3.8-26 7.4-39.6 11.2z" class="st6"/>
  <path d="m621.5 1142 58.5-11.6 10.6 23.4-49.5 35.3z" class="st5"/>
  <path d="m621.3 1141.9 14-3.4 7.2-1.7 7.3-1.7c4.9-1.1 9.9-2.2 14.9-3.1 5-1 10-1.8 15-2.6l.8-.1.3.7c1.6 4 3.2 8 4.9 11.9l2.6 5.9 2.7 5.8.2.4-.3.3c-4.1 3-8.1 6.1-12.1 9.2-4 3.1-8 6.2-12.1 9.2l-12.3 9-6.1 4.5-6.2 4.4-1.7 1.2-.8-2c-3.3-8.1-6.5-16.2-9.5-24.3-1.5-4-2.9-8-4.4-11.9l-4.4-11.7zm.3.2 10.9 23.5c3.5 7.7 6.9 15.2 10.1 22.8l-2.5-.7 6.2-4.4 6.2-4.3 12.5-8.7c4.2-2.9 8.4-5.7 12.6-8.5 4.2-2.8 8.5-5.6 12.6-8.5l-.2.6-2.6-5.9-2.7-5.8c-1.8-3.9-3.8-7.7-5.7-11.5l1.1.5c-4.8 1.1-9.5 2.3-14.3 3.3-4.8 1-9.6 1.8-14.4 2.7l-7.3 1.2-7.4 1.2-15.1 2.5z" class="st6"/>
  <path d="m581.8 1049.1 58.5-11.6 10.6 23.4-49.5 35.3z" class="st5"/>
  <path d="m581.7 1049 14-3.4 7.2-1.7 7.3-1.7c4.9-1.1 9.9-2.2 14.9-3.1 5-1 10-1.8 15-2.6l.8-.1.3.7c1.6 4 3.2 8 4.9 11.9l2.6 5.9 2.7 5.8.2.4-.3.3c-4.1 3-8.1 6.1-12.1 9.2-4 3.1-8 6.2-12.1 9.2l-12.3 9-6.1 4.5-6.2 4.4-1.7 1.2-.8-2c-3.3-8.1-6.5-16.2-9.5-24.3-1.5-4-2.9-8-4.4-11.9l-4.4-11.7zm.3.2 10.9 23.5c3.5 7.7 6.9 15.2 10.1 22.8l-2.5-.7 6.2-4.4 6.2-4.3 12.5-8.7c4.2-2.9 8.4-5.7 12.6-8.5 4.2-2.8 8.5-5.6 12.6-8.5l-.2.6-2.6-5.9-2.7-5.8c-1.8-3.9-3.8-7.7-5.7-11.5l1.1.5c-4.8 1.1-9.5 2.3-14.3 3.3-4.8 1-9.6 1.8-14.4 2.7l-7.3 1.2-7.4 1.2-15.1 2.5z" class="st6"/>
  <path d="m1473.1 857.8-65.1 13.4-5.9-15.5 55.7-36.1z" class="st5"/>
  <path d="M1473.3 857.9c-10.3 2.5-21.1 5.1-32 7.5-5.5 1.2-11 2.4-16.5 3.5s-11.1 2-16.6 3l-.6.1-.2-.5c-1.6-5.3-3.6-10.5-5.8-15.6l-.2-.4.4-.3 13.7-9.4c4.6-3.1 9.2-6.2 13.8-9.2 4.6-3 9.2-6.1 13.8-9.1 4.6-3 9.3-6 14-9l1.3-.8.5 1.4 3.7 9.8c1.2 3.3 2.5 6.5 3.6 9.8l7.1 19.2zm-.3-.1-8.5-19.1c-1.4-3.1-2.7-6.2-4-9.3l-4-9.3 1.9.6c-4.6 3-9.2 6.1-13.9 9.1-4.6 3-9.3 5.9-14 8.9-4.7 3-9.3 5.9-14 8.8l-14.1 8.7.2-.7c1.7 5.3 3.7 10.5 5.9 15.5l-.7-.4c5.4-1.3 10.7-2.5 16-3.7 5.3-1.2 10.7-2.2 16.1-3.2 10.8-2.1 21.8-4 33.1-5.9z" class="st6"/>
  <path d="m1429.4 753.6-61.6 13.4-4.5-11.9 54.3-30.9z" class="st5"/>
  <path d="M1429.5 753.6c-4.9 1.2-10 2.5-15 3.7-5.1 1.2-10.2 2.4-15.4 3.6-5.2 1.2-10.3 2.4-15.6 3.5-5.2 1.1-10.5 2.1-15.6 3.1l-.4.1-.1-.4c-.3-1-.6-2-1-3-.3-1-.7-2-1.1-3-.8-2-1.5-4-2.4-5.9l-.1-.3.3-.2 13.4-8c4.5-2.6 9-5.3 13.5-7.9l13.5-7.8c4.5-2.6 9.1-5.1 13.6-7.7l1-.6.4 1 2.9 7.6c.9 2.5 1.9 5 2.8 7.5l5.3 14.7zm-.2-.1-6.5-14.7c-1.1-2.4-2.1-4.8-3.1-7.2l-3-7.1 1.4.5-13.5 7.8-13.6 7.6c-4.5 2.5-9.1 5.1-13.7 7.6l-13.7 7.5.2-.5c.6 2 1.4 4 2.1 6l1.2 3c.4 1 .8 2 1.3 2.9l-.6-.3c5.1-1.2 10.1-2.5 15.2-3.6 5-1.2 10.1-2.2 15.3-3.3 5.1-1.1 10.2-2.1 15.4-3.1l15.6-3.1z" class="st6"/>
  <path d="m1368.6 608.9-47.5 34.7-8.6-9.4 34-47.4 16.4 6.6z" class="st5"/>
  <path d="M1368.7 608.9c-3.7 3-7.6 6-11.4 8.9-3.8 3-7.8 5.9-11.8 8.9-3.9 3-7.9 5.9-12 8.8-4.1 2.9-8.1 5.7-12.2 8.5l-.4.3-.3-.3c-.7-.8-1.3-1.7-2-2.5l-2.1-2.4c-1.5-1.5-2.9-3.1-4.4-4.6l-.2-.2.2-.3 8.3-12 8.4-12c2.8-4 5.6-8 8.4-11.9 2.8-4 5.7-7.9 8.6-11.8l.5-.6.7.3 16.2 6.9.3.1.1.3 2.7 8 2.4 7.6zm-.2-.1-3.3-7.7-3.1-7.5.4.4-16.4-6.4 1.2-.3c-2.8 4-5.6 7.9-8.5 11.9-2.8 4-5.7 7.9-8.6 11.8l-8.7 11.7-8.8 11.7v-.6c1.3 1.7 2.8 3.2 4.2 4.8.7.8 1.4 1.6 2.2 2.3.7.8 1.5 1.5 2.2 2.3l-.6-.1c3.9-3 7.7-6 11.6-8.9 3.9-2.9 7.8-5.8 11.8-8.6 4-2.8 7.9-5.7 12-8.5 4.1-2.6 8.2-5.5 12.4-8.3z" class="st6"/>
  <path d="m1534 1032.3-57.7-11.9 1.2-12.7 58-6.6 6 16.6z" class="st5"/>
  <path d="M1534 1032.4c-4.7-.8-9.5-1.6-14.3-2.5-4.8-.8-9.6-1.8-14.5-2.7-4.8-.9-9.7-1.9-14.6-3s-9.7-2.2-14.5-3.3l-.5-.1.1-.4c.2-1.1.3-2.1.5-3.2.1-1.1.2-2.1.4-3.2.2-2.1.4-4.2.5-6.4v-.3l.4-.1 14.5-2c4.8-.6 9.6-1.3 14.5-1.8 4.8-.6 9.7-1.2 14.5-1.8 4.8-.6 9.7-1.1 14.5-1.6l.8-.1.3.7 5.8 16.6.1.3-.2.3-4.1 7.3-4.2 7.3zm-.1-.2 3.5-7.6 3.5-7.3v.6l-6.3-16.5 1 .6c-4.8.6-9.7 1.2-14.5 1.7-4.8.6-9.7 1-14.5 1.5-4.8.5-9.7 1-14.5 1.5l-14.5 1.3.4-.4c-.3 2.1-.5 4.2-.8 6.3-.1 1.1-.2 2.1-.3 3.2-.1 1.1-.1 2.1-.2 3.2l-.4-.5c4.8.9 9.6 1.7 14.4 2.6 4.8.9 9.5 1.9 14.3 3 4.8 1 9.5 2.1 14.4 3.2 4.8 1.3 9.6 2.4 14.5 3.6z" class="st6"/>
  <path d="m924.9 1626.9 8.8-58.2 12.8.5 9.6 57.6-16.2 6.9z" class="st5"/>
  <path d="M924.8 1626.9c.5-4.7 1.1-9.6 1.7-14.4.6-4.8 1.3-9.7 2-14.6s1.4-9.8 2.2-14.7c.8-4.9 1.7-9.8 2.6-14.6l.1-.5h.4c1.1.1 2.1.2 3.2.3 1.1.1 2.1.1 3.2.2 2.1 0 4.3.2 6.4.1h.3l.1.4 2.7 14.3c.9 4.8 1.8 9.6 2.6 14.4.8 4.8 1.7 9.6 2.5 14.4l2.4 14.4.1.8-.7.3-16.3 6.7-.3.1-.3-.1-7.5-3.7-7.4-3.8zm.2-.1 7.7 3.1 7.5 3.1h-.6l16.1-7.1-.6 1.1c-.8-4.8-1.7-9.6-2.5-14.4-.8-4.8-1.5-9.6-2.3-14.4-.8-4.8-1.5-9.6-2.2-14.4l-2.1-14.4.4.4c-2.1-.2-4.2-.3-6.4-.4-1.1 0-2.1-.1-3.2-.1h-3.2l.5-.4c-.6 4.8-1.2 9.7-1.9 14.5-.6 4.8-1.4 9.6-2.2 14.4-.8 4.8-1.6 9.6-2.5 14.5-.7 4.7-1.6 9.6-2.5 14.5z" class="st6"/>
  <path d="m519 584 32.2 49.4-9.9 8-45.6-36.5 7.5-15.9z" class="st5"/>
  <path d="M519 583.9c2.8 3.9 5.5 7.9 8.3 11.9 2.8 4 5.5 8.1 8.3 12.2 2.8 4.1 5.5 8.2 8.2 12.4 2.7 4.2 5.2 8.4 7.8 12.6l.2.4-.3.2c-.9.6-1.7 1.3-2.6 1.9-.9.6-1.7 1.3-2.5 2-1.6 1.4-3.3 2.7-4.9 4.1l-.3.2-.3-.2-11.6-8.9c-3.8-3-7.7-6-11.5-9s-7.7-6-11.4-9c-3.8-3-7.6-6.1-11.3-9.2l-.6-.5.3-.7 7.7-15.9.2-.3.3-.1 8.1-2.2 7.9-1.9zm-.1.2-7.8 2.8-7.6 2.7.4-.4-7.3 16.1-.3-1.2c3.8 3 7.6 6 11.4 9.1 3.8 3 7.5 6.1 11.3 9.2 3.8 3.1 7.5 6.2 11.3 9.3l11.2 9.4h-.6c1.7-1.3 3.4-2.6 5-3.9.8-.7 1.6-1.3 2.4-2.1l2.4-2.1-.1.6c-2.8-4-5.5-8-8.3-12-2.7-4-5.3-8.1-7.9-12.2-2.6-4.1-5.2-8.2-7.8-12.5-2.5-4.2-5.1-8.4-7.7-12.8z" class="st6"/>
  <path d="m1511.6 953.2-61.7 13.5-4.5-12 54.3-30.9z" class="st5"/>
  <path d="M1511.6 953.3c-4.9 1.2-10 2.5-15 3.7-5.1 1.2-10.2 2.4-15.4 3.6-5.2 1.2-10.3 2.4-15.6 3.5-5.2 1.1-10.5 2.1-15.6 3.1l-.4.1-.1-.4c-.3-1-.6-2-1-3-.3-1-.7-2-1.1-3-.8-2-1.5-4-2.4-5.9l-.1-.3.3-.2 13.4-8c4.5-2.6 9-5.3 13.5-7.9l13.5-7.8c4.5-2.6 9.1-5.1 13.6-7.7l1-.6.4 1 2.9 7.6c.9 2.5 1.9 5 2.8 7.5l5.3 14.7zm-.1-.1-6.5-14.7c-1.1-2.4-2.1-4.8-3.1-7.2l-3-7.1 1.4.5-13.5 7.8-13.6 7.6c-4.5 2.5-9.1 5.1-13.7 7.6l-13.7 7.5.2-.5c.6 2 1.4 4 2.1 6l1.2 3c.4 1 .8 2 1.3 2.9l-.6-.3c5.1-1.2 10.1-2.5 15.2-3.6 5-1.2 10.1-2.2 15.3-3.3 5.1-1.1 10.2-2.1 15.4-3.1l15.6-3.1z" class="st6"/>
  <path d="m1457.8 819.7-47.3 8.8-8.4-19 40.4-28.1z" class="st5"/>
  <path d="m1458 819.7-11.4 2.6c-3.9.9-7.8 1.7-11.8 2.6l-12 2.4c-4 .7-8.1 1.3-12.1 1.9l-.6.1-.2-.5c-1.3-3.2-2.5-6.5-3.9-9.7-1.3-3.2-2.7-6.4-4.2-9.5l-.1-.3.3-.2c3.3-2.4 6.6-4.8 9.9-7.3 3.3-2.5 6.6-4.9 9.9-7.3l10-7.2c3.3-2.4 6.7-4.7 10-7.1l1.4-1 .6 1.6c1.3 3.3 2.6 6.6 3.8 9.9l3.6 9.8c1.2 3.3 2.3 6.5 3.5 9.7l3.3 9.5zm-.3-.1-4.4-9.7c-1.4-3.2-2.9-6.3-4.2-9.4l-4.1-9.3-3.9-9.3 2 .6c-3.4 2.3-6.7 4.7-10.1 6.9l-10.2 6.9c-3.4 2.3-6.8 4.5-10.3 6.7-3.4 2.2-6.9 4.4-10.3 6.7l.1-.5c1.4 3.2 2.7 6.4 4.2 9.5 1.4 3.2 3 6.3 4.5 9.4l-.8-.4c3.9-.9 7.7-1.8 11.5-2.5 3.9-.7 7.7-1.4 11.6-2 3.9-.6 7.9-1.2 11.9-1.8l12.5-1.8z" class="st6"/>
  <path d="m1489 895.1-47.4 8.8-8.3-19 40.3-28z" class="st5"/>
  <path d="m1489.1 895.1-11.4 2.6c-3.9.9-7.8 1.7-11.8 2.6l-12 2.4c-4 .7-8.1 1.3-12.1 1.9l-.6.1-.2-.5c-1.3-3.2-2.5-6.5-3.9-9.7-1.3-3.2-2.7-6.4-4.2-9.5l-.1-.3.3-.2c3.3-2.4 6.6-4.8 9.9-7.3 3.3-2.5 6.6-4.9 9.9-7.3l10-7.2c3.3-2.4 6.7-4.7 10-7.1l1.4-1 .6 1.6c1.3 3.3 2.6 6.6 3.8 9.9l3.6 9.8c1.2 3.3 2.3 6.5 3.5 9.7l3.3 9.5zm-.2-.1-4.4-9.7c-1.4-3.2-2.9-6.3-4.2-9.4l-4.1-9.3-3.9-9.3 2 .6c-3.4 2.3-6.7 4.7-10.1 6.9l-10.2 6.9c-3.4 2.3-6.8 4.5-10.3 6.7-3.4 2.2-6.9 4.4-10.3 6.7l.1-.5c1.4 3.2 2.7 6.4 4.2 9.5 1.4 3.2 3 6.3 4.5 9.4l-.8-.4c3.9-.9 7.7-1.8 11.5-2.5 3.9-.7 7.7-1.4 11.6-2 3.9-.6 7.9-1.2 11.9-1.8l12.5-1.8z" class="st6"/>
  <path d="m425.9 783.6 55.7 36.4-6.7 15.1-65-13.5z" class="st5"/>
  <path d="M425.9 783.5c9.1 5.5 18.6 11.2 28 17.2 4.7 3 9.5 6 14.2 9.2 4.7 3.2 9.3 6.4 13.9 9.6l.5.3-.2.5c-2.6 4.9-4.8 10-6.8 15.1l-.2.4-.5-.1-16.3-3c-5.4-1-10.9-2.1-16.3-3.2s-10.8-2.1-16.3-3.2c-5.4-1.1-10.8-2.3-16.2-3.5l-1.5-.3.6-1.4 4.3-9.6c1.4-3.2 2.8-6.4 4.3-9.5l8.5-18.5zm.1.2-7.4 19.5c-1.2 3.2-2.5 6.3-3.7 9.5l-3.7 9.4-.9-1.7 16.2 3.3c5.4 1.1 10.8 2.3 16.2 3.5l16.2 3.6 16.1 3.8-.6.3c2.5-4.9 4.8-10 6.7-15.2l.2.8c-4.7-2.9-9.4-5.7-14-8.6-4.6-2.9-9.1-6-13.7-9-9.1-6.2-18.2-12.5-27.6-19.2z" class="st6"/>
  <path d="m383.6 888.5 53.2 33.8-5.2 11.6-60.3-16.2z" class="st5"/>
  <path d="M383.5 888.4c4.4 2.6 8.8 5.2 13.3 8 4.5 2.7 9 5.5 13.5 8.2 4.5 2.8 9 5.6 13.5 8.5 4.5 2.9 8.9 5.9 13.3 8.8l.4.2-.2.4c-.5.9-1 1.9-1.4 2.9-.5 1-.9 1.9-1.4 2.9-.8 2-1.7 3.9-2.5 5.9l-.1.3-.4-.1-15.2-3.8c-5-1.3-10.1-2.6-15.1-3.9l-15.1-4c-5-1.3-10.1-2.7-15.1-4.1l-1.1-.3.5-1 3.3-7.4c1.1-2.4 2.2-4.9 3.3-7.3l6.5-14.2zm.1.2-5.7 15c-.9 2.5-1.9 4.9-2.8 7.3l-2.9 7.2-.6-1.3c5 1.3 10.1 2.6 15.1 4l15.1 4.2 15 4.2 15 4.4-.5.2c1-1.9 1.8-3.8 2.7-5.8.4-1 .9-1.9 1.3-2.9l1.2-3 .2.6c-4.5-2.7-8.9-5.4-13.3-8.1-4.4-2.7-8.8-5.6-13.1-8.4-4.4-2.9-8.7-5.7-13.1-8.7l-13.6-8.9z" class="st6"/>
  <path d="m465.8 688.8 53.2 33.9-5.2 11.6-60.3-16.3z" class="st5"/>
  <path d="M465.8 688.7c4.4 2.6 8.8 5.2 13.3 8 4.5 2.7 9 5.5 13.5 8.2 4.5 2.8 9 5.6 13.5 8.5 4.5 2.9 8.9 5.9 13.3 8.8l.4.2-.2.4c-.5.9-1 1.9-1.4 2.9-.5 1-.9 1.9-1.4 2.9-.8 2-1.7 3.9-2.5 5.9l-.1.3-.4-.1-15.2-3.8c-5-1.3-10.1-2.6-15.1-3.9l-15.1-4c-5-1.3-10.1-2.7-15.1-4.1l-1.1-.3.5-1 3.3-7.4c1.1-2.4 2.2-4.9 3.3-7.3l6.5-14.2zm0 .2-5.7 15c-.9 2.5-1.9 4.9-2.8 7.3l-2.9 7.2-.6-1.3c5 1.3 10.1 2.6 15.1 4l15.1 4.2 15 4.2 15 4.4-.5.2c1-1.9 1.8-3.8 2.7-5.8.4-1 .9-1.9 1.3-2.9l1.2-3 .2.6c-4.5-2.7-8.9-5.4-13.3-8.1-4.4-2.7-8.8-5.6-13.1-8.4-4.4-2.9-8.7-5.7-13.1-8.7l-13.6-8.9z" class="st6"/>
  <path d="m409.9 821.5 39.9 27.1-7.5 19.4-48.4-8.5z" class="st5"/>
  <path d="m409.9 821.4 9.9 6.1c3.4 2.1 6.8 4.3 10.2 6.5 3.4 2.2 6.8 4.5 10.2 6.8 3.4 2.3 6.7 4.8 10 7.2l.5.4-.2.5c-1.4 3.2-2.8 6.4-4 9.6-1.3 3.2-2.5 6.4-3.7 9.7l-.1.3-.3-.1c-4-.7-8.1-1.2-12.2-1.8-4.1-.6-8.1-1.2-12.2-1.8l-12.1-1.9c-4-.6-8.1-1.3-12.1-2l-1.7-.3.7-1.6c1.4-3.2 2.8-6.5 4.2-9.7l4.3-9.5c1.4-3.2 2.9-6.2 4.4-9.3l4.2-9.1zm0 .2-3.7 9.9c-1.2 3.2-2.4 6.5-3.6 9.7l-3.6 9.5c-1.2 3.1-2.5 6.2-3.8 9.3l-1-1.9c4 .7 8.1 1.4 12.1 2.2l12.1 2.3c4 .8 8 1.6 12 2.5 4 .8 8 1.7 12 2.5l-.5.3c1.3-3.2 2.5-6.5 3.7-9.7 1.2-3.3 2.3-6.5 3.4-9.8l.3.9c-3.4-2.1-6.7-4.2-10-6.4s-6.5-4.5-9.7-6.8c-3.2-2.3-6.5-4.7-9.7-7.1l-10-7.4z" class="st6"/>
  <path d="m440.9 746 39.9 27.1-7.5 19.4-48.4-8.5z" class="st5"/>
  <path d="m440.9 745.9 9.9 6.1c3.4 2.1 6.8 4.3 10.2 6.5 3.4 2.2 6.8 4.5 10.2 6.8 3.4 2.3 6.7 4.8 10 7.2l.5.4-.2.5c-1.4 3.2-2.8 6.4-4 9.6-1.3 3.2-2.5 6.4-3.7 9.7l-.1.3-.3-.1c-4-.7-8.1-1.2-12.2-1.8-4.1-.6-8.1-1.2-12.2-1.8l-12.1-1.9c-4-.6-8.1-1.3-12.1-2l-1.8-.4.7-1.6c1.4-3.2 2.8-6.5 4.2-9.7l4.3-9.5c1.4-3.2 2.9-6.2 4.4-9.3l4.3-9zm0 .2-3.7 9.9c-1.2 3.2-2.4 6.5-3.6 9.7l-3.6 9.5c-1.2 3.1-2.5 6.2-3.8 9.3l-1-1.9c4 .7 8.1 1.4 12.1 2.2l12.1 2.3c4 .8 8 1.6 12 2.5 4 .8 8 1.7 12 2.5l-.5.3c1.3-3.2 2.5-6.5 3.7-9.7 1.2-3.3 2.3-6.5 3.4-9.8l.3.9c-3.4-2.1-6.7-4.2-10-6.4s-6.5-4.5-9.7-6.8c-3.2-2.3-6.5-4.7-9.7-7.1l-10-7.4z" class="st6"/>
  <path d="m1126.4 1310.7-11.7-58.5 23.5-10.6 35.3 49.5z" class="st5"/>
  <path d="m1126.3 1310.9-3.4-14-1.7-7.2-1.7-7.3c-1.1-4.9-2.2-9.9-3.1-14.9-1-5-1.7-10-2.6-15l-.1-.8.7-.3c4-1.6 8-3.2 11.9-4.9l5.9-2.6 5.8-2.7.4-.2.3.3c3 4.1 6.1 8.1 9.2 12.1 3.1 4 6.2 8 9.2 12.1l9 12.3 4.5 6.1 4.4 6.2 1.2 1.7-2 .8c-8.1 3.3-16.2 6.5-24.3 9.5-4 1.5-8 2.9-11.9 4.4l-11.7 4.4zm.2-.3 23.5-10.9c7.7-3.5 15.2-6.9 22.8-10.1l-.7 2.5-4.4-6.2-4.3-6.2-8.6-12.5c-2.9-4.2-5.7-8.4-8.5-12.6-2.8-4.2-5.6-8.5-8.5-12.6l.6.2-5.9 2.6-5.8 2.7c-3.9 1.8-7.7 3.8-11.5 5.7l.5-1.1c1.1 4.8 2.3 9.5 3.3 14.3 1 4.8 1.8 9.6 2.7 14.4l1.2 7.3 1.2 7.4 2.4 15.1z" class="st6"/>
  <path d="m813.1 919.9-41.6-100.4-97.4 6.5 93.2-2.3 33 86.8-57.8-8.9-21.4 36.6-23.9-11.3 27.5 21.6L750 909l47.8 12.9 11.8 57.1 22-3.9 4.8-12-21.3 2.3zM574.7 567.8l-42.2 100.1 73 64.7-67.1-64.7 38.5-84.4 34.3 47.4 41.1-10.6 8.8 24.9-4-34.6-45.9 9.7-24.4-43 32.3-48.6-18.2-12.9-11.9 5 16.5 13.5zM1410.5 610.1l-20.9 40.7-44.4 3.5-23 32.9-18.3-54.7-48.9-45.7-58 4 10.7-38.9-19.9 38.9.5 8.2 63.4-3 48.9 40.9-52.2 4.5 54.2 5.7 16.6 46.9-32.2 37.6v73.5l53.6 46.6-6.6 36.8-26.6-13.4-20.4 24.1 20.4-18.8 33.2 15.2 6.3-45.9-53.3-49.1v-66.3l47-49.8 22.7 9.5-10.2 40.3 10.2 35v-37.7L1374 694l-28.3-14.6 8.5-8.2h47.7l21.7-29.8z" class="st39"/>
  <path d="m1202.4 813.3 70.2 168.2L921.8 673l14.1-5.9 188.4 77.5zM1403.7 1089.7l-57-55.3 8.8-21.4-51-122.2 128.7 128.4zM1517.2 1090.1l-32.1 78.3-60.7-58.9 29.9-76.6zM476.9 779.9l24.8 21.8-16.5 38.8-11-9.7 1 .2 6.7-15.1-54.5-35.6 46.2 8.1zM570.6 915.6l-62.8-55.2 14.9-40.2 64 56.3M1126.4 1350.4l25.5 27.1-2 23-.3 27.8-64.2-60.8M413.6 1024.1l65.3 140.7-124.8-112.1-13.5-32.1 26.1-63.3 51.3 47.8zM935.1 1514l-121.3-49.9L508 1191l-62.6-160.4 143.7 133.9 59.6 142.8 193 79.3 129.4 112.3zM1059.4 1578l-82.2 34.3-111.3-98.3 74.6 32.1 51.7-25.2z" class="st63"/>
  <path d="m1122.7 732.9-37.8 72.2-34.4-15.1 25-76.6z" class="st5"/>
  <path d="M1122.8 732.8c-5.6 11.8-11.5 24-17.7 36.3-3.1 6.1-6.2 12.3-9.5 18.3-3.3 6.1-6.7 12.1-10 18l-.4.7-.6-.3c-2.8-1.3-5.6-2.7-8.5-4-2.8-1.3-5.7-2.6-8.6-3.8-2.9-1.2-5.7-2.5-8.6-3.7l-8.7-3.6-.6-.2.2-.6 5.8-19.3c2-6.4 3.9-12.8 6-19.2 2-6.4 4-12.8 6.1-19.2 2-6.4 4.2-12.8 6.3-19.1l.6-1.6 1.6.7 11.9 5.2c4 1.7 7.9 3.5 11.8 5.2l22.9 10.2zm-.3.1-24.2-9c-4-1.5-7.9-3-11.8-4.5l-11.6-4.5 2.1-1c-2 6.4-4 12.8-6.2 19.2-2.1 6.4-4.3 12.7-6.4 19.1-2.1 6.4-4.3 12.7-6.5 19.1l-6.7 19-.4-.9c2.8 1.3 5.7 2.6 8.5 3.9 2.8 1.3 5.7 2.5 8.6 3.8 2.9 1.2 5.7 2.5 8.6 3.7 2.9 1.2 5.8 2.4 8.7 3.5l-1 .4c3-6.1 5.9-12.1 8.9-18.1 3-6 6.2-11.9 9.4-17.8 6.4-11.8 13-23.6 20-35.9z" class="st6"/>
  <path d="m1075.6 713.4-33.1 49.6-24.1-9.1 10.1-59.9z" class="st5"/>
  <path d="m1075.8 713.4-7.5 12.4-3.9 6.3-4 6.4c-2.7 4.2-5.5 8.5-8.3 12.7-2.9 4.2-5.9 8.3-8.8 12.4l-.5.6-.7-.3c-4-1.7-7.9-3.3-11.9-4.9l-6-2.3-6-2.2-.4-.1.1-.4c.8-5 1.4-10 2.1-15.1.7-5 1.3-10.1 2.1-15.1l2.3-15 1.2-7.5 1.2-7.5.3-2.1 2 .8c8 3.4 16.1 6.9 23.9 10.4 3.9 1.8 7.7 3.6 11.6 5.3l11.2 5.2zm-.3 0-24.4-8.9c-7.9-2.9-15.6-5.9-23.3-9l2.3-1.3-1.3 7.5-1.3 7.5-2.7 15c-.9 5-1.9 9.9-2.9 14.9s-2 9.9-2.9 14.9l-.3-.6 6 2.3 6 2.2c4 1.4 8.1 2.8 12.2 4.1l-1.1.4c2.6-4.2 5.1-8.3 7.8-12.4s5.5-8 8.3-12.1l4.3-6 4.4-6.1 8.9-12.4z" class="st6"/>
  <path d="m1169.4 751.1-33.2 49.5-24.1-9 10.1-60z" class="st5"/>
  <path d="m1169.5 751-7.5 12.4-3.9 6.3-4 6.4c-2.7 4.2-5.5 8.5-8.3 12.7-2.9 4.2-5.8 8.3-8.8 12.4l-.5.6-.7-.3c-4-1.7-7.9-3.3-11.9-4.9l-6-2.3-6-2.2-.4-.1.1-.4c.8-5 1.4-10 2.1-15.1.7-5 1.3-10.1 2.1-15.1l2.3-15 1.2-7.5 1.2-7.5.3-2.1 2 .8c8 3.4 16.1 6.9 23.9 10.4 3.9 1.8 7.7 3.6 11.6 5.3l11.2 5.2zm-.3.1-24.4-8.9c-7.9-2.9-15.6-5.9-23.3-9l2.3-1.3-1.3 7.5-1.3 7.5-2.7 15c-.9 5-1.9 9.9-2.9 14.9s-2 9.9-2.9 14.9l-.3-.6 6 2.3 6 2.2c4 1.4 8.1 2.8 12.2 4.1l-1.1.4c2.6-4.2 5.1-8.3 7.8-12.4s5.5-8 8.3-12.1l4.3-6 4.4-6.1 8.9-12.4z" class="st6"/>
  <path d="m629.4 914.1 185.8 163.4 18.4 43.9 59.3 24.4 150.5 132.3 7.7 6.8 21.6 19 6 5.2 13.1 11.6-41.1 17.1-13.1-11.5-9.5-8.3-414.8-364.8" class="st63"/>
  <path d="m1033.5 1350.4-11.7-58.5 23.5-10.7 35.3 49.6z" class="st5"/>
  <path d="m1033.4 1350.5-3.4-14-1.7-7.2-1.7-7.3c-1.1-4.9-2.2-9.9-3.1-14.9-1-5-1.7-10-2.6-15l-.1-.8.7-.3c4-1.6 8-3.2 11.9-4.9l5.9-2.6 5.8-2.7.4-.2.3.3c3 4.1 6.1 8.1 9.2 12.1 3.1 4 6.2 8 9.2 12.1l9 12.3 4.5 6.1 4.4 6.2 1.2 1.7-2 .8c-8.1 3.3-16.2 6.5-24.3 9.5-4 1.5-8 2.9-11.9 4.4l-11.7 4.4zm.2-.3 23.5-10.9c7.7-3.5 15.2-6.9 22.8-10.1l-.7 2.5-4.4-6.2-4.3-6.2-8.6-12.5c-2.9-4.2-5.7-8.4-8.5-12.6-2.8-4.2-5.6-8.5-8.5-12.6l.6.2-5.9 2.6-5.8 2.7c-3.9 1.8-7.7 3.8-11.5 5.7l.5-1.1c1.1 4.8 2.3 9.5 3.3 14.3 1 4.8 1.8 9.6 2.7 14.4l1.2 7.3 1.2 7.4 2.4 15.1z" class="st6"/>
  <path d="m1079.4 1330.2-24.4-77.8 34.9-13.6 36.5 71.8z" class="st5"/>
  <path d="M1079.3 1330.4c-4.4-12.3-8.8-25.1-13.1-38.2-2.1-6.5-4.3-13.1-6.2-19.7-2-6.6-3.8-13.3-5.7-19.9l-.2-.7.7-.2c2.9-1 5.9-2.1 8.8-3.2 2.9-1.1 5.8-2.2 8.8-3.3 2.9-1.2 5.8-2.3 8.7-3.5l8.7-3.6.6-.2.3.6 9.6 17.7c3.2 5.9 6.3 11.9 9.4 17.8 3.1 6 6.2 11.9 9.3 17.9 3.1 6 6 12 9 18l.8 1.6-1.6.6-12.1 4.8c-4 1.6-8.1 3.2-12.1 4.7l-23.7 8.8zm.1-.3 23.5-10.8c3.8-1.8 7.7-3.4 11.5-5.1l11.4-5-.8 2.2c-3.1-6-6.2-11.9-9.2-17.9l-9-18c-3-6-5.9-12.1-8.9-18.1l-8.7-18.2.9.3c-2.9 1.1-5.9 2.1-8.8 3.2-2.9 1.1-5.8 2.2-8.7 3.4-2.9 1.2-5.8 2.3-8.7 3.5-2.9 1.2-5.8 2.4-8.6 3.6l.5-1c2.2 6.4 4.4 12.7 6.5 19 2.1 6.3 4 12.8 5.9 19.2 3.8 12.9 7.5 26.1 11.2 39.7z" class="st6"/>
  <path d="m712.1 1406.7-102.8 124.1-160.4 15.1-124.2-102.8-15.1-160.4 102.8-124.2 160.5-15.1L697 1246.2z" class="st15"/>
  <path d="M712.4 1406.7c-8.3 10.5-16.6 20.9-25 31.4l-25.2 31.4-25.4 31.4-25.6 31.4-.6.8-1 .1-40.1 4-40.1 3.9c-13.4 1.3-26.7 2.6-40.1 3.8-13.4 1.3-26.8 2.4-40.1 3.6l-1.1.1-.8-.7-61.5-52.1-30.7-26-30.9-25.9-.3-.3v-.4l-3.7-40.1-3.9-40.1-2-20-2.1-20-4.1-40.1-.1-.7.5-.6 25.4-31.3 12.7-15.7 12.7-15.6 25.5-31.2 25.6-31.2.8-.9 1.2-.1 80.2-7.9 40.1-3.9 40.1-3.8 1.4-.1 1.1.9 61.9 51.6 61.7 51.8.8.7.1 1c2.3 26.9 4.5 53.8 6.7 80.6l3.2 40.2 2.7 40zm-.6-.1-4.5-40.2-4.4-40.1c-2.8-26.7-5.7-53.3-8.4-79.8l.9 1.7-62.4-50.9-62.3-51.2 2.5.8-40.1 3.8-40.1 3.7-80.3 7.2 2-1.1-25.8 30.9-25.9 30.9-13 15.4-13 15.4-26 30.8.4-1.3 3.4 40.1 1.7 20.1 1.8 20.1 3.7 40.1 3.8 40.1-.4-.7 31.2 25.5 31.3 25.3 62.6 50.7-1.9-.6c13.4-1.3 26.7-2.7 40.1-4 13.4-1.3 26.7-2.6 40.1-3.8l40.1-3.7 40.1-3.5-1.7.9 25.8-30.7 26-30.6 26.2-30.7c8.9-10.1 17.6-20.4 26.5-30.6z" class="st16"/>
  <path d="M340.8 1434.6 327 1288l93.9-113.4 146.6-13.8 113.4 93.9 13.8 146.6-93.9 113.4-146.6 13.8z" class="st11"/>
  <path d="m355.9 1426.7-12.6-133.6 85.6-103.4 133.6-12.6 103.4 85.6 12.5 133.6-85.5 103.4-133.6 12.6z" class="st17"/>
  <path d="m655.5 1266.5 12.9 125.2-79.4 97.6-125.2 12.9-97.6-79.4-12.8-125.2 79.3-97.6 125.2-12.8z" class="st2"/>
  <path d="m427.2 1389.9-7.4-72.4 45.9-56.5 72.4-7.4 56.4 45.9 7.5 72.4-46 56.4-72.3 7.5z" class="st18"/>
  <path d="m594.5 1299.5 61-33 12.9 125.2-66.4-19.8z" class="st19"/>
  <path d="m353.4 1297.6 66.4 19.9 7.4 72.4-61 32.9z" class="st20"/>
  <path d="m483.7 1435.8-56.5-45.9-61 32.9 97.6 79.4z" class="st21"/>
  <path d="m557.9 1187.2-19.8 66.4 56.4 45.9 61-33z" class="st18"/>
  <path d="M538.1 1253.6c4.9 3.6 9.6 7.4 14.4 11.1 4.8 3.7 9.6 7.4 14.4 11.2l14.3 11.3 14.2 11.3.4.4.1.6 2 18.1 1.9 18.1c1.2 12.1 2.5 24.1 3.6 36.2l.1.6-.4.4c-7.7 9.4-15.5 18.7-23.3 27.9-3.9 4.6-7.8 9.3-11.8 13.9-3.9 4.6-7.9 9.2-11.9 13.8 3.6-4.9 7.4-9.6 11.1-14.4 3.7-4.8 7.4-9.6 11.2-14.4 7.5-9.5 15-19.1 22.6-28.5l-.3 1c-1.4-12-2.6-24.1-3.9-36.2l-1.8-18.1-1.8-18.1.5 1-14-11.6-13.9-11.7c-4.6-3.9-9.3-7.8-13.9-11.8-4.7-4.2-9.3-8.1-13.8-12.1z" class="st22"/>
  <path d="M483.7 1435.8c-4.9-3.6-9.6-7.4-14.4-11.1-4.8-3.7-9.6-7.4-14.4-11.2l-14.3-11.3-14.2-11.3-.4-.4-.1-.6-2-18.1-1.9-18.1c-1.2-12.1-2.5-24.1-3.6-36.2l-.1-.6.4-.4c7.7-9.4 15.5-18.7 23.3-27.9 3.9-4.6 7.8-9.3 11.8-13.9 3.9-4.6 7.9-9.2 11.9-13.8-3.6 4.9-7.4 9.6-11.1 14.4-3.7 4.8-7.4 9.6-11.2 14.4-7.5 9.5-15 19.1-22.6 28.5l.3-1c1.4 12 2.6 24.1 3.9 36.2l1.8 18.1 1.8 18.1-.5-1 14 11.6 13.9 11.7c4.6 3.9 9.3 7.8 13.9 11.8 4.6 4.1 9.2 8.1 13.8 12.1z" class="st23"/>
  <path d="m655.5 1266.5 12.9 125.2-79.4 97.6-125.2 12.9-97.6-79.4-12.8-125.2 79.3-97.6 125.2-12.8z" class="st24"/>
  <path d="m314.8 954.2 44.7-9.7 31 32 34.4-2.8-26.5 39.2-2.5 76.1 43 42.9-26.9 10 29.9-3.7 6-5.6-42.7-46.9.3-63.8 36.8 37.4-30.2-45.4 25.5-42.7 49.6.8 56.6-46.8 1.7-70.9 32.6-18.4 6.7 28.9 12-2.2-8-1.1-9.4-35.2-39.4 24.4-3.8 72.3-51.1 42.3-68.4-4.5-4.6-22.6 27.1 10 28.4-58.9-31.7 51.7-33.2-12 6.8 31-11.7-1.3-30.4-36.7-36.8 2.2z" class="st39"/>
  <path d="m337.8 1007.3 58.5 7.4-.3 12.8-57.3 11-7.3-16z" class="st5"/>
  <path d="M337.8 1007.2c4.8.4 9.6.9 14.4 1.4 4.9.5 9.8 1 14.7 1.6 4.9.6 9.8 1.1 14.7 1.8 4.9.7 9.8 1.5 14.7 2.2l.5.1v.4c-.1 1.1-.2 2.1-.2 3.2-.1 1.1-.1 2.1-.1 3.2 0 2.1-.1 4.3 0 6.4v.3l-.4.1-14.3 3.1c-4.8 1-9.5 2-14.3 2.9-4.8 1-9.5 1.9-14.3 2.9-4.8.9-9.6 1.8-14.3 2.7l-.8.1-.3-.7-7.1-16.1-.1-.3.1-.3 3.6-7.6 3.5-7.4zm.1.2-2.9 7.8-2.9 7.6v-.6l7.5 15.9-1.1-.6c4.8-1 9.5-1.9 14.3-2.8 4.8-.9 9.6-1.8 14.3-2.7 4.8-.9 9.6-1.7 14.4-2.6l14.4-2.4-.4.4c.2-2.1.2-4.3.3-6.4v-3.2c0-1.1 0-2.1-.1-3.2l.4.5c-4.9-.5-9.7-1-14.5-1.5-4.8-.5-9.6-1.2-14.5-1.9-4.8-.7-9.7-1.3-14.6-2.1-4.7-.6-9.6-1.4-14.6-2.2z" class="st6"/>
  <path d="m936 1189.1-42.2 100.1 73.1 64.7-67.2-64.7 38.6-84.4 34.3 47.4 41-10.6 8.8 24.9-4-34.6-45.8 9.7-24.5-43 32.3-48.6-18.2-12.9-11.9 5 16.6 13.5z" class="st39"/>
  <path d="m1070 361.4 63.2 148.3-60.1 149.5-148.2 63.2-149.6-60.1L712.1 514l60.1-149.5 148.3-63.2z" class="st15"/>
  <path d="M1070.3 361.2c5.5 12.1 10.9 24.4 16.4 36.6l16.4 36.8 16.3 37 16.2 37.1.4.9-.4 1-14.8 37.5-14.9 37.4c-5 12.5-10 24.9-15 37.4s-10.1 24.9-15.2 37.3l-.4 1-1 .4-74.5 30.8-37.2 15.4-37.2 15.6-.4.2-.4-.2-37.4-15.1-37.4-14.9-18.7-7.4-18.8-7.3-37.5-14.7-.6-.3-.3-.7-16.2-36.9-8.1-18.4-8-18.5-16.1-37-16-37-.5-1.1.5-1.2 29.8-74.9 15-37.4 15-37.4.5-1.3 1.3-.5 74.2-31.3 74.4-31.1 1-.4.9.4c25 10.3 49.9 20.7 74.7 31l37.1 15.6 36.9 15.6zm-.5.5-37.8-14.5-37.6-14.5c-25-9.7-50-19.3-74.8-29.1h1.9l-73.9 32.1-74 31.9 1.8-1.8-15 37.4-15.1 37.4-30.4 74.6v-2.3l15.6 37.1 15.5 37.2 7.8 18.6 7.7 18.6 15.4 37.2-.9-.9 37.2 15.4 18.6 7.7 18.7 7.6 37.3 15.1 37.4 15h-.8l37-16.1 36.9-16.2 73.8-32.4-1.4 1.4c4.9-12.5 9.8-25 14.9-37.5 5-12.5 10-24.9 15-37.4l15.1-37.3 15.2-37.3v1.9l-15.4-37-15.3-37.1-15.2-37.3c-5.1-12.5-10.2-25-15.2-37.5z" class="st16"/>
  <path d="m788.1 649.3-57.8-135.4 54.9-136.7 135.5-57.7 136.6 54.9 57.8 135.5-55 136.6-135.4 57.8z" class="st11"/>
  <path d="m800 637.1-52.7-123.4 50.1-124.5 123.5-52.7 124.5 50.1L1098 510l-50 124.6-123.5 52.6z" class="st17"/>
  <path d="m1038.4 397.6 49.3 115.8-46.9 116.7-115.7 49.3-116.8-46.9L759 516.8 805.9 400l115.8-49.3z" class="st2"/>
  <path d="m856.8 583-28.5-66.9 27.1-67.5 67-28.6 67.5 27.2 28.5 66.9-27.1 67.5-67 28.5z" class="st18"/>
  <path d="m989.9 447.2 48.5-49.6 49.3 115.8-69.3.7z" class="st19"/>
  <path d="m759 516.8 69.3-.7 28.5 66.9-48.5 49.5z" class="st20"/>
  <path d="M924.3 610.1 856.8 583l-48.5 49.5 116.8 46.9z" class="st21"/>
  <path d="m921.7 350.7.7 69.3 67.5 27.2 48.5-49.6z" class="st18"/>
  <path d="M922.4 420c5.7 2 11.4 4.2 17.1 6.3 5.7 2.1 11.4 4.2 17 6.4l17 6.5 16.9 6.6.5.2.2.5 7.2 16.7 7.2 16.7c4.7 11.2 9.5 22.3 14.1 33.5l.2.6-.2.5c-4.6 11.2-9.3 22.4-14 33.6-2.4 5.6-4.7 11.2-7.2 16.7-2.4 5.6-4.8 11.1-7.3 16.7 2-5.7 4.2-11.4 6.3-17.1 2.1-5.7 4.2-11.4 6.4-17 4.3-11.3 8.7-22.6 13.1-33.9v1.1c-4.9-11.1-9.6-22.3-14.4-33.4l-7.1-16.8-7-16.8.8.8-16.8-7-16.8-7c-5.6-2.4-11.2-4.8-16.7-7.2-5.4-2.3-11-4.7-16.5-7.2z" class="st22"/>
  <path d="M924.3 610.1c-5.7-2-11.4-4.2-17.1-6.3-5.7-2.1-11.4-4.2-17-6.4l-17-6.5-16.9-6.6-.5-.2-.2-.5-7.2-16.7-7.2-16.7c-4.7-11.2-9.5-22.3-14.1-33.5l-.2-.6.2-.5c4.6-11.2 9.3-22.4 14-33.6 2.4-5.6 4.7-11.2 7.2-16.7 2.4-5.6 4.8-11.1 7.3-16.7-2 5.7-4.2 11.4-6.3 17.1-2.1 5.7-4.2 11.4-6.4 17-4.3 11.3-8.7 22.6-13.1 33.9v-1.1c4.9 11.1 9.6 22.3 14.4 33.4l7.1 16.8 7 16.8-.8-.8 16.8 7 16.8 7c5.6 2.4 11.2 4.8 16.7 7.2 5.4 2.4 11 4.8 16.5 7.2z" class="st23"/>
  <path d="m1038.4 397.6 49.3 115.8-46.9 116.7-115.7 49.3-116.8-46.9L759 516.8 805.9 400l115.8-49.3z" class="st24"/>
  <path d="m909.3 1465.1-9.6 63.4 104.6 12-14 43.1 23.1 17.6v31.3l17.5-4.5v-30.5l-26.6-10.6 78.7-33-5-41.6 48.4-26.2 8.2-21-19.9 21-44.5 26.2 5.4 36.5-71.3 25.2 12.8-42-108.9-10.3 66.6-35.6 11.1-39 42.1-9.9 7.8-33.4-17.4 32-38.1 1.4-13.4 42.7-53.4 32.4z" class="st39"/>
</svg>
