<svg xmlns="http://www.w3.org/2000/svg" xml:space="preserve" id="Layer_1" x="0" y="0" style="enable-background:new 0 0 2000 2000" version="1.1" viewBox="0 0 2000 2000">
  <style>
    .st0{fill:#bc6f5c;stroke:#83413d;stroke-width:15.1729;stroke-miterlimit:10}.st1{fill:#d37b6a}.st2{fill:#f7d95c}.st3{fill:#fcf494}.st4{fill:#e59588}.st5{fill:#f3b75e}.st6{fill:#a57955}.st7{opacity:.39;fill:#753c33;enable-background:new}.st8{fill:#85413b}.st9{fill:#83413d}.st10{fill:#f7c6ae}.st11{fill:#f79b82}.st12{fill:#bc6f5c}.st13{fill:#944e42}.st14{fill:#994e44}.st15{fill:#f9e073}.st16{fill:#f8e9ab}.st17{fill:#e2c547}.st18{fill:#eed057}.st19{fill:#fff2bc}.st20{fill:#ddc043}.st21{fill:none;stroke:#ddc043;stroke-width:4.5519;stroke-miterlimit:10}
  </style>
  <path d="m622 1436.4-158-378.5 156-379.4 378.5-158L1378 676.3l158 378.5-156 379.4-378.5 158L622 1436.4zM870.9 928l-53 128.9 53.8 128.6 128.9 53 128.6-53.8 53-128.9-53.8-128.6-128.9-52.9L870.9 928z" class="st0"/>
  <path d="m643 1415.4-149.4-357.7L641 699.3 998.6 550l358.6 147.3 149.3 357.7-147.3 358.6-357.7 149.3L643 1415.4zm206.9-508.3L788.3 1057l62.4 149.6 149.9 61.6 149.6-62.4 61.6-149.9-62.4-149.6-150-61.6-149.5 62.4z" class="st1"/>
  <path d="m1002.5 1988.6-659.9-271.3-274.8-658.4L339 399l658.4-274.7 659.9 271.3 274.9 658.4-271.2 659.9-658.5 274.7zm-384.3-548.5 383.1 157.5 382.3-159.6 157.5-383.1-159.6-382.3-383-157.4-382.3 159.6-157.5 383.1 159.5 382.2z" class="st0"/>
  <path d="m377.5 1682.4-260.3-623.6L374 433.7l623.6-260.3 625.1 256.8 260.3 623.6-256.8 625.1-623.6 260.3-625.1-256.8zM581.2 639.9 409.4 1058l174.2 417.1 418.1 171.8 417.1-174.2 171.8-418.1-174.2-417.1-418.1-171.6-417.1 174z" class="st1"/>
  <path d="m471.3 1588.1-221.1-529.7 218.2-530.8L998 306.5l530.8 218.2 221.1 529.7-218.2 530.8-529.7 221.1-530.7-218.2zm15.6-1042-210.6 512.2 213.5 511.2 512.2 210.6 511-213.3 210.6-512.2-213.3-511.2L998 332.8 486.9 546.1z" class="st2"/>
  <path d="m471 1588.4-56-131.8-55.9-132.1-111.6-264.8-.4-1.2.4-1.2 108.7-265.6L410.7 659l54.8-132.7.4-1.2 1.2-.4 265.2-109.5L865 360.4l132.5-54.9.4-.1.4.1 132.7 54.6 132.8 54.3 132.8 54.2 132.8 54.2.7.3.3.9 111.4 264.5 111 264.6.6 1.3-.6 1.4-108.7 265.6-109 265.5-.6 1.6-1.6.6-264.9 110.1-265.1 109.8-1.2.4-1.2-.4-265-110L471 1588.4zm.6-.6 266.2 107.8 265.5 108h-2.3l264.5-111.1 264.6-110.8-2.2 2.2 109.1-265.3 109.4-265.3v2.7l-110-265.1-109.5-265.3 1.2 1.2-132.5-54.9-132.6-55-132.7-54.6-132.7-54.5h1l-132.2 55.6L733.9 419 469.4 530.7l1.7-1.7-54.2 132.7-54.6 132.7-109.4 265.2v-2.3l109.5 264.8 54.6 132.7 54.6 133z" class="st3"/>
  <path d="M487.2 546.4 435.3 675l-52 128.3L279 1059.5v-2.3l107.1 255.4 53.3 127.8 53.2 127.9-1.7-1.7 255.7 106.2 127.9 53.2 127.9 52.9h-1l127.8-53.3 127.8-53.5 127.6-53.6 127.6-53.8-1.2 1.2 104.3-256.5 104.8-256.4v2.7L1613 800.2l-106.8-255.5 2.2 2.2-256-105.6-255.8-106h2.3L743.3 440.8 487.2 546.4zm-.5-.6 254.6-108L996.8 330l1.2-.4 1.2.4 256.4 104.6 256.2 104.9 1.6.6.6 1.6 106.7 255.5L1727 1053l.6 1.3-.6 1.3-105.8 256-106.1 255.8-.3.9-.7.3-127.9 52.9-127.9 53-127.8 53.2-127.8 53.3-.4.1-.4-.1-128.2-52.3-128.3-52.2-256.8-104.1-1.2-.4-.6-1.2-53.5-127.6-53.3-127.8-106.2-255.7-.4-1.2.4-1.2 106.4-256.1 53.3-127.8 53.2-127.6z" class="st3"/>
  <path d="M581.2 639.9c-13 35.4-26.3 70.7-39.7 105.8l-20.2 52.8-20.5 52.8c-6.8 17.5-13.6 35.1-20.5 52.6l-20.8 52.6-20.8 52.6-21.1 52.5v-6.8c14.7 34.7 29.6 69.2 44.2 104.1l43.8 104.2c14.5 34.8 29 69.5 43.4 104.3 14.5 34.8 28.6 69.7 42.8 104.6l-4.8-4.8 52 22c17.3 7.2 34.7 14.7 52 22.1 34.7 14.7 69.4 29.5 103.9 44.7l51.9 22.5 51.7 22.7c34.5 15.2 68.9 30.5 103.2 46.1-35.4-13-70.7-26.3-105.8-39.7l-52.8-20.2-52.6-20.5c-35.1-13.6-70.1-27.5-105.2-41.3-17.5-6.9-35.1-13.7-52.5-20.8l-52.5-21.1-3.3-1.3-1.4-3.5c-14.7-34.7-29.6-69.2-44.2-104.1-14.7-34.7-29.2-69.5-43.8-104.2l-43.4-104.3c-14.5-34.8-28.6-69.7-42.8-104.6l-1.4-3.5 1.4-3.3 22-52 22.1-52 22.3-52c7.4-17.3 14.9-34.5 22.4-51.9l22.1-51.9 22.7-51.7c15.3-34.7 30.6-69.1 46.2-103.5z" class="st4"/>
  <path d="m699.9 1807.1 53.6-79.8 21.7 10.1-20.8 93.5z" class="st5"/>
  <path d="M699.8 1807.1c8.1-13.2 16.6-26.6 25.4-40.2 4.5-6.8 8.8-13.6 13.4-20.2s9.4-13.3 14-19.9l.4-.7.7.3c7.1 3.8 14.3 7.1 21.7 10.1l.6.3-.1.7-4.6 23.6c-1.6 7.8-3.2 15.6-4.9 23.4-1.7 7.8-3.3 15.6-5.1 23.4-1.7 7.8-3.5 15.6-5.3 23.4l-.6 2.2-2-.9-13.9-6.4c-4.6-2.2-9.2-4.2-13.7-6.4l-26-12.7zm.2 0 28 11.1c4.6 1.7 9.1 3.6 13.6 5.5l13.4 5.5-2.6 1.3c1.7-7.8 3.3-15.6 5.1-23.4 1.7-7.8 3.6-15.6 5.3-23.4s3.6-15.6 5.5-23.3l5.8-23.3.4.9c-7.1-3.8-14.3-7.1-21.8-10l1.2-.3c-4.2 6.8-8.4 13.4-12.7 20.1-4.3 6.6-8.8 13.2-13.3 19.7-8.8 13-18 26-27.9 39.6z" class="st6"/>
  <path d="m850.6 1870.2 49.9-76.3 16.8 7.8-24.8 86.9z" class="st5"/>
  <path d="M850.5 1870.4c3.9-6.2 7.8-12.6 11.7-19.1 3.9-6.4 8.1-12.9 12.1-19.4 4-6.5 8.2-13 12.6-19.4s8.7-12.7 13-19.1l.4-.6.6.3c1.3.7 2.7 1.4 4 2.2 1.3.7 2.7 1.3 4.2 2 2.9 1.3 5.6 2.6 8.5 3.6l.4.1-.1.6-5.8 21.8c-1.9 7.2-3.9 14.6-5.9 21.8l-6.1 21.8c-2 7.2-4.2 14.5-6.2 21.7l-.4 1.6-1.4-.7-10.7-4.9c-3.5-1.6-7.1-3.3-10.6-4.9l-20.3-9.4zm.3-.2 21.5 8.5c3.6 1.4 6.9 2.9 10.4 4.2l10.4 4.3-1.9.9c2-7.2 4-14.5 6.1-21.7l6.4-21.7c2.2-7.2 4.2-14.5 6.4-21.7l6.6-21.5.3.7c-2.7-1.4-5.5-2.7-8.2-4-1.4-.6-2.7-1.3-4.2-1.9s-2.9-1.2-4.3-1.7l.9-.3c-4 6.4-7.9 12.9-12 19.1-4 6.4-8.2 12.6-12.4 18.8-4.2 6.2-8.4 12.6-12.7 18.8l-13.3 19.2z" class="st6"/>
  <path d="m563.6 1747.7 50-76.3 16.8 7.6-24.7 87z" class="st5"/>
  <path d="M563.5 1747.7c3.9-6.2 7.8-12.6 11.7-19.1 3.9-6.4 8.1-12.9 12.1-19.4 4-6.5 8.2-13 12.6-19.4 4.3-6.4 8.7-12.7 13-19.1l.4-.6.6.3c1.3.7 2.7 1.4 4 2.2 1.3.7 2.7 1.3 4.2 2 2.9 1.3 5.6 2.6 8.5 3.6l.4.1-.1.6-5.8 21.8c-1.9 7.2-3.9 14.6-5.9 21.8l-6.1 21.8c-2 7.2-4.2 14.5-6.2 21.7l-.4 1.6-1.4-.7-10.7-4.9c-3.5-1.6-7.1-3.3-10.6-4.9l-20.3-9.4zm.3-.2 21.5 8.5c3.6 1.4 6.9 2.9 10.4 4.2l10.4 4.3-1.9.9c2-7.2 4-14.5 6.1-21.7l6.4-21.7c2.2-7.2 4.2-14.5 6.4-21.7l6.6-21.5.3.7c-2.7-1.4-5.5-2.7-8.2-4-1.4-.6-2.7-1.3-4.2-1.9-1.4-.6-2.9-1.2-4.3-1.7l.9-.3c-4 6.4-7.9 12.9-12 19.1-4 6.4-8.2 12.6-12.4 18.8-4.2 6.2-8.4 12.6-12.7 18.8l-13.3 19.2z" class="st6"/>
  <path d="m754.4 1830.9 39.7-57.1L822 1785l-13.1 69.8z" class="st5"/>
  <path d="m754.1 1830.9 9.1-14.3c3-4.8 6.4-9.7 9.5-14.6 3.3-4.9 6.5-9.8 10-14.6 3.5-4.9 7.1-9.5 10.6-14.3l.6-.7.7.3c4.6 2 9.1 4 13.7 6.1 4.6 1.9 9.2 3.8 13.9 5.6l.4.1-.1.4c-1 5.8-1.9 11.7-2.9 17.5-.9 5.9-1.9 11.7-2.7 17.5l-3 17.5c-1 5.8-2 11.7-3.2 17.5l-.4 2.5-2.3-1c-4.6-2-9.2-4.2-13.9-6.4l-13.7-6.5c-4.6-2.2-9-4.3-13.4-6.5l-12.9-6.1zm.4 0 14.3 5.6c4.6 1.9 9.4 3.6 13.9 5.5l13.6 5.5c4.5 1.9 9 3.8 13.4 5.6l-2.7 1.4c1.2-5.8 2.2-11.6 3.5-17.3l3.6-17.3c1.2-5.8 2.5-11.6 3.8-17.3 1.3-5.8 2.6-11.6 3.8-17.3l.4.7c-4.6-1.9-9.2-3.8-14-5.5-4.6-1.7-9.4-3.5-14.2-5.1l1.3-.4c-3.2 4.8-6.2 9.5-9.4 14.3-3.2 4.6-6.6 9.2-10 13.9-3.5 4.6-6.8 9.2-10.4 13.9l-10.9 13.8z" class="st6"/>
  <path d="m645.8 1784.7 39.9-57.1 27.9 11.3-13.1 69.6z" class="st5"/>
  <path d="m645.7 1784.8 9.1-14.3c3-4.8 6.4-9.7 9.5-14.6 3.3-4.9 6.5-9.8 10-14.6 3.5-4.9 7.1-9.5 10.6-14.3l.6-.7.7.3c4.6 2 9.1 4 13.7 6.1 4.6 1.9 9.2 3.8 13.9 5.6l.4.1-.1.4c-1 5.8-1.9 11.7-2.9 17.5-.9 5.9-1.9 11.7-2.7 17.5l-3 17.5c-1 5.8-2 11.7-3.2 17.5l-.4 2.5-2.3-1c-4.6-2-9.2-4.2-13.9-6.4l-13.7-6.5c-4.6-2.2-9-4.3-13.4-6.5l-12.9-6.1zm.3-.1 14.3 5.6c4.6 1.9 9.4 3.6 13.9 5.5l13.6 5.5c4.5 1.9 9 3.8 13.4 5.6l-2.7 1.4c1.2-5.8 2.2-11.6 3.5-17.3l3.6-17.3c1.2-5.8 2.5-11.6 3.8-17.3 1.3-5.8 2.6-11.6 3.8-17.3l.4.7c-4.6-1.9-9.2-3.8-14-5.6-4.6-1.7-9.4-3.5-14.2-5.1l1.3-.4c-3.2 4.8-6.2 9.5-9.4 14.3-3.2 4.6-6.6 9.2-10 13.9-3.5 4.6-6.8 9.2-10.4 13.9l-10.9 13.9z" class="st6"/>
  <path d="m527.3 1789 85.2 36.7 82.8-209.7-19.7-152-50.6-20.8z" class="st7"/>
  <path d="M1418.8 1472.8c13-35.4 26.3-70.7 39.7-105.8l20.2-52.8 20.5-52.6c6.8-17.5 13.6-35.1 20.5-52.6l20.8-52.6 20.8-52.5 21.1-52.5v6.8c-14.7-34.7-29.6-69.2-44.2-104.1l-43.8-104.2c-14.5-34.8-29-69.5-43.4-104.3-14.5-34.8-28.6-69.7-42.8-104.6l4.8 4.8-52-22c-17.3-7.2-34.7-14.7-52-22.1-34.7-14.7-69.4-29.5-103.9-44.7l-51.9-22.5-51.7-22.7c-34.5-15.2-68.9-30.5-103.2-46.1 35.4 13 70.7 26.3 105.8 39.7l52.8 20.2 52.6 20.5c35.1 13.6 70.1 27.5 105.2 41.3 17.5 6.9 35.1 13.7 52.5 20.8l52.5 21.1 3.3 1.3 1.4 3.5c14.7 34.7 29.6 69.2 44.2 104.1 14.7 34.7 29.2 69.5 43.8 104.2l43.4 104.3c14.5 34.8 28.6 69.7 42.8 104.6l1.4 3.5-1.4 3.3-22 52-22.1 52-22.3 52c-7.4 17.3-14.9 34.5-22.4 51.9l-22.5 51.9-22.7 51.7c-14.9 34.6-30.2 69-45.8 103.2z" class="st8"/>
  <path d="M595 1463.7 425.6 1058l167.1-406.5 405.7-169.4 406.5 167.1 169.4 405.7-167.1 406.5-405.7 169.4L595 1463.7zm406.5 123.7 375-156.5L1531 1055l-156.5-375-376-154.5L623.6 682l-154.5 375.9 156.5 375 375.9 154.5z" class="st2"/>
  <path d="M594.8 1463.8 509 1261.7l-85.4-202.8-.3-.9.3-.9 83.2-203.5L548.6 752l41.9-101.6.4-.9.9-.4 203.2-84 101.6-41.9L998 481.1l.4-.1.4.1 101.6 41.9 101.7 41.6 101.7 41.6 101.7 41.5.6.3.3.6 85.3 202.6 85.1 202.6.4 1-.4 1-83.2 203.3-83.5 203.3-.4 1.2-1.2.4-202.9 84.4-203.1 84.3-.9.3-.9-.3-203.2-84.4-202.7-84.5zm.3-.4 203.9 82.5 203.3 82.7h-1.7l202.6-85.1 202.8-85-1.6 1.6 83.7-203.3 83.8-203.2v2l-84.3-203.1-84-203.1.9.9-101.5-42.1-101.6-42.1-101.6-41.9-101.7-41.6h.7l-101.3 42.5-101.3 42.8-202.5 85.4 1.3-1.3-41.6 101.7-41.8 101.6-83.8 203.2v-1.7l84 202.9 83.3 203.7z" class="st3"/>
  <path d="m1001.5 1587.1 187.2-79.5 187-78.8-1.2 1.2 76.9-188 38.6-93.9 38.7-93.9v1.9l-77.6-187.7-38.7-93.9-39-93.8.6.6-93.9-38.7-93.9-38.4-94.1-38.4-94.1-38.6h1.2l-187.3 78.9-187.3 78.6 1.4-1.4-77 188-77 188v-2.3l78 187.6 77.8 187.7-1.2-1.2 187.3 77.9 187.6 78.1zm0 .5-188.2-76.2-188.5-76.6-.9-.3-.3-.9-78.6-187.3-78.5-187.4-.4-1.2.4-1.2 77.3-187.9 77.5-187.9.4-1 1-.4 187.6-77.9L997.9 524l.6-.3.6.3 93.8 38.9 93.9 38.9 93.9 38.7 93.9 38.6.4.1.1.4 39.3 93.7L1454 867l79.1 187.2.4.9-.4.9-38.4 94.1-38.6 93.9-77.5 187.9-.3.9-.9.3-188 77.8-187.9 76.7z" class="st3"/>
  <path d="M1002.4 1939.3c-52.6-20.1-105.1-40.5-157.5-61l-78.6-30.9-78.5-31.1-78.5-31.2-78.5-31.4-78.3-31.5-78.3-31.7-3.3-1.3-1.4-3.5c-22-51.9-43.9-103.6-65.8-155.7l-65.5-155.8-64.9-155.9c-21.5-52-42.9-104.1-64.5-156.2l-1.4-3.5 1.4-3.3 32.5-77.9 32.8-77.9c21.8-51.9 43.6-103.8 65.9-155.7l33.1-77.8 33.4-77.6c22.3-51.7 44.7-103.3 67.5-154.9-20.1 52.6-40.5 105.1-61 157.5l-30.8 78.6-31.2 79c-20.7 52.3-41.6 104.6-62.6 157l-31.5 78.3-31.7 78.3v-6.8c22 51.9 43.9 103.6 65.8 155.7l65.3 155.8 64.9 155.9c21.7 52 42.9 104.1 64.3 156.2l-4.8-4.8 77.9 32.5 77.9 32.8 77.9 32.8 77.8 33.1 77.8 33.1 77.6 33.4c51.6 22.3 103.3 44.7 154.8 67.4z" class="st8"/>
  <path d="M997.6 173.5c52.6 20.1 105.1 40.5 157.5 61l78.6 30.9 78.5 31.1 78.5 31.2 78.5 31.4 78.3 31.5 78.3 31.7 3.3 1.3 1.4 3.5c22 51.9 43.9 103.6 65.8 155.7l65.3 155.8 64.9 155.9c21.5 52 42.9 104.1 64.5 156.2l1.4 3.5-1.4 3.3-32.5 77.9-32.8 77.9c-21.8 51.9-43.6 103.8-65.9 155.7l-33.1 77.8-33.4 77.6c-22.3 51.7-44.7 103.3-67.5 154.9 20.1-52.6 40.5-105.1 61-157.5l30.8-78.6 31.1-78.5c20.7-52.3 41.6-104.6 62.6-157l31.5-78.3 31.7-78.3v6.8c-22-51.9-43.9-103.6-65.8-155.7l-65-156.1-64.9-155.9c-21.7-52-42.9-104.1-64.3-156.2l4.8 4.8-77.9-32.5-77.9-32.8-77.9-32.8-77.8-33.1-77.8-33.1-77.6-33.4c-51.6-22.5-103.3-44.9-154.8-67.6z" class="st4"/>
  <path d="m1475.8 1782.8-85.1 36.7-82.8-209.5 9.7-111.2 60.4-61.8zM701.9 252l-69.1 73.7L715.9 550l64.1 19.2 59.9-21.6z" class="st7"/>
  <path d="M967.1 838.5 980 956.3l19.2 42.2 18.1-42.5 10.8-117.5zM812.5 1168.2l103-58.6 31.2-34.2-46.2.1-112.2 36.7zM1204.4 1106.7l-114.3-31.3-46.4 2.1 32.8 32.6 105.4 53.4z" class="st1"/>
  <path d="M1043.7 1077.5c3 2.3 6.1 4.9 9 7.4 2.9 2.5 5.9 4.9 8.8 7.5l8.7 7.7c2.9 2.6 5.6 5.2 8.5 7.8l-.9-.6c12.9 5.8 25.4 12 37.9 18.8 6.2 3.3 12.3 6.9 18.4 10.6s12 7.5 17.8 11.7c-6.8-2.2-13.4-4.8-19.9-7.4-6.5-2.6-13-5.5-19.4-8.5-12.7-5.9-25.3-12.4-37.4-19.4l-.6-.3-.3-.3c-2.6-2.7-5.2-5.6-7.8-8.5l-7.7-8.7c-2.6-2.9-5.1-5.8-7.7-8.7-2.5-3.1-4.9-6-7.4-9.1zM847.5 1148.2c5.1-4.2 10.4-8.1 15.8-11.7 5.3-3.8 10.8-7.2 16.5-10.7 11.1-6.8 22.5-13.2 34.3-19.1l-.7.6 8.1-8.2c2.7-2.7 5.5-5.3 8.2-8.1s5.6-5.3 8.4-7.9l8.7-7.8c-2.3 3.2-4.6 6.2-6.9 9.4-2.5 3-4.8 6.1-7.2 9.1-2.5 3-4.8 6.1-7.4 9l-7.4 9-.3.3-.6.3c-11 7.1-22.3 13.6-33.8 19.7-5.8 3-11.6 5.9-17.6 8.7-5.9 2.6-11.9 5.2-18.1 7.4zM971.6 879.5c1.9 6.2 3.2 12.6 4.5 18.9 1.3 6.4 2.3 12.7 3.2 19.1 1.9 12.7 3.2 25.6 3.9 38.4l-.3-1 4.3 10.7c1.4 3.6 2.7 7.2 4.2 10.8 1.4 3.6 2.7 7.2 4 11 1.3 3.6 2.6 7.4 3.8 11-2-3.3-3.9-6.6-5.9-10.1-1.9-3.5-3.8-6.8-5.6-10.3-1.7-3.5-3.6-6.8-5.3-10.3l-5.2-10.4-.1-.3-.1-.7c-2-12.7-3.6-25.4-4.6-38.3-.4-6.4-.9-12.9-1-19.4-.2-6.1-.2-12.6.2-19.1z" class="st9"/>
  <path d="m516.4 1162.4 112.4-35.1 19.8 50.4-103.8 52.7z" class="st5"/>
  <path d="M516.2 1162.4c17.8-6.4 36.3-12.7 55.2-18.9 9.4-3 18.9-6.2 28.5-9 9.5-2.9 19.2-5.5 28.8-8.2l1-.3.3 1c1.4 4.2 3 8.5 4.6 12.7 1.6 4.2 3.2 8.4 4.8 12.7 1.7 4.2 3.3 8.4 5.1 12.6 1.7 4.2 3.5 8.4 5.2 12.6l.3.9-.9.4-25.6 13.9c-8.5 4.6-17.2 9.1-25.7 13.6-8.7 4.5-17.2 9-25.9 13.4-8.7 4.5-17.3 8.8-26 13l-2.3 1.2-.9-2.3-6.9-17.5c-2.3-5.8-4.6-11.7-6.8-17.5l-12.8-34.3zm.4.1 15.6 34c2.6 5.5 4.9 11.1 7.4 16.6l7.2 16.5-3.2-1.2c8.7-4.5 17.2-9 25.9-13.3s17.3-8.7 26-13c8.7-4.3 17.3-8.5 26.2-12.9l26.3-12.6-.4 1.3c-1.6-4.2-3-8.5-4.8-12.7-1.6-4.2-3.2-8.4-4.9-12.6-1.7-4.2-3.3-8.4-5.1-12.6-1.7-4.2-3.5-8.4-5.2-12.4l1.4.7c-9.2 3.2-18.4 6.4-27.5 9.4-9.1 3-18.5 5.8-27.7 8.5-18.6 5.6-37.5 11-57.2 16.3z" class="st6"/>
  <path d="m487.3 1096.2 84.6-16.9 15.3 33.9-71.6 51.1z" class="st5"/>
  <path d="m487 1096 20.2-4.9 10.4-2.5 10.6-2.5c7.1-1.6 14.3-3.2 21.5-4.5 7.2-1.4 14.5-2.6 21.7-3.8l1.2-.1.4 1c2.3 5.8 4.6 11.6 7.1 17.2l3.8 8.5 3.9 8.4.3.6-.4.4c-5.9 4.3-11.7 8.8-17.5 13.3-5.8 4.5-11.6 9-17.5 13.3l-17.8 13-8.8 6.5-9 6.4-2.5 1.7-1.2-2.9c-4.8-11.7-9.4-23.4-13.7-35.1-2.2-5.8-4.2-11.6-6.4-17.2L487 1096zm.4.2 15.8 34c5.1 11.1 10 22 14.6 33l-3.6-1 9-6.4 9-6.2 18.1-12.6c6.1-4.2 12.1-8.2 18.2-12.3 6.1-4 12.3-8.1 18.2-12.3l-.3.9-3.8-8.5-3.9-8.4c-2.6-5.6-5.5-11.1-8.2-16.6l1.6.7c-6.9 1.6-13.7 3.3-20.7 4.8-6.9 1.4-13.9 2.6-20.8 3.9l-10.6 1.7-10.7 1.7-21.9 3.6z" class="st6"/>
  <path d="m1269 639.1-54.7 104.3-49.6-21.7 36.1-110.7z" class="st5"/>
  <path d="M1269.2 638.9c-8.1 17.1-16.6 34.7-25.6 52.5-4.5 8.8-9 17.8-13.7 26.4-4.8 8.8-9.7 17.5-14.5 26l-.6 1-.9-.4c-4-1.9-8.1-3.9-12.3-5.8-4-1.9-8.2-3.8-12.4-5.5-4.2-1.7-8.2-3.6-12.4-5.3-4.2-1.7-8.4-3.5-12.6-5.2l-.9-.3.3-.9 8.4-27.9c2.9-9.2 5.6-18.5 8.7-27.7 2.9-9.2 5.8-18.5 8.8-27.7 2.9-9.2 6.1-18.5 9.1-27.6l.9-2.3 2.3 1 17.2 7.5c5.8 2.5 11.4 5.1 17.1 7.5l33.1 14.7zm-.5.3-35-13c-5.8-2.2-11.4-4.3-17.1-6.5l-16.8-6.5 3-1.4c-2.9 9.2-5.8 18.5-9 27.7-3 9.2-6.2 18.4-9.2 27.6-3 9.2-6.2 18.4-9.4 27.6l-9.7 27.5-.6-1.3c4 1.9 8.2 3.8 12.3 5.6 4 1.9 8.2 3.6 12.4 5.5 4.2 1.7 8.2 3.6 12.4 5.3 4.2 1.7 8.4 3.5 12.6 5.1l-1.4.6c4.3-8.8 8.5-17.5 12.9-26.2 4.3-8.7 9-17.2 13.6-25.7 9.2-17.1 18.9-34.3 29-51.9z" class="st6"/>
  <path d="m1201 611-47.9 71.6-34.8-13.1 14.6-86.7z" class="st5"/>
  <path d="m1201.2 610.9-10.8 17.9-5.6 9.1-5.8 9.2c-3.9 6.1-7.9 12.3-12 18.4-4.2 6.1-8.5 12-12.7 17.9l-.7.9-1-.4c-5.8-2.5-11.4-4.8-17.2-7.1l-8.7-3.3-8.7-3.2-.6-.1.1-.6c1.2-7.2 2-14.5 3-21.8 1-7.2 1.9-14.6 3-21.8l3.3-21.7 1.7-10.8 1.7-10.8.4-3 2.9 1.2c11.6 4.9 23.3 10 34.5 15 5.6 2.6 11.1 5.2 16.8 7.7l16.4 7.3zm-.4.1-35.3-12.9c-11.4-4.2-22.5-8.5-33.7-13l3.3-1.9-1.9 10.8-1.9 10.8-3.9 21.7c-1.3 7.2-2.7 14.3-4.2 21.5-1.4 7.2-2.9 14.3-4.2 21.5l-.4-.9 8.7 3.3 8.7 3.2c5.8 2 11.7 4 17.6 5.9l-1.6.6c3.8-6.1 7.4-12 11.3-17.9 3.9-5.9 7.9-11.6 12-17.5l6.2-8.7 6.4-8.8 12.9-17.7z" class="st6"/>
  <path d="m1336.4 665.4-47.9 71.6-34.8-13.1 14.6-86.6z" class="st5"/>
  <path d="m1336.7 665.4-10.8 17.9-5.6 9.1-5.8 9.2c-3.9 6.1-7.9 12.3-12 18.4-4.2 6.1-8.5 12-12.7 17.9l-.7.9-1-.4c-5.8-2.5-11.4-4.8-17.2-7.1l-8.7-3.3-8.7-3.2-.6-.1.1-.6c1.2-7.2 2-14.5 3-21.8 1-7.2 1.9-14.6 3-21.8l3.3-21.7 1.7-10.8 1.7-10.8.4-3 2.9 1.2c11.6 4.9 23.3 10 34.5 15 5.6 2.6 11.1 5.2 16.8 7.7l16.4 7.3zm-.5.1-35.3-12.9c-11.4-4.2-22.5-8.5-33.7-13l3.3-1.9-1.9 10.8-1.9 10.8-3.9 21.7c-1.3 7.2-2.7 14.3-4.2 21.5-1.4 7.2-2.9 14.3-4.2 21.5l-.4-.9 8.7 3.3 8.7 3.2c5.8 2 11.7 4 17.6 5.9l-1.6.6c3.8-6.1 7.4-12 11.3-17.9 3.9-5.9 7.9-11.6 12-17.5l6.2-8.7 6.4-8.8 12.9-17.7z" class="st6"/>
  <path d="m1775.4 819.7-94 19.4-8.6-22.4 80.4-52.2z" class="st5"/>
  <path d="M1775.6 819.7c-14.9 3.6-30.5 7.4-46.2 10.8-7.9 1.7-15.9 3.5-23.8 5.1s-16 2.9-24 4.3l-.9.1-.3-.7c-2.3-7.7-5.2-15.2-8.4-22.5l-.3-.6.6-.4 19.8-13.6c6.6-4.5 13.3-9 19.9-13.3 6.6-4.3 13.3-8.8 19.9-13.2 6.6-4.3 13.4-8.7 20.2-13l1.9-1.2.7 2 5.3 14.2c1.7 4.8 3.6 9.4 5.2 14.2l10.4 27.8zm-.3-.1L1763 792c-2-4.5-3.9-9-5.8-13.4l-5.8-13.4 2.7.9c-6.6 4.3-13.3 8.8-20.1 13.2-6.6 4.3-13.4 8.5-20.2 12.9-6.8 4.3-13.4 8.5-20.2 12.7l-20.4 12.6.3-1c2.5 7.7 5.3 15.2 8.5 22.4l-1-.6c7.8-1.9 15.5-3.6 23.1-5.3 7.7-1.7 15.5-3.2 23.3-4.6 15.7-3.2 31.4-5.9 47.9-8.8z" class="st6"/>
  <path d="m1624.4 459.8-68.6 50.3-12.5-13.7 49.2-68.5 23.5 9.5z" class="st5"/>
  <path d="M1624.6 459.8c-5.3 4.3-11 8.7-16.5 12.9-5.5 4.3-11.3 8.5-17.1 12.9-5.6 4.3-11.4 8.5-17.3 12.7-5.9 4.2-11.7 8.2-17.6 12.3l-.6.4-.4-.4c-1-1.2-1.9-2.5-2.9-3.6s-2-2.3-3-3.5c-2.2-2.2-4.2-4.5-6.4-6.6l-.3-.3.3-.4 12-17.3c4-5.8 8.1-11.6 12.1-17.3 4-5.8 8.1-11.6 12.1-17.2 4-5.8 8.2-11.4 12.4-17.1l.7-.9 1 .4 23.4 10 .4.1.1.4 3.9 11.6 3.7 10.9zm-.3 0-4.8-11.1-4.5-10.8.6.6-23.7-9.2 1.7-.4c-4 5.8-8.1 11.4-12.3 17.2-4 5.8-8.2 11.4-12.4 17.1-4.2 5.6-8.4 11.3-12.6 16.9l-12.7 16.9v-1c1.9 2.5 4 4.6 6.1 6.9 1 1.2 2 2.3 3.2 3.3 1 1.2 2.2 2.2 3.2 3.3l-.9-.1c5.6-4.3 11.1-8.7 16.8-12.9 5.6-4.2 11.3-8.4 17.1-12.4s11.4-8.2 17.3-12.3c5.9-3.9 11.8-7.9 17.9-12z" class="st6"/>
  <path d="m1863.3 1071.9-83.4-17.2 1.9-18.4 83.8-9.5 8.7 23.9z" class="st5"/>
  <path d="M1863.5 1071.9c-6.8-1.2-13.7-2.3-20.7-3.6-6.9-1.2-13.9-2.6-21-3.9-6.9-1.3-14-2.7-21.1-4.3-7.1-1.6-14-3.2-21-4.8l-.7-.1.1-.6c.3-1.6.4-3 .7-4.6.1-1.6.3-3 .6-4.6.3-3 .6-6.1.7-9.2v-.4l.6-.1 21-2.9c6.9-.9 13.9-1.9 21-2.6 6.9-.9 14-1.7 21-2.6 6.9-.9 14-1.6 21-2.3l1.2-.1.4 1 8.4 24 .1.4-.3.4-5.9 10.6-6.1 10.3zm-.2-.1 5.1-11 5.1-10.6v.9l-9.1-23.8 1.4.9c-6.9.9-14 1.7-21 2.5-6.9.9-14 1.4-21 2.2-6.9.7-14 1.4-21 2.2l-21 1.9.6-.6c-.4 3-.7 6.1-1.2 9.1-.1 1.6-.3 3-.4 4.6-.1 1.6-.1 3-.3 4.6l-.6-.7c6.9 1.3 13.9 2.5 20.8 3.8 6.9 1.3 13.7 2.7 20.7 4.3 6.9 1.4 13.7 3 20.8 4.6 6.9 1.6 14 3.3 21.1 5.1z" class="st6"/>
  <path d="m983.2 1931.1 12.7-84.1 18.5.8 13.9 83.1-23.5 10.2z" class="st5"/>
  <path d="M983 1931.2c.7-6.8 1.6-13.9 2.5-20.8.9-6.9 1.9-14 2.9-21.1 1-7.1 2-14.2 3.2-21.2 1.2-7.1 2.5-14.2 3.8-21.1l.1-.7h.6c1.6.1 3 .3 4.6.4 1.6.1 3 .1 4.6.3 3 0 6.2.3 9.2.1h.4l.1.6 3.9 20.7c1.3 6.9 2.6 13.9 3.8 20.8 1.2 6.9 2.5 13.9 3.6 20.8 1.2 6.9 2.3 13.9 3.5 20.8l.1 1.2-1 .4-23.6 9.7-.4.1-.4-.1-10.8-5.3-10.7-5.6zm.3-.1 11.1 4.5 10.8 4.5h-.9l23.3-10.3-.9 1.6c-1.2-6.9-2.5-13.9-3.6-20.8-1.2-6.9-2.2-13.9-3.3-20.8-1.2-6.9-2.2-13.9-3.2-20.8l-3-20.8.6.6c-3-.3-6.1-.4-9.2-.6-1.6 0-3-.1-4.6-.1h-4.6l.7-.6c-.9 6.9-1.7 14-2.7 21-.9 6.9-2 13.9-3.2 20.8-1.2 6.9-2.3 13.9-3.6 21-1.1 6.5-2.4 13.6-3.7 20.8z" class="st6"/>
  <path d="m396.4 424 46.5 71.3-14.3 11.7-65.7-52.8 10.8-23.1z" class="st5"/>
  <path d="M396.5 423.9c4 5.6 7.9 11.4 12 17.2 4 5.8 7.9 11.7 12 17.6 4 5.9 7.9 11.9 11.9 17.9 3.9 6.1 7.5 12.1 11.3 18.2l.3.6-.4.3c-1.3.9-2.5 1.9-3.8 2.7-1.3.9-2.5 1.9-3.6 2.9-2.3 2-4.8 3.9-7.1 5.9l-.4.3-.4-.3-16.8-12.9c-5.5-4.3-11.1-8.7-16.6-13-5.5-4.3-11.1-8.7-16.5-13-5.5-4.3-11-8.8-16.3-13.3l-.9-.7.4-1 11.1-23 .3-.4.4-.1 11.7-3.2 11.4-2.7zm-.1.2-11.3 4-11 3.9.6-.6-10.6 23.3-.4-1.7c5.5 4.3 11 8.7 16.5 13.2 5.5 4.3 10.8 8.8 16.3 13.3s10.8 9 16.3 13.4l16.2 13.6h-.9c2.5-1.9 4.9-3.8 7.2-5.6 1.2-1 2.3-1.9 3.5-3 1.2-1 2.3-2 3.5-3l-.1.9c-4-5.8-7.9-11.6-12-17.3-3.9-5.8-7.7-11.7-11.4-17.6-3.8-5.9-7.5-11.9-11.3-18.1-3.6-6.2-7.3-12.4-11.1-18.7z" class="st6"/>
  <path d="m1830.9 957.6-89 19.3-6.5-17.1 78.5-44.7z" class="st5"/>
  <path d="M1831.1 957.6c-7.1 1.7-14.5 3.6-21.7 5.3-7.4 1.7-14.7 3.5-22.3 5.2-7.5 1.7-14.9 3.5-22.5 5.1-7.5 1.6-15.2 3-22.5 4.5l-.6.1-.1-.6c-.4-1.4-.9-2.9-1.4-4.3-.4-1.4-1-2.9-1.6-4.3-1.2-2.9-2.2-5.8-3.5-8.5l-.1-.4.4-.3 19.4-11.6c6.5-3.8 13-7.7 19.5-11.4l19.5-11.3c6.5-3.8 13.2-7.4 19.7-11.1l1.4-.9.6 1.4 4.2 11c1.3 3.6 2.7 7.2 4 10.8l7.6 21.3zm-.3-.2-9.4-21.2c-1.6-3.5-3-6.9-4.5-10.4l-4.3-10.3 2 .7c-6.5 3.8-13 7.5-19.5 11.3l-19.7 11c-6.5 3.6-13.2 7.4-19.8 11l-19.8 10.8.3-.7c.9 2.9 2 5.8 3 8.7.6 1.4 1.2 2.9 1.7 4.3.6 1.4 1.2 2.9 1.9 4.2l-.9-.4c7.4-1.7 14.6-3.6 22-5.2 7.2-1.7 14.6-3.2 22.1-4.8 7.4-1.6 14.7-3 22.3-4.5l22.6-4.5z" class="st6"/>
  <path d="m1753.3 764.5-68.3 12.7-12.2-27.4 58.3-40.5z" class="st5"/>
  <path d="m1753.5 764.6-16.5 3.8c-5.6 1.3-11.3 2.5-17.1 3.8-5.8 1.2-11.6 2.3-17.3 3.5-5.8 1-11.7 1.9-17.5 2.7l-.9.1-.3-.7c-1.9-4.6-3.6-9.4-5.6-14-1.9-4.6-3.9-9.2-6.1-13.7l-.1-.4.4-.3c4.8-3.5 9.5-6.9 14.3-10.6 4.8-3.6 9.5-7.1 14.3-10.6l14.5-10.4c4.8-3.5 9.7-6.8 14.5-10.3l2-1.4.9 2.3c1.9 4.8 3.8 9.5 5.5 14.3l5.2 14.2c1.7 4.8 3.3 9.4 5.1 14l4.7 13.7zm-.3-.1-6.4-14c-2-4.6-4.2-9.1-6.1-13.6l-5.9-13.4c-1.9-4.5-3.8-9-5.6-13.4l2.9.9c-4.9 3.3-9.7 6.8-14.6 10l-14.7 10c-4.9 3.3-9.8 6.5-14.9 9.7-4.9 3.2-10 6.4-14.9 9.7l.1-.7c2 4.6 3.9 9.2 6.1 13.7 2 4.6 4.3 9.1 6.5 13.6l-1.2-.6c5.6-1.3 11.1-2.6 16.6-3.6 5.6-1 11.1-2 16.8-2.9 5.6-.9 11.4-1.7 17.2-2.6l18.1-2.8z" class="st6"/>
  <path d="m1798.3 873.5-68.4 12.8-12.1-27.6 58.4-40.4z" class="st5"/>
  <path d="m1798.6 873.6-16.5 3.8c-5.6 1.3-11.3 2.5-17.1 3.8-5.8 1.2-11.6 2.3-17.3 3.5-5.8 1-11.7 1.9-17.5 2.7l-.9.1-.3-.7c-1.9-4.6-3.6-9.4-5.6-14-1.9-4.6-3.9-9.2-6.1-13.7l-.1-.4.4-.3c4.8-3.5 9.5-6.9 14.3-10.6 4.8-3.6 9.5-7.1 14.3-10.6l14.5-10.4c4.8-3.5 9.7-6.8 14.5-10.3l2-1.4.9 2.3c1.9 4.8 3.8 9.5 5.5 14.3l5.2 14.2c1.7 4.8 3.3 9.4 5.1 14l4.7 13.7zm-.5-.1-6.4-14c-2-4.6-4.2-9.1-6.1-13.6l-5.9-13.4c-1.9-4.5-3.8-9-5.6-13.4l2.9.9c-4.9 3.3-9.7 6.8-14.6 10l-14.7 10c-4.9 3.3-9.8 6.5-14.9 9.7-4.9 3.2-10 6.4-14.9 9.7l.1-.7c2 4.6 3.9 9.2 6.1 13.7 2 4.6 4.3 9.1 6.5 13.6l-1.2-.6c5.6-1.3 11.1-2.6 16.6-3.6 5.6-1 11.1-2 16.8-2.9 5.6-.9 11.4-1.7 17.2-2.6l18.1-2.8z" class="st6"/>
  <path d="m200.7 863.9 77 48.9-7.5 16.9-87.3-23.6z" class="st5"/>
  <path d="M200.7 863.8c6.4 3.8 12.7 7.5 19.2 11.6 6.5 3.9 13 7.9 19.5 11.9s13 8.1 19.5 12.3c6.5 4.2 12.9 8.5 19.2 12.7l.6.3-.3.6c-.7 1.3-1.4 2.7-2 4.2-.7 1.4-1.3 2.7-2 4.2-1.2 2.9-2.5 5.6-3.6 8.5l-.1.4-.6-.1-22-5.5c-7.2-1.9-14.6-3.8-21.8-5.6l-21.8-5.8c-7.2-1.9-14.5-3.9-21.8-5.9l-1.6-.4.7-1.4 4.8-10.7c1.6-3.5 3.2-7.1 4.8-10.6l9.3-20.7zm.2.3-8.2 21.7c-1.3 3.6-2.7 7.1-4 10.6l-4.2 10.4-.9-1.9c7.2 1.9 14.6 3.8 21.8 5.8l21.8 6.1c7.2 2 14.5 4 21.7 6.1l21.7 6.4-.7.3c1.4-2.7 2.6-5.5 3.9-8.4.6-1.4 1.3-2.7 1.9-4.2.6-1.4 1.2-2.9 1.7-4.3l.3.9c-6.5-3.9-12.9-7.8-19.2-11.7-6.4-3.9-12.7-8.1-18.9-12.1-6.4-4.2-12.6-8.2-18.9-12.6l-19.8-13.1z" class="st6"/>
  <path d="m319.7 575.5 76.8 48.8-7.5 16.9-87.1-23.5z" class="st5"/>
  <path d="M319.5 575.3c6.4 3.8 12.7 7.5 19.2 11.6 6.5 3.9 13 7.9 19.5 11.9s13 8.1 19.5 12.3c6.5 4.2 12.9 8.5 19.2 12.7l.6.3-.3.6c-.7 1.3-1.4 2.7-2 4.2-.7 1.4-1.3 2.7-2 4.2-1.2 2.9-2.5 5.6-3.6 8.5l-.1.4-.6-.1-22-5.5c-7.2-1.9-14.6-3.8-21.8-5.6l-21.8-5.8c-7.2-1.9-14.6-3.9-21.8-5.9l-1.6-.4.7-1.4 4.8-10.7c1.6-3.5 3.2-7.1 4.8-10.6l9.3-20.7zm.2.3-8.2 21.7c-1.3 3.6-2.7 7.1-4 10.6l-4.2 10.4-.9-1.9c7.2 1.9 14.6 3.8 21.8 5.8l21.8 6.1c7.2 2 14.5 4 21.7 6.1l21.7 6.4-.7.3c1.4-2.7 2.6-5.5 3.9-8.4.6-1.4 1.3-2.7 1.9-4.2.6-1.4 1.2-2.9 1.7-4.3l.3.9c-6.5-3.9-12.9-7.8-19.2-11.7-6.4-3.9-12.7-8.1-18.9-12.1-6.4-4.2-12.6-8.2-18.9-12.6l-19.8-13.1z" class="st6"/>
  <path d="m238.9 767.2 57.5 39.1-10.7 28-70-12.3z" class="st5"/>
  <path d="m238.9 767 14.3 8.8c4.9 3 9.8 6.2 14.7 9.4 4.9 3.2 9.8 6.5 14.7 9.8 4.9 3.3 9.7 6.9 14.5 10.4l.7.6-.3.7c-2 4.6-4 9.2-5.8 13.9-1.9 4.6-3.6 9.2-5.3 14l-.1.4-.4-.1c-5.8-1-11.7-1.7-17.5-2.6-5.9-.9-11.7-1.7-17.6-2.6l-17.5-2.7c-5.8-.9-11.7-1.9-17.5-2.9l-2.5-.4 1-2.3c2-4.6 4-9.4 6.1-14l6.2-13.7c2-4.6 4.2-9 6.4-13.4l5.9-13.3zm0 .4-5.3 14.3c-1.7 4.6-3.5 9.4-5.2 14l-5.2 13.7c-1.7 4.5-3.6 9-5.5 13.4l-1.4-2.7c5.8 1 11.7 2 17.5 3.2l17.5 3.3c5.8 1.2 11.6 2.3 17.3 3.6 5.8 1.2 11.6 2.5 17.3 3.6l-.7.4c1.9-4.6 3.6-9.4 5.3-14 1.7-4.8 3.3-9.4 4.9-14.2l.4 1.3c-4.9-3-9.7-6.1-14.5-9.2-4.8-3.2-9.4-6.5-14-9.8-4.6-3.3-9.4-6.8-14-10.3l-14.4-10.6z" class="st6"/>
  <path d="m1140.1 1531.5-16.9-84.6 34-15.3 50.8 71.6z" class="st5"/>
  <path d="m1140 1531.8-4.9-20.2-2.5-10.4-2.5-10.6c-1.6-7.1-3.2-14.3-4.5-21.5-1.4-7.2-2.5-14.5-3.8-21.7l-.1-1.2 1-.4c5.8-2.3 11.6-4.6 17.2-7.1l8.5-3.8 8.4-3.9.6-.3.4.4c4.3 5.9 8.8 11.7 13.3 17.5 4.5 5.8 9 11.6 13.3 17.5l13 17.8 6.5 8.8 6.4 9 1.7 2.5-2.9 1.2c-11.7 4.8-23.4 9.4-35.1 13.7-5.8 2.2-11.6 4.2-17.2 6.4l-16.8 6.3zm.1-.5 34-15.8c11.1-5.1 22-10 33-14.6l-1 3.6-6.4-9-6.2-9-12.4-18.1c-4.2-6.1-8.2-12.1-12.3-18.2-4-6.1-8.1-12.3-12.3-18.2l.9.3-8.5 3.8-8.4 3.9c-5.6 2.6-11.1 5.5-16.6 8.2l.7-1.6c1.6 6.9 3.3 13.7 4.8 20.7 1.4 6.9 2.6 13.9 3.9 20.8l1.7 10.6 1.7 10.7 3.4 21.9z" class="st6"/>
  <path d="m794.7 1119.4 9.7 23.2-24.9-18.1-247.2-180.4 28-68 226.5 165.2-12.3 29.6zM1326.7 1435.2l-77.2 32.1-257.1-187.6 77-32.2zM623.9 460.1l-77.1 32.1-116.1-84.7 77.1-32.1zM756.8 566.8l-77 32.1-116.2-84.7 77-32.1zM848.5 623l640.3 467.1-27.8 68.1-318-232-15.6-11.4-356.1-259.7zM1703.8 660l-170.1-123.6-5-11.7-26-10.7-230.2-167.2 7.5-16.9-8.8-21.8 410.7 299.7z" class="st10"/>
  <path d="m260.5 1014.4-16 39.1 15.2 36.5-111.4-81.3 24.1-58.6zM486.7 1252.4l-177-126.7-26.9-63.5 11.6-27.7 143.3 102.7zM1005.9 1571.2l-13.3 5.5-229.7-94.4-153.5-111.8-53-127.2zM1194.5 1697.7l-77.1 32.1-116.2-84.7 77.1-32.3zM1322.8 1803.3l-77 32.3-104.5-82.7 77-32.2z" class="st11"/>
  <path d="m378 739.6-27.8 68-96.4-70 27.8-68.1zM500.5 829l-27.9 67.9-102.2-74.6 27.9-67.9zM1654.2 1215.8l-24.7 60.2-89.5-65.2 24.9-60.1zM1763.6 1295.8l-24.7 60.1-89.3-65.2 24.7-60.1z" class="st10"/>
  <path d="m134.7 1035.6 84.4 10.9-.3 18.3-82.8 15.9-10.6-23.1z" class="st5"/>
  <path d="M134.7 1035.5c6.9.6 13.9 1.3 20.8 2 7.1.7 14.2 1.4 21.2 2.3 7.1.9 14.2 1.6 21.2 2.6 7.1 1 14.2 2.2 21.2 3.2l.7.1v.6c-.1 1.6-.3 3-.3 4.6-.1 1.6-.1 3-.1 4.6 0 3-.1 6.2 0 9.2v.4l-.6.1-20.7 4.5c-6.9 1.4-13.7 2.9-20.7 4.2-6.9 1.4-13.7 2.7-20.7 4.2-6.9 1.3-13.9 2.6-20.7 3.9l-1.2.1-.4-1-10.3-23.3-.1-.4.1-.4 5.2-11 5.4-10.5zm.1.3-4.2 11.3-4.2 11v-.9l10.8 23-1.6-.9c6.9-1.4 13.7-2.7 20.7-4 6.9-1.3 13.9-2.6 20.7-3.9 6.9-1.3 13.9-2.5 20.8-3.8l20.8-3.5-.6.6c.3-3 .3-6.2.4-9.2v-4.6c0-1.6 0-3-.1-4.6l.6.7c-7.1-.7-14-1.4-21-2.2s-13.9-1.7-21-2.7c-6.9-1-14-1.9-21.1-3-6.7-1-13.9-2.2-21-3.3z" class="st6"/>
  <path d="M675.6 1612.8 527 1792.3l-231.8 21.9-179.5-148.6-21.8-232 148.6-179.3 231.8-21.8 179.5 148.4z" class="st12"/>
  <path d="M676.1 1613c-12 15.2-24 30.2-36.1 45.4l-36.4 45.4-36.7 45.4-37 45.4-.9 1.2-1.4.1-58 5.8-58 5.6c-19.4 1.9-38.6 3.8-58 5.5-19.4 1.9-38.7 3.5-58 5.2l-1.6.1-1.2-1-88.9-75.3-44.4-37.6-44.7-37.4-.4-.4v-.6l-5.3-58-5.6-58-2.9-28.9-3-28.9-5.9-58-.1-1 .7-.9L129 1387l18.4-22.7 18.4-22.5 36.9-45.1 36.6-45.1 1.2-1.3 1.7-.1 115.9-11.4 58-5.6 58-5.5 2-.1 1.6 1.3 89.5 74.6 89.2 74.9 1.2 1 .1 1.4c3.3 38.9 6.5 77.8 9.7 116.5l4.6 58.1 4.1 57.6zm-.9-.3-6.5-58.1-6.4-58c-4-38.6-8.2-77-12.1-115.3l1.3 2.5-90.2-73.6-90-74 3.6 1.2-58 5.5-58 5.3-116.1 10.4 2.9-1.6-37.3 44.7-37.4 44.7-18.8 22.3-18.8 22.3-37.6 44.5.6-1.9 4.9 58 2.5 29 2.6 29 5.3 58 5.5 58-.6-1 45.1 36.9 45.2 36.6 90.5 73.3-2.7-.9c19.4-1.9 38.6-3.9 58-5.8s38.6-3.8 58-5.5l58-5.3 58-5.1-2.5 1.3 37.3-44.4 37.6-44.2 37.9-44.4c12.7-14.8 25.3-29.5 38.2-44.4z" class="st13"/>
  <path d="m139 1653.3-19.9-211.9 135.7-163.8 211.8-20 163.9 135.7 20 211.9-135.7 163.9-211.9 19.9z" class="st1"/>
  <path d="m160.7 1641.8-18.1-193.1 123.6-149.5 193.2-18.2 149.3 123.7 18.2 193.1-123.7 149.5-193.1 18.2z" class="st14"/>
  <path d="m593.8 1410.4 18.7 180.8-114.8 141.2-180.9 18.5-141.1-114.6-18.6-181 114.7-141 181-18.7z" class="st2"/>
  <path d="M263.9 1588.6 253 1483.9l66.5-81.5 104.5-10.8 81.7 66.3 10.7 104.7-66.4 81.6-104.6 10.7z" class="st15"/>
  <path d="m505.7 1457.9 88.1-47.5 18.7 180.8-96.1-28.6z" class="st16"/>
  <path d="m157.1 1455.3 95.9 28.6 10.9 104.7-88.2 47.7z" class="st17"/>
  <path d="m345.4 1654.9-81.5-66.3-88.2 47.7 141.1 114.6z" class="st18"/>
  <path d="m452.8 1295.6-28.8 96 81.7 66.3 88.1-47.5z" class="st15"/>
  <path d="M424 1391.6c7.1 5.2 13.9 10.7 20.8 16 6.9 5.3 13.9 10.7 20.8 16.2l20.7 16.3 20.5 16.3.6.6.1.9 2.9 26.2 2.7 26.2c1.7 17.5 3.6 34.8 5.2 52.3l.1.9-.6.6c-11.1 13.6-22.4 27-33.7 40.3-5.6 6.6-11.3 13.4-17.1 20.1-5.6 6.6-11.4 13.3-17.2 19.9 5.2-7.1 10.7-13.9 16-20.8 5.3-6.9 10.7-13.9 16.2-20.8 10.8-13.7 21.7-27.6 32.7-41.2l-.4 1.4c-2-17.3-3.8-34.8-5.6-52.3l-2.6-26.2-2.6-26.3.7 1.4-20.2-16.8-20-16.8c-6.6-5.6-13.4-11.3-20.1-17.1-6.6-5.8-13.2-11.5-19.9-17.3z" class="st19"/>
  <path d="M345.4 1654.9c-7.1-5.2-13.9-10.7-20.8-16-6.9-5.3-13.9-10.7-20.8-16.2l-20.7-16.3-20.5-16.3-.6-.6-.1-.9-2.9-26.2-2.7-26.2c-1.7-17.5-3.6-34.8-5.2-52.3l-.1-.9.6-.6c11.1-13.6 22.4-27 33.7-40.3 5.6-6.6 11.3-13.4 17.1-20.1 5.6-6.6 11.4-13.3 17.2-19.9-5.2 7.1-10.7 13.9-16 20.8-5.3 6.9-10.7 13.9-16.2 20.8-10.8 13.7-21.7 27.6-32.7 41.2l.4-1.4c2 17.3 3.8 34.8 5.6 52.3l2.6 26.2 2.6 26.2-.7-1.4 20.2 16.8 20.1 16.9c6.6 5.6 13.4 11.3 20.1 17.1 6.6 5.9 13.3 11.5 19.8 17.3z" class="st20"/>
  <path d="m593.8 1410.4 18.7 180.8-114.8 141.2-180.9 18.5-141.1-114.6-18.6-181 114.7-141 181-18.7z" class="st21"/>
  <path d="m1192.9 102.3 91.3 214.2-86.9 216.2L983 624l-216-86.8-91.4-214.4 86.9-216 214.3-91.5z" class="st12"/>
  <path d="M1193.2 102c7.9 17.5 15.8 35.3 23.7 52.9l23.7 53.2 23.6 53.5 23.4 53.6.6 1.3-.6 1.4-21.4 54.2-21.5 54.1c-7.2 18.1-14.5 36-21.7 54.1-7.2 18.1-14.6 36-22 53.9l-.6 1.4-1.4.6-107.7 44.5-53.8 22.3-53.8 22.5-.6.3-.6-.3-54.1-22-53.9-21.5-27-10.7-27.2-10.6-54.2-21.2-.9-.4-.4-1-23.4-53.3-11.7-26.6-11.6-26.7-23.3-53.5-23.1-53.5-.7-1.6.7-1.7L714.8 213l21.7-54.1 21.7-54.1.7-1.9 1.9-.7L868 56.9 975.5 12l1.4-.6 1.3.6c36.1 14.9 72.1 29.9 108 44.8l53.6 22.5 53.4 22.7zm-.6.6-54.6-21-54.3-21c-36.1-14-72.3-27.9-108.1-42.1h2.7L871.4 65l-106.9 46.1 2.6-2.6-21.7 54.1-21.8 54.1-43.9 107.8v-3.3l22.5 53.6 22.4 53.8 11.3 26.9 11.1 26.9 22.3 53.8-1.3-1.3 53.8 22.3 26.9 11.1 27 11 53.9 21.8 54.1 21.7h-1.2l53.5-23.3 53.3-23.4 106.7-46.8-2 2c7.1-18.1 14.2-36.1 21.5-54.2 7.2-18.1 14.5-36 21.7-54.1l21.8-53.9 22-53.9v2.7l-22.3-53.5-22.1-53.6-22-53.9c-7.4-18-14.8-36.1-22-54.3z" class="st13"/>
  <path d="m785.3 518.4-83.4-195.9 79.4-197.4 195.8-83.5 197.4 79.5 83.4 195.7-79.3 197.4-195.7 83.5z" class="st1"/>
  <path d="m802.7 500.7-76.2-178.4 72.4-180 178.3-76 180.1 72.3 76 178.5-72.4 179.9-178.3 76.2z" class="st14"/>
  <path d="m1147.2 154.6 71.2 167.2-67.7 168.7-167.4 71.4-168.7-67.8-71.2-167.4 67.8-168.6 167.2-71.4z" class="st2"/>
  <path d="m884.7 422.4-41.1-96.7 39.1-97.5 96.7-41.2 97.7 39.2 41.2 96.6-39.3 97.6-96.7 41.3z" class="st15"/>
  <path d="m1077.1 226.2 70.1-71.6 71.2 167.2-100.1 1z" class="st16"/>
  <path d="m743.4 326.7 100.2-1 41.1 96.7-70.1 71.7z" class="st17"/>
  <path d="m982.3 461.7-97.6-39.3-70.1 71.7 168.7 67.8z" class="st18"/>
  <path d="m978.4 86.7 1 100.3 97.7 39.2 70.1-71.6z" class="st15"/>
  <path d="M979.4 187c8.2 2.9 16.5 6.1 24.7 9.1s16.5 6.1 24.6 9.2l24.6 9.4 24.4 9.5.7.3.3.7 10.4 24.1 10.4 24.1c6.8 16.2 13.7 32.2 20.4 48.4l.3.9-.3.7c-6.6 16.2-13.4 32.4-20.2 48.6-3.5 8.1-6.8 16.2-10.4 24.1-3.5 8.1-6.9 16-10.6 24.1 2.9-8.2 6.1-16.5 9.1-24.7s6.1-16.5 9.2-24.6c6.2-16.3 12.6-32.7 18.9-49v1.6c-7.1-16-13.9-32.2-20.8-48.3l-10.3-24.3-10.1-24.3 1.2 1.2-24.3-10.1-24.3-10.1c-8.1-3.5-16.2-6.9-24.1-10.4-7.6-3.3-15.7-6.7-23.8-10.2z" class="st19"/>
  <path d="M982.3 461.7c-8.2-2.9-16.5-6.1-24.7-9.1s-16.5-6.1-24.6-9.2l-24.6-9.4-24.4-9.5-.7-.3-.3-.7-10.4-24.1-10.4-24.1c-6.8-16.2-13.7-32.2-20.4-48.4l-.3-.9.3-.7c6.6-16.2 13.4-32.4 20.2-48.6 3.5-8.1 6.8-16.2 10.4-24.1 3.5-8.1 6.9-16 10.6-24.1-2.9 8.2-6.1 16.5-9.1 24.7s-6.1 16.5-9.2 24.6c-6.2 16.3-12.6 32.7-18.9 49V325c7.1 16 13.9 32.2 20.8 48.3l10 24.1 10.1 24.3-1.2-1.2 24.3 10.1 24.3 10.1c8.1 3.5 16.2 6.9 24.1 10.4 8.1 3.5 16.1 7 24.1 10.6z" class="st20"/>
  <path d="m1147.2 154.6 71.2 167.2-67.7 168.7-167.4 71.4-168.7-67.8-71.2-167.4 67.8-168.6 167.2-71.4z" class="st21"/>
  <path d="m1783 1264.4 136.2 189-37.4 229.8-188.9 136.3-229.9-37.4-136.2-188.9 37.3-229.9 189.1-136.2z" class="st12"/>
  <path d="M1783.2 1264c11.6 15.3 23.1 30.9 34.7 46.4l34.8 46.7 34.7 47 34.5 47.3.9 1.2-.3 1.4-9 57.5-9.1 57.5c-3 19.2-6.2 38.3-9.2 57.5-3 19.2-6.4 38.3-9.5 57.4l-.3 1.6-1.3.9-95.2 67.1-47.7 33.5-47.4 33.7-.4.3-.6-.1-57.5-9.4-57.5-9.1-28.8-4.5-28.8-4.5-57.5-8.8-1-.1-.6-.9-34.5-46.8-17.2-23.4-17.2-23.6-34.4-47-34.3-47.1-1-1.4.3-1.7 18.2-115 9.2-57.5 9.4-57.5.3-2 1.6-1.2 94.8-67.8 95-67.3 1.3-.9 1.4.3c38.4 6.5 76.9 13.4 115.2 20.1l57.4 10.1 56.6 10.1zm-.4.8-58-8.4-57.7-8.5c-38.3-5.8-76.6-11.4-114.8-17.3l2.6-.6-93.9 68.8-94.2 68.5 2-3.2-9.4 57.5-9.4 57.5-19.1 114.9-.7-3.2 33.8 47.4 33.7 47.5 16.9 23.7 16.8 23.8 33.5 47.5-1.6-1 57.4 9.8 28.8 4.9 28.8 4.8 57.5 9.5 57.5 9.2-1.2.3 47-34.4 46.8-34.5 93.8-69.1-1.6 2.5c3-19.2 5.9-38.3 9.1-57.5 3-19.2 6.2-38.3 9.4-57.5l9.5-57.5 9.7-57.4.6 2.6-33.5-47.3-33.4-47.5-33.4-47.8c-11-15.9-22.3-31.9-33.3-48z" class="st13"/>
  <path d="m1476.7 1759.8-124.3-172.7 34.1-210 172.6-124.4 210.1 34.1 124.5 172.6-34.1 210.1-172.8 124.4z" class="st1"/>
  <path d="m1489.7 1738.9-113.4-157.4 31.2-191.5 157.2-113.3 191.5 31.1 113.5 157.3-31.1 191.4-157.4 113.4z" class="st14"/>
  <path d="m1747.7 1321.1 106.5 147.4-29 179.5-147.5 106.5-179.5-29.1-106.3-147.4 28.9-179.5 147.4-106.3z" class="st2"/>
  <path d="m1550.8 1640.2-61.5-85.2 16.7-103.9 85.3-61.5 103.8 16.7 61.5 85.3-16.7 103.8-85.3 61.5z" class="st15"/>
  <path d="m1695.1 1406.3 52.6-85.2 106.5 147.4-97.6 23.1z" class="st16"/>
  <path d="m1391.9 1578 97.4-23 61.5 85.2-52.6 85.2z" class="st17"/>
  <path d="m1654.6 1656.9-103.8-16.7-52.6 85.2 179.5 29.1z" class="st18"/>
  <path d="m1568.2 1292.2 23.1 97.4 103.8 16.7 52.6-85.2z" class="st15"/>
  <path d="M1591.3 1389.6c8.7 1 17.3 2.3 26 3.5s17.3 2.3 26 3.6l26 3.8 26 3.9.9.1.6.7 15.5 21.2 15.5 21.2c10.3 14.3 20.5 28.5 30.6 42.8l.4.7-.1.9c-2.9 17.3-5.9 34.5-9.1 51.7-1.6 8.7-3.2 17.2-4.8 25.9-1.6 8.7-3.2 17.2-4.9 25.9 1-8.7 2.3-17.3 3.5-26s2.3-17.3 3.6-26c2.5-17.3 5.1-34.7 7.7-52l.3 1.6c-10.4-14.2-20.7-28.3-30.9-42.5l-15.3-21.4-15.3-21.4 1.3.9-25.9-4.5-25.9-4.6c-8.7-1.6-17.2-3.2-25.9-4.8-8.6-1.9-17.3-3.5-25.8-5.2z" class="st19"/>
  <path d="M1654.6 1656.9c-8.7-1-17.3-2.3-26-3.5s-17.3-2.3-26-3.6l-26-3.8-26-3.9-.9-.1-.6-.7-15.5-21.2-15.5-21.2c-10.3-14.3-20.5-28.5-30.6-42.8l-.4-.7.1-.9c2.9-17.3 5.9-34.5 9.1-51.7 1.6-8.7 3.2-17.2 4.8-25.9 1.6-8.7 3.2-17.2 4.9-25.9-1 8.7-2.3 17.3-3.5 26-1.2 8.7-2.3 17.3-3.6 26-2.5 17.3-5.1 34.7-7.7 52l-.3-1.6c10.4 14.2 20.7 28.3 30.9 42.5l15.3 21.4 15.3 21.4-1.3-.9 25.9 4.5 25.9 4.6c8.7 1.6 17.2 3.2 25.9 4.8 8.6 1.9 17.3 3.5 25.8 5.2z" class="st20"/>
  <path d="m1747.7 1321.1 106.5 147.4-29 179.5-147.5 106.5-179.5-29.1-106.3-147.4 28.9-179.5 147.4-106.3z" class="st21"/>
  <path d="m544.7 1230.4 84.4-16.9 15.4 33.9-71.5 51z" class="st5"/>
  <path d="m544.4 1230.3 20.2-4.9 10.4-2.5 10.6-2.5c7.1-1.6 14.3-3.2 21.5-4.5 7.2-1.4 14.5-2.6 21.7-3.8l1.2-.1.4 1c2.3 5.8 4.6 11.6 7.1 17.2l3.8 8.5 3.9 8.4.3.6-.4.4c-5.9 4.3-11.7 8.8-17.5 13.3-5.8 4.5-11.6 9-17.5 13.3l-17.8 13-8.8 6.5-9 6.4-2.5 1.7-1.2-2.9c-4.8-11.7-9.4-23.4-13.7-35.1-2.2-5.8-4.2-11.6-6.4-17.2l-6.3-16.8zm.4.1 15.8 34c5.1 11.1 10 22 14.6 33l-3.6-1 9-6.4 9-6.2 18.1-12.6c6.1-4.2 12.1-8.2 18.2-12.3 6.1-4 12.3-8.1 18.2-12.3l-.3.9-3.8-8.5-3.9-8.4c-2.6-5.6-5.5-11.1-8.2-16.6l1.6.7c-6.9 1.6-13.7 3.3-20.7 4.8-6.9 1.4-13.9 2.6-20.8 3.9l-10.6 1.7-10.7 1.7-21.9 3.6z" class="st6"/>
  <path d="m262 712.5 80.5 52.4-9.8 22-93.8-19.7z" class="st5"/>
  <path d="M262 712.2c13.2 7.9 26.9 16.2 40.5 24.9 6.8 4.3 13.7 8.7 20.5 13.3 6.8 4.6 13.4 9.2 20.1 13.9l.7.4-.3.7c-3.8 7.1-6.9 14.5-9.8 21.8l-.3.6-.7-.1-23.6-4.3c-7.8-1.4-15.8-3-23.6-4.6-7.8-1.6-15.6-3-23.6-4.6-7.8-1.6-15.6-3.3-23.4-5.1l-2.2-.4.9-2 6.2-13.9c2-4.6 4-9.2 6.2-13.7l12.4-26.9zm0 .4-10.7 28.2c-1.7 4.6-3.6 9.1-5.3 13.7l-5.3 13.6-1.3-2.5 23.4 4.8c7.8 1.6 15.6 3.3 23.4 5.1 7.8 1.7 15.6 3.5 23.4 5.2l23.3 5.5-.9.4c3.6-7.1 6.9-14.5 9.7-22l.3 1.2c-6.8-4.2-13.6-8.2-20.2-12.4-6.6-4.2-13.2-8.7-19.8-13-13.1-9-26.3-18.2-40-27.8z" class="st6"/>
  <path d="m283.7 658.1 57.5 39.1-10.7 28-70-12.2z" class="st5"/>
  <path d="m283.5 658 14.3 8.8c4.9 3 9.8 6.2 14.7 9.4s9.8 6.5 14.7 9.8c4.9 3.3 9.7 6.9 14.5 10.4l.7.6-.3.7c-2 4.6-4 9.2-5.8 13.9-1.9 4.6-3.6 9.2-5.3 14l-.1.4-.4-.1c-5.8-1-11.7-1.7-17.5-2.6-5.9-.9-11.7-1.7-17.6-2.6l-17.5-2.7c-5.8-.9-11.7-1.9-17.5-2.9l-2.5-.4 1-2.3c2-4.6 4-9.4 6.1-14l6.2-13.7c2-4.6 4.2-9 6.4-13.4l5.9-13.3zm.2.3-5.3 14.3c-1.7 4.6-3.5 9.4-5.2 14l-5.2 13.7c-1.7 4.5-3.6 9-5.5 13.4L261 711c5.8 1 11.7 2 17.5 3.2l17.5 3.3c5.8 1.2 11.6 2.3 17.3 3.6 5.8 1.2 11.6 2.5 17.3 3.6l-.7.4c1.9-4.6 3.6-9.4 5.3-14 1.7-4.8 3.3-9.4 4.9-14.2l.4 1.3c-4.9-3-9.7-6.1-14.5-9.2-4.8-3.2-9.4-6.5-14-9.8s-9.4-6.8-14-10.3l-14.3-10.6z" class="st6"/>
  <path d="m1712.3 669-89 19.5-6.7-17.4 78.6-44.6z" class="st5"/>
  <path d="M1712.4 669.1c-7.1 1.7-14.5 3.6-21.7 5.3-7.4 1.7-14.7 3.5-22.3 5.2-7.5 1.7-14.9 3.5-22.5 5.1-7.5 1.6-15.2 3-22.5 4.5l-.6.1-.1-.6c-.4-1.4-.9-2.9-1.4-4.3-.4-1.4-1-2.9-1.6-4.3-1.2-2.9-2.2-5.8-3.5-8.5l-.1-.4.4-.3 19.4-11.6c6.5-3.8 13-7.7 19.5-11.4l19.5-11.3c6.5-3.8 13.2-7.4 19.7-11.1l1.4-.9.6 1.4 4.2 11c1.3 3.6 2.7 7.2 4 10.8l7.6 21.3zm-.3-.1-9.4-21.2c-1.6-3.5-3-6.9-4.5-10.4l-4.3-10.3 2 .7c-6.5 3.8-13 7.5-19.5 11.3l-19.7 11c-6.5 3.6-13.2 7.4-19.8 11l-19.8 10.8.3-.7c.9 2.9 2 5.8 3 8.7.6 1.4 1.2 2.9 1.7 4.3.6 1.4 1.2 2.9 1.9 4.2l-.9-.4c7.4-1.7 14.6-3.6 22-5.2 7.2-1.7 14.6-3.2 22.1-4.8 7.4-1.6 14.7-3 22.3-4.5l22.6-4.5z" class="st6"/>
  <path d="m1206.3 1502.4-35.1-112.4 50.4-19.8 52.8 103.9z" class="st5"/>
  <path d="M1206.3 1502.6c-6.4-17.8-12.7-36.3-18.9-55.2-3-9.4-6.2-18.9-9-28.5-2.9-9.5-5.5-19.2-8.2-28.8l-.3-1 1-.3c4.2-1.4 8.5-3 12.7-4.6 4.2-1.6 8.4-3.2 12.7-4.8 4.2-1.7 8.4-3.3 12.6-5.1 4.2-1.7 8.4-3.5 12.6-5.2l.9-.3.4.9 13.9 25.6c4.6 8.5 9.1 17.2 13.6 25.7 4.5 8.7 9 17.2 13.4 25.9 4.5 8.7 8.7 17.3 13 26l1.2 2.3-2.3.9-17.5 6.9c-5.8 2.3-11.7 4.6-17.5 6.8l-34.3 12.8zm.2-.5 34-15.6c5.5-2.6 11.1-4.9 16.6-7.4l16.5-7.2-1.2 3.2c-4.5-8.7-9-17.2-13.3-25.9s-8.7-17.3-13-26c-4.3-8.7-8.5-17.5-12.9-26.2l-12.6-26.3 1.3.4c-4.2 1.6-8.5 3-12.7 4.6s-8.4 3.2-12.6 4.9c-4.2 1.7-8.4 3.3-12.6 5.1-4.2 1.7-8.4 3.5-12.4 5.2l.7-1.4c3.2 9.2 6.4 18.4 9.4 27.5 3 9.1 5.8 18.5 8.5 27.7 5.6 18.9 10.9 37.8 16.3 57.4z" class="st6"/>
  <path d="m1274.4 1474.3-16.9-84.6 33.9-15.3 50.9 71.5z" class="st5"/>
  <path d="m1274.2 1474.4-4.9-20.2-2.5-10.4-2.5-10.6c-1.6-7.1-3.2-14.3-4.5-21.5-1.4-7.2-2.5-14.5-3.8-21.7l-.1-1.2 1-.4c5.8-2.3 11.6-4.6 17.2-7.1l8.5-3.8 8.4-3.9.6-.3.4.4c4.3 5.9 8.8 11.7 13.3 17.5 4.5 5.8 9 11.6 13.3 17.5l13 17.8 6.5 8.8 6.4 9 1.7 2.5-2.9 1.2c-11.7 4.8-23.4 9.4-35.1 13.7-5.8 2.2-11.6 4.2-17.2 6.4l-16.8 6.3zm.2-.4 34-15.8c11.1-5.1 22-10 33-14.6l-1 3.6-6.4-9-6.2-9-12.4-18.1c-4.2-6.1-8.2-12.1-12.3-18.2-4-6.1-8.1-12.3-12.3-18.2l.9.3-8.5 3.8-8.4 3.9c-5.6 2.6-11.1 5.5-16.6 8.2l.7-1.6c1.6 6.9 3.3 13.7 4.8 20.7 1.4 6.9 2.6 13.9 3.9 20.8l1.7 10.6 1.7 10.7 3.4 21.9z" class="st6"/>
</svg>
