<svg xmlns="http://www.w3.org/2000/svg" xml:space="preserve" id="Layer_1" x="0" y="0" style="enable-background:new 0 0 2000 2000" version="1.1" viewBox="0 0 2000 2000">
  <style>
    .st0{fill:#ad8f3b;stroke:#604620;stroke-width:9.124;stroke-miterlimit:10}.st1{fill:#e2c06d}.st2{fill:#f7d95c}.st3{fill:#fcf494}.st4{fill:#f3b75e}.st5{fill:#a57955}.st6{opacity:.39;fill:#706034;enable-background:new}.st8{fill:#f6ef7d}.st10{fill:#ad8f3b}.st11{fill:#604620}.st12{fill:#f9e073}.st13{fill:#f8e9ab}.st14{fill:#e2c547}.st15{fill:#eed057}.st16{fill:#fff2bc}.st17{fill:#ddc043}.st18{fill:none;stroke:#ddc043;stroke-width:4.5621;stroke-miterlimit:10}.st19{fill:#694e25}.st20{fill:#fff6cf}.st21{fill:#fce481}
  </style>
  <path d="M621.1 1437.4 462.8 1058 619 677.7l379.4-158.3 380.3 156.2L1537 1055l-156.2 380.3-379.4 158.3-380.3-156.2zm249.6-509.6L817.6 1057l53.9 128.9 129.2 53.1 128.9-53.9 53.1-129.2-53.9-128.9-129.2-53.1-128.9 53.9z" class="st0"/>
  <path d="M1357.8 696.7 998.5 549l-141.7 59.1-77.2 32.4-139.7 58.3L572.8 862l-28 68.2-52.5 127.9 71.9 171.9 53.1 127.4 24.7 59.1 129 53 230.2 94.6 13.3-5.5 249.3-104 77.2-32.4 18.6-7.8 111-269.9 28-68.1 8.7-21.3-149.5-358.4zm-351.6 569.6-5.6 2.4-150.2-61.6-20.3-48.6-12.2-29.3-9.7-23.1-20.3-48.6 12.2-29.7 49.6-120.5 149.9-62.6 137.2 56.3 13 5.3 2.5 5.9 60.1 143.9-61.6 150.2-67.1 28-77.5 32z" class="st1"/>
  <path d="M1002.5 1990.7 341.2 1719 65.8 1059.1l271.8-661.3 659.9-275.5 661.3 271.8 275.5 659.9-271.8 661.3-660 275.4zm-385-549.5 384 157.9 383.1-159.9 157.9-384-159.9-383.1-384-157.9L615.3 674l-157.9 384 160.1 383.2z" class="st0"/>
  <path d="m1714.3 645.2-21.9-52.3-68.4-163.7-357.6-147-114.3-46.9-154.4-63.5-470 196.2-77.2 32.4-77.8 32.5-89.5 217.4-28 68.1-90.4 220-28 68.1-21.6 52.4 126.2 302.5 9.9 24L376 1683.9l626.3 257.5 7.1-2.9 31.7-13.3 225.6-94.2 77.2-32.2 249.3-104 34-14.2 15.7-38.1 117.6-286.4 28-68.1 96.1-234-170.3-408.8zm-178.7 546.5-115.9 282-4.9 2-77.2 32.4-249.3 104-77.2 32.4-9.4 3.9-419.1-172.2-86.6-207.5-53.1-127.4-34.7-83.1 72.2-175.4 28-68.1 72.2-175.4 125.7-52.4 77.2-32.4 215.1-89.8 419.1 172.2 174.6 418.1-28.3 68.8-28.4 67.9z" class="st1"/>
  <path d="m470 1589.3-221.7-530.9 218.7-532 530.9-221.7 532 218.7 221.7 530.9-218.7 532L1002 1808l-532-218.7zm15.8-1044.2-211 513.4 213.8 512.2 513.4 211 512.2-213.8 211-513.4-213.8-512.2-513.4-211-512.2 213.8z" class="st2"/>
  <path d="m469.8 1589.6-56-132.1-56-132.4L246 1059.7l-.4-1.1.4-1.1 108.9-266.2 54.6-133 54.9-133 .4-1.1 1.1-.4L731.7 414l133-54.9L997.5 304l.4-.1.4.1 133 54.8 133.1 54.5 133.1 54.4 133.1 54.4.7.3.3.8 111.7 265.1 111.2 265.2.6 1.3-.6 1.4-108.9 266.2-109.1 266.1-.6 1.5-1.5.6-265.5 110.4-265.7 110-1.1.4-1.1-.4-265.9-110.5-265.3-110.9zm.4-.6L737 1697l266.1 108.2h-2.4l265.1-111.4 265.2-111.1-2.2 2.2 109.4-265.9 109.7-265.9v2.8l-110.3-265.6-110-265.8 1.1 1.1-132.8-55.1-132.8-54.9-133-54.8-133-54.6h1l-132.5 55.5-132.5 55.9L468 529.4l1.7-1.7-54.5 133.1-54.8 133-109.7 265.8v-2.4l109.8 265.4 54.8 133 54.9 133.4z" class="st3"/>
  <path d="m486.1 545.5-52 128.9L382 803l-104.4 256.7v-2.4l107.3 256 53.4 128.1 53.2 128.2-1.7-1.7 256.3 106.5 128.2 53.2 128.2 53h-1l128.1-53.4 128.1-53.7 127.9-53.8 127.9-53.9-1.1 1.1 104.5-257.1 105.1-257v2.8l-107.6-255.8-107-256.1 2.2 2.2L1253 440 996.6 333.8h2.4L742.8 439.6 486.1 545.5zm-.6-.7 255.4-108.2 256.1-108 1.1-.4 1.1.4 257 104.8L1513 538.6l1.5.6.6 1.5L1622 796.8l106.6 256.3.6 1.3-.6 1.3-106.1 256.5-106.3 256.4-.3.8-.7.3-128.2 53-128.2 53.1-128.1 53.2-128.1 53.4-.4.1-.4-.1-128.3-52.4-128.6-52.3-257.1-104.4-1.1-.4-.6-1.1-53.7-127.9-53.4-128.1-106.5-256.3-.4-1.1.4-1.1 106.1-256.7 53.4-128 53.5-127.8z" class="st3"/>
  <path d="m562.7 1749.3 49.9-76.5 16.8 7.7-24.6 87.2z" class="st4"/>
  <path d="M562.6 1749.3c3.9-6.2 7.8-12.6 11.8-19.1 3.9-6.3 8.1-12.9 12.2-19.5s8.3-13 12.6-19.5 8.7-12.7 13-19.1l.4-.6.6.3c1.3.7 2.8 1.4 4.1 2.2 1.3.7 2.8 1.3 4.2 2 2.9 1.3 5.6 2.7 8.5 3.6l.4.1-.1.6-5.7 21.9c-1.8 7.3-3.9 14.6-5.9 21.9l-6 21.9c-2 7.3-4.2 14.4-6.2 21.7l-.4 1.5-1.4-.7-10.8-4.9c-3.5-1.5-7.1-3.4-10.5-4.9l-20.8-9.4zm.3 0 21.6 8.5c3.6 1.4 7 2.9 10.4 4.2l10.4 4.3-1.8.8c2-7.3 4.1-14.4 6-21.7l6.3-21.7c2.2-7.3 4.2-14.4 6.3-21.7l6.7-21.6.3.7c-2.8-1.4-5.5-2.8-8.3-4.1-1.4-.6-2.8-1.3-4.2-1.8-1.4-.6-2.9-1.1-4.3-1.7l.8-.3c-4.1 6.3-8 12.9-12 19.1-4.1 6.3-8.3 12.6-12.5 18.8-4.2 6.2-8.4 12.6-12.7 18.8l-13 19.4z" class="st5"/>
  <path d="m645.1 1786.4 39.9-57.1 28.1 11-13.4 70.1z" class="st4"/>
  <path d="m644.8 1786.4 9.1-14.3c3.1-4.8 6.3-9.7 9.5-14.6 3.4-4.9 6.6-9.8 9.9-14.6 3.5-4.9 7.1-9.5 10.5-14.3l.6-.7.7.3c4.6 2 9.1 4.1 13.7 6 4.6 1.8 9.2 3.8 13.9 5.6l.4.1-.1.4c-1 5.7-1.8 11.8-2.9 17.5-.8 5.9-1.8 11.8-2.8 17.5l-3.1 17.5c-1 5.7-2 11.8-3.2 17.5l-.4 2.5-2.4-1c-4.6-2-9.2-4.2-13.9-6.3l-13.7-6.6c-4.6-2.2-9-4.3-13.5-6.6l-12.3-5.9zm.4-.1 14.3 5.6c4.6 1.8 9.4 3.6 13.9 5.5l13.6 5.5c4.5 1.8 9 3.8 13.5 5.6l-2.8 1.4c1.1-5.7 2.2-11.6 3.5-17.4l3.6-17.4c1.1-5.7 2.5-11.6 3.8-17.4 1.3-5.7 2.7-11.6 3.8-17.4l.4.7c-4.6-1.8-9.2-3.8-14-5.6-4.6-1.7-9.4-3.5-14.2-5l1.3-.4c-3.2 4.8-6.2 9.5-9.4 14.3-3.2 4.6-6.7 9.2-9.9 13.9-3.5 4.6-6.9 9.2-10.4 13.9l-11 14.2z" class="st5"/>
  <path d="m526.2 1790.6 85.3 36.9 83.2-210-19.8-152.6-50.7-20.9z" class="st6"/>
  <path d="M1419.8 1473.8c13.5-35.3 26.9-70.5 40.8-105.8l20.6-52.7 20.9-52.7c13.7-35.2 27.7-70.2 41.9-105.4l21-52.5 21.2-52.4v4.9c-14.7-34.7-29.6-69.5-44-104.2l-43.9-104.4-43.4-104.5c-14.4-34.9-28.9-69.8-43.2-104.7l3.5 3.5-52.3-21.9-52.1-22c-34.7-14.6-69.5-29.4-104.2-44.1l-52-22.3-52-22.4c-34.6-14.9-69.2-30-103.7-45.4 35.3 13.5 70.5 26.9 105.8 40.6l52.7 20.6 52.6 21c35.2 13.7 70.2 27.7 105.4 41.9l52.5 21 52.4 21.2 2.5 1 1 2.5c14.7 34.7 29.6 69.5 44 104.2l43.9 104.4 43.4 104.5c14.4 34.9 28.9 69.8 43.2 104.7l1 2.5-1 2.5-21.9 52.3-22 52.1c-14.6 34.7-29.4 69.5-44.1 104.2l-22.3 52-22.4 52c-15.4 34.6-30.7 69.2-45.8 103.8z" style="fill:#846a36"/>
  <path d="M580.4 639.1c-13.5 35.3-26.9 70.5-40.6 105.8l-20.6 52.7-20.9 52.7c-13.7 35.2-27.7 70.2-41.9 105.4l-21 52.5-21.2 52.4v-4.9c14.7 34.7 29.6 69.5 44 104.2l43.9 104.4 43.4 104.5c14.4 34.9 28.9 69.8 43.2 104.7l-3.5-3.5 52.3 21.9 52.1 22c34.7 14.6 69.5 29.4 104.2 44.1l52 22.3 52 22.4c34.6 14.9 69.2 30.1 103.7 45.5-35.3-13.5-70.5-26.9-105.8-40.6L843 1587l-52.7-20.9c-35.2-13.7-70.2-27.7-105.4-41.9l-52.5-21L580 1482l-2.5-1-1-2.5c-14.7-34.7-29.6-69.5-44-104.2l-43.9-104.4-43.4-104.5c-14.4-34.9-28.9-69.8-43.2-104.7l-1-2.5 1-2.5 21.9-52.3 22-52.1c14.6-34.7 29.4-69.5 44.1-104.2l22.3-52 22.4-52c15.3-34.8 30.3-69.6 45.7-104z" class="st8"/>
  <path d="M594.1 1464.6 424.3 1058l167.4-407.4 406.6-169.8 407.4 167.4 169.8 406.6-167.4 407.4-406.6 169.8-407.4-167.4zm407.3 124 375.9-156.9 154.8-376.8L1375.2 679 998.5 524.3l-376 157L467.7 1058l156.9 375.9 376.8 154.7z" class="st2"/>
  <path d="m593.8 1464.9-85.9-202.6-85.6-203.2-.3-.8.3-.8 83.4-204 41.9-102 42-101.9.4-.8.8-.4 203.7-84.2 101.9-42 101.7-42.3.4-.1.4.1 101.9 42 102 41.8 102 41.8 102 41.6.6.3.3.6 85.5 203 85.3 203 .4 1-.4 1-83.4 203.9-83.8 203.9-.4 1.1-1.1.4-203.3 84.6-203.9 84.6-.8.3-.8-.3-203.7-84.6-203.5-85zm.4-.4 204.4 82.7 203.9 82.8h-1.7l203-85.3 203.2-85.2-1.5 1.5 83.9-203.9 84.1-203.7v2L1489 851.8l-84.2-203.6.8.8-101.7-42.2-101.9-42.1-101.9-42L998 481h.7l-101.6 42.6-101.4 43.6-202.9 85.6 1.3-1.3-41.8 102-41.9 101.9-84.1 203.7v-1.7l84.2 203.3 83.7 203.8z" class="st3"/>
  <path d="m1001.4 1588.3 187.6-79.7 187.5-78.9-1.1 1.1 77.1-188.4 38.7-94.2 38.8-94.2v1.8l-77.8-188.2-38.8-94.2-39.1-94 .6.6-94.2-38.8-94.2-38.5-94.2-38.7-94.3-38.3h1.1l-187.7 79-187.7 78.7 1.4-1.4-77.2 188.4-77.4 188.6v-2.4l78.2 188 77.9 188.2-1.1-1.1 187.7 78 188.2 78.6zm0 .6-188.6-76.4-188.9-76.8-.8-.3-.3-.8-78.9-187.7-78.8-187.9-.4-1.1.4-1.1 77.5-188.3 77.6-188.3.4-1 1-.4 188.2-77.9L998 523.1l.6-.3.6.3 94 39 94.2 39 94.2 38.8 94.2 38.7.4.1.1.4 39.4 93.9 39.5 93.9 79.2 187.6.4.8-.4.8-38.5 94.3-38.7 94.2-77.6 188.3-.3.8-.8.3-188.4 77.9-188.7 77z" class="st3"/>
  <path d="M1002.4 1941.3c-52.7-20.2-105.4-40.5-157.9-61.1l-78.7-31-78.6-31.1-78.6-31.2-78.7-31.5-78.5-31.5-78.5-31.7-3.4-1.3-1.4-3.5c-22-52-44-103.8-65.9-155.9l-65.4-156.1-65-156.2c-21.6-52.1-43-104.2-64.6-156.6l-1.4-3.5 1.4-3.4 32.6-78 32.6-78.3c21.9-52 43.7-104 66-155.9l33.2-77.9 33.5-77.8c22.3-51.8 44.7-103.5 67.7-155.2-20.2 52.7-40.5 105.4-61.1 157.9L281 669.1l-31.1 78.6c-20.7 52.4-41.8 104.8-62.8 157.3l-31.8 78.9-31.7 78.5v-6.9c22 52 44 103.8 65.9 155.9l65.4 156.1 65 156.2c21.7 52.1 43 104.2 64.5 156.6l-4.8-4.8 78 32.6 78 32.9 78 32.9 77.9 33.2 77.9 33.2 77.8 33.5c51.8 22.3 103.5 44.8 155.2 67.5z" style="fill:#664528"/>
  <path d="M997.5 171.5c52.5 20.6 105.2 41.2 157.6 61.9l78.6 31.2 78.6 31.4c52.4 20.9 104.7 42 157.2 63.2l78.5 31.7 78.3 31.8 2.5 1 1 2.5c22 52 43.9 104 65.7 155.9l65.4 156.1 65 156.2c21.7 52.1 43.2 104.2 64.7 156.5l1 2.5-1 2.5-32.5 78.2-32.8 78c-21.9 52-43.6 104.1-65.6 156.1l-32.9 77.9-33.2 77.9c-22.1 52-44.3 103.8-66.8 155.5 20.6-52.5 41.2-105.2 61.9-157.6l31.2-78.6 31.4-78.6c20.9-52.4 42-104.7 63.2-157.2l31.7-78.5 31.8-78.3v4.9c-22-52-43.9-104-65.7-155.9l-65.4-156.1-65-156.2c-21.7-52.1-43.2-104.2-64.7-156.5l3.5 3.5-78.2-32.5-78-32.8c-52-21.7-104.1-43.6-156.1-65.6l-77.9-32.9-77.9-33.2c-51.4-21.2-103.3-43.4-155.1-65.9z" class="st8"/>
  <path d="m1476.8 1784.6-85.2 36.6-83.1-210 9.8-111.3 60.6-62.1z" class="st6"/>
  <path d="M674.9 1614.2 526 1794l-232.4 21.9-179.8-149L92 1434.6l148.7-179.9 232.5-21.8 179.7 148.9z" class="st10"/>
  <path d="M675.4 1614.2c-12 15.3-24.1 30.3-36.1 45.5l-36.6 45.5-36.8 45.5-37.1 45.5-.8 1.1-1.4.1-58.1 5.7-58.1 5.6c-19.5 1.8-38.7 3.8-58.1 5.5-19.5 1.8-38.8 3.5-58.1 5.2l-1.5.1-1.1-1-89.1-75.5-44.4-37.7L113 1668l-.4-.4v-.6l-5.3-58.1-5.6-58.1-2.9-29-3.1-29-5.9-58.1-.1-1 .7-.8 36.8-45.4 18.4-22.7 18.4-22.6 37-45.3 37.1-45.3 1.1-1.3 1.7-.1 116.2-11.5 58.1-5.6 58.1-5.5 2-.1 1.5 1.3 89.7 74.7 89.4 75.1 1.1 1 .1 1.4c3.4 39 6.6 77.9 9.7 116.7l4.6 58.3 4 58.2zm-.9-.1-6.6-58.3-6.3-58.1c-4.1-38.7-8.3-77.2-12.2-115.6l1.3 2.5-90.4-73.7-90.2-74.1 3.6 1.1-58.1 5.5-58.1 5.3-116.3 10.4 2.9-1.5-37.4 44.7-37.5 44.7-18.8 22.3-18.8 22.3-37.7 44.4.6-1.8 4.9 58.1 2.5 29.1 2.7 29.1 5.3 58.1 5.5 58.1-.6-1 45.3 37 45.4 36.7 90.7 73.4-2.8-.8c19.5-1.8 38.7-3.9 58.1-5.7s38.7-3.8 58.1-5.5l58.1-5.3 58.1-5-2.5 1.3 37.4-44.4 37.7-44.3 38-44.4c12.5-14.9 25.2-29.9 38.1-44.6z" class="st11"/>
  <path d="M137.1 1654.6 117 1442.3l135.9-164.2 212.4-20 164.4 136 20 212.3-136 164.3-212.3 19.9z" class="st1"/>
  <path d="m701.1 250.4-69 73.9 83.1 224.5 64.3 19.4 59.9-21.6z" class="st6"/>
  <path d="m158.9 1643.2-18.3-193.4 124-149.8 193.5-18.4 149.7 124 18.4 193.5-124 149.8-193.6 18.3z" class="st0"/>
  <path d="m1193.4 100.2 91.4 214.8-87 216.5L983 623.1 766.4 536l-91.5-214.8L762 104.7l214.6-91.6z" class="st10"/>
  <path d="M1193.6 99.9c8 17.5 15.8 35.3 23.8 53l23.8 53.2 23.7 53.7 23.4 53.8.6 1.3-.6 1.4-21.4 54.4-21.6 54.2c-7.3 18.1-14.4 36-21.7 54.2-7.3 18.1-14.6 36-22 54.1l-.6 1.4-1.4.6-107.9 44.6-53.9 22.3-54.1 22.6-.6.3-.6-.3-54.2-21.9-54.2-21.6-27-10.8-27.1-10.6-54.4-21.3-.8-.4-.4-1-23.4-53.4-11.8-26.6-11.6-26.8-23.3-53.7-23.1-53.6-.7-1.5.7-1.7 43.2-108.4 21.7-54.2 21.7-54.2.7-1.8 1.8-.7L867.7 55 975.5 9.8l1.4-.6 1.3.6c36.1 14.9 72.3 30 108.2 44.8l53.8 22.6 53.4 22.7zm-.5.7-54.8-21-54.5-21c-36.1-14-72.4-28-108.3-42.2h2.8l-107 46.5-107.2 46.2 2.7-2.7-21.8 54.3-22 54.1-44 108v-3.4l22.6 53.8 22.4 53.9 11.3 26.9 11.2 26.9 22.3 53.9-1.3-1.3 53.9 22.3 26.9 11.2 27 11.1 54.1 21.9 54.2 21.7h-1.4l53.7-23.3 53.4-23.4 106.9-46.9-2 2c7.1-18.1 14.2-36.1 21.6-54.4 7.3-18.1 14.4-36 21.7-54.2l21.9-54.1 22-54.1v2.8l-22.3-53.7-22.1-53.8-22-54.1c-7.4-17.7-14.6-35.8-21.9-53.9z" class="st11"/>
  <path d="M784.9 517.2 701.1 321l79.8-197.9 196-83.7L1175 119l83.5 196.3-79.4 197.8-196.3 83.8z" class="st1"/>
  <path d="m802.2 499.5-76.3-178.7 72.6-180.4 178.8-76.3 180.3 72.5 76.2 178.8-72.4 180.5-178.9 76.2z" class="st0"/>
  <path d="m1147.4 152.6 71.6 167.7-68.1 169-167.6 71.5-169.1-68-71.4-167.6 68.1-169.1 167.5-71.4z" class="st2"/>
  <path d="m884.6 421.2-41.5-96.9 39.3-97.8 97-41.5 97.8 39.5 41.5 96.8-39.5 97.8-96.9 41.3z" class="st12"/>
  <path d="m1077.2 224.5 70.2-71.9 71.6 167.7-100.3 1z" class="st13"/>
  <path d="m742.8 325.2 100.3-.9 41.5 96.9-70.4 71.6z" class="st14"/>
  <path d="m982.3 460.4-97.7-39.2-70.4 71.6 169.1 68z" class="st15"/>
  <path d="m978.4 84.7 1 100.3 97.8 39.5 70.2-71.9z" class="st12"/>
  <path d="M979.4 185c8.3 2.9 16.5 6 24.8 9.1 8.3 3.1 16.5 6 24.7 9.2l24.7 9.4 24.5 9.5.7.3.3.7 10.4 24.2 10.4 24.2c6.9 16.3 13.7 32.4 20.5 48.5l.3.8-.3.7c-6.7 16.3-13.5 32.5-20.3 48.6-3.5 8.1-6.9 16.3-10.4 24.2-3.5 8.1-7 16.1-10.5 24.2 2.9-8.3 6-16.5 9.1-24.8 3.1-8.3 6-16.5 9.2-24.7 6.2-16.4 12.6-32.8 18.9-49v1.5c-7.1-16.1-13.9-32.4-20.9-48.3l-10.2-24.4-10.1-24.4 1.1 1.1-24.4-10.1-24.4-10.1c-8.1-3.5-16.3-7-24.2-10.4-7.8-2.9-15.8-6.4-23.9-10z" class="st16"/>
  <path d="M982.3 460.4c-8.3-2.9-16.5-6-24.8-9.1-8.3-3.1-16.5-6-24.7-9.2l-24.7-9.4-24.5-9.5-.7-.3-.3-.7-10.2-24.2-10.4-24.3c-6.9-16.3-13.7-32.4-20.5-48.5l-.3-.8.3-.7c6.7-16.3 13.5-32.5 20.3-48.6 3.5-8.1 6.9-16.3 10.4-24.2 3.5-8.1 7-16.1 10.5-24.2-2.9 8.3-6 16.5-9.1 24.8-3.1 8.3-6 16.5-9.2 24.7-6.2 16.4-12.6 32.8-18.9 49v-1.7c7.1 16.1 13.9 32.4 20.9 48.3l10.2 24.4 10.1 24.4-1.1-1.1 24.4 10.1 24.4 10.1c8.1 3.5 16.3 7 24.2 10.4 7.6 3.3 15.8 6.8 23.7 10.3z" class="st17"/>
  <path d="m1147.4 152.6 71.6 167.7-68.1 169-167.6 71.5-169.1-68-71.4-167.6 68.1-169.1 167.5-71.4z" class="st18"/>
  <path d="m592.8 1411.2 18.7 181.3-115.1 141.4-181.1 18.6-141.4-115-18.6-181.3 115-141.4 181.2-18.5z" class="st2"/>
  <path d="m262.3 1589.9-10.9-104.8 66.5-81.9 104.9-10.8 81.8 66.6 10.8 104.8-66.6 81.7-104.8 10.9z" class="st12"/>
  <path d="m504.6 1459 88.2-47.8 18.7 181.3-96.1-28.7z" class="st13"/>
  <path d="m155.3 1456.2 96.1 28.9 10.9 104.8-88.4 47.6z" class="st14"/>
  <path d="m344 1656.4-81.7-66.5-88.4 47.6 141.4 115z" class="st15"/>
  <path d="m451.5 1296.3-28.7 96.1 81.8 66.6 88.2-47.8z" class="st12"/>
  <path d="M422.8 1392.4c7.1 5.2 13.9 10.8 20.9 16.1s13.9 10.8 20.9 16.3l20.7 16.4 20.6 16.4.6.6.1.8 2.9 26.2 2.8 26.2c1.7 17.5 3.6 34.9 5.2 52.4l.1.8-.6.6c-11.2 13.6-22.4 27-33.8 40.4-5.6 6.7-11.3 13.5-17.1 20.2-5.6 6.7-11.5 13.3-17.2 20 5.2-7.1 10.8-13.9 16.1-20.9s10.8-13.9 16.3-20.9c10.9-13.7 21.7-27.6 32.8-41.3l-.4 1.4c-2-17.4-3.8-34.9-5.6-52.4l-2.7-26.2-2.7-26.2.7 1.4-20.3-16.8-20.2-17c-6.7-5.6-13.5-11.3-20.2-17.1-6.6-5.9-13.2-11.5-19.9-17.4z" class="st16"/>
  <path d="M344 1656.4c-7.1-5.2-13.9-10.8-20.9-16.1-7-5.3-13.9-10.8-20.9-16.3l-20.7-16.4-20.6-16.4-.6-.6-.1-.8-2.9-26.2-2.8-26.2c-1.7-17.5-3.6-34.9-5.2-52.4l-.1-.8.6-.6c11.2-13.6 22.4-27 33.8-40.4 5.6-6.7 11.3-13.5 17.1-20.2 5.6-6.7 11.5-13.3 17.2-20-5.2 7.1-10.8 13.9-16.1 20.9s-10.8 13.9-16.3 20.9c-10.9 13.7-21.7 27.6-32.8 41.3l.4-1.4c2 17.4 3.8 34.9 5.6 52.4l2.7 26.2 2.7 26.2-.7-1.4 20.3 16.8 20.2 17c6.7 5.6 13.5 11.3 20.2 17.1 6.7 5.8 13.3 11.5 19.9 17.4z" class="st17"/>
  <path d="m592.8 1411.2 18.7 181.3-115.1 141.4-181.1 18.6-141.4-115-18.6-181.3 115-141.4 181.2-18.5z" class="st18"/>
  <path d="M966.9 838 980 956l19.2 42.5 18.2-42.6L1028 838zM812.1 1168.6l103.3-58.8 31.2-34.4-46.2.1-112.7 36.9zM1204.8 1107l-114.4-31.6-46.5 2.2 32.9 32.5 105.5 53.7z" class="st1"/>
  <path d="M1043.9 1077.6c3.1 2.5 6 4.9 9 7.4s5.7 5 8.7 7.7 5.6 5.2 8.5 7.8 5.6 5.2 8.4 8l-.7-.4c3.2 1.4 6.3 3.1 9.5 4.6 3.2 1.5 6.3 3.1 9.4 4.8 6.2 3.2 12.6 6.6 18.6 9.8 3.2 1.5 6.2 3.4 9.2 5 3.1 1.7 6.2 3.5 9.2 5.2 6 3.5 12.2 7.3 18.1 11.2-6.7-2.5-13.2-5.2-19.8-8.1-3.2-1.4-6.6-2.9-9.7-4.3-3.2-1.4-6.3-2.9-9.5-4.5-6.3-3.1-12.7-6.2-18.9-9.2-3.2-1.5-6.2-3.2-9.4-4.8-3.2-1.5-6.2-3.2-9.4-4.9l-.4-.3-.3-.3c-2.7-2.8-5.3-5.5-8-8.4-2.7-2.9-5.2-5.6-7.8-8.5s-5.2-5.7-7.7-8.7c-2.1-3.1-4.5-6.1-7-9.1zM847.1 1148.5c5.3-3.9 10.8-7.6 16.3-11.2 2.8-1.7 5.5-3.6 8.3-5.2 2.8-1.7 5.5-3.5 8.4-5.2l8.4-5 8.5-4.9c2.8-1.5 5.6-3.2 8.5-4.8 2.9-1.5 5.6-3.2 8.5-4.8l-.7.6 8.1-8.4 8.3-8.3c2.8-2.8 5.5-5.5 8.4-8.1 2.8-2.7 5.6-5.3 8.7-7.8-2.4 3.2-4.6 6.2-7 9.4-2.4 3.1-4.8 6-7.3 9.1-2.5 3.1-4.9 5.9-7.4 9l-7.6 8.8-.3.3-.4.3c-2.8 1.7-5.6 3.4-8.4 4.9-2.9 1.5-5.6 3.4-8.5 4.9l-8.5 4.8-8.7 4.6c-2.9 1.5-5.7 3.1-8.7 4.5-2.9 1.4-5.7 2.9-8.8 4.3-6 2.9-11.9 5.7-18.1 8.2zM971.6 879.1c1.4 6.3 2.7 12.7 3.8 18.9.6 3.2 1.1 6.3 1.5 9.5.4 3.2 1 6.3 1.4 9.5l1.3 9.5 1.1 9.5c.4 3.2.7 6.3 1 9.5l1 9.5-.3-.8 4.5 10.8 4.3 10.9c1.4 3.6 2.8 7.3 4.1 10.9 1.3 3.6 2.7 7.4 3.8 11.1-2-3.4-3.9-6.7-5.7-10.1-1.8-3.4-3.6-6.9-5.5-10.2l-5.2-10.4-5-10.4-.1-.3v-.4l-1.1-9.5c-.4-3.2-.7-6.3-1-9.5l-1-9.5-.8-9.7c-.3-3.2-.4-6.3-.7-9.7-.3-3.2-.4-6.3-.6-9.7-.7-6.4-1-12.8-.8-19.4z" class="st19"/>
  <path d="m515.4 1162.8 112.6-35.4 19.9 50.5-104.2 53.1z" class="st4"/>
  <path d="M515.2 1162.7c17.8-6.3 36.3-12.7 55.3-18.9 9.4-3.1 18.9-6.2 28.6-9 9.5-2.9 19.2-5.5 28.9-8.3l1-.3.3 1c1.4 4.2 3.1 8.5 4.6 12.8 1.5 4.2 3.2 8.4 4.8 12.7 1.7 4.2 3.4 8.4 5 12.6 1.7 4.2 3.5 8.4 5.2 12.6l.3.8-.8.4-25.6 13.9c-8.5 4.6-17.2 9.1-25.8 13.6-8.7 4.5-17.2 9-25.9 13.5s-17.4 8.8-26.1 13l-2.4 1.1-.8-2.4-7-17.5c-2.4-5.7-4.6-11.8-6.9-17.5l-12.7-34.1zm.3.2 15.7 34c2.7 5.5 4.9 11.2 7.4 16.7l7.3 16.5-3.2-1.1c8.7-4.5 17.2-9 25.9-13.3 8.7-4.3 17.4-8.7 26.1-13 8.7-4.3 17.4-8.5 26.2-12.9l26.3-12.6-.4 1.3c-1.5-4.2-3.1-8.5-4.6-12.7-1.5-4.2-3.2-8.4-4.9-12.6s-3.4-8.4-5-12.6c-1.7-4.2-3.5-8.4-5.2-12.5l1.4.7c-9.2 3.2-18.4 6.3-27.5 9.4-9.1 3.1-18.5 5.7-27.7 8.5-19 5.5-38 10.6-57.8 16.2z" class="st5"/>
  <path d="m486.2 1096.3 84.6-16.9 15.5 33.9-71.6 51.2z" class="st4"/>
  <path d="m485.9 1096.1 20.3-4.9 10.4-2.5 10.5-2.5c7.1-1.5 14.3-3.2 21.6-4.5 7.3-1.4 14.4-2.7 21.7-3.8l1.1-.1.4 1c2.4 5.7 4.6 11.6 7.1 17.2l3.8 8.5 3.9 8.4.3.6-.4.4c-5.9 4.3-11.8 8.8-17.5 13.3s-11.6 9-17.5 13.3l-17.8 13-8.8 6.6-9 6.3-2.5 1.7-1.1-2.9c-4.8-11.8-9.4-23.4-13.7-35.2-2.2-5.7-4.2-11.6-6.3-17.2l-6.5-16.7zm.5.3 15.8 34c5 11.2 9.9 22 14.6 33.1l-3.6-1 9-6.3 9-6.2 18.1-12.6c6-4.2 12.2-8.3 18.2-12.3 6-4.1 12.3-8.1 18.2-12.3l-.3.8-3.8-8.5-3.9-8.4c-2.7-5.6-5.5-11.2-8.3-16.7l1.5.7c-7 1.5-13.7 3.4-20.7 4.8s-13.9 2.7-20.9 3.9l-10.5 1.7-10.8 1.7-21.6 3.6z" class="st5"/>
  <path d="m1269.6 638.2-54.8 104.7-49.8-22 36.3-110.8z" class="st4"/>
  <path d="M1269.9 638.1c-8.1 17.1-16.7 34.7-25.6 52.5-4.5 8.8-9 17.8-13.7 26.5-4.8 8.8-9.7 17.5-14.4 26.1l-.6 1-.8-.4c-4.1-1.8-8.1-3.9-12.3-5.7-4.1-1.8-8.3-3.8-12.5-5.5-4.2-1.7-8.3-3.6-12.5-5.3-4.2-1.7-8.4-3.5-12.6-5.2l-.8-.3.3-.8 8.4-28c2.9-9.2 5.6-18.5 8.7-27.7 2.9-9.2 5.7-18.5 8.8-27.7 2.9-9.2 6-18.5 9.1-27.6l.8-2.4 2.4 1 17.2 7.6c5.7 2.5 11.5 5 17.1 7.6l33 14.3zm-.5.1-35-13c-5.7-2.2-11.5-4.3-17.1-6.6l-16.8-6.6 3.1-1.4c-2.9 9.2-5.7 18.5-9 27.7-3.1 9.2-6.2 18.4-9.2 27.6-3.1 9.2-6.2 18.4-9.4 27.6l-9.7 27.5-.6-1.3c4.1 1.8 8.3 3.8 12.3 5.6 4.1 1.8 8.3 3.6 12.5 5.5 4.2 1.7 8.3 3.6 12.5 5.3s8.4 3.5 12.6 5l-1.4.6c4.3-8.8 8.5-17.5 12.9-26.2 4.3-8.7 9-17.2 13.6-25.8 8.8-16.6 18.5-33.7 28.7-51.5z" class="st5"/>
  <path d="m1201.5 610.1-47.9 71.7-34.9-13.2 14.4-86.7z" class="st4"/>
  <path d="m1201.6 610.1-10.9 17.9-5.6 9.1-5.7 9.2c-3.9 6-8 12.3-12 18.4-4.2 6-8.5 12-12.7 17.9l-.7.8-1-.4c-5.7-2.5-11.5-4.8-17.2-7.1l-8.7-3.4-8.7-3.2-.6-.1.1-.6c1.1-7.3 2-14.4 3.1-21.9 1-7.3 1.8-14.6 3.1-21.9l3.4-21.7 1.7-10.9 1.7-10.9.4-3.1 2.9 1.1c11.6 4.9 23.3 9.9 34.6 15.1 5.6 2.7 11.2 5.2 16.8 7.7l16 8zm-.4 0-35.3-12.9c-11.5-4.2-22.6-8.5-33.8-13l3.4-1.8-1.8 10.9-1.8 10.9-3.9 21.7c-1.3 7.3-2.8 14.3-4.2 21.6-1.4 7.3-2.9 14.3-4.2 21.6l-.4-.8 8.7 3.4 8.7 3.2c5.7 2 11.8 4.1 17.7 5.9l-1.5.6c3.8-6 7.4-12 11.3-17.9 3.9-5.9 8-11.6 12-17.5l6.2-8.7 6.3-8.8 12.6-18.4z" class="st5"/>
  <path d="m1337.2 664.6-48 71.7-34.9-13 14.6-86.9z" class="st4"/>
  <path d="m1337.5 664.4-10.9 17.9-5.6 9.1-5.7 9.2c-3.9 6-8 12.3-12 18.4-4.2 6-8.5 12-12.7 17.9l-.7.8-1-.4c-5.7-2.5-11.5-4.8-17.2-7.1l-8.7-3.4-8.7-3.2-.6-.1.1-.6c1.1-7.3 2-14.4 3.1-21.9 1-7.3 1.8-14.6 3.1-21.9l3.4-21.7 1.7-10.9 1.7-10.9.4-3.1 2.9 1.1c11.6 4.9 23.3 9.9 34.6 15.1 5.6 2.7 11.2 5.2 16.8 7.7l16 8zm-.4.2-35.3-12.9c-11.5-4.2-22.6-8.5-33.8-13l3.4-1.8-1.8 10.9-1.8 10.9-3.9 21.7c-1.3 7.3-2.8 14.3-4.2 21.6s-2.9 14.3-4.2 21.6l-.4-.8 8.7 3.4 8.7 3.2c5.7 2 11.8 4.1 17.7 5.9l-1.5.6c3.8-6 7.4-12 11.3-17.9 3.9-5.9 8-11.6 12-17.5l6.2-8.7 6.3-8.8 12.6-18.4z" class="st5"/>
  <path d="m1777.2 819.1-94.4 19.5-8.5-22.4 80.6-52.3z" class="st4"/>
  <path d="M1777.3 819.3c-14.9 3.6-30.5 7.4-46.4 10.9-8 1.7-16 3.5-24 5s-16.1 2.9-24.1 4.3l-.8.1-.3-.7c-2.4-7.7-5.2-15.3-8.4-22.6l-.3-.6.6-.4 19.9-13.6c6.7-4.5 13.3-9 20-13.3 6.7-4.3 13.3-8.8 20-13.2 6.7-4.3 13.5-8.7 20.3-13l1.8-1.1.7 2 5.3 14.2c1.7 4.8 3.6 9.4 5.2 14.2l10.5 27.8zm-.3-.2-12.3-27.6c-2-4.5-3.9-9-5.7-13.5l-5.7-13.5 2.8.8c-6.7 4.3-13.3 8.8-20.2 13.2-6.7 4.3-13.5 8.5-20.3 12.9-6.9 4.3-13.5 8.5-20.3 12.7l-20.5 12.6.3-1c2.5 7.7 5.3 15.3 8.5 22.4l-1-.6c7.8-1.8 15.6-3.6 23.1-5.3 7.6-1.7 15.6-3.2 23.3-4.6 15.8-2.9 31.5-5.7 48-8.5z" class="st5"/>
  <path d="m1865.3 1071.9-83.6-17.3 1.9-18.3 83.8-9.5 8.8 23.9z" class="st4"/>
  <path d="M1865.3 1072c-6.9-1.1-13.7-2.4-20.7-3.6-7-1.1-13.9-2.7-21-3.9-7-1.3-14-2.8-21.2-4.3s-14-3.2-21-4.8l-.7-.1.1-.6c.3-1.5.4-3.1.7-4.6.1-1.5.3-3.1.6-4.6.3-3.1.6-6 .7-9.2v-.4l.6-.1 21-2.9c7-.8 13.9-1.8 21-2.7 7-.8 14-1.7 21-2.7 7-.8 14-1.5 21-2.4l1.1-.1.4 1 8.4 24.1.1.4-.3.4-5.9 10.5-5.9 10.6zm0-.3 5-11.1 5-10.5v.8l-9.1-24 1.4.8c-7 .8-14 1.7-21 2.5s-14 1.4-21 2.2c-7 .7-14 1.4-21 2.2l-21 1.8.6-.6c-.4 3.1-.7 6-1.1 9.1-.1 1.5-.3 3.1-.4 4.6-.1 1.5-.1 3.1-.3 4.6l-.6-.7c7 1.3 13.9 2.5 20.9 3.8 7 1.3 13.7 2.8 20.7 4.3 7 1.4 13.7 3.1 20.9 4.6 6.9 2.4 13.9 4 21 5.6z" class="st5"/>
  <path d="m132.7 1035.7 84.7 10.7-.5 18.6-82.9 16-10.7-23.3z" class="st4"/>
  <path d="M132.6 1035.6c7 .6 13.9 1.3 20.9 2 7.1.7 14.2 1.4 21.3 2.4 7.1.8 14.2 1.5 21.3 2.7s14.2 2.2 21.3 3.2l.7.1v.6c-.1 1.5-.3 3.1-.3 4.6-.1 1.5-.1 3.1-.1 4.6 0 3.1-.1 6.2 0 9.2v.4l-.6.1-20.7 4.5c-7 1.4-13.7 2.9-20.7 4.2-7 1.4-13.7 2.8-20.7 4.2-7 1.3-13.9 2.7-20.7 3.9l-1.1.1-.4-1-10.2-23.3-.1-.4.1-.4 5.2-11.1 4.8-10.6zm.1.3-4.2 11.3-4.2 11.1v-.8l10.9 23-1.5-.8c7-1.4 13.7-2.8 20.7-4.1 7-1.3 13.9-2.7 20.7-3.9 7-1.3 13.9-2.5 20.9-3.8l20.9-3.5-.6.6c.3-3.1.3-6.2.4-9.2v-4.6c0-1.5 0-3.1-.1-4.6l.6.7c-7.1-.7-14-1.4-21-2.2-7-.8-13.9-1.7-21-2.8-7-1-14-1.8-21.2-3.1-6.8-1-14-2.2-21.3-3.3z" class="st5"/>
  <path d="m395.1 422.6 46.7 71.6-14.4 11.5-65.9-52.8 10.8-23z" class="st4"/>
  <path d="M395.1 422.5c4.1 5.6 8 11.5 12 17.2 4.1 5.7 8 11.8 12 17.7 4.1 5.9 8 11.9 11.9 17.9 3.9 6 7.6 12.2 11.3 18.2l.3.6-.4.3c-1.3.8-2.5 1.8-3.8 2.8-1.3.8-2.5 1.8-3.6 2.9-2.4 2-4.8 3.9-7.1 5.9l-.3.6-.4-.3-16.8-12.9c-5.5-4.3-11.2-8.7-16.7-13-5.5-4.3-11.2-8.7-16.5-13-5.5-4.3-11.1-8.8-16.4-13.3l-.8-.7.4-1 11.2-23 .3-.4.4-.1 11.8-3.2 11.2-3.2zm0 .3-11.3 4.1-11.1 3.9.6-.6-10.5 23.3-.4-1.7c5.5 4.3 11.1 8.7 16.5 13.2 5.5 4.3 10.9 8.8 16.4 13.3s10.9 9 16.4 13.5l16.3 13.6h-.8c2.5-1.8 4.9-3.8 7.3-5.6 1.1-1 2.4-1.8 3.5-3.1 1.1-1 2.4-2 3.5-3.1l-.1.8c-4.1-5.7-8-11.6-12-17.4-3.9-5.7-7.7-11.8-11.5-17.7-3.8-5.9-7.6-11.9-11.3-18.1-4-6-7.7-12.1-11.5-18.4z" class="st5"/>
  <path d="m1832.8 957.4-89.2 19.5-6.5-17.4 78.6-44.7z" class="st4"/>
  <path d="M1832.9 957.5c-7.1 1.7-14.4 3.6-21.7 5.3-7.4 1.7-14.7 3.5-22.3 5.2-7.6 1.7-14.9 3.5-22.6 5-7.6 1.5-15.3 3.1-22.6 4.5l-.6.1-.1-.6c-.4-1.4-.8-2.9-1.4-4.3-.4-1.4-1-2.9-1.5-4.3-1.1-2.9-2.2-5.7-3.5-8.5l-.1-.4.4-.3 19.5-11.6c6.6-3.8 13-7.7 19.6-11.5l19.6-11.3c6.6-3.8 13.2-7.4 19.8-11.2l1.4-.8.6 1.4 4.2 11.1c1.3 3.6 2.8 7.3 4.1 10.9l7.2 21.3zm-.2-.1-9.4-21.3c-1.5-3.5-3.1-7-4.5-10.4l-4.3-10.2 2 .7c-6.6 3.8-13 7.6-19.6 11.3l-19.8 11.1c-6.6 3.6-13.2 7.4-19.9 11.1l-19.9 10.9.3-.7c.8 2.9 2 5.7 3.1 8.7.6 1.4 1.1 2.9 1.7 4.3.6 1.4 1.1 2.9 1.8 4.2l-.8-.4c7.4-1.7 14.6-3.6 22-5.2 7.3-1.7 14.6-3.2 22.1-4.8 7.4-1.5 14.7-3.1 22.3-4.5l22.9-4.8z" class="st5"/>
  <path d="m1755 764.1-68.6 12.7-12.1-27.6 58.5-40.6z" class="st4"/>
  <path d="m1755.2 764.1-16.5 3.8c-5.6 1.3-11.3 2.5-17.1 3.8-5.7 1.1-11.6 2.4-17.4 3.5-5.7 1-11.8 1.8-17.5 2.8l-.8.1-.3-.7c-1.8-4.6-3.6-9.4-5.6-14-1.8-4.6-3.9-9.2-6-13.7l-.1-.4.4-.3c4.8-3.5 9.5-7 14.3-10.5 4.8-3.6 9.5-7.1 14.3-10.5l14.4-10.4c4.8-3.5 9.7-6.9 14.4-10.2l2-1.4.8 2.4c1.8 4.8 3.8 9.5 5.5 14.3l5.2 14.2c1.7 4.8 3.4 9.4 5 14l5 13.2zm-.3-.2-6.3-14c-2-4.6-4.2-9.1-6-13.6l-5.9-13.5c-1.8-4.5-3.8-9-5.6-13.5l2.9.8c-4.9 3.4-9.7 6.9-14.6 9.9l-14.7 9.9c-4.9 3.4-9.8 6.6-14.9 9.7-4.9 3.2-9.9 6.3-14.9 9.7l.1-.7c2 4.6 3.9 9.2 6 13.7 2 4.6 4.3 9.1 6.6 13.6l-1.1-.6c5.6-1.3 11.2-2.7 16.7-3.6 5.6-1 11.2-2 16.8-2.9 5.6-.8 11.5-1.7 17.2-2.7l17.7-2.2z" class="st5"/>
  <path d="m1800.2 873.2-68.5 12.8-12.2-27.5 58.2-40.6z" class="st4"/>
  <path d="m1800.3 873.2-16.5 3.8c-5.6 1.3-11.3 2.5-17.1 3.8-5.7 1.1-11.6 2.4-17.4 3.5-5.7 1-11.8 1.8-17.5 2.8l-.8.1-.3-.7c-1.8-4.6-3.6-9.4-5.6-14-1.8-4.6-3.9-9.2-6-13.7l-.1-.4.4-.3c4.8-3.5 9.5-7 14.3-10.5 4.8-3.6 9.5-7.1 14.3-10.5l14.4-10.4c4.8-3.5 9.7-6.9 14.4-10.2l2-1.4.8 2.4c1.8 4.8 3.8 9.5 5.5 14.3l5.2 14.2c1.7 4.8 3.4 9.4 5 14l5 13.2zm-.3-.1-6.3-14c-2-4.6-4.2-9.1-6-13.6l-5.9-13.5c-1.8-4.5-3.8-9-5.6-13.5l2.9.8c-4.9 3.4-9.7 6.9-14.6 9.9l-14.7 9.9c-4.9 3.4-9.8 6.6-14.9 9.7-4.9 3.2-9.9 6.3-14.9 9.7l.1-.7c2 4.6 3.9 9.2 6 13.7 2 4.6 4.3 9.1 6.6 13.6l-1.1-.6c5.6-1.3 11.2-2.7 16.7-3.6 5.6-1 11.2-2 16.8-2.9 5.6-.8 11.5-1.7 17.2-2.7l17.7-2.2z" class="st5"/>
  <path d="m260.4 711.7 80.7 52.8-9.8 21.8-94.1-19.6z" class="st4"/>
  <path d="M260.2 711.5c13.2 8 26.9 16.3 40.5 24.9 6.9 4.3 13.7 8.7 20.6 13.3 6.9 4.6 13.5 9.2 20.2 13.9l.7.4-.3.7c-3.8 7.1-7 14.4-9.8 21.9l-.3.6-.7-.1-23.7-4.3c-7.8-1.4-15.8-3.1-23.7-4.6-7.8-1.5-15.7-3.1-23.7-4.6-7.8-1.5-15.7-3.4-23.4-5l-2.2-.4.8-2 6.2-13.9c2-4.6 4.1-9.2 6.2-13.7l12.6-27.1zm.2.3-10.8 28.3c-1.7 4.6-3.6 9.1-5.3 13.7l-5.3 13.6-1.3-2.5c7.8 1.5 15.7 3.2 23.4 4.8 7.8 1.5 15.7 3.4 23.4 5 7.8 1.7 15.7 3.5 23.4 5.2l23.3 5.5-.8.4c3.6-7.1 7-14.4 9.7-22l.3 1.1c-6.9-4.2-13.6-8.3-20.3-12.5-6.7-4.2-13.2-8.7-19.9-13-12.8-8.7-26.2-17.8-39.8-27.6z" class="st5"/>
  <path d="m199 863.7 77.2 48.9-7.7 16.8-87.3-23.4z" class="st4"/>
  <path d="M199 863.5c6.3 3.8 12.7 7.6 19.2 11.6 6.6 3.9 13 8 19.6 11.9 6.6 4.1 13 8.1 19.6 12.3 6.6 4.2 12.9 8.5 19.2 12.7l.6.3-.3.6c-.7 1.3-1.4 2.8-2 4.2-.7 1.4-1.3 2.8-2 4.2-1.1 2.9-2.5 5.6-3.6 8.5l-.1.4-.6-.1-22-5.5c-7.3-1.8-14.6-3.8-21.9-5.6l-21.9-5.7c-7.3-1.8-14.6-3.9-21.9-5.9l-1.5-.4.7-1.4 4.8-10.8c1.5-3.5 3.2-7.1 4.8-10.5l9.3-20.8zm0 .3-8.3 21.7c-1.3 3.6-2.8 7.1-4.1 10.5l-4.2 10.4-.8-1.8c7.3 1.8 14.6 3.8 21.9 5.7l21.9 6c7.3 2 14.4 4.1 21.7 6l21.7 6.3-.7.3c1.4-2.8 2.7-5.5 3.9-8.4.6-1.4 1.3-2.8 1.8-4.2.6-1.4 1.1-2.9 1.7-4.3l.3.8c-6.6-3.9-12.9-7.8-19.2-11.8-6.3-3.9-12.7-8.1-18.9-12.2-6.3-4.2-12.6-8.3-18.9-12.6L199 863.8z" class="st5"/>
  <path d="m318.1 574.3 77.2 49.2-7.6 16.8-87.4-23.6z" class="st4"/>
  <path d="M318.1 574.2c6.3 3.8 12.7 7.6 19.2 11.6 6.6 3.9 13 8 19.6 11.9 6.6 4.1 13 8.1 19.6 12.3 6.6 4.2 12.9 8.5 19.2 12.7l.6.3-.3.6c-.7 1.3-1.4 2.8-2 4.2-.7 1.4-1.3 2.8-2 4.2-1.1 2.9-2.5 5.6-3.6 8.5l-.1.4-.6-.1-22-5.5c-7.3-1.8-14.6-3.8-21.9-5.6l-21.9-5.7c-7.3-1.8-14.6-3.9-21.9-5.9l-1.5-.4.7-1.4 4.8-10.8c1.5-3.5 3.2-7.1 4.8-10.5l9.3-20.8zm.1.3-8.3 21.7c-1.3 3.6-2.8 7.1-4.1 10.5l-4.2 10.4-.8-1.8c7.3 1.8 14.6 3.8 21.9 5.7l21.9 6c7.3 2 14.4 4.1 21.7 6l21.7 6.3-.7.3c1.4-2.8 2.7-5.5 3.9-8.4.6-1.4 1.3-2.8 1.8-4.2.6-1.4 1.1-2.9 1.7-4.3l.3.8c-6.6-3.9-12.9-7.8-19.2-11.8-6.3-3.9-12.7-8.1-18.9-12.2-6.3-4.2-12.6-8.3-18.9-12.6l-19.8-12.4z" class="st5"/>
  <path d="m237.2 766.6 57.6 39.2L284 834l-70-12.4z" class="st4"/>
  <path d="m237.1 766.4 14.3 8.8c4.9 3.1 9.8 6.2 14.7 9.4 4.9 3.2 9.8 6.6 14.7 9.8s9.7 7 14.4 10.4l.7.6-.3.7c-2 4.6-4.1 9.2-5.7 13.9-1.8 4.6-3.6 9.2-5.3 14l-.1.4-.4-.1c-5.7-1-11.8-1.7-17.7-2.7-5.9-1-11.8-1.7-17.7-2.7l-17.5-2.8c-5.7-.8-11.8-1.8-17.5-2.9l-2.5-.4 1-2.4c2-4.6 4.1-9.4 6-14l6.2-13.7c2-4.6 4.2-9 6.3-13.5l6.4-12.8zm.1.3-5.3 14.3c-1.7 4.6-3.5 9.4-5.2 14l-5.2 13.7c-1.7 4.5-3.6 9-5.5 13.5l-1.4-2.8c5.7 1 11.8 2 17.5 3.2l17.5 3.4c5.7 1.1 11.6 2.4 17.4 3.6 5.7 1.1 11.6 2.5 17.4 3.6l-.7.4c1.8-4.6 3.6-9.4 5.3-14 1.7-4.8 3.4-9.4 4.9-14.2l.4 1.3c-4.9-3.1-9.7-6-14.4-9.2-4.8-3.2-9.4-6.6-14-9.8s-9.4-6.9-14-10.2l-14.7-10.8z" class="st5"/>
  <path d="m282.1 657.3 57.7 39.2-10.9 28-69.9-12.3z" class="st4"/>
  <path d="m281.9 657.2 14.3 8.8c4.9 3.1 9.8 6.2 14.7 9.4 4.9 3.2 9.8 6.6 14.7 9.8 4.9 3.2 9.7 7 14.4 10.4l.7.6-.3.7c-2 4.6-4.1 9.2-5.7 13.9-1.8 4.6-3.6 9.2-5.3 14l-.1.4-.4-.1c-5.7-1-11.8-1.7-17.7-2.7-5.9-.8-11.8-1.7-17.7-2.7l-17.5-2.8c-5.7-.8-11.8-1.8-17.5-2.9l-2.5-.4 1-2.4c2-4.6 4.1-9.4 6-14l6.2-13.7c2-4.6 4.2-9 6.3-13.5l6.4-12.8zm.2.2-5.3 14.3c-1.7 4.6-3.5 9.4-5.2 14l-5.2 13.7c-1.7 4.5-3.6 9-5.5 13.5l-1.4-2.8c5.7 1 11.8 2 17.5 3.2l17.5 3.4c5.7 1.1 11.6 2.4 17.4 3.6 5.7 1.1 11.6 2.5 17.4 3.6l-.7.4c1.8-4.6 3.6-9.4 5.3-14 1.7-4.8 3.4-9.4 4.9-14.2l.4 1.3c-4.9-3.1-9.7-6-14.4-9.2-4.8-3.2-9.4-6.6-14-9.8-4.6-3.4-9.4-6.9-14-10.2l-14.7-10.8z" class="st5"/>
  <path d="m1140.4 1532.7-16.8-84.8 33.9-15.4 51.1 71.8z" class="st4"/>
  <path d="m1140.4 1532.8-4.9-20.3-2.5-10.4-2.5-10.5c-1.5-7.1-3.2-14.3-4.5-21.6-1.4-7.3-2.5-14.4-3.8-21.7l-.1-1.1 1-.4c5.7-2.4 11.6-4.6 17.2-7.1l8.5-3.8 8.4-3.9.6-.3.4.4c4.3 5.9 8.8 11.8 13.3 17.5 4.5 5.7 9 11.6 13.3 17.5l13 17.8 6.6 8.8 6.3 9 1.7 2.5-2.9 1.1c-11.8 4.8-23.4 9.4-35.2 13.7-5.7 2.2-11.6 4.2-17.2 6.3l-16.7 6.5zm.1-.4 34-15.8c11.2-5 22-9.9 33.1-14.6l-1 3.6-6.3-9-6.2-9-12.5-18.1c-4.2-6-8.3-12.2-12.3-18.2-4.1-6-8.1-12.3-12.3-18.2l.8.3-8.5 3.8-8.4 3.9c-5.6 2.7-11.2 5.5-16.7 8.3l.7-1.5c1.5 7 3.4 13.7 4.8 20.7s2.7 13.9 3.9 20.9l1.7 10.5 1.7 10.8 3.5 21.6z" class="st5"/>
  <path d="m644 452.7-77.2 32.1-116.4-84.7 77.3-32.3zM783.3 554.5l-77.2 32-116.3-84.9 77.2-32.1zM856.8 608.1l642 468.1-28 68.3L1152 912l-15.4-11.5-357-260.2z" class="st20"/>
  <path d="M1714.3 645.2 1282 331.4l7.5-17-8.9-22L1692.3 593z" class="st13"/>
  <path d="m267.2 1013.2-18.7 45.4 17.7 42.3-129.6-94.5 28.1-68zM464.8 1216.2l-160.7-87.6-29.3-70.2 12.6-30.5 155.5 113.5zM1014.7 1558.5l-13.3 5.4-230.2-94.5-153.7-112.1-53.2-127.5zM1204.7 1697l-77.2 32.3-116.4-84.9 77.2-32.1zM1344 1798.8l-77.2 32.2-116.3-84.9 77.2-32.2z" class="st21"/>
  <path d="m385.5 725-27.9 68.1L255 718.4l28.2-68.1zM508.2 814.5l-27.9 68.1-102.5-74.7 28-68.1zM808.2 1105.6l9.5 23.3-24.9-18.2-247.7-180.8 28-68.2 227 165.6-12.4 29.7zM1341.2 1422.1l-77.2 32.3-257.8-188.1 77.2-32.3zM1041.2 1925.1l-31.7 13.4-380.1-258z" class="st13"/>
  <path d="m1664.5 1202.3-24.9 60.3-89.5-65.3 24.8-60.3zM1774.2 1282.5l-24.8 60.2-89.5-65.4 24.8-60.3z" class="st20"/>
  <path d="m1784.8 1264.9 136.4 189.5-37.4 230.3-189.4 136.5-230.4-37.3-136.6-189.6L1365 1364l189.3-136.5z" class="st10"/>
  <path d="M1785 1264.5c11.6 15.4 23.1 31 34.7 46.5l34.9 46.8 34.7 47.1 34.6 47.4.8 1.1-.3 1.4-9 57.6-9.1 57.6c-3.1 19.2-6.2 38.4-9.2 57.6-3.1 19.2-6.3 38.4-9.5 57.4l-.3 1.5-1.3.8-95.4 67.3-47.8 33.6-47.5 33.8-.4.3-.6-.1-57.6-9.4-57.6-9.1-28.9-4.5-28.9-4.5-57.6-8.8-1-.1-.6-.8-34.6-46.9-17.2-23.4-17.2-23.7-34.5-47.1-34.3-47.2-1-1.4.3-1.7 18.2-115.3 9.2-57.6 9.4-57.6.3-2 1.5-1.1 95-68 95.1-67.5 1.3-.8 1.4.3c38.5 6.6 77.1 13.5 115.4 20.2l57.4 10.1 57.2 10.2zm-.5.9-58.1-8.4-57.7-8.5c-38.4-5.7-76.8-11.5-115-17.4l2.7-.6-94.2 68.9-94.4 68.7 2-3.2-9.4 57.6-9.4 57.6-19.1 115.2-.7-3.2 33.9 47.5 33.8 47.6 17 23.8 16.8 24 33.6 47.6-1.5-1 57.4 9.8 28.9 4.9 28.9 4.8 57.6 9.5 57.6 9.2-1.1.3 47.1-34.5 46.9-34.6 94-69.2-1.5 2.5c3.1-19.2 5.9-38.4 9.1-57.6 3.1-19.2 6.2-38.4 9.4-57.6l9.5-57.6 9.7-57.4.6 2.7-33.6-47.4-33.5-47.6-33.5-47.9c-11.6-16.4-22.6-32.4-33.8-48.5z" class="st11"/>
  <path d="m1477.8 1761.4-124.7-172.9 34.2-210.6 173.1-124.7 210.6 34.2 124.6 173-34.2 210.4-172.9 124.7z" class="st1"/>
  <path d="m1490.8 1740.3-113.6-157.6 31.1-191.8 157.7-113.8 192 31.3 113.6 157.6-31.2 192-157.6 113.6z" class="st0"/>
  <path d="m1749.4 1321.8 106.7 147.7-29 179.9-147.9 106.6-179.9-29-106.7-147.6 29.1-179.9 147.8-106.8z" class="st2"/>
  <path d="m1552.2 1641.6-61.8-85.5 16.8-104 85.5-61.6 103.9 16.8 61.8 85.3-16.8 104.1-85.5 61.7z" class="st12"/>
  <path d="m1696.6 1407.3 52.8-85.5 106.7 147.7-97.7 23.1z" class="st13"/>
  <path d="m1392.6 1579.4 97.8-23.3 61.8 85.5-52.9 85.4z" class="st14"/>
  <path d="m1656.1 1658.4-103.9-16.8-52.9 85.4 179.9 29z" class="st15"/>
  <path d="m1569.5 1292.7 23.2 97.8 103.9 16.8 52.8-85.5z" class="st12"/>
  <path d="M1592.7 1390.5c8.7 1 17.4 2.4 26.1 3.5s17.4 2.4 26.1 3.6l26.1 3.8 26.1 3.9.8.1.6.7 15.6 21.3 15.6 21.3c10.2 14.3 20.6 28.6 30.7 42.9l.4.7-.1.8c-2.9 17.4-5.9 34.6-9.1 51.8-1.5 8.7-3.2 17.2-4.8 25.9-1.5 8.7-3.2 17.2-4.9 25.9 1-8.7 2.4-17.4 3.5-26.1 1.1-8.7 2.4-17.4 3.6-26.1 2.5-17.4 5-34.7 7.7-52.1l.4 1.5c-10.4-14.2-20.7-28.4-31-42.6l-15.4-21.4-15.4-21.4 1.3.8-25.9-4.5-25.9-4.6c-8.7-1.5-17.2-3.2-25.9-4.8-9-1.6-17.7-3.2-26.2-4.9z" class="st16"/>
  <path d="M1656.1 1658.4c-8.7-1-17.4-2.4-26.1-3.5-8.7-1.1-17.4-2.4-26.1-3.6l-26.1-3.8-26.1-3.9-.8-.1-.6-.7-15.6-21.3-15.6-21.3c-10.2-14.3-20.6-28.6-30.7-42.9l-.4-.7.1-.8c2.9-17.4 5.9-34.6 9.1-51.8 1.5-8.7 3.2-17.2 4.8-25.9 1.5-8.7 3.2-17.2 4.9-25.9-1 8.7-2.4 17.4-3.5 26.1-1.1 8.7-2.4 17.4-3.6 26.1-2.5 17.4-5 34.7-7.7 52.1l-.3-1.5c10.4 14.2 20.7 28.4 31 42.6l15.4 21.4 15.4 21.4-1.3-.8 25.9 4.5 25.9 4.6c8.7 1.5 17.2 3.2 25.9 4.8 8.9 1.7 17.6 3.2 26.1 4.9z" class="st17"/>
  <path d="m1749.4 1321.8 106.7 147.7-29 179.9-147.9 106.6-179.9-29-106.7-147.6 29.1-179.9 147.8-106.8z" class="st18"/>
  <path d="m1625.9 458.6-69 50.3-12.4-13.6 49.3-68.6 23.7 9.5z" class="st4"/>
  <path d="M1626 458.6c-5.3 4.3-11.1 8.7-16.5 12.9-5.5 4.3-11.3 8.5-17.1 12.9-5.6 4.3-11.5 8.5-17.4 12.7-5.9 4.2-11.8 8.3-17.7 12.3l-.6.4-.4-.4c-1-1.1-1.8-2.5-2.9-3.6-1.1-1.1-2-2.4-3.1-3.5-2.2-2.2-4.2-4.5-6.3-6.7l-.3-.3.3-.4 12-17.4c4.1-5.7 8.1-11.6 12.2-17.4 4.1-5.7 8.1-11.6 12.2-17.2 4.1-5.7 8.3-11.5 12.5-17.1l.7-.8 1 .4 23.4 9.9.4.1.1.4 3.9 11.6 3.6 11.2zm-.3-.1-4.8-11.2-4.5-10.9.6.6-23.8-9.2 1.7-.4c-4.1 5.7-8.1 11.5-12.3 17.2-4.1 5.7-8.3 11.5-12.5 17.1-4.2 5.6-8.4 11.3-12.6 17l-12.7 17v-.8c1.8 2.5 4.1 4.6 6 7 1 1.1 2 2.4 3.2 3.4 1 1.1 2.2 2.2 3.2 3.4l-.8-.1c5.6-4.3 11.2-8.7 16.8-12.9s11.3-8.4 17.1-12.5c5.7-4.1 11.5-8.3 17.4-12.3 6-4.2 11.9-8.4 18-12.4z" class="st5"/>
  <path d="m1713.9 668.2-89.3 19.5-6.6-17.2 78.6-44.9z" class="st4"/>
  <path d="M1713.9 668.2c-7.1 1.7-14.4 3.6-21.7 5.3-7.4 1.7-14.7 3.5-22.3 5.2s-14.9 3.5-22.6 5c-7.6 1.5-15.3 3.1-22.6 4.5l-.6.1-.1-.6c-.4-1.4-.8-2.9-1.4-4.3-.4-1.4-1-2.9-1.5-4.3-1.1-2.9-2.2-5.7-3.5-8.5l-.1-.4.4-.3 19.5-11.6c6.6-3.8 13-7.7 19.6-11.5l19.6-11.3c6.6-3.8 13.2-7.4 19.8-11.2l1.4-.8.6 1.4 4.2 11.1c1.3 3.6 2.8 7.3 4.1 10.9l7.2 21.3zm-.2-.1-9.4-21.3c-1.5-3.5-3.1-7-4.5-10.4l-4.3-10.2 2 .7c-6.6 3.8-13 7.6-19.6 11.3l-19.8 11.1c-6.6 3.6-13.2 7.4-19.9 11.1l-19.9 10.9.3-.7c.8 2.9 2 5.7 3.1 8.7.6 1.4 1.1 2.9 1.7 4.3.6 1.4 1.1 2.9 1.8 4.2l-.8-.4c7.4-1.7 14.6-3.6 22-5.2 7.3-1.7 14.6-3.2 22.1-4.8 7.4-1.5 14.7-3.1 22.3-4.5l22.9-4.8z" class="st5"/>
  <path d="m543.5 1230.9 84.8-16.8 15.5 33.8L572 1299z" class="st4"/>
  <path d="m543.4 1230.6 20.3-4.9 10.4-2.5 10.5-2.5c7.1-1.5 14.3-3.2 21.6-4.5 7.3-1.4 14.4-2.7 21.7-3.8l1.1-.1.4 1c2.4 5.7 4.6 11.6 7.1 17.2l3.8 8.5 3.9 8.4.3.6-.4.4c-5.9 4.3-11.8 8.8-17.5 13.3s-11.6 9-17.5 13.3l-17.8 13-8.8 6.6-9 6.3-2.5 1.7-1.1-2.9c-4.8-11.8-9.4-23.4-13.7-35.2-2.2-5.7-4.2-11.6-6.3-17.2l-6.5-16.7zm.4.4 15.8 34c5 11.2 9.9 22 14.6 33.1l-3.6-1 9-6.3 9-6.2 18.1-12.6c6-4.2 12.2-8.3 18.2-12.3 6-4.1 12.3-8.1 18.2-12.3l-.3.8-3.8-8.5-3.9-8.4c-2.7-5.6-5.5-11.2-8.3-16.7l1.5.7c-7 1.5-13.7 3.4-20.7 4.8s-13.9 2.7-20.9 3.9l-10.5 1.7-10.8 1.7-21.6 3.6z" class="st5"/>
  <path d="m1206.8 1503.4-35.2-112.6 50.6-19.8 52.8 104.1z" class="st4"/>
  <path d="M1206.7 1503.7c-6.3-17.8-12.7-36.3-18.9-55.3-3.1-9.4-6.2-18.9-9-28.6-2.9-9.5-5.5-19.2-8.3-28.9l-.3-1 1-.3c4.2-1.4 8.5-3.1 12.7-4.6 4.2-1.5 8.4-3.2 12.7-4.8 4.2-1.7 8.4-3.4 12.6-5s8.4-3.5 12.6-5.2l.8-.3.4.8 13.9 25.6c4.6 8.5 9.1 17.2 13.6 25.8 4.5 8.7 9 17.2 13.5 25.9s8.7 17.4 13 26.1l1.1 2.4-2.4.8-17.5 7c-5.7 2.4-11.8 4.6-17.5 6.9l-34 12.7zm.2-.4 34-15.7c5.5-2.7 11.2-4.9 16.7-7.4l16.5-7.3-1.1 3.2c-4.5-8.7-9-17.2-13.3-25.9-4.3-8.7-8.7-17.4-13-26.1-4.3-8.7-8.5-17.5-12.9-26.2l-12.6-26.3 1.3.4c-4.2 1.5-8.5 3.1-12.7 4.6-4.2 1.5-8.4 3.2-12.6 4.9-4.2 1.7-8.4 3.4-12.6 5-4.2 1.7-8.4 3.5-12.5 5.2l.7-1.4c3.2 9.2 6.3 18.4 9.4 27.5 3.1 9.1 5.7 18.5 8.5 27.7 5.6 19 10.9 38 16.2 57.8z" class="st5"/>
  <path d="m1274.9 1475.3-16.8-84.8 33.9-15.4 51.1 71.7z" class="st4"/>
  <path d="m1274.9 1475.5-4.9-20.3-2.5-10.4-2.5-10.5c-1.5-7.1-3.2-14.3-4.5-21.6-1.4-7.3-2.5-14.4-3.8-21.7l-.1-1.1 1-.4c5.7-2.4 11.6-4.6 17.2-7.1l8.5-3.8 8.4-3.9.6-.3.4.4c4.3 5.9 8.8 11.8 13.3 17.5 4.5 5.7 9 11.6 13.3 17.5l13 17.8 6.6 8.8 6.3 9 1.7 2.5-2.9 1.1c-11.8 4.8-23.4 9.4-35.2 13.7-5.7 2.2-11.6 4.2-17.2 6.3l-16.7 6.5zm.1-.4 34-15.8c11.2-5 22-9.9 33.1-14.6l-1 3.6-6.3-9-6.2-9-12.5-18.1c-4.2-6-8.3-12.2-12.3-18.2s-8.1-12.3-12.3-18.2l.8.3-8.5 3.8-8.4 3.9c-5.6 2.7-11.2 5.5-16.7 8.3l.7-1.5c1.5 7 3.4 13.7 4.8 20.7s2.7 13.9 3.9 20.9l1.7 10.5 1.7 10.8 3.5 21.6z" class="st5"/>
  <path d="m699.3 1808.9 53.5-80.1 21.9 10.1-20.9 93.8z" class="st4"/>
  <path d="M699 1808.9c8.1-13.2 16.7-26.6 25.5-40.2 4.5-6.9 8.8-13.6 13.5-20.3 4.6-6.7 9.4-13.3 14-20l.4-.7.7.3c7.1 3.8 14.3 7.1 21.7 10.1l.6.3-.1.7-4.6 23.7c-1.5 7.8-3.2 15.7-4.9 23.4-1.7 7.8-3.4 15.7-5 23.4-1.7 7.8-3.5 15.7-5.3 23.4l-.6 2.2-2-.8-13.9-6.3c-4.6-2.2-9.2-4.2-13.7-6.3l-26.3-12.9zm.5-.2 28.2 11.2c4.6 1.7 9.1 3.6 13.6 5.5l13.5 5.5-2.7 1.3c1.7-7.8 3.4-15.7 5-23.4 1.7-7.8 3.6-15.7 5.3-23.4 1.7-7.8 3.6-15.7 5.5-23.3l5.7-23.3.4.8c-7.1-3.8-14.3-7.1-21.9-9.9l1.1-.3c-4.2 6.9-8.4 13.5-12.7 20.2-4.3 6.7-8.8 13.2-13.3 19.8-8.7 12.7-18.1 25.9-27.7 39.3z" class="st5"/>
  <path d="m850.2 1872.2 50.2-76.5 16.5 7.8-24.5 87.2z" class="st4"/>
  <path d="M850.1 1872.2c3.9-6.2 7.8-12.6 11.8-19.1 3.9-6.3 8.1-12.9 12.2-19.5s8.3-13 12.6-19.5c4.3-6.3 8.7-12.7 13-19.1l.4-.6.6.3c1.3.7 2.8 1.4 4.1 2.2 1.3.7 2.8 1.3 4.2 2 2.9 1.3 5.6 2.7 8.5 3.6l.4.1-.1.6-5.7 21.9c-1.8 7.3-3.9 14.6-5.9 21.9l-6 21.9c-2 7.3-4.2 14.4-6.2 21.7l-.4 1.5-1.4-.7-10.8-4.9c-3.5-1.5-7.1-3.4-10.5-4.9l-20.8-9.4zm.3-.2 21.6 8.5c3.6 1.4 7 2.9 10.4 4.2l10.4 4.3-1.8.8c2-7.3 4.1-14.4 6-21.7l6.3-21.7c2.2-7.3 4.2-14.4 6.3-21.7l6.7-21.6.3.7c-2.8-1.4-5.5-2.8-8.3-4.1-1.4-.6-2.8-1.3-4.2-1.8-1.4-.6-2.9-1.1-4.3-1.7l.8-.3c-4.1 6.3-8 12.9-12 19.1-4.1 6.3-8.3 12.6-12.5 18.8-4.2 6.2-8.4 12.6-12.7 18.8l-13 19.4z" class="st5"/>
  <path d="m753.7 1832.8 40.1-57.2 27.8 11.1-13.1 69.9z" class="st4"/>
  <path d="m753.5 1832.8 9.1-14.3c3.1-4.8 6.3-9.7 9.5-14.6 3.4-4.9 6.6-9.8 9.9-14.6 3.5-4.9 7.1-9.5 10.5-14.3l.6-.7.7.3c4.6 2 9.1 4.1 13.7 6 4.6 1.8 9.2 3.8 13.9 5.6l.4.1-.1.4c-1 5.7-1.8 11.8-2.9 17.5-.8 5.9-1.8 11.8-2.8 17.5l-3.1 17.5c-1 5.7-2 11.8-3.2 17.5l-.4 2.5-2.4-1c-4.6-2-9.2-4.2-13.9-6.3l-13.7-6.6c-4.6-2.2-9-4.3-13.5-6.6l-12.3-5.9zm.3-.1 14.3 5.6c4.6 1.8 9.4 3.6 13.9 5.5l13.6 5.5c4.5 1.8 9 3.8 13.5 5.6l-2.8 1.4c1.1-5.7 2.2-11.6 3.5-17.4l3.6-17.4c1.1-5.7 2.5-11.6 3.8-17.4 1.3-5.7 2.7-11.6 3.8-17.4l.4.7c-4.6-1.8-9.2-3.8-14-5.5-4.6-1.7-9.4-3.5-14.2-5l1.3-.4c-3.2 4.8-6.2 9.5-9.4 14.3-3.2 4.6-6.7 9.2-9.9 13.9-3.5 4.6-6.9 9.2-10.4 13.9l-11 14.1z" class="st5"/>
  <path d="m983.2 1933.1 12.7-84.2 18.4.7 14 83.4-23.4 10.1z" class="st4"/>
  <path d="M983 1933.1c.7-6.9 1.5-13.9 2.5-20.9.8-7 1.8-14 2.9-21.2 1-7.1 2-14.2 3.2-21.3 1.1-7.1 2.5-14.2 3.8-21.2l.1-.7h.6c1.5.1 3.1.3 4.6.4 1.5.1 3.1.1 4.6.3 3.1 0 6.2.3 9.2.1h.4l.1.6 3.9 20.7c1.3 7 2.7 13.9 3.8 20.9 1.1 7 2.5 13.9 3.6 20.9 1.1 7 2.4 13.9 3.5 20.9l.1 1.1-1 .4-23.7 9.7-.4.1-.4-.1-10.9-5.3-10.5-5.4zm.2-.1 11.2 4.5 10.9 4.5h-.8l23.3-10.2-.8 1.5c-1.1-7-2.5-13.9-3.6-20.9-1.1-7-2.2-13.9-3.4-20.9-1.1-7-2.2-13.9-3.2-20.9l-3.1-20.9.6.6c-3.1-.3-6-.4-9.2-.6-1.5 0-3.1-.1-4.6-.1h-4.6l.7-.6c-.8 7-1.7 14-2.8 21-.8 7-2 13.9-3.2 20.9-1.1 7-2.4 13.9-3.6 21-1 6.9-2.4 14.1-3.8 21.1z" class="st5"/>
</svg>
