<svg xmlns="http://www.w3.org/2000/svg" xml:space="preserve" id="Layer_1" x="0" y="0" style="enable-background:new 0 0 2000 2000" version="1.1" viewBox="0 0 2000 2000">
  <style>
    .st2{fill:#f7d95c}.st3{fill:#fcf494}.st5{fill:#f3b75e}.st6{fill:#a57955}.st18{fill:#f9e073}.st19{fill:#f8e9ab}.st20{fill:#e2c547}.st21{fill:#eed057}.st22{fill:#fff2bc}.st23{fill:#ddc043}.st24{fill:none;stroke:#ddc043;stroke-width:3.1496;stroke-miterlimit:10}.st27{opacity:.39;fill:#537234}.st44{fill:#92a0ad;stroke:#68657f;stroke-width:6.2991;stroke-miterlimit:10}.st45{fill:#c9d3d6}.st47{fill:#767fbd}.st51{fill:#92a0ad}.st52{fill:#729bad}.st53{fill:#d0edf5}.st54{opacity:.4;fill:#feffff}.st56{opacity:.22;fill:#e8f6f9}
  </style>
  <path d="m719.5 1284.6-109.3-261.9L718 760.1l262-109.3 262.5 107.9 109.3 261.9-107.9 262.5L982 1392.5l-262.5-107.9zm172.1-351.8L855 1022l37.2 89 89.2 36.7 89-37.2 36.7-89.2-37.2-89-89.2-36.7-89.1 37.2z" class="st44"/>
  <path d="M1228.1 773.2 980 671.2 882.2 712l-53.3 22.3-96.4 40.2-46.3 112.7-19.3 47.1-36.3 88.3 49.6 118.7 36.7 87.9 17 40.8 89.1 36.6 159 65.4 9.2-3.8 172.1-71.8 53.3-22.3 12.9-5.4 76.6-186.3 19.3-47 6-14.7-103.3-247.5zm-242.9 393.3-3.9 1.6-103.7-42.6-14-33.6-8.4-20.2-6.7-16-14-33.6 8.4-20.5 34.2-83.2 103.5-43.2 94.7 38.9 9 3.7 1.7 4.1 41.5 99.3-42.6 103.7-46.3 19.3-53.4 22.3z" class="st45"/>
  <path d="M982.8 1666.6 526.2 1479 336 1023.4l187.7-456.6 455.6-190.2 456.6 187.7 190.2 455.6-187.7 456.6-455.6 190.1zm-265.9-379.4 265.1 109 264.5-110.4 109-265.1-110.4-264.5L980 647.1 715.4 757.5l-109 265.1 110.5 264.6z" style="fill:#92a0ad;stroke:#729da8;stroke-width:6.2991;stroke-miterlimit:10"/>
  <path d="m1474.1 737.7-15.1-36.1-47.2-113.1L1164.9 487l-78.9-32.4-106.6-43.8-324.6 135.4-53.3 22.3-53.7 22.4L486 741.2l-19.3 47-62.4 151.9-19.3 47-14.9 36.2 87.2 208.8 6.9 16.5 86 206.1 432.5 177.7 4.9-2 21.9-9.2 155.7-65 53.3-22.2 172.1-71.8 23.5-9.8 10.8-26.3 81.2-197.7 19.3-47 66.4-161.5-117.7-282.2zM1350.8 1115l-80 194.7-3.4 1.4-53.3 22.3-172.1 71.8-53.3 22.3-6.5 2.7-289.3-118.9-59.9-143.2-36.7-87.9-24-57.4 49.8-121.1 19.3-47 49.8-121.1 86.8-36.2 53.3-22.3 148.5-62L1269.1 732l120.5 288.6-19.5 47.5-19.3 46.9z" class="st45"/>
  <path d="m615.1 1389.5-153-366.5 151-367.3 366.5-153 367.3 151 153 366.5-151 367.3-366.5 153-367.3-151zM626 668.6 480.3 1023l147.6 353.6 354.4 145.7 353.6-147.6 145.7-354.4L1334 666.6 979.6 521 626 668.6z" class="st2"/>
  <path d="m614.9 1389.7-38.7-91.2-38.7-91.4-77.2-183.2-.3-.8.3-.8 75.2-183.8 37.7-91.8 37.9-91.8.3-.8.8-.3L795.7 578l91.8-37.9 91.7-38 .3-.1.3.1 91.8 37.8 91.9 37.6 91.9 37.5 91.9 37.5.5.2.2.6 77.1 183 76.8 183.1.4.9-.4 1-75.2 183.8-75.4 183.7-.4 1.1-1.1.4-183.3 76.2-183.4 76-.8.3-.8-.3-183.5-76.4-183.1-76.4zm.4-.4 184.2 74.6 183.7 74.7h-1.6l183-76.9 183.1-76.7-1.5 1.5 75.5-183.6 75.7-183.6v1.9l-76.1-183.4-75.9-183.5.8.8-91.7-38-91.7-37.9-91.8-37.8-91.8-37.7h.7L888.4 542l-91.5 38.6-183 77.2 1.2-1.2-37.6 91.9-37.8 91.8-75.7 183.5v-1.6l75.8 183.2 37.8 91.8 37.7 92.1z" class="st3"/>
  <path d="m626.2 668.8-35.9 89-36 88.8-72.1 177.2v-1.6l74.1 176.7 36.9 88.4 36.8 88.5-1.2-1.2 176.9 73.5 88.5 36.8 88.5 36.6h-.7l88.4-36.9 88.4-37 88.3-37.1 88.3-37.2-.8.8 72.2-177.5 72.5-177.4v1.9l-74.1-176.7-73.9-176.8 1.5 1.5-177.1-73.1-177-73.3h1.6l-176.9 73-177.2 73.1zm-.4-.4 176.3-74.7 176.8-74.6.8-.3.8.3 177.4 72.4 177.3 72.6 1.1.4.4 1.1 73.8 176.8 73.6 176.9.4.9-.4.9-73.2 177.1-73.4 177-.2.6-.5.2-88.5 36.6-88.5 36.7-88.4 36.8L983 1523l-.3.1-.3-.1-88.7-36.2-88.8-36.1-177.5-72.2-.8-.3-.4-.8-37-88.3-36.9-88.4-73.5-176.9-.3-.8.3-.8L552 845l36.9-88.4 36.9-88.2z" class="st3"/>
  <path d="m679.1 1499.9 34.5-52.8 11.6 5.4-17.1 60.1z" class="st5"/>
  <path d="M679 1499.9c2.7-4.3 5.4-8.7 8.1-13.2 2.7-4.4 5.6-8.9 8.4-13.4 2.8-4.5 5.7-9 8.7-13.4l9-13.2.3-.4.4.2c.9.5 1.9 1 2.8 1.5.9.5 1.9.9 2.9 1.4 2 .9 3.9 1.8 5.9 2.5l.3.1-.1.4-4 15.1c-1.3 5-2.7 10.1-4.1 15.1l-4.2 15.1c-1.4 5-2.9 10-4.3 15l-.3 1.1-1-.5-7.4-3.4c-2.4-1.1-4.9-2.3-7.3-3.4l-14.1-6.6zm.2 0 14.9 5.9c2.5 1 4.8 2 7.2 2.9l7.2 3-1.3.6 4.2-15 4.4-15c1.5-5 2.9-10 4.4-15l4.6-14.9.2.5c-1.9-1-3.8-1.9-5.7-2.8-1-.4-1.9-.9-2.9-1.3l-3-1.2.6-.2c-2.8 4.4-5.5 8.9-8.3 13.2-2.8 4.4-5.7 8.7-8.6 13-2.9 4.3-5.8 8.7-8.8 13l-9.1 13.3z" class="st6"/>
  <path d="m735.9 1525.6 27.6-39.5 19.3 7.7-9.1 48.3z" class="st5"/>
  <path d="m735.8 1525.6 6.3-9.9c2.1-3.3 4.4-6.7 6.6-10.1 2.3-3.4 4.5-6.8 6.9-10.1 2.4-3.4 4.9-6.6 7.3-9.9l.4-.5.5.2c3.2 1.4 6.3 2.8 9.5 4.2l9.6 3.9.3.1-.1.3c-.7 4-1.3 8.1-2 12.1-.6 4.1-1.3 8.1-1.9 12.1l-2.1 12.1c-.7 4-1.4 8.1-2.2 12.1l-.3 1.7-1.6-.7c-3.2-1.4-6.4-2.9-9.6-4.4l-9.5-4.5c-3.2-1.5-6.2-3-9.3-4.5l-8.8-4.2zm.3-.1 9.9 3.9c3.2 1.3 6.5 2.5 9.6 3.8l9.4 3.8 9.3 3.9-1.9 1c.8-4 1.5-8 2.4-12l2.5-12c.8-4 1.7-8 2.6-12 .9-4 1.8-8 2.6-12l.3.5c-3.2-1.3-6.4-2.6-9.7-3.9-3.2-1.2-6.5-2.4-9.8-3.5l.9-.3c-2.2 3.3-4.3 6.6-6.5 9.9-2.2 3.2-4.6 6.4-6.9 9.6-2.4 3.2-4.7 6.4-7.2 9.6l-7.5 9.7z" class="st6"/>
  <path d="m653.9 1528.5 58.9 25.4 57.3-145-13.6-105.3-34.9-14.4z" class="st27"/>
  <path d="M1270.7 1309.8c9-24.5 18.2-48.9 27.5-73.2l14-36.5 14.2-36.4c4.7-12.1 9.4-24.3 14.2-36.4l14.4-36.4 14.4-36.3 14.6-36.3v4.7c-10.2-24-20.5-47.9-30.6-72l-30.3-72.1c-10-24.1-20.1-48.1-30-72.2-10-24.1-19.8-48.2-29.6-72.4l3.3 3.3-36-15.2c-12-5-24-10.2-36-15.3-24-10.2-48-20.4-71.9-30.9l-35.9-15.6-35.8-15.7c-23.9-10.5-47.7-21.1-71.4-31.9 24.5 9 48.9 18.2 73.2 27.5l36.5 14 36.4 14.2c24.3 9.4 48.5 19 72.8 28.6 12.1 4.8 24.3 9.5 36.3 14.4l36.3 14.6 2.3.9 1 2.4c10.2 24 20.5 47.9 30.6 72 10.2 24 20.2 48.1 30.3 72.1l30 72.2c10 24.1 19.8 48.2 29.6 72.4l1 2.4-1 2.3-15.2 36-15.3 36-15.4 36c-5.1 12-10.3 23.9-15.5 35.9l-15.6 35.9-15.7 35.8c-10.3 23.6-20.9 47.4-31.7 71.2z" class="st47"/>
  <path d="M691.2 733.5c-9 24.5-18.3 48.8-27.6 73.2l-14 36.5-14.2 36.4c-4.8 12.1-9.4 24.3-14.3 36.4l-14.4 36.4-14.4 36.3-14.6 36.3v-4.5c10.2 24 20.5 47.9 30.6 72l30.3 72.1c10 24.1 20.1 48.1 30 72.2 10 24.1 19.8 48.2 29.7 72.3l-3.2-3.2 36 15.1c12 5 24 10.2 36 15.3 24 10.2 48 20.4 71.9 30.8l35.9 15.5 35.8 15.7c23.9 10.5 47.7 21.1 71.4 31.8-24.5-9-48.8-18.3-73.2-27.6l-36.5-14-36.4-14.2c-24.3-9.4-48.5-19-72.8-28.6l-36.3-14.4-36.3-14.6-2.2-.9-1-2.3c-10.2-24-20.5-47.9-30.6-72-10.2-24-20.2-48.1-30.3-72.1l-30-72.2c-10-24.1-19.8-48.2-29.7-72.3l-.9-2.3.9-2.2 15.1-36 15.3-36 15.3-36c5.1-12 10.3-23.9 15.5-35.9l15.5-35.9 15.7-35.8c10.7-23.7 21.3-47.6 32-71.3z" style="fill:#d1edf3"/>
  <path d="m700.7 1303.4-117.2-280.7 115.6-281.3 280.7-117.2 281.3 115.6 117.2 280.7-115.6 281.3L982 1419l-281.3-115.6zM982 1389l259.5-108.3 106.9-260.1L1240 761.1 980 654.3 720.5 762.6l-106.9 260.1 108.3 259.5L982 1389z" style="fill:#f7d95c;stroke:#fcf494;stroke-width:5.2493;stroke-miterlimit:10"/>
  <path d="M982.7 1632.5c-36.4-13.9-72.7-28-109-42.2l-54.4-21.4-54.3-21.5-54.3-21.6-54.3-21.7-54.2-21.8-54.2-21.9-2.3-.9-1-2.4c-15.2-35.9-30.4-71.7-45.5-107.7L454 1241.6l-45-107.9c-14.9-36-29.7-72-44.6-108.1l-1-2.4 1-2.3 22.5-53.9 22.7-53.9c15.1-35.9 30.2-71.8 45.6-107.7l22.9-53.8 23.1-53.7c15.4-35.8 30.9-71.5 46.7-107.2-13.9 36.4-28 72.7-42.2 109l-21.3 54.4-21.5 54.3c-14.3 36.2-28.8 72.4-43.3 108.6l-21.8 54.2-21.9 54.2v-4.7c15.2 35.9 30.4 71.7 45.5 107.7l45.2 107.8 44.9 107.9c15 36 29.7 72 44.5 108.1l-3.3-3.3 53.9 22.5 53.9 22.7 53.9 22.7 53.8 22.9 53.8 22.9 53.7 23.1c35.5 15.6 71.3 31.1 107 46.8z" class="st47"/>
  <path d="M979.3 410.7c36.4 13.9 72.7 28.1 109 42.3l54.4 21.4L1197 496l54.3 21.6 54.2 21.8 54.2 21.8 54.2 21.9 2.2.9 1 2.3c15.2 35.9 30.4 71.7 45.5 107.7l45.2 107.8 44.8 107.9 22.4 54 22.2 54.1.9 2.3-.9 2.2-22.5 53.9-22.7 53.9c-15.1 35.9-30.2 71.8-45.5 107.7l-22.9 53.8-23 53.7c-15.4 35.8-30.9 71.6-46.6 107.2 13.9-36.4 28.1-72.7 42.3-109l21.4-54.4 21.6-54.3c14.3-36.2 28.9-72.4 43.4-108.6l21.8-54.2 21.9-54.2v4.5l-22.8-53.8-22.6-53.9-45.2-107.8-44.8-108c-15-36-29.8-72-44.6-108l3.2 3.1-53.9-22.5-53.9-22.7-53.9-22.7-53.8-22.8-53.8-22.9-53.7-23c-35.8-15.4-71.6-30.9-107.3-46.6z" style="fill:#fff"/>
  <path d="m1310.2 1524.3-58.9 25.3-57.3-145 6.8-76.8 41.8-42.9z" class="st27"/>
  <path d="m756.5 1406.7-102.7 124.1-160.5 15.1-124.2-102.8-15.1-160.4 102.8-124.2 160.5-15.1 124.1 102.8z" class="st51"/>
  <path d="M756.8 1406.7c-8.3 10.5-16.6 20.9-25 31.4l-25.2 31.4-25.4 31.4-25.6 31.4-.6.8-1 .1-40.1 4-40.1 3.9c-13.4 1.3-26.7 2.6-40.1 3.8-13.4 1.3-26.8 2.4-40.1 3.6l-1.1.1-.8-.7-61.5-52.1-30.7-26-30.9-25.9-.3-.3v-.4l-3.7-40.1-3.9-40.1-2-20-2.1-20-4.1-40.1-.1-.7.5-.6 25.4-31.3 12.7-15.7 12.7-15.6 25.5-31.2 25.6-31.2.8-.9 1.2-.1 80.2-7.9 40.1-3.9 40.1-3.8 1.4-.1 1.1.9 61.9 51.6 61.7 51.8.8.7.1 1c2.3 26.9 4.5 53.8 6.7 80.6l3.2 40.2 2.7 40zm-.6-.1-4.5-40.2-4.4-40.1c-2.8-26.7-5.7-53.3-8.4-79.8l.9 1.7-62.4-50.9-62.3-51.2 2.5.8-40.1 3.8-40.1 3.7-80.3 7.2 2-1.1-25.8 30.9-25.9 30.9-13 15.4-13 15.4-26 30.8.4-1.3 3.4 40.1 1.7 20.1 1.8 20.1 3.7 40.1 3.8 40.1-.4-.7 31.2 25.5 31.3 25.3 62.6 50.7-1.9-.6c13.4-1.3 26.7-2.7 40.1-4 13.4-1.3 26.7-2.6 40.1-3.8l40.1-3.7 40.1-3.5-1.7.9 25.8-30.7 26-30.6 26.2-30.7c8.9-10.1 17.7-20.4 26.5-30.6z" class="st52"/>
  <path d="M385.2 1434.6 371.4 1288l93.9-113.4 146.6-13.8 113.4 93.9 13.9 146.6-93.9 113.4-146.7 13.8z" class="st53"/>
  <path d="m774.7 465.1-47.7 51 57.4 155.1 44.3 13.3 41.5-14.9z" class="st27"/>
  <path d="m400.3 1426.7-12.6-133.6 85.6-103.4 133.6-12.6 103.4 85.6 12.6 133.6-85.6 103.4-133.6 12.6z" class="st44"/>
  <path d="m1114.4 361.4 63.3 148.3-60.2 149.5-148.2 63.2-149.6-60.1L756.5 514l60.2-149.5 148.2-63.2z" class="st51"/>
  <path d="M1114.7 361.2c5.5 12.1 10.9 24.4 16.4 36.6l16.4 36.8 16.3 37 16.2 37.1.4.9-.4 1-14.8 37.5-14.9 37.4c-5 12.5-10 24.9-15 37.4s-10.1 24.9-15.2 37.3l-.4 1-1 .4-74.5 30.8-37.2 15.4-37.2 15.6-.4.2-.4-.2-37.4-15.1-37.4-14.9-18.7-7.4-18.8-7.3-37.5-14.7-.6-.3-.3-.7-16.3-36.9-8.1-18.4-8-18.5-16.1-37-16-37-.5-1.1.5-1.2 29.8-74.9 15-37.4 15-37.4.5-1.3 1.3-.5 74.2-31.3L964 299l1-.4.9.4c25 10.3 49.9 20.7 74.7 31l37.1 15.6 37 15.6zm-.5.5-37.8-14.5-37.6-14.5c-25-9.7-50-19.3-74.8-29.1h1.9L892 335.7l-74 31.9 1.8-1.8-15 37.4-15.1 37.4-30.4 74.6v-2.3l15.6 37.1 15.5 37.2 7.8 18.6 7.7 18.6 15.4 37.2-.9-.9 37.2 15.4 18.6 7.7 18.7 7.6 37.3 15.1 37.4 15h-.8l37-16.1 36.9-16.2 73.8-32.4-1.4 1.4c4.9-12.5 9.8-25 14.9-37.5 5-12.5 10-24.9 15-37.4l15.1-37.3 15.2-37.3v1.9l-15.4-37-15.3-37.1-15.2-37.3c-5.1-12.5-10.1-25-15.2-37.5z" class="st52"/>
  <path d="m832.5 649.3-57.8-135.4 54.9-136.7 135.5-57.7 136.6 54.9 57.8 135.5-55 136.6-135.4 57.8z" class="st53"/>
  <path d="m844.4 637.1-52.6-123.4 50-124.5 123.5-52.7 124.5 50.1 52.6 123.4-50 124.6-123.5 52.6z" class="st44"/>
  <path d="m1082.8 397.6 49.3 115.8-46.9 116.7-115.7 49.3-116.7-46.9-49.4-115.7L850.3 400l115.8-49.3z" class="st2"/>
  <path d="m901.3 583-28.6-66.9 27.2-67.5 66.9-28.6 67.5 27.2 28.5 66.9-27.1 67.5-66.9 28.5z" class="st18"/>
  <path d="m1034.3 447.2 48.5-49.6 49.3 115.8-69.3.7z" class="st19"/>
  <path d="m803.4 516.8 69.3-.7 28.6 66.9-48.5 49.5z" class="st20"/>
  <path d="M968.8 610.1 901.3 583l-48.5 49.5 116.7 46.9z" class="st21"/>
  <path d="m966.1 350.7.7 69.3 67.5 27.2 48.5-49.6z" class="st18"/>
  <path d="M966.8 420c5.7 2 11.4 4.2 17.1 6.3 5.7 2.1 11.4 4.2 17 6.4l17 6.5 16.9 6.6.5.2.2.5 7.2 16.7 7.2 16.7c4.7 11.2 9.5 22.3 14.1 33.5l.2.6-.2.5c-4.6 11.2-9.3 22.4-14 33.6-2.4 5.6-4.7 11.2-7.2 16.7-2.4 5.6-4.8 11.1-7.3 16.7 2-5.7 4.2-11.4 6.3-17.1 2.1-5.7 4.2-11.4 6.4-17 4.3-11.3 8.7-22.6 13.1-33.9v1.1c-4.9-11.1-9.6-22.3-14.4-33.4l-7.1-16.8-7-16.8.8.8-16.8-7-16.8-7c-5.6-2.4-11.2-4.8-16.7-7.2-5.4-2.3-11-4.7-16.5-7.2z" class="st22"/>
  <path d="M968.8 610.1c-5.7-2-11.4-4.2-17.1-6.3-5.7-2.1-11.4-4.2-17-6.4l-17-6.5-16.9-6.6-.5-.2-.2-.5-7.2-16.7-7.2-16.7c-4.7-11.2-9.5-22.3-14.1-33.5l-.2-.6.2-.5c4.6-11.2 9.3-22.4 14-33.6 2.4-5.6 4.7-11.2 7.2-16.7 2.4-5.6 4.8-11.1 7.3-16.7-2 5.7-4.2 11.4-6.3 17.1-2.1 5.7-4.2 11.4-6.4 17-4.3 11.3-8.7 22.6-13.1 33.9v-1.1c4.9 11.1 9.6 22.3 14.4 33.4l7.1 16.8 7 16.8-.8-.8 16.8 7 16.8 7c5.6 2.4 11.2 4.8 16.7 7.2 5.4 2.4 10.9 4.8 16.5 7.2z" class="st23"/>
  <path d="m1082.8 397.6 49.3 115.8-46.9 116.7-115.7 49.3-116.7-46.9-49.4-115.7L850.3 400l115.8-49.3z" class="st24"/>
  <path d="m699.9 1266.5 12.9 125.2-79.4 97.6-125.1 12.9-97.6-79.4-12.9-125.2 79.4-97.6 125.1-12.8z" class="st2"/>
  <path d="m471.6 1389.9-7.4-72.4 45.9-56.5 72.4-7.4 56.4 45.9 7.5 72.4-45.9 56.4-72.4 7.5z" class="st18"/>
  <path d="m638.9 1299.5 61-33 12.9 125.2-66.4-19.8z" class="st19"/>
  <path d="m397.8 1297.6 66.4 19.9 7.4 72.4-60.9 32.9z" class="st20"/>
  <path d="m528.1 1435.8-56.5-45.9-60.9 32.9 97.6 79.4z" class="st21"/>
  <path d="m602.3 1187.2-19.8 66.4 56.4 45.9 61-33z" class="st18"/>
  <path d="M582.5 1253.6c4.9 3.6 9.6 7.4 14.4 11.1 4.8 3.7 9.6 7.4 14.4 11.2l14.3 11.3 14.2 11.3.4.4.1.6 2 18.1 1.9 18.1c1.2 12.1 2.5 24.1 3.6 36.2l.1.6-.4.4c-7.7 9.4-15.5 18.7-23.3 27.9-3.9 4.6-7.8 9.3-11.8 13.9-3.9 4.6-7.9 9.2-11.9 13.8 3.6-4.9 7.4-9.6 11.1-14.4 3.7-4.8 7.4-9.6 11.2-14.4 7.5-9.5 15-19.1 22.6-28.5l-.3 1c-1.4-12-2.6-24.1-3.9-36.2l-1.8-18.1-1.8-18.1.5 1-14-11.6-13.9-11.7c-4.6-3.9-9.3-7.8-13.9-11.8-4.7-4.2-9.3-8.1-13.8-12.1z" class="st22"/>
  <path d="M528.1 1435.8c-4.9-3.6-9.6-7.4-14.4-11.1-4.8-3.7-9.6-7.4-14.4-11.2l-14.3-11.3-14.2-11.3-.4-.4-.1-.6-2-18.1-1.9-18.1c-1.2-12.1-2.5-24.1-3.6-36.2l-.1-.6.4-.4c7.7-9.4 15.5-18.7 23.3-27.9 3.9-4.6 7.8-9.3 11.8-13.9 3.9-4.6 7.9-9.2 11.9-13.8-3.6 4.9-7.4 9.6-11.1 14.4-3.7 4.8-7.4 9.6-11.2 14.4-7.5 9.5-15 19.1-22.6 28.5l.3-1c1.4 12 2.6 24.1 3.9 36.2l1.8 18.1 1.8 18.1-.5-1 14 11.6 13.9 11.7c4.6 3.9 9.3 7.8 13.9 11.8 4.6 4.1 9.2 8.1 13.8 12.1z" class="st23"/>
  <path d="m699.9 1266.5 12.9 125.2-79.4 97.6-125.1 12.9-97.6-79.4-12.9-125.2 79.4-97.6 125.1-12.8z" class="st24"/>
  <path d="m958.2 870.8 8.9 81.5 13.3 29.3 12.5-29.4 7.5-81.4zM944.1 1034.7l-21.6 23.7-.6.4-47.1 26.8-23.6 13.4-16.7-38.8 3.8-1.2 57.9-19 16-5.2zM1122.4 1056.5l-79.1-21.8-32 1.5 22.7 22.5 72.8 37z" class="st45"/>
  <path d="M1011.3 1036.2c2.2 1.6 4.4 3.2 6.4 4.8 2.1 1.7 4.2 3.3 6.2 5.1 2 1.7 4.1 3.5 6.1 5.2 2 1.8 4 3.6 5.9 5.4l-.7-.5c8.8 4.1 17.5 8.6 26 13.3 4.3 2.4 8.5 4.8 12.6 7.4 4.1 2.6 8.3 5.3 12.2 8.2-4.7-1.5-9.3-3.2-13.8-5-4.5-1.8-9-3.8-13.4-5.8-8.9-4.1-17.6-8.4-26.1-13.1l-.5-.3-.2-.3c-1.8-1.9-3.6-3.9-5.4-5.9-1.8-2-3.6-4-5.3-6-1.7-2-3.4-4.1-5.1-6.2-1.7-1.9-3.4-4.1-4.9-6.3zM875.5 1085.2c3.5-2.9 7.2-5.6 10.9-8.2 3.7-2.6 7.5-5.1 11.3-7.5 7.6-4.8 15.5-9.3 23.4-13.5l-.7.6c3.7-3.9 7.5-7.6 11.4-11.3l6-5.4c2-1.8 4.1-3.5 6.3-5.2-1.4 2.3-3 4.5-4.5 6.7-1.6 2.2-3.2 4.4-4.8 6.5-3.3 4.3-6.7 8.4-10.1 12.5l-.2.3-.5.3c-7.7 4.7-15.6 9.1-23.6 13.2-4 2.1-8.1 4-12.2 5.9-4.2 1.8-8.4 3.6-12.7 5.1zM961.3 899.2c1.3 4.3 2.3 8.7 3.2 13.1.9 4.4 1.7 8.8 2.4 13.2 1.4 8.8 2.4 17.6 3.1 26.5l-.2-.9c1 2.5 2 4.9 3 7.4s1.9 5 2.8 7.5c.9 2.5 1.8 5.1 2.6 7.6.8 2.6 1.6 5.2 2.3 7.8-1.5-2.2-3-4.5-4.4-6.8-1.4-2.3-2.8-4.6-4.1-7-1.3-2.3-2.6-4.7-3.8-7.1l-3.6-7.2-.2-.3-.1-.5c-1.2-8.8-2.1-17.7-2.7-26.6-.3-4.4-.5-8.9-.6-13.4 0-4.3 0-8.7.3-13.3z" class="st47"/>
  <path d="m646.4 1095 77.8-24.4 13.6 34.9-71.8 36.6z" class="st5"/>
  <path d="M646.2 1094.9c12.3-4.4 25.1-8.8 38.2-13.1 6.5-2.1 13.1-4.3 19.7-6.2 6.6-2 13.3-3.8 19.9-5.7l.7-.2.2.7c1 2.9 2.1 5.9 3.2 8.8 1.1 2.9 2.2 5.8 3.3 8.8 1.2 2.9 2.3 5.8 3.5 8.7l3.6 8.7.2.6-.6.3-17.7 9.6c-5.9 3.2-11.9 6.3-17.8 9.4-6 3.1-11.9 6.2-17.9 9.3-6 3.1-12 6.1-18 9l-1.6.8-.6-1.6-4.8-12.1c-1.6-4-3.2-8.1-4.7-12.1l-8.8-23.7zm.3.2 10.8 23.5c1.8 3.8 3.4 7.7 5.1 11.5l5 11.4-2.2-.8c6-3.1 11.9-6.2 17.9-9.2l18-9c6-3 12-5.9 18.1-8.9l18.2-8.7-.3.9c-1.1-2.9-2.1-5.9-3.2-8.8-1.1-2.9-2.2-5.8-3.4-8.7-1.2-2.9-2.3-5.8-3.5-8.7-1.2-2.9-2.4-5.8-3.6-8.6l1 .5c-6.4 2.2-12.7 4.4-19 6.5-6.3 2.1-12.8 4-19.2 5.9-12.9 3.8-26.1 7.4-39.7 11.2z" class="st6"/>
  <path d="m626.2 1049.1 58.5-11.6 10.6 23.4-49.5 35.3z" class="st5"/>
  <path d="m626.1 1049 14-3.4 7.2-1.7 7.3-1.7c4.9-1.1 9.9-2.2 14.9-3.1 5-1 10-1.8 15-2.6l.8-.1.3.7c1.6 4 3.2 8 4.9 11.9l2.6 5.9 2.7 5.8.2.4-.3.3c-4.1 3-8.1 6.1-12.1 9.2-4 3.1-8 6.2-12.1 9.2l-12.3 9-6.1 4.5-6.2 4.4-1.7 1.2-.8-2c-3.3-8.1-6.5-16.2-9.5-24.3-1.5-4-2.9-8-4.4-11.9l-4.4-11.7zm.3.2 10.9 23.5c3.5 7.7 6.9 15.2 10.1 22.8l-2.5-.7 6.2-4.4 6.2-4.3 12.5-8.7c4.2-2.9 8.4-5.7 12.6-8.5 4.2-2.8 8.5-5.6 12.6-8.5l-.2.6-2.6-5.9-2.7-5.8c-1.8-3.9-3.8-7.7-5.7-11.5l1.1.5c-4.8 1.1-9.5 2.3-14.3 3.3-4.8 1-9.6 1.8-14.4 2.7l-7.3 1.2-7.4 1.2-15.1 2.5z" class="st6"/>
  <path d="m1167.1 732.9-37.8 72.2-34.4-15.1 25-76.6z" class="st5"/>
  <path d="M1167.3 732.8c-5.6 11.8-11.5 24-17.7 36.3-3.1 6.1-6.2 12.3-9.5 18.3-3.3 6.1-6.7 12.1-10 18l-.4.7-.6-.3c-2.8-1.3-5.6-2.7-8.5-4-2.8-1.3-5.7-2.6-8.6-3.8-2.9-1.2-5.7-2.5-8.6-3.7l-8.7-3.6-.6-.2.2-.6 5.8-19.3c2-6.4 3.9-12.8 6-19.2 2-6.4 4-12.8 6.1-19.2 2-6.4 4.2-12.8 6.3-19.1l.6-1.6 1.6.7 11.9 5.2c4 1.7 7.9 3.5 11.8 5.2l22.9 10.2zm-.3.1-24.2-9c-4-1.5-7.9-3-11.8-4.5l-11.6-4.5 2.1-1c-2 6.4-4 12.8-6.2 19.2-2.1 6.4-4.3 12.7-6.4 19.1-2.1 6.4-4.3 12.7-6.5 19.1l-6.7 19-.4-.9c2.8 1.3 5.7 2.6 8.5 3.9 2.8 1.3 5.7 2.5 8.6 3.8 2.9 1.2 5.7 2.5 8.6 3.7 2.9 1.2 5.8 2.4 8.7 3.5l-1 .4c3-6.1 5.9-12.1 8.9-18.1 3-6 6.2-11.9 9.4-17.8 6.3-11.8 12.9-23.6 20-35.9z" class="st6"/>
  <path d="m1120.1 713.4-33.2 49.6-24.1-9.1 10.1-59.9z" class="st5"/>
  <path d="m1120.2 713.4-7.5 12.4-3.9 6.3-4 6.4c-2.7 4.2-5.5 8.5-8.3 12.7-2.9 4.2-5.9 8.3-8.8 12.4l-.5.6-.7-.3c-4-1.7-7.9-3.3-11.9-4.9l-6-2.3-6-2.2-.4-.1.1-.4c.8-5 1.4-10 2.1-15.1.7-5 1.3-10.1 2.1-15.1l2.3-15 1.2-7.5 1.2-7.5.3-2.1 2 .8c8 3.4 16.1 6.9 23.9 10.4 3.9 1.8 7.7 3.6 11.6 5.3l11.2 5.2zm-.3 0-24.4-8.9c-7.9-2.9-15.6-5.9-23.3-9l2.3-1.3-1.3 7.5-1.3 7.5-2.7 15c-.9 5-1.9 9.9-2.9 14.9s-2 9.9-2.9 14.9l-.3-.6 6 2.3 6 2.2c4 1.4 8.1 2.8 12.2 4.1l-1.1.4c2.6-4.2 5.1-8.3 7.8-12.4s5.5-8 8.3-12.1l4.3-6 4.4-6.1 8.9-12.4z" class="st6"/>
  <path d="m1213.8 751.1-33.1 49.5-24.1-9 10-60z" class="st5"/>
  <path d="m1213.9 751-7.5 12.4-3.9 6.3-4 6.4c-2.7 4.2-5.5 8.5-8.3 12.7-2.9 4.2-5.9 8.3-8.8 12.4l-.5.6-.7-.3c-4-1.7-7.9-3.3-11.9-4.9l-6-2.3-6-2.2-.4-.1.1-.4c.8-5 1.4-10 2.1-15.1.7-5 1.3-10.1 2.1-15.1l2.3-15 1.2-7.5 1.2-7.5.3-2.1 2 .8c8 3.4 16.1 6.9 23.9 10.4 3.9 1.8 7.7 3.6 11.6 5.3l11.2 5.2zm-.3.1-24.4-8.9c-7.9-2.9-15.6-5.9-23.3-9l2.3-1.3-1.3 7.5-1.3 7.5-2.7 15c-.9 5-1.9 9.9-2.9 14.9s-2 9.9-2.9 14.9l-.3-.6 6 2.3 6 2.2c4 1.4 8.1 2.8 12.2 4.1l-1.1.4c2.6-4.2 5.1-8.3 7.8-12.4s5.5-8 8.3-12.1l4.3-6 4.4-6.1 8.9-12.4z" class="st6"/>
  <path d="m1517.6 857.8-65.2 13.4-5.9-15.5 55.7-36.1z" class="st5"/>
  <path d="M1517.7 857.9c-10.3 2.5-21.1 5.1-32 7.5-5.5 1.2-11 2.4-16.5 3.5s-11.1 2-16.6 3l-.6.1-.2-.5c-1.6-5.3-3.6-10.5-5.8-15.6l-.2-.4.4-.3 13.7-9.4c4.6-3.1 9.2-6.2 13.8-9.2 4.6-3 9.2-6.1 13.8-9.1 4.6-3 9.3-6 14-9l1.3-.8.5 1.4 3.7 9.8c1.2 3.3 2.5 6.5 3.6 9.8l7.1 19.2zm-.2-.1-8.5-19.1c-1.4-3.1-2.7-6.2-4-9.3l-4-9.3 1.9.6c-4.6 3-9.2 6.1-13.9 9.1-4.6 3-9.3 5.9-14 8.9-4.7 3-9.3 5.9-14 8.8l-14.1 8.7.2-.7c1.7 5.3 3.7 10.5 5.9 15.5l-.7-.4c5.4-1.3 10.7-2.5 16-3.7 5.3-1.2 10.7-2.2 16.1-3.2 10.7-2.1 21.7-4 33.1-5.9z" class="st6"/>
  <path d="m1578.4 1032.3-57.7-11.9 1.2-12.7 58-6.6 6.1 16.6z" class="st5"/>
  <path d="M1578.4 1032.4c-4.7-.8-9.5-1.6-14.3-2.5-4.8-.8-9.6-1.8-14.5-2.7-4.8-.9-9.7-1.9-14.6-3s-9.7-2.2-14.5-3.3l-.5-.1.1-.4c.2-1.1.3-2.1.5-3.2.1-1.1.2-2.1.4-3.2.2-2.1.4-4.2.5-6.4v-.3l.4-.1 14.5-2c4.8-.6 9.6-1.3 14.5-1.8 4.8-.6 9.7-1.2 14.5-1.8 4.8-.6 9.7-1.1 14.5-1.6l.8-.1.3.7 5.8 16.6.1.3-.2.3-4.1 7.3-4.2 7.3zm-.1-.2 3.5-7.6 3.5-7.3v.6l-6.3-16.5 1 .6c-4.8.6-9.7 1.2-14.5 1.7-4.8.6-9.7 1-14.5 1.5-4.8.5-9.7 1-14.5 1.5l-14.5 1.3.4-.4c-.3 2.1-.5 4.2-.8 6.3-.1 1.1-.2 2.1-.3 3.2-.1 1.1-.1 2.1-.2 3.2l-.4-.5c4.8.9 9.6 1.7 14.4 2.6 4.8.9 9.5 1.9 14.3 3 4.8 1 9.5 2.1 14.4 3.2 4.8 1.3 9.6 2.4 14.5 3.6z" class="st6"/>
  <path d="m563.4 584 32.2 49.4-9.9 8-45.6-36.5 7.5-15.9z" class="st5"/>
  <path d="M563.4 583.9c2.8 3.9 5.5 7.9 8.3 11.9 2.8 4 5.5 8.1 8.3 12.2 2.8 4.1 5.5 8.2 8.2 12.4 2.7 4.2 5.2 8.4 7.8 12.6l.2.4-.3.2c-.9.6-1.7 1.3-2.6 1.9-.9.6-1.7 1.3-2.5 2-1.6 1.4-3.3 2.7-4.9 4.1l-.3.2-.3-.2-11.6-8.9c-3.8-3-7.7-6-11.5-9s-7.7-6-11.4-9c-3.8-3-7.6-6.1-11.3-9.2l-.6-.5.3-.7 7.7-15.9.2-.3.3-.1 8.1-2.2 7.9-1.9zm-.1.2-7.8 2.8-7.6 2.7.4-.4-7.3 16.1-.3-1.2c3.8 3 7.6 6 11.4 9.1 3.8 3 7.5 6.1 11.3 9.2 3.8 3.1 7.5 6.2 11.3 9.3l11.2 9.4h-.6c1.7-1.3 3.4-2.6 5-3.9.8-.7 1.6-1.3 2.4-2.1l2.4-2.1-.1.6c-2.8-4-5.5-8-8.3-12-2.7-4-5.3-8.1-7.9-12.2-2.6-4.1-5.2-8.2-7.8-12.5-2.5-4.2-5.1-8.4-7.7-12.8z" class="st6"/>
  <path d="m1556 953.2-61.7 13.5-4.5-12 54.4-30.9z" class="st5"/>
  <path d="M1556.1 953.3c-4.9 1.2-10 2.5-15 3.7-5.1 1.2-10.2 2.4-15.4 3.6-5.2 1.2-10.3 2.4-15.6 3.5-5.2 1.1-10.5 2.1-15.6 3.1l-.4.1-.1-.4c-.3-1-.6-2-1-3-.3-1-.7-2-1.1-3-.8-2-1.5-4-2.4-5.9l-.1-.3.3-.2 13.4-8c4.5-2.6 9-5.3 13.5-7.9l13.5-7.8c4.5-2.6 9.1-5.1 13.6-7.7l1-.6.4 1 2.9 7.6c.9 2.5 1.9 5 2.8 7.5l5.3 14.7zm-.2-.1-6.5-14.7c-1.1-2.4-2.1-4.8-3.1-7.2l-3-7.1 1.4.5-13.5 7.8-13.6 7.6c-4.5 2.5-9.1 5.1-13.7 7.6l-13.7 7.5.2-.5c.6 2 1.4 4 2.1 6l1.2 3c.4 1 .8 2 1.3 2.9l-.6-.3c5.1-1.2 10.1-2.5 15.2-3.6 5-1.2 10.1-2.2 15.3-3.3 5.1-1.1 10.2-2.1 15.4-3.1l15.6-3.1z" class="st6"/>
  <path d="m1502.3 819.7-47.4 8.8-8.4-19 40.4-28.1z" class="st5"/>
  <path d="m1502.4 819.7-11.4 2.6c-3.9.9-7.8 1.7-11.8 2.6l-12 2.4c-4 .7-8.1 1.3-12.1 1.9l-.6.1-.2-.5c-1.3-3.2-2.5-6.5-3.9-9.7-1.3-3.2-2.7-6.4-4.2-9.5l-.1-.3.3-.2c3.3-2.4 6.6-4.8 9.9-7.3 3.3-2.5 6.6-4.9 9.9-7.3l10-7.2c3.3-2.4 6.7-4.7 10-7.1l1.4-1 .6 1.6c1.3 3.3 2.6 6.6 3.8 9.9l3.6 9.8c1.2 3.3 2.3 6.5 3.5 9.7l3.3 9.5zm-.3-.1-4.4-9.7c-1.4-3.2-2.9-6.3-4.2-9.4l-4.1-9.3-3.9-9.3 2 .6c-3.4 2.3-6.7 4.7-10.1 6.9l-10.2 6.9c-3.4 2.3-6.8 4.5-10.3 6.7-3.4 2.2-6.9 4.4-10.3 6.7l.1-.5c1.4 3.2 2.7 6.4 4.2 9.5 1.4 3.2 3 6.3 4.5 9.4l-.8-.4c3.9-.9 7.7-1.8 11.5-2.5 3.9-.7 7.7-1.4 11.6-2 3.9-.6 7.9-1.2 11.9-1.8l12.5-1.8z" class="st6"/>
  <path d="m1533.4 895.1-47.4 8.8-8.3-19 40.3-28z" class="st5"/>
  <path d="m1533.5 895.1-11.4 2.6c-3.9.9-7.8 1.7-11.8 2.6l-12 2.4c-4 .7-8.1 1.3-12.1 1.9l-.6.1-.2-.5c-1.3-3.2-2.5-6.5-3.9-9.7-1.3-3.2-2.7-6.4-4.2-9.5l-.1-.3.3-.2c3.3-2.4 6.6-4.8 9.9-7.3 3.3-2.5 6.6-4.9 9.9-7.3l10-7.2c3.3-2.4 6.7-4.7 10-7.1l1.4-1 .6 1.6c1.3 3.3 2.6 6.6 3.8 9.9l3.6 9.8c1.2 3.3 2.3 6.5 3.5 9.7l3.3 9.5zm-.2-.1-4.4-9.7c-1.4-3.2-2.9-6.3-4.2-9.4l-4.1-9.3-3.9-9.3 2 .6c-3.4 2.3-6.7 4.7-10.1 6.9l-10.2 6.9c-3.4 2.3-6.8 4.5-10.3 6.7-3.4 2.2-6.9 4.4-10.3 6.7l.1-.5c1.4 3.2 2.7 6.4 4.2 9.5 1.4 3.2 3 6.3 4.5 9.4l-.8-.4c3.9-.9 7.7-1.8 11.5-2.5 3.9-.7 7.7-1.4 11.6-2 3.9-.6 7.9-1.2 11.9-1.8l12.5-1.8z" class="st6"/>
  <path d="m428 888.5 53.2 33.8-5.2 11.6-60.3-16.2z" class="st5"/>
  <path d="M428 888.4c4.4 2.6 8.8 5.2 13.3 8 4.5 2.7 9 5.5 13.5 8.2 4.5 2.8 9 5.6 13.5 8.5 4.5 2.9 8.9 5.9 13.3 8.8l.4.2-.2.4c-.5.9-1 1.9-1.4 2.9-.5 1-.9 1.9-1.4 2.9-.8 2-1.7 3.9-2.5 5.9l-.1.3-.4-.1-15.2-3.8c-5-1.3-10.1-2.6-15.1-3.9l-15.1-4c-5-1.3-10.1-2.7-15.1-4.1l-1.1-.3.5-1 3.3-7.4c1.1-2.4 2.2-4.9 3.3-7.3l6.5-14.2zm0 .2-5.7 15c-.9 2.5-1.9 4.9-2.8 7.3l-2.9 7.2-.6-1.3c5 1.3 10.1 2.6 15.1 4l15.1 4.2 15 4.2 15 4.4-.5.2c1-1.9 1.8-3.8 2.7-5.8.4-1 .9-1.9 1.3-2.9l1.2-3 .2.6c-4.5-2.7-8.9-5.4-13.3-8.1-4.4-2.7-8.8-5.6-13.1-8.4-4.4-2.9-8.7-5.7-13.1-8.7l-13.6-8.9z" class="st6"/>
  <path d="m510.2 688.8 53.3 33.9-5.3 11.6-60.3-16.3z" class="st5"/>
  <path d="M510.2 688.7c4.4 2.6 8.8 5.2 13.3 8 4.5 2.7 9 5.5 13.5 8.2 4.5 2.8 9 5.6 13.5 8.5 4.5 2.9 8.9 5.9 13.3 8.8l.4.2-.2.4c-.5.9-1 1.9-1.4 2.9-.5 1-.9 1.9-1.4 2.9-.8 2-1.7 3.9-2.5 5.9l-.1.3-.4-.1L543 731c-5-1.3-10.1-2.6-15.1-3.9l-15.1-4c-5-1.3-10.1-2.7-15.1-4.1l-1.1-.3.5-1 3.3-7.4c1.1-2.4 2.2-4.9 3.3-7.3l6.5-14.3zm0 .2-5.7 15c-.9 2.5-1.9 4.9-2.8 7.3l-2.9 7.2-.6-1.3c5 1.3 10.1 2.6 15.1 4l15.1 4.2 15 4.2 15 4.4-.5.2c1-1.9 1.8-3.8 2.7-5.8.4-1 .9-1.9 1.3-2.9l1.2-3 .2.6c-4.5-2.7-8.9-5.4-13.3-8.1-4.4-2.7-8.8-5.6-13.1-8.4-4.4-2.9-8.7-5.7-13.1-8.7l-13.6-8.9z" class="st6"/>
  <path d="m454.3 821.5 39.9 27.1-7.5 19.4-48.4-8.5z" class="st5"/>
  <path d="m454.3 821.4 9.9 6.1c3.4 2.1 6.8 4.3 10.2 6.5 3.4 2.2 6.8 4.5 10.2 6.8 3.4 2.3 6.7 4.8 10 7.2l.5.4-.2.5c-1.4 3.2-2.8 6.4-4 9.6-1.3 3.2-2.5 6.4-3.7 9.7l-.1.3-.3-.1c-4-.7-8.1-1.2-12.2-1.8-4.1-.6-8.1-1.2-12.2-1.8l-12.1-1.9c-4-.6-8.1-1.3-12.1-2l-1.7-.3.7-1.6c1.4-3.2 2.8-6.5 4.2-9.7l4.3-9.5c1.4-3.2 2.9-6.2 4.4-9.3l4.2-9.1zm.1.2-3.7 9.9c-1.2 3.2-2.4 6.5-3.6 9.7l-3.6 9.5c-1.2 3.1-2.5 6.2-3.8 9.3l-1-1.9c4 .7 8.1 1.4 12.1 2.2l12.1 2.3c4 .8 8 1.6 12 2.5 4 .8 8 1.7 12 2.5l-.5.3c1.3-3.2 2.5-6.5 3.7-9.7 1.2-3.3 2.3-6.5 3.4-9.8l.3.9c-3.4-2.1-6.7-4.2-10-6.4s-6.5-4.5-9.7-6.8c-3.2-2.3-6.5-4.7-9.7-7.1l-10-7.4z" class="st6"/>
  <path d="m1077.9 1350.4-11.6-58.5 23.4-10.7 35.3 49.6z" class="st5"/>
  <path d="m1077.8 1350.5-3.4-14-1.7-7.2-1.7-7.3c-1.1-4.9-2.2-9.9-3.1-14.9-1-5-1.7-10-2.6-15l-.1-.8.7-.3c4-1.6 8-3.2 11.9-4.9l5.9-2.6 5.8-2.7.4-.2.3.3c3 4.1 6.1 8.1 9.2 12.1 3.1 4 6.2 8 9.2 12.1l9 12.3 4.5 6.1 4.4 6.2 1.2 1.7-2 .8c-8.1 3.3-16.2 6.5-24.3 9.5-4 1.5-8 2.9-11.9 4.4l-11.7 4.4zm.2-.3 23.5-10.9c7.7-3.5 15.2-6.9 22.8-10.1l-.7 2.5-4.4-6.2-4.3-6.2-8.6-12.5c-2.9-4.2-5.7-8.4-8.5-12.6-2.8-4.2-5.6-8.5-8.5-12.6l.6.2-5.9 2.6-5.8 2.7c-3.9 1.8-7.7 3.8-11.5 5.7l.5-1.1c1.1 4.8 2.3 9.5 3.3 14.3 1 4.8 1.8 9.6 2.7 14.4l1.2 7.3 1.2 7.4 2.4 15.1z" class="st6"/>
  <path d="m732.9 603.1-54.2 21.7-77.2-56.4 53.3-22.2zM831.4 675l-53.3 22.2-79.8-58.1 53.8-21.9zM882.2 712.1l443.1 323.2-19.3 47.1-220-160.5-10.7-7.9-246.4-179.7z" class="st54"/>
  <path d="M1474.1 737.7 1175.6 521l5.2-11.7-6-15.1L1459 701.6z" style="opacity:.58;fill:#fff"/>
  <path d="m475 991.7-12.9 31.4 12.3 29.2-81.8-56.1 19.3-47zM623.2 1143.4l-122.7-72-20.2-48.4 8.7-21.1 101.7 64.9zM991.1 1368.2l-9.1 3.8-159-65.3-106.1-77.4-36.7-88zM1119.3 1461.7c-10.7 4.7-40.6 17.6-52.7 22.7l-78-56.9 53.3-22.3 77.4 56.5zM1218.5 1534.1l-53.3 22.2-75.3-54.9 52-23.2zM554.9 791.4l-19.1 47.2-64.2-52.1 19.3-47zM641.5 854.6l-19.4 47-68.6-50.1 19.1-47.2zM848.5 1055.6l6.7 16-17.2-12.5-171.1-124.8 19.3-47.1 156.7 114.3-8.4 20.5 14 33.6z" class="st56"/>
  <path d="m917.6 1055.7-42.8 29.9-36.5-26.6 57.9-19zM1216.5 1274.1l-53.3 22.2-178-129.8 53.4-22.3z" class="st56"/>
  <path d="m1436.2 1118.9-17.1 41.6-58.3-41.7 17.1-41.6zM1517 1174l-17.1 41.7-58.4-41.7 17.1-41.7z" class="st54"/>
  <path d="m1522.8 1165.6 94.2 130.7-25.8 159.1-130.8 94.2-159.1-25.8-94.2-130.8 25.8-159.1 130.8-94.2z" class="st51"/>
  <path d="M1522.9 1165.3c8 10.6 16 21.4 24 32.1l24.1 32.3 24 32.5 23.9 32.7.6.8-.2 1-6.2 39.8-6.3 39.8c-2.1 13.3-4.3 26.5-6.4 39.8-2.1 13.3-4.4 26.5-6.6 39.7l-.2 1.1-.9.6-65.9 46.4-33 23.2-32.8 23.3-.3.2-.4-.1-39.8-6.5-39.8-6.3-19.9-3.1-19.9-3.1-39.8-6.1-.7-.1-.4-.6-23.9-32.4-11.9-16.2-11.9-16.3-23.8-32.5-23.7-32.6-.7-1 .2-1.2 12.6-79.6 6.4-39.8 6.5-39.8.2-1.4 1.1-.8 65.6-46.9 65.7-46.6.9-.6 1 .2c26.6 4.5 53.2 9.3 79.7 13.9l39.7 7 39.2 7.2zm-.3.5-40.1-5.8-39.9-5.9c-26.5-4-53-7.9-79.4-12l1.8-.4-65 47.6-65.2 47.4 1.4-2.2-6.5 39.8-6.5 39.8-13.2 79.5-.5-2.2 23.4 32.8 23.3 32.9 11.7 16.4 11.6 16.5 23.2 32.9-1.1-.7 39.7 6.8 19.9 3.4 19.9 3.3 39.8 6.6 39.8 6.4-.8.2 32.5-23.8 32.4-23.9 64.9-47.8-1.1 1.7c2.1-13.3 4.1-26.5 6.3-39.8 2.1-13.3 4.3-26.5 6.5-39.8l6.6-39.8 6.7-39.7.4 1.8-23.2-32.7-23.1-32.9-23.1-33.1c-7.7-11.1-15.4-22.1-23.1-33.3z" class="st52"/>
  <path d="m1310.9 1508.3-86.1-119.4 23.6-145.4 119.5-86.1 145.3 23.6 86.1 119.5-23.6 145.3-119.5 86.1z" class="st53"/>
  <path d="m1319.9 1493.8-78.5-108.9 21.5-132.4 108.9-78.5 132.5 21.5 78.4 108.9-21.5 132.5-108.9 78.4z" class="st44"/>
  <path d="m1498.3 1204.8 73.7 102-20 124.2-102 73.6-124.2-20-73.7-102 20-124.2 102-73.7z" class="st2"/>
  <path d="m1362.2 1425.6-42.6-59 11.5-71.8 59-42.6 71.9 11.6 42.6 58.9-11.6 71.9-59 42.6z" class="st18"/>
  <path d="m1462 1263.8 36.3-59 73.7 102-67.4 15.9z" class="st19"/>
  <path d="m1252.1 1382.6 67.5-16 42.6 59-36.4 59z" class="st20"/>
  <path d="m1434 1437.2-71.8-11.6-36.4 59 124.2 20z" class="st21"/>
  <path d="m1374.1 1184.7 16 67.5 71.9 11.6 36.3-59z" class="st18"/>
  <path d="M1390.1 1252.2c6 .7 12 1.6 18 2.4 6 .8 12 1.6 18 2.5l18 2.6 18 2.7.6.1.4.5 10.7 14.7 10.7 14.7c7.1 9.9 14.2 19.7 21.2 29.6l.3.5-.1.6c-2 12-4.1 23.9-6.3 35.8-1.1 6-2.2 11.9-3.3 17.9-1.1 6-2.2 11.9-3.4 17.9.7-6 1.6-12 2.4-18 .8-6 1.6-12 2.5-18 1.7-12 3.5-24 5.3-36l.3 1.1c-7.2-9.8-14.3-19.6-21.4-29.4l-10.6-14.8-10.6-14.8.9.6-17.9-3.1-17.9-3.2c-6-1.1-11.9-2.2-17.9-3.3-6-1.3-11.9-2.4-17.9-3.6z" class="st22"/>
  <path d="M1434 1437.2c-6-.7-12-1.6-18-2.4-6-.8-12-1.6-18-2.5l-18-2.6-18-2.7-.6-.1-.4-.5-10.7-14.7-10.7-14.7c-7.1-9.9-14.2-19.7-21.2-29.6l-.3-.5.1-.6c2-12 4.1-23.9 6.3-35.8 1.1-6 2.2-11.9 3.3-17.9 1.1-6 2.2-11.9 3.4-17.9-.7 6-1.6 12-2.4 18-.8 6-1.6 12-2.5 18-1.7 12-3.5 24-5.3 36l-.2-1.1c7.2 9.8 14.3 19.6 21.4 29.4l10.6 14.8 10.6 14.8-.9-.6 17.9 3.1 17.9 3.2c6 1.1 11.9 2.2 17.9 3.3 5.9 1.3 11.8 2.4 17.8 3.6z" class="st23"/>
  <path d="m1498.3 1204.8 73.7 102-20 124.2-102 73.6-124.2-20-73.7-102 20-124.2 102-73.7z" class="st24"/>
  <path d="m1413 608.9-47.5 34.7-8.6-9.4 34-47.4 16.4 6.6z" class="st5"/>
  <path d="M1413.1 608.9c-3.7 3-7.6 6-11.4 8.9-3.8 3-7.8 5.9-11.8 8.9-3.9 3-7.9 5.9-12 8.8-4.1 2.9-8.1 5.7-12.2 8.5l-.4.3-.3-.3c-.7-.8-1.3-1.7-2-2.5l-2.1-2.4c-1.5-1.5-2.9-3.1-4.4-4.6l-.2-.2.2-.3 8.3-12 8.4-12c2.8-4 5.6-8 8.4-11.9 2.8-4 5.7-7.9 8.6-11.8l.5-.6.7.3 16.2 6.9.3.1.1.3 2.7 8 2.4 7.6zm-.2-.1-3.3-7.7-3.1-7.5.4.4-16.4-6.4 1.2-.3c-2.8 4-5.6 7.9-8.5 11.9-2.8 4-5.7 7.9-8.6 11.8l-8.7 11.7-8.8 11.7v-.6c1.3 1.7 2.8 3.2 4.2 4.8.7.8 1.4 1.6 2.2 2.3.7.8 1.5 1.5 2.2 2.3l-.6-.1c3.9-3 7.7-6 11.6-8.9 3.9-2.9 7.8-5.8 11.8-8.6 4-2.8 7.9-5.7 12-8.5 4.2-2.6 8.3-5.5 12.4-8.3z" class="st6"/>
  <path d="m1473.8 753.6-61.6 13.4-4.5-11.9 54.3-30.9z" class="st5"/>
  <path d="M1473.9 753.6c-4.9 1.2-10 2.5-15 3.7-5.1 1.2-10.2 2.4-15.4 3.6-5.2 1.2-10.3 2.4-15.6 3.5-5.2 1.1-10.5 2.1-15.6 3.1l-.4.1-.1-.4c-.3-1-.6-2-1-3-.3-1-.7-2-1.1-3-.8-2-1.5-4-2.4-5.9l-.1-.3.3-.2 13.4-8c4.5-2.6 9-5.3 13.5-7.9l13.5-7.8c4.5-2.6 9.1-5.1 13.6-7.7l1-.6.4 1 2.9 7.6c.9 2.5 1.9 5 2.8 7.5l5.3 14.7zm-.2-.1-6.5-14.7c-1.1-2.4-2.1-4.8-3.1-7.2l-3-7.1 1.4.5-13.5 7.8-13.6 7.6c-4.5 2.5-9.1 5.1-13.7 7.6l-13.7 7.5.2-.5c.6 2 1.4 4 2.1 6l1.2 3c.4 1 .8 2 1.3 2.9l-.6-.3c5.1-1.2 10.1-2.5 15.2-3.6 5-1.2 10.1-2.2 15.3-3.3 5.1-1.1 10.2-2.1 15.4-3.1l15.6-3.1z" class="st6"/>
  <path d="m665.9 1142 58.5-11.6 10.6 23.4-49.5 35.3z" class="st5"/>
  <path d="m665.8 1141.9 14-3.4 7.2-1.7 7.3-1.7c4.9-1.1 9.9-2.2 14.9-3.1 5-1 10-1.8 15-2.6l.8-.1.3.7c1.6 4 3.2 8 4.9 11.9l2.6 5.9 2.7 5.8.2.4-.3.3c-4.1 3-8.1 6.1-12.1 9.2-4 3.1-8 6.2-12.1 9.2l-12.3 9-6.1 4.5-6.2 4.4-1.7 1.2-.8-2c-3.3-8.1-6.5-16.2-9.5-24.3-1.5-4-2.9-8-4.4-11.9l-4.4-11.7zm.2.2 10.9 23.5c3.5 7.7 6.9 15.2 10.1 22.8l-2.5-.7 6.2-4.4 6.2-4.3 12.5-8.7c4.2-2.9 8.4-5.7 12.6-8.5 4.2-2.8 8.5-5.6 12.6-8.5l-.2.6-2.6-5.9-2.7-5.8c-1.8-3.9-3.8-7.7-5.7-11.5l1.1.5c-4.8 1.1-9.5 2.3-14.3 3.3-4.8 1-9.6 1.8-14.4 2.7l-7.3 1.2-7.4 1.2-15.1 2.5z" class="st6"/>
  <path d="m1123.8 1330.2-24.4-77.8 35-13.6 36.5 71.8z" class="st5"/>
  <path d="M1123.7 1330.4c-4.4-12.3-8.8-25.1-13.1-38.2-2.1-6.5-4.3-13.1-6.2-19.7-2-6.6-3.8-13.3-5.7-19.9l-.2-.7.7-.2c2.9-1 5.9-2.1 8.8-3.2 2.9-1.1 5.8-2.2 8.8-3.3 2.9-1.2 5.8-2.3 8.7-3.5l8.7-3.6.6-.2.3.6 9.6 17.7c3.2 5.9 6.3 11.9 9.4 17.8 3.1 6 6.2 11.9 9.3 17.9 3.1 6 6 12 9 18l.8 1.6-1.6.6-12.1 4.8c-4 1.6-8.1 3.2-12.1 4.7l-23.7 8.8zm.1-.3 23.5-10.8c3.8-1.8 7.7-3.4 11.5-5.1l11.4-5-.8 2.2c-3.1-6-6.2-11.9-9.2-17.9l-9-18c-3-6-5.9-12.1-8.9-18.1l-8.7-18.2.9.3c-2.9 1.1-5.9 2.1-8.8 3.2-2.9 1.1-5.8 2.2-8.7 3.4-2.9 1.2-5.8 2.3-8.7 3.5-2.9 1.2-5.8 2.4-8.6 3.6l.5-1c2.2 6.4 4.4 12.7 6.5 19 2.1 6.3 4 12.8 5.9 19.2 3.9 12.9 7.5 26.1 11.2 39.7z" class="st6"/>
  <path d="m1170.8 1310.7-11.6-58.5 23.4-10.6 35.3 49.5z" class="st5"/>
  <path d="m1170.7 1310.9-3.4-14-1.7-7.2-1.7-7.3c-1.1-4.9-2.2-9.9-3.1-14.9-1-5-1.7-10-2.6-15l-.1-.8.7-.3c4-1.6 8-3.2 11.9-4.9l5.9-2.6 5.8-2.7.4-.2.3.3c3 4.1 6.1 8.1 9.2 12.1 3.1 4 6.2 8 9.2 12.1l9 12.3 4.5 6.1 4.4 6.2 1.2 1.7-2 .8c-8.1 3.3-16.2 6.5-24.3 9.5-4 1.5-8 2.9-11.9 4.4l-11.7 4.4zm.2-.3 23.5-10.9c7.7-3.5 15.2-6.9 22.8-10.1l-.7 2.5-4.4-6.2-4.3-6.2-8.6-12.5c-2.9-4.2-5.7-8.4-8.5-12.6-2.8-4.2-5.6-8.5-8.5-12.6l.6.2-5.9 2.6-5.8 2.7c-3.9 1.8-7.7 3.8-11.5 5.7l.5-1.1c1.1 4.8 2.3 9.5 3.3 14.3 1 4.8 1.8 9.6 2.7 14.4l1.2 7.3 1.2 7.4 2.4 15.1z" class="st6"/>
  <path d="m773.3 1541.1 37.1-55.3 15.1 7-14.4 64.7z" class="st5"/>
  <path d="M773.2 1541.1c5.6-9.1 11.5-18.4 17.6-27.8 3.1-4.7 6.1-9.4 9.3-14 3.2-4.6 6.5-9.2 9.7-13.8l.3-.5.5.2c4.9 2.6 9.9 4.9 15 7l.4.2-.1.5-3.2 16.3c-1.1 5.4-2.2 10.8-3.4 16.2-1.2 5.4-2.3 10.8-3.5 16.2-1.2 5.4-2.4 10.8-3.7 16.2l-.4 1.5-1.4-.6-9.6-4.4c-3.2-1.5-6.4-2.9-9.5-4.4l-18-8.8zm.2-.1 19.4 7.7c3.2 1.2 6.3 2.5 9.4 3.8l9.3 3.8-1.8.9c1.2-5.4 2.3-10.8 3.5-16.2 1.2-5.4 2.5-10.8 3.7-16.2 1.2-5.4 2.5-10.8 3.8-16.1l4-16.1.3.6c-4.9-2.6-9.9-4.9-15.1-6.9l.8-.2c-2.9 4.7-5.8 9.3-8.8 13.9-3 4.6-6.1 9.1-9.2 13.6-6 9-12.5 18.1-19.3 27.4z" class="st6"/>
  <path d="m877.6 1584.8 34.5-52.8 11.6 5.4-17.1 60.1z" class="st5"/>
  <path d="M877.5 1584.8c2.7-4.3 5.4-8.7 8.1-13.2 2.7-4.4 5.6-8.9 8.4-13.4 2.8-4.5 5.7-9 8.7-13.4l9-13.2.3-.4.4.2c.9.5 1.9 1 2.8 1.5.9.5 1.9.9 2.9 1.4 2 .9 3.9 1.8 5.9 2.5l.3.1-.1.4-4 15.1c-1.3 5-2.7 10.1-4.1 15.1l-4.2 15.1c-1.4 5-2.9 10-4.3 15l-.3 1.1-1-.5-7.4-3.4c-2.4-1.1-4.9-2.3-7.3-3.4l-14.1-6.6zm.2-.1 14.9 5.9c2.5 1 4.8 2 7.2 2.9l7.2 3-1.3.6 4.2-15 4.4-15c1.5-5 2.9-10 4.4-15l4.6-14.9.2.5c-1.9-1-3.8-1.9-5.7-2.8-1-.4-1.9-.9-2.9-1.3l-3-1.2.6-.2c-2.8 4.4-5.5 8.9-8.3 13.2-2.8 4.4-5.7 8.7-8.6 13-2.9 4.3-5.8 8.7-8.8 13l-9.1 13.3z" class="st6"/>
  <path d="m811 1557.6 27.6-39.5 19.3 7.7-9.1 48.2z" class="st5"/>
  <path d="m810.9 1557.6 6.3-9.9c2.1-3.3 4.4-6.7 6.6-10.1 2.3-3.4 4.5-6.8 6.9-10.1 2.4-3.4 4.9-6.6 7.3-9.9l.4-.5.5.2c3.2 1.4 6.3 2.8 9.5 4.2l9.6 3.9.3.1-.1.3c-.7 4-1.3 8.1-2 12.1-.6 4.1-1.3 8.1-1.9 12.1l-2.1 12.1c-.7 4-1.4 8.1-2.2 12.1l-.3 1.7-1.6-.7c-3.2-1.4-6.4-2.9-9.6-4.4l-9.5-4.5c-3.2-1.5-6.2-3-9.3-4.5l-8.8-4.2zm.2-.1 9.9 3.9c3.2 1.3 6.5 2.5 9.6 3.8l9.4 3.8 9.3 3.9-1.9 1c.8-4 1.5-8 2.4-12l2.5-12c.8-4 1.7-8 2.6-12 .9-4 1.8-8 2.6-12l.3.5c-3.2-1.3-6.4-2.6-9.7-3.8-3.2-1.2-6.5-2.4-9.8-3.5l.9-.3c-2.2 3.3-4.3 6.6-6.5 9.9-2.2 3.2-4.6 6.4-6.9 9.6-2.4 3.2-4.7 6.4-7.2 9.6l-7.5 9.6z" class="st6"/>
  <path d="m969.3 1626.9 8.9-58.2 12.7.5 9.7 57.6-16.3 6.9z" class="st5"/>
  <path d="M969.2 1626.9c.5-4.7 1.1-9.6 1.7-14.4.6-4.8 1.3-9.7 2-14.6s1.4-9.8 2.2-14.7c.8-4.9 1.7-9.8 2.6-14.6l.1-.5h.4c1.1.1 2.1.2 3.2.3 1.1.1 2.1.1 3.2.2 2.1 0 4.3.2 6.4.1h.3l.1.4 2.7 14.3c.9 4.8 1.8 9.6 2.6 14.4.8 4.8 1.7 9.6 2.5 14.4l2.4 14.4.1.8-.7.3-16.3 6.7-.3.1-.3-.1-7.5-3.7-7.4-3.8zm.2-.1 7.7 3.1 7.5 3.1h-.6l16.1-7.1-.6 1.1c-.8-4.8-1.7-9.6-2.5-14.4-.8-4.8-1.5-9.6-2.3-14.4-.8-4.8-1.5-9.6-2.2-14.4l-2.1-14.4.4.4c-2.1-.2-4.2-.3-6.4-.4-1.1 0-2.1-.1-3.2-.1H978l.5-.4c-.6 4.8-1.2 9.7-1.9 14.5-.6 4.8-1.4 9.6-2.2 14.4-.8 4.8-1.6 9.6-2.5 14.5-.6 4.7-1.5 9.6-2.5 14.5z" class="st6"/>
  <path d="M470.3 783.6 526 820l-6.7 15.1-65-13.5z" class="st5"/>
  <path d="M470.3 783.5c9.1 5.5 18.6 11.2 28 17.2 4.7 3 9.5 6 14.2 9.2 4.7 3.2 9.3 6.4 13.9 9.6l.5.3-.2.5c-2.6 4.9-4.8 10-6.8 15.1l-.2.4-.5-.1-16.3-3c-5.4-1-10.9-2.1-16.3-3.2s-10.8-2.1-16.3-3.2c-5.4-1.1-10.8-2.3-16.2-3.5l-1.5-.3.6-1.4 4.3-9.6c1.4-3.2 2.8-6.4 4.3-9.5l8.5-18.5zm.1.2-7.4 19.5c-1.2 3.2-2.5 6.3-3.7 9.5l-3.7 9.4-.9-1.7 16.2 3.3c5.4 1.1 10.8 2.3 16.2 3.5l16.2 3.6 16.1 3.8-.6.3c2.5-4.9 4.8-10 6.7-15.2l.2.8c-4.7-2.9-9.4-5.7-14-8.6-4.6-2.9-9.1-6-13.7-9-9.1-6.2-18.2-12.5-27.6-19.2z" class="st6"/>
  <path d="m485.3 746 39.9 27.1-7.5 19.4-48.4-8.5z" class="st5"/>
  <path d="m485.3 745.9 9.9 6.1c3.4 2.1 6.8 4.3 10.2 6.5 3.4 2.2 6.8 4.5 10.2 6.8 3.4 2.3 6.7 4.8 10 7.2l.5.4-.2.5c-1.4 3.2-2.8 6.4-4 9.6-1.3 3.2-2.5 6.4-3.7 9.7l-.2.3-.3-.1c-4-.7-8.1-1.2-12.2-1.8-4.1-.6-8.1-1.2-12.2-1.8l-12.1-1.9c-4-.6-8.1-1.3-12.1-2l-1.7-.3.7-1.6c1.4-3.2 2.8-6.5 4.2-9.7l4.3-9.5c1.4-3.2 2.9-6.2 4.4-9.3l4.3-9.1zm.1.2-3.7 9.9c-1.2 3.2-2.4 6.5-3.6 9.7l-3.6 9.5c-1.2 3.1-2.5 6.2-3.8 9.3l-1-1.9c4 .7 8.1 1.4 12.1 2.2l12.1 2.3c4 .8 8 1.6 12 2.5 4 .8 8 1.7 12 2.5l-.5.3c1.3-3.2 2.5-6.5 3.7-9.7 1.2-3.3 2.3-6.5 3.4-9.8l.3.9c-3.4-2.1-6.7-4.2-10-6.4s-6.5-4.5-9.7-6.8c-3.2-2.3-6.5-4.7-9.7-7.1l-10-7.4z" class="st6"/>
  <path d="m382.3 1007.3 58.4 7.4-.3 12.8-57.3 11-7.3-16z" class="st5"/>
  <path d="M382.2 1007.2c4.8.4 9.6.9 14.4 1.4 4.9.5 9.8 1 14.7 1.6 4.9.6 9.8 1.1 14.7 1.8 4.9.7 9.8 1.5 14.7 2.2l.5.1v.4c-.1 1.1-.2 2.1-.2 3.2-.1 1.1-.1 2.1-.1 3.2 0 2.1-.1 4.3 0 6.4v.3l-.4.1-14.3 3.1c-4.8 1-9.5 2-14.3 2.9-4.8 1-9.5 1.9-14.3 2.9-4.8.9-9.6 1.8-14.3 2.7l-.8.1-.3-.7-7.1-16.1-.1-.3.1-.3 3.6-7.6 3.5-7.4zm.1.2-2.9 7.8-2.9 7.6v-.6l7.5 15.9-1.1-.6c4.8-1 9.5-1.9 14.3-2.8 4.8-.9 9.6-1.8 14.3-2.7 4.8-.9 9.6-1.7 14.4-2.6l14.4-2.4-.4.4c.2-2.1.2-4.3.3-6.4v-3.2c0-1.1 0-2.1-.1-3.2l.4.5c-4.9-.5-9.7-1-14.5-1.5-4.8-.5-9.6-1.2-14.5-1.9-4.8-.7-9.7-1.3-14.6-2.1-4.7-.6-9.6-1.4-14.6-2.2z" class="st6"/>
</svg>
