<svg xmlns="http://www.w3.org/2000/svg" xml:space="preserve" id="Layer_1" x="0" y="0" style="enable-background:new 0 0 2000 2000" version="1.1" viewBox="0 0 2000 2000">
  <style>
    .st0{fill:#92a0ad;stroke:#68657f;stroke-width:9.0639;stroke-miterlimit:10}.st1{fill:#c9d3d6}.st3{fill:#f7d95c}.st4{fill:#fcf494}.st5{fill:#f3b75e}.st6{fill:#a57955}.st7{opacity:.39;fill:#6183e2;enable-background:new}.st8{fill:#767fbd}.st12{fill:#92a0ad}.st13{fill:#729bad}.st14{fill:#d0edf5}.st15{fill:#f9e073}.st16{fill:#f8e9ab}.st17{fill:#e2c547}.st18{fill:#eed057}.st19{fill:#fff2bc}.st20{fill:#ddc043}.st21{fill:none;stroke:#ddc043;stroke-width:4.532;stroke-miterlimit:10}.st22,.st24{opacity:.4;fill:#feffff;enable-background:new}.st24{opacity:.22;fill:#e8f6f9}
  </style>
  <path d="m623.7 1434.6-157.3-376.9 155.1-377.9 377-157.3 377.7 155.3 157.3 376.9-155.3 377.7-376.9 157.4-377.6-155.2zm247.6-506.3-52.7 128.4 53.5 128.1 128.4 52.8 128.1-53.5 52.8-128.4-53.5-128.1-128.4-52.8-128.2 53.5z" class="st0"/>
  <path d="m1355.5 698.7-357-146.8-140.7 58.7-76.7 32.1-138.7 57.8-66.6 162.2-27.8 67.8-52.2 127.1 71.4 170.8 52.8 126.5 24.5 58.7 128.2 52.7 228.8 94.1 13.2-5.5 247.6-103.3 76.7-32.1 18.6-7.8 110.2-268.1 27.8-67.6 8.6-21.2-148.7-356.1zM1006 1264.6l-5.6 2.3-149.2-61.3-20.1-48.3-12.1-29.1-9.6-23-20.1-48.3 12.1-29.5 49.2-119.7 148.9-62.2 136.3 56 13 5.3 2.4 5.9 59.7 142.9-61.3 149.2-66.6 27.8-77 32z" class="st1"/>
  <path d="m1002.5 1984.2-657-269.9-273.7-655.6 270.1-657L997.5 128l657 270.1 273.7 655.6-270.1 657-655.6 273.5zm-382.6-545.9 381.5 156.8 380.6-158.9 156.8-381.5-158.9-380.6-381.5-157-380.6 159L461 1057.6l158.9 380.7z" style="fill:#92a0ad;stroke:#729da8;stroke-width:9.0639;stroke-miterlimit:10"/>
  <path d="m1709.5 647.6-21.7-51.9-67.9-162.7-355.3-146.1-113.6-46.6-153.4-63-467 194.8-76.7 32.1-77.3 32.2-88.9 216.3-27.8 67.6-89.8 218.6-27.8 67.6-21.4 52.1L246.4 1359l9.9 23.7L380 1679.3l622.3 255.7 7.1-2.9 31.5-13.2 224-93.5 76.7-31.9 247.6-103.3 33.8-14.1 15.5-37.8 116.8-284.5 27.8-67.6 95.5-232.4-169.1-406.2zM1532 1190.5l-115.1 280.2-4.9 2-76.7 32.1-247.6 103.3-76.7 32.1-9.4 3.9L585.4 1473l-86.2-206.1-52.8-126.5-34.5-82.6 71.7-174.3 27.8-67.6 71.7-174.3L708 589.5l76.7-32.1 213.7-89.2 416.3 171.1 173.4 415.3-28.1 68.3-28 67.6z" class="st1"/>
  <path d="m473.4 1585.5-220.2-527.4 217.3-528.5 527.4-220.2 528.5 217.3 220.2 527.4-217.3 528.5-527.4 220.2-528.5-217.3zm15.7-1037.3-209.7 510L491.8 1567l510 209.7 508.8-212.4 209.7-510-212.4-508.9-510-209.5-508.8 212.3z" class="st3"/>
  <path d="m473.1 1585.8-55.7-131.2-55.6-131.6-111.1-263.6-.4-1.2.4-1.2 108.2-264.5 54.2-132.1 54.5-132.1.4-1.2 1.2-.4 264-109.1 132.1-54.5 131.9-54.7.4-.1.4.1 132.1 54.4 132.2 54.1 132.2 54 132.2 54 .7.3.3.9L1639 789.5l110.5 263.5.6 1.3-.6 1.4-108.2 264.5-108.5 264.3-.6 1.6-1.6.6-263.8 109.6-263.9 109.4-1.2.4-1.2-.4-264-109.9-263.4-110zm.6-.6 265 107.3L1003 1800h-2.3l263.3-110.7 263.5-110.4-2.2 2.2 108.6-264.2 108.9-264.2v2.7l-109.5-263.9-109.2-264 1.2 1.2-131.9-54.7-131.9-54.5-132.1-54.4-132.1-54.2h1L866.7 366 735 421.6l-263.3 111 1.7-1.7-54.1 132.2-54.4 132.1-108.9 264v-2.3l109.1 263.6 54.4 132.1 54.2 132.6z" class="st4"/>
  <path d="m489.4 548.5-51.7 128.1-51.8 127.8-103.7 255v-2.3l106.6 254.3 53.1 127.2 53 127.3-1.7-1.7L747.7 1670l127.3 53 127.3 52.7h-1l127.2-53.1 127.2-53.2 127.1-53.4 127.1-53.5-1.2 1.2 103.9-255.4 104.3-255.3v2.7l-106.6-254.3L1504 546.7l2.2 2.2-254.8-105.2-254.8-105.5h2.3l-254.5 105-255 105.3zm-.6-.6 253.7-107.5 254.4-107.3 1.2-.4 1.2.4 255.3 104.2 255.1 104.5 1.6.6.6 1.6 106.2 254.4 105.9 254.5.6 1.3-.6 1.3-105.3 254.8-105.6 254.7-.3.9-.7.3-127.3 52.7-127.3 52.8-127.2 53-127.2 53.1-.4.1-.4-.1-127.6-52.1-127.8-51.9-255.4-103.9-1.2-.4-.6-1.2-53.5-127.3-53.1-127.2-105.8-254.5-.4-1.2.4-1.2 105.3-255 53.1-127.2 53.1-126.8z" class="st4"/>
  <path d="m565.5 1744.4 49.7-76 16.7 7.7-24.7 86.5z" class="st5"/>
  <path d="M565.4 1744.4c3.9-6.2 7.8-12.5 11.7-19 3.9-6.3 8.1-12.8 12.1-19.3s8.2-13 12.5-19.3c4.3-6.3 8.6-12.7 13-19l.4-.6.6.3c1.3.7 2.7 1.4 4 2.2 1.3.7 2.7 1.3 4.2 2 2.9 1.3 5.6 2.6 8.5 3.6l.4.1-.1.6-5.8 21.7c-1.9 7.2-3.9 14.5-5.9 21.7l-6 21.7c-2 7.2-4.2 14.4-6.2 21.6l-.4 1.6-1.4-.7-10.6-4.9c-3.5-1.6-7.1-3.3-10.5-4.9l-20.5-9.4zm.3 0 21.4 8.5c3.6 1.4 6.9 2.9 10.4 4.2l10.4 4.3-1.9.9 6-21.6 6.3-21.6c2.2-7.2 4.2-14.4 6.3-21.6l6.6-21.4.3.7c-2.7-1.4-5.5-2.7-8.2-4-1.4-.6-2.7-1.3-4.2-1.9-1.4-.6-2.9-1.2-4.3-1.7l.9-.3c-4 6.3-7.9 12.8-11.9 19-4 6.3-8.2 12.5-12.4 18.7-4.2 6.2-8.3 12.5-12.7 18.7l-13 19.1z" class="st6"/>
  <path d="m647.2 1781.3 39.8-56.8 27.7 11.1-13.1 69.5z" class="st5"/>
  <path d="m647.1 1781.3 9.1-14.2c3-4.7 6.3-9.6 9.5-14.5 3.3-4.9 6.5-9.8 9.9-14.5 3.5-4.9 7.1-9.5 10.5-14.2l.6-.7.7.3c4.6 2 9.1 4 13.7 6 4.6 1.9 9.2 3.7 13.8 5.6l.4.1-.1.4c-1 5.8-1.9 11.7-2.9 17.4-.9 5.9-1.9 11.7-2.7 17.4l-3 17.4c-1 5.8-2 11.7-3.2 17.4l-.4 2.4-2.3-1c-4.6-2-9.2-4.2-13.8-6.3l-13.7-6.5c-4.6-2.2-8.9-4.3-13.4-6.5l-12.7-6zm.4-.1 14.2 5.6c4.6 1.9 9.4 3.6 13.8 5.5l13.5 5.5c4.5 1.9 8.9 3.7 13.4 5.6l-2.7 1.4c1.2-5.8 2.2-11.5 3.5-17.3l3.6-17.3c1.2-5.8 2.4-11.5 3.7-17.3 1.3-5.8 2.6-11.5 3.7-17.3l.4.7c-4.6-1.9-9.2-3.7-14-5.6-4.6-1.7-9.4-3.5-14.1-5l1.3-.4c-3.2 4.7-6.2 9.5-9.4 14.2-3.2 4.6-6.6 9.2-9.9 13.8-3.5 4.6-6.8 9.2-10.4 13.8l-10.6 14.1z" class="st6"/>
  <path d="m529.3 1785.5 84.7 36.6 82.5-208.7-19.6-151.5-50.2-20.7z" class="st7"/>
  <path d="M1416.8 1470.8c13-35.3 26.2-70.4 39.6-105.3l20.1-52.5 20.4-52.4c6.8-17.4 13.5-35 20.4-52.4l20.7-52.4 20.7-52.2 21-52.2v6.8c-14.7-34.5-29.5-68.9-44-103.6l-43.6-103.7c-14.4-34.7-28.9-69.2-43.2-103.9-14.4-34.7-28.5-69.4-42.6-104.2l4.7 4.7-51.8-21.9c-17.3-7.2-34.5-14.7-51.8-22-34.5-14.7-69.1-29.4-103.5-44.5l-51.7-22.4-51.5-22.6c-34.4-15.1-68.6-30.4-102.7-45.9 35.3 13 70.4 26.2 105.3 39.6l52.5 20.1 52.4 20.4c35 13.5 69.8 27.3 104.8 41.2 17.4 6.9 35 13.7 52.2 20.7l52.2 21 3.3 1.3 1.4 3.5c14.7 34.5 29.5 68.9 44 103.6 14.7 34.5 29.1 69.2 43.6 103.7l43.2 103.9c14.4 34.7 28.5 69.4 42.6 104.2l1.4 3.5-1.4 3.3-21.9 51.8-22 51.8-22.2 51.8c-7.3 17.3-14.8 34.4-22.3 51.7l-22.4 51.7-22.6 51.5c-14.5 33.8-29.8 68.1-45.3 102.3z" class="st8"/>
  <path d="M582.9 641.6c-13 35.3-26.3 70.2-39.7 105.3l-20.1 52.5-20.4 52.4c-6.9 17.4-13.5 35-20.6 52.4l-20.7 52.4-20.7 52.2-21 52.2v-6.5c14.7 34.5 29.5 68.9 44 103.6l43.6 103.7c14.4 34.7 28.9 69.2 43.2 103.9 14.4 34.7 28.5 69.4 42.7 104l-4.6-4.6 51.8 21.7c17.3 7.2 34.5 14.7 51.8 22 34.5 14.7 69.1 29.4 103.5 44.3l51.7 22.3 51.5 22.6c34.4 15.1 68.6 30.4 102.7 45.8-35.3-13-70.2-26.3-105.3-39.7l-52.5-20.1-52.4-20.4c-35-13.5-69.8-27.3-104.8-41.2l-52.2-20.7-52.2-21-3.2-1.3-1.4-3.3c-14.7-34.5-29.5-68.9-44-103.6-14.7-34.5-29.1-69.2-43.6-103.7l-43.2-103.9c-14.4-34.7-28.5-69.4-42.7-104l-1.3-3.3 1.3-3.2 21.7-51.8 22-51.8 22-51.8c7.3-17.3 14.8-34.4 22.3-51.7l22.3-51.7 22.6-51.5c15.3-34 30.5-68.4 45.9-102.5z" style="fill:#d1edf3"/>
  <path d="M596.6 1461.6 428 1057.7l166.3-404.8 403.9-168.6L1403 650.6l168.6 403.9-166.3 404.8-403.9 168.6-404.8-166.3zm404.8 123.2 373.4-155.8 153.8-374.3-156-373.4-374.1-153.7-373.4 155.8-153.8 374.3 155.8 373.4 374.3 153.7z" style="fill:#f7d95c;stroke:#fcf494;stroke-width:7.5533;stroke-miterlimit:10"/>
  <path d="M1002.4 1935.2c-52.4-20-104.6-40.3-156.8-60.7l-78.3-30.8-78.1-30.9-78.1-31.1-78.1-31.2-78-31.4-78-31.5-3.3-1.3-1.4-3.5c-21.9-51.7-43.7-103.2-65.5-155l-65-155.1-64.8-155.3c-21.4-51.8-42.7-103.6-64.2-155.5l-1.4-3.5 1.4-3.3 32.4-77.6 32.7-77.6c21.7-51.7 43.5-103.3 65.6-155l33-77.4 33.2-77.3c22.2-51.5 44.5-102.9 67.2-154.3-20 52.4-40.3 104.6-60.7 156.8L285.6 671l-30.9 78.1c-20.6 52.1-41.4 104.2-62.3 156.3l-31.4 78-31.5 78v-6.8c21.9 51.7 43.7 103.2 65.5 155l65 155.1 64.6 155.3c21.6 51.8 42.7 103.6 64 155.5l-4.7-4.7 77.6 32.4 77.6 32.7 77.6 32.7 77.4 33 77.4 33 77.3 33.2c50.7 22.5 102.2 44.8 153.6 67.4z" class="st8"/>
  <path d="M997.5 177.1c52.4 20 104.6 40.4 156.8 60.9l78.3 30.8 78.1 31.1 78.1 31.1 78 31.4 78 31.4 78 31.5 3.2 1.3 1.4 3.3c21.9 51.7 43.7 103.2 65.5 155l65 155.1 64.5 155.3 32.2 77.7 31.9 77.8 1.3 3.3-1.3 3.2-32.4 77.6-32.7 77.6c-21.7 51.7-43.5 103.3-65.5 155l-33 77.4-33.1 77.3c-22.2 51.5-44.5 103-67.1 154.3 20-52.4 40.4-104.6 60.9-156.8l30.8-78.3 31.1-78.1c20.6-52.1 41.6-104.2 62.4-156.3l31.4-78 31.5-78v6.5l-32.8-77.4-32.5-77.6-65-155.1L1676 592c-21.6-51.8-42.9-103.6-64.2-155.4l4.6 4.5-77.6-32.4-77.6-32.7-77.2-33-77.4-32.8-77.4-33-77.3-33.1c-51.5-22.1-103-44.4-154.4-67z" style="fill:#fff"/>
  <path d="m1473.6 1779.5-84.7 36.4-82.5-208.7 9.8-110.5 60.1-61.7z" class="st7"/>
  <path d="m676.9 1610.2-147.8 178.6-230.9 21.7-178.7-147.9-21.8-230.8 147.9-178.7 231-21.7 178.6 147.9z" class="st12"/>
  <path d="M677.3 1610.2c-11.9 15.1-23.9 30.1-36 45.2l-36.3 45.2-36.5 45.2-36.8 45.2-.9 1.2-1.4.1-57.7 5.8-57.7 5.6c-19.3 1.9-38.4 3.7-57.7 5.5-19.3 1.9-38.6 3.5-57.7 5.2l-1.6.1-1.2-1-88.5-75-44.2-37.4-44.5-37.3-.4-.4v-.6l-5.3-57.7-5.6-57.7-2.9-28.8-3-28.8-5.9-57.7-.1-1 .7-.9 36.5-45 18.3-22.6 18.3-22.4 36.7-44.9 36.8-44.9 1.2-1.3 1.7-.1 115.4-11.4 57.7-5.6 57.7-5.5 2-.1 1.6 1.3 89.1 74.2 88.8 74.5 1.2 1 .1 1.4c3.3 38.7 6.5 77.4 9.6 116l4.6 57.8 3.9 57.6zm-.8-.1-6.5-57.8-6.3-57.7c-4-38.4-8.2-76.7-12.1-114.8l1.3 2.4-89.8-73.2-89.6-73.7 3.6 1.2-57.7 5.5-57.7 5.3-115.5 10.4 2.9-1.6-37.1 44.5-37.3 44.5-18.7 22.2-18.7 22.2-37.4 44.3.6-1.9 4.9 57.7 2.4 28.9 2.6 28.9 5.3 57.7 5.5 57.7-.6-1 44.9 36.7 45 36.4 90.1 73-2.7-.9c19.3-1.9 38.4-3.9 57.7-5.8 19.3-1.9 38.4-3.7 57.7-5.5l57.7-5.3 57.7-5-2.4 1.3 37.1-44.2 37.4-44 37.7-44.2c12.6-14.7 25.3-29.5 38-44.2z" class="st13"/>
  <path d="m142.6 1650.4-19.8-211 135.1-163.1 210.9-19.9L632 1391.5l20 211-135.1 163.1-211.1 19.9z" class="st14"/>
  <path d="m703.1 255.4-68.7 73.3L717 551.9l63.8 19.2 59.7-21.5z" class="st7"/>
  <path d="m164.3 1639-18.1-192.2L269.4 1298l192.2-18.1L610.4 1403l18.1 192.3-123.1 148.8-192.3 18.1z" class="st0"/>
  <path d="m1191.9 106.1 91.1 213.4-86.7 215.2-213.2 90.9-215.3-86.5-90.9-213.4 86.6-215.1 213.3-90.9z" class="st12"/>
  <path d="M1192.3 105.9c7.9 17.4 15.7 35.1 23.6 52.7l23.6 53 23.5 53.2 23.3 53.4.6 1.3-.6 1.4-21.3 54-21.4 53.8c-7.2 18-14.4 35.8-21.6 53.8-7.2 18-14.5 35.8-21.9 53.7l-.6 1.4-1.4.6-107.2 44.3-53.5 22.2-53.6 22.3-.6.3-.6-.3-53.8-21.7-53.8-21.4-26.9-10.6-27.1-10.5-54-21.2-.9-.4-.4-1-23.3-53.2-11.7-26.5-11.5-26.6-23.2-53.2-23-53.2-.7-1.6.7-1.7 42.9-107.8 21.6-53.8 21.6-53.8.7-1.9 1.9-.7 106.8-45 107.1-44.8 1.4-.6 1.3.6c36 14.8 71.8 29.8 107.5 44.6l53.4 22.4 53.1 22.5zm-.7.7-54.4-20.9-54.1-20.9c-36-14-71.9-27.8-107.6-41.9h2.7L871.9 69.2l-106.5 45.9 2.6-2.6-21.6 53.8-21.7 53.8L681 327.4v-3.3l22.4 53.4 22.3 53.5 11.2 26.8 11.1 26.8 22.2 53.5-1.3-1.3 53.5 22.2 26.8 11.1L876 581l53.7 21.7 53.8 21.6h-1.2l53.2-23.2 53.1-23.3 106.2-46.6-2 2c7.1-18 14.1-36 21.4-54 7.2-18 14.4-35.8 21.6-53.8l21.7-53.7 21.9-53.7v2.7l-22.2-53.2-22-53.4-21.9-53.7c-7.2-17.9-14.4-35.8-21.7-53.8z" class="st13"/>
  <path d="m786.2 520.4-83.1-194.8 79-196.7 194.9-83 196.6 79 83.2 194.9-79.2 196.6-194.8 83.1z" class="st14"/>
  <path d="m803.4 502.9-75.7-177.6 71.9-179.2 177.7-75.8 179.2 72.1 75.7 177.6-72 179.3-177.7 75.6z" class="st0"/>
  <path d="m1146.4 158.2 70.9 166.7-67.4 167.9-166.5 70.9-167.9-67.5-71.1-166.4 67.5-168.1 166.6-71z" class="st3"/>
  <path d="m885.2 425-41.1-96.3 39.1-97.1 96.3-41.1 97.1 39.1 41 96.3-39 97.1-96.2 41z" class="st15"/>
  <path d="m1076.6 229.6 69.8-71.4 70.9 166.7-99.7 1z" class="st16"/>
  <path d="m744.4 329.8 99.7-1.1 41.1 96.3-69.7 71.2z" class="st17"/>
  <path d="m982.4 464-97.2-39-69.7 71.2 167.9 67.5z" class="st18"/>
  <path d="m978.5 90.7 1 99.8 97.1 39.1 69.8-71.4z" class="st15"/>
  <path d="M979.5 190.5c8.2 2.9 16.4 6 24.6 9.1 8.2 3 16.4 6 24.5 9.2l24.5 9.4 24.3 9.5.7.3.3.7 10.4 24 10.4 24c6.8 16.1 13.7 32.1 20.3 48.2l.3.9-.3.7c-6.6 16.1-13.4 32.2-20.1 48.3-3.5 8.1-6.8 16.1-10.4 24-3.5 8.1-6.9 16-10.5 24 2.9-8.2 6-16.4 9.1-24.6 3-8.2 6-16.4 9.2-24.5 6.2-16.3 12.5-32.5 18.8-48.8v1.6c-7.1-16-13.8-32.1-20.7-48.1l-10.2-24.2-10.1-24.2 1.2 1.2-24.2-10.1-24.2-10.1c-8.1-3.5-16.1-6.9-24-10.4-7.9-3.1-16-6.5-23.9-10.1z" class="st19"/>
  <path d="M982.4 464c-8.2-2.9-16.4-6-24.6-9.1-8.2-3-16.4-6-24.5-9.2l-24.5-9.4-24.3-9.5-.7-.3-.3-.7-10.4-24-10.4-24c-6.8-16.1-13.7-32.1-20.3-48.2l-.3-.9.3-.7c6.6-16.1 13.4-32.2 20.1-48.3 3.5-8.1 6.8-16.1 10.4-24 3.5-8.1 6.9-16 10.5-24-2.9 8.2-6 16.4-9.1 24.6-3 8.2-6 16.4-9.2 24.5-6.2 16.3-12.5 32.5-18.8 48.8V328c7.1 16 13.8 32.1 20.7 48.1l10.2 24.2 10.1 24.2-1.2-1.2 24.2 10.1 24.2 10.1c8.1 3.5 16.1 6.9 24 10.4 7.9 3.2 15.8 6.6 23.9 10.1z" class="st20"/>
  <path d="m1146.4 158.2 70.9 166.7-67.4 167.9-166.5 70.9-167.9-67.5-71.1-166.4 67.5-168.1 166.6-71z" class="st21"/>
  <path d="m595.4 1408.5 18.6 180.2-114.2 140.4-180 18.6-140.5-114.3-18.5-180.1L275 1312.8l180-18.4z" class="st3"/>
  <path d="m266.9 1586.1-10.6-104.2 66-81.3 104.2-10.7 81.2 66.1 10.8 104.2-66.1 81.1-104.2 10.8z" class="st15"/>
  <path d="m507.7 1456 87.7-47.5 18.6 180.2-95.5-28.5z" class="st16"/>
  <path d="m160.8 1453.3 95.5 28.6 10.6 104.2-87.6 47.3z" class="st17"/>
  <path d="m348.2 1652.1-81.3-66-87.6 47.3 140.5 114.3z" class="st18"/>
  <path d="m455 1294.4-28.5 95.5 81.2 66.1 87.7-47.5z" class="st15"/>
  <path d="M426.5 1389.9c7.1 5.2 13.8 10.6 20.7 16 6.9 5.3 13.8 10.6 20.7 16.1l20.6 16.3 20.4 16.3.6.6.1.9 2.9 26 2.7 26c1.7 17.4 3.6 34.7 5.2 52.1l.1.9-.6.6c-11.1 13.5-22.3 26.9-33.5 40.1-5.6 6.6-11.2 13.4-17 20-5.6 6.6-11.4 13.2-17.1 19.9 5.2-7.1 10.6-13.8 16-20.7 5.3-6.9 10.6-13.8 16.1-20.7 10.8-13.7 21.6-27.5 32.5-41l-.4 1.4c-2-17.3-3.7-34.7-5.6-52.1l-2.6-26-2.6-26 .7 1.4-20.1-16.7-20-16.8c-6.6-5.6-13.4-11.2-20-17-6.7-6.2-13.3-11.8-19.8-17.6z" class="st19"/>
  <path d="M348.2 1652.1c-7.1-5.2-13.8-10.6-20.7-16-6.9-5.3-13.8-10.6-20.7-16.1l-20.6-16.3-20.4-16.3-.6-.6-.1-.9-2.9-26-2.7-26c-1.7-17.4-3.6-34.7-5.2-52.1l-.1-.9.6-.6c11.1-13.5 22.3-26.9 33.5-40.1 5.6-6.6 11.2-13.4 17-20 5.6-6.6 11.4-13.2 17.1-19.9-5.2 7.1-10.6 13.8-16 20.7s-10.6 13.8-16.1 20.7c-10.8 13.7-21.6 27.5-32.5 41l.4-1.4c2 17.3 3.7 34.7 5.6 52.1l2.6 26 2.6 26-.7-1.4 20.1 16.7 20 16.8c6.6 5.6 13.4 11.2 20 17 6.6 6.1 13.2 11.9 19.8 17.6z" class="st20"/>
  <path d="m595.4 1408.5 18.6 180.2-114.2 140.4-180 18.6-140.5-114.3-18.5-180.1L275 1312.8l180-18.4z" class="st21"/>
  <path d="m967.1 839.1 12.8 117.3 19.2 42.2 18-42.3 10.7-117.2zM946.8 1075l-31 34.1-.9.5-67.8 38.6-33.9 19.3-24.1-55.8 5.5-1.8 83.3-27.3 23-7.5zM1203.4 1106.3l-113.8-31.3-46.1 2.1 32.7 32.4 104.7 53.2z" class="st1"/>
  <path d="M1043.5 1077.1c3.2 2.3 6.3 4.6 9.2 6.9 3 2.4 6 4.7 8.9 7.3 2.9 2.4 5.9 5 8.8 7.5 2.9 2.6 5.8 5.2 8.5 7.8l-1-.7c12.7 5.9 25.2 12.4 37.4 19.1 6.2 3.5 12.2 6.9 18.1 10.6 5.9 3.7 11.9 7.6 17.6 11.8-6.8-2.2-13.4-4.6-19.9-7.2-6.5-2.6-13-5.5-19.3-8.3-12.8-5.9-25.3-12.1-37.6-18.8l-.7-.4-.3-.4c-2.6-2.7-5.2-5.6-7.8-8.5-2.6-2.9-5.2-5.8-7.6-8.6-2.4-2.9-4.9-5.9-7.3-8.9-2.4-2.8-4.8-6-7-9.2zM848.1 1147.6c5-4.2 10.4-8.1 15.7-11.8 5.3-3.7 10.8-7.3 16.3-10.8 10.9-6.9 22.3-13.4 33.7-19.4l-1 .9c5.3-5.6 10.8-10.9 16.4-16.3 2.9-2.6 5.8-5.2 8.6-7.8 2.9-2.6 5.9-5 9.1-7.5-2 3.3-4.3 6.5-6.5 9.6-2.3 3.2-4.6 6.3-6.9 9.4-4.7 6.2-9.6 12.1-14.5 18l-.3.4-.7.4c-11.1 6.8-22.4 13.1-34 19-5.8 3-11.7 5.8-17.6 8.5-6 2.7-12.1 5.3-18.3 7.4zM971.6 880c1.9 6.2 3.3 12.5 4.6 18.8 1.3 6.3 2.4 12.7 3.5 19 2 12.7 3.5 25.3 4.5 38.1l-.3-1.3c1.4 3.6 2.9 7.1 4.3 10.6 1.4 3.6 2.7 7.2 4 10.8 1.3 3.6 2.6 7.3 3.7 10.9 1.2 3.7 2.3 7.5 3.3 11.2-2.2-3.2-4.3-6.5-6.3-9.8s-4-6.6-5.9-10.1c-1.9-3.3-3.7-6.8-5.5-10.2-1.7-3.5-3.5-6.9-5.2-10.4l-.3-.4-.1-.7c-1.7-12.7-3-25.5-3.9-38.3-.4-6.3-.7-12.8-.9-19.3 0-6 0-12.3.5-18.9z" class="st8"/>
  <path d="m518.5 1161.7 111.9-35.1 19.6 50.2-103.3 52.7z" class="st5"/>
  <path d="M518.2 1161.6c17.7-6.3 36.1-12.7 55-18.8 9.4-3 18.8-6.2 28.3-8.9 9.5-2.9 19.1-5.5 28.6-8.2l1-.3.3 1c1.4 4.2 3 8.5 4.6 12.7 1.6 4.2 3.2 8.3 4.7 12.7 1.7 4.2 3.3 8.3 5 12.5 1.7 4.2 3.5 8.3 5.2 12.5l.3.9-.9.4-25.5 13.8c-8.5 4.6-17.1 9.1-25.6 13.5-8.6 4.5-17.1 8.9-25.8 13.4-8.6 4.5-17.3 8.8-25.9 13l-2.3 1.2-.9-2.3-6.9-17.4c-2.3-5.8-4.6-11.7-6.8-17.4l-12.4-34.3zm.4.3 15.5 33.8c2.6 5.5 4.9 11.1 7.3 16.5l7.2 16.4-3.2-1.2c8.6-4.5 17.1-8.9 25.8-13.2 8.6-4.3 17.3-8.6 25.9-13 8.6-4.3 17.3-8.5 26-12.8l26.2-12.5-.4 1.3c-1.6-4.2-3-8.5-4.6-12.7-1.6-4.2-3.2-8.3-4.9-12.5-1.7-4.2-3.3-8.3-5-12.5-1.7-4.2-3.5-8.3-5.2-12.4l1.4.7c-9.2 3.2-18.3 6.3-27.3 9.4-9.1 3-18.4 5.8-27.6 8.5-18.5 5.5-37.5 10.7-57.1 16.2z" class="st6"/>
  <path d="m489.4 1095.7 84.2-16.7 15.2 33.7-71.2 50.8z" class="st5"/>
  <path d="m489.3 1095.5 20.1-4.9 10.4-2.4 10.5-2.4c7.1-1.6 14.2-3.2 21.4-4.5 7.2-1.4 14.4-2.6 21.6-3.7l1.2-.1.4 1c2.3 5.8 4.6 11.5 7.1 17.1l3.7 8.5 3.9 8.3.3.6-.4.4c-5.9 4.3-11.7 8.8-17.4 13.2-5.8 4.5-11.5 8.9-17.4 13.2l-17.7 13-8.8 6.5-8.9 6.3-2.4 1.7-1.2-2.9c-4.7-11.7-9.4-23.3-13.7-35-2.2-5.8-4.2-11.5-6.3-17.1l-6.4-16.8zm.4.3 15.7 33.8c5 11.1 9.9 21.9 14.5 32.8l-3.6-1 8.9-6.3 8.9-6.2 18-12.5c6-4.2 12.1-8.2 18.1-12.2 6-4 12.2-8.1 18.1-12.2l-.3.9-3.7-8.5-3.9-8.3c-2.6-5.6-5.5-11.1-8.2-16.5l1.6.7c-6.9 1.6-13.7 3.3-20.6 4.7s-13.8 2.6-20.7 3.9l-10.5 1.7-10.6 1.7-21.7 3.5z" class="st6"/>
  <path d="m1267.7 640.7-54.4 103.9-49.5-21.7 36-110.3z" class="st5"/>
  <path d="M1268 640.6c-8.1 17-16.5 34.5-25.5 52.2-4.5 8.8-8.9 17.7-13.7 26.3-4.7 8.8-9.6 17.4-14.4 25.9l-.6 1-.9-.4c-4-1.9-8.1-3.9-12.2-5.8-4-1.9-8.2-3.7-12.4-5.5-4.2-1.7-8.2-3.6-12.4-5.3-4.2-1.7-8.3-3.5-12.5-5.2l-.9-.3.3-.9 8.3-27.8c2.9-9.2 5.6-18.4 8.6-27.6 2.9-9.2 5.8-18.4 8.8-27.6 2.9-9.2 6-18.4 9.1-27.5l.9-2.3 2.3 1 17.1 7.5c5.8 2.4 11.4 5 17 7.5l33.1 14.8zm-.4.1-34.8-13c-5.8-2.2-11.4-4.3-17-6.5l-16.7-6.5 3-1.4c-2.9 9.2-5.8 18.4-8.9 27.6-3 9.2-6.2 18.3-9.2 27.5-3 9.2-6.2 18.3-9.4 27.5l-9.6 27.3-.6-1.3c4 1.9 8.2 3.7 12.2 5.6 4 1.9 8.2 3.6 12.4 5.5 4.2 1.7 8.2 3.6 12.4 5.3 4.2 1.7 8.3 3.5 12.5 5l-1.4.6c4.3-8.8 8.5-17.4 12.8-26 4.3-8.6 8.9-17.1 13.5-25.6 9.1-16.9 18.6-33.9 28.8-51.6z" class="st6"/>
  <path d="m1200.1 612.6-47.8 71.4-34.7-13.1 14.6-86.2z" class="st5"/>
  <path d="m1200.2 612.6-10.8 17.8-5.6 9.1-5.8 9.2c-3.9 6-7.9 12.2-11.9 18.3-4.2 6-8.5 11.9-12.7 17.8l-.7.9-1-.4c-5.8-2.4-11.4-4.7-17.1-7.1l-8.6-3.3-8.6-3.2-.6-.1.1-.6c1.2-7.2 2-14.4 3-21.7 1-7.2 1.9-14.5 3-21.7l3.3-21.6 1.7-10.8 1.7-10.8.4-3 2.9 1.2c11.5 4.9 23.2 9.9 34.4 15 5.6 2.6 11.1 5.2 16.7 7.6l16.2 7.4zm-.4 0-35.1-12.8c-11.4-4.2-22.4-8.5-33.5-13l3.3-1.9-1.9 10.8-1.9 10.8-3.9 21.6c-1.3 7.2-2.7 14.2-4.2 21.4-1.4 7.2-2.9 14.2-4.2 21.4l-.4-.9 8.6 3.3 8.6 3.2c5.8 2 11.7 4 17.6 5.9l-1.6.6c3.7-6 7.3-11.9 11.2-17.8 3.9-5.9 7.9-11.5 11.9-17.4l6.2-8.6 6.3-8.8 13-17.8z" class="st6"/>
  <path d="m1334.9 666.9-47.6 71.2-34.7-12.9 14.4-86.4z" class="st5"/>
  <path d="m1335.1 666.7-10.8 17.8-5.6 9.1-5.8 9.2c-3.9 6-7.9 12.2-11.9 18.3-4.2 6-8.5 11.9-12.7 17.8l-.7.9-1-.4c-5.8-2.4-11.4-4.7-17.1-7.1l-8.6-3.3-8.6-3.2-.6-.1.1-.6c1.2-7.2 2-14.4 3-21.7 1-7.2 1.9-14.5 3-21.7l3.3-21.6 1.7-10.8 1.7-10.8.4-3 2.9 1.2c11.5 4.9 23.2 9.9 34.4 15 5.6 2.6 11.1 5.2 16.7 7.6l16.2 7.4zm-.5.2-35.1-12.8c-11.4-4.2-22.4-8.5-33.5-13l3.3-1.9-1.9 10.8-1.9 10.8-3.9 21.6c-1.3 7.2-2.7 14.2-4.2 21.4-1.4 7.2-2.9 14.2-4.2 21.4l-.4-.9 8.6 3.3 8.6 3.2c5.8 2 11.7 4 17.6 5.9l-1.6.6c3.7-6 7.3-11.9 11.2-17.8 3.9-5.9 7.9-11.5 11.9-17.4l6.2-8.6 6.3-8.8 13-17.8z" class="st6"/>
  <path d="m1772.1 820.4-93.9 19.3-8.5-22.3 80.2-51.9z" class="st5"/>
  <path d="M1772.2 820.6c-14.8 3.6-30.4 7.3-46 10.8-7.9 1.7-15.8 3.5-23.7 5-7.9 1.6-16 2.9-23.9 4.3l-.9.1-.3-.7c-2.3-7.6-5.2-15.1-8.3-22.4l-.3-.6.6-.4 19.7-13.5c6.6-4.5 13.2-8.9 19.9-13.2 6.6-4.3 13.2-8.8 19.9-13.1 6.6-4.3 13.4-8.6 20.1-13l1.9-1.2.7 2 5.3 14.1c1.7 4.7 3.6 9.4 5.2 14.1l10.1 27.7zm-.3-.2-12.2-27.5c-2-4.5-3.9-8.9-5.8-13.4l-5.8-13.4 2.7.9c-6.6 4.3-13.2 8.8-20 13.1-6.6 4.3-13.4 8.5-20.1 12.8-6.8 4.3-13.4 8.5-20.1 12.7l-20.3 12.5.3-1c2.4 7.6 5.3 15.1 8.5 22.3l-1-.6c7.8-1.9 15.4-3.6 23-5.3 7.6-1.7 15.4-3.2 23.2-4.6 15.4-3 31.2-5.7 47.6-8.5z" class="st6"/>
  <path d="m1859.5 1071.5-83-17.1 1.7-18.3 83.5-9.5 8.8 23.9z" class="st5"/>
  <path d="M1859.5 1071.7c-6.8-1.2-13.7-2.3-20.6-3.6-6.9-1.2-13.8-2.6-20.9-3.9-6.9-1.3-14-2.7-21-4.3-7.1-1.6-14-3.2-20.9-4.7l-.7-.1.1-.6c.3-1.6.4-3 .7-4.6.1-1.6.3-3 .6-4.6.3-3 .6-6 .7-9.2v-.4l.6-.1 20.9-2.9c6.9-.9 13.8-1.9 20.9-2.6 6.9-.9 14-1.7 20.9-2.6s14-1.6 20.9-2.3l1.2-.1.4 1 8.3 23.9.1.4-.3.4-5.9 10.5-6 10.4zm-.1-.3 5-10.9 5-10.5v.9l-9.1-23.7 1.4.9c-6.9.9-14 1.7-20.9 2.4-6.9.9-14 1.4-20.9 2.2-6.9.7-14 1.4-20.9 2.2l-20.9 1.9.6-.6c-.4 3-.7 6-1.2 9.1-.1 1.6-.3 3-.4 4.6-.1 1.6-.1 3-.3 4.6l-.6-.7c6.9 1.3 13.8 2.4 20.7 3.7 6.9 1.3 13.7 2.7 20.6 4.3 6.9 1.4 13.7 3 20.7 4.6 7.2 1.7 14.1 3.2 21.2 5z" class="st6"/>
  <path d="m399 426.4 46.4 71.1-14.3 11.5-65.6-52.5 10.8-22.9z" class="st5"/>
  <path d="M399 426.3c4 5.6 7.9 11.4 11.9 17.1s7.9 11.7 11.9 17.6c4 5.9 7.9 11.8 11.8 17.8 3.9 6 7.5 12.1 11.2 18.1l.3.6-.4.3c-1.3.9-2.4 1.9-3.7 2.7-1.3.9-2.4 1.9-3.6 2.9-2.3 2-4.7 3.9-7.1 5.9l-.4.3-.4-.3-16.7-12.8c-5.5-4.3-11.1-8.6-16.5-13-5.5-4.3-11.1-8.6-16.4-13-5.5-4.3-10.9-8.8-16.3-13.2l-.9-.7.4-1 11.1-22.9.3-.4.4-.1 11.7-3.2 11.4-2.7zm-.1.3-11.2 4-10.9 3.9.6-.6-10.5 23.2-.4-1.7c5.5 4.3 10.9 8.6 16.4 13.1 5.5 4.3 10.8 8.8 16.3 13.2 5.5 4.5 10.8 8.9 16.3 13.4l16.1 13.5h-.9c2.4-1.9 4.9-3.7 7.2-5.6 1.2-1 2.3-1.9 3.5-3 1.2-1 2.3-2 3.5-3l-.1.9c-4-5.8-7.9-11.5-11.9-17.3-3.9-5.8-7.6-11.7-11.4-17.6-3.7-5.9-7.5-11.8-11.2-18-3.9-6-7.7-12.1-11.4-18.4z" class="st6"/>
  <path d="m1827.3 957.7-88.8 19.4-6.5-17.2 78.3-44.5z" class="st5"/>
  <path d="M1827.4 957.8c-7.1 1.7-14.4 3.6-21.6 5.3-7.3 1.7-14.7 3.5-22.2 5.2-7.5 1.7-14.8 3.5-22.4 5-7.5 1.6-15.1 3-22.4 4.5l-.6.1-.1-.6c-.4-1.4-.9-2.9-1.4-4.3-.4-1.4-1-2.9-1.6-4.3-1.2-2.9-2.2-5.8-3.5-8.5l-.1-.4.4-.3 19.3-11.5c6.5-3.7 13-7.6 19.4-11.4l19.4-11.2c6.5-3.7 13.1-7.3 19.6-11.1l1.4-.9.6 1.4 4.2 10.9c1.3 3.6 2.7 7.2 4 10.8l7.6 21.3zm-.2-.1-9.4-21.2c-1.6-3.5-3-6.9-4.5-10.4L1809 916l2 .7c-6.5 3.7-13 7.5-19.4 11.2l-19.6 10.9c-6.5 3.6-13.1 7.3-19.7 10.9l-19.7 10.8.3-.7c.9 2.9 2 5.8 3 8.6.6 1.4 1.2 2.9 1.7 4.3.6 1.4 1.2 2.9 1.9 4.2l-.9-.4c7.3-1.7 14.5-3.6 21.9-5.2 7.2-1.7 14.5-3.2 22-4.7 7.3-1.6 14.7-3 22.2-4.5l22.5-4.4z" class="st6"/>
  <path d="m1750 765.6-68.2 12.7-12.1-27.4 58.2-40.4z" class="st5"/>
  <path d="m1750.2 765.6-16.4 3.7c-5.6 1.3-11.2 2.4-17 3.7-5.8 1.2-11.5 2.3-17.3 3.5-5.8 1-11.7 1.9-17.4 2.7l-.9.1-.3-.7c-1.9-4.6-3.6-9.4-5.6-14-1.9-4.6-3.9-9.2-6-13.7l-.1-.4.4-.3c4.7-3.5 9.5-6.9 14.2-10.5s9.5-7.1 14.2-10.5l14.4-10.4c4.7-3.5 9.6-6.8 14.4-10.2l2-1.4.9 2.3c1.9 4.7 3.7 9.5 5.5 14.2l5.2 14.1c1.7 4.7 3.3 9.4 5 14l4.8 13.8zm-.5-.1-6.3-14c-2-4.6-4.2-9.1-6-13.5l-5.9-13.4c-1.9-4.5-3.7-8.9-5.6-13.4l2.9.9c-4.9 3.3-9.6 6.8-14.5 9.9l-14.7 9.9c-4.9 3.3-9.8 6.5-14.8 9.6-4.9 3.2-9.9 6.3-14.8 9.6l.1-.7c2 4.6 3.9 9.2 6 13.7 2 4.6 4.3 9.1 6.5 13.5l-1.2-.6c5.6-1.3 11.1-2.6 16.5-3.6 5.6-1 11.1-2 16.7-2.9 5.6-.9 11.4-1.7 17.1-2.6l18-2.4z" class="st6"/>
  <path d="m1794.8 874.1-68.2 12.7-12-27.4 58-40.3z" class="st5"/>
  <path d="m1794.9 874.1-16.4 3.7c-5.6 1.3-11.2 2.4-17 3.7-5.8 1.2-11.5 2.3-17.3 3.5-5.8 1-11.7 1.9-17.4 2.7l-.9.1-.3-.7c-1.9-4.6-3.6-9.4-5.6-14-1.9-4.6-3.9-9.2-6-13.7l-.1-.4.4-.3c4.7-3.5 9.5-6.9 14.2-10.5 4.7-3.6 9.5-7.1 14.2-10.5l14.4-10.4c4.7-3.5 9.6-6.8 14.4-10.2l2-1.4.9 2.3c1.9 4.7 3.7 9.5 5.5 14.2l5.2 14.1c1.7 4.7 3.3 9.4 5 14l4.8 13.8zm-.3-.1-6.3-14c-2-4.6-4.2-9.1-6-13.5l-5.9-13.4c-1.9-4.5-3.7-8.9-5.6-13.4l2.9.9c-4.9 3.3-9.6 6.8-14.5 9.9l-14.7 9.9c-4.9 3.3-9.8 6.5-14.8 9.6-4.9 3.2-9.9 6.3-14.8 9.6l.1-.7c2 4.6 3.9 9.2 6 13.7 2 4.6 4.3 9.1 6.5 13.5l-1.2-.6c5.6-1.3 11.1-2.6 16.5-3.6 5.6-1 11.1-2 16.7-2.9 5.6-.9 11.4-1.7 17.1-2.6l18-2.4z" class="st6"/>
  <path d="m204.2 864.6 76.6 48.6-7.5 16.7-86.8-23.3z" class="st5"/>
  <path d="M204.2 864.5c6.3 3.7 12.7 7.5 19.1 11.5 6.5 3.9 13 7.9 19.4 11.8 6.5 4 13 8.1 19.4 12.2s12.8 8.5 19.1 12.7l.6.3-.3.6c-.7 1.3-1.4 2.7-2 4.2-.7 1.4-1.3 2.7-2 4.2-1.2 2.9-2.4 5.6-3.6 8.5l-.1.4-.6-.1-21.9-5.5c-7.2-1.9-14.5-3.7-21.7-5.6l-21.7-5.8c-7.2-1.9-14.5-3.9-21.7-5.9l-1.6-.4.7-1.4 4.7-10.6c1.6-3.5 3.2-7.1 4.7-10.5l9.5-20.6zm0 .2-8.2 21.6c-1.3 3.6-2.7 7.1-4 10.5l-4.2 10.4-.9-1.9c7.2 1.9 14.5 3.7 21.7 5.8l21.7 6 21.6 6 21.6 6.3-.7.3c1.4-2.7 2.6-5.5 3.9-8.3.6-1.4 1.3-2.7 1.9-4.2.6-1.4 1.2-2.9 1.7-4.3l.3.9c-6.5-3.9-12.8-7.8-19.1-11.7-6.3-3.9-12.7-8.1-18.8-12.1-6.3-4.2-12.5-8.2-18.8-12.5l-19.7-12.8z" class="st6"/>
  <path d="m322.5 577.2 76.7 48.8-7.6 16.7-86.8-23.4z" class="st5"/>
  <path d="M322.5 577.1c6.3 3.7 12.7 7.5 19.1 11.5 6.5 3.9 13 7.9 19.4 11.8 6.5 4 13 8.1 19.4 12.2s12.8 8.5 19.1 12.7l.6.3-.3.6c-.7 1.3-1.4 2.7-2 4.2-.7 1.4-1.3 2.7-2 4.2-1.2 2.9-2.4 5.6-3.6 8.5l-.1.4-.6-.1-21.9-5.3c-7.2-1.9-14.5-3.7-21.7-5.6l-21.7-5.8c-7.2-1.9-14.5-3.9-21.7-5.9l-1.6-.4.7-1.4 4.7-10.6c1.6-3.5 3.2-7.1 4.7-10.5l9.5-20.8zm0 .3-8.2 21.6c-1.3 3.6-2.7 7.1-4 10.5l-4.2 10.4-.9-1.9c7.2 1.9 14.5 3.7 21.7 5.8l21.7 6 21.6 6 21.6 6.3-.7.3c1.4-2.7 2.6-5.5 3.9-8.3.6-1.4 1.3-2.7 1.9-4.2.6-1.4 1.2-2.9 1.7-4.3l.3.9c-6.5-3.9-12.8-7.8-19.1-11.7-6.3-3.9-12.7-8.1-18.8-12.1-6.3-4.2-12.5-8.2-18.8-12.5l-19.7-12.8z" class="st6"/>
  <path d="m242.1 768.2 57.4 39-10.8 27.9-69.7-12.2z" class="st5"/>
  <path d="m242.1 768 14.2 8.8c4.9 3 9.8 6.2 14.7 9.4 4.9 3.2 9.8 6.5 14.7 9.8s9.6 6.9 14.4 10.4l.7.6-.3.7c-2 4.6-4 9.2-5.8 13.8-1.9 4.6-3.6 9.2-5.3 14l-.1.4-.4-.1c-5.8-1-11.7-1.7-17.6-2.6-5.9-.9-11.7-1.7-17.6-2.6l-17.4-2.7c-5.8-.9-11.7-1.9-17.4-2.9l-2.4-.4 1-2.3c2-4.6 4-9.4 6-14l6.2-13.7c2-4.6 4.2-8.9 6.3-13.4l6.1-13.2zm.1.3-5.3 14.2c-1.7 4.6-3.5 9.4-5.2 14l-5.2 13.7c-1.7 4.5-3.6 8.9-5.5 13.4l-1.4-2.7c5.8 1 11.7 2 17.4 3.2l17.4 3.3c5.8 1.2 11.5 2.3 17.3 3.6 5.8 1.2 11.5 2.4 17.3 3.6l-.7.4c1.9-4.6 3.6-9.4 5.3-14 1.7-4.7 3.3-9.4 4.9-14.1l.4 1.3c-4.9-3-9.6-6-14.4-9.2-4.7-3.2-9.4-6.5-14-9.8s-9.4-6.8-14-10.2l-14.3-10.7z" class="st6"/>
  <path d="m1139.4 1529.2-16.7-84.1 33.6-15.4 50.8 71.3z" class="st5"/>
  <path d="m1139.2 1529.4-4.9-20.1-2.4-10.4-2.4-10.5c-1.6-7.1-3.2-14.2-4.5-21.4-1.4-7.2-2.4-14.4-3.7-21.6l-.1-1.2 1-.4c5.8-2.3 11.5-4.6 17.1-7.1l8.5-3.7 8.3-3.9.6-.3.4.4c4.3 5.9 8.8 11.7 13.2 17.4 4.5 5.8 8.9 11.5 13.2 17.4l13 17.7 6.5 8.8 6.3 8.9 1.7 2.4-2.9 1.2c-11.7 4.7-23.3 9.4-35 13.7-5.8 2.2-11.5 4.2-17.1 6.3l-16.8 6.4zm.3-.5 33.8-15.7c11.1-5 21.9-9.9 32.8-14.5l-1 3.6-6.3-8.9-6.2-8.9-12.4-18c-4.2-6-8.2-12.1-12.2-18.1-4-6-8.1-12.2-12.2-18.1l.9.3-8.5 3.7-8.3 3.9c-5.6 2.6-11.1 5.5-16.5 8.2l.7-1.6c1.6 6.9 3.3 13.7 4.7 20.6 1.4 6.9 2.6 13.8 3.9 20.7l1.7 10.5 1.7 10.6 3.4 21.7z" class="st6"/>
  <path d="m642.9 453.9-78 31.3-111-81.2 76.7-31.9zM784.7 557.4 708 589.3l-114.9-83.6 77.5-31.5zM857.8 610.8l637.5 465-27.7 67.8L1151 912.7l-15.4-11.4-354.5-258.6z" class="st22"/>
  <path d="m1709.5 647.6-429.6-311.8 7.5-16.8-8.6-21.8 408.9 298.5z" style="opacity:.58;fill:#fff;enable-background:new"/>
  <path d="m271.8 1013.1-18.5 45.2 17.7 42-117.7-80.7 27.7-67.7zM485.1 1231.4l-176.6-103.6-29-69.7 12.5-30.3 146.3 93.4zM1014.5 1554.8l-13.1 5.5-228.8-93.9L619.9 1355l-52.8-126.6zM1198.9 1689.4c-15.4 6.8-58.4 25.3-75.8 32.7l-112.2-81.9 76.7-32.1 111.3 81.3zM1341.7 1793.6l-76.7 31.9-108.4-79 74.8-33.4zM386.8 724.9l-27.5 67.9-92.4-75 27.8-67.6zM511.4 815.8l-27.9 67.6-98.7-72 27.5-68zM809.3 1105l9.6 23.1-24.7-18L548 930.5l27.7-67.8 225.5 164.5-12.1 29.5z" class="st24"/>
  <path d="m908.7 1105.2-61.6 43-52.5-38.3 83.3-27.3zM1338.8 1419.4l-76.7 32-256.1-186.8 76.8-32.1z" class="st24"/>
  <path d="m1654.9 1196.1-24.6 59.9-83.9-60 24.6-59.9zM1771.2 1275.4l-24.6 60-84.1-60 24.7-60z" class="st22"/>
  <path d="m1779.5 1263.3 135.6 188.1-37.1 228.9-188.3 135.6-228.9-37.2-135.5-188.2 37.1-228.9 188.2-135.5z" class="st12"/>
  <path d="M1779.7 1262.9c11.5 15.3 23 30.8 34.5 46.2l34.7 46.5 34.5 46.8 34.4 47.1.9 1.2-.3 1.4-8.9 57.3-9.1 57.3c-3 19.1-6.2 38.1-9.2 57.3-3 19.1-6.3 38.1-9.5 57.1l-.3 1.6-1.3.9-94.8 66.8-47.5 33.4-47.2 33.5-.4.3-.6-.1-57.3-9.4-57.3-9.1-28.6-4.5-28.6-4.5-57.3-8.8-1-.1-.6-.9-34.4-46.6-17.1-23.3-17.1-23.5-34.2-46.8-34.1-47-1-1.4.3-1.7 18.1-114.5 9.2-57.3 9.4-57.3.3-2 1.6-1.2 94.4-67.5 94.5-67.1 1.3-.9 1.4.3c38.3 6.5 76.6 13.4 114.7 20l57.1 10.1 56.4 10.4zm-.5.7-57.7-8.3-57.4-8.5c-38.1-5.8-76.3-11.4-114.3-17.3l2.6-.6-93.5 68.5-93.8 68.2 2-3.2-9.4 57.3-9.4 57.3-19 114.4-.7-3.2 33.7 47.2 33.5 47.3 16.8 23.6 16.7 23.7 33.4 47.3-1.6-1 57.1 9.8 28.6 4.9 28.6 4.7 57.3 9.5 57.3 9.2-1.2.3 46.8-34.2 46.6-34.4 93.4-68.8-1.6 2.4c3-19.1 5.9-38.1 9.1-57.3 3-19.1 6.2-38.1 9.4-57.3l9.5-57.3 9.6-57.1.6 2.6-33.4-47.1-33.2-47.3-33.2-47.6c-11-15.7-22.1-31.6-33.2-47.7z" class="st13"/>
  <path d="m1474.6 1756.4-123.9-171.8 34-209.2 171.9-123.9 209.1 34 123.9 171.9-33.9 209.1-172 123.9z" class="st14"/>
  <path d="m1487.6 1735.6-113-156.7 31-190.5 156.7-113 190.6 30.9 112.8 156.7-30.9 190.7-156.7 112.8z" class="st0"/>
  <path d="m1744.3 1319.7 106 146.8-28.7 178.7-146.8 105.9-178.7-28.8-106.1-146.7 28.8-178.7 146.8-106.1z" class="st3"/>
  <path d="m1548.4 1637.4-61.3-84.9 16.6-103.3 84.9-61.3 103.4 16.7 61.3 84.8-16.6 103.4-84.9 61.3z" class="st15"/>
  <path d="m1692 1404.6 52.3-84.9 106 146.8-97 22.9z" class="st16"/>
  <path d="m1390 1575.6 97.1-23.1 61.3 84.9-52.3 84.9z" class="st17"/>
  <path d="m1651.8 1654.1-103.4-16.7-52.3 84.9 178.7 28.8z" class="st18"/>
  <path d="m1565.6 1290.8 23 97.1 103.4 16.7 52.3-84.9z" class="st15"/>
  <path d="M1588.6 1387.9c8.6 1 17.3 2.3 25.9 3.5 8.6 1.2 17.3 2.3 25.9 3.6l25.9 3.7 25.9 3.9.9.1.6.7 15.4 21.2 15.4 21.2c10.2 14.2 20.4 28.3 30.5 42.6l.4.7-.1.9c-2.9 17.3-5.9 34.4-9.1 51.5-1.6 8.6-3.2 17.1-4.7 25.8-1.6 8.6-3.2 17.1-4.9 25.8 1-8.6 2.3-17.3 3.5-25.9 1.2-8.6 2.3-17.3 3.6-25.9 2.4-17.3 5-34.5 7.6-51.8l.4 1.6c-10.4-14.1-20.6-28.2-30.8-42.3l-15.3-21.3-15.3-21.3 1.3.9-25.8-4.5-25.8-4.6c-8.6-1.6-17.1-3.2-25.8-4.7-8.5-2.1-17-3.6-25.6-5.4z" class="st19"/>
  <path d="M1651.8 1654.1c-8.6-1-17.3-2.3-25.9-3.5-8.6-1.2-17.3-2.3-25.9-3.6l-25.9-3.7-25.9-3.9-.9-.1-.6-.7-15.4-21.2-15.4-21.2c-10.2-14.2-20.4-28.3-30.5-42.6l-.4-.7.1-.9c2.9-17.3 5.9-34.4 9.1-51.5 1.6-8.6 3.2-17.1 4.7-25.8 1.6-8.6 3.2-17.1 4.9-25.8-1 8.6-2.3 17.3-3.5 25.9-1.2 8.6-2.3 17.3-3.6 25.9-2.4 17.3-5 34.5-7.6 51.8l-.3-1.6c10.4 14.1 20.6 28.2 30.8 42.3l15.3 21.3 15.3 21.3-1.3-.9 25.8 4.5 25.8 4.6c8.6 1.6 17.1 3.2 25.8 4.7 8.3 2.1 16.8 3.7 25.5 5.4z" class="st20"/>
  <path d="m1744.3 1319.7 106 146.8-28.7 178.7-146.8 105.9-178.7-28.8-106.1-146.7 28.8-178.7 146.8-106.1z" class="st21"/>
  <path d="m1621.5 462.3-68.3 49.9-12.4-13.5 48.9-68.2 23.6 9.5z" class="st5"/>
  <path d="M1621.7 462.3c-5.3 4.3-10.9 8.6-16.4 12.8-5.5 4.3-11.2 8.5-17 12.8-5.6 4.3-11.4 8.5-17.3 12.7-5.9 4.2-11.7 8.2-17.6 12.2l-.6.4-.4-.4c-1-1.2-1.9-2.4-2.9-3.6-1-1.2-2-2.3-3-3.5-2.2-2.2-4.2-4.5-6.3-6.6l-.3-.3.3-.4 11.9-17.3c4-5.8 8.1-11.5 12.1-17.3s8.1-11.5 12.1-17.1c4-5.8 8.2-11.4 12.4-17l.7-.9 1 .4 23.3 9.9.4.1.1.4 3.9 11.5 3.6 11.2zm-.3-.2-4.7-11.1-4.5-10.8.6.6-23.6-9.2 1.7-.4c-4 5.8-8.1 11.4-12.2 17.1-4 5.8-8.2 11.4-12.4 17-4.2 5.6-8.3 11.2-12.5 16.8l-12.7 16.8v-.9c1.9 2.4 4 4.6 6 6.9 1 1.2 2 2.3 3.2 3.3 1 1.2 2.2 2.2 3.2 3.3l-.9-.1c5.6-4.3 11.1-8.6 16.7-12.8 5.6-4.2 11.2-8.3 17-12.4 5.8-4 11.4-8.2 17.3-12.2 6-3.7 11.9-7.8 17.8-11.9z" class="st6"/>
  <path d="m1709 670.5-88.6 19.3-6.5-17.2 78.1-44.4z" class="st5"/>
  <path d="M1709.2 670.5c-7.1 1.7-14.4 3.6-21.6 5.3-7.3 1.7-14.7 3.5-22.2 5.2-7.5 1.7-14.8 3.5-22.4 5-7.5 1.6-15.1 3-22.4 4.5l-.6.1-.1-.6c-.4-1.4-.9-2.9-1.4-4.3-.4-1.4-1-2.9-1.6-4.3-1.2-2.9-2.2-5.8-3.5-8.5l-.1-.4.4-.3 19.3-11.5c6.5-3.7 13-7.6 19.4-11.4l19.4-11.2c6.5-3.7 13.1-7.3 19.6-11.1l1.4-.9.6 1.4 4.2 10.9c1.3 3.6 2.7 7.2 4 10.8l7.6 21.3zm-.3-.2-9.4-21.2c-1.6-3.5-3-6.9-4.5-10.4l-4.3-10.2 2 .7c-6.5 3.7-13 7.5-19.4 11.2l-19.6 10.9c-6.5 3.6-13.1 7.3-19.7 10.9l-19.7 10.8.3-.7c.9 2.9 2 5.8 3 8.6.6 1.4 1.2 2.9 1.7 4.3.6 1.4 1.2 2.9 1.9 4.2l-.9-.4c7.3-1.7 14.5-3.6 21.9-5.2 7.2-1.7 14.5-3.2 22-4.7 7.3-1.6 14.7-3 22.2-4.5l22.5-4.3z" class="st6"/>
  <path d="m546.5 1229.4 84.2-16.7 15.3 33.6-71.3 50.8z" class="st5"/>
  <path d="m546.4 1229.2 20.1-4.9 10.4-2.4 10.5-2.4c7.1-1.6 14.2-3.2 21.4-4.5 7.2-1.4 14.4-2.6 21.6-3.7l1.2-.1.4 1c2.3 5.8 4.6 11.5 7.1 17.1l3.7 8.5 3.9 8.3.3.6-.4.4c-5.9 4.3-11.7 8.8-17.4 13.2s-11.5 8.9-17.4 13.2l-17.7 13-8.8 6.5-8.9 6.3-2.4 1.7-1.2-2.9c-4.7-11.7-9.4-23.3-13.7-35-2.2-5.8-4.2-11.5-6.3-17.1l-6.4-16.8zm.3.3 15.7 33.8c5 11.1 9.9 21.9 14.5 32.8l-3.6-1 8.9-6.3 8.9-6.2 18-12.5c6-4.2 12.1-8.2 18.1-12.2 6-4 12.2-8.1 18.1-12.2l-.3.9-3.7-8.5-3.9-8.3c-2.6-5.6-5.5-11.1-8.2-16.5l1.6.7c-6.9 1.6-13.7 3.3-20.6 4.7-6.9 1.4-13.8 2.6-20.7 3.9l-10.5 1.7-10.6 1.7-21.7 3.5z" class="st6"/>
  <path d="m1205.4 1500.2-35.1-112 50.4-19.5 52.5 103.3z" class="st5"/>
  <path d="M1205.3 1500.5c-6.3-17.7-12.7-36.1-18.8-55-3-9.4-6.2-18.8-8.9-28.3-2.9-9.5-5.5-19.1-8.2-28.6l-.3-1 1-.3c4.2-1.4 8.5-3 12.7-4.6s8.3-3.2 12.7-4.7c4.2-1.7 8.3-3.3 12.5-5 4.2-1.7 8.3-3.5 12.5-5.2l.9-.3.4.9 13.8 25.5c4.6 8.5 9.1 17.1 13.5 25.6 4.5 8.6 8.9 17.1 13.4 25.8 4.5 8.6 8.6 17.3 13 25.9l1.2 2.3-2.3.9-17.4 6.9c-5.8 2.3-11.7 4.6-17.4 6.8l-34.3 12.4zm.1-.5 33.8-15.5c5.5-2.6 11.1-4.9 16.5-7.3l16.4-7.2-1.2 3.2c-4.5-8.6-8.9-17.1-13.2-25.8-4.3-8.6-8.6-17.3-13-25.9-4.3-8.6-8.5-17.4-12.8-26l-12.5-26.2 1.3.4c-4.2 1.6-8.5 3-12.7 4.6-4.2 1.6-8.3 3.2-12.5 4.9-4.2 1.7-8.3 3.3-12.5 5-4.2 1.7-8.3 3.5-12.4 5.2l.7-1.4c3.2 9.2 6.3 18.3 9.4 27.3 3 9.1 5.8 18.4 8.5 27.6 5.7 18.6 10.9 37.6 16.2 57.1z" class="st6"/>
  <path d="m1273 1472.1-16.7-84.2 33.7-15.2 50.8 71.2z" class="st5"/>
  <path d="m1272.9 1472.4-4.9-20.1-2.4-10.4-2.4-10.5c-1.6-7.1-3.2-14.2-4.5-21.4-1.4-7.2-2.4-14.4-3.7-21.6l-.1-1.2 1-.4c5.8-2.3 11.5-4.6 17.1-7.1l8.5-3.7 8.3-3.9.6-.3.4.4c4.3 5.9 8.8 11.7 13.2 17.4 4.5 5.8 8.9 11.5 13.2 17.4l13 17.7 6.5 8.8 6.3 8.9 1.7 2.4-2.9 1.2c-11.7 4.7-23.3 9.4-35 13.7-5.8 2.2-11.5 4.2-17.1 6.3l-16.8 6.4zm.3-.4 33.8-15.7c11.1-5 21.9-9.9 32.8-14.5l-1 3.6-6.3-8.9-6.2-8.9-12.4-18c-4.2-6-8.2-12.1-12.2-18.1s-8.1-12.2-12.2-18.1l.9.3-8.5 3.7-8.3 3.9c-5.6 2.6-11.1 5.5-16.5 8.2l.7-1.6c1.6 6.9 3.3 13.7 4.7 20.6 1.4 6.9 2.6 13.8 3.9 20.7l1.7 10.5 1.7 10.6 3.4 21.7z" class="st6"/>
  <path d="m701.1 1803.6 53.3-79.5 21.8 10-20.7 93.1z" class="st5"/>
  <path d="M700.9 1803.6c8.1-13.1 16.5-26.5 25.3-40 4.5-6.8 8.8-13.5 13.4-20.1s9.4-13.2 14-19.9l.4-.7.7.3c7.1 3.7 14.2 7.1 21.6 10.1l.6.3-.1.7-4.6 23.5c-1.6 7.8-3.2 15.5-4.9 23.3-1.7 7.8-3.3 15.5-5 23.3-1.7 7.8-3.5 15.5-5.3 23.3l-.6 2.2-2-.9-13.8-6.3c-4.6-2.2-9.2-4.2-13.7-6.3l-26-12.8zm.3-.1 27.9 11.1c4.6 1.7 9.1 3.6 13.5 5.5l13.4 5.5-2.6 1.3c1.7-7.8 3.3-15.5 5-23.3 1.7-7.8 3.6-15.5 5.3-23.3 1.7-7.8 3.6-15.5 5.5-23.2l5.8-23.2.4.9c-7.1-3.7-14.2-7.1-21.7-9.9l1.2-.3c-4.2 6.8-8.3 13.4-12.7 20-4.3 6.6-8.8 13.1-13.2 19.6-8.7 12.8-18 25.9-27.8 39.3z" class="st6"/>
  <path d="m851.1 1866.5 49.7-76 16.7 7.8-24.6 86.5z" class="st5"/>
  <path d="M851 1866.5c3.9-6.2 7.8-12.5 11.7-19 3.9-6.3 8.1-12.8 12.1-19.3s8.2-13 12.5-19.3c4.3-6.3 8.6-12.7 13-19l.4-.6.6.3c1.3.7 2.7 1.4 4 2.2 1.3.7 2.7 1.3 4.2 2 2.9 1.3 5.6 2.6 8.5 3.6l.4.1-.1.6-5.8 21.7c-1.9 7.2-3.9 14.5-5.9 21.7l-6 21.7c-2 7.2-4.2 14.4-6.2 21.6l-.4 1.6-1.4-.7-10.6-4.9c-3.5-1.6-7.1-3.3-10.5-4.9l-20.5-9.4zm.3-.1 21.4 8.5c3.6 1.4 6.9 2.9 10.4 4.2l10.4 4.3-1.9.9 6-21.6 6.3-21.6c2.2-7.2 4.2-14.4 6.3-21.6l6.6-21.4.3.7c-2.7-1.4-5.5-2.7-8.2-4-1.4-.6-2.7-1.3-4.2-1.9s-2.9-1.2-4.3-1.7l.9-.3c-4 6.3-7.9 12.8-11.9 19-4 6.3-8.2 12.5-12.4 18.7-4.2 6.2-8.3 12.5-12.7 18.7l-13 19.1z" class="st6"/>
  <path d="m755.3 1827.4 39.7-56.9 27.8 11.1-13.1 69.4z" class="st5"/>
  <path d="m755.2 1827.4 9.1-14.2c3-4.7 6.3-9.6 9.5-14.5 3.3-4.9 6.5-9.8 9.9-14.5 3.5-4.9 7.1-9.5 10.5-14.2l.6-.7.7.3c4.6 2 9.1 4 13.7 6 4.6 1.9 9.2 3.7 13.8 5.6l.4.1-.1.4c-1 5.8-1.9 11.7-2.9 17.4-.9 5.9-1.9 11.7-2.7 17.4l-3 17.4c-1 5.8-2 11.7-3.2 17.4l-.4 2.4-2.3-1c-4.6-2-9.2-4.2-13.8-6.3l-13.7-6.5c-4.6-2.2-8.9-4.3-13.4-6.5l-12.7-6zm.3-.2 14.2 5.6c4.6 1.9 9.4 3.6 13.8 5.5l13.5 5.5c4.5 1.9 8.9 3.7 13.4 5.6l-2.7 1.4c1.2-5.8 2.2-11.5 3.5-17.3l3.6-17.3c1.2-5.8 2.4-11.5 3.7-17.3 1.3-5.8 2.6-11.5 3.7-17.3l.4.7c-4.6-1.9-9.2-3.7-14-5.5-4.6-1.7-9.4-3.5-14.1-5l1.3-.4c-3.2 4.7-6.2 9.5-9.4 14.2-3.2 4.6-6.6 9.2-9.9 13.8-3.5 4.6-6.8 9.2-10.4 13.8l-10.6 14z" class="st6"/>
  <path d="m983.1 1927.1 12.8-83.8 18.3.8 13.9 82.9-23.4 9.9z" class="st5"/>
  <path d="M982.9 1927.1c.7-6.8 1.6-13.8 2.4-20.7.9-6.9 1.9-14 2.9-21 1-7.1 2-14.1 3.2-21.2 1.2-7.1 2.4-14.1 3.7-21l.1-.7h.6c1.6.1 3 .3 4.6.4 1.6.1 3 .1 4.6.3 3 0 6.2.3 9.2.1h.4l.1.6 3.9 20.6c1.3 6.9 2.6 13.8 3.7 20.7l3.6 20.7c1.2 6.9 2.3 13.8 3.5 20.7l.1 1.2-1 .4-23.5 9.6-.4.1-.4-.1-10.8-5.3-10.5-5.4zm.3-.1 11.1 4.5 10.8 4.5h-.9l23.2-10.2-.9 1.6-3.6-20.7c-1.2-6.9-2.2-13.8-3.3-20.7s-2.2-13.8-3.2-20.7l-3-20.7.6.6c-3-.3-6-.4-9.2-.6-1.6 0-3-.1-4.6-.1h-4.6l.7-.6c-.9 6.9-1.7 14-2.7 20.9-.9 6.9-2 13.8-3.2 20.7s-2.3 13.8-3.6 20.9c-.8 6.4-2.1 13.5-3.6 20.6z" class="st6"/>
  <path d="m265.1 713.7 80.1 52.3-9.6 21.8-93.5-19.5z" class="st5"/>
  <path d="M265.1 713.5c13.1 7.9 26.8 16.1 40.3 24.7 6.8 4.3 13.7 8.6 20.4 13.2 6.8 4.6 13.4 9.2 20 13.8l.7.4-.3.7c-3.7 7.1-6.9 14.4-9.8 21.7l-.3.6-.7-.1-23.5-4.3c-7.8-1.4-15.7-3-23.5-4.6-7.8-1.6-15.5-3-23.5-4.6-7.8-1.6-15.5-3.3-23.3-5l-2.2-.4.9-2 6.2-13.8c2-4.6 4-9.2 6.2-13.7l12.4-26.6zm.1.3-10.6 28.1c-1.7 4.6-3.6 9.1-5.3 13.7l-5.3 13.5-1.3-2.4c7.8 1.6 15.5 3.2 23.3 4.7 7.8 1.6 15.5 3.3 23.3 5 7.8 1.7 15.5 3.5 23.3 5.2l23.2 5.5-.9.4c3.6-7.1 6.9-14.4 9.6-21.9l.3 1.2c-6.8-4.2-13.5-8.2-20.1-12.4-6.6-4.2-13.1-8.6-19.7-13-13.2-8.9-26.3-18-39.8-27.6z" class="st6"/>
  <path d="m286.7 659.6 57.4 38.9-10.8 28-69.7-12.3z" class="st5"/>
  <path d="m286.7 659.4 14.2 8.8c4.9 3 9.8 6.2 14.7 9.4 4.9 3.2 9.8 6.5 14.7 9.8 4.9 3.3 9.6 6.9 14.4 10.4l.7.6-.3.7c-2 4.6-4 9.2-5.8 13.8-1.9 4.6-3.6 9.2-5.3 14l-.3.4-.4-.1c-5.8-1-11.7-1.7-17.6-2.6-5.9-.9-11.7-1.7-17.6-2.6l-17.4-2.7c-5.8-.9-11.7-1.9-17.4-2.9l-2.4-.4 1-2.3c2-4.6 4-9.4 6-14l6.2-13.7c2-4.6 4.2-8.9 6.3-13.4l6.3-13.2zm.1.3-5.3 14.2c-1.7 4.6-3.5 9.4-5.2 14l-5.2 13.7c-1.7 4.5-3.6 8.9-5.5 13.4l-1.4-2.7c5.8 1 11.7 2 17.4 3.2l17.4 3.3c5.8 1.2 11.5 2.3 17.3 3.6 5.8 1.2 11.5 2.4 17.3 3.6l-.7.4c1.9-4.6 3.6-9.4 5.3-14 1.7-4.7 3.3-9.4 4.9-14.1l.4 1.3c-4.9-3-9.6-6-14.4-9.2s-9.4-6.5-14-9.8c-4.6-3.3-9.4-6.8-14-10.2l-14.3-10.7z" class="st6"/>
  <path d="m138.4 1035.5 84.1 10.7-.5 18.4-82.4 15.8-10.5-23z" class="st5"/>
  <path d="M138.3 1035.4c6.9.6 13.8 1.3 20.7 2 7.1.7 14.1 1.4 21.2 2.3 7.1.9 14.1 1.6 21.2 2.6s14.1 2.2 21.2 3.2l.7.1v.6c-.1 1.6-.3 3-.3 4.6-.1 1.6-.1 3-.1 4.6 0 3-.1 6.2 0 9.2v.4l-.6.1-20.6 4.5c-6.9 1.4-13.7 2.9-20.6 4.2-6.9 1.4-13.7 2.7-20.6 4.2-6.9 1.3-13.8 2.6-20.6 3.9l-1.2.1-.4-1-10.2-23.2-.1-.4.1-.4 5.2-10.9 5-10.7zm.1.3-4.2 11.2-4.2 10.9v-.9l10.8 22.9-1.6-.9c6.9-1.4 13.7-2.7 20.6-4 6.9-1.3 13.8-2.6 20.6-3.9 6.9-1.3 13.8-2.4 20.7-3.7l20.7-3.5-.6.6c.3-3 .3-6.2.4-9.2v-4.6c0-1.6 0-3-.1-4.6l.6.7c-7.1-.7-14-1.4-20.9-2.2s-13.8-1.7-20.9-2.7c-6.9-1-14-1.9-21-3-6.6-.8-13.7-2-20.9-3.1z" class="st6"/>
</svg>
