<svg xmlns="http://www.w3.org/2000/svg" xml:space="preserve" id="Layer_1" x="0" y="0" style="enable-background:new 0 0 2000 2000" version="1.1" viewBox="0 0 2000 2000">
  <style>
    .st0{fill:#bc6f5c;stroke:#83413d;stroke-width:10.4986;stroke-miterlimit:10}.st1{fill:#d37b6a}.st2{fill:#f7d95c}.st3{fill:#fcf494}.st4{fill:#e59588}.st5{fill:#f3b75e}.st6{fill:#a57955}.st7{opacity:.39;fill:#753c33}.st8{fill:#85413b}.st9{fill:#83413d}.st18{fill:#f9e073}.st19{fill:#f8e9ab}.st20{fill:#e2c547}.st21{fill:#eed057}.st22{fill:#fff2bc}.st23{fill:#ddc043}.st24{fill:none;stroke:#ddc043;stroke-width:3.1496;stroke-miterlimit:10}.st42{fill:#f7c6ae}.st43{fill:#f79b82}.st57{fill:#bc6f5c}.st58{fill:#944e42}.st59{fill:#994e44}
  </style>
  <path d="M678.9 1274.9 569.6 1013l107.9-262.5 261.9-109.3L1202 749l109.3 261.9-107.9 262.5-261.9 109.3-262.6-107.8zm172.2-351.8-36.7 89.2 37.2 89 89.2 36.7 89-37.2 36.7-89.2-37.2-89-89.2-36.6-89 37.1z" class="st0"/>
  <path d="M693.4 1260.4 590 1012.9l102-248 247.5-103.3 248.1 101.9 103.3 247.5-101.9 248.1-247.5 103.3-248.1-102zm143.2-351.7L794 1012.4l43.2 103.5 103.7 42.6 103.5-43.2 42.6-103.7-43.2-103.5L940 865.5l-103.4 43.2z" class="st1"/>
  <path d="m942.2 1657-456.6-187.7-190.2-455.6 187.7-456.6L938.7 367l456.6 187.7 190.2 455.6-187.7 456.6L942.2 1657zm-265.9-379.5 265.1 109 264.5-110.4 109-265.1-110.4-264.5-265.1-109-264.5 110.4-109 265.1 110.4 264.5z" class="st0"/>
  <path d="m509.7 1445.1-180.1-431.5 177.7-432.5L938.8 401l432.5 177.7 180.1 431.5-177.7 432.5-431.5 180.1-432.5-177.7zm141-721.3-118.9 289.3 120.5 288.6 289.3 118.9 288.6-120.5 118.9-289.3-120.5-288.6-289.3-118.8-288.6 120.4z" class="st1"/>
  <path d="m574.6 1379.9-153-366.5 151-367.3 366.5-153 367.3 151 153 366.5-151 367.3-366.5 153-367.3-151zm10.8-721-145.7 354.4L587.4 1367l354.4 145.7 353.6-147.6 145.7-354.4L1293.5 657 939.1 511.3 585.4 658.9z" class="st2"/>
  <path d="m574.4 1380.1-38.7-91.2-38.7-91.4-77.2-183.2-.3-.8.3-.8L495 828.9l37.7-91.8 37.9-91.8.3-.8.8-.3 183.5-75.8 91.8-37.9 91.7-38 .3-.1.3.1 91.8 37.8 91.9 37.6 91.9 37.5 91.9 37.5.5.2.2.6 77.1 183 76.8 183.1.4.9-.4 1-75.2 183.8-75.4 183.7-.4 1.1-1.1.4-183.3 76.2-183.4 76-.8.3-.8-.3-183.6-76.3-183-76.5zm.4-.4 184.2 74.6 183.7 74.7h-1.6l183-76.9 183.1-76.7-1.5 1.5 75.5-183.6 75.7-183.6v1.9l-76.1-183.4-75.8-183.6.8.8-91.7-38-91.7-37.9-91.8-37.8-91.8-37.7h.7L848 532.5 756.3 571l-183 77.2 1.2-1.2-37.5 91.8-37.8 91.8-75.7 183.5v-1.6l75.8 183.2 37.8 91.8 37.7 92.2z" class="st3"/>
  <path d="m585.6 659.1-35.9 89-36 88.8-72.1 177.2v-1.6l74.1 176.7 36.9 88.4 36.8 88.5-1.2-1.2 176.9 73.5 88.5 36.8 88.5 36.6h-.7l88.4-36.9 88.4-37 88.3-37.1 88.3-37.2-.8.8 72.2-177.5 72.5-177.4v1.9l-74.1-176.7-73.9-176.8 1.5 1.5-177.1-73.1-177-73.3h1.6l-176.9 73-177.2 73.1zm-.3-.4L761.5 584l176.8-74.6.8-.3.8.3 177.4 72.4 177.3 72.6 1.1.4.4 1.1 73.8 176.8 73.6 176.9.4.9-.4.9-73.2 177.1-73.4 177-.2.6-.5.2-88.5 36.6-88.5 36.7-88.4 36.8-88.4 36.9-.3.1-.3-.1-88.7-36.2-88.8-36.1-177.7-72-.8-.3-.4-.8-37-88.3-36.9-88.4-73.5-176.9-.3-.8.3-.8 73.6-177.2 36.9-88.4 36.8-88.4z" class="st3"/>
  <path d="M650.7 723.8c-9 24.5-18.2 48.9-27.5 73.2l-14 36.5L595 870c-4.7 12.1-9.4 24.3-14.2 36.4l-14.4 36.4-14.4 36.4-14.6 36.3v-4.7c10.2 24 20.5 47.9 30.6 72l30.3 72.1c10 24.1 20.1 48.1 30 72.2 10 24.1 19.8 48.2 29.6 72.4l-3.3-3.3 36 15.2c12 5 24 10.2 36 15.3 24 10.2 48 20.4 71.9 30.9l35.9 15.6 35.8 15.7c23.9 10.5 47.7 21.1 71.4 31.9-24.5-9-48.9-18.2-73.2-27.5l-36.5-14-36.4-14.2c-24.3-9.4-48.5-19-72.8-28.6-12.1-4.8-24.3-9.5-36.3-14.4l-36.3-14.6-2.3-.9-1-2.4c-10.2-24-20.5-47.9-30.6-72-10.2-24-20.2-48.1-30.3-72.1l-30-72.2c-10-24.1-19.8-48.2-29.6-72.4l-1-2.4 1-2.3 15.2-36 15.3-36 15.4-36c5.1-12 10.3-23.9 15.5-35.9L603 831l15.7-35.8c10.6-23.8 21.2-47.6 32-71.4z" class="st4"/>
  <path d="m732.8 1531.4 37.1-55.2 15 7-14.4 64.7z" class="st5"/>
  <path d="M732.7 1531.4c5.6-9.1 11.5-18.4 17.6-27.8 3.1-4.7 6.1-9.4 9.3-14 3.2-4.6 6.5-9.2 9.7-13.8l.3-.5.5.2c4.9 2.6 9.9 4.9 15 7l.4.2-.1.5-3.2 16.3c-1.1 5.4-2.2 10.8-3.4 16.2-1.2 5.4-2.3 10.8-3.5 16.2-1.2 5.4-2.4 10.8-3.7 16.2l-.4 1.5-1.4-.6-9.6-4.4c-3.2-1.5-6.4-2.9-9.5-4.4l-18-8.8zm.2 0 19.4 7.7c3.2 1.2 6.3 2.5 9.4 3.8l9.3 3.8-1.8.9c1.2-5.4 2.3-10.8 3.5-16.2 1.2-5.4 2.5-10.8 3.7-16.2 1.2-5.4 2.5-10.8 3.8-16.1l4-16.1.3.6c-4.9-2.6-9.9-4.9-15.1-6.9l.8-.2c-2.9 4.7-5.8 9.3-8.8 13.9-3 4.6-6.1 9.1-9.2 13.6-6.1 9-12.5 18-19.3 27.4z" class="st6"/>
  <path d="m837.1 1575.1 34.5-52.8 11.6 5.4-17.1 60.1z" class="st5"/>
  <path d="M837 1575.2c2.7-4.3 5.4-8.7 8.1-13.2 2.7-4.4 5.6-8.9 8.4-13.4 2.8-4.5 5.7-9 8.7-13.4l9-13.2.3-.4.4.2c.9.5 1.9 1 2.8 1.5.9.5 1.9.9 2.9 1.4 2 .9 3.9 1.8 5.9 2.5l.3.1-.1.4-4 15.1c-1.3 5-2.7 10.1-4.1 15.1l-4.2 15.1c-1.4 5-2.9 10-4.3 15l-.3 1.1-1-.5-7.4-3.4c-2.4-1.1-4.9-2.3-7.3-3.4l-14.1-6.6zm.2-.1 14.9 5.9c2.5 1 4.8 2 7.2 2.9l7.2 3-1.3.6 4.2-15 4.4-15c1.5-5 2.9-10 4.4-15l4.6-14.9.2.5c-1.9-1-3.8-1.9-5.7-2.8-1-.4-1.9-.9-2.9-1.3l-3-1.2.6-.2c-2.8 4.4-5.5 8.9-8.3 13.2-2.8 4.4-5.7 8.7-8.6 13-2.9 4.3-5.8 8.7-8.8 13l-9.1 13.3z" class="st6"/>
  <path d="m638.5 1490.3 34.6-52.8 11.6 5.3-17.1 60.2z" class="st5"/>
  <path d="M638.4 1490.3c2.7-4.3 5.4-8.7 8.1-13.2 2.7-4.4 5.6-8.9 8.4-13.4 2.8-4.5 5.7-9 8.7-13.4l9-13.2.3-.4.4.2c.9.5 1.9 1 2.8 1.5.9.5 1.9.9 2.9 1.4 2 .9 3.9 1.8 5.9 2.5l.3.1-.1.4-4 15.1c-1.3 5-2.7 10.1-4.1 15.1l-4.2 15.1c-1.4 5-2.9 10-4.3 15l-.3 1.1-1-.5-7.4-3.4c-2.4-1.1-4.9-2.3-7.3-3.4l-14.1-6.6zm.2-.1 14.9 5.9c2.5 1 4.8 2 7.2 2.9l7.2 3-1.3.6 4.2-15 4.4-15c1.5-5 2.9-10 4.4-15l4.6-14.9.2.5c-1.9-1-3.8-1.9-5.7-2.8-1-.4-1.9-.9-2.9-1.3l-3-1.2.6-.2c-2.8 4.4-5.5 8.9-8.3 13.2-2.8 4.4-5.7 8.7-8.6 13-2.9 4.3-5.8 8.7-8.8 13l-9.1 13.3z" class="st6"/>
  <path d="m770.5 1547.9 27.5-39.5 19.3 7.7-9.1 48.3z" class="st5"/>
  <path d="m770.3 1547.9 6.3-9.9c2.1-3.3 4.4-6.7 6.6-10.1 2.3-3.4 4.5-6.8 6.9-10.1 2.4-3.4 4.9-6.6 7.3-9.9l.4-.5.5.2c3.2 1.4 6.3 2.8 9.5 4.2l9.6 3.9.3.1-.1.3c-.7 4-1.3 8.1-2 12.1-.6 4.1-1.3 8.1-1.9 12.1l-2.1 12.1c-.7 4-1.4 8.1-2.2 12.1l-.3 1.7-1.6-.7c-3.2-1.4-6.4-2.9-9.6-4.4l-9.5-4.5c-3.2-1.5-6.2-3-9.3-4.5l-8.8-4.2zm.3 0 9.9 3.9c3.2 1.3 6.5 2.5 9.6 3.8l9.4 3.8 9.3 3.9-1.9 1c.8-4 1.5-8 2.4-12l2.5-12c.8-4 1.7-8 2.6-12 .9-4 1.8-8 2.6-12l.3.5c-3.2-1.3-6.4-2.6-9.7-3.8-3.2-1.2-6.5-2.4-9.8-3.5l.9-.3c-2.2 3.3-4.3 6.6-6.5 9.9-2.2 3.2-4.6 6.4-6.9 9.6-2.4 3.2-4.7 6.4-7.2 9.6l-7.5 9.6z" class="st6"/>
  <path d="m695.4 1515.9 27.6-39.5 19.3 7.8-9.1 48.2z" class="st5"/>
  <path d="m695.3 1516 6.3-9.9c2.1-3.3 4.4-6.7 6.6-10.1 2.3-3.4 4.5-6.8 6.9-10.1 2.4-3.4 4.9-6.6 7.3-9.9l.4-.5.5.2c3.2 1.4 6.3 2.8 9.5 4.2l9.6 3.9.3.1-.1.3c-.7 4-1.3 8.1-2 12.1-.6 4.1-1.3 8.1-1.9 12.1l-2.1 12.1c-.7 4-1.4 8.1-2.2 12.1l-.3 1.7-1.6-.7c-3.2-1.4-6.4-2.9-9.6-4.4l-9.5-4.5c-3.2-1.5-6.2-3-9.3-4.5l-8.8-4.2zm.2-.1 9.9 3.9c3.2 1.3 6.5 2.5 9.6 3.8l9.4 3.8 9.3 3.9-1.9 1c.8-4 1.5-8 2.4-12l2.5-12c.8-4 1.7-8 2.6-12 .9-4 1.8-8 2.6-12l.3.5c-3.2-1.3-6.4-2.6-9.7-3.9-3.2-1.2-6.5-2.4-9.8-3.5l.9-.3c-2.2 3.3-4.3 6.6-6.5 9.9-2.2 3.2-4.6 6.4-6.9 9.6-2.4 3.2-4.7 6.4-7.2 9.6l-7.5 9.7z" class="st6"/>
  <path d="m613.4 1518.9 58.9 25.4 57.3-145.1L716 1294l-35-14.4z" class="st7"/>
  <path d="M1230.2 1300.1c9-24.5 18.2-48.9 27.5-73.2l14-36.5 14.2-36.4c4.7-12.1 9.4-24.3 14.2-36.4l14.4-36.4 14.4-36.3 14.6-36.3v4.7c-10.2-24-20.5-47.9-30.6-72l-30.3-72.1c-10-24.1-20.1-48.1-30-72.2-10-24.1-19.8-48.2-29.6-72.4l3.3 3.3-36-15.2c-12-5-24-10.2-36-15.3-24-10.2-48-20.4-71.9-30.9l-35.9-15.6-35.8-15.7c-23.9-10.5-47.7-21.1-71.4-31.9 24.5 9 48.9 18.2 73.2 27.5l36.5 14 36.4 14.2c24.3 9.4 48.5 19 72.8 28.6 12.1 4.8 24.3 9.5 36.3 14.4l36.3 14.6 2.3.9 1 2.4c10.2 24 20.5 47.9 30.6 72 10.2 24 20.2 48.1 30.3 72.1l30 72.2c10 24.1 19.8 48.2 29.6 72.4l1 2.4-1 2.3-15.2 36-15.3 36-15.4 36c-5.1 12-10.3 23.9-15.5 35.9l-15.6 35.9-15.7 35.8c-10.3 23.7-20.9 47.5-31.7 71.2z" class="st8"/>
  <path d="M660.2 1293.8 543 1013.1l115.6-281.3 280.7-117.2 281.3 115.6 117.2 280.7-115.6 281.3-280.7 117.2-281.3-115.6zm281.3 85.6 259.5-108.3 106.9-260.1-108.3-259.5-260.2-106.9L680 752.9 573.1 1013l108.3 259.5 260.1 106.9z" class="st2"/>
  <path d="M660.1 1293.9 600.7 1154l-59.1-140.3-.2-.6.2-.6 57.6-140.8 28.9-70.3 29-70.3.3-.6.6-.3 140.6-58.1 70.3-29 70.2-29.2.3-.1.3.1 70.3 29 70.4 28.8 70.4 28.8 70.4 28.7.4.2.2.4 59 140.2 58.9 140.2.3.7-.3.7-57.6 140.7-57.8 140.7-.3.8-.8.3-140.4 58.4-140.5 58.3-.6.2-.6-.2-140.6-58.4-140.4-58.5zm.2-.3 141.1 57.1 140.7 57.2h-1.2l140.2-58.9 140.3-58.8-1.1 1.1 57.9-140.7 58-140.6v1.4l-58.3-140.5-58.1-140.5.6.6-70.2-29.1-70.3-29.1-70.3-29-70.4-28.8h.5l-70.1 29.4-70.1 29.6-140.1 59.1.9-.9-28.8 70.4-28.9 70.3-58 140.6v-1.2l58.1 140.4 57.6 140.9z" class="st3"/>
  <path d="m941.5 1379.2 129.5-55 129.4-54.5-.8.8 53.2-130.1 26.7-65 26.8-65v1.3l-53.7-129.9-26.8-65-27-64.9.4.4-65-26.8-65-26.6-65.1-26.6-65.1-26.7h.8l-129.6 54.6-129.6 54.4 1-1-53.3 130.1-53.3 130.1v-1.6l54 129.8 53.8 129.9-.8-.8 129.6 53.9 129.9 54.2zm0 .3-130.2-52.7-130.4-53-.6-.2-.2-.6-54.5-129.6-54.3-129.7-.3-.8.3-.8 53.5-130 53.6-130 .3-.7.7-.3 129.8-53.9L939 643.6l.4-.2.4.2 64.9 26.9 65 26.9 65 26.8 65 26.7.3.1.1.3 27.2 64.8 27.3 64.8 54.7 129.5.3.6-.3.6-26.6 65.1-26.7 65-53.6 130-.2.6-.6.2-130.1 53.8-130 53.2z" class="st3"/>
  <path d="M942.1 1622.9c-36.4-13.9-72.7-28-109-42.2l-54.4-21.4-54.3-21.5-54.3-21.6-54.3-21.7-54.2-21.8-54.2-21.9-2.3-.9-1-2.4c-15.2-35.9-30.4-71.7-45.5-107.7L413.3 1232l-44.9-107.9c-14.9-36-29.7-72-44.6-108.1l-1-2.4 1-2.3 22.5-53.9 22.7-53.9c15.1-35.9 30.2-71.8 45.6-107.7l22.9-53.8 23.1-53.7c15.4-35.8 30.9-71.5 46.7-107.2-13.9 36.4-28 72.7-42.2 109l-21.3 54.4-21.6 54.5c-14.3 36.2-28.8 72.4-43.3 108.6l-21.8 54.2-21.9 54.2v-4.7c15.2 35.9 30.4 71.7 45.5 107.7l45.2 107.8 44.9 107.9c15 36 29.7 72 44.5 108.1l-3.3-3.3 53.9 22.5 53.9 22.7 53.9 22.7 53.8 22.9 53.8 22.9 53.7 23.1c35.7 15.4 71.5 30.9 107.1 46.6z" class="st8"/>
  <path d="M938.8 401.1c36.4 13.9 72.7 28 109 42.2l54.4 21.4 54.3 21.5 54.3 21.6 54.3 21.7 54.2 21.8 54.2 21.9 2.3.9 1 2.4c15.2 35.9 30.4 71.7 45.5 107.7l45.2 107.8 44.9 107.9c14.9 36 29.7 72 44.6 108.1l1 2.4-1 2.3-22.5 53.9-22.7 53.9c-15.1 35.9-30.2 71.8-45.6 107.7l-22.9 53.8-23.1 53.7c-15.4 35.8-30.9 71.5-46.7 107.2 13.9-36.4 28-72.7 42.2-109l21.3-54.4 21.5-54.3c14.3-36.2 28.8-72.4 43.3-108.6l21.8-54.2 21.9-54.2v4.7c-15.2-35.9-30.4-71.7-45.5-107.7l-45-108-44.9-107.9c-15-36-29.7-72-44.5-108.1l3.3 3.3L1315 562l-53.9-22.7-53.9-22.7-53.8-22.9-53.8-22.9-53.7-23.1c-35.7-15.4-71.5-30.9-107.1-46.6z" class="st4"/>
  <path d="m1269.7 1514.6-58.9 25.4-57.3-145 6.7-76.9 41.8-42.8zM734.2 455.4l-47.8 51 57.5 155.2 44.3 13.3 41.5-15z" class="st7"/>
  <path d="m917.7 861.2 8.9 81.5 13.3 29.2 12.5-29.4 7.5-81.3zM810.7 1089.3l71.3-40.5 21.6-23.7-32 .1-77.6 25.4zM1081.9 1046.8l-79.1-21.7-32.1 1.5 22.7 22.5 72.9 37z" class="st1"/>
  <path d="M970.7 1026.6c2.1 1.6 4.2 3.4 6.2 5.1 2 1.7 4.1 3.4 6.1 5.2l6 5.3c2 1.8 3.9 3.6 5.9 5.4l-.6-.4c8.9 4 17.6 8.3 26.2 13 4.3 2.3 8.5 4.8 12.7 7.3 4.2 2.5 8.3 5.2 12.3 8.1-4.7-1.5-9.3-3.3-13.8-5.1-4.5-1.8-9-3.8-13.4-5.9-8.8-4.1-17.5-8.6-25.9-13.4l-.4-.2-.2-.2c-1.8-1.9-3.6-3.9-5.4-5.9l-5.3-6c-1.8-2-3.5-4-5.3-6-1.7-2.2-3.4-4.2-5.1-6.3zM834.9 1075.5c3.5-2.9 7.2-5.6 10.9-8.1 3.7-2.6 7.5-5 11.4-7.4 7.7-4.7 15.6-9.1 23.7-13.2l-.5.4 5.6-5.7c1.9-1.9 3.8-3.7 5.7-5.6 1.9-1.9 3.9-3.7 5.8-5.5l6-5.4c-1.6 2.2-3.2 4.3-4.8 6.5-1.7 2.1-3.3 4.2-5 6.3-1.7 2.1-3.3 4.2-5.1 6.2l-5.1 6.2-.2.2-.4.2c-7.6 4.9-15.4 9.4-23.4 13.6-4 2.1-8 4.1-12.2 6-3.9 2-8.1 3.8-12.4 5.3zM920.8 889.6c1.3 4.3 2.2 8.7 3.1 13.1.9 4.4 1.6 8.8 2.2 13.2 1.3 8.8 2.2 17.7 2.7 26.6l-.2-.7 3 7.4c1 2.5 1.9 5 2.9 7.5s1.9 5 2.8 7.6c.9 2.5 1.8 5.1 2.6 7.6-1.4-2.3-2.7-4.6-4.1-7-1.3-2.4-2.6-4.7-3.9-7.1-1.2-2.4-2.5-4.7-3.7-7.1l-3.6-7.2-.1-.2-.1-.5c-1.4-8.8-2.5-17.6-3.2-26.5-.3-4.4-.6-8.9-.7-13.4 0-4.3 0-8.8.3-13.3z" class="st9"/>
  <path d="m605.8 1085.3 77.8-24.3 13.7 34.9-71.8 36.5z" class="st5"/>
  <path d="M605.7 1085.3c12.3-4.4 25.1-8.8 38.2-13.1 6.5-2.1 13.1-4.3 19.7-6.2 6.6-2 13.3-3.8 19.9-5.7l.7-.2.2.7c1 2.9 2.1 5.9 3.2 8.8 1.1 2.9 2.2 5.8 3.3 8.8 1.2 2.9 2.3 5.8 3.5 8.7l3.6 8.7.2.6-.6.3-17.7 9.6c-5.9 3.2-11.9 6.3-17.8 9.4-6 3.1-11.9 6.2-17.9 9.3-6 3.1-12 6.1-18 9l-1.6.8-.6-1.6-4.8-12.1c-1.6-4-3.2-8.1-4.7-12.1l-8.8-23.7zm.3.1 10.8 23.5c1.8 3.8 3.4 7.7 5.1 11.5l5 11.4-2.2-.8c6-3.1 11.9-6.2 17.9-9.2l18-9c6-3 12-5.9 18.1-8.9l18.2-8.7-.3.9c-1.1-2.9-2.1-5.9-3.3-8.8-1.1-2.9-2.2-5.8-3.4-8.7-1.2-2.9-2.3-5.8-3.5-8.7-1.2-2.9-2.4-5.8-3.6-8.6l1 .5c-6.4 2.2-12.7 4.4-19 6.5-6.3 2.1-12.8 4-19.2 5.9-12.9 3.8-26 7.5-39.6 11.2z" class="st6"/>
  <path d="m585.7 1039.5 58.5-11.7 10.6 23.5-49.5 35.3z" class="st5"/>
  <path d="m585.5 1039.4 14-3.4 7.2-1.7 7.3-1.7c4.9-1.1 9.9-2.2 14.9-3.1 5-1 10-1.8 15-2.6l.8-.1.3.7c1.6 4 3.2 8 4.9 11.9l2.6 5.9 2.7 5.8.2.4-.3.3c-4.1 3-8.1 6.1-12.1 9.2-4 3.1-8 6.2-12.1 9.2l-12.3 9-6.1 4.5-6.2 4.4-1.7 1.2-.8-2c-3.3-8.1-6.5-16.2-9.5-24.3-1.5-4-2.9-8-4.4-11.9l-4.4-11.7zm.3.1 10.9 23.5c3.5 7.7 6.9 15.2 10.1 22.8l-2.5-.7 6.2-4.4 6.2-4.3 12.5-8.7c4.2-2.9 8.4-5.7 12.6-8.5 4.2-2.8 8.5-5.6 12.6-8.5l-.2.6-2.6-5.9-2.7-5.8c-1.8-3.9-3.8-7.7-5.7-11.5l1.1.5c-4.8 1.1-9.5 2.3-14.3 3.3-4.8 1-9.6 1.8-14.4 2.7l-7.3 1.2-7.4 1.2-15.1 2.5z" class="st6"/>
  <path d="m1126.6 723.2-37.9 72.2-34.3-15 25-76.6z" class="st5"/>
  <path d="M1126.7 723.1c-5.6 11.8-11.5 24-17.7 36.3-3.1 6.1-6.2 12.3-9.5 18.3-3.3 6.1-6.7 12.1-10 18l-.4.7-.6-.3c-2.8-1.3-5.6-2.7-8.5-4-2.8-1.3-5.7-2.6-8.6-3.8-2.9-1.2-5.7-2.5-8.6-3.7l-8.7-3.6-.6-.2.2-.6 5.8-19.3c2-6.4 3.9-12.8 6-19.2 2-6.4 4-12.8 6.1-19.2 2-6.4 4.2-12.8 6.3-19.1l.6-1.6 1.6.7 11.9 5.2c4 1.7 7.9 3.5 11.8 5.2l22.9 10.2zm-.3.2-24.2-9c-4-1.5-7.9-3-11.8-4.5l-11.6-4.5 2.1-1c-2 6.4-4 12.8-6.2 19.2-2.1 6.4-4.3 12.7-6.4 19.1-2.1 6.4-4.3 12.7-6.5 19.1l-6.7 19-.4-.9c2.8 1.3 5.7 2.6 8.5 3.9 2.8 1.3 5.7 2.5 8.6 3.8 2.9 1.2 5.7 2.5 8.6 3.7 2.9 1.2 5.8 2.4 8.7 3.5l-1 .4c3-6.1 5.9-12.1 8.9-18.1 3-6 6.2-11.9 9.4-17.8 6.3-11.8 13-23.7 20-35.9z" class="st6"/>
  <path d="m1079.5 703.8-33.1 49.5-24.1-9 10.1-60z" class="st5"/>
  <path d="m1079.7 703.7-7.5 12.4-3.9 6.3-4 6.4c-2.7 4.2-5.5 8.5-8.3 12.7-2.9 4.2-5.9 8.3-8.8 12.4l-.5.6-.7-.3c-4-1.7-7.9-3.3-11.9-4.9l-6-2.3-6-2.2-.4-.1.1-.4c.8-5 1.4-10 2.1-15.1.7-5 1.3-10.1 2.1-15.1l2.3-15 1.2-7.5 1.2-7.5.3-2.1 2 .8c8 3.4 16.1 6.9 23.9 10.4 3.9 1.8 7.7 3.6 11.6 5.3l11.2 5.2zm-.3.1-24.4-8.9c-7.9-2.9-15.6-5.9-23.3-9l2.3-1.3-1.3 7.5-1.3 7.5-2.7 15c-.9 5-1.9 9.9-2.9 14.9s-2 9.9-2.9 14.9l-.3-.6 6 2.3 6 2.2c4 1.4 8.1 2.8 12.2 4.1l-1.1.4c2.6-4.2 5.1-8.3 7.8-12.4s5.5-8 8.3-12.1l4.3-6 4.4-6.1 8.9-12.4z" class="st6"/>
  <path d="m1173.2 741.4-33.1 49.6-24.1-9.1 10.1-59.9z" class="st5"/>
  <path d="m1173.4 741.4-7.5 12.4-3.9 6.3-4 6.4c-2.7 4.2-5.5 8.5-8.3 12.7-2.9 4.2-5.9 8.3-8.8 12.4l-.5.6-.7-.3c-4-1.7-7.9-3.3-11.9-4.9l-6-2.3-6-2.2-.4-.1.1-.4c.8-5 1.4-10 2.1-15.1.7-5 1.3-10.1 2.1-15.1l2.3-15 1.2-7.5 1.2-7.5.3-2.1 2 .8c8 3.4 16.1 6.9 23.9 10.4 3.9 1.8 7.7 3.6 11.6 5.3l11.2 5.2zm-.3.1-24.4-8.9c-7.9-2.9-15.6-5.9-23.3-9l2.3-1.3-1.3 7.5-1.3 7.5-2.7 15c-.9 5-1.9 9.9-2.9 14.9s-2 9.9-2.9 14.9l-.3-.6 6 2.3 6 2.2c4 1.4 8.1 2.8 12.2 4.1l-1.1.4c2.6-4.2 5.1-8.3 7.8-12.4s5.5-8 8.3-12.1l4.3-6 4.4-6.1 8.9-12.4z" class="st6"/>
  <path d="m1477 848.2-65.1 13.4-5.9-15.5 55.6-36.1z" class="st5"/>
  <path d="M1477.1 848.2c-10.3 2.5-21.1 5.1-32 7.5-5.5 1.2-11 2.4-16.5 3.5s-11.1 2-16.6 3l-.6.1-.2-.5c-1.6-5.3-3.6-10.5-5.8-15.6l-.2-.4.4-.3 13.7-9.4c4.6-3.1 9.2-6.2 13.8-9.2 4.6-3 9.2-6.1 13.8-9.1 4.6-3 9.3-6 14-9l1.3-.8.5 1.4 3.7 9.8c1.2 3.3 2.5 6.5 3.6 9.8l7.1 19.2zm-.2-.1-8.5-19.1c-1.4-3.1-2.7-6.2-4-9.3l-4-9.3 1.9.6c-4.6 3-9.2 6.1-13.9 9.1-4.6 3-9.3 5.9-14 8.9-4.7 3-9.3 5.9-14 8.8l-14.1 8.7.2-.7c1.7 5.3 3.7 10.5 5.9 15.5l-.7-.4c5.4-1.3 10.7-2.5 16-3.7 5.3-1.2 10.7-2.2 16.1-3.2 10.8-2 21.7-3.9 33.1-5.9z" class="st6"/>
  <path d="M1372.5 599.2 1325 634l-8.6-9.5 34-47.4 16.3 6.6z" class="st5"/>
  <path d="M1372.6 599.2c-3.7 3-7.6 6-11.4 8.9-3.8 3-7.8 5.9-11.8 8.9-3.9 3-7.9 5.9-12 8.8-4.1 2.9-8.1 5.7-12.2 8.5l-.4.3-.3-.3c-.7-.8-1.3-1.7-2-2.5l-2.1-2.4c-1.5-1.5-2.9-3.1-4.4-4.6l-.2-.2.2-.3 8.3-12 8.4-12c2.8-4 5.6-8 8.4-11.9 2.8-4 5.7-7.9 8.6-11.8l.5-.6.7.3 16.2 6.9.3.1.1.3 2.7 8 2.4 7.6zm-.2 0-3.3-7.7-3.1-7.5.4.4-16.4-6.4 1.2-.3c-2.8 4-5.6 7.9-8.5 11.9-2.8 4-5.7 7.9-8.6 11.8l-8.7 11.7-8.8 11.7v-.6c1.3 1.7 2.8 3.2 4.2 4.8.7.8 1.4 1.6 2.2 2.3.7.8 1.5 1.5 2.2 2.3l-.6-.1c3.9-3 7.7-6 11.6-8.9 3.9-2.9 7.8-5.8 11.8-8.6 4-2.8 7.9-5.7 12-8.5 4.1-2.7 8.2-5.5 12.4-8.3z" class="st6"/>
  <path d="m1537.8 1022.7-57.7-11.9 1.3-12.7 58-6.6 6 16.5z" class="st5"/>
  <path d="M1537.9 1022.7c-4.7-.8-9.5-1.6-14.3-2.5-4.8-.8-9.6-1.8-14.5-2.7-4.8-.9-9.7-1.9-14.6-3s-9.7-2.2-14.5-3.3l-.5-.1.1-.4c.2-1.1.3-2.1.5-3.2.1-1.1.2-2.1.4-3.2.2-2.1.4-4.2.5-6.4v-.3l.4-.1 14.5-2c4.8-.6 9.6-1.3 14.5-1.8 4.8-.6 9.7-1.2 14.5-1.8 4.8-.6 9.7-1.1 14.5-1.6l.8-.1.3.7 5.8 16.6.1.3-.2.3-4.1 7.3-4.2 7.3zm-.1-.1 3.5-7.6 3.5-7.3v.6l-6.3-16.5 1 .6c-4.8.6-9.7 1.2-14.5 1.7-4.8.6-9.7 1-14.5 1.5-4.8.5-9.7 1-14.5 1.5l-14.5 1.3.4-.4c-.3 2.1-.5 4.2-.8 6.3-.1 1.1-.2 2.1-.3 3.2-.1 1.1-.1 2.1-.2 3.2l-.4-.5c4.8.9 9.6 1.7 14.4 2.6 4.8.9 9.5 1.9 14.3 3 4.8 1 9.5 2.1 14.4 3.2 4.7 1.2 9.6 2.4 14.5 3.6z" class="st6"/>
  <path d="m928.8 1617.2 8.8-58.2 12.8.6 9.6 57.5-16.2 7z" class="st5"/>
  <path d="M928.7 1617.3c.5-4.7 1.1-9.6 1.7-14.4.6-4.8 1.3-9.7 2-14.6s1.4-9.8 2.2-14.7c.8-4.9 1.7-9.8 2.6-14.6l.1-.5h.4c1.1.1 2.1.2 3.2.3 1.1.1 2.1.1 3.2.2 2.1 0 4.3.2 6.4.1h.3l.1.4 2.7 14.3c.9 4.8 1.8 9.6 2.6 14.4.8 4.8 1.7 9.6 2.5 14.4l2.4 14.4.1.8-.7.3-16.3 6.7-.3.1-.3-.1-7.5-3.7-7.4-3.8zm.2-.1 7.7 3.1 7.5 3.1h-.6l16.1-7.1-.6 1.1c-.8-4.8-1.7-9.6-2.5-14.4-.8-4.8-1.5-9.6-2.3-14.4-.8-4.8-1.5-9.6-2.2-14.4l-2.1-14.4.4.4c-2.1-.2-4.2-.3-6.4-.4-1.1 0-2.1-.1-3.2-.1h-3.2l.5-.4c-.6 4.8-1.2 9.7-1.9 14.5-.6 4.8-1.4 9.6-2.2 14.4-.8 4.8-1.6 9.6-2.5 14.5-.7 4.6-1.6 9.5-2.5 14.5z" class="st6"/>
  <path d="m522.8 574.4 32.2 49.3-9.9 8.1-45.5-36.5 7.5-16z" class="st5"/>
  <path d="M522.9 574.3c2.8 3.9 5.5 7.9 8.3 11.9 2.8 4 5.5 8.1 8.3 12.2 2.8 4.1 5.5 8.2 8.2 12.4 2.7 4.2 5.2 8.4 7.8 12.6l.2.4-.3.2c-.9.6-1.7 1.3-2.6 1.9-.9.6-1.7 1.3-2.5 2-1.6 1.4-3.3 2.7-4.9 4.1l-.3.2-.3-.2-11.6-8.9c-3.8-3-7.7-6-11.5-9s-7.7-6-11.4-9c-3.8-3-7.6-6.1-11.3-9.2l-.6-.5.3-.7 7.7-15.9.2-.3.3-.1 8.1-2.2 7.9-1.9zm-.1.2-7.8 2.8-7.6 2.7.4-.4-7.3 16.1-.3-1.2c3.8 3 7.6 6 11.4 9.1 3.8 3 7.5 6.1 11.3 9.2 3.8 3.1 7.5 6.2 11.3 9.3l11.2 9.4h-.6c1.7-1.3 3.4-2.6 5-3.9.8-.7 1.6-1.3 2.4-2.1l2.4-2.1-.1.6c-2.8-4-5.5-8-8.3-12-2.7-4-5.3-8.1-7.9-12.2-2.6-4.1-5.2-8.2-7.8-12.5-2.5-4.2-5.1-8.5-7.7-12.8z" class="st6"/>
  <path d="m1515.4 943.6-61.6 13.4-4.5-11.9 54.3-30.9z" class="st5"/>
  <path d="M1515.5 943.6c-4.9 1.2-10 2.5-15 3.7-5.1 1.2-10.2 2.4-15.4 3.6-5.2 1.2-10.3 2.4-15.6 3.5-5.2 1.1-10.5 2.1-15.6 3.1l-.4.1-.1-.4c-.3-1-.6-2-1-3-.3-1-.7-2-1.1-3-.8-2-1.5-4-2.4-5.9l-.1-.3.3-.2 13.4-8c4.5-2.6 9-5.3 13.5-7.9l13.5-7.8c4.5-2.6 9.1-5.1 13.6-7.7l1-.6.4 1 2.9 7.6c.9 2.5 1.9 5 2.8 7.5l5.3 14.7zm-.2-.1-6.5-14.7c-1.1-2.4-2.1-4.8-3.1-7.2l-3-7.1 1.4.5-13.5 7.8-13.6 7.6c-4.5 2.5-9.1 5.1-13.7 7.6l-13.7 7.5.2-.5c.6 2 1.4 4 2.1 6l1.2 3c.4 1 .8 2 1.3 2.9l-.6-.3c5.1-1.2 10.1-2.5 15.2-3.6 5-1.2 10.1-2.2 15.3-3.3 5.1-1.1 10.2-2.1 15.4-3.1l15.6-3.1z" class="st6"/>
  <path d="m1461.7 810-47.3 8.8-8.4-19 40.3-28z" class="st5"/>
  <path d="m1461.8 810.1-11.4 2.6c-3.9.9-7.8 1.7-11.8 2.6l-12 2.4c-4 .7-8.1 1.3-12.1 1.9l-.6.1-.2-.5c-1.3-3.2-2.5-6.5-3.9-9.7-1.3-3.2-2.7-6.4-4.2-9.5l-.1-.3.3-.2c3.3-2.4 6.6-4.8 9.9-7.3 3.3-2.5 6.6-4.9 9.9-7.3l10-7.2c3.3-2.4 6.7-4.7 10-7.1l1.4-1 .6 1.6c1.3 3.3 2.6 6.6 3.8 9.9l3.6 9.8c1.2 3.3 2.3 6.5 3.5 9.7l3.3 9.5zm-.2-.1-4.4-9.7c-1.4-3.2-2.9-6.3-4.2-9.4l-4.1-9.3-3.9-9.3 2 .6c-3.4 2.3-6.7 4.7-10.1 6.9l-10.2 6.9c-3.4 2.3-6.8 4.5-10.3 6.7-3.4 2.2-6.9 4.4-10.3 6.7l.1-.5c1.4 3.2 2.7 6.4 4.2 9.5 1.4 3.2 3 6.3 4.5 9.4l-.8-.4c3.9-.9 7.7-1.8 11.5-2.5 3.9-.7 7.7-1.4 11.6-2 3.9-.6 7.9-1.2 11.9-1.8l12.5-1.8z" class="st6"/>
  <path d="m1492.8 885.4-47.3 8.9-8.4-19.1 40.4-28z" class="st5"/>
  <path d="m1493 885.5-11.4 2.6c-3.9.9-7.8 1.7-11.8 2.6l-12 2.4c-4 .7-8.1 1.3-12.1 1.9l-.6.1-.2-.5c-1.3-3.2-2.5-6.5-3.9-9.7-1.3-3.2-2.7-6.4-4.2-9.5l-.1-.3.3-.2c3.3-2.4 6.6-4.8 9.9-7.3 3.3-2.5 6.6-4.9 9.9-7.3l10-7.2c3.3-2.4 6.7-4.7 10-7.1l1.4-1 .6 1.6c1.3 3.3 2.6 6.6 3.8 9.9l3.6 9.8c1.2 3.3 2.3 6.5 3.5 9.7l3.3 9.5zm-.3-.1-4.4-9.7c-1.4-3.2-2.9-6.3-4.2-9.4l-4.1-9.3-3.9-9.3 2 .6c-3.4 2.3-6.7 4.7-10.1 6.9l-10.2 6.9c-3.4 2.3-6.8 4.5-10.3 6.7-3.4 2.2-6.9 4.4-10.3 6.7l.1-.5c1.4 3.2 2.7 6.4 4.2 9.5 1.4 3.2 3 6.3 4.5 9.4l-.8-.4c3.9-.9 7.7-1.8 11.5-2.5 3.9-.7 7.7-1.4 11.6-2 3.9-.6 7.9-1.2 11.9-1.8l12.5-1.8z" class="st6"/>
  <path d="m387.4 878.8 53.3 33.8-5.2 11.7-60.4-16.3z" class="st5"/>
  <path d="M387.4 878.7c4.4 2.6 8.8 5.2 13.3 8 4.5 2.7 9 5.5 13.5 8.2 4.5 2.8 9 5.6 13.5 8.5 4.5 2.9 8.9 5.9 13.3 8.8l.4.2-.2.4c-.5.9-1 1.9-1.4 2.9-.5 1-.9 1.9-1.4 2.9-.8 2-1.7 3.9-2.5 5.9l-.1.3-.4-.1-15.2-3.8c-5-1.3-10.1-2.6-15.1-3.9l-15.1-4c-5-1.3-10-2.7-15.1-4.1l-1.1-.3.5-1 3.3-7.4c1.1-2.4 2.2-4.9 3.3-7.3l6.5-14.2zm.1.2-5.7 15c-.9 2.5-1.9 4.9-2.8 7.3l-2.9 7.2-.6-1.3c5 1.3 10.1 2.6 15.1 4l15.1 4.2 15 4.2 15 4.4-.5.2c1-1.9 1.8-3.8 2.7-5.8.4-1 .9-1.9 1.3-2.9l1.2-3 .2.6c-4.5-2.7-8.9-5.4-13.3-8.1-4.4-2.7-8.8-5.6-13.1-8.4-4.4-2.9-8.7-5.7-13.1-8.7l-13.6-8.9z" class="st6"/>
  <path d="m469.7 679.2 53.2 33.8-5.2 11.7-60.3-16.3z" class="st5"/>
  <path d="M469.6 679.1c4.4 2.6 8.8 5.2 13.3 8 4.5 2.7 9 5.5 13.5 8.2 4.5 2.8 9 5.6 13.5 8.5 4.5 2.9 8.9 5.9 13.3 8.8l.4.2-.2.4c-.5.9-1 1.9-1.4 2.9-.5 1-.9 1.9-1.4 2.9-.8 2-1.7 3.9-2.5 5.9l-.1.3-.4-.1-15.2-3.8c-5-1.3-10.1-2.6-15.1-3.9l-15.1-4c-5-1.3-10.1-2.7-15.1-4.1l-1.1-.3.5-1 3.3-7.4c1.1-2.4 2.2-4.9 3.3-7.3l6.5-14.2zm.1.2-5.7 15c-.9 2.5-1.9 4.9-2.8 7.3l-2.9 7.2-.6-1.3c5 1.3 10.1 2.6 15.1 4l15.1 4.2 15 4.2 15 4.4-.5.2c1-1.9 1.8-3.8 2.7-5.8.4-1 .9-1.9 1.3-2.9l1.2-3 .2.6c-4.5-2.7-8.9-5.4-13.3-8.1-4.4-2.7-8.8-5.6-13.1-8.4-4.4-2.9-8.7-5.7-13.1-8.7l-13.6-8.9z" class="st6"/>
  <path d="m413.8 811.9 39.8 27-7.4 19.4-48.4-8.5z" class="st5"/>
  <path d="m413.8 811.7 9.9 6.1c3.4 2.1 6.8 4.3 10.2 6.5 3.4 2.2 6.8 4.5 10.2 6.8 3.4 2.3 6.7 4.8 10 7.2l.5.4-.2.5c-1.4 3.2-2.8 6.4-4 9.6-1.3 3.2-2.5 6.4-3.7 9.7l-.1.3-.3-.1c-4-.7-8.1-1.2-12.1-1.8-4.1-.6-8.1-1.2-12.2-1.8l-12.1-1.9c-4-.6-8.1-1.3-12.1-2l-1.7-.3.7-1.6c1.4-3.2 2.8-6.5 4.2-9.7l4.3-9.5c1.4-3.2 2.9-6.2 4.4-9.3l4.1-9.1zm0 .3-3.7 9.9c-1.2 3.2-2.4 6.5-3.6 9.7l-3.6 9.5c-1.2 3.1-2.5 6.2-3.8 9.3l-1-1.9c4 .7 8.1 1.4 12.1 2.2l12.1 2.3c4 .8 8 1.6 12 2.5 4 .8 8 1.7 12 2.5l-.5.3c1.3-3.2 2.5-6.5 3.7-9.7 1.2-3.3 2.3-6.5 3.4-9.8l.3.9c-3.4-2.1-6.7-4.2-10-6.4s-6.5-4.5-9.7-6.8c-3.2-2.3-6.5-4.7-9.7-7.1l-10-7.4z" class="st6"/>
  <path d="m1037.4 1340.7-11.7-58.5 23.5-10.6 35.2 49.5z" class="st5"/>
  <path d="m1037.3 1340.9-3.4-14-1.7-7.2-1.7-7.3c-1.1-4.9-2.2-9.9-3.1-14.9-1-5-1.7-10-2.6-15l-.1-.8.7-.3c4-1.6 8-3.2 11.9-4.9l5.9-2.6 5.8-2.7.4-.2.3.3c3 4.1 6.1 8.1 9.2 12.1 3.1 4 6.2 8 9.2 12.1l9 12.3 4.5 6.1 4.4 6.2 1.2 1.7-2 .8c-8.1 3.3-16.2 6.5-24.3 9.5-4 1.5-8 2.9-11.9 4.4l-11.7 4.4zm.1-.3 23.5-10.9c7.7-3.5 15.2-6.9 22.8-10.1l-.7 2.5-4.4-6.2-4.3-6.2-8.6-12.5c-2.9-4.2-5.7-8.4-8.5-12.6-2.8-4.2-5.6-8.5-8.5-12.6l.6.2-5.9 2.6-5.8 2.7c-3.9 1.8-7.7 3.8-11.5 5.7l.5-1.1c1.1 4.8 2.3 9.5 3.3 14.3 1 4.8 1.8 9.6 2.7 14.4l1.2 7.3 1.2 7.4 2.4 15.1z" class="st6"/>
  <path d="m798.4 1055.6 6.7 16-17.2-12.5-171.1-124.8 19.4-47.1 156.7 114.3-8.5 20.5 14 33.6zM1166.5 1274.1l-53.4 22.2-177.9-129.8 53.3-22.3zM680.2 599.4l-53.3 22.2-80.4-58.6 53.4-22.2zM772.2 673.2l-53.3 22.2-80.4-58.6 53.3-22.2zM835.6 712.1l443.1 323.2-19.3 47.1-220-160.5-10.8-7.9-246.4-179.7zM1427.4 737.7l-117.7-85.5-3.4-8.1-18-7.4L1129 521l5.2-11.7-6.1-15.1 284.2 207.4z" class="st42"/>
  <path d="m428.8 982.9-11.1 27.1 10.5 25.2-77.1-56.2 16.7-40.6zM585.3 1147.6l-122.5-87.7-18.6-43.9 8-19.2 99.2 71.1zM944.5 1368.2l-9.2 3.8-158.9-65.3-106.2-77.4-36.7-88zM1075 1455.7l-53.3 22.2-80.4-58.6 53.3-22.3zM1163.8 1528.8l-53.3 22.3-72.3-57.2 53.3-22.3z" class="st43"/>
  <path d="m510.1 792.8-19.3 47-66.7-48.4 19.3-47.1zM594.8 854.6l-19.3 47-70.7-51.6 19.3-47zM1393.1 1122.3l-17.1 41.6-61.9-45.1 17.2-41.6zM1468.8 1177.6l-17.1 41.6-61.8-45.1 17.1-41.6z" class="st42"/>
  <path d="m341.7 997.6 58.4 7.5-.2 12.7-57.3 11-7.3-16z" class="st5"/>
  <path d="M341.7 997.5c4.8.4 9.6.9 14.4 1.4 4.9.5 9.8 1 14.7 1.6 4.9.6 9.8 1.1 14.7 1.8 4.9.7 9.8 1.5 14.7 2.2l.5.1v.4c-.1 1.1-.2 2.1-.2 3.2-.1 1.1-.1 2.1-.1 3.2 0 2.1-.1 4.3 0 6.4v.3l-.4.1-14.3 3.1c-4.8 1-9.5 2-14.3 2.9-4.8 1-9.5 1.9-14.3 2.9-4.8.9-9.6 1.8-14.3 2.7l-.8.1-.3-.7-7.1-16.1-.1-.3.1-.3 3.6-7.6 3.5-7.4zm.1.2-2.9 7.8-2.9 7.6v-.6l7.5 15.9-1.1-.6c4.8-1 9.5-1.9 14.3-2.8 4.8-.9 9.6-1.8 14.3-2.7 4.8-.9 9.6-1.7 14.4-2.6l14.4-2.4-.4.4c.2-2.1.2-4.3.3-6.4v-3.2c0-1.1 0-2.1-.1-3.2l.4.5c-4.9-.5-9.7-1-14.5-1.5-4.8-.5-9.6-1.2-14.5-1.9-4.8-.7-9.7-1.3-14.6-2.1-4.7-.6-9.7-1.4-14.6-2.2z" class="st6"/>
  <path d="m716 1397-102.8 124.2-160.4 15.1-124.2-102.8-15.1-160.5 102.8-124.1 160.4-15.1 124.2 102.7z" class="st57"/>
  <path d="M716.3 1397.1c-8.3 10.5-16.6 20.9-25 31.4l-25.2 31.4-25.4 31.4-25.6 31.4-.6.8-1 .1-40.1 4-40.1 3.9c-13.4 1.3-26.7 2.6-40.1 3.8-13.4 1.3-26.8 2.4-40.1 3.6l-1.1.1-.8-.7-61.5-52.1-30.7-26-30.9-25.9-.3-.3v-.4l-3.7-40.1-3.9-40.1-2-20-2.1-20-4.1-40.1-.1-.7.5-.6 25.4-31.3 12.7-15.7 12.7-15.6 25.5-31.2L414 1147l.8-.9 1.2-.1 80.2-7.9 40.1-3.9 40.1-3.8 1.4-.1 1.1.9 61.9 51.6 61.7 51.8.8.7.1 1c2.3 26.9 4.5 53.8 6.7 80.6l3.2 40.2 3 40zm-.6-.2-4.5-40.2-4.4-40.1c-2.8-26.7-5.7-53.3-8.4-79.8l.9 1.7-62.4-50.9-62.3-51.2 2.5.8-40.1 3.8-40.1 3.7-80.3 7.2 2-1.1-25.8 30.9-25.9 30.9-13 15.4-13 15.4-26 30.8.4-1.3 3.4 40.1 1.7 20.1 1.8 20.1 3.7 40.1 3.8 40.1-.4-.7 31.2 25.5 31.3 25.3 62.6 50.7-1.9-.6c13.4-1.3 26.7-2.7 40.1-4 13.4-1.3 26.7-2.6 40.1-3.8l40.1-3.7 40.1-3.5-1.7.9 25.8-30.7 26-30.6 26.2-30.7c8.9-10.1 17.6-20.3 26.5-30.6z" class="st58"/>
  <path d="m344.7 1425-13.8-146.6 93.9-113.4 146.6-13.8 113.4 93.9 13.8 146.6-93.9 113.4-146.6 13.8z" class="st1"/>
  <path d="m359.7 1417-12.5-133.6 85.5-103.4 133.7-12.6 103.3 85.6 12.6 133.6-85.6 103.4-133.6 12.6z" class="st59"/>
  <path d="m659.4 1256.9 12.9 125.1-79.4 97.7-125.2 12.8-97.6-79.3-12.9-125.2 79.4-97.6 125.2-12.9z" class="st2"/>
  <path d="m431.1 1380.2-7.5-72.4 46-56.4 72.3-7.5 56.5 45.9 7.4 72.4-45.9 56.5-72.4 7.4z" class="st18"/>
  <path d="m598.4 1289.8 61-32.9 12.9 125.1-66.5-19.8z" class="st19"/>
  <path d="m357.2 1288 66.4 19.8 7.5 72.4-61 33z" class="st20"/>
  <path d="m487.5 1426.1-56.4-45.9-61 33 97.6 79.3z" class="st21"/>
  <path d="m561.8 1177.5-19.9 66.4 56.5 45.9 61-32.9z" class="st18"/>
  <path d="M541.9 1243.9c4.9 3.6 9.6 7.4 14.4 11.1 4.8 3.7 9.6 7.4 14.4 11.2l14.3 11.3 14.2 11.3.4.4.1.6 2 18.1 1.9 18.1c1.2 12.1 2.5 24.1 3.6 36.2l.1.6-.4.4c-7.7 9.4-15.5 18.7-23.3 27.9-3.9 4.6-7.8 9.3-11.8 13.9-3.9 4.6-7.9 9.2-11.9 13.8 3.6-4.9 7.4-9.6 11.1-14.4 3.7-4.8 7.4-9.6 11.2-14.4 7.5-9.5 15-19.1 22.6-28.5l-.3 1c-1.4-12-2.6-24.1-3.9-36.2l-1.8-18.1-1.8-18.2.5 1-14-11.6-13.9-11.7c-4.6-3.9-9.3-7.8-13.9-11.8l-13.8-12z" class="st22"/>
  <path d="M487.5 1426.1c-4.9-3.6-9.6-7.4-14.4-11.1-4.8-3.7-9.6-7.4-14.4-11.2l-14.3-11.3-14.2-11.3-.4-.4-.1-.6-2-18.1-1.9-18.1c-1.2-12.1-2.5-24.1-3.6-36.2l-.1-.6.4-.4c7.7-9.4 15.5-18.7 23.3-27.9 3.9-4.6 7.8-9.3 11.8-13.9 3.9-4.6 7.9-9.2 11.9-13.8-3.6 4.9-7.4 9.6-11.1 14.4-3.7 4.8-7.4 9.6-11.2 14.4-7.5 9.5-15 19.1-22.6 28.5l.3-1c1.4 12 2.6 24.1 3.9 36.2l1.8 18.1 1.8 18.1-.5-1 14 11.6 13.9 11.7c4.6 3.9 9.3 7.8 13.9 11.8 4.7 4.2 9.3 8.1 13.8 12.1z" class="st23"/>
  <path d="m659.4 1256.9 12.9 125.1-79.4 97.7-125.2 12.8-97.6-79.3-12.9-125.2 79.4-97.6 125.2-12.9z" class="st24"/>
  <path d="m1073.9 351.8 63.2 148.2-60.1 149.6-148.3 63.2-149.5-60.1L716 504.4l60.1-149.5 148.3-63.3z" class="st57"/>
  <path d="M1074.1 351.6c5.5 12.1 10.9 24.4 16.4 36.6l16.4 36.8 16.3 37 16.2 37.1.4.9-.4 1-14.8 37.5-14.9 37.4c-5 12.5-10 24.9-15 37.4s-10.1 24.9-15.2 37.3l-.4 1-1 .4-74.5 30.8-37.2 15.4-37.2 15.6-.4.2-.4-.2-37.4-15.2-37.4-14.9-18.7-7.4-18.8-7.3-37.5-14.7-.6-.3-.3-.7-16.2-36.9-8.1-18.4-8-18.5-16.1-37-16-37-.5-1.1.5-1.2 29.8-74.9 15-37.4 15-37.4.5-1.3 1.3-.5 74.2-31.3 74.4-31.1 1-.4.9.4c25 10.3 49.9 20.7 74.7 31l37.1 15.6 36.9 15.7zm-.4.4-37.8-14.5-37.6-14.5c-25-9.7-50-19.3-74.8-29.1h1.9L851.5 326l-74 31.9 1.8-1.8-15 37.4-15.1 37.4-30.4 74.6v-2.3l15.6 37.1 15.5 37.2 7.8 18.6 7.7 18.6 15.4 37.2-.9-.9 37.2 15.4 18.6 7.7 18.7 7.6 37.3 15.1 37.4 15h-.8l37-16.1 36.9-16.2 73.8-32.4-1.4 1.4c4.9-12.5 9.8-25 14.9-37.5 5-12.5 10-24.9 15-37.4l15.1-37.3 15.2-37.3v1.9l-15.4-37-15.3-37.1-15.2-37.3c-5.1-12.4-10.2-24.9-15.2-37.5z" class="st58"/>
  <path d="m791.9 639.7-57.7-135.5 54.9-136.6 135.5-57.8 136.6 55 57.7 135.4-54.9 136.6-135.4 57.8z" class="st1"/>
  <path d="M803.9 627.5 751.2 504l50.1-124.5 123.4-52.6 124.6 50 52.6 123.5-50.1 124.5-123.4 52.7z" class="st59"/>
  <path d="m1042.3 388 49.3 115.7-46.9 116.7-115.8 49.4-116.7-46.9-49.3-115.8 46.9-116.7L925.5 341z" class="st2"/>
  <path d="m860.7 573.3-28.5-66.9 27.1-67.5 66.9-28.5 67.6 27.1 28.5 66.9-27.2 67.5-66.9 28.6z" class="st18"/>
  <path d="m993.8 437.5 48.5-49.5 49.3 115.7-69.3.7z" class="st19"/>
  <path d="m762.9 507.1 69.3-.7 28.5 66.9-48.5 49.6z" class="st20"/>
  <path d="m928.2 600.5-67.5-27.2-48.5 49.6 116.7 46.9z" class="st21"/>
  <path d="m925.5 341 .7 69.4 67.6 27.1 48.5-49.5z" class="st18"/>
  <path d="M926.2 410.4c5.7 2 11.4 4.2 17.1 6.3 5.7 2.1 11.4 4.2 17 6.4l17 6.5 16.9 6.6.5.2.2.5 7.2 16.7 7.2 16.7c4.7 11.2 9.5 22.3 14.1 33.5l.2.6-.2.5c-4.6 11.2-9.3 22.4-14 33.6-2.4 5.6-4.7 11.2-7.2 16.7-2.4 5.6-4.8 11.1-7.3 16.7 2-5.7 4.2-11.4 6.3-17.1 2.1-5.7 4.2-11.4 6.4-17 4.3-11.3 8.7-22.6 13.1-33.9v1.1c-4.9-11.1-9.6-22.3-14.4-33.4l-7.1-16.8-7-16.8.8.8-16.8-7-16.8-7c-5.6-2.4-11.2-4.8-16.7-7.2-5.3-2.4-10.9-4.8-16.5-7.2z" class="st22"/>
  <path d="M928.2 600.5c-5.7-2-11.4-4.2-17.1-6.3-5.7-2.1-11.4-4.2-17-6.4l-17-6.5-16.9-6.6-.5-.2-.2-.5-7.2-16.7-7.2-16.7c-4.7-11.2-9.5-22.3-14.1-33.5l-.2-.6.2-.5c4.6-11.2 9.3-22.4 14-33.6 2.4-5.6 4.7-11.2 7.2-16.7 2.4-5.6 4.8-11.1 7.3-16.7-2 5.7-4.2 11.4-6.3 17.1-2.1 5.7-4.2 11.4-6.4 17-4.3 11.3-8.7 22.6-13.1 33.9v-1.1c4.9 11.1 9.6 22.3 14.4 33.4L855 556l7 16.8-.8-.8 16.8 7 16.8 7c5.6 2.4 11.2 4.8 16.7 7.2 5.6 2.4 11.2 4.8 16.7 7.3z" class="st23"/>
  <path d="m1042.3 388 49.3 115.7-46.9 116.7-115.8 49.4-116.7-46.9-49.3-115.8 46.9-116.7L925.5 341z" class="st24"/>
  <path d="m1482.2 1155.9 94.3 130.8-25.9 159-130.7 94.3-159.1-25.9-94.2-130.7 25.8-159.1 130.8-94.2z" class="st57"/>
  <path d="M1482.4 1155.6c8 10.6 16 21.4 24 32.1l24.1 32.3 24 32.5 23.9 32.7.6.8-.2 1-6.2 39.8-6.3 39.8c-2.1 13.3-4.3 26.5-6.4 39.8-2.1 13.3-4.4 26.5-6.6 39.7l-.2 1.1-.9.6-65.9 46.4-33 23.2-32.8 23.3-.3.2-.4-.1-39.8-6.5-39.8-6.3-19.9-3.1-19.9-3.1-39.8-6.1-.7-.1-.4-.6-23.9-32.4-11.9-16.2-11.9-16.3-23.8-32.5-23.7-32.6-.7-1 .2-1.2 12.6-79.6 6.4-39.8 6.5-39.8.2-1.4 1.1-.8 65.6-46.9 65.7-46.6.9-.6 1 .2c26.6 4.5 53.2 9.3 79.7 13.9l39.7 7 39.2 7.2zm-.3.6-40.1-5.8-39.9-5.9c-26.5-4-53-7.9-79.4-12l1.8-.4-65 47.6-65.2 47.4 1.4-2.2-6.5 39.8-6.5 39.8-13.2 79.5-.5-2.2 23.4 32.8 23.3 32.9 11.7 16.4 11.6 16.5 23.2 32.9-1.1-.7 39.7 6.8 19.9 3.4 19.9 3.3 39.8 6.6 39.8 6.4-.8.2 32.5-23.8 32.4-23.9 64.9-47.8-1.1 1.7c2.1-13.3 4.1-26.5 6.3-39.8 2.1-13.3 4.3-26.5 6.5-39.8l6.6-39.8 6.7-39.7.4 1.8-23.2-32.7-23.1-32.9-23.1-33.1c-7.7-11.1-15.5-22.2-23.1-33.3z" class="st58"/>
  <path d="m1270.3 1498.7-86-119.5 23.6-145.3 119.4-86.1 145.4 23.6 86.1 119.4-23.6 145.4-119.5 86.1z" class="st1"/>
  <path d="m1279.3 1484.2-78.5-108.9 21.6-132.5 108.8-78.4 132.5 21.5 78.5 108.9-21.5 132.4-108.9 78.5z" class="st59"/>
  <path d="m1457.8 1195.1 73.7 102-20.1 124.2-102 73.7-124.2-20.1-73.6-102 20-124.2 102-73.6z" class="st2"/>
  <path d="M1321.6 1415.9 1279 1357l11.6-71.9 59-42.6 71.8 11.6 42.6 59-11.6 71.8-59 42.6z" class="st18"/>
  <path d="m1421.4 1254.1 36.4-59 73.7 102-67.5 16z" class="st19"/>
  <path d="m1211.6 1372.9 67.4-15.9 42.6 58.9-36.4 59z" class="st20"/>
  <path d="m1393.4 1427.5-71.8-11.6-36.4 59 124.2 20.1z" class="st21"/>
  <path d="m1333.6 1175.1 16 67.4 71.8 11.6 36.4-59z" class="st18"/>
  <path d="M1349.6 1242.5c6 .7 12 1.6 18 2.4 6 .8 12 1.6 18 2.5l18 2.6 18 2.7.6.1.4.5 10.7 14.7 10.7 14.7c7.1 9.9 14.2 19.7 21.2 29.6l.3.5-.1.6c-2 12-4.1 23.9-6.3 35.8-1.1 6-2.2 11.9-3.3 17.9-1.1 6-2.2 11.9-3.4 17.9.7-6 1.6-12 2.4-18 .8-6 1.6-12 2.5-18 1.7-12 3.5-24 5.3-36l.2 1.1c-7.2-9.8-14.3-19.6-21.4-29.4l-10.6-14.8-10.6-14.8.9.6-17.9-3.1-17.9-3.2c-6-1.1-11.9-2.2-17.9-3.3-5.9-1.3-11.9-2.4-17.8-3.6z" class="st22"/>
  <path d="M1393.4 1427.5c-6-.7-12-1.6-18-2.4-6-.8-12-1.6-18-2.5l-18-2.6-18-2.7-.6-.1-.4-.5-10.7-14.7-10.7-14.7c-7.1-9.9-14.2-19.7-21.2-29.6l-.3-.5.1-.6c2-12 4.1-23.9 6.3-35.8 1.1-6 2.2-11.9 3.3-17.9 1.1-6 2.2-11.9 3.4-17.9-.7 6-1.6 12-2.4 18-.8 6-1.6 12-2.5 18-1.7 12-3.5 24-5.3 36l-.2-1.1c7.2 9.8 14.3 19.6 21.4 29.4l10.6 14.8 10.6 14.8-.9-.6 17.9 3.1 17.9 3.2c6 1.1 11.9 2.2 17.9 3.3 5.9 1.3 11.9 2.4 17.8 3.6z" class="st23"/>
  <path d="m1457.8 1195.1 73.7 102-20.1 124.2-102 73.7-124.2-20.1-73.6-102 20-124.2 102-73.6z" class="st24"/>
  <path d="m625.4 1132.4 58.4-11.7 10.7 23.4-49.5 35.3z" class="st5"/>
  <path d="m625.2 1132.3 14-3.4 7.2-1.7 7.3-1.7c4.9-1.1 9.9-2.2 14.9-3.1 5-1 10-1.8 15-2.6l.8-.1.3.7c1.6 4 3.2 8 4.9 11.9l2.6 5.9 2.7 5.8.2.4-.3.3c-4.1 3-8.1 6.1-12.1 9.2-4 3.1-8 6.2-12.1 9.2l-12.3 9-6.1 4.5-6.2 4.4-1.7 1.2-.8-2c-3.3-8.1-6.5-16.2-9.5-24.3-1.5-4-2.9-8-4.4-11.9l-4.4-11.7zm.3.1 10.9 23.5c3.5 7.7 6.9 15.2 10.1 22.8l-2.5-.7 6.2-4.4 6.2-4.3 12.5-8.7c4.2-2.9 8.4-5.7 12.6-8.5 4.2-2.8 8.5-5.6 12.6-8.5l-.2.6-2.6-5.9-2.7-5.8c-1.8-3.9-3.8-7.7-5.7-11.5l1.1.5c-4.8 1.1-9.5 2.3-14.3 3.3-4.8 1-9.6 1.8-14.4 2.7l-7.3 1.2-7.4 1.2-15.1 2.5z" class="st6"/>
  <path d="m429.8 774 55.7 36.3-6.8 15.2-64.9-13.6z" class="st5"/>
  <path d="M429.8 773.8c9.1 5.5 18.6 11.2 28 17.2 4.7 3 9.5 6 14.2 9.2 4.7 3.2 9.3 6.4 13.9 9.6l.5.3-.2.5c-2.6 4.9-4.8 10-6.8 15.1l-.2.4-.5-.1-16.3-3c-5.4-1-10.9-2.1-16.3-3.2s-10.8-2.1-16.3-3.2c-5.4-1.1-10.8-2.3-16.2-3.5l-1.5-.3.6-1.4 4.3-9.6c1.4-3.2 2.8-6.4 4.3-9.5l8.5-18.5zm0 .3-7.4 19.5c-1.2 3.2-2.5 6.3-3.7 9.5l-3.7 9.4-.9-1.7 16.2 3.3c5.4 1.1 10.8 2.3 16.2 3.5l16.2 3.6 16.1 3.8-.6.3c2.5-4.9 4.8-10 6.7-15.2l.2.8c-4.7-2.9-9.4-5.7-14-8.6-4.6-2.9-9.1-6-13.7-9-9-6.2-18.1-12.6-27.6-19.2z" class="st6"/>
  <path d="m444.8 736.4 39.8 27-7.4 19.4-48.4-8.4z" class="st5"/>
  <path d="m444.7 736.3 9.9 6.1c3.4 2.1 6.8 4.3 10.2 6.5 3.4 2.2 6.8 4.5 10.2 6.8 3.4 2.3 6.7 4.8 10 7.2l.5.4-.2.5c-1.4 3.2-2.8 6.4-4 9.6-1.3 3.2-2.5 6.4-3.7 9.7l-.1.3-.3-.1c-4-.7-8.1-1.2-12.1-1.8-4.1-.6-8.1-1.2-12.2-1.8l-12.1-1.9c-4-.6-8.1-1.3-12.1-2l-1.7-.3.7-1.6c1.4-3.2 2.8-6.5 4.2-9.7l4.3-9.5c1.4-3.2 2.9-6.2 4.4-9.3l4.1-9.1zm.1.2-3.7 9.9c-1.2 3.2-2.4 6.5-3.6 9.7l-3.6 9.5c-1.2 3.1-2.5 6.2-3.8 9.3l-1-1.9c4 .7 8.1 1.4 12.1 2.2l12.1 2.3c4 .8 8 1.6 12 2.5 4 .8 8 1.7 12 2.5l-.5.3c1.3-3.2 2.5-6.5 3.7-9.7 1.2-3.3 2.3-6.5 3.4-9.8l.3.9c-3.4-2.1-6.7-4.2-10-6.4s-6.5-4.5-9.7-6.8c-3.2-2.3-6.5-4.7-9.7-7.1l-10-7.4z" class="st6"/>
  <path d="m1433.3 743.9-61.6 13.5-4.6-12 54.4-30.9z" class="st5"/>
  <path d="M1433.4 744c-4.9 1.2-10 2.5-15 3.7-5.1 1.2-10.2 2.4-15.4 3.6-5.2 1.2-10.3 2.4-15.6 3.5-5.2 1.1-10.5 2.1-15.6 3.1l-.4.1-.1-.4c-.3-1-.6-2-1-3-.3-1-.7-2-1.1-3-.8-2-1.5-4-2.4-5.9l-.1-.3.3-.2 13.4-8c4.5-2.6 9-5.3 13.5-7.9l13.5-7.8c4.5-2.6 9.1-5.1 13.6-7.7l1-.6.4 1 2.9 7.6c.9 2.5 1.9 5 2.8 7.5l5.3 14.7zm-.2-.1-6.5-14.7c-1.1-2.4-2.1-4.8-3.1-7.2l-3-7.1 1.4.5-13.5 7.8-13.6 7.6c-4.5 2.5-9.1 5.1-13.7 7.6l-13.7 7.5.2-.5c.6 2 1.4 4 2.1 6l1.2 3c.4 1 .8 2 1.3 2.9l-.6-.3c5.1-1.2 10.1-2.5 15.2-3.6 5-1.2 10.1-2.2 15.3-3.3 5.1-1.1 10.2-2.1 15.4-3.1l15.6-3.1z" class="st6"/>
  <path d="m1083.2 1320.6-24.3-77.8 34.9-13.7 36.5 71.9z" class="st5"/>
  <path d="M1083.2 1320.7c-4.4-12.3-8.8-25.1-13.1-38.2-2.1-6.5-4.3-13.1-6.2-19.7-2-6.6-3.8-13.3-5.7-19.9l-.2-.7.7-.2c2.9-1 5.9-2.1 8.8-3.2 2.9-1.1 5.8-2.2 8.8-3.3 2.9-1.2 5.8-2.3 8.7-3.5l8.7-3.6.6-.2.3.6 9.6 17.7c3.2 5.9 6.3 11.9 9.4 17.8 3.1 6 6.2 11.9 9.3 17.9 3.1 6 6 12 9 18l.8 1.6-1.6.6-12.1 4.8c-4 1.6-8.1 3.2-12.1 4.7l-23.7 8.8zm.1-.3 23.5-10.8c3.8-1.8 7.7-3.4 11.5-5.1l11.4-5-.8 2.2c-3.1-6-6.2-11.9-9.2-17.9l-9-18c-3-6-5.9-12.1-8.9-18.1l-8.7-18.2.9.3c-2.9 1.1-5.9 2.1-8.8 3.2-2.9 1.1-5.8 2.2-8.7 3.4-2.9 1.2-5.8 2.3-8.7 3.5-2.9 1.2-5.8 2.4-8.6 3.6l.5-1c2.2 6.4 4.4 12.7 6.5 19 2.1 6.3 4 12.8 5.9 19.2 3.8 13 7.5 26.1 11.2 39.7z" class="st6"/>
  <path d="m1130.3 1301.1-11.7-58.5 23.5-10.6 35.2 49.5z" class="st5"/>
  <path d="m1130.2 1301.2-3.4-14-1.7-7.2-1.7-7.3c-1.1-4.9-2.2-9.9-3.1-14.9-1-5-1.7-10-2.6-15l-.1-.8.7-.3c4-1.6 8-3.2 11.9-4.9l5.9-2.6 5.8-2.7.4-.2.3.3c3 4.1 6.1 8.1 9.2 12.1 3.1 4 6.2 8 9.2 12.1l9 12.3 4.5 6.1 4.4 6.2 1.2 1.7-2 .8c-8.1 3.3-16.2 6.5-24.3 9.5-4 1.5-8 2.9-11.9 4.4l-11.7 4.4zm.1-.3 23.5-10.9c7.7-3.5 15.2-6.9 22.8-10.1l-.7 2.5-4.4-6.2-4.3-6.2-8.6-12.5c-2.9-4.2-5.7-8.4-8.5-12.6-2.8-4.2-5.6-8.5-8.5-12.6l.6.2-5.9 2.6-5.8 2.7c-3.9 1.8-7.7 3.8-11.5 5.7l.5-1.1c1.1 4.8 2.3 9.5 3.3 14.3 1 4.8 1.8 9.6 2.7 14.4l1.2 7.3 1.2 7.4 2.4 15.1z" class="st6"/>
</svg>
