<svg xmlns="http://www.w3.org/2000/svg" xml:space="preserve" id="Layer_1" x="0" y="0" style="enable-background:new 0 0 2000 2000" version="1.1" viewBox="0 0 2000 2000">
  <style>
    .st0{fill:#289e48;stroke:#34803e;stroke-width:9.1235;stroke-miterlimit:10}.st1{fill:#86c658}.st2{fill:#f7d95c}.st3{fill:#fcf494}.st4{fill:#f3b75e}.st5{fill:#a57955}.st6{opacity:.39;fill:#537234;enable-background:new}.st7{fill:#38853f}.st8{fill:#9fd07c}.st9{fill:#1a763b}.st10{fill:#acd47e}.st11{fill:#b1d570}.st12{fill:#a9d26d}.st13{fill:#289e48}.st14{fill:#34803e}.st15{fill:#f9e073}.st16{fill:#f8e9ab}.st17{fill:#e2c547}.st18{fill:#eed057}.st19{fill:#fff2bc}.st20{fill:#ddc043}.st21{fill:none;stroke:#ddc043;stroke-width:4.5618;stroke-miterlimit:10}
  </style>
  <path d="m621.2 1437.4-158.3-379.3 156.3-380.2 379.3-158.5 380.2 156.3L1537 1055l-156.1 380.2-379.5 158.5-380.2-156.3zm249.4-509.5-53.2 129.2 53.9 128.9 129.2 53.2 128.9-53.9 53.2-129.2-53.9-128.9L999.5 874l-128.9 53.9z" class="st0"/>
  <path d="m1486.3 1004.3-101.7-243.6-26.7-64-86.5-35.5-272.6-112.1-20.4 8.5-338.1 141.1-85.5 208-23.3 56.6-39 94.6 137.3 328.8 12.5 29.7 40.1 16.5 318.9 131.1 144.5-60.4 59.5-24.8 154.4-64.5 147.6-359.2-21-50.8zm-335.9 201.8-149.8 62.6-64.3-26.4-85.9-35.3-26.5-63.6-36.1-86.2L849.6 907l149.9-62.6 150.2 61.7 62.6 149.9-61.9 150.1z" class="st1"/>
  <path d="M1002.5 1990.7 341.2 1719 65.7 1059.1l271.9-661.3 659.9-275.5 661.3 271.9 275.5 659.9-271.9 661.3-659.9 275.3zm-385.1-549.5 384 157.9 383.1-159.9 157.9-384-159.9-383.1-384-158L615.2 674l-157.9 384 160.1 383.2z" class="st0"/>
  <path d="M1623.9 429.2 997.5 171.7l-191.6 80.1L687 301.5 372.6 432.7l-94.7 230.6-23.3 56.6-101.8 247.4-37.7 91.7 19.4 46.6L376 1683.9l626.4 257.4 56.1-23.5 118.9-49.7 259.7-108.5 59.5-24.8 130.6-54.6 166.7-405.5 46.5-113.3 44.2-107.6-260.7-624.6zm-32.2 625.7-12.7 31-159.5 387.9-149.2 62.3-59.5 24.8-209.4 87.5-139.5-57.4-279.5-114.9-86.4-206.8-88.2-211.2 61.4-149.2 23.3-56.6 87.6-213.1L913 500.3l85.3-35.6 93.1 38.2 325.7 134L1517.9 878l73.8 176.9z" class="st1"/>
  <path d="m470 1589.3-221.6-530.8 218.7-532 530.8-221.6 532 218.7 221.6 530.8-218.7 532-530.8 221.7-532-218.8zm15.8-1044.1-211 513.3 213.9 512.1 513.3 211 512.1-213.8 211-513.3-213.8-512.1-513.5-211-512 213.8z" class="st2"/>
  <path d="m469.8 1589.6-56.1-132.1-56.1-132.4-111.8-265.3-.4-1.2.4-1.2 108.9-266.2 54.6-133 54.9-133 .4-1.2 1.2-.4L731.7 414l133-54.9 132.8-55 .4-.1.4.1 133 54.7 133.1 54.5 133.1 54.3 133.1 54.3.7.3.3.9 111.7 265.1 111.2 265.2.6 1.3-.6 1.4-108.9 266.2-109.2 266.1-.6 1.6-1.6.6-265.5 110.4-265.6 110.1-1.2.4-1.2-.4-265.9-110.5-265-111zm.5-.5 266.8 108 266.1 108.2h-2.3l265.1-111.4 265.2-111.1-2.2 2.2 109.4-265.9 109.6-265.9v2.8l-110.2-265.6-109.9-265.8 1.2 1.2-132.8-55-132.8-54.9-133-54.7-133-54.6h1L866 362.1 733.5 418 468.2 529.6l1.7-1.7L415.4 661l-54.7 133-109.6 265.8v-2.3l109.8 265.3 54.7 133 54.7 133.3z" class="st3"/>
  <path d="m486 545.5-52 128.9L381.9 803l-104.4 256.7v-2.3l107.3 255.9 53.4 128 53.3 128.2-1.7-1.7L746 1674.2l128.2 53.3 128.2 53h-1l128-53.4 128-53.6 127.9-53.7 127.9-53.9-1.2 1.2 104.6-257.1 105-256.9v2.8L1614.3 800l-107-256.1 2.2 2.2-256.5-106-256.4-106.2h2.3L742.7 439.6 486 545.5zm-.5-.6 255.3-108.2 256.1-108 1.2-.4 1.2.4 256.9 104.9L1513 538.8l1.6.6.6 1.6L1622 796.9l106.6 256.2.6 1.3-.6 1.3-106 256.5-106.3 256.4-.3.9-.7.3-128.2 53-128.2 53.2-128 53.3-128 53.4-.4.1-.4-.1-128.5-52.4-128.7-52.3-257.1-104.6-1.2-.4-.6-1.2-53.6-127.9-53.4-128-106.5-256.2-.4-1.2.4-1.2 106-256.7 53.4-128 53.6-127.7z" class="st3"/>
  <path d="m699.2 1808.9 53.6-80.1 21.9 10.2-20.9 93.7z" class="st4"/>
  <path d="M699 1808.9c8.1-13.2 16.7-26.7 25.5-40.3 4.5-6.8 8.8-13.6 13.5-20.3s9.4-13.3 14-20l.4-.7.7.3c7.1 3.8 14.3 7.1 21.7 10.1l.6.3-.1.7-4.6 23.6c-1.6 7.8-3.2 15.6-4.9 23.5-1.7 7.8-3.3 15.6-5.1 23.5-1.7 7.8-3.5 15.6-5.4 23.5l-.6 2.2-2-.9-13.9-6.4c-4.6-2.2-9.3-4.2-13.8-6.4l-26-12.7zm.4-.1 28.1 11.2c4.6 1.7 9.1 3.6 13.6 5.5l13.5 5.5-2.6 1.3c1.7-7.8 3.3-15.6 5.1-23.5 1.7-7.8 3.6-15.6 5.4-23.5 1.7-7.8 3.6-15.6 5.5-23.3l5.8-23.3.4.9c-7.1-3.8-14.3-7.1-21.9-10l1.2-.3c-4.2 6.8-8.4 13.5-12.7 20.1-4.3 6.7-8.8 13.2-13.3 19.7-9 13-18.4 26.2-28.1 39.7z" class="st5"/>
  <path d="m850.2 1872.2 50.1-76.5 16.6 7.9-24.6 87z" class="st4"/>
  <path d="M850 1872.2c3.9-6.2 7.8-12.6 11.7-19.1 3.9-6.4 8.1-12.9 12.2-19.4 4.1-6.5 8.3-13 12.6-19.4 4.3-6.4 8.7-12.7 13-19.1l.4-.6.6.3c1.3.7 2.8 1.4 4.1 2.2 1.3.7 2.8 1.3 4.2 2 2.9 1.3 5.6 2.6 8.5 3.6l.4.1-.1.6-5.8 21.9c-1.9 7.2-3.9 14.6-5.9 21.9l-6.1 21.9c-2 7.2-4.2 14.5-6.2 21.7l-.4 1.6-1.4-.7-10.7-4.9c-3.5-1.6-7.1-3.3-10.6-4.9l-20.5-9.7zm.3-.1 21.6 8.5c3.6 1.4 7 2.9 10.4 4.2l10.4 4.3-1.9.9c2-7.2 4.1-14.5 6.1-21.7l6.4-21.7c2.2-7.2 4.2-14.5 6.4-21.7l6.7-21.6.3.7c-2.8-1.4-5.5-2.8-8.3-4.1-1.4-.6-2.8-1.3-4.2-1.9-1.4-.6-2.9-1.2-4.3-1.7l.9-.3c-4.1 6.4-8 12.9-12 19.1-4.1 6.4-8.3 12.6-12.5 18.8-4.2 6.2-8.4 12.6-12.7 18.8l-13.3 19.4z" class="st5"/>
  <path d="m562.7 1749.2 49.9-76.4 16.8 7.8-24.7 87z" class="st4"/>
  <path d="M562.5 1749.2c3.9-6.2 7.8-12.6 11.7-19.1 3.9-6.4 8.1-12.9 12.2-19.4 4.1-6.5 8.3-13 12.6-19.4s8.7-12.7 13-19.1l.4-.6.6.3c1.3.7 2.8 1.4 4.1 2.2 1.3.7 2.8 1.3 4.2 2 2.9 1.3 5.6 2.6 8.5 3.6l.4.1-.1.6-5.8 21.9c-1.9 7.2-3.9 14.6-5.9 21.9l-6.1 21.9c-2 7.2-4.2 14.5-6.2 21.7l-.4 1.6-1.4-.7-10.7-4.9c-3.5-1.6-7.1-3.3-10.6-4.9l-20.5-9.7zm.3 0 21.6 8.5c3.6 1.4 7 2.9 10.4 4.2l10.4 4.3-1.9.9c2-7.2 4.1-14.5 6.1-21.7l6.4-21.7c2.2-7.2 4.2-14.5 6.4-21.7l6.7-21.6.3.7c-2.8-1.4-5.5-2.8-8.3-4.1-1.4-.6-2.8-1.3-4.2-1.9s-2.9-1.2-4.3-1.7l.9-.3c-4.1 6.4-8 12.9-12 19.1-4.1 6.4-8.3 12.6-12.5 18.8-4.2 6.2-8.4 12.6-12.7 18.8l-13.3 19.4z" class="st5"/>
  <path d="m753.7 1832.8 40-57.2 27.9 11.2-13.1 69.8z" class="st4"/>
  <path d="m753.6 1832.8 9.1-14.3c3-4.8 6.4-9.7 9.6-14.6 3.3-4.9 6.5-9.8 10-14.6 3.5-4.9 7.1-9.6 10.6-14.3l.6-.7.7.3c4.6 2 9.1 4.1 13.8 6.1 4.6 1.9 9.3 3.8 13.9 5.6l.4.1-.1.4c-1 5.8-1.9 11.7-2.9 17.5-.9 5.9-1.9 11.7-2.8 17.5l-3 17.5c-1 5.8-2 11.7-3.2 17.5l-.4 2.5-2.3-1c-4.6-2-9.3-4.2-13.9-6.4l-13.8-6.5c-4.6-2.2-9-4.3-13.5-6.5l-12.8-6.1zm.2-.1 14.3 5.6c4.6 1.9 9.4 3.6 13.9 5.5l13.6 5.5c4.5 1.9 9 3.8 13.5 5.6l-2.8 1.4c1.2-5.8 2.2-11.6 3.5-17.4l3.6-17.4c1.2-5.8 2.5-11.6 3.8-17.4 1.3-5.8 2.6-11.6 3.8-17.4l.4.7c-4.6-1.9-9.3-3.8-14-5.5-4.6-1.7-9.4-3.5-14.2-5.1l1.3-.4c-3.2 4.8-6.2 9.6-9.4 14.3-3.2 4.6-6.7 9.3-10 13.9-3.5 4.6-6.8 9.3-10.4 13.9l-10.9 14.2z" class="st5"/>
  <path d="m645.1 1786.5 39.9-57.2 28 11.1-13.3 70z" class="st4"/>
  <path d="m644.8 1786.5 9.1-14.3c3-4.8 6.4-9.7 9.6-14.6 3.3-4.9 6.5-9.8 10-14.6 3.5-4.9 7.1-9.6 10.6-14.3l.6-.7.7.3c4.6 2 9.1 4.1 13.8 6.1 4.6 1.9 9.3 3.8 13.9 5.6l.4.1-.1.4c-1 5.8-1.9 11.7-2.9 17.5-.9 5.9-1.9 11.7-2.8 17.5l-3 17.5c-1 5.8-2 11.7-3.2 17.5l-.4 2.5-2.3-1c-4.6-2-9.3-4.2-13.9-6.4l-13.8-6.5c-4.6-2.2-9-4.3-13.5-6.5l-12.8-6.1zm.4-.2 14.3 5.6c4.6 1.9 9.4 3.6 13.9 5.5l13.6 5.5c4.5 1.9 9 3.8 13.5 5.6l-2.8 1.4c1.2-5.8 2.2-11.6 3.5-17.4l3.6-17.4c1.2-5.8 2.5-11.6 3.8-17.4 1.3-5.8 2.6-11.6 3.8-17.4l.4.7c-4.6-1.9-9.3-3.8-14-5.6-4.6-1.7-9.4-3.5-14.2-5.1l1.3-.4c-3.2 4.8-6.2 9.6-9.4 14.3-3.2 4.6-6.7 9.3-10 13.9-3.5 4.6-6.8 9.3-10.4 13.9l-10.9 14.3z" class="st5"/>
  <path d="m526.2 1790.7 85.3 36.8 83.1-210.1-19.7-152.5-50.7-20.8z" class="st6"/>
  <path d="M1419.7 1473.9c13-35.5 26.4-70.8 39.8-106l20.3-52.9 20.6-52.7c6.8-17.5 13.6-35.2 20.6-52.7l20.9-52.7 20.9-52.6 21.1-52.6v6.8c-14.8-34.8-29.7-69.4-44.3-104.3l-43.9-104.4c-14.5-34.9-29.1-69.7-43.5-104.6-14.5-34.9-28.7-69.8-42.9-104.9l4.8 4.8-52.1-22c-17.4-7.2-34.8-14.8-52.1-22.2-34.8-14.8-69.5-29.5-104.1-44.8l-52-22.6-51.9-22.7c-34.6-15.2-69.1-30.6-103.4-46.2 35.5 13 70.8 26.4 106 39.8l52.9 20.3 52.7 20.6c35.2 13.6 70.2 27.5 105.4 41.4 17.5 7 35.2 13.8 52.6 20.9l52.6 21.1 3.3 1.3 1.4 3.5c14.8 34.8 29.7 69.4 44.3 104.3 14.8 34.8 29.3 69.7 43.9 104.4l43.5 104.6c14.5 34.9 28.7 69.8 42.9 104.9l1.4 3.5-1.4 3.3-22 52.1-22.2 52.1-22.3 52.1c-7.4 17.4-14.9 34.6-22.4 52l-22.6 52-22.7 51.9c-15.1 34.3-30.5 68.7-46.1 103.2z" class="st7"/>
  <path d="M580.3 639.2c-13.5 35.3-26.9 70.5-40.7 105.7L519 797.6l-20.9 52.7c-13.8 35.2-27.8 70.2-41.9 105.3l-21 52.6-21.1 52.4v-4.9c14.8 34.8 29.5 69.5 44 104.3l43.9 104.4 43.5 104.6c14.5 34.9 28.8 69.8 43.2 104.7l-3.5-3.5 52.3 21.9 52.1 22c34.8 14.6 69.5 29.4 104.3 44.2l52 22.3 52 22.4c34.6 14.9 69.2 30.1 103.7 45.5-35.3-13.5-70.5-26.9-105.7-40.7l-52.7-20.6-52.7-20.9c-35.2-13.8-70.2-27.8-105.3-41.9l-52.6-21-52.4-21.1-2.5-1-1-2.5c-14.8-34.8-29.5-69.5-44-104.3l-44-104.7-43.5-104.6c-14.5-34.9-28.8-69.8-43.2-104.7l-1-2.5 1-2.5 21.9-52.3 22-52.1c14.6-34.8 29.4-69.5 44.2-104.3l22.3-52 22.4-52c15.1-34.5 30.2-69.1 45.5-103.6z" class="st8"/>
  <path d="M594.1 1464.6 424.3 1058l167.4-407.4 406.6-169.8 407.4 167.4 169.8 406.6-167.4 407.4-406.6 169.8-407.4-167.4zm407.3 124 375.9-156.9 154.8-376.7-156.9-375.9-376.7-154.6-375.9 156.9-154.8 376.7 157 375.7 376.6 154.8z" class="st2"/>
  <path d="m593.8 1464.9-85.9-202.6-85.6-203.2-.3-.9.3-.9 83.4-203.9 41.9-101.8 42-101.8.4-.9.9-.4 203.6-84.2 101.8-42L998 480l.4-.1.4.1 101.8 42 102 41.7 102 41.7 102 41.6.6.3.3.6L1493 851l85.3 203.1.4 1-.4 1-83.4 203.8-83.7 203.8-.4 1.2-1.2.4-203.4 84.6-203.5 84.4-.9.3-.9-.3-203.6-84.6-203.5-84.8zm.4-.4 204.4 82.7 203.8 82.8h-1.7l203.1-85.3 203.2-85.2-1.6 1.6 83.9-203.8 84-203.6v2l-84.4-203.5-84.2-203.5.9.9-101.7-42.1-101.9-42.2-101.8-42-102-41.7h.7l-101.5 42.6-101.7 43-202.9 85.6 1.3-1.3-41.7 102-42 101.8-84 203.6v-1.7l84.2 203.4 83.6 203.9z" class="st3"/>
  <path d="m1001.4 1588.3 187.6-79.7 187.4-78.9-1.2 1.2 77.1-188.4 38.7-94.1 38.8-94.1v1.9L1452 867.9l-38.8-94.1-39.1-94 .6.6-94.1-38.8-94.1-38.5-94.3-38.5-94.3-38.4h1.2l-187.7 79.1L623.5 684l1.4-1.4L548 870.8l-77.3 188.4v-2.3l78.2 188 77.9 188.1-1.2-1.2 187.7 78.1 188.1 78.4zm0 .6-188.6-76.3-188.9-76.8-.9-.3-.3-.9-79.1-187.7-78.6-187.8-.4-1.2.4-1.2 77.5-188.3 77.6-188.3.4-1 1-.4 188.1-77.9L997.9 523l.6-.3.6.3 94 39 94.1 39 94.1 38.8 94.1 38.7.4.1.1.4 39.4 93.9 39.5 93.9 79.2 187.6.4.9-.4.9-38.5 94.3-38.7 94.1-77.6 188.3-.3.9-.9.3-188.4 77.9-188.2 76.9z" class="st3"/>
  <path d="M1002.4 1941.3c-52.7-20.1-105.3-40.6-157.9-61.1l-78.8-31-78.6-31.1-78.6-31.3-78.6-31.4-78.5-31.6-78.5-31.7-3.3-1.3-1.4-3.5c-22-52-44-103.8-65.9-156l-65.5-156.1-65.2-156.3c-21.6-52.1-43-104.3-64.6-156.6l-1.4-3.5 1.4-3.3 32.7-78.1 32.9-78.1c21.9-52 43.7-104 66-156l33.2-77.9 33.5-77.8c22.3-51.9 44.8-103.6 67.6-155.3-20.1 52.7-40.6 105.3-61.1 157.9l-31 78.8-31.1 78.6C229 800.1 208 852.6 187 905l-31.6 78.5-31.7 78.5v-6.8c22 52 44 103.8 65.9 156l65.5 156.1 65 156.3c21.7 52.1 43 104.3 64.5 156.6l-4.8-4.8 78.1 32.6 78.1 32.9 78.1 32.9L692 1807l77.9 33.2 77.8 33.5c51.3 22.4 103 44.9 154.7 67.6z" class="st7"/>
  <path d="M997.5 171.7c52.6 20.6 105.2 41.1 157.6 62l78.6 31.3 78.6 31.4c52.4 20.9 104.7 42 157.1 63.1l78.5 31.7 78.4 31.9 2.5 1 1 2.5c22 52 43.9 104 65.8 156l65.5 156.1 65 156.3c21.7 52.1 43.2 104.3 64.7 156.4l1 2.5-1 2.5-32.4 78.2-32.7 78.1c-21.9 52-43.6 104.1-65.6 156.1l-32.9 77.9-33.2 77.9c-22.2 52-44.3 103.8-66.8 155.6 20.6-52.6 41.1-105.2 62-157.6l31.3-78.6 31.4-78.6c20.9-52.4 42-104.7 63.1-157.1l31.7-78.5 31.9-78.4v4.9c-22-52-43.9-104-65.8-156l-65.5-156.1-65-156.3c-21.7-52.1-43.2-104.3-64.7-156.4l3.5 3.5-78.2-32.4-78.1-32.7c-52-21.7-104.1-43.6-156.1-65.6l-77.9-32.9-77.9-33.2c-51.7-21.9-103.6-44.1-155.4-66.5z" class="st8"/>
  <path d="m1476.7 1784.6-85.1 36.6-83.2-210 9.9-111.2 60.5-62.2zM701.1 250.5 632 324.3 715.2 549l64.3 19.2 59.9-21.5z" class="st6"/>
  <path d="m966.9 838.1 13 118 19.2 42.5 18.2-42.6 10.7-117.9zM812.1 1168.6l103.2-58.7 31.3-34.4-46.3.1-112.6 36.8zM1204.7 1107l-114.4-31.5-46.5 2.1 32.9 32.6 105.6 53.6z" class="st1"/>
  <path d="M1043.8 1077.6c3 2.5 6.1 4.9 9 7.4 2.9 2.5 5.8 5.1 8.7 7.7 2.9 2.6 5.6 5.2 8.5 7.8s5.6 5.2 8.4 8l-.7-.4c3.2 1.4 6.4 3 9.6 4.6 3.2 1.6 6.4 3 9.4 4.8 6.2 3.2 12.6 6.5 18.7 9.8 3.2 1.6 6.2 3.3 9.3 5.1 3 1.7 6.2 3.5 9.3 5.2 6.1 3.5 12.2 7.2 18.1 11.2-6.7-2.5-13.2-5.2-19.7-8.1-3.2-1.4-6.5-2.9-9.7-4.3-3.2-1.4-6.4-2.9-9.6-4.5-6.4-3-12.7-6.2-19-9.3-3.2-1.6-6.2-3.2-9.4-4.8-3.2-1.6-6.2-3.2-9.4-4.9l-.4-.3-.3-.3c-2.6-2.8-5.4-5.5-8-8.4-2.6-2.9-5.2-5.6-7.8-8.5-2.6-2.9-5.2-5.8-7.7-8.7-2.4-3-4.8-6-7.3-9.1zM847.1 1148.6c5.4-3.9 10.7-7.5 16.2-11.2 2.8-1.7 5.5-3.6 8.3-5.2 2.8-1.7 5.5-3.5 8.4-5.2l8.4-5.1 8.5-4.9c2.8-1.6 5.6-3.2 8.5-4.8 2.9-1.6 5.6-3.2 8.5-4.8l-.7.6 8.1-8.4 8.3-8.3c2.8-2.8 5.5-5.5 8.4-8.1 2.8-2.6 5.6-5.4 8.7-7.8-2.3 3.2-4.6 6.2-7 9.4-2.3 3-4.8 6.1-7.2 9.1-2.5 3-4.9 5.9-7.4 9l-7.5 8.8-.3.3-.4.3c-2.8 1.7-5.6 3.3-8.4 4.9-2.9 1.6-5.6 3.3-8.5 4.9l-8.5 4.8-8.7 4.6c-2.9 1.6-5.8 3-8.7 4.5-2.9 1.4-5.8 2.9-8.8 4.3-6.2 2.9-12.1 5.7-18.2 8.3zM971.5 879.2c1.4 6.4 2.6 12.7 3.8 19 .6 3.2 1.2 6.4 1.6 9.6.4 3.2 1 6.4 1.4 9.6l1.3 9.6 1.2 9.6c.4 3.2.7 6.4 1 9.6l1 9.6-.3-.9 4.5 10.7 4.3 10.9c1.4 3.6 2.8 7.2 4.1 10.9 1.3 3.6 2.6 7.4 3.8 11-2-3.3-3.9-6.7-5.8-10.1-1.9-3.3-3.6-6.8-5.5-10.3l-5.2-10.4-5.1-10.4-.1-.3v-.4l-1.2-9.6c-.4-3.2-.7-6.4-1-9.6l-1-9.6-.9-9.7c-.3-3.2-.4-6.4-.7-9.7-.3-3.2-.4-6.4-.6-9.7-.4-6.4-.7-12.9-.6-19.4z" class="st9"/>
  <path d="m515.3 1162.8 112.7-35.3 19.8 50.5-104.1 53z" class="st4"/>
  <path d="M515.2 1162.7c17.8-6.4 36.4-12.7 55.3-19 9.4-3 19-6.2 28.5-9 9.6-2.9 19.3-5.5 28.8-8.3l1-.3.3 1c1.4 4.2 3 8.5 4.6 12.7 1.6 4.2 3.2 8.4 4.8 12.7 1.7 4.2 3.3 8.4 5.1 12.6 1.7 4.2 3.5 8.4 5.2 12.6l.3.9-.9.4-25.6 13.9c-8.5 4.6-17.2 9.1-25.8 13.6-8.7 4.5-17.2 9-25.9 13.5s-17.4 8.8-26.1 13l-2.3 1.2-.9-2.3-7-17.5c-2.3-5.8-4.6-11.7-6.8-17.5l-12.6-34.2zm.2.2 15.6 34c2.6 5.5 4.9 11.2 7.4 16.7l7.2 16.5-3.2-1.2c8.7-4.5 17.2-9 25.9-13.3 8.7-4.3 17.4-8.7 26.1-13 8.7-4.3 17.4-8.5 26.2-12.9l26.4-12.6-.4 1.3c-1.6-4.2-3-8.5-4.8-12.7-1.6-4.2-3.2-8.4-4.9-12.6-1.7-4.2-3.3-8.4-5.1-12.6-1.7-4.2-3.5-8.4-5.2-12.5l1.4.7c-9.3 3.2-18.4 6.4-27.5 9.4s-18.5 5.8-27.8 8.5c-18.4 5.6-37.4 10.8-57.3 16.3z" class="st5"/>
  <path d="m543.5 1230.9 84.8-16.8 15.3 33.9-71.7 51.1z" class="st4"/>
  <path d="m543.4 1230.7 20.3-4.9 10.4-2.5 10.6-2.5c7.1-1.6 14.3-3.2 21.6-4.5 7.2-1.4 14.5-2.6 21.7-3.8l1.2-.1.4 1c2.3 5.8 4.6 11.6 7.1 17.2l3.8 8.5 3.9 8.4.3.6-.4.4c-5.9 4.3-11.7 8.8-17.5 13.3-5.8 4.5-11.6 9-17.5 13.3l-17.8 13-8.8 6.5-9 6.4-2.5 1.7-1.2-2.9c-4.8-11.7-9.4-23.5-13.8-35.2-2.2-5.8-4.2-11.6-6.4-17.2l-6.4-16.7zm.4.3 15.8 34c5.1 11.2 10 22 14.6 33l-3.6-1 9-6.4 9-6.2 18.1-12.6c6.1-4.2 12.2-8.3 18.2-12.3 6.1-4.1 12.3-8.1 18.2-12.3l-.3.9-3.8-8.5-3.9-8.4c-2.6-5.6-5.5-11.2-8.3-16.7l1.6.7c-7 1.6-13.8 3.3-20.7 4.8-7 1.4-13.9 2.6-20.9 3.9l-10.6 1.7-10.7 1.7-21.7 3.7z" class="st5"/>
  <path d="m486.2 1096.3 84.6-16.8 15.5 33.9-71.7 51.1z" class="st4"/>
  <path d="m485.9 1096.2 20.3-4.9 10.4-2.5 10.6-2.5c7.1-1.6 14.3-3.2 21.6-4.5 7.2-1.4 14.5-2.6 21.7-3.8l1.2-.1.4 1c2.3 5.8 4.6 11.6 7.1 17.2l3.8 8.5 3.9 8.4.3.6-.4.4c-5.9 4.3-11.7 8.8-17.5 13.3-5.8 4.5-11.6 9-17.5 13.3l-17.8 13-8.8 6.5-9 6.4-2.5 1.7-1.2-2.9c-4.8-11.7-9.4-23.5-13.8-35.2-2.2-5.8-4.2-11.6-6.4-17.2l-6.4-16.7zm.4.3 15.8 34c5.1 11.2 10 22 14.6 33l-3.6-1 9-6.4 9-6.2 18.1-12.6c6.1-4.2 12.2-8.3 18.2-12.3 6.1-4.1 12.3-8.1 18.2-12.3l-.3.9-3.8-8.5-3.9-8.4c-2.6-5.6-5.5-11.2-8.3-16.7l1.6.7c-7 1.6-13.8 3.3-20.7 4.8-7 1.4-13.9 2.6-20.9 3.9l-10.6 1.7-10.7 1.7-21.7 3.7z" class="st5"/>
  <path d="m1269.5 638.3-54.8 104.6L1165 721l36.3-110.9z" class="st4"/>
  <path d="M1269.8 638.2c-8.1 17.1-16.7 34.8-25.6 52.6-4.5 8.8-9 17.8-13.8 26.5-4.8 8.8-9.7 17.5-14.5 26.1l-.6 1-.9-.4c-4.1-1.9-8.1-3.9-12.3-5.8-4.1-1.9-8.3-3.8-12.5-5.5s-8.3-3.6-12.5-5.4c-4.2-1.7-8.4-3.5-12.6-5.2l-.9-.3.3-.9 8.4-28c2.9-9.3 5.6-18.5 8.7-27.8 2.9-9.3 5.8-18.5 8.8-27.8 2.9-9.3 6.1-18.5 9.1-27.7l.9-2.3 2.3 1 17.2 7.5c5.8 2.5 11.4 5.1 17.1 7.5l33.4 14.9zm-.5.1-35.1-13c-5.8-2.2-11.4-4.3-17.1-6.5l-16.8-6.5 3-1.4c-2.9 9.3-5.8 18.5-9 27.8-3 9.3-6.2 18.4-9.3 27.7-3 9.3-6.2 18.4-9.4 27.7l-9.7 27.5-.6-1.3c4.1 1.9 8.3 3.8 12.3 5.6 4.1 1.9 8.3 3.6 12.5 5.5 4.2 1.7 8.3 3.6 12.5 5.4s8.4 3.5 12.6 5.1l-1.4.6c4.3-8.8 8.5-17.5 12.9-26.2 4.3-8.7 9-17.2 13.6-25.8 9.2-17.3 18.9-34.3 29-52.2z" class="st5"/>
  <path d="m1201.4 610.1-47.9 71.8-35-13.1L1133 582z" class="st4"/>
  <path d="m1201.5 610.1-10.9 18-5.6 9.1-5.8 9.3c-3.9 6.1-8 12.3-12 18.4-4.2 6.1-8.4 12-12.7 18l-.7.9-1-.4c-5.8-2.5-11.4-4.8-17.2-7.1l-8.7-3.3-8.7-3.2-.6-.1.1-.6c1.2-7.2 2-14.5 3-21.9 1-7.2 1.9-14.6 3-21.9l3.3-21.7 1.7-10.9 1.7-10.9.4-3 2.9 1.2c11.6 4.9 23.3 10 34.6 15.1 5.6 2.6 11.2 5.2 16.8 7.7l16.4 7.3zm-.4 0-35.3-12.9c-11.4-4.2-22.6-8.5-33.7-13l3.3-1.9-1.9 10.9-1.9 10.9-3.9 21.7c-1.3 7.2-2.8 14.3-4.2 21.6s-2.9 14.3-4.2 21.6l-.4-.9 8.7 3.3 8.7 3.2c5.8 2 11.7 4.1 17.7 5.9l-1.6.6c3.8-6.1 7.4-12 11.3-18 3.9-5.9 8-11.6 12-17.5l6.2-8.7 6.4-8.8 12.8-18z" class="st5"/>
  <path d="m1337.1 664.7-47.9 71.7-34.9-13 14.4-86.9z" class="st4"/>
  <path d="m1337.4 664.6-10.9 18-5.6 9.1-5.8 9.3c-3.9 6.1-8 12.3-12 18.4-4.2 6.1-8.4 12-12.7 18l-.7.9-1-.4c-5.8-2.5-11.4-4.8-17.2-7.1l-8.7-3.3-8.7-3.2-.6-.1.1-.6c1.2-7.2 2-14.5 3-21.9 1-7.2 1.9-14.6 3-21.9l3.3-21.7 1.7-10.9 1.7-10.9.4-3 2.9 1.2c11.6 4.9 23.3 10 34.6 15.1 5.6 2.6 11.2 5.2 16.8 7.7l16.4 7.3zm-.4.1-35.3-12.9c-11.4-4.2-22.6-8.5-33.7-13l3.3-1.9-1.9 10.9-1.9 10.9-3.9 21.7c-1.3 7.2-2.8 14.3-4.2 21.6-1.4 7.2-2.9 14.3-4.2 21.6l-.4-.9 8.7 3.3 8.7 3.2c5.8 2 11.7 4.1 17.7 5.9l-1.6.6c3.8-6.1 7.4-12 11.3-18 3.9-5.9 8-11.6 12-17.5l6.2-8.7 6.4-8.8 12.8-18z" class="st5"/>
  <path d="m1777.1 819.2-94.4 19.5-8.4-22.5 80.5-52.3z" class="st4"/>
  <path d="M1777.3 819.4c-14.9 3.6-30.6 7.4-46.3 10.9-8 1.7-15.9 3.5-23.9 5.1-8 1.6-16.1 2.9-24 4.3l-.9.1-.3-.7c-2.3-7.7-5.2-15.2-8.4-22.6l-.3-.6.6-.4 19.8-13.6c6.7-4.5 13.3-9 20-13.3 6.7-4.3 13.3-8.8 20-13.2 6.7-4.3 13.5-8.7 20.3-13l1.9-1.2.7 2 5.4 14.2c1.7 4.8 3.6 9.4 5.2 14.2l10.2 27.8zm-.3-.2-12.3-27.7c-2-4.5-3.9-9-5.8-13.5l-5.8-13.5 2.8.9c-6.7 4.3-13.3 8.8-20.1 13.2-6.7 4.3-13.5 8.5-20.3 12.9-6.8 4.3-13.5 8.5-20.3 12.7l-20.4 12.6.3-1c2.5 7.7 5.4 15.2 8.5 22.4l-1-.6c7.8-1.9 15.5-3.6 23.2-5.4 7.7-1.7 15.5-3.2 23.3-4.6 15.6-2.9 31.4-5.6 47.9-8.4z" class="st5"/>
  <path d="m1713.7 668.3-89.2 19.4-6.5-17.2 78.6-44.8z" class="st4"/>
  <path d="M1713.8 668.3c-7.1 1.7-14.5 3.6-21.7 5.4-7.4 1.7-14.8 3.5-22.3 5.2-7.5 1.7-14.9 3.5-22.6 5.1-7.5 1.6-15.2 3-22.6 4.5l-.6.1-.1-.6c-.4-1.4-.9-2.9-1.4-4.3-.4-1.4-1-2.9-1.6-4.3-1.2-2.9-2.2-5.8-3.5-8.5l-.1-.4.4-.3 19.4-11.6c6.5-3.8 13-7.7 19.6-11.4l19.6-11.3c6.5-3.8 13.2-7.4 19.7-11.2l1.4-.9.6 1.4 4.2 11c1.3 3.6 2.8 7.2 4.1 10.9l7.5 21.2zm-.1-.1-9.4-21.3c-1.6-3.5-3-7-4.5-10.4l-4.3-10.3 2 .7c-6.5 3.8-13 7.5-19.6 11.3l-19.7 11c-6.5 3.6-13.2 7.4-19.8 11l-19.8 10.9.3-.7c.9 2.9 2 5.8 3 8.7.6 1.4 1.2 2.9 1.7 4.3.6 1.4 1.2 2.9 1.9 4.2l-.9-.4c7.4-1.7 14.6-3.6 22-5.2 7.2-1.7 14.6-3.2 22.2-4.8 7.4-1.6 14.8-3 22.3-4.5l22.6-4.5z" class="st5"/>
  <path d="m1625.8 458.7-69 50.3-12.4-13.6 49.4-68.7 23.6 9.6z" class="st4"/>
  <path d="M1625.9 458.7c-5.4 4.3-11 8.7-16.5 12.9-5.5 4.3-11.3 8.5-17.1 12.9-5.6 4.3-11.4 8.5-17.4 12.7-5.9 4.2-11.7 8.3-17.7 12.3l-.6.4-.4-.4c-1-1.2-1.9-2.5-2.9-3.6-1-1.2-2-2.3-3-3.5-2.2-2.2-4.2-4.5-6.4-6.7l-.3-.3.3-.4 12-17.4c4.1-5.8 8.1-11.6 12.2-17.4s8.1-11.6 12.2-17.2c4.1-5.8 8.3-11.4 12.5-17.1l.7-.9 1 .4 23.5 10 .4.1.1.4 3.9 11.6 3.5 11.2zm-.3-.1-4.8-11.2-4.5-10.9.6.6-23.8-9.3 1.7-.4c-4.1 5.8-8.1 11.4-12.3 17.2-4.1 5.8-8.3 11.4-12.5 17.1-4.2 5.6-8.4 11.3-12.6 16.9l-12.7 16.9v-.9c1.9 2.5 4.1 4.6 6.1 7 1 1.2 2 2.3 3.2 3.3 1 1.2 2.2 2.2 3.2 3.3l-.9-.1c5.6-4.3 11.2-8.7 16.8-12.9 5.6-4.2 11.3-8.4 17.1-12.5 5.8-4.1 11.4-8.3 17.4-12.3 6-3.5 11.9-7.7 18-11.8z" class="st5"/>
  <path d="m1865.2 1072-83.6-17.3 1.9-18.3 83.9-9.6 8.8 24z" class="st4"/>
  <path d="M1865.2 1072.1c-6.8-1.2-13.8-2.3-20.7-3.6-7-1.2-13.9-2.6-21-3.9-7-1.3-14-2.8-21.1-4.3-7.1-1.6-14-3.2-21-4.8l-.7-.1.1-.6c.3-1.6.4-3 .7-4.6.1-1.6.3-3 .6-4.6.3-3 .6-6.1.7-9.3v-.4l.6-.1 21-2.9c7-.9 13.9-1.9 21-2.6 7-.9 14-1.7 21-2.6 7-.9 14-1.6 21-2.3l1.2-.1.4 1 8.4 24 .1.4-.3.4-5.9 10.6-6.1 10.4zm0-.3 5.1-11 5.1-10.6v.9l-9.1-23.9 1.4.9c-7 .9-14 1.7-21 2.5-7 .9-14 1.4-21 2.2-7 .7-14 1.4-21 2.2l-21 1.9.6-.6c-.4 3-.7 6.1-1.2 9.1-.1 1.6-.3 3-.4 4.6-.1 1.6-.1 3-.3 4.6l-.6-.7c7 1.3 13.9 2.5 20.9 3.8s13.8 2.8 20.7 4.3c7 1.4 13.8 3 20.9 4.6 6.7 1.9 13.8 3.5 20.9 5.2z" class="st5"/>
  <path d="m395.1 422.7 46.6 71.5-14.3 11.6-65.9-52.9 10.8-23z" class="st4"/>
  <path d="M395.1 422.5c4.1 5.6 8 11.4 12 17.2s8 11.7 12 17.7c4.1 5.9 8 11.9 11.9 18 3.9 6.1 7.5 12.2 11.3 18.2l.3.6-.4.3c-1.3.9-2.5 1.9-3.8 2.8-1.3.9-2.5 1.9-3.6 2.9-2.3 2-4.8 3.9-7.1 5.9l-.4.3-.4-.3-16.9-12.9c-5.5-4.3-11.2-8.7-16.7-13-5.5-4.3-11.2-8.7-16.5-13-5.5-4.3-11-8.8-16.4-13.3l-.9-.7.4-1 11.2-23 .3-.4.4-.1 11.7-3.2 11.6-3zm0 .3-11.3 4.1-11 3.9.6-.6-10.6 23.3-.4-1.7c5.5 4.3 11 8.7 16.5 13.2 5.5 4.3 10.9 8.8 16.4 13.3 5.5 4.5 10.9 9 16.4 13.5l16.2 13.6h-.9c2.5-1.9 4.9-3.8 7.2-5.6 1.2-1 2.3-1.9 3.5-3 1.2-1 2.3-2 3.5-3l-.1.9c-4.1-5.8-8-11.6-12-17.4-3.9-5.8-7.7-11.7-11.4-17.7-3.8-5.9-7.5-11.9-11.3-18.1-3.8-6.2-7.6-12.3-11.3-18.7z" class="st5"/>
  <path d="m1832.7 957.4-89.2 19.6-6.5-17.4 78.7-44.8z" class="st4"/>
  <path d="M1832.9 957.6c-7.1 1.7-14.3 3.6-21.7 5.4-7.4 1.7-14.8 3.5-22.3 5.2-7.5 1.7-14.9 3.5-22.6 5.1-7.5 1.6-15.2 3-22.6 4.5l-.6.1-.1-.6c-.4-1.4-.9-2.9-1.4-4.3-.4-1.4-1-2.9-1.6-4.3-1.2-2.9-2.2-5.8-3.5-8.5l-.1-.4.4-.3 19.4-11.6c6.5-3.8 13-7.7 19.6-11.4l19.6-11.3c6.5-3.8 13.2-7.4 19.7-11.2l1.4-.9.6 1.4 4.2 11c1.3 3.6 2.8 7.2 4.1 10.9l7.5 21.2zm-.3-.2-9.4-21.3c-1.6-3.5-3-7-4.5-10.4l-4.3-10.3 2 .7c-6.5 3.8-13 7.5-19.6 11.3l-19.7 11c-6.5 3.6-13.2 7.4-19.8 11l-19.8 10.9.3-.7c.9 2.9 2 5.8 3 8.7.6 1.4 1.2 2.9 1.7 4.3.6 1.4 1.2 2.9 1.9 4.2l-.9-.4c7.4-1.7 14.6-3.6 22-5.2 7.2-1.7 14.6-3.2 22.2-4.8 7.4-1.6 14.8-3 22.3-4.5l22.6-4.5z" class="st5"/>
  <path d="m1755 764.1-68.7 12.7-12-27.5 58.4-40.7z" class="st4"/>
  <path d="m1755.1 764.1-16.5 3.8c-5.6 1.3-11.3 2.5-17.1 3.8-5.8 1.2-11.6 2.3-17.4 3.5-5.8 1-11.7 1.9-17.5 2.8l-.9.1-.3-.7c-1.9-4.6-3.6-9.4-5.6-14-1.9-4.6-3.9-9.3-6.1-13.8l-.1-.4.4-.3c4.8-3.5 9.6-7 14.3-10.6 4.8-3.6 9.6-7.1 14.3-10.6l14.5-10.4c4.8-3.5 9.7-6.8 14.5-10.3l2-1.4.9 2.3c1.9 4.8 3.8 9.6 5.5 14.3l5.2 14.2c1.7 4.8 3.3 9.4 5.1 14l4.8 13.7zm-.3-.2-6.4-14c-2-4.6-4.2-9.1-6.1-13.6l-5.9-13.5c-1.9-4.5-3.8-9-5.6-13.5l2.9.9c-4.9 3.3-9.7 6.8-14.6 10l-14.8 10c-4.9 3.3-9.8 6.5-14.9 9.7-4.9 3.2-10 6.4-14.9 9.7l.1-.7c2 4.6 3.9 9.3 6.1 13.8 2 4.6 4.3 9.1 6.5 13.6l-1.2-.6c5.6-1.3 11.2-2.6 16.7-3.6 5.6-1 11.2-2 16.8-2.9 5.6-.9 11.4-1.7 17.2-2.6l18.1-2.7z" class="st5"/>
  <path d="m1800 873.3-68.5 12.7-12.2-27.5 58.4-40.6z" class="st4"/>
  <path d="m1800.2 873.3-16.5 3.8c-5.6 1.3-11.3 2.5-17.1 3.8-5.8 1.2-11.6 2.3-17.4 3.5-5.8 1-11.7 1.9-17.5 2.8l-.9.1-.3-.7c-1.9-4.6-3.6-9.4-5.6-14-1.9-4.6-3.9-9.3-6.1-13.8l-.1-.4.4-.3c4.8-3.5 9.6-7 14.3-10.6 4.8-3.6 9.6-7.1 14.3-10.6l14.5-10.4c4.8-3.5 9.7-6.8 14.5-10.3l2-1.4.9 2.3c1.9 4.8 3.8 9.6 5.5 14.3l5.2 14.2c1.7 4.8 3.3 9.4 5.1 14l4.8 13.7zm-.3-.2-6.4-14c-2-4.6-4.2-9.1-6.1-13.6l-5.9-13.5c-1.9-4.5-3.8-9-5.6-13.5l2.9.9c-4.9 3.3-9.7 6.8-14.6 10l-14.8 10c-4.9 3.3-9.8 6.5-14.9 9.7-4.9 3.2-10 6.4-14.9 9.7l.1-.7c2 4.6 3.9 9.3 6.1 13.8 2 4.6 4.3 9.1 6.5 13.6l-1.2-.6c5.6-1.3 11.2-2.6 16.7-3.6 5.6-1 11.2-2 16.8-2.9 5.6-.9 11.4-1.7 17.2-2.6l18.1-2.7z" class="st5"/>
  <path d="m260.4 711.8 80.7 52.7-9.9 21.9-94-19.6z" class="st4"/>
  <path d="M260.2 711.6c13.2 8 26.9 16.2 40.6 24.9 6.8 4.3 13.8 8.7 20.6 13.3s13.5 9.3 20.1 13.9l.7.4-.3.7c-3.8 7.1-7 14.5-9.8 21.9l-.3.6-.7-.1-23.6-4.3c-7.8-1.4-15.8-3-23.6-4.6-7.8-1.6-15.6-3-23.6-4.6-7.8-1.6-15.6-3.3-23.5-5.1l-2.2-.4.9-2 6.2-13.9c2-4.6 4.1-9.3 6.2-13.8l12.3-26.9zm.2.3-10.7 28.2c-1.7 4.6-3.6 9.1-5.4 13.8l-5.4 13.6-1.3-2.5c7.8 1.6 15.6 3.2 23.5 4.8 7.8 1.6 15.6 3.3 23.5 5.1 7.8 1.7 15.6 3.5 23.5 5.2l23.3 5.5-.9.4c3.6-7.1 7-14.5 9.7-22l.3 1.2c-6.8-4.2-13.6-8.3-20.3-12.5-6.7-4.2-13.2-8.7-19.8-13-13.1-9-26.4-18.1-40-27.8z" class="st5"/>
  <path d="m199 863.7 77.2 49-7.7 16.8-87.3-23.5z" class="st4"/>
  <path d="M199 863.6c6.4 3.8 12.7 7.5 19.3 11.6 6.5 3.9 13 8 19.6 11.9 6.5 4.1 13 8.1 19.6 12.3 6.5 4.2 12.9 8.5 19.3 12.7l.6.3-.3.6c-.7 1.3-1.4 2.8-2 4.2-.7 1.4-1.3 2.8-2 4.2-1.2 2.9-2.5 5.6-3.6 8.5l-.1.4-.6-.1-22-5.5c-7.2-1.9-14.6-3.8-21.9-5.6l-21.9-5.8c-7.2-1.9-14.6-3.9-21.9-5.9l-1.6-.4.7-1.4 4.8-10.7c1.6-3.5 3.2-7.1 4.8-10.6l9.2-20.7zm0 .3-8.3 21.7c-1.3 3.6-2.8 7.1-4.1 10.6l-4.2 10.4-.9-1.9c7.2 1.9 14.6 3.8 21.9 5.8l21.9 6.1c7.2 2 14.5 4.1 21.7 6.1l21.7 6.4-.7.3c1.4-2.8 2.6-5.5 3.9-8.4.6-1.4 1.3-2.8 1.9-4.2s1.2-2.9 1.7-4.3l.3.9c-6.5-3.9-12.9-7.8-19.3-11.7-6.4-3.9-12.7-8.1-19-12.2-6.4-4.2-12.6-8.3-19-12.6l-19.5-13z" class="st5"/>
  <path d="m318 574.5 77.2 49.1-7.5 16.8-87.5-23.6z" class="st4"/>
  <path d="M318 574.3c6.4 3.8 12.7 7.5 19.3 11.6 6.5 3.9 13 8 19.6 11.9 6.5 4.1 13 8.1 19.6 12.3 6.5 4.2 12.9 8.5 19.3 12.7l.6.3-.3.6c-.7 1.3-1.4 2.8-2 4.2-.7 1.4-1.3 2.8-2 4.2-1.2 2.9-2.5 5.6-3.6 8.5l-.1.4-.6-.1-22-5.4c-7.2-1.9-14.6-3.8-21.9-5.6l-21.9-5.8c-7.2-1.9-14.6-3.9-21.9-5.9l-1.6-.4.7-1.4 4.8-10.7c1.6-3.5 3.2-7.1 4.8-10.6l9.2-20.8zm.2.3-8.3 21.7c-1.3 3.6-2.8 7.1-4.1 10.6l-4.2 10.4-.9-1.9c7.2 1.9 14.6 3.8 21.9 5.8l21.9 6.1c7.2 2 14.5 4.1 21.7 6.1l21.7 6.4-.7.3c1.4-2.8 2.6-5.5 3.9-8.4.6-1.4 1.3-2.8 1.9-4.2.6-1.4 1.2-2.9 1.7-4.3l.3.9c-6.5-3.9-12.9-7.8-19.3-11.7-6.4-3.9-12.7-8.1-19-12.2-6.4-4.2-12.6-8.3-19-12.6l-19.5-13z" class="st5"/>
  <path d="m237.2 766.7 57.7 39.2L284 834l-70-12.3z" class="st4"/>
  <path d="m237.1 766.5 14.3 8.8c4.9 3 9.8 6.2 14.8 9.4 4.9 3.2 9.8 6.5 14.8 9.8 4.9 3.3 9.7 7 14.5 10.4l.7.6-.3.7c-2 4.6-4.1 9.3-5.8 13.9-1.9 4.6-3.6 9.3-5.4 14l-.1.4-.4-.1c-5.8-1-11.7-1.7-17.7-2.6-5.9-.9-11.7-1.7-17.7-2.6l-17.5-2.8c-5.8-.9-11.7-1.9-17.5-2.9l-2.5-.4 1-2.3c2-4.6 4.1-9.4 6.1-14l6.2-13.8c2-4.6 4.2-9 6.4-13.5l6.1-13zm.1.3-5.4 14.3c-1.7 4.6-3.5 9.4-5.2 14l-5.2 13.8c-1.7 4.5-3.6 9-5.5 13.5l-1.4-2.8c5.8 1 11.7 2 17.5 3.2l17.5 3.3c5.8 1.2 11.6 2.3 17.4 3.6 5.8 1.2 11.6 2.5 17.4 3.6l-.7.4c1.9-4.6 3.6-9.4 5.4-14 1.7-4.8 3.3-9.4 4.9-14.2l.4 1.3c-4.9-3-9.7-6.1-14.5-9.3s-9.4-6.5-14-9.8c-4.6-3.3-9.4-6.8-14-10.3l-14.6-10.6z" class="st5"/>
  <path d="m282.1 657.3 57.7 39.3-10.9 28.1-70-12.3z" class="st4"/>
  <path d="m282 657.2 14.3 8.8c4.9 3 9.8 6.2 14.8 9.4s9.8 6.5 14.8 9.8 9.7 7 14.5 10.4l.7.6-.3.7c-2 4.6-4.1 9.3-5.8 13.9-1.9 4.6-3.6 9.3-5.4 14l-.3.4-.4-.1c-5.8-1-11.7-1.7-17.7-2.6-5.9-.9-11.7-1.7-17.7-2.6l-17.5-2.8c-5.8-.9-11.7-1.9-17.5-2.9l-2.5-.4 1-2.3c2-4.6 4.1-9.4 6.1-14l6.2-13.8c2-4.6 4.2-9 6.4-13.5l6.3-13zm.1.3-5.4 14.3c-1.7 4.6-3.5 9.4-5.2 14l-5.2 13.8c-1.7 4.5-3.6 9-5.5 13.5l-1.4-2.8c5.8 1 11.7 2 17.5 3.2l17.5 3.3c5.8 1.2 11.6 2.3 17.4 3.6 5.8 1.2 11.6 2.5 17.4 3.6l-.7.4c1.9-4.6 3.6-9.4 5.4-14 1.7-4.8 3.3-9.4 4.9-14.2l.4 1.3c-4.9-3-9.7-6.1-14.5-9.3s-9.4-6.5-14-9.8c-4.6-3.3-9.4-6.8-14-10.3l-14.6-10.6z" class="st5"/>
  <path d="m1206.8 1503.5-35.2-112.7 50.5-19.7 52.9 104z" class="st4"/>
  <path d="M1206.6 1503.7c-6.4-17.8-12.7-36.4-19-55.3-3-9.4-6.2-19-9-28.5-2.9-9.6-5.5-19.3-8.3-28.8l-.3-1 1-.3c4.2-1.4 8.5-3 12.7-4.6 4.2-1.6 8.4-3.2 12.7-4.8 4.2-1.7 8.4-3.3 12.6-5.1 4.2-1.7 8.4-3.5 12.6-5.2l.9-.3.4.9 13.9 25.6c4.6 8.5 9.1 17.2 13.6 25.8 4.5 8.7 9 17.2 13.5 25.9s8.7 17.4 13 26.1l1.2 2.3-2.3.9-17.5 7c-5.8 2.3-11.7 4.6-17.5 6.8l-34.2 12.6zm.3-.4 34-15.6c5.5-2.6 11.2-4.9 16.7-7.4l16.5-7.2-1.2 3.2c-4.5-8.7-9-17.2-13.3-25.9-4.3-8.7-8.7-17.4-13-26.1-4.3-8.7-8.5-17.5-12.9-26.2l-12.6-26.4 1.3.4c-4.2 1.6-8.5 3-12.7 4.6s-8.4 3.2-12.6 4.9c-4.2 1.7-8.4 3.3-12.6 5.1-4.2 1.7-8.4 3.5-12.5 5.2l.7-1.4c3.2 9.3 6.4 18.4 9.4 27.5 3 9.1 5.8 18.5 8.5 27.8 5.6 18.7 10.9 37.8 16.3 57.5z" class="st5"/>
  <path d="m1274.8 1475.2-16.8-84.7 33.9-15.4 51.1 71.7z" class="st4"/>
  <path d="m1274.8 1475.5-4.9-20.3-2.5-10.4-2.5-10.6c-1.6-7.1-3.2-14.3-4.5-21.6-1.4-7.2-2.5-14.5-3.8-21.7l-.1-1.2 1-.4c5.8-2.3 11.6-4.6 17.2-7.1l8.5-3.8 8.4-3.9.6-.3.4.4c4.3 5.9 8.8 11.7 13.3 17.5 4.5 5.8 9 11.6 13.3 17.5l13 17.8 6.5 8.8 6.4 9 1.7 2.5-2.9 1.2c-11.7 4.8-23.5 9.4-35.2 13.8-5.8 2.2-11.6 4.2-17.2 6.4l-16.7 6.4zm.2-.4 34-15.8c11.2-5.1 22-10 33-14.6l-1 3.6-6.4-9-6.2-9-12.5-18.1c-4.2-6.1-8.3-12.2-12.3-18.2s-8.1-12.3-12.3-18.2l.9.3-8.5 3.8-8.4 3.9c-5.6 2.6-11.2 5.5-16.7 8.3l.7-1.6c1.6 7 3.3 13.8 4.8 20.7 1.4 7 2.6 13.9 3.9 20.9l1.7 10.6 1.7 10.7 3.6 21.7z" class="st5"/>
  <path d="m1140.3 1532.7-16.8-84.7 33.9-15.5 51.1 71.8z" class="st4"/>
  <path d="m1140.1 1532.9-4.9-20.3-2.5-10.4-2.5-10.6c-1.6-7.1-3.2-14.3-4.5-21.6-1.4-7.2-2.5-14.5-3.8-21.7l-.1-1.2 1-.4c5.8-2.3 11.6-4.6 17.2-7.1l8.5-3.8 8.4-3.9.6-.3.4.4c4.3 5.9 8.8 11.7 13.3 17.5 4.5 5.8 9 11.6 13.3 17.5l13 17.8 6.5 8.8 6.4 9 1.7 2.5-2.9 1.2c-11.7 4.8-23.5 9.4-35.2 13.8-5.8 2.2-11.6 4.2-17.2 6.4l-16.7 6.4zm.3-.5 34-15.8c11.2-5.1 22-10 33-14.6l-1 3.6-6.4-9-6.2-9-12.5-18.1c-4.2-6.1-8.3-12.2-12.3-18.2s-8.1-12.3-12.3-18.2l.9.3-8.5 3.8-8.4 3.9c-5.6 2.6-11.2 5.5-16.7 8.3l.7-1.6c1.6 7 3.3 13.8 4.8 20.7s2.6 13.9 3.9 20.9l1.7 10.6 1.7 10.7 3.6 21.7z" class="st5"/>
  <path d="m1384.5 760.7 101.8 243.6-508.1-446.8 20.4-8.5 272.8 112.1zM1721.4 1051.1l-45.2 110-82.6-80.1 12.8-31.2-73.9-176.8 188.1 176.4zM1840.6 1161.6l-46.7 113.3-91.1-88.3 45.8-111.1z" class="st10"/>
  <path d="m260.4 711.8 1.6 1.1-2-.4zM258.9 712.4l1.1.1-3.7 9-1.9-1.6 23.4-56.6 1.3 1.1zM333.7 712.4l35.9 31.5-23.9 56.2-15.9-14 1.4.3 9.9-21.9-79.1-51.6 66.9 11.8zM504.6 862.7l-23.2 56.6-12-10.4-90.8-80 21.6-58.2 92.5 81.6zM1224.3 1495.6l-59.4 24.8-19-16.7-13.7-12-600.8-528.3-18.1-16 23.3-56.6 18 15.8 269.2 236.8 26.5 63.6 86 35.3 218 191.6 11 9.9 31.3 27.5 8.7 7.5zM1311.5 1577.9l-3.1 33.3 13.6 34.3-111-84.5 59.5-24.8z" class="st11"/>
  <path d="m642 1416.4-12.3-29.7 52.5 46.2zM242 1066l94.7 203.8-180.9-162.3-19.4-46.5 37.7-91.7 74.4 69.2z" class="st12"/>
  <path d="m997.3 1775.6-175.7-72.3-442.7-395.5-90.9-232.3 208.3 193.9 86.3 206.8L862 1591.1l187.5 162.6zM1177.4 1868.3l-119 49.7-172.5-152.2 121.8 49.9 72.5-30.1z" class="st12"/>
  <path d="M674.9 1614.3 526 1794l-232.4 21.9L113.8 1667l-21.9-232.3 148.8-179.9 232.5-21.9 179.7 148.9z" class="st13"/>
  <path d="M675.3 1614.3c-12 15.2-24 30.3-36.2 45.5l-36.5 45.5-36.8 45.5-37.1 45.5-.9 1.2-1.4.1-58.1 5.8-58.1 5.6c-19.4 1.9-38.7 3.8-58.1 5.5-19.4 1.9-38.8 3.5-58.1 5.2l-1.6.1-1.2-1-89.1-75.5-44.5-37.7-44.8-37.5-.4-.4v-.6L107 1609l-5.6-58.1-2.9-29-3-29-5.9-58.1-.1-1 .7-.9 36.8-45.3 18.4-22.7 18.4-22.6 36.9-45.2 37.1-45.2 1.2-1.3 1.7-.1 116.2-11.4 58.1-5.6 58.1-5.5 2-.1 1.6 1.3 89.7 74.7 89.4 75 1.2 1 .1 1.4c3.3 39 6.5 77.9 9.7 116.7l4.6 58.2 3.9 58.1zm-.8-.2-6.5-58.2-6.4-58.1c-4.1-38.7-8.3-77.2-12.2-115.6l1.3 2.5-90.4-73.7-90.2-74.2 3.6 1.2-58.1 5.5-58.1 5.4-116.3 10.4 2.9-1.6-37.4 44.8-37.5 44.8-18.8 22.3-18.8 22.3-37.6 44.5.6-1.9 4.9 58.1 2.5 29.1 2.6 29.1 5.4 58.1 5.5 58.1-.6-1 45.2 36.9 45.3 36.6L296 1813l-2.8-.9c19.4-1.9 38.7-3.9 58.1-5.8s38.7-3.8 58.1-5.5l58.1-5.4 58.1-5.1-2.5 1.3 37.4-44.5 37.7-44.3 37.9-44.5c12.7-14.5 25.5-29.4 38.4-44.2z" class="st14"/>
  <path d="m137 1654.7-20-212.4 136-164.2 212.3-20 164.4 136 20 212.3-136 164.3-212.3 20z" class="st1"/>
  <path d="m158.9 1643.2-18.3-193.5 124-149.7 193.5-18.3 149.8 124 18.2 193.5-124 149.8-193.5 18.2z" class="st0"/>
  <path d="m592.8 1411.2 18.7 181.3-115 141.4-181.2 18.7-141.4-115-18.7-181.4 115-141.3 181.2-18.6z" class="st2"/>
  <path d="m262.3 1589.9-10.9-104.8 66.5-81.9 104.8-10.7 81.9 66.5 10.7 104.9-66.5 81.6-104.8 10.9z" class="st15"/>
  <path d="m504.6 1459 88.2-47.8 18.7 181.3-96.2-28.6z" class="st16"/>
  <path d="m155.2 1456.2 96.2 28.9 10.9 104.8-88.4 47.7z" class="st17"/>
  <path d="m344 1656.4-81.7-66.5-88.4 47.7 141.4 115z" class="st18"/>
  <path d="m451.4 1296.3-28.7 96.2 81.9 66.5 88.2-47.8z" class="st15"/>
  <path d="M422.7 1392.5c7.1 5.2 13.9 10.7 20.9 16.1 7 5.4 13.9 10.7 20.9 16.2l20.7 16.4 20.6 16.4.6.6.1.9 2.9 26.2 2.8 26.2c1.7 17.5 3.6 34.9 5.2 52.4l.1.9-.6.6c-11.2 13.6-22.4 27.1-33.7 40.4-5.6 6.7-11.3 13.5-17.1 20.1-5.6 6.7-11.4 13.3-17.2 20 5.2-7.1 10.7-13.9 16.1-20.9 5.4-7 10.7-13.9 16.2-20.9 10.9-13.8 21.7-27.7 32.7-41.3l-.4 1.4c-2-17.4-3.8-34.9-5.6-52.4l-2.6-26.2-2.6-26.2.7 1.4-20.3-16.8-20.1-16.9c-6.7-5.6-13.5-11.3-20.1-17.1-6.8-6-13.5-11.7-20.2-17.5z" class="st19"/>
  <path d="M344 1656.4c-7.1-5.2-13.9-10.7-20.9-16.1-7-5.4-13.9-10.7-20.9-16.2l-20.7-16.4-20.6-16.4-.6-.6-.1-.9-2.9-26.2-2.8-26.2c-1.7-17.5-3.6-34.9-5.2-52.4l-.1-.9.6-.6c11.2-13.6 22.4-27.1 33.7-40.4 5.6-6.7 11.3-13.5 17.1-20.1 5.6-6.7 11.4-13.3 17.2-20-5.2 7.1-10.7 13.9-16.1 20.9-5.4 7-10.7 13.9-16.2 20.9-10.9 13.8-21.7 27.7-32.7 41.3l.4-1.4c2 17.4 3.8 34.9 5.6 52.4l2.6 26.2 2.6 26.2-.7-1.4 20.3 16.8 20.1 16.9c6.7 5.6 13.5 11.3 20.1 17.1 6.8 5.9 13.6 11.7 20.2 17.5z" class="st20"/>
  <path d="m592.8 1411.2 18.7 181.3-115 141.4-181.2 18.7-141.4-115-18.7-181.4 115-141.3 181.2-18.6z" class="st21"/>
  <path d="m1784.7 1265.1 136.4 189.3-37.4 230.4-189.4 136.4-230.3-37.3-136.6-189.5 37.5-230.4 189.3-136.5z" class="st13"/>
  <path d="M1784.9 1264.6c11.6 15.4 23.2 31 34.8 46.5l34.9 46.8 34.8 47.1 34.6 47.4.9 1.2-.3 1.4-9 57.6-9.1 57.6c-3 19.3-6.2 38.4-9.3 57.6-3 19.3-6.4 38.4-9.6 57.5l-.3 1.6-1.3.9-95.4 67.2-47.8 33.6-47.5 33.7-.4.3-.6-.1-57.6-9.4-57.6-9.1-28.8-4.5-28.8-4.5-57.6-8.8-1-.1-.6-.9-34.6-46.9-17.2-23.5-17.2-23.6-34.5-47.1-34.3-47.2-1-1.4.3-1.7 18.2-115.3 9.3-57.6 9.4-57.6.3-2 1.6-1.2 95-67.9 95.2-67.5 1.3-.9 1.4.3c38.5 6.5 77.1 13.5 115.4 20.1l57.5 10.1 56.5 10.3zm-.5.7-58.1-8.4-57.8-8.5c-38.4-5.8-76.8-11.4-115-17.4l2.6-.6-94.1 68.9-94.4 68.7 2-3.2-9.4 57.6-9.4 57.6-19.1 115.1-.7-3.2 33.9 47.5 33.7 47.7 16.9 23.8 16.8 23.9 33.6 47.7-1.6-1 57.5 9.8 28.8 4.9 28.8 4.8 57.6 9.6 57.6 9.3-1.2.3 47.1-34.5 46.9-34.6 94-69.2-1.6 2.5c3-19.3 5.9-38.4 9.1-57.6 3-19.3 6.2-38.4 9.4-57.6l9.6-57.6 9.7-57.5.6 2.6-33.6-47.4-33.5-47.7-33.5-47.9c-10.9-16.2-22.1-32.1-33.2-48.4z" class="st14"/>
  <path d="M1477.7 1761.4 1353 1588.5l34.2-210.6 173.1-124.7 210.6 34.2 124.6 173-34.2 210.5-173 124.7z" class="st1"/>
  <path d="m1490.8 1740.4-113.7-157.7 31.1-191.8 157.8-113.7 191.9 31.2 113.7 157.7-31.3 191.9-157.6 113.6z" class="st0"/>
  <path d="m1749.3 1321.8 106.6 147.8-28.9 179.9-147.8 106.6-179.9-29-106.7-147.7 29.1-179.9 147.7-106.8z" class="st2"/>
  <path d="m1552.1 1641.6-61.8-85.4 16.9-104 85.4-61.7 104 16.8 61.7 85.3-16.8 104.1-85.5 61.7z" class="st15"/>
  <path d="m1696.6 1407.3 52.7-85.5 106.6 147.8-97.6 23z" class="st16"/>
  <path d="m1392.6 1579.4 97.7-23.2 61.8 85.4-52.8 85.5z" class="st17"/>
  <path d="m1656 1658.4-103.9-16.8-52.8 85.5 179.9 29z" class="st18"/>
  <path d="m1569.4 1292.7 23.2 97.8 104 16.8 52.7-85.5z" class="st15"/>
  <path d="M1592.6 1390.5c8.7 1 17.4 2.3 26.1 3.5 8.7 1.2 17.4 2.3 26.1 3.6l26.1 3.8 26.1 3.9.9.1.6.7 15.5 21.3 15.5 21.3c10.3 14.3 20.6 28.5 30.7 42.9l.4.7-.1.9c-2.9 17.4-5.9 34.6-9.1 51.9-1.6 8.7-3.2 17.2-4.8 25.9s-3.2 17.2-4.9 25.9c1-8.7 2.3-17.4 3.5-26.1 1.2-8.7 2.3-17.4 3.6-26.1 2.5-17.4 5.1-34.8 7.7-52.1l.3 1.6c-10.4-14.2-20.7-28.4-31-42.6l-15.4-21.4-15.4-21.4 1.3.9-25.9-4.5-25.9-4.6c-8.7-1.6-17.2-3.2-25.9-4.8-8.8-2-17.4-3.6-26-5.3z" class="st19"/>
  <path d="M1656 1658.4c-8.7-1-17.4-2.3-26.1-3.5-8.7-1.2-17.4-2.3-26.1-3.6l-26.1-3.8-26.1-3.9-.9-.1-.6-.7-15.5-21.3-15.5-21.3c-10.3-14.3-20.6-28.5-30.7-42.9l-.4-.7.1-.9c2.9-17.4 5.9-34.6 9.1-51.9 1.6-8.7 3.2-17.2 4.8-25.9 1.6-8.7 3.2-17.2 4.9-25.9-1 8.7-2.3 17.4-3.5 26.1-1.2 8.7-2.3 17.4-3.6 26.1-2.5 17.4-5.1 34.8-7.7 52.1l-.4-1.6c10.4 14.2 20.7 28.4 31 42.6l15.4 21.4 15.4 21.4-1.3-.9 25.9 4.5 25.9 4.6c8.7 1.6 17.2 3.2 25.9 4.8 8.9 2 17.6 3.6 26.1 5.3z" class="st20"/>
  <path d="m1749.3 1321.8 106.6 147.8-28.9 179.9-147.8 106.6-179.9-29-106.7-147.7 29.1-179.9 147.7-106.8z" class="st21"/>
  <path d="m1193.3 100.3 91.5 214.8-87 216.5L983 623.1l-216.6-87-91.5-214.8L762 104.8l214.6-91.6z" class="st13"/>
  <path d="M1193.6 100c8 17.5 15.8 35.3 23.8 53l23.8 53.3 23.6 53.6 23.5 53.7.6 1.3-.6 1.4-21.4 54.3-21.6 54.2c-7.2 18.1-14.5 36.1-21.7 54.2-7.2 18.1-14.6 36.1-22 54l-.6 1.4-1.4.6-107.9 44.6-53.9 22.3-53.9 22.6-.6.3-.6-.3-54.2-21.9-54.2-21.6-27.1-10.7-27.2-10.6-54.3-21.3-.9-.4-.4-1-23.6-53.4-11.9-26.6-11.6-26.8-23.3-53.6-23.1-53.6-.7-1.6.7-1.7L714 211.2l21.7-54.2 21.7-54.2.7-1.9 1.9-.7 107.5-45.3 107.8-45 1.4-.6 1.3.6c36.2 14.9 72.3 30 108.2 44.9l53.7 22.6 53.7 22.6zm-.6.7-54.7-21-54.5-21c-36.2-14-72.4-28-108.3-42.1h2.8L871 63l-107.2 46.2 2.6-2.6-21.7 54.2-21.8 54.2-44 108v-3.3l22.6 53.7 22.4 53.9 11.3 26.9 11.2 26.9 22.3 53.9-1.3-1.3 53.9 22.3 26.9 11.2 27.1 11 54 21.9 54.2 21.7h-1.2l53.6-23.3 53.4-23.5 106.9-46.9-2 2c7.1-18.1 14.2-36.2 21.6-54.3 7.2-18.1 14.5-36.1 21.7-54.2l21.9-54 22-54v2.8l-22.3-53.6-22.2-53.7-22-54c-7.3-18.2-14.7-36.3-21.9-54.4z" class="st14"/>
  <path d="m784.8 517.3-83.7-196.2 79.7-197.9 196.1-83.6 198 79.5 83.6 196.3-79.6 197.8-196.2 83.7z" class="st1"/>
  <path d="m802.1 499.6-76.2-178.7 72.6-180.4 178.7-76.3 180.3 72.6 76.3 178.7-72.5 180.5-178.9 76.1z" class="st0"/>
  <path d="m1147.4 152.7 71.5 167.7-68.1 169-167.5 71.5-169.1-68-71.5-167.6 68.1-169.1 167.5-71.4z" class="st2"/>
  <path d="m884.5 421.2-41.4-96.9 39.4-97.7 96.9-41.5 97.7 39.4 41.4 96.9-39.3 97.8-96.9 41.3z" class="st15"/>
  <path d="m1077.1 224.5 70.3-71.8 71.5 167.7-100.4 1z" class="st16"/>
  <path d="m742.7 325.3 100.4-1 41.4 96.9-70.3 71.7z" class="st17"/>
  <path d="m982.3 460.5-97.8-39.3-70.3 71.7 169.1 68z" class="st18"/>
  <path d="m978.3 84.8 1.1 100.3 97.7 39.4 70.3-71.8z" class="st15"/>
  <path d="M979.4 185.1c8.3 2.9 16.5 6.1 24.8 9.1s16.5 6.1 24.6 9.3l24.6 9.4 24.5 9.6.7.3.3.7 10.4 24.2 10.4 24.2c6.8 16.2 13.8 32.3 20.4 48.5l.3.9-.3.7c-6.7 16.2-13.5 32.4-20.3 48.7-3.5 8.1-6.8 16.2-10.4 24.2-3.5 8.1-7 16.1-10.6 24.2 2.9-8.3 6.1-16.5 9.1-24.8s6.1-16.5 9.3-24.6c6.2-16.4 12.6-32.7 19-49.1v1.6c-7.1-16.1-13.9-32.3-20.9-48.4l-10.3-24.3-10.1-24.3 1.2 1.2-24.3-10.1-24.3-10.1c-8.1-3.5-16.2-7-24.2-10.4-7.9-3.6-15.8-7-23.9-10.7z" class="st19"/>
  <path d="M982.3 460.5c-8.3-2.9-16.5-6.1-24.8-9.1s-16.5-6.1-24.6-9.3l-24.6-9.4-24.5-9.6-.7-.3-.3-.7-10.4-24.2-10.4-24.2c-6.8-16.2-13.8-32.3-20.4-48.5l-.3-.9.3-.7c6.7-16.2 13.5-32.4 20.3-48.7 3.5-8.1 6.8-16.2 10.4-24.2 3.5-8.1 7-16.1 10.6-24.2-2.9 8.3-6.1 16.5-9.1 24.8s-6.1 16.5-9.3 24.6c-6.2 16.4-12.6 32.7-19 49.1v-1.6c7.1 16.1 13.9 32.3 20.9 48.4l10.3 24.3 10.1 24.3-1.2-1.2 24.3 10.1 24.3 10.1c8.1 3.5 16.2 7 24.2 10.4 7.8 3.7 15.9 7.2 23.9 10.7z" class="st20"/>
  <path d="m1147.4 152.7 71.5 167.7-68.1 169-167.5 71.5-169.1-68-71.5-167.6 68.1-169.1 167.5-71.4z" class="st21"/>
  <path d="m1269.5 638.3-54.8 104.6L1165 721l36.3-110.9z" class="st4"/>
  <path d="M1269.8 638.2c-8.1 17.1-16.7 34.8-25.6 52.6-4.5 8.8-9 17.8-13.8 26.5-4.8 8.8-9.7 17.5-14.5 26.1l-.6 1-.9-.4c-4.1-1.9-8.1-3.9-12.3-5.8-4.1-1.9-8.3-3.8-12.5-5.5s-8.3-3.6-12.5-5.4c-4.2-1.7-8.4-3.5-12.6-5.2l-.9-.3.3-.9 8.4-28c2.9-9.3 5.6-18.5 8.7-27.8 2.9-9.3 5.8-18.5 8.8-27.8 2.9-9.3 6.1-18.5 9.1-27.7l.9-2.3 2.3 1 17.2 7.5c5.8 2.5 11.4 5.1 17.1 7.5l33.4 14.9zm-.5.1-35.1-13c-5.8-2.2-11.4-4.3-17.1-6.5l-16.8-6.5 3-1.4c-2.9 9.3-5.8 18.5-9 27.8-3 9.3-6.2 18.4-9.3 27.7-3 9.3-6.2 18.4-9.4 27.7l-9.7 27.5-.6-1.3c4.1 1.9 8.3 3.8 12.3 5.6 4.1 1.9 8.3 3.6 12.5 5.5 4.2 1.7 8.3 3.6 12.5 5.4s8.4 3.5 12.6 5.1l-1.4.6c4.3-8.8 8.5-17.5 12.9-26.2 4.3-8.7 9-17.2 13.6-25.8 9.2-17.3 18.9-34.3 29-52.2z" class="st5"/>
  <path d="m1201.4 610.1-47.9 71.8-35-13.1L1133 582z" class="st4"/>
  <path d="m1201.5 610.1-10.9 18-5.6 9.1-5.8 9.3c-3.9 6.1-8 12.3-12 18.4-4.2 6.1-8.4 12-12.7 18l-.7.9-1-.4c-5.8-2.5-11.4-4.8-17.2-7.1l-8.7-3.3-8.7-3.2-.6-.1.1-.6c1.2-7.2 2-14.5 3-21.9 1-7.2 1.9-14.6 3-21.9l3.3-21.7 1.7-10.9 1.7-10.9.4-3 2.9 1.2c11.6 4.9 23.3 10 34.6 15.1 5.6 2.6 11.2 5.2 16.8 7.7l16.4 7.3zm-.4 0-35.3-12.9c-11.4-4.2-22.6-8.5-33.7-13l3.3-1.9-1.9 10.9-1.9 10.9-3.9 21.7c-1.3 7.2-2.8 14.3-4.2 21.6s-2.9 14.3-4.2 21.6l-.4-.9 8.7 3.3 8.7 3.2c5.8 2 11.7 4.1 17.7 5.9l-1.6.6c3.8-6.1 7.4-12 11.3-18 3.9-5.9 8-11.6 12-17.5l6.2-8.7 6.4-8.8 12.8-18z" class="st5"/>
  <path d="m1337.1 664.7-47.9 71.7-34.9-13 14.4-86.9z" class="st4"/>
  <path d="m1337.4 664.6-10.9 18-5.6 9.1-5.8 9.3c-3.9 6.1-8 12.3-12 18.4-4.2 6.1-8.4 12-12.7 18l-.7.9-1-.4c-5.8-2.5-11.4-4.8-17.2-7.1l-8.7-3.3-8.7-3.2-.6-.1.1-.6c1.2-7.2 2-14.5 3-21.9 1-7.2 1.9-14.6 3-21.9l3.3-21.7 1.7-10.9 1.7-10.9.4-3 2.9 1.2c11.6 4.9 23.3 10 34.6 15.1 5.6 2.6 11.2 5.2 16.8 7.7l16.4 7.3zm-.4.1-35.3-12.9c-11.4-4.2-22.6-8.5-33.7-13l3.3-1.9-1.9 10.9-1.9 10.9-3.9 21.7c-1.3 7.2-2.8 14.3-4.2 21.6-1.4 7.2-2.9 14.3-4.2 21.6l-.4-.9 8.7 3.3 8.7 3.2c5.8 2 11.7 4.1 17.7 5.9l-1.6.6c3.8-6.1 7.4-12 11.3-18 3.9-5.9 8-11.6 12-17.5l6.2-8.7 6.4-8.8 12.8-18z" class="st5"/>
  <path d="m262 712.9-2-.4.4-.7z" class="st4"/>
  <path d="M262.1 712.9c.4.1.4.4.3.7-.1.3-.3.4-.7.6-.4.1-.9-.1-1.2-.6-.3-.3-.4-.6-.7-.6l-.6.1.1-.9c0-.3-.6-.9-.6-1.2l-.4-1.3 2.8.6c.3 0 .7.1 1 .4.3.1.6.6.7 1 .3.8 0 1.4-.7 1.2zm-.3-.1c-1.2-.6-2-.3-2.5.1-.1.1-.1.4-.1.4s.1 0 .1-.1l2.3-.7c-.3.1-1.2.1-1.3.3l-.4-.7c.1.1.3 0 .3-.3s-.1-.6-.1-.3c0 .1 0 .4.3.7.3.2.7.4 1.4.6z" class="st5"/>
  <path d="m262 712.9-2-.4.4-.7z" class="st4"/>
  <path d="M262.1 712.9c.4.1.4.4.3.7-.1.3-.3.4-.7.6-.4.1-.9-.1-1.2-.6-.3-.3-.4-.6-.7-.6l-.6.1.1-.9c0-.3-.6-.9-.6-1.2l-.4-1.3 2.8.6c.3 0 .7.1 1 .4.3.1.6.6.7 1 .3.8 0 1.4-.7 1.2zm-.3-.1c-1.2-.6-2-.3-2.5.1-.1.1-.1.4-.1.4s.1 0 .1-.1l2.3-.7c-.3.1-1.2.1-1.3.3l-.4-.7c.1.1.3 0 .3-.3s-.1-.6-.1-.3c0 .1 0 .4.3.7.3.2.7.4 1.4.6z" class="st5"/>
  <path d="m1206.8 1503.5-35.2-112.7 50.5-19.7 52.9 104z" class="st4"/>
  <path d="M1206.6 1503.7c-6.4-17.8-12.7-36.4-19-55.3-3-9.4-6.2-19-9-28.5-2.9-9.6-5.5-19.3-8.3-28.8l-.3-1 1-.3c4.2-1.4 8.5-3 12.7-4.6 4.2-1.6 8.4-3.2 12.7-4.8 4.2-1.7 8.4-3.3 12.6-5.1 4.2-1.7 8.4-3.5 12.6-5.2l.9-.3.4.9 13.9 25.6c4.6 8.5 9.1 17.2 13.6 25.8 4.5 8.7 9 17.2 13.5 25.9s8.7 17.4 13 26.1l1.2 2.3-2.3.9-17.5 7c-5.8 2.3-11.7 4.6-17.5 6.8l-34.2 12.6zm.3-.4 34-15.6c5.5-2.6 11.2-4.9 16.7-7.4l16.5-7.2-1.2 3.2c-4.5-8.7-9-17.2-13.3-25.9-4.3-8.7-8.7-17.4-13-26.1-4.3-8.7-8.5-17.5-12.9-26.2l-12.6-26.4 1.3.4c-4.2 1.6-8.5 3-12.7 4.6s-8.4 3.2-12.6 4.9c-4.2 1.7-8.4 3.3-12.6 5.1-4.2 1.7-8.4 3.5-12.5 5.2l.7-1.4c3.2 9.3 6.4 18.4 9.4 27.5 3 9.1 5.8 18.5 8.5 27.8 5.6 18.7 10.9 37.8 16.3 57.5z" class="st5"/>
  <path d="m1140.3 1532.7-16.8-84.7 33.9-15.5 51.1 71.8z" class="st4"/>
  <path d="m1140.1 1532.9-4.9-20.3-2.5-10.4-2.5-10.6c-1.6-7.1-3.2-14.3-4.5-21.6-1.4-7.2-2.5-14.5-3.8-21.7l-.1-1.2 1-.4c5.8-2.3 11.6-4.6 17.2-7.1l8.5-3.8 8.4-3.9.6-.3.4.4c4.3 5.9 8.8 11.7 13.3 17.5 4.5 5.8 9 11.6 13.3 17.5l13 17.8 6.5 8.8 6.4 9 1.7 2.5-2.9 1.2c-11.7 4.8-23.5 9.4-35.2 13.8-5.8 2.2-11.6 4.2-17.2 6.4l-16.7 6.4zm.3-.5 34-15.8c11.2-5.1 22-10 33-14.6l-1 3.6-6.4-9-6.2-9-12.5-18.1c-4.2-6.1-8.3-12.2-12.3-18.2s-8.1-12.3-12.3-18.2l.9.3-8.5 3.8-8.4 3.9c-5.6 2.6-11.2 5.5-16.7 8.3l.7-1.6c1.6 7 3.3 13.8 4.8 20.7s2.6 13.9 3.9 20.9l1.7 10.6 1.7 10.7 3.6 21.7z" class="st5"/>
  <path d="m132.8 1035.8 84.6 10.7-.5 18.5-83 16-10.5-23.2z" class="st4"/>
  <path d="M132.6 1035.6c7 .6 13.9 1.3 20.9 2 7.1.7 14.2 1.4 21.3 2.3 7.1.9 14.2 1.6 21.3 2.6 7.1 1 14.2 2.2 21.3 3.2l.7.1v.6c-.1 1.6-.3 3-.3 4.6-.1 1.6-.1 3-.1 4.6 0 3-.1 6.2 0 9.3v.4l-.6.1-20.7 4.5c-7 1.4-13.8 2.9-20.7 4.2-7 1.4-13.8 2.8-20.7 4.2-7 1.3-13.9 2.6-20.7 3.9l-1.2.1-.4-1-10.3-23.3-.1-.4.1-.4 5.2-11 5-10.6zm.2.3-4.2 11.3-4.2 11v-.9l10.9 23-1.6-.9c7-1.4 13.8-2.8 20.7-4.1 7-1.3 13.9-2.6 20.7-3.9 7-1.3 13.9-2.5 20.9-3.8l20.9-3.5-.6.6c.3-3 .3-6.2.4-9.3v-4.6c0-1.6 0-3-.1-4.6l.6.7c-7.1-.7-14-1.4-21-2.2-7-.7-13.9-1.7-21-2.8-7-1-14-1.9-21.1-3-7-.7-14.1-1.8-21.3-3z" class="st5"/>
  <path d="m983.1 1933.2 12.8-84.3 18.4.7 14 83.4-23.4 10z" class="st4"/>
  <path d="M983 1933.2c.7-6.8 1.6-13.9 2.5-20.9.9-7 1.9-14 2.9-21.1 1-7.1 2-14.2 3.2-21.3 1.2-7.1 2.5-14.2 3.8-21.1l.1-.7h.6c1.6.1 3 .3 4.6.4 1.6.1 3 .1 4.6.3 3 0 6.2.3 9.3.1h.4l.1.6 3.9 20.7c1.3 7 2.6 13.9 3.8 20.9 1.2 7 2.5 13.9 3.6 20.9 1.2 7 2.3 13.9 3.5 20.9l.1 1.2-1 .4-23.6 9.7-.4.1-.4-.1-10.9-5.4-10.7-5.6zm.1-.2 11.2 4.5 10.9 4.5h-.9l23.3-10.3-.9 1.6c-1.2-7-2.5-13.9-3.6-20.9-1.2-7-2.2-13.9-3.3-20.9-1.2-7-2.2-13.9-3.2-20.9l-3-20.9.6.6c-3-.3-6.1-.4-9.3-.6-1.6 0-3-.1-4.6-.1h-4.6l.7-.6c-.9 7-1.7 14-2.8 21-.9 7-2 13.9-3.2 20.9s-2.3 13.9-3.6 21c-.9 7-2.2 14-3.7 21.1z" class="st5"/>
</svg>
