<svg xmlns="http://www.w3.org/2000/svg" xml:space="preserve" style="enable-background:new 0 0 2000 2000" viewBox="0 0 2000 2000">
  <linearGradient id="a" x1="285.65" x2="1820.97" y1="1040.508" y2="1040.508" gradientUnits="userSpaceOnUse">
    <stop offset=".011" style="stop-color:#d9bf52"/>
    <stop offset=".101" style="stop-color:#cbaf3f"/>
    <stop offset=".187" style="stop-color:#dac34b"/>
    <stop offset=".533" style="stop-color:#e3cd51"/>
    <stop offset=".779" style="stop-color:#f4f08e"/>
    <stop offset="1" style="stop-color:#e3cd51"/>
  </linearGradient>
  <path d="m1821 462.9-44.1 310.2-274.2 335.6-334.9 58.2-28.2 350.6h-25.1l-10.6 238.5-50.6 171.8-50.6-171.8-10.6-238.5h-25l-28.3-350.6-334.9-58.2-274.1-335.6-44.1-310.2 156.2-309.7 12.6 252.4 140.9 222.9L810.9 778l183.3 6.3-39.1-64.4v-88.4l58.1-55.8 37.2-25.6 43 25.6 58.2 55.8v88.4l-39.2 64.4 183.3-6.3 215.5-149.5 140.9-222.9 12.7-252.4z" style="fill:url(#a)"/>
  <path d="m1821.3 462.9-43 310.5-.1.4-.3.3-273.4 336.2-.6.7-.9.2-334.8 58.6 2.5-2.7-28.1 350.6-.2 2.9h-28l3.1-3-10.7 238.5v.4l-.1.3-51 171.7-2.5 8.5-2.5-8.5-50.2-171.9-.1-.3v-.3l-10-238.5 1.7 1.6-25.1-.1h-1.5l-.1-1.5-27.7-350.5.9 1-334.9-58.2-.4-.1-.3-.3-274.6-335.1-.3-.4-.1-.5-44.8-310.1-.1-.7.3-.7 155.7-310 5.1-10.2.6 11.5 13 252.4-.5-1.6 141.1 222.7-1-1.1L813 774.9l-2-.9 183.3 6.2-3.6 6.2-36.5-66.1-.1-.3v-.3l-2.8-88.4v-1.5l1.2-1.3c4.6-4.9 9.4-9.6 14.2-14.3 4.8-4.7 9.6-9.4 14.5-14l14.7-13.8c4.9-4.6 9.9-9.1 14.9-13.6l.3-.3.2-.1 9.6-6c3.2-2 6.4-3.9 9.7-5.8 3.3-1.9 6.6-3.8 9.9-5.6 3.3-1.8 6.7-3.6 10.1-5.2 3.9 1.5 7.7 3.3 11.6 5 3.8 1.8 7.5 3.6 11.3 5.5 7.4 3.8 14.8 7.8 22 11.9l.3.2.3.3c9.8 9.1 19.6 18.3 29.4 27.6 9.7 9.2 19.4 18.6 29 27.9l1.2 1.2v1.7l-.3 44.2-.2 44.2v1l-.5.8-39.3 64.4-2.9-5 183.3-5.9-1.6.5 215.8-149-.6.7 141.4-222.6-.3.8 13.2-252.4.2-4.3 1.9 3.8 155.5 310.6zm-.7.1-156.9-309.3 2.1-.5-12.1 252.4v.4l-.2.4-140.4 223.2-.2.4-.4.3-215.1 150-.7.5h-.9l-183.3 6.7-6.1.2 3.2-5.3 39-64.5-.5 1.8-.2-44.2-.3-44.2 1.2 2.9c-9.7-9.3-19.5-18.5-29.1-27.9-9.6-9.3-19.2-18.8-28.8-28.2l.7.5c-7.1-4.4-14.1-8.9-21-13.7-3.4-2.4-6.9-4.8-10.2-7.3-3.4-2.5-6.7-5-10-7.7-2.7 2.6-5.6 5.1-8.5 7.6-2.9 2.5-5.8 4.9-8.7 7.2-2.9 2.4-5.9 4.7-8.9 7s-6 4.5-9 6.8l.5-.4c-4.7 4.8-9.4 9.6-14.2 14.3-4.8 4.7-9.5 9.5-14.4 14.1-4.8 4.7-9.7 9.3-14.6 13.9s-9.8 9.1-14.9 13.6l1.2-2.8-2.8 88.4-.1-.5 41.8 62.9 4.3 6.5-8-.3-183.3-6.5h-1.2l-1-.7-215.3-149.5-.6-.4-.4-.6-140.6-223.1-.5-.8v-.9l-12.3-252.4 5.7 1.2L287.8 464l.2-1.4 43.5 310.3-.4-.9 273.7 336-.7-.4 334.9 58.2.8.1.1.9 28.8 350.5-1.6-1.5 25.1-.1h1.6l.1 1.6 11.1 238.5-.1-.5 51 171.7h-5l50.3-171.9-.1.7 10.4-238.5.1-3h28.1l-3.1 2.9 28.4-350.6.2-2.3 2.3-.4 335-57.8-1.5.9 274.9-334.9-.3.7 45-309.8z" style="fill:#996e30"/>
  <linearGradient id="b" x1="406.835" x2="994.19" y1="499.511" y2="499.511" gradientUnits="userSpaceOnUse">
    <stop offset="0" style="stop-color:#fff2b0;stop-opacity:.4"/>
    <stop offset=".846" style="stop-color:#fff2b0"/>
  </linearGradient>
  <path d="m441.9 153.2-35 270.6s128.9 230 133.9 237.6c5.1 7.6 232.5 184.5 232.5 184.5l220.9-61.5-195.6 5.9-203.2-161.8-140.9-222.9-12.6-252.4z" style="fill:url(#b)"/>
  <linearGradient id="c" x1="960.031" x2="1547.386" y1="499.511" y2="499.511" gradientTransform="matrix(-1 0 0 1 2664.578 0)" gradientUnits="userSpaceOnUse">
    <stop offset="0" style="stop-color:#fff2b0;stop-opacity:.4"/>
    <stop offset=".846" style="stop-color:#fff2b0"/>
  </linearGradient>
  <path d="m1669.5 153.2 35 270.6s-128.9 230-133.9 237.6c-5.1 7.6-232.5 184.5-232.5 184.5l-220.9-61.5 195.6 5.9L1516 628.5l140.9-222.9 12.6-252.4z" style="fill:url(#c)"/>
  <linearGradient id="d" x1="358.817" x2="938.808" y1="680.098" y2="680.098" gradientUnits="userSpaceOnUse">
    <stop offset="0" style="stop-color:#b4954b;stop-opacity:.2"/>
    <stop offset=".813" style="stop-color:#b09249"/>
  </linearGradient>
  <path d="m429.8 193.3-50.8 238 131.5 270.5 242.6 187h166.8l18.9 278.1-54.3-255.4h-139L495.3 711.9 358.8 428.8z" style="fill:url(#d)"/>
  <linearGradient id="e" x1="906.467" x2="1486.458" y1="680.098" y2="680.098" gradientTransform="matrix(-1 0 0 1 2657.214 0)" gradientUnits="userSpaceOnUse">
    <stop offset="0" style="stop-color:#c9a654;stop-opacity:.2"/>
    <stop offset=".813" style="stop-color:#c9a654"/>
  </linearGradient>
  <path d="m1679.7 193.3 50.8 238-131.4 270.5-242.6 187h-166.8l-18.9 278.1 54.3-255.4h139l250.2-199.6 136.4-283.1z" style="fill:url(#e)"/>
  <linearGradient id="f" x1="1053.427" x2="1144.006" y1="640.785" y2="640.785" gradientUnits="userSpaceOnUse">
    <stop offset="0" style="stop-color:#fff2b0;stop-opacity:.4"/>
    <stop offset=".846" style="stop-color:#fff2b0"/>
  </linearGradient>
  <path d="m1053.4 562.4 64.4 83.5 26.2 73.3V634z" style="fill:url(#f)"/>
  <linearGradient id="g" x1="1053.31" x2="1102.493" y1="1705.134" y2="1705.134" gradientUnits="userSpaceOnUse">
    <stop offset="0" style="stop-color:#fff2b0;stop-opacity:.4"/>
    <stop offset=".846" style="stop-color:#fff2b0"/>
  </linearGradient>
  <path d="M1053.3 1897.1c10.3-4.1 10.6-142.1 10.6-142.1v-241.8h38.6V1745l-49.2 152.1z" style="fill:url(#g)"/>
  <linearGradient id="h" x1="1119.496" x2="1180.811" y1="1195.183" y2="1195.183" gradientUnits="userSpaceOnUse">
    <stop offset="0" style="stop-color:#fff2b0;stop-opacity:.4"/>
    <stop offset=".846" style="stop-color:#fff2b0"/>
  </linearGradient>
  <path d="m1119.5 1444.3 24.5-555.5h36.8l-49.1 612.8z" style="fill:url(#h)"/>
  <linearGradient id="i" x1="1813.501" x2="1482.461" y1="644.827" y2="644.827" gradientUnits="userSpaceOnUse">
    <stop offset="0" style="stop-color:#fff2b0"/>
    <stop offset="1" style="stop-color:#fff2b0;stop-opacity:.4"/>
  </linearGradient>
  <path d="M1679.7 193.3c5.7 10.8 11.3 21.7 16.9 32.6l16.6 32.7c11.1 21.8 22 43.7 32.8 65.6l16.2 32.9 16.1 32.9c10.7 22 21.3 44 31.9 66l1 2.2-.3 2.7-2.1 18.8-2.2 18.8-4.4 37.7c-3 25.1-6 50.2-9.2 75.3-3.1 25.1-6.4 50.1-9.6 75.2-3.2 25.1-6.6 50.1-10 75.2l-.4 3.1-1.9 2.3-34.2 41.8-34.4 41.6c-23 27.7-46.1 55.3-69.4 82.8-23.3 27.5-46.7 54.8-70.4 82-11.8 13.6-23.7 27.2-35.7 40.6-11.9 13.5-23.9 27-36.1 40.3 10.5-14.7 21.1-29.2 31.9-43.7 10.7-14.5 21.5-29 32.3-43.4 21.7-28.8 43.5-57.5 65.5-86s44.2-56.9 66.4-85.2l33.5-42.4 33.7-42.2-2.3 5.4c3.3-25.1 6.4-50.1 9.8-75.2 3.3-25.1 6.6-50.1 10.1-75.1 3.4-25 7-50.1 10.5-75.1l5.4-37.5 2.7-18.8 2.8-18.7.7 4.9c-9.9-22.4-19.6-44.8-29.3-67.2l-14.5-33.7-14.4-33.7c-9.6-22.5-19.1-45-28.4-67.6l-14-33.9c-4.4-11.3-9.1-22.6-13.6-34z" style="fill:url(#i)"/>
  <linearGradient id="j" x1="292.689" x2="629.149" y1="656.614" y2="656.614" gradientUnits="userSpaceOnUse">
    <stop offset="0" style="stop-color:#c9a654;stop-opacity:.5"/>
    <stop offset=".813" style="stop-color:#b38c48"/>
  </linearGradient>
  <path d="M429.6 205.1c-2.1 5.7-4.3 11.5-6.5 17.2l-6.6 17.1c-4.5 11.4-9 22.8-13.5 34.1-9.1 22.7-18.3 45.3-27.7 67.9l-7 16.9-7.1 16.9c-4.7 11.3-9.5 22.5-14.3 33.8-9.5 22.5-19.3 44.9-29 67.3l1-6.5c3.7 25 7.5 50 11.1 75 3.7 25 7.1 50 10.6 75.1 1.8 12.5 3.4 25 5.1 37.6l5 37.6 4.8 37.6 2.4 18.8 2.3 18.8-2.9-6.8c11.2 14.1 22.5 28.1 33.6 42.3 11.1 14.2 22.3 28.3 33.4 42.5 11.1 14.2 22.2 28.4 33.1 42.7l16.5 21.4 16.4 21.5c21.8 28.7 43.5 57.4 64.9 86.5 21.4 29 42.6 58.2 63.3 87.8-24.6-26.4-48.7-53.2-72.6-80.2-23.9-27-47.5-54.2-71-81.5L457.3 926l-17.5-20.6c-11.7-13.7-23.2-27.5-34.8-41.3-11.6-13.8-23.1-27.7-34.6-41.5s-22.9-27.8-34.4-41.7l-2.4-2.9-.5-3.9-2.6-18.8-2.5-18.8-5-37.6-4.9-37.6c-1.6-12.5-3.3-25.1-4.8-37.6-3.1-25.1-6.2-50.2-9.1-75.3-3-25.1-5.8-50.2-8.6-75.3l-.4-3.6 1.4-2.8c10.7-22 21.4-43.9 32.3-65.8 5.4-11 10.9-21.9 16.3-32.8l8.2-16.4 8.3-16.4c11-21.8 22.2-43.5 33.5-65.2 5.7-10.8 11.4-21.7 17.1-32.5l8.7-16.2c2.7-5.6 5.6-10.9 8.6-16.3z" style="fill:url(#j)"/>
</svg>
