<svg xmlns="http://www.w3.org/2000/svg" xml:space="preserve" style="enable-background:new 0 0 2000 2000" viewBox="0 0 2000 2000">
  <linearGradient id="a" x1="156.603" x2="1845.889" y1="-398.819" y2="-398.819" gradientTransform="translate(0 1400)" gradientUnits="userSpaceOnUse">
    <stop offset=".011" style="stop-color:#d9bf52"/>
    <stop offset=".101" style="stop-color:#cbaf3f"/>
    <stop offset=".187" style="stop-color:#dac34b"/>
    <stop offset=".533" style="stop-color:#e3cd51"/>
    <stop offset=".779" style="stop-color:#f4f08e"/>
    <stop offset="1" style="stop-color:#e3cd51"/>
  </linearGradient>
  <path d="M1845.9 365.7 1797.4 707l-301.7 369.2-368.5 64.1-31.1 385.8h-27.5l-11.7 262.3-55.7 189-55.6-189-11.7-262.3h-27.6l-31-385.8-368.5-64.1L205.1 707l-48.5-341.3 172-340.8 13.7 277.8 155.1 245.2 237.1 164.5 201.8 6.9-43.1-70.8v-97.2l63.9-61.5 40.9-28.1 47.4 28.1 64 61.5v97.2l-43.2 70.8 201.8-6.9 237-164.5 155-245.2 14.1-277.8z" style="fill:url(#a)"/>
  <path d="m1846.3 365.7-47.4 341.7-.1.4-.4.4-300.8 369.8-.7.8-1 .3-368.3 64.5 2.8-3-31 385.8-.3 3.1h-30.8l3.4-3.3-11.8 262.5v.4l-.1.4-56.1 188.9-2.8 9.3-2.8-9.3-55.2-189.1-.1-.4v-.4l-11-262.5 1.8 1.7-27.7-.1h-1.7l-.1-1.7-30.4-385.6 1 1-368.2-63.7-.4-.1-.4-.4-302-368.8-.4-.4-.1-.5-49.3-341.2-.1-.8.4-.8 171.3-341 5.6-11.3.7 12.6L346 302.6l-.5-1.7 155.3 245-1-1.2 237.1 164.2-2.2-1 201.7 6.8-3.9 6.8-40.3-72.7-.1-.4v-.4l-3-97.3V549l1.3-1.4c5.1-5.4 10.4-10.6 15.6-15.7 5.2-5.1 10.6-10.4 16-15.3 5.4-5.1 10.8-10.1 16.1-15.2 5.4-5.1 10.9-10 16.4-15l.4-.4.3-.1c3.5-2.2 7.1-4.5 10.6-6.6 3.5-2.2 7.1-4.3 10.6-6.4 3.5-2.1 7.2-4.2 10.9-6.2s7.3-3.9 11.1-5.8c4.3 1.7 8.5 3.7 12.7 5.5 4.2 2 8.3 3.9 12.5 6 8.1 4.2 16.3 8.5 24.3 13.1l.4.3.4.4c10.8 10 21.5 20.2 32.4 30.4 10.6 10.1 21.4 20.5 31.9 30.7l1.3 1.3v1.8l-.4 48.7-.3 48.7v1l-.5.9-43.3 70.8-3.1-5.5 201.7-6.4-1.7.5 237.4-164-.7.8L1659 301.1l-.4.9 14.6-277.7.3-4.7 2.1 4.2 170.7 341.9zm-.8.1L1672.9 25.6l2.4-.5-13.3 277.6v.4l-.3.4L1507.2 549l-.3.4-.4.4-236.6 165-.8.5h-1l-201.7 7.3-6.7.3 3.5-5.8 42.9-71-.5 2-.3-48.7-.4-48.7 1.3 3.1c-10.6-10.2-21.5-20.3-32-30.7-10.6-10.2-21.1-20.7-31.7-31.1l.8.5c-7.9-4.9-15.5-9.8-23.1-15.1-3.8-2.6-7.6-5.2-11.3-8-3.8-2.8-7.3-5.5-11-8.5-3 2.9-6.2 5.6-9.3 8.4-3.1 2.8-6.4 5.4-9.6 7.9-3.1 2.6-6.4 5.1-9.8 7.7-3.3 2.5-6.6 5-9.8 7.5l.5-.4c-5.1 5.2-10.4 10.6-15.6 15.7-5.2 5.1-10.5 10.5-15.9 15.5-5.2 5.1-10.6 10.2-16 15.3-5.4 5.1-10.8 10-16.4 15l1.3-3-3 97.3-.1-.5 46 69.3 4.7 7.2-8.8-.4-201.7-7.2h-1.3l-1-.8-237-164.1-.7-.4-.4-.7-154.7-245.5-.5-.9v-1L325.3 25l6.3 1.3L159 366.9l.3-1.6 47.9 341.4-.4-1L508 1075.3l-.8-.4 368.4 64 .9.1.1 1 31.7 385.6-1.7-1.7 27.7-.1h1.7l.1 1.7 12.2 262.5-.1-.5 56.1 188.9h-5.5l55.4-189.1-.1.8 11.4-262.5.1-3.3h31l-3.4 3.1 31.2-385.8.3-2.5 2.5-.4 368.6-63.6-1.7 1 302.5-368.4-.4.8 49.3-340.7z" style="fill:#996e30"/>
  <linearGradient id="b" x1="289.999" x2="936.253" y1="-993.985" y2="-993.985" gradientTransform="translate(0 1400)" gradientUnits="userSpaceOnUse">
    <stop offset="0" style="stop-color:#fff2b0;stop-opacity:.4"/>
    <stop offset=".846" style="stop-color:#fff2b0"/>
  </linearGradient>
  <path d="M328.6 24.9 290 322.7s141.8 253 147.3 261.4c5.6 8.4 255.8 203 255.8 203l243.2-67.7L721 726 497.4 547.9l-155-245.3-13.8-277.7z" style="fill:url(#b)"/>
  <linearGradient id="c" x1="2846.838" x2="3493.093" y1="-993.985" y2="-993.985" gradientTransform="matrix(-1 0 0 1 4564.578 1400)" gradientUnits="userSpaceOnUse">
    <stop offset="0" style="stop-color:#fff2b0;stop-opacity:.4"/>
    <stop offset=".846" style="stop-color:#fff2b0"/>
  </linearGradient>
  <path d="m1679.2 24.9 38.6 297.7S1576 575.6 1570.5 584c-5.6 8.4-255.8 203-255.8 203l-243.2-67.7 215.2 6.4 223.6-178 155-245.3 13.9-277.5z" style="fill:url(#c)"/>
  <linearGradient id="d" x1="237.139" x2="875.261" y1="-795.268" y2="-795.268" gradientTransform="translate(0 1400)" gradientUnits="userSpaceOnUse">
    <stop offset="0" style="stop-color:#b4954b;stop-opacity:.2"/>
    <stop offset=".813" style="stop-color:#b09249"/>
  </linearGradient>
  <path d="m315.2 69.1-55.9 261.8L404 628.5l266.9 205.8h183.5l20.9 306-59.9-281H662.5L387.3 639.7 237.1 328.2z" style="fill:url(#d)"/>
  <linearGradient id="e" x1="2788.713" x2="3426.704" y1="-795.268" y2="-795.268" gradientTransform="matrix(-1 0 0 1 4557.214 1400)" gradientUnits="userSpaceOnUse">
    <stop offset="0" style="stop-color:#c9a654;stop-opacity:.2"/>
    <stop offset=".813" style="stop-color:#c9a654"/>
  </linearGradient>
  <path d="m1690.5 69.1 55.8 261.8-144.5 297.6-266.9 205.8h-183.5l-20.9 306 59.8-281h152.8l275.3-219.6 150.1-311.5z" style="fill:url(#e)"/>
  <linearGradient id="f" x1="1001.312" x2="1100.998" y1="-838.553" y2="-838.553" gradientTransform="translate(0 1400)" gradientUnits="userSpaceOnUse">
    <stop offset="0" style="stop-color:#fff2b0;stop-opacity:.4"/>
    <stop offset=".846" style="stop-color:#fff2b0"/>
  </linearGradient>
  <path d="m1001.3 475.2 70.8 91.8 28.9 80.7V554z" style="fill:url(#f)"/>
  <linearGradient id="g" x1="1001.18" x2="1055.352" y1="332.562" y2="332.562" gradientTransform="translate(0 1400)" gradientUnits="userSpaceOnUse">
    <stop offset="0" style="stop-color:#fff2b0;stop-opacity:.4"/>
    <stop offset=".846" style="stop-color:#fff2b0"/>
  </linearGradient>
  <path d="M1001.2 1943.7c11.3-4.5 11.7-156.3 11.7-156.3v-266h42.5v255l-54.2 167.3z" style="fill:url(#g)"/>
  <linearGradient id="h" x1="1074.109" x2="1141.528" y1="-228.566" y2="-228.566" gradientTransform="translate(0 1400)" gradientUnits="userSpaceOnUse">
    <stop offset="0" style="stop-color:#fff2b0;stop-opacity:.4"/>
    <stop offset=".846" style="stop-color:#fff2b0"/>
  </linearGradient>
  <path d="m1074.1 1445.6 26.9-611.3h40.5l-54 674.2z" style="fill:url(#h)"/>
  <linearGradient id="i" x1="1837.659" x2="1473.425" y1="-833.962" y2="-833.962" gradientTransform="translate(0 1400)" gradientUnits="userSpaceOnUse">
    <stop offset="0" style="stop-color:#fff2b0"/>
    <stop offset="1" style="stop-color:#fff2b0;stop-opacity:.4"/>
  </linearGradient>
  <path d="M1690.5 69.1c6.3 11.9 12.5 23.9 18.6 35.8l18.2 35.9c12.2 24 24.3 48.1 36.1 72.1l17.8 36.2 17.7 36.2c11.8 24.3 23.5 48.4 35.2 72.7l1 2.4-.4 3-2.4 20.7-2.4 20.7-4.9 41.4c-3.3 27.7-6.6 55.2-10.1 82.9-3.4 27.7-7.1 55.1-10.6 82.8-3.5 27.7-7.2 55.1-11 82.8l-.4 3.4-2.1 2.5-37.6 46-37.9 45.8c-25.3 30.4-50.8 60.9-76.3 91.2-25.6 30.3-51.4 60.3-77.5 90.2-13 15-26.1 29.9-39.2 44.7-13.1 14.8-26.2 29.6-39.7 44.3 11.5-16.1 23.2-32.1 35.2-48.1 11.8-16 23.6-31.9 35.5-47.7 23.9-31.7 47.9-63.2 72-94.6 24.1-31.3 48.7-62.6 73.1-93.8l36.9-46.7 37.1-46.4-2.5 5.9c3.7-27.7 7.1-55.1 10.8-82.8 3.7-27.7 7.2-55.1 11.1-82.6 3.8-27.5 7.7-55.1 11.5-82.6l5.9-41.3 3-20.7 3-20.6.8 5.4c-10.9-24.7-21.5-49.3-32.3-74l-16-37.1-15.9-37.1c-10.6-24.8-21-49.4-31.2-74.4l-15.3-37.3c-4.7-12.3-9.9-24.7-14.8-37.2z" style="fill:url(#i)"/>
  <linearGradient id="j" x1="164.353" x2="534.549" y1="-820.977" y2="-820.977" gradientTransform="translate(0 1400)" gradientUnits="userSpaceOnUse">
    <stop offset="0" style="stop-color:#c9a654;stop-opacity:.5"/>
    <stop offset=".813" style="stop-color:#b38c48"/>
  </linearGradient>
  <path d="M315.1 82.1c-2.4 6.3-4.7 12.6-7.2 18.9l-7.2 18.8c-5 12.6-9.8 25.1-14.8 37.5-10 24.9-20.2 49.8-30.4 74.8l-7.7 18.6-7.9 18.6c-5.1 12.5-10.5 24.8-15.7 37.3-10.5 24.8-21.2 49.4-31.9 74.1l1-7.2c4.1 27.5 8.3 55 12.2 82.5 4.1 27.5 7.9 55 11.7 82.6 2 13.8 3.8 27.5 5.6 41.3l5.5 41.3 5.2 41.3 2.6 20.7 2.5 20.7-3.1-7.5c12.3 15.5 24.8 31 37 46.6 12.2 15.6 24.5 31.1 36.7 46.8 12.2 15.6 24.4 31.2 36.5 47l18.1 23.6 18.1 23.6c24 31.6 47.9 63.1 71.4 95.2 23.6 31.9 46.8 64 69.6 96.7-27-29-53.6-58.5-79.9-88.3-26.3-29.6-52.3-59.6-78.2-89.6l-19.4-22.6-19.3-22.7c-12.9-15.1-25.6-30.3-38.3-45.4-12.7-15.2-25.4-30.4-38-45.6-12.6-15.2-25.2-30.6-37.9-45.9l-2.6-3.1-.5-4.3-2.9-20.7-2.8-20.7-5.5-41.3-5.4-41.3c-1.7-13.8-3.7-27.7-5.2-41.3-3.4-27.7-6.8-55.2-10-82.9-3.3-27.7-6.4-55.2-9.4-82.9l-.4-3.9 1.6-3c11.8-24.3 23.6-48.3 35.5-72.4 5.9-12.1 11.9-24.1 18-36.1l8.9-18.4 9.2-18.1c12.1-24 24.4-47.9 36.9-71.7 6.3-11.9 12.6-23.9 18.8-35.8l9.6-17.8c2.8-6.3 5.9-12.1 9.4-18z" style="fill:url(#j)"/>
</svg>
