<svg xmlns="http://www.w3.org/2000/svg" xml:space="preserve" id="Layer_1" x="0" y="0" style="enable-background:new 0 0 1000 1000" version="1.1" viewBox="0 0 1000 1000"><style>.st177{fill:#9ca090}.st178{fill:#1c1c1b}.st179{fill:#d2d6c4}.st181{fill:#636657}</style><path d="m702.66 817.53 134.07-85.14 13.9 11.27-2.19 12.81-132.65 85.04z" class="st177"/><path d="M702.51 817.5c43.96-29.18 89.37-59.06 134.53-85.49 4.07 3.24 9.76 8 13.93 11.23l.25.2c-.38 2.24-.68 4.49-1.01 6.74l-.92 6.43-.05.35c-11.03 7.36-22.12 14.65-33.22 21.91-18.7 12.16-47.55 30.92-66.25 42.64l-33.41 20.87-.97.61c-3.38-6.58-9.62-18.86-12.88-25.49zm.29.07c3.55 5.8 10.44 17.6 13.9 23.44l-1.47-.38c11.06-7.29 38.7-25.48 49.44-32.36 25.67-16.47 57.46-36.59 83.31-52.52l-.38.57 1.26-6.38c.41-2.13.86-4.25 1.23-6.38l.19.51c-4.09-3.38-9.76-8.07-13.86-11.31-41.11 28.42-89.2 57.8-133.62 84.81z" class="st178"/><path d="m709.19 826.4 141.44-82.74-13.9-11.27-130.64 83.52z" class="st179"/><path d="m711.18 884.21 134.08-85.14 13.89 11.27-2.18 12.81-132.65 85.04z" class="st177"/><path d="M711.04 884.18C755 855 800.4 825.11 845.57 798.69c4.07 3.24 9.76 8 13.93 11.23l.25.2c-.38 2.24-.68 4.49-1.01 6.74l-.92 6.43-.05.35c-11.03 7.36-22.12 14.65-33.22 21.91-18.7 12.16-47.55 30.92-66.25 42.64l-33.41 20.87-.97.61c-3.38-6.58-9.62-18.86-12.88-25.49zm.29.07c3.55 5.8 10.44 17.6 13.9 23.44l-1.47-.38c11.06-7.29 38.7-25.48 49.44-32.36 25.67-16.47 57.46-36.59 83.31-52.52l-.38.57 1.26-6.38c.41-2.13.86-4.25 1.23-6.38l.19.51c-4.09-3.38-9.76-8.07-13.86-11.31-41.12 28.42-89.21 57.8-133.62 84.81z" class="st178"/><path d="m717.71 893.08 141.44-82.74-13.89-11.27-130.64 83.52z" class="st179"/><path d="M583.25 404.05c-3.47 0-33.54-28.96-33.54-28.96l-150.27 70.08-112.34 25.05-22.65 21.55-5.01 67.35 102.83 11.23 110.36-49.47 87.47-40.23 23.15-76.6z" class="st177"/><path d="M583.09 404.17c-.03.03-.05.06-.06.06-.19-.03-.36-.11-.53-.17-3.12-1.59-5.78-3.95-8.52-6.1-8.56-7.11-16.81-14.57-24.96-22.15l1.11.18-37.37 17.93c-36.41 17.3-76.32 36.21-112.82 52.74-31.84 6.77-81.26 17.07-112.69 24.16 1.24-.86-22.53 21.6-22.29 21.48l.22-.46c-1.37 18.89-3.27 48.3-4.56 67.39l-1.04-1.25c12.9 1.22 38.6 3.88 51.47 5.17l51.45 5.35-.98.15c29.24-13.39 70.1-31.72 99.02-44.61 32.43-14.51 66.62-30.17 99.02-44.61l-.73.84c5.95-18.96 18.21-57.16 24.26-76.1zm.32-.24c-5.48 19.24-16.42 57.91-21.99 77.13l-.16.57-.57.27c-49.1 23.23-98.29 46.25-147.98 68.18l-49.65 22.01-.48.21c-29.17-3.51-74.38-8.38-103.26-12.01l-1.13-.13.09-1.11 2.76-33.66c.79-8.55 2-25.39 2.72-33.94l.2-.19c.12-.12 22.73-21.49 22.84-21.59.05-.03 28.15-6.33 28.24-6.36 16.97-3.86 67.42-15.8 83.75-19.54 48.26-23.15 101.57-47.41 150.5-69.58l.63-.28.48.47c7.93 7.76 15.86 15.54 24.16 22.9 2.43 2.11 4.82 4.31 7.52 6.06.42.27.88.44 1.33.59z" class="st178"/><path d="m549.71 375.09-103.66 81.07-136.63 10.27-42.54 36.45-8.82 57.54-16.85-97.05L70 322.96l28.09-213.32 21.59-27.75 7.04-9.06 128.8-51.12 153.36 65.44 67.47 101.19 19.23 160.26z" style="fill:#d2d6c8"/><path d="M549.96 375.06 446.71 457l-.25.2-.33.03-136.56 11.12 1.11-.46c-12.07 10.4-30.33 26.43-42.34 36.68l.75-1.36-11.03 57.2c.3.09-18.26-98.51-17.31-96.49-3.56-2.93-7.23-5.73-10.84-8.6-45.74-35.6-119.27-93.98-165.56-130.12l.43-2.94 31.33-212.9.08-.55.32-.42 28.46-36.94.37-.47c.25-.53 128.94-51.03 129.31-51.5l.92-.36.89.39c.32.14 152.95 66.46 153.24 66.59 6.17 8.23 11.97 16.71 17.68 25.25 15.13 22.48 35.79 53.21 50.68 75.84l.28.42.05.48 17.93 160.42-.41-.58 54.05 27.13zm-.5.06-54.21-25.85-.36-.17-.05-.41c.44.87-21.5-163.78-20.21-159.21-15.16-22.43-35.61-53.35-50.52-75.95-5.6-8.45-11.13-16.94-16.3-25.68 3.28 1.48-154.02-64.1-153.23-63.95l1.81.02-128.85 50.97.93-.7-28.8 36.67c1.03-5.48-24.57 214.16-24.45 212.78l-1.88-4.76c44.17 37.39 114.34 98.1 157.78 134.97 3.52 2.99 6.98 6.04 10.56 8.95l.21.17.04.27 16.13 97.17 6.62-57.87.09-.78c6.25-5.48 15.58-13.2 22.02-18.71l21.38-18.09.49-.42c.55.31 136.7-9.67 137.31-9.46-2.48 1.74 103.92-80.41 103.49-79.96z"/><path d="m417.86 498.55-55.58 67.8 66.64-30.51 17.13-25.48z" class="st181"/><path d="m306.85 463.78-39.45 34.77-9.34 61.87-16.03-100.76L73.32 320.88l27.96-211.51 21.23-27.48-6.04 202.92 154 136.07z" class="st177"/><path d="m310.4 230.92-55.08 41.03-2.06 1.53h-86.32l3.05-17.17 6.68-37.54 57.14-8.52z" class="st177"/><path d="m260.56 230.92-5.24 41.03-2.06 1.53h-86.32l3.05-17.18c15.54-9.22 39.49-25.38 39.49-25.38h51.08z" class="st181"/><path d="m455.6 180.37-64.22 47.05h-.07l-2.37-.12-65.21-3.08 26.82-34.98 17.95-23.43 47.52-24.27 27.15 26.64z" class="st177"/><path d="m422.83 183.45-31.52 43.96-2.37-.12-65.21-3.08 26.82-34.98c13.67-4.64 34-11.7 48.62-17.5l23.66 11.72z" class="st181"/><path d="m356.72 315.15-17.03 22.96-3.47-1.84-34.29-18.15 7.21-18.64 16.27-42.09zm53.81-23.5-21.56 11.17-16.38 8.49-29.93-44.11-6.63-9.78 65.33 7.15z" class="st177"/><path d="M342.66 319.5s-3.17 8.37-6.44 16.77l-34.29-18.15 7.22-18.64c10.28-1.21 20.18-1.72 20.18-1.72l13.33 21.74zm46.31-16.68-16.38 8.49-29.93-44.11 35.55 12.49z" class="st181"/><linearGradient id="SVGID_00000074411016468645129390000011252671224868863912_" x1="404.531" x2="372.368" y1="479.204" y2="385.795" gradientUnits="userSpaceOnUse"><stop offset=".296" style="stop-color:#000;stop-opacity:0"/><stop offset=".543" style="stop-color:#040303;stop-opacity:.2441"/><stop offset=".767" style="stop-color:#0f0d0d;stop-opacity:.4668"/><stop offset=".983" style="stop-color:#211d1e;stop-opacity:.6806"/><stop offset="1" style="stop-color:#231f20;stop-opacity:.698"/></linearGradient><path d="m256.21 530.27 8.95-54.69 25-27.48 146.59-16.18 94.77-65.73-35.94-17.59-225.11 72.28-28.44 38.78z" style="fill:url(#SVGID_00000074411016468645129390000011252671224868863912_)"/><path d="M389.67 382.61c10.2 11.33 20.03 23.79 29.38 35.86 9.24 12.17 18.71 24.89 27 37.69-10.2-11.32-20.04-23.79-29.38-35.86-9.24-12.17-18.71-24.89-27-37.69zm-39.12 12.87c6.77 10.48 12.93 21.91 18.73 32.97 5.68 11.13 11.43 22.75 16.07 34.35-6.78-10.48-12.93-21.9-18.73-32.97-5.67-11.14-11.43-22.76-16.07-34.35zm-39.25 10.3c6.73 8.71 12.88 18.36 18.68 27.73 5.68 9.44 11.45 19.31 16.12 29.29-6.73-8.71-12.88-18.36-18.68-27.73-5.68-9.45-11.44-19.32-16.12-29.29zm-58.18 38.44c3.5 8.59 6.16 17.83 8.59 26.78 2.29 8.99 4.52 18.34 5.69 27.55-3.5-8.59-6.17-17.83-8.59-26.78-2.29-8.99-4.51-18.34-5.69-27.55zm179.62-75.11c10.06 7.88 19.88 16.85 29.22 25.6 9.25 8.85 18.74 18.14 27.16 27.77-10.07-7.87-19.88-16.85-29.22-25.6-9.25-8.85-18.74-18.15-27.16-27.77zm42.4-13.18c8.89 5.01 17.57 11.09 25.86 17.05 8.2 6.09 16.61 12.51 24.09 19.47-8.89-5.01-17.58-11.08-25.86-17.05-8.2-6.09-16.61-12.52-24.09-19.47z" class="st178"/><path d="M417.86 498.55 750.84 966.9l18.21 11.39 36.43-20.49L930 876.89v-18.21l-14.08-11.44-133.18 85.03-293.62-445.73-28.19-15.15z" class="st177"/><path d="M418.05 498.59c109.78 151.23 226 315.14 333.3 467.95l-.18-.17 18.2 11.4-.63-.01c9.6-5.42 26.8-15.14 36.22-20.47 28.47-18.46 95.3-62.33 124.39-81.38l-.53.98-.08-18.21.46.97-14.15-11.36 1.58.09-132.97 85.32-1.41.91-.93-1.41c-68-102.44-153.06-231.31-220.2-334.3-23.87-36.68-49.86-76.12-72.45-111.52l-28.06-15.39.69-.02-43.25 26.62zm-.39-.08 42.9-27.71.33-.21.36.19 28.31 14.92.21.11c24.75 37.06 49.54 74.09 74.16 111.23 68.14 102.37 152.95 231.37 220.23 334.28l-2.34-.5L915.2 846.1l.83-.53.75.62 14.01 11.52.46.38v.59l-.08 18.21v.64c-29.87 19.23-96.44 62.13-125.48 80.94-9.4 5.28-26.78 14.99-36.34 20.35l-.32.18-.31-.19-18.23-11.36-.11-.07-.07-.1C641.2 815.68 524.46 651.92 417.66 498.51z" class="st178"/><path d="m770.33 954.61-309.4-483.22 28.19 15.15 291.31 449.88zm4.62 3.31 10.23-23.56 128.17-83.81 14.08 11.44z" class="st179"/></svg>