<svg xmlns="http://www.w3.org/2000/svg" xml:space="preserve" id="Layer_1" x="0" y="0" style="enable-background:new 0 0 2000 2000" version="1.1" viewBox="0 0 2000 2000">
  <style>
    .st0{fill:#593a29}.st1{fill:#9e7157}.st2{opacity:.46}.st3{fill:#fff0cd}.st5{opacity:.86;fill:#c0997e;enable-background:new}.st7{fill:#feffff}.st8{fill:#3f979e}
  </style>
  <path d="M751.1 1049.2c-5.2-13-10.3-26.2-15.3-39.4l-7.5-19.8-7.2-19.9c-4.8-13.2-9.6-26.3-14.2-39.8-4.8-13.2-9.3-26.6-13.9-39.8l4.8 5.7c-13.9-6.6-27.8-13-41.8-19.8l-20.9-10.1-20.8-10.1 9.4.7c-44 16.4-88.1 32.3-132.3 47.7-44.2 15.5-88.7 30.6-133.2 45.1-44.6 14.7-89.4 28.7-134.2 42.3-45 13.5-90.2 26.3-135.7 38 43.1-19.1 86.4-37 130.1-54.2C262 958.5 306 941.9 350 925.7c44.1-16.3 88.4-31.8 132.7-47.1 44.4-15.4 88.9-30.2 133.6-44.5l5.2-1.7 4.3 2.4 20.3 11.1 20.3 11.2c13.5 7.5 27 14.9 40.5 22.4l3.7 2.2.9 3.6c3.5 13.7 7.1 27.1 10.6 40.8 3.5 13.7 6.8 27.2 10.3 40.9l5 20.5 4.8 20.6c2.9 13.5 6 27.3 8.9 41.1z" class="st0"/>
  <path d="m54.2 987.6 559.1-177.9 117.8 36.2 66.5 162.8-46.5 40.5-48.8-161.3-82.3-42-546.6 191z" class="st1"/>
  <g class="st2">
    <path d="M108.9 985.2c41.5-15.4 83.3-30.1 125.1-44.5 41.9-14.4 83.8-28.6 125.8-42.4l63.1-20.6 63.3-20.3 63.4-19.9c21.1-6.6 42.3-13 63.5-19.4l1-.2.9.2 25.8 8.1 25.8 8.3 25.8 8.5c8.6 2.7 17.1 5.8 25.7 8.6-8.8-2.2-17.5-4.3-26.3-6.6l-26.2-6.8-26.2-6.8-26.2-7h1.9c-20.9 7.2-41.9 14.4-62.8 21.6l-63.4 21-63.1 20.8-63.1 20.2c-42.3 13.5-84.4 26.7-126.6 39.6-42.2 13-84.6 25.8-127.2 37.6z" class="st3"/>
  </g>
  <linearGradient id="SVGID_1_" x1="37.579" x2="541.624" y1="-399.938" y2="-399.938" gradientTransform="translate(0 1400)" gradientUnits="userSpaceOnUse">
    <stop offset="0" style="stop-color:#779bd1;stop-opacity:.4"/>
    <stop offset="1" style="stop-color:#42a4b0;stop-opacity:.7235"/>
  </linearGradient>
  <path d="m37.6 996.3 72.8-176.1 195-69.4 163.9 71.7 72.3 178-74.7 184.3-157.4 64.5-198-63.5z" style="fill:url(#SVGID_1_)"/>
  <path d="m293 1286.1-188.4-86.4-83.3-200.8 83.3-200.8 197.1-84.6 204.6 84.6 83.3 200.8-83.3 200.8-213.3 86.4zm-155.9-120.7 168.4 62.6 165.2-61.5 71.1-166.2-69.2-166.9-167.1-69-166.2 73.2-70.1 162.8 67.9 165z" class="st0"/>
  <path d="m502 820.9-6.6-15.8-1.6-3.7-28.1-11.6-32.2-13.3L293 718.4 92.1 801.7 8.9 1002.5l14.4 34.7 11.1 26.7 11.3 27.2 6.6 15.8 39.9 96.4 131.6 54.6 19.1 8 50.1 20.8 200.8-83.3 54.4-131.4 11.3-27.2 17.5-42.3-75-181.6zm-19.7 292.6-24.2 56.5-156.6 58.3-8.5 3.2-17.6-6.6-150.6-55.9-35.4-85.9-6.6-15.9-11.2-27.2-11.1-26.8-3.7-9.3L126.9 841l166.2-73.2 93.3 38.5 32.2 13.3 32.8 13.5 8.9 3.6 3.5 8.5 65.5 158.4-35 82-12 27.9z" class="st1"/>
  <path d="m60.6 1013 10.9 26.9-37 23.6-11.1-26.6zM465.6 789.6l-47.1 30.1-32.2-13.4 47.1-30zM82.8 1067.1l6.6 15.9-37.2 23.6-6.4-16zM502 820.9l-38.3 24.4-3.5-8.6-8.9-3.6 44.1-28zM293 1231.4l8.5-3.1-58.6 37-19.2-7.8 51.6-32.6zM559.6 1044.4l-11.3 27.1-66 42 11.7-27.6z" class="st5"/>
  <g class="st2">
    <path d="M490.5 1180.4c5.3-15.5 10.7-31.1 16.3-46.6l8.3-23.2 8.5-23.2c5.5-15.5 11.2-30.9 16.8-46.2l8.6-23.1 8.6-23.1v2.9c-6.7-15.5-13.5-31.1-20.1-46.7l-20-46.7-19.8-46.9c-6.7-15.5-13-31.2-19.6-46.9l2.2 2.2c-15.7-6.7-31.3-13.5-47-20.3-15.7-6.8-31.3-13.7-46.9-20.5L363 761.8l-23.4-10.4c-15.5-7-31.1-14-46.6-21.1 15.9 6 31.9 12.2 47.7 18.3l23.7 9.3 23.7 9.4c15.8 6.2 31.6 12.7 47.5 19 15.8 6.3 31.6 12.8 47.5 19.3l1.5.6.7 1.5c6.8 15.5 13.5 31.1 20.1 46.7l20 46.7 19.8 46.9c6.7 15.5 13 31.2 19.6 46.9l.6 1.5-.6 1.5-8.9 22.9-9.2 22.9c-6.1 15.3-12.2 30.4-18.4 45.7l-9.3 22.7-9.4 22.7c-6.3 15.3-12.7 30.4-19.1 45.6z" class="st3"/>
  </g>
  <linearGradient id="SVGID_2_" x1="862.494" x2="1366.663" y1="-399.938" y2="-399.938" gradientTransform="translate(0 1400)" gradientUnits="userSpaceOnUse">
    <stop offset="0" style="stop-color:#779bd1;stop-opacity:.4"/>
    <stop offset="1" style="stop-color:#42a4b0;stop-opacity:.7235"/>
  </linearGradient>
  <path d="m1294.1 822.4-163.7-71.6-195 69.5-72.9 176 74.1 189.5 198 63.5 157.3-64.6 74.8-184.2-72.6-178.1zm-56.9 132.9L1118 943.5l-61.9 94.8 117.1 141.9-135.1-141.9s71.2-101.9 71-104c-.2-2-119.1-86.4-122.8-89.2l131.9 77.7 31.1-58.9-40-18.9 8.9-47.2V845l48.7 21.9-31.8 58.9 37 8.3 61.6 13 57.2-83.4-53.7 91.6z" style="fill:url(#SVGID_2_)"/>
  <path d="m1118 1286.1-188.4-86.4-83.3-200.8 83.3-200.8 197.1-84.6 204.6 84.6 83.3 200.8-83.3 200.8-213.3 86.4zm-156-120.7 168.4 62.6 165.2-61.5 71.1-166.2-69.1-166.9-167.1-69-166.2 73.2-70.1 162.8 67.8 165z" class="st0"/>
  <path d="m1326.9 820.9-6.6-15.8-1.6-3.7-28.1-11.6-32.2-13.3-140.6-58.2L917 801.7l-83.3 200.8 14.4 34.7 11.1 26.7 11.3 27.2 6.6 15.8 39.9 96.4 131.6 54.6 19.1 8 50.1 20.8 200.8-83.3L1373 1072l11.3-27.2 17.5-42.3-74.9-181.6zm-19.6 292.6L1283 1170l-156.6 58.3-8.5 3.2-17.6-6.6-150.6-55.9-35.4-85.9-6.6-15.9-11.2-27.2-11.1-26.8-3.7-9.3 70.1-162.8 166.2-73.2 93.3 38.5 32.2 13.3 32.8 13.5 8.9 3.6 3.5 8.5 65.5 158.4-35 82-11.9 27.8z" class="st1"/>
  <path d="m885.5 1013 11 26.9-37.1 23.6-11.1-26.6zM1290.6 789.6l-47.1 30.1-32.2-13.4 47.1-30zM907.7 1067.1l6.5 15.9-36.9 23.6-6.7-16zM1326.9 820.9l-38.3 24.4-3.5-8.6-8.8-3.6 44-28zM1118 1231.4l8.3-3.1-58.4 37-19.1-7.8 51.4-32.6zM1384.4 1044.4l-11.3 27.1-65.8 42 11.8-27.6z" class="st5"/>
  <path d="m580.3 1009.2-6.6-14 146.1-69.4 117.6 58.7-7 13.8-110.7-55.2z" class="st0"/>
  <path d="m842.7 1005.2-139.9-66-133.1 62.9-17.5-37L702.8 894l157.3 74.3z" class="st1"/>
  <path d="M1953.1 1014.7c-4.5-13.7-8.7-27.2-12.9-40.9-4.2-13.7-8.3-27.2-12.3-41-4.1-13.7-8-27.5-11.9-41-4-13.8-7.7-27.5-11.4-41.1l3.7 5.3-17.1-10.3-17-10.4-17-10.4-17-10.6 10.4.9c-35.7 16.7-71.5 33.1-107.6 49-36.2 15.9-72.2 31.6-108.6 46.7-36.4 15-72.9 29.8-109.7 44.1-36.8 14.2-73.8 27.8-111.3 40.3 34.7-19.3 69.7-37.3 105-54.8 35.4-17.5 71-34.5 106.7-51.1 35.8-16.5 71.8-32.7 107.9-48.5 36.2-15.8 72.3-31.2 108.9-46.1l5.8-2.4 4.8 3.2 16.5 11.2 16.4 11.3 16.4 11.3 16.4 11.4 3.2 2.2.7 3.2c2.9 13.9 5.7 28 8.5 41.9 2.7 13.9 5.3 28 8 42 2.6 14 5.2 28 7.6 42 2.3 14.4 4.8 28.4 6.9 42.6z" class="st0"/>
  <path d="M1385.9 951 1841 767.7l95.8 37.3 54.3 167.9-38 41.8-39.8-166.3-66.9-43.4-444.8 196.9z" class="st1"/>
  <g class="st2">
    <path d="M1430.4 948.7c33.7-15.7 67.6-30.6 101.5-45.4 33.9-14.7 68-29.3 102.3-43.5l51.3-21.4 51.4-21 51.6-20.6c17.3-6.7 34.5-13.7 51.8-20.1l1.1-.4 1 .4 21 8.5 20.9 8.5 20.9 8.6c7 2.9 13.9 5.8 20.9 8.7-7.1-2.4-14.4-4.5-21.5-7l-21.5-7.1-21.5-7.1-21.4-7.2h2.2c-17 7.6-33.9 14.7-51.1 22l-51.2 21.6-51.3 21.4-51.4 21c-34.4 13.9-68.7 27.6-103.3 41-34.5 13.4-68.9 26.6-103.7 39.1z" class="st3"/>
  </g>
  <path d="M1038 1038.3c12.7-19.4 25.2-38.8 38.2-58l19.3-28.8c3.2-4.8 6.3-9.6 9.6-14.5l1.1-1.7.6-.9.2-.5v-.1s0-.2-.1.5v.7c0 .2.2.6.2.7l-.1-.1-.2-.2-.7-.6-1.6-1.4c-2.4-1.7-4.6-3.5-7-5.2-9.3-7-18.5-13.8-28-20.6l-28-20.6-27.8-20.8c-9.2-7-18.5-13.9-27.7-21 19.3 12.8 38.4 25.7 57.4 39 19 13.2 37.9 26.7 56.4 40.5 2.4 1.7 4.6 3.5 7 5.2l1.7 1.5.9.7c.1.1.2.2.4.5l.2.2c.1.1.4.6.4.9.1.2.1.7.1 1-.1.9-.2.7-.2.9 0 .1-.1.2-.1.2l-.2.6-.6 1-1.1 1.9c-3.2 5-6.3 9.7-9.7 14.5-6.6 9.6-13.2 19-19.9 28.5-13.1 18.9-26.8 37.6-40.7 56zM1290.6 864.2c-4.1 7.8-8.5 15.5-12.4 23.4-4.2 7.7-8.6 15.4-12.9 23.1-4.3 7.7-8.7 15.4-13 22.9-4.3 7.7-8.8 15.3-13.2 22.9l-.7 1.1-1.5-.1c-10.1-.9-19.9-2-29.7-3.1l-29.7-3.4-14.9-1.7-14.8-1.9-14.8-2c-5-.6-9.8-1.4-14.8-2 5 .2 10.1.6 14.9.9l14.9 1 14.9 1.1 14.9 1.1 29.8 2.6c9.8 1 19.9 1.9 29.7 2.9l-2 1c4.5-7.6 8.9-15.3 13.5-22.7s9.2-15 13.8-22.6c4.6-7.6 9.3-14.9 13.9-22.5 4.5-7.2 9.3-14.7 14.1-22zM1118 923.1c2.4-5.1 4.6-10.2 7-15.3s4.8-10.1 7.2-15c2.5-5 5-10.1 7.5-14.9 2.5-4.8 5-9.8 7.6-14.8l1 2.9-10.1-4.6-10.1-4.8c-6.7-3.2-13.3-6.3-19.9-9.7l-1.4-.7.2-1.5c.7-4 1.7-7.8 2.5-11.8.9-4 1.7-7.8 2.6-11.8 1.7-7.8 3.6-15.7 5.7-23.5-1 8-2 15.9-3.4 24-.6 4-1.1 8-1.9 11.9s-1.4 8-2 11.9l-1-2c6.7 3.1 13.5 6.1 20.1 9.3l10.1 4.6 10.1 4.8 2 1-1 1.9c-2.6 5-5.2 9.7-8 14.7-2.6 5-5.3 9.7-8.1 14.5s-5.5 9.7-8.3 14.5c-2.7 4.9-5.5 9.7-8.4 14.4z" class="st7"/>
  <path d="M1118 845.3c4.2 1.6 8.3 3.4 12.3 5.1 4.1 1.7 8.3 3.4 12.3 5.1 8.3 3.5 16.4 7 24.5 10.6l1.4.6-.7 1.4c-2.6 5-5.2 9.8-7.8 14.8-2.6 5-5.2 9.8-8 14.8-5.3 9.8-10.7 19.6-16.2 29.3l-.7-1.6c6.1 1.5 12.3 3.1 18.4 4.5 6.1 1.6 12.3 3.2 18.4 4.8-6.2-1-12.4-2.4-18.8-3.5-6.2-1.1-12.4-2.5-18.5-3.7l-1.5-.2.7-1.4c5.1-9.8 10.3-19.8 15.7-29.6 2.6-5 5.2-9.8 8-14.8 2.6-5 5.3-9.8 8-14.7l.6 1.9c-8.1-3.7-16.2-7.6-24.2-11.3-4.1-1.9-8-4-12.1-5.8-3.9-2.3-8-4.2-11.8-6.3zM1118 943.5c-5 8-10.1 15.9-14.9 24.1-5 8-10.2 15.9-15.3 24l-15.3 24-15.4 23.7-.1-1.6c9.7 11.9 19.8 23.5 29.3 35.4l29.2 35.7c9.7 11.9 19.3 24 28.8 35.8 4.8 6 9.6 12.1 14.4 18l14.2 18-14.9-17.4c-5-5.8-10.1-11.6-14.9-17.5-9.8-11.8-19.9-23.5-29.6-35.3L1084 1075c-9.8-11.8-19.4-23.7-29.2-35.5l-.6-.7.6-.9 15.5-23.6 15.7-23.5c5.2-7.8 10.4-15.7 15.8-23.5 5.4-8.2 10.7-16.1 16.2-23.8z" class="st8"/>
  <g class="st2">
    <path d="M117.7 849.1c-5.2 13.8-10.6 27.6-16.2 41.4l-8.3 20.6-8.3 20.6c-5.5 13.8-11.2 27.5-16.8 41l-8.5 20.5-8.6 20.5v-3.1c5.8 13.8 11.6 27.5 17.3 41.1l17.1 41.1 16.8 41.4c5.7 13.8 11.2 27.6 16.7 41.4l-2.4-2.2c13.9 5.3 28 10.7 41.9 16.2 13.9 5.3 27.8 10.9 41.8 16.4l20.9 8.3 20.9 8.5c13.9 5.7 27.7 11.3 41.5 17.1-14.2-4.6-28.5-9.4-42.6-14.2l-21.4-7.2-21.1-7.5c-14.2-5-28.3-9.8-42.4-14.9-14-5-28.1-10.1-42.4-15.3l-1.6-.6-.7-1.6c-5.8-13.7-11.6-27.5-17.3-41.1l-17.1-41.1-16.8-41.4c-5.7-13.8-11.2-27.6-16.7-41.4l-.6-1.6.7-1.5 8.9-20.3 8.9-20.3c6.1-13.5 12.1-27 18.3-40.5l9.2-20.1 9.3-20.1c7-13.3 13.3-26.8 19.6-40.1z" class="st3"/>
  </g>
  <g class="st2">
    <path d="M1315.5 1180.4c5.3-15.5 10.7-31.1 16.3-46.6l8.3-23.2 8.5-23.2c5.5-15.5 11.2-30.9 16.8-46.2l8.6-23.1 8.6-23.1v2.9c-6.7-15.5-13.5-31.1-20.1-46.7l-20-46.7-19.8-46.9c-6.7-15.5-13-31.2-19.6-46.9l2.2 2.2c-15.7-6.7-31.3-13.5-47-20.3s-31.3-13.7-46.9-20.5l-23.4-10.3-23.4-10.4c-15.5-7-31.1-14-46.6-21.1 15.9 6 31.9 12.2 47.7 18.3l23.7 9.3 23.7 9.4c15.8 6.2 31.6 12.7 47.5 19 15.8 6.3 31.6 12.8 47.5 19.3l1.5.6.7 1.5c6.8 15.5 13.5 31.1 20.1 46.7l20 46.7 19.8 46.9c6.7 15.5 13 31.2 19.6 46.9l.6 1.5-.6 1.5-8.9 22.9-9.2 22.9c-6.1 15.3-12.2 30.4-18.4 45.7l-9.3 22.7-9.4 22.7c-6.2 15.3-12.7 30.4-19.1 45.6z" class="st3"/>
  </g>
  <g class="st2">
    <path d="M942.6 849.1c-5.2 13.8-10.6 27.6-16.2 41.4l-8.3 20.6-8.3 20.6c-5.5 13.8-11.2 27.5-16.8 41l-8.5 20.5-8.6 20.5v-3.1c5.8 13.8 11.6 27.5 17.3 41.1l17.1 41.1 16.8 41.4c5.7 13.8 11.2 27.6 16.7 41.4l-2.4-2.2c13.9 5.3 28 10.7 41.9 16.2 13.9 5.5 27.8 10.9 41.8 16.4l20.9 8.3 20.9 8.5c13.9 5.7 27.7 11.3 41.5 17.1-14.2-4.6-28.5-9.4-42.6-14.2l-21.4-7.2-21.1-7.5c-14.2-5-28.3-9.8-42.4-14.9-14-5-28.1-10.1-42.4-15.3l-1.6-.6-.7-1.6c-5.8-13.7-11.6-27.5-17.3-41.1l-17.1-41.1L885 1055c-5.7-13.8-11.2-27.6-16.7-41.4l-.6-1.6.7-1.5 8.9-20.3 8.9-20.3c6.1-13.5 12.1-27 18.3-40.5l9.2-20.1 9.3-20.1c7.1-13.3 13.3-26.8 19.6-40.1z" class="st3"/>
  </g>
  <path d="M842.7 1005.2c-12.2-4.5-24.1-9.3-36.2-14.2l-17.9-7.6-17.6-7.7c-11.9-5.1-23.6-10.4-35.4-15.7-11.8-5.3-23.5-10.7-35-16.3h4.3c-11.2 5.2-22.2 10.4-33.3 15.4-11.2 5.1-22.4 10.1-33.7 14.9-11.2 5-22.6 9.7-33.9 14.4-11.3 4.6-22.7 9.3-34.4 13.5 10.6-6.2 21.5-12.1 32.2-18 10.9-5.8 21.7-11.4 32.7-17 10.9-5.7 21.9-11.2 32.9-16.5 11.1-5.3 22-10.7 33.2-15.9l2.2-1 2.2 1c11.6 5.5 23.4 11.1 34.9 16.7 11.6 5.6 23.2 11.3 34.7 17.3l17.3 8.8 17.1 8.9c11.1 6.5 22.5 12.6 33.7 19z" class="st0"/>
  <g class="st2">
    <path d="M661.7 919.2c3.6-2.4 7.1-4.3 10.7-6.6 3.6-2.2 7.2-4.2 10.9-6.2 3.6-2 7.2-4.1 11.1-6.1 3.6-2 7.5-4.1 11.1-6l1.4-.7 1.6.7c24.1 10.7 47.7 22.4 71.1 34.4 11.8 6.1 23.4 12.2 34.8 18.8 5.8 3.2 11.4 6.6 17.1 9.8 5.7 3.4 11.3 6.8 17 10.3-6.2-2.4-12.3-4.6-18.4-7.2-6.1-2.5-12.2-5.1-18.3-7.7-12.1-5.2-24.1-10.7-35.9-16.4-23.7-11.3-47.2-23.1-70.3-35.7h3.1c-4 1.6-7.7 3.4-11.6 5-4 1.6-7.7 3.2-11.6 4.8-3.9 1.6-7.8 3.2-11.8 4.6-4.1 1.5-7.9 3-12 4.2z" class="st3"/>
  </g>
</svg>
