<svg xmlns="http://www.w3.org/2000/svg" xml:space="preserve" id="Layer_1" x="0" y="0" style="enable-background:new 0 0 1000 1000" version="1.1" viewBox="0 0 1000 1000"><style>.st266{fill:#473126}.st273{fill:#9e7e71}</style><path d="M980.45 250.59 575.31 796.58s-69.51-15.2-155.22-31.81C307.96 743.04 168.12 718.9 120 723.27c-84.88 7.72-102.25-25.07-100.32-61.73C21.61 624.88 500 209.46 500 209.46c7.34-1.39 37.64-2.44 79.57-3.27 134.31-2.63 387.96-2.77 387.96-2.77l-8.81 13.5v33.67h21.73z" style="fill:#604739"/><linearGradient id="SVGID_00000114047341105877677240000008119942697525765781_" x1="378.073" x2="1002.648" y1="560.369" y2="282.291" gradientUnits="userSpaceOnUse"><stop offset=".053" style="stop-color:#7f5f4f;stop-opacity:0"/><stop offset=".766" style="stop-color:#7f5f4f"/></linearGradient><path d="M570.16 739.31s-34.6-1.1-120.31-17.71C499 661.78 557.17 590.99 593.64 500c40.08-99.98 4.35-236.59-14.06-293.8 134.31-2.63 387.96-2.77 387.96-2.77l-8.81 13.5" style="fill:url(#SVGID_00000114047341105877677240000008119942697525765781_)"/><path d="M37.45 671.05s-8-2.18-4.54 10.34 12.71 23.4 67.68 27.76S284 724.93 393.94 742.9s178.52 33.2 178.52 33.2l386.27-525.5-15.63 7.91-372.82 501.8-276.48-46.26L104.39 695l-48.98-14.15-17.96-9.8z" class="st266"/><path d="M32.9 681.39s-9.29-17.95 7.43-17.95 534.86 76.61 534.86 76.61l383.54-523.12v33.67L571.01 766.51s-356.57-55.71-406.72-58.5S47.9 709.06 32.9 681.39z" style="fill:#c6c0b3"/><path d="M31.82 695.13c-4.99-7.88-14.17-24.66-6.42-32.87 3.14-2.86 7.7-3.37 11.53-3.8 3.12-.28 6.22-.31 9.31-.24 18.4.55 36.54 3.59 54.66 6.49 17.98 2.92 36.03 6.56 53.91 10.04 29.91 5.74 59.94 10.9 90.08 15.22 108.52 14.7 217.51 29.62 325.3 49.09-47.41-3.9-97.08-12.02-145.08-18.43-20.36-2.95-51.63-7.84-72.27-11.09-54.12-8.36-108.16-18.58-162.42-26.15-10.68-1.51-25.7-3.56-36.21-5.19-30.1-4.46-60-10.72-90.06-14.82-8.97-1.09-17.99-2.27-27-1.86-5.68.32-11.81 1.05-12.47 7.93-.7 8.9 3.59 17.65 7.57 25.43 0-.01-.43.25-.43.25z" class="st266"/><linearGradient id="SVGID_00000083803549554087163110000014806481827659659136_" x1="455.734" x2="731.546" y1="310.614" y2="310.614" gradientUnits="userSpaceOnUse"><stop offset=".292" style="stop-color:#6d5a38"/><stop offset=".505" style="stop-color:#686535"/><stop offset=".535" style="stop-color:#89754c"/><stop offset=".678" style="stop-color:#6a5236"/><stop offset=".769" style="stop-color:#6d5a38"/></linearGradient><path d="m715.53 261.52 16.02-4.04v6.64l-83.67 99.63-192.15-9.66v-5.08z" style="fill:url(#SVGID_00000083803549554087163110000014806481827659659136_)"/><path d="m554.94 256.26-99.21 92.75 191.4 8.05 84.42-99.58z" style="fill:#89754c"/><path d="M455.73 349.01c61.02 2.21 130.59 4.96 191.42 7.62l-.35.15c13.92-16.37 49.98-58.71 63.49-74.53l21.25-24.77-20.95 25.02c-13.23 15.73-49.38 58.56-63.13 74.84l-.14.16-.21-.01c-60.78-2.44-130.45-5.58-191.38-8.48z" style="fill:#dbba82"/><path d="M731.55 264.13c-23.06 27.96-59.83 71.75-83.34 99.91-15.93-.28-32.32-1.53-48.39-2.23-42.77-2.25-101.32-5.26-144.08-7.71 24.01 1.03 72.11 3.28 96.09 4.47 27.77 1.47 69.79 3.02 95.72 4.92 23.66-28.17 60.41-71.65 84-99.36z" style="fill:#42331b"/><path d="M19.44 661.52c.39-3.56 2.42-6.55 4.19-9.54 1.88-2.91 3.93-5.71 6.02-8.46 12.69-16.37 27-31.4 41.32-46.31 38.28-39.51 78.99-77.02 120.1-113.56 81.69-73.53 161.83-149.93 245.07-221.73 20.78-18.08 41.71-35.98 62.69-53.83l.41-.34.44-.07c6.83-.93 13.32-.98 20.11-1.25 19.93-.59 39.85-.63 59.78-.49l.01.5-39.79 1.88c-13.09.75-26.51 1.02-39.45 2.9l.85-.41c-68.27 61.12-147.84 131.1-216.78 191.29C232.8 446.63 182.04 495.09 133 542.5c-34.59 33.44-70.28 65.91-102.11 102.02-2.2 2.63-4.35 5.3-6.34 8.09-1.88 2.78-4.04 5.61-4.62 8.94l-.49-.03z" style="fill:#3f2b21"/><path d="M342.11 691.2c57.59 7.89 115.87 16.83 173.27 25.94 14.42 2.22 43.24 7.1 57.62 9.51l-1.94.8C659.2 612.72 743 491.24 829.24 375.29c39.44-53.13 79.08-106.1 119.48-158.52l.4.3c-37.99 54.19-76.73 107.82-115.68 161.31-84.93 116.86-175.96 233.13-259.15 351.46l-.71.99-1.24-.19c-14.35-2.24-43.35-6.69-57.68-9.09-37.89-6.13-77.25-12.87-115.16-19.48-19.18-3.33-38.34-6.8-57.48-10.37.01 0 .09-.5.09-.5z" class="st273"/><path d="M348.23 745.23c56.81 9 114.27 19.06 170.85 29.27 14.21 2.49 42.63 7.93 56.79 10.62l-1.99.79c87.51-113.85 170.65-234.43 256.24-349.5 39.15-52.72 78.49-105.29 118.59-157.31l.4.3c-37.7 53.78-76.14 107.01-114.79 160.1-84.28 115.98-174.65 231.35-257.19 348.8l-.72 1.01-1.26-.22c-14.15-2.52-42.75-7.52-56.87-10.2-37.35-6.86-76.15-14.35-113.5-21.7-18.9-3.7-37.78-7.54-56.64-11.47l.09-.49z" class="st273"/><linearGradient id="SVGID_00000065049420780734917140000010477417217708391296_" x1="693.15" x2="778.007" y1="226.269" y2="198.698" gradientTransform="rotate(2.292 -1426.215 -2740.834)" gradientUnits="userSpaceOnUse"><stop offset="0" style="stop-color:#907f2e"/><stop offset=".632" style="stop-color:#cfbf64"/><stop offset="1" style="stop-color:#9a8a37"/></linearGradient><path d="m659.39 290.91-.62.79c-.85-.02-1.62 0-2.33.05s-1.4.14-2.06.28c-.67.14-1.33.32-1.99.55-.66.23-1.38.53-2.14.89-.98.47-2.91 1.63-5.8 3.49l-36.72 22.83-1.91-.05.41-18.73-29.88 18.04-1.72-.04 1.01-24.24c.09-1.83.09-2.9 0-3.21-.17-.55-.67-.96-1.52-1.25-.84-.28-2.2-.44-4.07-.48l.67-.78 23.54.49-.66.78-1.13-.02c-1.69-.04-3.11.11-4.25.43-1.15.32-1.92.72-2.33 1.2-.2.24-.38.65-.53 1.23-.15.58-.24 1.32-.27 2.22l-.89 16.39 22.06-13.47.2-4.42c-.07-.53-.2-1-.39-1.41-.19-.41-.51-.75-.95-1.04-.44-.29-1.05-.51-1.83-.67-.77-.16-1.79-.25-3.04-.28l.65-.78 24.77.52-.64.79-1.69-.04c-1.78-.04-3.21.1-4.28.42-1.07.32-1.85.77-2.34 1.36-.59.72-.92 2-.98 3.82l-.46 15.92 25.05-15.61c2.81-1.76 4.48-2.96 5-3.62.53-.67.25-1.15-.85-1.45-1.1-.3-2.68-.47-4.75-.51l.63-.79 19.03.4z" style="fill:url(#SVGID_00000065049420780734917140000010477417217708391296_)"/><linearGradient id="SVGID_00000007413910068560765830000016002548926542899350_" x1="712.258" x2="752.815" y1="221.052" y2="207.874" gradientTransform="rotate(2.292 -1426.215 -2740.834)" gradientUnits="userSpaceOnUse"><stop offset="0" style="stop-color:#907f2e"/><stop offset=".632" style="stop-color:#cfbf64"/><stop offset="1" style="stop-color:#9a8a37"/></linearGradient><path d="m632.85 295.51-.42.52c-.94.06-1.78.15-2.51.27-.74.13-1.43.3-2.08.51-.65.21-1.28.47-1.89.77-.61.3-1.26.65-1.96 1.04l-27.77 15.74-1.15-.03-2.15-16.6c-.11-.87-.24-1.39-.41-1.56-.27-.3-.71-.54-1.3-.71-.6-.18-1.52-.3-2.77-.38l.43-.51 16.96.36-.43.51c-1.02.03-1.86.07-2.52.13-.66.06-1.2.14-1.62.24-.42.1-.74.22-.96.35-.22.13-.41.28-.54.45-.39.47-.52 1.21-.39 2.2l1.48 11.29 18.83-10.71c1.85-1.07 2.94-1.8 3.27-2.21.23-.29.12-.57-.33-.84-.46-.27-1.45-.47-2.99-.6l.42-.52 12.8.29z" style="fill:url(#SVGID_00000007413910068560765830000016002548926542899350_)"/><linearGradient id="SVGID_00000005264962538932680030000004654160636979314827_" x1="636.697" x2="819.619" y1="248.501" y2="189.066" gradientTransform="rotate(2.292 -1426.215 -2740.834)" gradientUnits="userSpaceOnUse"><stop offset="0" style="stop-color:#907f2e"/><stop offset=".632" style="stop-color:#cfbf64"/><stop offset="1" style="stop-color:#9a8a37"/></linearGradient><path d="m696.37 265.22-16.31 26.04-3.84-.08c.45-3.92-.07-7.3-1.55-10.15-1.47-2.85-3.84-5.2-7.1-7.05-3.25-1.85-7.36-3.24-12.32-4.17-4.95-.93-10.72-1.46-17.31-1.58-11.06-.21-21.88.84-32.5 3.16-10.65 2.31-20.69 5.97-30.15 11a100.83 100.83 0 0 0-14.68 9.47c-4.58 3.55-8.8 7.55-12.66 11.99-5.89 6.78-8.55 12.75-7.95 17.91.32 2.62 1.57 4.94 3.76 6.96 2.2 2.02 5.21 3.75 9.02 5.17 3.82 1.42 8.37 2.54 13.64 3.36 5.27.82 11.06 1.31 17.37 1.46 7.16.18 13.59.02 19.31-.48 5.71-.5 11.21-1.36 16.52-2.56 5.3-1.2 10.7-2.75 16.22-4.64 5.51-1.89 11.67-4.11 18.48-6.66l3.05 1.22a196.94 196.94 0 0 1-20.85 8.43c-6.97 2.35-14.04 4.25-21.21 5.71-7.18 1.46-14.52 2.48-22.02 3.07-7.5.59-15.23.78-23.18.58-28.88-.74-47.13-5.94-54.65-15.59-5.56-7.16-4.16-15.39 4.12-24.7 3.97-4.47 9.19-8.78 15.63-12.92 6.42-4.14 14.02-7.93 22.78-11.38 6.12-2.44 12.54-4.61 19.27-6.49 6.71-1.89 13.55-3.46 20.51-4.7 6.95-1.25 13.93-2.17 20.93-2.75 6.99-.59 13.85-.82 20.58-.7 11.92.22 22.6 1.79 32.08 4.7 2.9.93 5.02 1.39 6.35 1.38 2.61.05 5.17-.41 7.7-1.37 2.52-.96 4.75-2.2 6.68-3.73l4.28.09z" style="fill:url(#SVGID_00000005264962538932680030000004654160636979314827_)"/></svg>