<svg xmlns="http://www.w3.org/2000/svg" xml:space="preserve" id="Layer_1" x="0" y="0" style="enable-background:new 0 0 2000 2000" version="1.1" viewBox="0 0 2000 2000">
  <style>
    .st0{fill:#593a29}.st1{fill:#9e7157}.st2{opacity:.46}.st3{fill:#fff0cd}.st5{opacity:.86;fill:#c0997e}.st7{fill:#feffff}.st8{fill:#3f979e}
  </style>
  <path d="M950.4 1098.2c-3.6-9-7.1-18.1-10.5-27.2l-5.1-13.6-5-13.7c-3.3-9.1-6.6-18.2-9.8-27.4-3.3-9.1-6.4-18.3-9.6-27.4l3.3 3.9c-9.6-4.5-19.2-9-28.8-13.6l-14.4-6.9-14.3-6.9 6.5.5c-30.3 11.3-60.8 22.3-91.3 32.9-30.5 10.7-61.2 21.1-91.9 31.1-30.8 10.1-61.6 19.8-92.6 29.1-31 9.3-62.2 18.2-93.6 26.2 29.7-13.2 59.6-25.5 89.7-37.4 30.1-11.9 60.4-23.4 90.8-34.5 30.4-11.2 60.9-21.9 91.5-32.5 30.6-10.6 61.3-20.8 92.1-30.7l3.6-1.2 3 1.6 14 7.6 14 7.7c9.3 5.1 18.6 10.3 27.9 15.4l2.6 1.5.6 2.5c2.4 9.4 4.9 18.7 7.3 28.1 2.4 9.4 4.7 18.8 7.1 28.2l3.4 14.1 3.3 14.2c2 9.4 4.2 18.9 6.2 28.4z" class="st0"/>
  <path d="m469.8 1055.7 385.6-122.6 81.2 24.9 45.9 112.3-32.1 27.9L916.7 987 860 958l-377 131.7z" class="st1"/>
  <g class="st2">
    <path d="M507.5 1054.1c28.6-10.6 57.4-20.7 86.3-30.7 28.9-9.9 57.8-19.7 86.7-29.2L724 980l43.6-14 43.7-13.7c14.6-4.5 29.1-9 43.8-13.4l.7-.2.6.2 17.8 5.6 17.8 5.7 17.8 5.8c5.9 1.9 11.8 4 17.7 5.9-6.1-1.5-12.1-3-18.2-4.5l-18.1-4.7-18.1-4.7-18.1-4.8h1.3c-14.4 5-28.9 9.9-43.3 14.9l-43.4 14.5-43.5 14.3-43.6 14c-29.1 9.3-58.2 18.4-87.3 27.3-29.1 8.9-58.3 17.7-87.7 25.9z" class="st3"/>
  </g>
  <linearGradient id="SVGID_1_" x1="458.27" x2="805.95" y1="1064.305" y2="1064.305" gradientUnits="userSpaceOnUse">
    <stop offset="0" style="stop-color:#779bd1;stop-opacity:.4"/>
    <stop offset="1" style="stop-color:#42a4b0;stop-opacity:.7235"/>
  </linearGradient>
  <path d="m458.3 1061.7 50.2-121.4L643 892.4l113 49.5 49.9 122.7-51.5 127.1-108.6 44.5-136.5-43.8z" style="fill:url(#SVGID_1_)"/>
  <path d="M634.4 1261.6 504.5 1202l-57.4-138.5L504.5 925l135.9-58.4L781.5 925l57.4 138.5-57.4 138.5-147.1 59.6zm-107.5-83.2 116.1 43.2 113.9-42.4 49-114.6-47.6-115.2L643 901.8l-114.6 50.5-48.3 112.3 46.8 113.8z" class="st0"/>
  <path d="m778.6 940.8-4.5-10.9-1.1-2.6-19.4-8-22.2-9.2-96.9-40.1L496 927.4l-57.4 138.5 9.9 23.9 7.6 18.4 7.8 18.8 4.5 10.9 27.5 66.5 90.8 37.6 13.2 5.5 34.5 14.3 138.5-57.4 37.5-90.6 7.8-18.8 12.1-29.1-51.7-125.1zM765 1142.5l-16.7 39-108 40.2-5.8 2.2-12.2-4.5-103.9-38.6-24.4-59.2-4.5-11-7.7-18.8-7.6-18.5-2.6-6.4 48.3-112.3 114.6-50.5 64.4 26.6 22.2 9.2 22.6 9.3 6.2 2.5 2.4 5.8 45.2 109.3-24.2 56.6-8.3 19.1z" class="st1"/>
  <path d="m474.1 1073.3 7.6 18.5-25.6 16.3-7.6-18.4zM753.5 919.2 721 939.9l-22.2-9.2 32.5-20.7zM489.5 1110.6l4.5 10.9-25.6 16.3-4.5-11zM778.6 940.8l-26.4 16.8-2.4-5.9-6.2-2.5 30.4-19.3zM634.4 1223.9l5.9-2.2-40.4 25.6-13.2-5.4 35.5-22.5zM818.3 1094.9l-7.8 18.7-45.5 28.9 8.1-19z" class="st5"/>
  <g class="st2">
    <path d="M770.7 1188.7c3.7-10.7 7.4-21.4 11.2-32.1l5.7-16 5.8-16c3.8-10.7 7.7-21.3 11.6-31.9l5.9-15.9 5.9-15.9v2c-4.6-10.7-9.3-21.4-13.9-32.2l-13.8-32.2-13.6-32.3c-4.6-10.7-9-21.5-13.5-32.3l1.5 1.5c-10.8-4.6-21.6-9.3-32.4-14-10.8-4.7-21.6-9.4-32.3-14.1l-16.1-7.1-16.1-7.2c-10.7-4.8-21.4-9.7-32.1-14.6 11 4.1 22 8.4 32.9 12.6l16.4 6.4 16.4 6.5c10.9 4.3 21.8 8.7 32.7 13.1 10.9 4.4 21.8 8.8 32.7 13.3l1 .4.5 1c4.7 10.7 9.3 21.4 13.9 32.2l13.8 32.2 13.6 32.3c4.6 10.7 9 21.5 13.5 32.3l.4 1-.4 1-6.2 15.8-6.3 15.8c-4.2 10.5-8.4 21-12.7 31.5l-6.4 15.7-6.5 15.7c-4.3 10.6-8.7 21-13.1 31.5z" class="st3"/>
  </g>
  <linearGradient id="SVGID_2_" x1="1027.22" x2="1374.9" y1="1064.305" y2="1064.305" gradientUnits="userSpaceOnUse">
    <stop offset="0" style="stop-color:#779bd1;stop-opacity:.4"/>
    <stop offset="1" style="stop-color:#42a4b0;stop-opacity:.7235"/>
  </linearGradient>
  <path d="M1324.9 941.8 1212 892.4l-134.5 47.9-50.3 121.4 51.1 130.7 136.5 43.8 108.5-44.6 51.6-127-50-122.8zm-39.3 91.6-82.2-8.1-42.7 65.4 80.7 97.9-93.2-97.9s49.1-70.3 48.9-71.7c-.2-1.4-82.1-59.6-84.7-61.5l90.9 53.6 21.4-40.6-27.6-13 6.2-32.6v32.6l33.6 15.1-21.9 40.6 25.5 5.7 42.5 9 39.4-57.5-36.8 63z" style="fill:url(#SVGID_2_)"/>
  <path d="m1203.4 1261.6-129.9-59.6-57.4-138.5 57.4-138.5 135.9-58.4 141.1 58.4 57.4 138.5-57.4 138.5-147.1 59.6zm-107.5-83.2 116.1 43.2 113.9-42.4 49-114.6-47.6-115.2-115.3-47.6-114.6 50.5-48.3 112.3 46.8 113.8z" class="st0"/>
  <path d="m1347.5 940.8-4.5-10.9-1.1-2.6-19.4-8-22.2-9.2-96.9-40.1-138.5 57.4-57.4 138.5 9.9 23.9 7.6 18.4 7.8 18.8 4.5 10.9 27.5 66.5 90.8 37.6 13.2 5.5 34.5 14.3 138.5-57.4 37.5-90.6 7.8-18.8 12.1-29.1-51.7-125.1zm-13.5 201.7-16.7 39-108 40.2-5.8 2.2-12.2-4.5-103.9-38.6-24.4-59.2-4.5-11-7.7-18.8-7.6-18.5-2.6-6.4 48.3-112.3 114.6-50.5 64.4 26.6 22.2 9.2 22.6 9.3 6.2 2.5 2.4 5.8 45.2 109.3-24.2 56.6-8.3 19.1z" class="st1"/>
  <path d="m1043.1 1073.3 7.6 18.5-25.6 16.3-7.7-18.4zM1322.5 919.2l-32.5 20.7-22.2-9.2 32.5-20.7zM1058.4 1110.6l4.5 10.9-25.5 16.3-4.6-11zM1347.5 940.8l-26.4 16.8-2.4-5.9-6.1-2.5 30.4-19.3zM1203.4 1223.9l5.8-2.2-40.3 25.6-13.2-5.4 35.5-22.5zM1387.2 1094.9l-7.8 18.7-45.4 28.9 8.1-19z" class="st5"/>
  <path d="m832.6 1070.6-4.6-9.7 100.8-47.8 81.1 40.5-4.8 9.5-76.4-38.1z" class="st0"/>
  <path d="m1013.6 1067.9-96.5-45.5-91.8 43.3-12.1-25.5 103.9-49 108.5 51.2z" class="st1"/>
  <path d="M1779.4 1074.4c-3.1-9.4-6-18.8-8.9-28.2-2.9-9.4-5.7-18.8-8.5-28.3-2.8-9.4-5.5-18.9-8.2-28.3-2.7-9.5-5.3-18.9-7.9-28.4l2.6 3.7-11.8-7.1-11.7-7.2-11.7-7.2-11.7-7.3 7.2.6c-24.6 11.5-49.3 22.8-74.2 33.8-24.9 11-49.8 21.8-74.9 32.2-25.1 10.4-50.3 20.6-75.7 30.4-25.4 9.8-50.9 19.2-76.8 27.8 23.9-13.3 48.1-25.7 72.4-37.8 24.4-12.1 48.9-23.8 73.6-35.2 24.7-11.4 49.5-22.5 74.4-33.4 24.9-10.9 49.9-21.5 75.1-31.8l4-1.6 3.3 2.2 11.4 7.7 11.3 7.8 11.3 7.8 11.3 7.9 2.2 1.5.5 2.2c2 9.6 3.9 19.3 5.8 28.9 1.9 9.6 3.7 19.3 5.5 29 1.8 9.7 3.6 19.3 5.2 29 1.7 9.8 3.4 19.5 4.9 29.3z" class="st0"/>
  <path d="m1388.2 1030.5 313.9-126.4 66.1 25.7 37.4 115.8-26.2 28.8-27.4-114.7-46.2-29.9-306.8 135.8z" class="st1"/>
  <g class="st2">
    <path d="M1418.9 1028.9c23.2-10.8 46.6-21.1 70-31.3 23.4-10.1 46.9-20.2 70.5-30l35.4-14.7 35.5-14.5 35.6-14.2c11.9-4.6 23.8-9.4 35.7-13.9l.8-.3.7.3 14.5 5.8 14.4 5.8 14.4 5.9 14.4 6c-4.9-1.6-9.9-3.1-14.8-4.8l-14.8-4.9-14.8-4.9-14.7-5h1.5c-11.7 5.2-23.4 10.1-35.2 15.2l-35.3 14.9-35.4 14.7-35.5 14.5c-23.7 9.6-47.4 19-71.2 28.3-23.8 9.3-47.7 18.5-71.7 27.1z" class="st3"/>
  </g>
  <path d="M1148.2 1090.7c8.7-13.4 17.4-26.7 26.3-40l13.3-19.9c2.2-3.3 4.4-6.6 6.6-10l.8-1.2.4-.6.2-.3v-.1s0-.2-.1.3v.5c0 .2.2.4.2.5l-.1-.1-.2-.2-.5-.4-1.1-.9-4.8-3.6c-6.4-4.8-12.8-9.5-19.3-14.2l-19.3-14.2-19.2-14.3c-6.3-4.8-12.8-9.6-19.1-14.5 13.3 8.8 26.5 17.7 39.6 26.9 13.1 9.1 26.1 18.4 38.9 27.9l4.8 3.6 1.2 1 .6.5.3.3.2.2c.1.1.3.4.3.6.1.2.1.5.1.7-.1.6-.2.5-.2.6 0 .1-.1.2-.1.2l-.2.4-.4.7-.8 1.3c-2.2 3.4-4.4 6.7-6.7 10-4.5 6.6-9.1 13.1-13.7 19.6-8.9 13.1-18.4 26-28 38.7zM1322.5 970.6c-2.8 5.4-5.8 10.7-8.6 16.1-2.9 5.3-5.9 10.6-8.9 15.9-3 5.3-6 10.6-9 15.8-3 5.3-6.1 10.5-9.1 15.8l-.5.8-1-.1c-6.9-.6-13.7-1.4-20.5-2.1l-20.5-2.3-10.3-1.2-10.2-1.3-10.2-1.4c-3.4-.4-6.8-.9-10.2-1.4 3.4.2 6.9.4 10.3.6l10.3.7 10.3.8 10.3.8 20.6 1.8c6.8.7 13.7 1.3 20.5 2l-1.4.7c3.1-5.2 6.2-10.5 9.3-15.7 3.1-5.2 6.3-10.4 9.5-15.6 3.2-5.2 6.4-10.3 9.6-15.5 3.1-5 6.3-10.1 9.7-15.2zM1203.4 1011.2l4.8-10.5c1.6-3.5 3.3-6.9 5-10.4 1.7-3.4 3.4-6.9 5.1-10.3 1.7-3.4 3.4-6.8 5.2-10.2l.7 2-6.9-3.2-6.9-3.3c-4.6-2.2-9.2-4.4-13.7-6.7l-.9-.5.2-1c.5-2.7 1.2-5.4 1.7-8.1l1.8-8.1c1.2-5.4 2.5-10.8 3.9-16.2-.7 5.5-1.4 11-2.3 16.5-.4 2.7-.8 5.5-1.3 8.2-.5 2.7-.9 5.5-1.4 8.2l-.7-1.4c4.6 2.1 9.3 4.2 13.9 6.4l6.9 3.2 6.9 3.3 1.4.7-.7 1.3c-1.8 3.4-3.6 6.7-5.5 10.1-1.8 3.4-3.7 6.7-5.6 10-1.9 3.3-3.8 6.7-5.7 10-1.9 3.5-3.9 6.8-5.9 10z" class="st7"/>
  <path d="M1203.4 957.6c2.9 1.1 5.7 2.3 8.5 3.5 2.8 1.2 5.7 2.3 8.5 3.5 5.7 2.4 11.3 4.8 16.9 7.3l.9.4-.5.9-5.4 10.2c-1.8 3.4-3.6 6.8-5.5 10.2-3.7 6.8-7.4 13.5-11.1 20.2l-.5-1.1c4.2 1 8.5 2.1 12.7 3.1 4.2 1.1 8.5 2.2 12.7 3.3-4.3-.7-8.6-1.6-12.9-2.4-4.3-.8-8.6-1.7-12.8-2.6l-1-.2.5-.9c3.5-6.8 7.1-13.6 10.8-20.4 1.8-3.4 3.6-6.8 5.5-10.2 1.8-3.4 3.7-6.8 5.5-10.1l.4 1.3c-5.6-2.6-11.1-5.2-16.7-7.8-2.8-1.3-5.5-2.7-8.3-4-2.7-1.5-5.5-2.8-8.2-4.2zM1203.4 1025.3c-3.4 5.5-6.9 11-10.3 16.6-3.4 5.5-7 11-10.5 16.5l-10.5 16.5-10.6 16.4-.1-1.1c6.7 8.2 13.6 16.2 20.2 24.4l20.1 24.6c6.7 8.2 13.3 16.5 19.9 24.7 3.3 4.1 6.6 8.3 9.9 12.4l9.8 12.4-10.3-12c-3.4-4-6.9-8-10.3-12.1-6.8-8.1-13.7-16.2-20.4-24.3l-20.3-24.4c-6.8-8.1-13.4-16.4-20.1-24.5l-.4-.5.4-.6 10.7-16.3 10.8-16.2c3.6-5.4 7.2-10.8 10.9-16.2 3.7-5.5 7.4-11 11.1-16.3z" class="st8"/>
  <g class="st2">
    <path d="M513.6 960.2c-3.6 9.5-7.3 19-11.1 28.5l-5.7 14.2-5.7 14.2c-3.8 9.5-7.7 18.9-11.6 28.3l-5.8 14.1-5.9 14.1v-2.1c4 9.5 8 18.9 11.9 28.4l11.8 28.4 11.6 28.5c3.9 9.5 7.7 19 11.5 28.5l-1.6-1.5c9.6 3.7 19.3 7.4 28.9 11.1 9.6 3.7 19.2 7.5 28.8 11.3l14.4 5.7 14.4 5.8c9.6 3.9 19.1 7.8 28.6 11.8-9.8-3.2-19.6-6.5-29.4-9.8l-14.7-5-14.6-5.1c-9.8-3.4-19.5-6.8-29.2-10.3-9.7-3.4-19.4-6.9-29.2-10.5l-1.1-.4-.5-1.1c-4-9.4-8-18.9-11.9-28.4l-11.8-28.4-11.6-28.5c-3.9-9.5-7.7-19-11.5-28.5l-.4-1.1.5-1 6.2-14 6.2-14c4.2-9.3 8.3-18.6 12.6-27.9l6.3-13.9 6.4-13.9c4.4-9 8.8-18.3 13.2-27.5z" class="st3"/>
  </g>
  <g class="st2">
    <path d="M1339.6 1188.7c3.7-10.7 7.4-21.4 11.2-32.1l5.7-16 5.8-16c3.8-10.7 7.7-21.3 11.6-31.9l5.9-15.9 5.9-15.9v2c-4.6-10.7-9.3-21.4-13.9-32.2l-13.8-32.2-13.6-32.3c-4.6-10.7-9-21.5-13.5-32.3l1.5 1.5c-10.8-4.6-21.6-9.3-32.4-14-10.8-4.7-21.6-9.4-32.3-14.1l-16.1-7.1-16.1-7.2c-10.7-4.8-21.4-9.7-32.1-14.6 11 4.1 22 8.4 32.9 12.6l16.4 6.4 16.4 6.5c10.9 4.3 21.8 8.7 32.7 13.1 10.9 4.4 21.8 8.8 32.7 13.3l1 .4.5 1c4.7 10.7 9.3 21.4 13.9 32.2l13.8 32.2 13.6 32.3c4.6 10.7 9 21.5 13.5 32.3l.4 1-.4 1-6.2 15.8-6.3 15.8c-4.2 10.5-8.4 21-12.7 31.5l-6.4 15.7-6.5 15.7c-4.2 10.6-8.6 21-13.1 31.5z" class="st3"/>
  </g>
  <g class="st2">
    <path d="M1082.5 960.2c-3.6 9.5-7.3 19-11.1 28.5l-5.7 14.2-5.7 14.2c-3.8 9.5-7.7 18.9-11.6 28.3l-5.8 14.1-5.9 14.1v-2.1c4 9.5 8 18.9 11.9 28.4l11.8 28.4 11.6 28.5c3.9 9.5 7.7 19 11.5 28.5l-1.6-1.5c9.6 3.7 19.3 7.4 28.9 11.1 9.6 3.7 19.2 7.5 28.8 11.3l14.4 5.7 14.4 5.8c9.6 3.9 19.1 7.8 28.6 11.8-9.8-3.2-19.6-6.5-29.4-9.8l-14.7-5-14.6-5.1c-9.8-3.4-19.5-6.8-29.2-10.3-9.7-3.4-19.4-6.9-29.2-10.5l-1.1-.4-.5-1.1c-4-9.4-8-18.9-11.9-28.4l-11.8-28.4-11.6-28.5c-3.9-9.5-7.7-19-11.5-28.5l-.4-1.1.5-1 6.2-14 6.2-14c4.2-9.3 8.3-18.6 12.6-27.9l6.3-13.9 6.4-13.9c4.5-9 8.8-18.3 13.2-27.5z" class="st3"/>
  </g>
  <path d="M1013.6 1067.9c-8.4-3.1-16.6-6.4-24.9-9.8l-12.3-5.2-12.2-5.3c-8.2-3.5-16.3-7.2-24.4-10.8-8.1-3.7-16.2-7.4-24.2-11.2h3c-7.7 3.6-15.3 7.2-23 10.6-7.7 3.5-15.4 6.9-23.2 10.3-7.7 3.4-15.6 6.7-23.4 9.9-7.8 3.2-15.7 6.4-23.7 9.3 7.3-4.3 14.8-8.3 22.2-12.4 7.5-4 15-7.9 22.5-11.7 7.5-3.9 15.1-7.7 22.7-11.4s15.2-7.4 22.9-11l1.5-.7 1.5.7c8 3.8 16.1 7.6 24.1 11.5 8 3.9 16 7.8 23.9 11.9l11.9 6.1 11.8 6.2c7.7 4.3 15.6 8.5 23.3 13z" class="st0"/>
  <g class="st2">
    <path d="M888.7 1008.6c2.5-1.6 4.9-3 7.4-4.5s5-2.9 7.5-4.3 5-2.8 7.6-4.2c2.5-1.4 5.1-2.8 7.6-4.1l.9-.5 1.1.5c16.6 7.4 32.9 15.4 49 23.7 8.1 4.2 16.1 8.4 24 12.9 4 2.2 7.9 4.5 11.8 6.8 3.9 2.3 7.8 4.7 11.7 7.1-4.3-1.6-8.5-3.2-12.7-5-4.2-1.7-8.4-3.5-12.6-5.3-8.3-3.6-16.6-7.4-24.8-11.3-16.4-7.8-32.6-15.9-48.5-24.6h2.1c-2.7 1.1-5.3 2.3-8 3.4s-5.3 2.2-8 3.3c-2.7 1.1-5.4 2.2-8.1 3.2-2.5 1-5.2 2-8 2.9z" class="st3"/>
  </g>
</svg>
