<svg xmlns="http://www.w3.org/2000/svg" xml:space="preserve" id="Layer_1" x="0" y="0" style="enable-background:new 0 0 1000 1000" version="1.1" viewBox="0 0 1000 1000"><style>.st0{opacity:.32;fill:none;stroke:#7200bc;stroke-width:8;stroke-miterlimit:10;enable-background:new}</style><switch><g><path d="M490.3 985.8c-.7-1-39.9-54.7-40.2-55.2L283.9 700.9c-15.6-21.6-28.8-40.2-40.6-56.8l-1.1-1.6-.3-1.9c-4.3-28.8-10.1-76.2-15.2-118-2.8-22.8-5.4-44.2-7.4-60l-.1-.5v-.1c-.5-4.6-5.9-48.9-10.6-88.1-10.7-88.8-10.7-88.8-10.7-89.6v-2.5l1.4-2.1c13.1-18.9 34.3-50.2 53.1-77.9l.4-.6c9.3-13.7 17.9-26.4 24.4-35.9 12.1-17.7 31.9-47.1 49.3-73.1 0 0 11.4-16.9 16.4-24.3l13.7-23.1 84.8-21 48.7-14 2.3-.6 2.3.6 132.1 32 3.7.9 2.2 3.1c18.5 25.9 44.9 62.8 72.8 101.8 35.6 49.7 72.4 101.1 95.9 134.3l2.6 3.7-.7 4.4c-20.1 136.1-39.3 264.5-54.1 361.4l-.3 1.9-1.1 1.6C703.7 716.1 641 800.4 585.7 874.8c-30 40.4-58.4 78.5-82.4 111.1l-6.5 8.8-6.5-8.9z" class="st0"/><path d="M493.6 983.4c-.8-1.1-39.8-54.7-40.2-55.2L287.1 698.6c-15.5-21.6-28.8-40.1-40.6-56.8l-.5-.8-.1-.9c-4.3-28.7-10.1-76.1-15.2-117.9-2.8-22.7-5.4-44.2-7.5-60v-.4c-.4-3.2-5.6-46.5-10.6-88.4-10.7-88.6-10.7-88.7-10.7-89.1v-1.2l.7-1c13.1-18.9 34.4-50.3 53.1-78 9.5-13.9 18.2-26.8 24.7-36.4 12.1-17.7 32-47.3 49.5-73.3 5.7-8.5 11.3-16.8 16.3-24.2l12.9-21.8 83.2-20.6 48.6-14 1.4-.3 1.4.3 132.2 32 2.3.6 1.4 1.9C648 74.1 674.4 111 702.3 150c35.6 49.7 72.4 101.2 95.9 134.2l1.7 2.4-.5 2.8c-20.1 136.2-39.3 264.6-54.1 361.4l-.1 1-.6.8C700.5 713.8 637.8 798 582.5 872.4 552.4 912.8 524 951 500 983.5l-3.3 4.4-3.1-4.5z" class="st0"/><path d="M795 286.6c-41.9-58.9-126.7-177.1-168.7-236l-.5-.7-.8-.2-132.2-32-.4-.1-.4.1-48.6 14-81.6 20.2-12.1 20.4c-20.5 30.4-49.8 74.1-65.9 97.7-19.5 28.6-58.2 85.9-77.9 114.4 0 .6 21.3 176.7 21.3 177.3 5.8 44.6 16 133.4 22.6 177.8 12.5 17.6 26.1 36.7 40.6 56.7l166.2 229.6s39.5 54.2 40.2 55.3c69.3-93.9 177.1-237.4 244.6-330.8 17.3-113.2 37.4-248.2 54.1-361.5l.2-1.2-.7-1z" style="fill:none;stroke:#7200bc;stroke-width:8;stroke-miterlimit:10;enable-background:new"/><path d="M496.8 980.8 252 638l-44.5-353.2L361.8 56.3l130.6-37.1 132.1 32.7 168 236.4-53.8 361.6z" style="fill:#80847c"/><path d="M496.8 981.1c-71.1-99.1-177.4-243.4-247-341.6-6.6-44.4-16.8-133.2-22.6-177.8 0-.6-21.3-176.7-21.3-177.3 19.7-28.5 58.4-85.8 77.9-114.4 19.3-28.3 57.9-85.9 77.1-114.3l.2-.3.4-.1L492 17.7l.4-.1.4.1 132.2 32 .8.2.5.7c42 58.9 126.8 177.1 168.7 236l.7 1-.2 1.2c-16.7 113.3-36.8 248.3-54.1 361.5-67.5 93.4-175.3 236.9-244.6 330.8zm0-.6C563.8 888 672 736 736 649.5c16.4-113.4 36.4-248.4 53.5-361.6l.5 2.2c-41.9-58.9-125.7-177.9-167.5-236.9l1.3.9L492 20.8c4.4-1-131 36.9-129.9 36.5-31.6 48.1-81.8 120.8-115.1 171l-38.3 57.3c-.1-5.5 23.7 176.7 23.5 175.4 5.1 41.8 18.3 138.6 21.9 175.4 68.9 97.4 173.6 245.2 242.7 344.1z"/><path d="m286 624.7-41.7-331.1L383.9 86.8 493 55.9l110.2 27.2 152.2 214.1L705 636 497.2 920.3z" style="fill:#5b5e58"/><linearGradient id="SVGID_1_" x1="371.3" x2="744.5" y1="547.35" y2="547.35" gradientTransform="translate(0 -78)" gradientUnits="userSpaceOnUse"><stop offset="0" style="stop-color:#6f726d;stop-opacity:0"/><stop offset=".927" style="stop-color:#6f726d"/></linearGradient><path d="m413.1 519.4-41.8-331.1 49.6-89.4 78.6-28.3 97.3 24.9 147.7 202.6-52.2 330.7-187.1 239.3z" style="fill:url(#SVGID_1_)"/><path d="m356.4 465.1 63.8-28.3 57.6 14.8-1 31.3-37.4 29.2-61.2-12.7zm287.4 0L580 436.8l-57.7 14.8 1.1 31.3 37.3 29.2 61.3-12.7z" style="fill:#181918"/><path d="m280.4 338.1 37.8 184.7 82.5 88.1 34.1 112.8 62.9 66.9-71.2-47.7L383.6 626l-94.3-74.3-1.4-10.6-31.6-246.6L396 99.2l95.5-28.6 105.3 24.9-124.6 17.4-145.6 106z" style="fill:#343533"/><path d="m358.3 474.5 15.3 51.8 52.4 7.9-46.3-21.4zM516 491.6l30.4 42.6 51.4-13.6-47.3 5.7z" style="fill:#92a097"/><path d="m404.4 162.3 111.6-15 106.2 46.8L703.3 322l-19.2 224.2-49.6 35.8-44-11 64.7-20.7-38.5-8.2 19.2-42.1 22-72.1-28.9 8.9 48.2-116.2-79.4-125.1L516 157z" style="fill:#aeb7af"/><path d="m300.3 534.2-11 17.5 5.5 63.3 199.4 280.6 198.1-266.8 13.8-94.6-62.3 53.3-46 27.5-14.8 90.8-85.3 84.8-71.2-47.7-34.4-125.1z" style="opacity:.38;fill:#343533;enable-background:new"/><linearGradient id="SVGID_00000030472343485488806820000009701901024860145596_" x1="299.592" x2="732.421" y1="941.889" y2="192.208" gradientTransform="translate(0 -78)" gradientUnits="userSpaceOnUse"><stop offset="0" style="stop-color:#d297c8;stop-opacity:.38"/><stop offset="1" style="stop-color:#d2dbc8;stop-opacity:.3794"/></linearGradient><path d="M492.4 19.2 615 261.7l-32 444.1-86.4 271.8 225.8-335.3 45-349.5L624.5 51.9z" style="fill:url(#SVGID_00000030472343485488806820000009701901024860145596_)"/><linearGradient id="SVGID_00000141447911910995661440000014823307574371918241_" x1="-7891.844" x2="-7456.929" y1="945.503" y2="192.208" gradientTransform="matrix(-1 0 0 1 -7203.05 -78)" gradientUnits="userSpaceOnUse"><stop offset="0" style="stop-color:#d297c8;stop-opacity:.38"/><stop offset="1" style="stop-color:#d2dbc8;stop-opacity:.38"/></linearGradient><path d="M493.9 19.2 365.8 284.6l69 439.1 63.3 253.9-234.2-335.3-45-349.5L361.8 51.9z" style="opacity:.67;fill:url(#SVGID_00000141447911910995661440000014823307574371918241_);enable-background:new"/><linearGradient id="SVGID_00000023255752684260332180000002476667353730452670_" x1="565.823" x2="705.759" y1="444.241" y2="201.865" gradientTransform="translate(0 -78)" gradientUnits="userSpaceOnUse"><stop offset="0" style="stop-color:#d297c8;stop-opacity:.38"/><stop offset="1" style="stop-color:#d2dbc8;stop-opacity:.3794"/></linearGradient><path d="m516 39.9 97.5 30.7 153.9 222.2-22.9 176.6" style="fill:url(#SVGID_00000023255752684260332180000002476667353730452670_)"/><linearGradient id="SVGID_00000097494950817355040170000005657043700935719821_" x1="207.5" x2="477.8" y1="710.8" y2="710.8" gradientTransform="translate(0 -78)" gradientUnits="userSpaceOnUse"><stop offset="0" style="stop-color:#d297c8;stop-opacity:.38"/><stop offset="1" style="stop-color:#d2dbc8;stop-opacity:.38"/></linearGradient><path d="m207.5 284.8 148.9 180.3L344.9 637l132.9 343.8L252 638z" style="opacity:.67;fill:url(#SVGID_00000097494950817355040170000005657043700935719821_);enable-background:new"/></g></switch></svg>