<svg xmlns="http://www.w3.org/2000/svg" width="2000" height="2000"><mask id="a"><path fill="#fff" d="M0 0h2000v2000H0z"/><path d="m953 1148 95-20 31-142 120-116 104-236-123-174-240-24-152 191 50 21 56 3 93-92 128 15 60 78-60 151-134 135-28 210zm101 12-109 22 3 95 89 9 17-126z"/></mask><g mask="url(#a)"><path fill="#3f0c00" d="m1399 954 130-289-69-337-233-200-200 67-228-53-203 183-72 341 100 215 24 23 221-499 439-27 91 576z"/><path fill="#dca064" d="m1306 347-282-56-267 54-118 524 6 173 36 40 8 54 65 164 114 118-35 170-437 89-191 200-30 123h1644l-6-103-120-173-459-137-34-182 115-108 53-170 2-35 39-48 9-184-112-513z"/><path fill="#586e59" d="m1569 2000-68-248-43-98-224-67-57 147-150 51-134-50-60-147-260 53 3 108-81 251h1074z"/></g></svg>
